M48
; DRILL file {KiCad 8.0.6} date 2024-10-29T13:46:19+0800
; FORMAT={-:-/ absolute / metric / decimal}
; #@! TF.CreationDate,2024-10-29T13:46:19+08:00
; #@! TF.GenerationSoftware,Kicad,Pcbnew,8.0.6
; #@! TF.FileFunction,MixedPlating,1,2
FMAT,2
METRIC
; #@! TA.AperFunction,Plated,PTH,ComponentDrill
T1C0.200
; #@! TA.AperFunction,Plated,PTH,ViaDrill
T2C0.300
; #@! TA.AperFunction,Plated,PTH,ViaDrill
T3C0.400
; #@! TA.AperFunction,Plated,PTH,ComponentDrill
T4C0.600
; #@! TA.AperFunction,Plated,PTH,ComponentDrill
T5C1.000
; #@! TA.AperFunction,NonPlated,NPTH,ComponentDrill
T6C0.650
; #@! TA.AperFunction,NonPlated,NPTH,ComponentDrill
T7C2.200
%
G90
G05
T1
X16.12Y-10.7
X16.12Y-11.7
X16.12Y-12.7
X16.12Y-13.7
X16.12Y-14.7
X17.295Y-10.7
X17.295Y-11.7
X17.295Y-12.7
X17.295Y-13.7
X17.295Y-14.7
X18.47Y-10.7
X18.47Y-11.7
X18.47Y-12.7
X18.47Y-13.7
X18.47Y-14.7
X19.645Y-10.7
X19.645Y-11.7
X19.645Y-12.7
X19.645Y-13.7
X19.645Y-14.7
X20.82Y-10.7
X20.82Y-11.7
X20.82Y-12.7
X20.82Y-13.7
X20.82Y-14.7
T2
X2.8Y-12.455
X2.8Y-13.455
X8.28Y-14.565
X8.28Y-15.355
X8.28Y-16.145
X9.95Y-7.385
X9.95Y-8.385
X9.95Y-9.385
X9.95Y-10.385
X9.95Y-11.385
X9.95Y-12.385
X9.95Y-13.385
X9.95Y-14.385
X9.95Y-15.385
X9.95Y-16.385
X9.95Y-17.385
X9.95Y-18.385
X9.95Y-19.385
X10.95Y-19.385
X11.95Y-19.385
X11.96Y-17.265
X12.95Y-19.385
X13.95Y-19.385
X14.95Y-19.385
X15.95Y-19.385
X18.21Y-19.385
X19.62Y-20.205
X24.1Y-15.525
X32.36Y-21.845
X32.37Y-3.545
X33.89Y-21.845
X33.9Y-3.545
X35.43Y-3.545
X35.43Y-21.845
X36.97Y-3.545
X36.97Y-21.845
X37.41Y-10.925
X37.41Y-11.58
X37.41Y-12.23
X37.41Y-12.88
X37.41Y-13.53
X37.41Y-14.187
X37.41Y-14.83
X37.41Y-15.48
X44.4Y-7.805
X44.4Y-9.725
X44.4Y-11.205
X44.4Y-12.705
X44.4Y-14.145
X44.4Y-15.635
X44.4Y-17.535
T3
X4.9Y-10.295
X4.9Y-15.105
X7.93Y-22.915
X9.01Y-22.915
X10.09Y-22.915
X11.96Y-8.665
X12.92Y-16.635
X16.68Y-22.875
X17.61Y-1.845
X22.48Y-21.255
X22.48Y-22.155
X22.48Y-23.055
X22.48Y-23.955
X24.98Y-7.345
X24.99Y-9.105
X25.98Y-16.145
X34.67Y-1.845
X34.67Y-23.525
T5
X47.1Y-1.275
X47.1Y-3.815
X47.1Y-6.355
X47.1Y-8.895
X47.1Y-11.435
X47.1Y-13.975
X47.1Y-16.515
X47.1Y-19.055
X47.1Y-21.595
X47.1Y-24.135
T6
X2.377Y-9.81
X2.377Y-15.59
T7
X0.3Y-3.305
X0.3Y-22.105
X40.54Y-3.305
X40.54Y-22.105
T4
G00X-0.873Y-8.375
M15
G01X-1.773Y-8.375
M16
G05
G00X-0.873Y-17.025
M15
G01X-1.773Y-17.025
M16
G05
G00X3.477Y-8.375
M15
G01X2.277Y-8.375
M16
G05
G00X3.477Y-17.025
M15
G01X2.277Y-17.025
M16
G05
M30
