%TF.GenerationSoftware,KiCad,Pcbnew,(6.0.11)*%
%TF.CreationDate,2023-01-29T17:16:09+08:00*%
%TF.ProjectId,UINIO-Logic-24MHz,55494e49-4f2d-44c6-9f67-69632d32344d,Version 1.0.0*%
%TF.SameCoordinates,PX91e9840PY6514770*%
%TF.FileFunction,Legend,Top*%
%TF.FilePolarity,Positive*%
%FSLAX46Y46*%
G04 Gerber Fmt 4.6, Leading zero omitted, Abs format (unit mm)*
G04 Created by KiCad (PCBNEW (6.0.11)) date 2023-01-29 17:16:09*
%MOMM*%
%LPD*%
G01*
G04 APERTURE LIST*
G04 Aperture macros list*
%AMRoundRect*
0 Rectangle with rounded corners*
0 $1 Rounding radius*
0 $2 $3 $4 $5 $6 $7 $8 $9 X,Y pos of 4 corners*
0 Add a 4 corners polygon primitive as box body*
4,1,4,$2,$3,$4,$5,$6,$7,$8,$9,$2,$3,0*
0 Add four circle primitives for the rounded corners*
1,1,$1+$1,$2,$3*
1,1,$1+$1,$4,$5*
1,1,$1+$1,$6,$7*
1,1,$1+$1,$8,$9*
0 Add four rect primitives between the rounded corners*
20,1,$1+$1,$2,$3,$4,$5,0*
20,1,$1+$1,$4,$5,$6,$7,0*
20,1,$1+$1,$6,$7,$8,$9,0*
20,1,$1+$1,$8,$9,$2,$3,0*%
%AMFreePoly0*
4,1,17,0.300000,0.502500,0.435000,0.367500,0.750000,0.367500,0.750000,-0.367500,0.435000,-0.367500,0.300000,-0.502500,0.300000,-0.587500,-0.300000,-0.587500,-0.300000,-0.502500,-0.435000,-0.367500,-0.500000,-0.367500,-0.500000,0.367500,-0.435000,0.367500,-0.300000,0.502500,-0.300000,0.837549,0.300000,0.837549,0.300000,0.502500,0.300000,0.502500,$1*%
%AMFreePoly1*
4,1,17,0.300000,0.502500,0.435000,0.367500,0.500000,0.367500,0.500000,-0.367500,0.435000,-0.367500,0.300000,-0.502500,0.300000,-0.837549,-0.300000,-0.837549,-0.300000,-0.502500,-0.435000,-0.367500,-0.750000,-0.367500,-0.750000,0.367500,-0.435000,0.367500,-0.300000,0.502500,-0.300000,0.587500,0.300000,0.587500,0.300000,0.502500,0.300000,0.502500,$1*%
%AMFreePoly2*
4,1,17,0.300000,0.502500,0.435000,0.367500,0.750000,0.367500,0.750000,-0.367500,0.435000,-0.367500,0.300000,-0.502500,0.300000,-0.837549,-0.300000,-0.837549,-0.300000,-0.502500,-0.435000,-0.367500,-0.500000,-0.367500,-0.500000,0.367500,-0.435000,0.367500,-0.300000,0.502500,-0.300000,0.587500,0.300000,0.587500,0.300000,0.502500,0.300000,0.502500,$1*%
%AMFreePoly3*
4,1,17,0.300000,0.502500,0.435000,0.367500,0.750000,0.367500,0.750000,-0.367500,0.435000,-0.367500,0.300000,-0.502500,0.300000,-0.587500,-0.300000,-0.587500,-0.300000,-0.502500,-0.435000,-0.367500,-0.500000,-0.367500,-0.500000,0.367500,-0.435000,0.367500,-0.300000,0.502500,-0.300000,0.587500,0.300000,0.587500,0.300000,0.502500,0.300000,0.502500,$1*%
%AMFreePoly4*
4,1,17,0.300000,0.502500,0.435000,0.367500,0.500000,0.367500,0.500000,-0.367500,0.435000,-0.367500,0.300000,-0.502500,0.300000,-0.587500,-0.300000,-0.587500,-0.300000,-0.502500,-0.435000,-0.367500,-0.500000,-0.367500,-0.500000,0.367500,-0.435000,0.367500,-0.300000,0.502500,-0.300000,0.587500,0.300000,0.587500,0.300000,0.502500,0.300000,0.502500,$1*%
%AMFreePoly5*
4,1,17,0.300000,0.502500,0.435000,0.367500,0.500000,0.367500,0.500000,-0.367500,0.435000,-0.367500,0.300000,-0.502500,0.300000,-0.837549,-0.300000,-0.837549,-0.300000,-0.502500,-0.435000,-0.367500,-0.500000,-0.367500,-0.500000,0.367500,-0.435000,0.367500,-0.300000,0.502500,-0.300000,0.587500,0.300000,0.587500,0.300000,0.502500,0.300000,0.502500,$1*%
%AMFreePoly6*
4,1,17,0.300000,0.502500,0.435000,0.367500,0.500000,0.367500,0.500000,-0.367500,0.435000,-0.367500,0.300000,-0.502500,0.300000,-0.587500,-0.300000,-0.587500,-0.300000,-0.502500,-0.435000,-0.367500,-0.500000,-0.367500,-0.500000,0.367500,-0.435000,0.367500,-0.300000,0.502500,-0.300000,0.837549,0.300000,0.837549,0.300000,0.502500,0.300000,0.502500,$1*%
%AMFreePoly7*
4,1,17,0.300000,0.502500,0.435000,0.367500,0.500000,0.367500,0.500000,-0.367500,0.435000,-0.367500,0.300000,-0.502500,0.300000,-0.587500,-0.300000,-0.587500,-0.300000,-0.502500,-0.435000,-0.367500,-0.750000,-0.367500,-0.750000,0.367500,-0.435000,0.367500,-0.300000,0.502500,-0.300000,0.837549,0.300000,0.837549,0.300000,0.502500,0.300000,0.502500,$1*%
%AMFreePoly8*
4,1,17,0.300000,0.502500,0.435000,0.367500,0.500000,0.367500,0.500000,-0.367500,0.435000,-0.367500,0.300000,-0.502500,0.300000,-0.587500,-0.300000,-0.587500,-0.300000,-0.502500,-0.435000,-0.367500,-0.750000,-0.367500,-0.750000,0.367500,-0.435000,0.367500,-0.300000,0.502500,-0.300000,0.587500,0.300000,0.587500,0.300000,0.502500,0.300000,0.502500,$1*%
G04 Aperture macros list end*
%ADD10C,0.200000*%
%ADD11C,0.100000*%
%ADD12C,0.150000*%
%ADD13C,0.300000*%
%ADD14C,0.120000*%
%ADD15C,0.254000*%
%ADD16C,0.152000*%
%ADD17C,2.200000*%
%ADD18RoundRect,0.100000X-0.637500X-0.100000X0.637500X-0.100000X0.637500X0.100000X-0.637500X0.100000X0*%
%ADD19RoundRect,0.140000X-0.170000X0.140000X-0.170000X-0.140000X0.170000X-0.140000X0.170000X0.140000X0*%
%ADD20RoundRect,0.135000X-0.185000X0.135000X-0.185000X-0.135000X0.185000X-0.135000X0.185000X0.135000X0*%
%ADD21RoundRect,0.140000X0.140000X0.170000X-0.140000X0.170000X-0.140000X-0.170000X0.140000X-0.170000X0*%
%ADD22RoundRect,0.135000X0.185000X-0.135000X0.185000X0.135000X-0.185000X0.135000X-0.185000X-0.135000X0*%
%ADD23FreePoly0,270.000000*%
%ADD24FreePoly1,270.000000*%
%ADD25FreePoly2,270.000000*%
%ADD26FreePoly3,270.000000*%
%ADD27FreePoly4,270.000000*%
%ADD28FreePoly5,270.000000*%
%ADD29FreePoly6,270.000000*%
%ADD30FreePoly7,270.000000*%
%ADD31FreePoly8,270.000000*%
%ADD32RoundRect,0.062500X-0.062500X0.375000X-0.062500X-0.375000X0.062500X-0.375000X0.062500X0.375000X0*%
%ADD33RoundRect,0.062500X-0.375000X0.062500X-0.375000X-0.062500X0.375000X-0.062500X0.375000X0.062500X0*%
%ADD34C,0.650000*%
%ADD35O,2.100000X1.000000*%
%ADD36O,1.900000X1.000000*%
%ADD37R,1.150000X0.600000*%
%ADD38R,1.150000X0.300000*%
%ADD39RoundRect,0.218750X-0.256250X0.218750X-0.256250X-0.218750X0.256250X-0.218750X0.256250X0.218750X0*%
%ADD40RoundRect,0.135000X0.135000X0.185000X-0.135000X0.185000X-0.135000X-0.185000X0.135000X-0.185000X0*%
%ADD41R,1.200000X1.400000*%
%ADD42RoundRect,0.140000X0.170000X-0.140000X0.170000X0.140000X-0.170000X0.140000X-0.170000X-0.140000X0*%
%ADD43RoundRect,0.135000X-0.135000X-0.185000X0.135000X-0.185000X0.135000X0.185000X-0.135000X0.185000X0*%
%ADD44O,1.742000X0.364000*%
%ADD45R,1.700000X1.700000*%
%ADD46O,1.700000X1.700000*%
%ADD47R,1.000000X0.600000*%
G04 APERTURE END LIST*
D10*
X-43078429Y-16896428D02*
X-43121286Y-16939285D01*
X-43249858Y-16982142D01*
X-43335572Y-16982142D01*
X-43464143Y-16939285D01*
X-43549858Y-16853571D01*
X-43592715Y-16767857D01*
X-43635572Y-16596428D01*
X-43635572Y-16467857D01*
X-43592715Y-16296428D01*
X-43549858Y-16210714D01*
X-43464143Y-16125000D01*
X-43335572Y-16082142D01*
X-43249858Y-16082142D01*
X-43121286Y-16125000D01*
X-43078429Y-16167857D01*
X-42692715Y-16982142D02*
X-42692715Y-16082142D01*
X-42692715Y-16510714D02*
X-42178429Y-16510714D01*
X-42178429Y-16982142D02*
X-42178429Y-16082142D01*
X-41364143Y-16082142D02*
X-41535572Y-16082142D01*
X-41621286Y-16125000D01*
X-41664143Y-16167857D01*
X-41749858Y-16296428D01*
X-41792715Y-16467857D01*
X-41792715Y-16810714D01*
X-41749858Y-16896428D01*
X-41707000Y-16939285D01*
X-41621286Y-16982142D01*
X-41449858Y-16982142D01*
X-41364143Y-16939285D01*
X-41321286Y-16896428D01*
X-41278429Y-16810714D01*
X-41278429Y-16596428D01*
X-41321286Y-16510714D01*
X-41364143Y-16467857D01*
X-41449858Y-16425000D01*
X-41621286Y-16425000D01*
X-41707000Y-16467857D01*
X-41749858Y-16510714D01*
X-41792715Y-16596428D01*
D11*
X-33933334Y-7974761D02*
X-34009524Y-7936666D01*
X-34047620Y-7898571D01*
X-34085715Y-7822380D01*
X-34085715Y-7784285D01*
X-34047620Y-7708095D01*
X-34009524Y-7670000D01*
X-33933334Y-7631904D01*
X-33780953Y-7631904D01*
X-33704762Y-7670000D01*
X-33666667Y-7708095D01*
X-33628572Y-7784285D01*
X-33628572Y-7822380D01*
X-33666667Y-7898571D01*
X-33704762Y-7936666D01*
X-33780953Y-7974761D01*
X-33933334Y-7974761D01*
X-34009524Y-8012857D01*
X-34047620Y-8050952D01*
X-34085715Y-8127142D01*
X-34085715Y-8279523D01*
X-34047620Y-8355714D01*
X-34009524Y-8393809D01*
X-33933334Y-8431904D01*
X-33780953Y-8431904D01*
X-33704762Y-8393809D01*
X-33666667Y-8355714D01*
X-33628572Y-8279523D01*
X-33628572Y-8127142D01*
X-33666667Y-8050952D01*
X-33704762Y-8012857D01*
X-33780953Y-7974761D01*
X-32295239Y-7860476D02*
X-32295239Y-8431904D01*
X-32676191Y-7898571D02*
X-32790477Y-7936666D01*
X-32295239Y-7517619D02*
X-32638096Y-7860476D01*
X-32295239Y-7517619D02*
X-31990477Y-7860476D01*
X-31800000Y-7936666D01*
X-31609524Y-8012857D02*
X-30619048Y-8012857D01*
X-31114286Y-7898571D02*
X-31114286Y-8431904D01*
X-31457143Y-7708095D02*
X-31380953Y-7898571D01*
X-31152381Y-7670000D02*
X-31114286Y-7860476D01*
X-31114286Y-8012857D02*
X-30847620Y-8279523D01*
X-30619048Y-8355714D01*
X-31114286Y-8012857D02*
X-31380953Y-8279523D01*
X-31609524Y-8355714D01*
X-30771429Y-7555714D02*
X-31114286Y-7631904D01*
X-31457143Y-7631904D01*
X-30733334Y-7670000D02*
X-30809524Y-7822380D01*
X-30885715Y-7898571D01*
X-30009524Y-7746190D02*
X-29476191Y-7746190D01*
X-30390477Y-7746190D02*
X-30085715Y-7746190D01*
X-29971429Y-7936666D02*
X-29514286Y-7936666D01*
X-30085715Y-8165238D02*
X-29438096Y-8165238D01*
X-30238096Y-7517619D02*
X-30238096Y-8431904D01*
X-29742858Y-7746190D02*
X-29742858Y-8431904D01*
X-29933334Y-7517619D02*
X-29895239Y-7670000D01*
X-30238096Y-7746190D02*
X-30123810Y-8012857D01*
X-30314286Y-7974761D02*
X-30390477Y-8203333D01*
X-29514286Y-7517619D02*
X-29628572Y-7746190D01*
X-30238096Y-7708095D02*
X-30352381Y-8127142D01*
X-28866667Y-7936666D02*
X-28333334Y-7936666D01*
X-28866667Y-8127142D02*
X-28333334Y-8127142D01*
X-28485715Y-8317619D02*
X-28333334Y-8317619D01*
X-28866667Y-7784285D02*
X-28866667Y-8317619D01*
X-28600000Y-7784285D02*
X-28600000Y-8317619D01*
X-28866667Y-7784285D02*
X-28333334Y-7784285D01*
X-28333334Y-8317619D01*
X-29209524Y-7555714D02*
X-29057143Y-7708095D01*
X-29247620Y-7936666D02*
X-29057143Y-7936666D01*
X-29057143Y-8279523D01*
X-29209524Y-8393809D01*
X-28752381Y-7670000D02*
X-28447620Y-7784285D01*
X-28904762Y-7593809D02*
X-28333334Y-7593809D01*
X-28600000Y-7708095D01*
X-29095239Y-8317619D02*
X-28714286Y-8431904D01*
X-28219048Y-8431904D01*
X-27761905Y-7670000D02*
X-27076191Y-7670000D01*
X-27685715Y-7974761D02*
X-27190477Y-7974761D01*
X-27685715Y-8127142D02*
X-27190477Y-8127142D01*
X-27685715Y-8279523D02*
X-27190477Y-8279523D01*
X-27685715Y-7822380D02*
X-27685715Y-8279523D01*
X-27419048Y-7670000D02*
X-27495239Y-7822380D01*
X-27685715Y-7822380D02*
X-27190477Y-7822380D01*
X-27190477Y-8279523D01*
X-27990477Y-7555714D02*
X-27876191Y-7708095D01*
X-27609524Y-7517619D02*
X-27571429Y-7631904D01*
X-28066667Y-7936666D02*
X-27876191Y-7936666D01*
X-27876191Y-8279523D01*
X-28028572Y-8431904D01*
X-27266667Y-7517619D02*
X-27304762Y-7670000D01*
X-27914286Y-8317619D02*
X-27533334Y-8431904D01*
X-27038096Y-8431904D01*
D10*
X-43078429Y-21976428D02*
X-43121286Y-22019285D01*
X-43249858Y-22062142D01*
X-43335572Y-22062142D01*
X-43464143Y-22019285D01*
X-43549858Y-21933571D01*
X-43592715Y-21847857D01*
X-43635572Y-21676428D01*
X-43635572Y-21547857D01*
X-43592715Y-21376428D01*
X-43549858Y-21290714D01*
X-43464143Y-21205000D01*
X-43335572Y-21162142D01*
X-43249858Y-21162142D01*
X-43121286Y-21205000D01*
X-43078429Y-21247857D01*
X-42692715Y-22062142D02*
X-42692715Y-21162142D01*
X-42692715Y-21590714D02*
X-42178429Y-21590714D01*
X-42178429Y-22062142D02*
X-42178429Y-21162142D01*
X-41621286Y-21547857D02*
X-41707000Y-21505000D01*
X-41749858Y-21462142D01*
X-41792715Y-21376428D01*
X-41792715Y-21333571D01*
X-41749858Y-21247857D01*
X-41707000Y-21205000D01*
X-41621286Y-21162142D01*
X-41449858Y-21162142D01*
X-41364143Y-21205000D01*
X-41321286Y-21247857D01*
X-41278429Y-21333571D01*
X-41278429Y-21376428D01*
X-41321286Y-21462142D01*
X-41364143Y-21505000D01*
X-41449858Y-21547857D01*
X-41621286Y-21547857D01*
X-41707000Y-21590714D01*
X-41749858Y-21633571D01*
X-41792715Y-21719285D01*
X-41792715Y-21890714D01*
X-41749858Y-21976428D01*
X-41707000Y-22019285D01*
X-41621286Y-22062142D01*
X-41449858Y-22062142D01*
X-41364143Y-22019285D01*
X-41321286Y-21976428D01*
X-41278429Y-21890714D01*
X-41278429Y-21719285D01*
X-41321286Y-21633571D01*
X-41364143Y-21590714D01*
X-41449858Y-21547857D01*
X-29546191Y-478095D02*
X-29546191Y-1190476D01*
X-29498572Y-1274285D01*
X-29450953Y-1316190D01*
X-29355715Y-1358095D01*
X-29165239Y-1358095D01*
X-29070000Y-1316190D01*
X-29022381Y-1274285D01*
X-28974762Y-1190476D01*
X-28974762Y-478095D01*
X-28498572Y-1358095D02*
X-28498572Y-478095D01*
X-28022381Y-1358095D02*
X-28022381Y-478095D01*
X-27450953Y-1358095D01*
X-27450953Y-478095D01*
X-26974762Y-1358095D02*
X-26974762Y-478095D01*
X-26308096Y-478095D02*
X-26117620Y-478095D01*
X-26022381Y-520000D01*
X-25927143Y-603809D01*
X-25879524Y-771428D01*
X-25879524Y-1064761D01*
X-25927143Y-1232380D01*
X-26022381Y-1316190D01*
X-26117620Y-1358095D01*
X-26308096Y-1358095D01*
X-26403334Y-1316190D01*
X-26498572Y-1232380D01*
X-26546191Y-1064761D01*
X-26546191Y-771428D01*
X-26498572Y-603809D01*
X-26403334Y-520000D01*
X-26308096Y-478095D01*
X-25450953Y-1022857D02*
X-24689048Y-1022857D01*
X-23736667Y-1358095D02*
X-24212858Y-1358095D01*
X-24212858Y-478095D01*
X-23260477Y-1358095D02*
X-23355715Y-1316190D01*
X-23403334Y-1274285D01*
X-23450953Y-1190476D01*
X-23450953Y-939047D01*
X-23403334Y-855238D01*
X-23355715Y-813333D01*
X-23260477Y-771428D01*
X-23117620Y-771428D01*
X-23022381Y-813333D01*
X-22974762Y-855238D01*
X-22927143Y-939047D01*
X-22927143Y-1190476D01*
X-22974762Y-1274285D01*
X-23022381Y-1316190D01*
X-23117620Y-1358095D01*
X-23260477Y-1358095D01*
X-22070000Y-771428D02*
X-22070000Y-1483809D01*
X-22117620Y-1567619D01*
X-22165239Y-1609523D01*
X-22260477Y-1651428D01*
X-22403334Y-1651428D01*
X-22498572Y-1609523D01*
X-22070000Y-1316190D02*
X-22165239Y-1358095D01*
X-22355715Y-1358095D01*
X-22450953Y-1316190D01*
X-22498572Y-1274285D01*
X-22546191Y-1190476D01*
X-22546191Y-939047D01*
X-22498572Y-855238D01*
X-22450953Y-813333D01*
X-22355715Y-771428D01*
X-22165239Y-771428D01*
X-22070000Y-813333D01*
X-21593810Y-1358095D02*
X-21593810Y-771428D01*
X-21593810Y-478095D02*
X-21641429Y-520000D01*
X-21593810Y-561904D01*
X-21546191Y-520000D01*
X-21593810Y-478095D01*
X-21593810Y-561904D01*
X-20689048Y-1316190D02*
X-20784286Y-1358095D01*
X-20974762Y-1358095D01*
X-21070000Y-1316190D01*
X-21117620Y-1274285D01*
X-21165239Y-1190476D01*
X-21165239Y-939047D01*
X-21117620Y-855238D01*
X-21070000Y-813333D01*
X-20974762Y-771428D01*
X-20784286Y-771428D01*
X-20689048Y-813333D01*
X-20260477Y-1022857D02*
X-19498572Y-1022857D01*
X-19070000Y-561904D02*
X-19022381Y-520000D01*
X-18927143Y-478095D01*
X-18689048Y-478095D01*
X-18593810Y-520000D01*
X-18546191Y-561904D01*
X-18498572Y-645714D01*
X-18498572Y-729523D01*
X-18546191Y-855238D01*
X-19117620Y-1358095D01*
X-18498572Y-1358095D01*
X-17641429Y-771428D02*
X-17641429Y-1358095D01*
X-17879524Y-436190D02*
X-18117620Y-1064761D01*
X-17498572Y-1064761D01*
X-17117620Y-1358095D02*
X-17117620Y-478095D01*
X-16784286Y-1106666D01*
X-16450953Y-478095D01*
X-16450953Y-1358095D01*
X-15974762Y-1358095D02*
X-15974762Y-478095D01*
X-15974762Y-897142D02*
X-15403334Y-897142D01*
X-15403334Y-1358095D02*
X-15403334Y-478095D01*
X-15022381Y-771428D02*
X-14498572Y-771428D01*
X-15022381Y-1358095D01*
X-14498572Y-1358095D01*
X-43078429Y-4221428D02*
X-43121286Y-4264285D01*
X-43249858Y-4307142D01*
X-43335572Y-4307142D01*
X-43464143Y-4264285D01*
X-43549858Y-4178571D01*
X-43592715Y-4092857D01*
X-43635572Y-3921428D01*
X-43635572Y-3792857D01*
X-43592715Y-3621428D01*
X-43549858Y-3535714D01*
X-43464143Y-3450000D01*
X-43335572Y-3407142D01*
X-43249858Y-3407142D01*
X-43121286Y-3450000D01*
X-43078429Y-3492857D01*
X-42692715Y-4307142D02*
X-42692715Y-3407142D01*
X-42692715Y-3835714D02*
X-42178429Y-3835714D01*
X-42178429Y-4307142D02*
X-42178429Y-3407142D01*
X-41278429Y-4307142D02*
X-41792715Y-4307142D01*
X-41535572Y-4307142D02*
X-41535572Y-3407142D01*
X-41621286Y-3535714D01*
X-41707000Y-3621428D01*
X-41792715Y-3664285D01*
X-43078429Y-11816428D02*
X-43121286Y-11859285D01*
X-43249858Y-11902142D01*
X-43335572Y-11902142D01*
X-43464143Y-11859285D01*
X-43549858Y-11773571D01*
X-43592715Y-11687857D01*
X-43635572Y-11516428D01*
X-43635572Y-11387857D01*
X-43592715Y-11216428D01*
X-43549858Y-11130714D01*
X-43464143Y-11045000D01*
X-43335572Y-11002142D01*
X-43249858Y-11002142D01*
X-43121286Y-11045000D01*
X-43078429Y-11087857D01*
X-42692715Y-11902142D02*
X-42692715Y-11002142D01*
X-42692715Y-11430714D02*
X-42178429Y-11430714D01*
X-42178429Y-11902142D02*
X-42178429Y-11002142D01*
X-41364143Y-11302142D02*
X-41364143Y-11902142D01*
X-41578429Y-10959285D02*
X-41792715Y-11602142D01*
X-41235572Y-11602142D01*
X-43078429Y-9276428D02*
X-43121286Y-9319285D01*
X-43249858Y-9362142D01*
X-43335572Y-9362142D01*
X-43464143Y-9319285D01*
X-43549858Y-9233571D01*
X-43592715Y-9147857D01*
X-43635572Y-8976428D01*
X-43635572Y-8847857D01*
X-43592715Y-8676428D01*
X-43549858Y-8590714D01*
X-43464143Y-8505000D01*
X-43335572Y-8462142D01*
X-43249858Y-8462142D01*
X-43121286Y-8505000D01*
X-43078429Y-8547857D01*
X-42692715Y-9362142D02*
X-42692715Y-8462142D01*
X-42692715Y-8890714D02*
X-42178429Y-8890714D01*
X-42178429Y-9362142D02*
X-42178429Y-8462142D01*
X-41835572Y-8462142D02*
X-41278429Y-8462142D01*
X-41578429Y-8805000D01*
X-41449858Y-8805000D01*
X-41364143Y-8847857D01*
X-41321286Y-8890714D01*
X-41278429Y-8976428D01*
X-41278429Y-9190714D01*
X-41321286Y-9276428D01*
X-41364143Y-9319285D01*
X-41449858Y-9362142D01*
X-41707000Y-9362142D01*
X-41792715Y-9319285D01*
X-41835572Y-9276428D01*
X-43142715Y-885000D02*
X-43228429Y-842142D01*
X-43357000Y-842142D01*
X-43485572Y-885000D01*
X-43571286Y-970714D01*
X-43614143Y-1056428D01*
X-43657000Y-1227857D01*
X-43657000Y-1356428D01*
X-43614143Y-1527857D01*
X-43571286Y-1613571D01*
X-43485572Y-1699285D01*
X-43357000Y-1742142D01*
X-43271286Y-1742142D01*
X-43142715Y-1699285D01*
X-43099858Y-1656428D01*
X-43099858Y-1356428D01*
X-43271286Y-1356428D01*
X-42714143Y-1742142D02*
X-42714143Y-842142D01*
X-42199858Y-1742142D01*
X-42199858Y-842142D01*
X-41771286Y-1742142D02*
X-41771286Y-842142D01*
X-41557000Y-842142D01*
X-41428429Y-885000D01*
X-41342715Y-970714D01*
X-41299858Y-1056428D01*
X-41257000Y-1227857D01*
X-41257000Y-1356428D01*
X-41299858Y-1527857D01*
X-41342715Y-1613571D01*
X-41428429Y-1699285D01*
X-41557000Y-1742142D01*
X-41771286Y-1742142D01*
X-43142715Y-23745000D02*
X-43228429Y-23702142D01*
X-43357000Y-23702142D01*
X-43485572Y-23745000D01*
X-43571286Y-23830714D01*
X-43614143Y-23916428D01*
X-43657000Y-24087857D01*
X-43657000Y-24216428D01*
X-43614143Y-24387857D01*
X-43571286Y-24473571D01*
X-43485572Y-24559285D01*
X-43357000Y-24602142D01*
X-43271286Y-24602142D01*
X-43142715Y-24559285D01*
X-43099858Y-24516428D01*
X-43099858Y-24216428D01*
X-43271286Y-24216428D01*
X-42714143Y-24602142D02*
X-42714143Y-23702142D01*
X-42199858Y-24602142D01*
X-42199858Y-23702142D01*
X-41771286Y-24602142D02*
X-41771286Y-23702142D01*
X-41557000Y-23702142D01*
X-41428429Y-23745000D01*
X-41342715Y-23830714D01*
X-41299858Y-23916428D01*
X-41257000Y-24087857D01*
X-41257000Y-24216428D01*
X-41299858Y-24387857D01*
X-41342715Y-24473571D01*
X-41428429Y-24559285D01*
X-41557000Y-24602142D01*
X-41771286Y-24602142D01*
X-43078429Y-14356428D02*
X-43121286Y-14399285D01*
X-43249858Y-14442142D01*
X-43335572Y-14442142D01*
X-43464143Y-14399285D01*
X-43549858Y-14313571D01*
X-43592715Y-14227857D01*
X-43635572Y-14056428D01*
X-43635572Y-13927857D01*
X-43592715Y-13756428D01*
X-43549858Y-13670714D01*
X-43464143Y-13585000D01*
X-43335572Y-13542142D01*
X-43249858Y-13542142D01*
X-43121286Y-13585000D01*
X-43078429Y-13627857D01*
X-42692715Y-14442142D02*
X-42692715Y-13542142D01*
X-42692715Y-13970714D02*
X-42178429Y-13970714D01*
X-42178429Y-14442142D02*
X-42178429Y-13542142D01*
X-41321286Y-13542142D02*
X-41749858Y-13542142D01*
X-41792715Y-13970714D01*
X-41749858Y-13927857D01*
X-41664143Y-13885000D01*
X-41449858Y-13885000D01*
X-41364143Y-13927857D01*
X-41321286Y-13970714D01*
X-41278429Y-14056428D01*
X-41278429Y-14270714D01*
X-41321286Y-14356428D01*
X-41364143Y-14399285D01*
X-41449858Y-14442142D01*
X-41664143Y-14442142D01*
X-41749858Y-14399285D01*
X-41792715Y-14356428D01*
D11*
X-35076191Y-17488095D02*
X-35038096Y-17450000D01*
X-34961905Y-17411904D01*
X-34771429Y-17411904D01*
X-34695239Y-17450000D01*
X-34657143Y-17488095D01*
X-34619048Y-17564285D01*
X-34619048Y-17640476D01*
X-34657143Y-17754761D01*
X-35114286Y-18211904D01*
X-34619048Y-18211904D01*
X-33933334Y-17678571D02*
X-33933334Y-18211904D01*
X-34123810Y-17373809D02*
X-34314286Y-17945238D01*
X-33819048Y-17945238D01*
X-33514286Y-18211904D02*
X-33514286Y-17411904D01*
X-33247620Y-17983333D01*
X-32980953Y-17411904D01*
X-32980953Y-18211904D01*
X-32600000Y-18211904D02*
X-32600000Y-17411904D01*
X-32600000Y-17792857D02*
X-32142858Y-17792857D01*
X-32142858Y-18211904D02*
X-32142858Y-17411904D01*
X-31838096Y-17678571D02*
X-31419048Y-17678571D01*
X-31838096Y-18211904D01*
X-31419048Y-18211904D01*
X-30619048Y-17792857D02*
X-29628572Y-17792857D01*
X-30123810Y-17678571D02*
X-30123810Y-18211904D01*
X-30466667Y-17488095D02*
X-30390477Y-17678571D01*
X-30161905Y-17450000D02*
X-30123810Y-17640476D01*
X-30123810Y-17792857D02*
X-29857143Y-18059523D01*
X-29628572Y-18135714D01*
X-30123810Y-17792857D02*
X-30390477Y-18059523D01*
X-30619048Y-18135714D01*
X-29780953Y-17335714D02*
X-30123810Y-17411904D01*
X-30466667Y-17411904D01*
X-29742858Y-17450000D02*
X-29819048Y-17602380D01*
X-29895239Y-17678571D01*
X-29019048Y-17526190D02*
X-28485715Y-17526190D01*
X-29400000Y-17526190D02*
X-29095239Y-17526190D01*
X-28980953Y-17716666D02*
X-28523810Y-17716666D01*
X-29095239Y-17945238D02*
X-28447620Y-17945238D01*
X-29247620Y-17297619D02*
X-29247620Y-18211904D01*
X-28752381Y-17526190D02*
X-28752381Y-18211904D01*
X-28942858Y-17297619D02*
X-28904762Y-17450000D01*
X-29247620Y-17526190D02*
X-29133334Y-17792857D01*
X-29323810Y-17754761D02*
X-29400000Y-17983333D01*
X-28523810Y-17297619D02*
X-28638096Y-17526190D01*
X-29247620Y-17488095D02*
X-29361905Y-17907142D01*
X-27723810Y-17373809D02*
X-27266667Y-17373809D01*
X-27990477Y-17450000D02*
X-27800000Y-17450000D01*
X-28257143Y-17640476D02*
X-27800000Y-17640476D01*
X-28142858Y-17411904D02*
X-28142858Y-17640476D01*
X-27990477Y-17297619D02*
X-27990477Y-17945238D01*
X-27685715Y-17526190D02*
X-27685715Y-17983333D01*
X-27685715Y-17526190D02*
X-27304762Y-17526190D01*
X-27304762Y-17983333D01*
X-27419048Y-18097619D02*
X-27266667Y-18211904D01*
X-28142858Y-17754761D02*
X-28219048Y-17945238D01*
X-27495239Y-17373809D02*
X-27571429Y-17526190D01*
X-27838096Y-17792857D02*
X-27914286Y-17983333D01*
X-28066667Y-18135714D01*
X-28219048Y-18211904D01*
X-27571429Y-18059523D02*
X-27647620Y-18135714D01*
X-27800000Y-18211904D01*
X-27495239Y-17640476D02*
X-27495239Y-17830952D01*
X-27571429Y-18059523D01*
X-27038096Y-17450000D02*
X-26123810Y-17450000D01*
X-26809524Y-17830952D02*
X-26390477Y-17830952D01*
X-27076191Y-17983333D02*
X-26085715Y-17983333D01*
X-26580953Y-17869047D02*
X-26580953Y-18211904D01*
X-26771429Y-17602380D02*
X-26619048Y-17678571D01*
X-26504762Y-17716666D02*
X-26352381Y-17869047D01*
X-26580953Y-17297619D02*
X-26619048Y-17488095D01*
X-26733334Y-17602380D01*
X-26466667Y-17564285D02*
X-26733334Y-17830952D01*
X-26352381Y-17754761D02*
X-26085715Y-17869047D01*
X-27000000Y-17564285D02*
X-26847620Y-17602380D01*
X-26809524Y-17754761D02*
X-27076191Y-17830952D01*
X-26161905Y-17526190D02*
X-26352381Y-17602380D01*
D12*
X-19540000Y-24751904D02*
X-19540000Y-23951904D01*
X-19197143Y-23951904D01*
X-19111429Y-23990000D01*
X-19068572Y-24028095D01*
X-19025715Y-24104285D01*
X-19025715Y-24218571D01*
X-19068572Y-24294761D01*
X-19111429Y-24332857D01*
X-19197143Y-24370952D01*
X-19540000Y-24370952D01*
X-18682858Y-24523333D02*
X-18254286Y-24523333D01*
X-18768572Y-24751904D02*
X-18468572Y-23951904D01*
X-18168572Y-24751904D01*
X-17397143Y-24751904D02*
X-17911429Y-24751904D01*
X-17654286Y-24751904D02*
X-17654286Y-23951904D01*
X-17740000Y-24066190D01*
X-17825715Y-24142380D01*
X-17911429Y-24180476D01*
X-25130000Y-24751904D02*
X-25130000Y-23951904D01*
X-24787143Y-23951904D01*
X-24701429Y-23990000D01*
X-24658572Y-24028095D01*
X-24615715Y-24104285D01*
X-24615715Y-24218571D01*
X-24658572Y-24294761D01*
X-24701429Y-24332857D01*
X-24787143Y-24370952D01*
X-25130000Y-24370952D01*
X-24272858Y-24523333D02*
X-23844286Y-24523333D01*
X-24358572Y-24751904D02*
X-24058572Y-23951904D01*
X-23758572Y-24751904D01*
X-23287143Y-23951904D02*
X-23201429Y-23951904D01*
X-23115715Y-23990000D01*
X-23072858Y-24028095D01*
X-23030000Y-24104285D01*
X-22987143Y-24256666D01*
X-22987143Y-24447142D01*
X-23030000Y-24599523D01*
X-23072858Y-24675714D01*
X-23115715Y-24713809D01*
X-23201429Y-24751904D01*
X-23287143Y-24751904D01*
X-23372858Y-24713809D01*
X-23415715Y-24675714D01*
X-23458572Y-24599523D01*
X-23501429Y-24447142D01*
X-23501429Y-24256666D01*
X-23458572Y-24104285D01*
X-23415715Y-24028095D01*
X-23372858Y-23990000D01*
X-23287143Y-23951904D01*
D10*
X-43078429Y-19436428D02*
X-43121286Y-19479285D01*
X-43249858Y-19522142D01*
X-43335572Y-19522142D01*
X-43464143Y-19479285D01*
X-43549858Y-19393571D01*
X-43592715Y-19307857D01*
X-43635572Y-19136428D01*
X-43635572Y-19007857D01*
X-43592715Y-18836428D01*
X-43549858Y-18750714D01*
X-43464143Y-18665000D01*
X-43335572Y-18622142D01*
X-43249858Y-18622142D01*
X-43121286Y-18665000D01*
X-43078429Y-18707857D01*
X-42692715Y-19522142D02*
X-42692715Y-18622142D01*
X-42692715Y-19050714D02*
X-42178429Y-19050714D01*
X-42178429Y-19522142D02*
X-42178429Y-18622142D01*
X-41835572Y-18622142D02*
X-41235572Y-18622142D01*
X-41621286Y-19522142D01*
X-43078429Y-6736428D02*
X-43121286Y-6779285D01*
X-43249858Y-6822142D01*
X-43335572Y-6822142D01*
X-43464143Y-6779285D01*
X-43549858Y-6693571D01*
X-43592715Y-6607857D01*
X-43635572Y-6436428D01*
X-43635572Y-6307857D01*
X-43592715Y-6136428D01*
X-43549858Y-6050714D01*
X-43464143Y-5965000D01*
X-43335572Y-5922142D01*
X-43249858Y-5922142D01*
X-43121286Y-5965000D01*
X-43078429Y-6007857D01*
X-42692715Y-6822142D02*
X-42692715Y-5922142D01*
X-42692715Y-6350714D02*
X-42178429Y-6350714D01*
X-42178429Y-6822142D02*
X-42178429Y-5922142D01*
X-41792715Y-6007857D02*
X-41749858Y-5965000D01*
X-41664143Y-5922142D01*
X-41449858Y-5922142D01*
X-41364143Y-5965000D01*
X-41321286Y-6007857D01*
X-41278429Y-6093571D01*
X-41278429Y-6179285D01*
X-41321286Y-6307857D01*
X-41835572Y-6822142D01*
X-41278429Y-6822142D01*
D13*
%TO.C,*%
D11*
%TO.C,U1*%
X-24857143Y-3481428D02*
X-24857143Y-3967142D01*
X-24828572Y-4024285D01*
X-24800000Y-4052857D01*
X-24742858Y-4081428D01*
X-24628572Y-4081428D01*
X-24571429Y-4052857D01*
X-24542858Y-4024285D01*
X-24514286Y-3967142D01*
X-24514286Y-3481428D01*
X-23914286Y-4081428D02*
X-24257143Y-4081428D01*
X-24085715Y-4081428D02*
X-24085715Y-3481428D01*
X-24142858Y-3567142D01*
X-24200000Y-3624285D01*
X-24257143Y-3652857D01*
%TO.C,C1*%
X-9300000Y-3034285D02*
X-9328572Y-3062857D01*
X-9414286Y-3091428D01*
X-9471429Y-3091428D01*
X-9557143Y-3062857D01*
X-9614286Y-3005714D01*
X-9642858Y-2948571D01*
X-9671429Y-2834285D01*
X-9671429Y-2748571D01*
X-9642858Y-2634285D01*
X-9614286Y-2577142D01*
X-9557143Y-2520000D01*
X-9471429Y-2491428D01*
X-9414286Y-2491428D01*
X-9328572Y-2520000D01*
X-9300000Y-2548571D01*
X-8728572Y-3091428D02*
X-9071429Y-3091428D01*
X-8900000Y-3091428D02*
X-8900000Y-2491428D01*
X-8957143Y-2577142D01*
X-9014286Y-2634285D01*
X-9071429Y-2662857D01*
%TO.C,R16*%
X-34976429Y-4754285D02*
X-34690715Y-4554285D01*
X-34976429Y-4411428D02*
X-34376429Y-4411428D01*
X-34376429Y-4640000D01*
X-34405000Y-4697142D01*
X-34433572Y-4725714D01*
X-34490715Y-4754285D01*
X-34576429Y-4754285D01*
X-34633572Y-4725714D01*
X-34662143Y-4697142D01*
X-34690715Y-4640000D01*
X-34690715Y-4411428D01*
X-34976429Y-5325714D02*
X-34976429Y-4982857D01*
X-34976429Y-5154285D02*
X-34376429Y-5154285D01*
X-34462143Y-5097142D01*
X-34519286Y-5040000D01*
X-34547858Y-4982857D01*
X-34376429Y-5840000D02*
X-34376429Y-5725714D01*
X-34405000Y-5668571D01*
X-34433572Y-5640000D01*
X-34519286Y-5582857D01*
X-34633572Y-5554285D01*
X-34862143Y-5554285D01*
X-34919286Y-5582857D01*
X-34947858Y-5611428D01*
X-34976429Y-5668571D01*
X-34976429Y-5782857D01*
X-34947858Y-5840000D01*
X-34919286Y-5868571D01*
X-34862143Y-5897142D01*
X-34719286Y-5897142D01*
X-34662143Y-5868571D01*
X-34633572Y-5840000D01*
X-34605000Y-5782857D01*
X-34605000Y-5668571D01*
X-34633572Y-5611428D01*
X-34662143Y-5582857D01*
X-34719286Y-5554285D01*
%TO.C,R20*%
X-10961429Y-17264285D02*
X-10675715Y-17064285D01*
X-10961429Y-16921428D02*
X-10361429Y-16921428D01*
X-10361429Y-17150000D01*
X-10390000Y-17207142D01*
X-10418572Y-17235714D01*
X-10475715Y-17264285D01*
X-10561429Y-17264285D01*
X-10618572Y-17235714D01*
X-10647143Y-17207142D01*
X-10675715Y-17150000D01*
X-10675715Y-16921428D01*
X-10418572Y-17492857D02*
X-10390000Y-17521428D01*
X-10361429Y-17578571D01*
X-10361429Y-17721428D01*
X-10390000Y-17778571D01*
X-10418572Y-17807142D01*
X-10475715Y-17835714D01*
X-10532858Y-17835714D01*
X-10618572Y-17807142D01*
X-10961429Y-17464285D01*
X-10961429Y-17835714D01*
X-10361429Y-18207142D02*
X-10361429Y-18264285D01*
X-10390000Y-18321428D01*
X-10418572Y-18350000D01*
X-10475715Y-18378571D01*
X-10590000Y-18407142D01*
X-10732858Y-18407142D01*
X-10847143Y-18378571D01*
X-10904286Y-18350000D01*
X-10932858Y-18321428D01*
X-10961429Y-18264285D01*
X-10961429Y-18207142D01*
X-10932858Y-18150000D01*
X-10904286Y-18121428D01*
X-10847143Y-18092857D01*
X-10732858Y-18064285D01*
X-10590000Y-18064285D01*
X-10475715Y-18092857D01*
X-10418572Y-18121428D01*
X-10390000Y-18150000D01*
X-10361429Y-18207142D01*
%TO.C,C5*%
X-22640000Y-15754285D02*
X-22668572Y-15782857D01*
X-22754286Y-15811428D01*
X-22811429Y-15811428D01*
X-22897143Y-15782857D01*
X-22954286Y-15725714D01*
X-22982858Y-15668571D01*
X-23011429Y-15554285D01*
X-23011429Y-15468571D01*
X-22982858Y-15354285D01*
X-22954286Y-15297142D01*
X-22897143Y-15240000D01*
X-22811429Y-15211428D01*
X-22754286Y-15211428D01*
X-22668572Y-15240000D01*
X-22640000Y-15268571D01*
X-22097143Y-15211428D02*
X-22382858Y-15211428D01*
X-22411429Y-15497142D01*
X-22382858Y-15468571D01*
X-22325715Y-15440000D01*
X-22182858Y-15440000D01*
X-22125715Y-15468571D01*
X-22097143Y-15497142D01*
X-22068572Y-15554285D01*
X-22068572Y-15697142D01*
X-22097143Y-15754285D01*
X-22125715Y-15782857D01*
X-22182858Y-15811428D01*
X-22325715Y-15811428D01*
X-22382858Y-15782857D01*
X-22411429Y-15754285D01*
%TO.C,R11*%
X-31328572Y-20795714D02*
X-31614286Y-20995714D01*
X-31328572Y-21138571D02*
X-31928572Y-21138571D01*
X-31928572Y-20910000D01*
X-31900000Y-20852857D01*
X-31871429Y-20824285D01*
X-31814286Y-20795714D01*
X-31728572Y-20795714D01*
X-31671429Y-20824285D01*
X-31642858Y-20852857D01*
X-31614286Y-20910000D01*
X-31614286Y-21138571D01*
X-31328572Y-20224285D02*
X-31328572Y-20567142D01*
X-31328572Y-20395714D02*
X-31928572Y-20395714D01*
X-31842858Y-20452857D01*
X-31785715Y-20510000D01*
X-31757143Y-20567142D01*
X-31328572Y-19652857D02*
X-31328572Y-19995714D01*
X-31328572Y-19824285D02*
X-31928572Y-19824285D01*
X-31842858Y-19881428D01*
X-31785715Y-19938571D01*
X-31757143Y-19995714D01*
%TO.C,R19*%
X-19248572Y-20695714D02*
X-19534286Y-20895714D01*
X-19248572Y-21038571D02*
X-19848572Y-21038571D01*
X-19848572Y-20810000D01*
X-19820000Y-20752857D01*
X-19791429Y-20724285D01*
X-19734286Y-20695714D01*
X-19648572Y-20695714D01*
X-19591429Y-20724285D01*
X-19562858Y-20752857D01*
X-19534286Y-20810000D01*
X-19534286Y-21038571D01*
X-19248572Y-20124285D02*
X-19248572Y-20467142D01*
X-19248572Y-20295714D02*
X-19848572Y-20295714D01*
X-19762858Y-20352857D01*
X-19705715Y-20410000D01*
X-19677143Y-20467142D01*
X-19248572Y-19838571D02*
X-19248572Y-19724285D01*
X-19277143Y-19667142D01*
X-19305715Y-19638571D01*
X-19391429Y-19581428D01*
X-19505715Y-19552857D01*
X-19734286Y-19552857D01*
X-19791429Y-19581428D01*
X-19820000Y-19610000D01*
X-19848572Y-19667142D01*
X-19848572Y-19781428D01*
X-19820000Y-19838571D01*
X-19791429Y-19867142D01*
X-19734286Y-19895714D01*
X-19591429Y-19895714D01*
X-19534286Y-19867142D01*
X-19505715Y-19838571D01*
X-19477143Y-19781428D01*
X-19477143Y-19667142D01*
X-19505715Y-19610000D01*
X-19534286Y-19581428D01*
X-19591429Y-19552857D01*
%TO.C,USB1*%
X-2002572Y-13692142D02*
X-1516858Y-13692142D01*
X-1459715Y-13663571D01*
X-1431143Y-13635000D01*
X-1402572Y-13577857D01*
X-1402572Y-13463571D01*
X-1431143Y-13406428D01*
X-1459715Y-13377857D01*
X-1516858Y-13349285D01*
X-2002572Y-13349285D01*
X-1431143Y-13092142D02*
X-1402572Y-13006428D01*
X-1402572Y-12863571D01*
X-1431143Y-12806428D01*
X-1459715Y-12777857D01*
X-1516858Y-12749285D01*
X-1574000Y-12749285D01*
X-1631143Y-12777857D01*
X-1659715Y-12806428D01*
X-1688286Y-12863571D01*
X-1716858Y-12977857D01*
X-1745429Y-13035000D01*
X-1774000Y-13063571D01*
X-1831143Y-13092142D01*
X-1888286Y-13092142D01*
X-1945429Y-13063571D01*
X-1974000Y-13035000D01*
X-2002572Y-12977857D01*
X-2002572Y-12835000D01*
X-1974000Y-12749285D01*
X-1716858Y-12292142D02*
X-1688286Y-12206428D01*
X-1659715Y-12177857D01*
X-1602572Y-12149285D01*
X-1516858Y-12149285D01*
X-1459715Y-12177857D01*
X-1431143Y-12206428D01*
X-1402572Y-12263571D01*
X-1402572Y-12492142D01*
X-2002572Y-12492142D01*
X-2002572Y-12292142D01*
X-1974000Y-12235000D01*
X-1945429Y-12206428D01*
X-1888286Y-12177857D01*
X-1831143Y-12177857D01*
X-1774000Y-12206428D01*
X-1745429Y-12235000D01*
X-1716858Y-12292142D01*
X-1716858Y-12492142D01*
X-1402572Y-11577857D02*
X-1402572Y-11920714D01*
X-1402572Y-11749285D02*
X-2002572Y-11749285D01*
X-1916858Y-11806428D01*
X-1859715Y-11863571D01*
X-1831143Y-11920714D01*
%TO.C,C2*%
X-14620000Y-3034285D02*
X-14648572Y-3062857D01*
X-14734286Y-3091428D01*
X-14791429Y-3091428D01*
X-14877143Y-3062857D01*
X-14934286Y-3005714D01*
X-14962858Y-2948571D01*
X-14991429Y-2834285D01*
X-14991429Y-2748571D01*
X-14962858Y-2634285D01*
X-14934286Y-2577142D01*
X-14877143Y-2520000D01*
X-14791429Y-2491428D01*
X-14734286Y-2491428D01*
X-14648572Y-2520000D01*
X-14620000Y-2548571D01*
X-14391429Y-2548571D02*
X-14362858Y-2520000D01*
X-14305715Y-2491428D01*
X-14162858Y-2491428D01*
X-14105715Y-2520000D01*
X-14077143Y-2548571D01*
X-14048572Y-2605714D01*
X-14048572Y-2662857D01*
X-14077143Y-2748571D01*
X-14420000Y-3091428D01*
X-14048572Y-3091428D01*
%TO.C,D1*%
X-5522858Y-5941428D02*
X-5522858Y-5341428D01*
X-5380000Y-5341428D01*
X-5294286Y-5370000D01*
X-5237143Y-5427142D01*
X-5208572Y-5484285D01*
X-5180000Y-5598571D01*
X-5180000Y-5684285D01*
X-5208572Y-5798571D01*
X-5237143Y-5855714D01*
X-5294286Y-5912857D01*
X-5380000Y-5941428D01*
X-5522858Y-5941428D01*
X-4608572Y-5941428D02*
X-4951429Y-5941428D01*
X-4780000Y-5941428D02*
X-4780000Y-5341428D01*
X-4837143Y-5427142D01*
X-4894286Y-5484285D01*
X-4951429Y-5512857D01*
%TO.C,R3*%
X-37030000Y-10877142D02*
X-37230000Y-10591428D01*
X-37372858Y-10877142D02*
X-37372858Y-10277142D01*
X-37144286Y-10277142D01*
X-37087143Y-10305714D01*
X-37058572Y-10334285D01*
X-37030000Y-10391428D01*
X-37030000Y-10477142D01*
X-37058572Y-10534285D01*
X-37087143Y-10562856D01*
X-37144286Y-10591428D01*
X-37372858Y-10591428D01*
X-36830000Y-10277142D02*
X-36458572Y-10277142D01*
X-36658572Y-10505714D01*
X-36572858Y-10505714D01*
X-36515715Y-10534285D01*
X-36487143Y-10562856D01*
X-36458572Y-10619999D01*
X-36458572Y-10762856D01*
X-36487143Y-10819999D01*
X-36515715Y-10848571D01*
X-36572858Y-10877142D01*
X-36744286Y-10877142D01*
X-36801429Y-10848571D01*
X-36830000Y-10819999D01*
%TO.C,D3*%
X-18352858Y-20151428D02*
X-18352858Y-19551428D01*
X-18210000Y-19551428D01*
X-18124286Y-19580000D01*
X-18067143Y-19637142D01*
X-18038572Y-19694285D01*
X-18010000Y-19808571D01*
X-18010000Y-19894285D01*
X-18038572Y-20008571D01*
X-18067143Y-20065714D01*
X-18124286Y-20122857D01*
X-18210000Y-20151428D01*
X-18352858Y-20151428D01*
X-17810000Y-19551428D02*
X-17438572Y-19551428D01*
X-17638572Y-19780000D01*
X-17552858Y-19780000D01*
X-17495715Y-19808571D01*
X-17467143Y-19837142D01*
X-17438572Y-19894285D01*
X-17438572Y-20037142D01*
X-17467143Y-20094285D01*
X-17495715Y-20122857D01*
X-17552858Y-20151428D01*
X-17724286Y-20151428D01*
X-17781429Y-20122857D01*
X-17810000Y-20094285D01*
%TO.C,D2*%
X-25202858Y-20171428D02*
X-25202858Y-19571428D01*
X-25060000Y-19571428D01*
X-24974286Y-19600000D01*
X-24917143Y-19657142D01*
X-24888572Y-19714285D01*
X-24860000Y-19828571D01*
X-24860000Y-19914285D01*
X-24888572Y-20028571D01*
X-24917143Y-20085714D01*
X-24974286Y-20142857D01*
X-25060000Y-20171428D01*
X-25202858Y-20171428D01*
X-24631429Y-19628571D02*
X-24602858Y-19600000D01*
X-24545715Y-19571428D01*
X-24402858Y-19571428D01*
X-24345715Y-19600000D01*
X-24317143Y-19628571D01*
X-24288572Y-19685714D01*
X-24288572Y-19742857D01*
X-24317143Y-19828571D01*
X-24660000Y-20171428D01*
X-24288572Y-20171428D01*
%TO.C,C4*%
X-22630000Y-17654285D02*
X-22658572Y-17682857D01*
X-22744286Y-17711428D01*
X-22801429Y-17711428D01*
X-22887143Y-17682857D01*
X-22944286Y-17625714D01*
X-22972858Y-17568571D01*
X-23001429Y-17454285D01*
X-23001429Y-17368571D01*
X-22972858Y-17254285D01*
X-22944286Y-17197142D01*
X-22887143Y-17140000D01*
X-22801429Y-17111428D01*
X-22744286Y-17111428D01*
X-22658572Y-17140000D01*
X-22630000Y-17168571D01*
X-22115715Y-17311428D02*
X-22115715Y-17711428D01*
X-22258572Y-17082857D02*
X-22401429Y-17511428D01*
X-22030000Y-17511428D01*
%TO.C,R8*%
X-37030000Y-18261428D02*
X-37230000Y-17975714D01*
X-37372858Y-18261428D02*
X-37372858Y-17661428D01*
X-37144286Y-17661428D01*
X-37087143Y-17690000D01*
X-37058572Y-17718571D01*
X-37030000Y-17775714D01*
X-37030000Y-17861428D01*
X-37058572Y-17918571D01*
X-37087143Y-17947142D01*
X-37144286Y-17975714D01*
X-37372858Y-17975714D01*
X-36687143Y-17918571D02*
X-36744286Y-17890000D01*
X-36772858Y-17861428D01*
X-36801429Y-17804285D01*
X-36801429Y-17775714D01*
X-36772858Y-17718571D01*
X-36744286Y-17690000D01*
X-36687143Y-17661428D01*
X-36572858Y-17661428D01*
X-36515715Y-17690000D01*
X-36487143Y-17718571D01*
X-36458572Y-17775714D01*
X-36458572Y-17804285D01*
X-36487143Y-17861428D01*
X-36515715Y-17890000D01*
X-36572858Y-17918571D01*
X-36687143Y-17918571D01*
X-36744286Y-17947142D01*
X-36772858Y-17975714D01*
X-36801429Y-18032857D01*
X-36801429Y-18147142D01*
X-36772858Y-18204285D01*
X-36744286Y-18232857D01*
X-36687143Y-18261428D01*
X-36572858Y-18261428D01*
X-36515715Y-18232857D01*
X-36487143Y-18204285D01*
X-36458572Y-18147142D01*
X-36458572Y-18032857D01*
X-36487143Y-17975714D01*
X-36515715Y-17947142D01*
X-36572858Y-17918571D01*
%TO.C,R18*%
X-22918572Y-20745714D02*
X-23204286Y-20945714D01*
X-22918572Y-21088571D02*
X-23518572Y-21088571D01*
X-23518572Y-20860000D01*
X-23490000Y-20802857D01*
X-23461429Y-20774285D01*
X-23404286Y-20745714D01*
X-23318572Y-20745714D01*
X-23261429Y-20774285D01*
X-23232858Y-20802857D01*
X-23204286Y-20860000D01*
X-23204286Y-21088571D01*
X-22918572Y-20174285D02*
X-22918572Y-20517142D01*
X-22918572Y-20345714D02*
X-23518572Y-20345714D01*
X-23432858Y-20402857D01*
X-23375715Y-20460000D01*
X-23347143Y-20517142D01*
X-23261429Y-19831428D02*
X-23290000Y-19888571D01*
X-23318572Y-19917142D01*
X-23375715Y-19945714D01*
X-23404286Y-19945714D01*
X-23461429Y-19917142D01*
X-23490000Y-19888571D01*
X-23518572Y-19831428D01*
X-23518572Y-19717142D01*
X-23490000Y-19660000D01*
X-23461429Y-19631428D01*
X-23404286Y-19602857D01*
X-23375715Y-19602857D01*
X-23318572Y-19631428D01*
X-23290000Y-19660000D01*
X-23261429Y-19717142D01*
X-23261429Y-19831428D01*
X-23232858Y-19888571D01*
X-23204286Y-19917142D01*
X-23147143Y-19945714D01*
X-23032858Y-19945714D01*
X-22975715Y-19917142D01*
X-22947143Y-19888571D01*
X-22918572Y-19831428D01*
X-22918572Y-19717142D01*
X-22947143Y-19660000D01*
X-22975715Y-19631428D01*
X-23032858Y-19602857D01*
X-23147143Y-19602857D01*
X-23204286Y-19631428D01*
X-23232858Y-19660000D01*
X-23261429Y-19717142D01*
%TO.C,R5*%
X-37030000Y-13832856D02*
X-37230000Y-13547142D01*
X-37372858Y-13832856D02*
X-37372858Y-13232856D01*
X-37144286Y-13232856D01*
X-37087143Y-13261428D01*
X-37058572Y-13289999D01*
X-37030000Y-13347142D01*
X-37030000Y-13432856D01*
X-37058572Y-13489999D01*
X-37087143Y-13518570D01*
X-37144286Y-13547142D01*
X-37372858Y-13547142D01*
X-36487143Y-13232856D02*
X-36772858Y-13232856D01*
X-36801429Y-13518570D01*
X-36772858Y-13489999D01*
X-36715715Y-13461428D01*
X-36572858Y-13461428D01*
X-36515715Y-13489999D01*
X-36487143Y-13518570D01*
X-36458572Y-13575713D01*
X-36458572Y-13718570D01*
X-36487143Y-13775713D01*
X-36515715Y-13804285D01*
X-36572858Y-13832856D01*
X-36715715Y-13832856D01*
X-36772858Y-13804285D01*
X-36801429Y-13775713D01*
%TO.C,R4*%
X-37030000Y-12324999D02*
X-37230000Y-12039285D01*
X-37372858Y-12324999D02*
X-37372858Y-11724999D01*
X-37144286Y-11724999D01*
X-37087143Y-11753571D01*
X-37058572Y-11782142D01*
X-37030000Y-11839285D01*
X-37030000Y-11924999D01*
X-37058572Y-11982142D01*
X-37087143Y-12010713D01*
X-37144286Y-12039285D01*
X-37372858Y-12039285D01*
X-36515715Y-11924999D02*
X-36515715Y-12324999D01*
X-36658572Y-11696428D02*
X-36801429Y-12124999D01*
X-36430000Y-12124999D01*
%TO.C,R13*%
X-30364997Y-4754285D02*
X-30079283Y-4554285D01*
X-30364997Y-4411428D02*
X-29764997Y-4411428D01*
X-29764997Y-4640000D01*
X-29793568Y-4697142D01*
X-29822140Y-4725714D01*
X-29879283Y-4754285D01*
X-29964997Y-4754285D01*
X-30022140Y-4725714D01*
X-30050711Y-4697142D01*
X-30079283Y-4640000D01*
X-30079283Y-4411428D01*
X-30364997Y-5325714D02*
X-30364997Y-4982857D01*
X-30364997Y-5154285D02*
X-29764997Y-5154285D01*
X-29850711Y-5097142D01*
X-29907854Y-5040000D01*
X-29936426Y-4982857D01*
X-29764997Y-5525714D02*
X-29764997Y-5897142D01*
X-29993568Y-5697142D01*
X-29993568Y-5782857D01*
X-30022140Y-5840000D01*
X-30050711Y-5868571D01*
X-30107854Y-5897142D01*
X-30250711Y-5897142D01*
X-30307854Y-5868571D01*
X-30336426Y-5840000D01*
X-30364997Y-5782857D01*
X-30364997Y-5611428D01*
X-30336426Y-5554285D01*
X-30307854Y-5525714D01*
%TO.C,C10*%
X-12335715Y-20915714D02*
X-12307143Y-20944285D01*
X-12278572Y-21030000D01*
X-12278572Y-21087142D01*
X-12307143Y-21172857D01*
X-12364286Y-21230000D01*
X-12421429Y-21258571D01*
X-12535715Y-21287142D01*
X-12621429Y-21287142D01*
X-12735715Y-21258571D01*
X-12792858Y-21230000D01*
X-12850000Y-21172857D01*
X-12878572Y-21087142D01*
X-12878572Y-21030000D01*
X-12850000Y-20944285D01*
X-12821429Y-20915714D01*
X-12278572Y-20344285D02*
X-12278572Y-20687142D01*
X-12278572Y-20515714D02*
X-12878572Y-20515714D01*
X-12792858Y-20572857D01*
X-12735715Y-20630000D01*
X-12707143Y-20687142D01*
X-12878572Y-19972857D02*
X-12878572Y-19915714D01*
X-12850000Y-19858571D01*
X-12821429Y-19830000D01*
X-12764286Y-19801428D01*
X-12650000Y-19772857D01*
X-12507143Y-19772857D01*
X-12392858Y-19801428D01*
X-12335715Y-19830000D01*
X-12307143Y-19858571D01*
X-12278572Y-19915714D01*
X-12278572Y-19972857D01*
X-12307143Y-20030000D01*
X-12335715Y-20058571D01*
X-12392858Y-20087142D01*
X-12507143Y-20115714D01*
X-12650000Y-20115714D01*
X-12764286Y-20087142D01*
X-12821429Y-20058571D01*
X-12850000Y-20030000D01*
X-12878572Y-19972857D01*
%TO.C,R17*%
X-6358572Y-5485714D02*
X-6644286Y-5685714D01*
X-6358572Y-5828571D02*
X-6958572Y-5828571D01*
X-6958572Y-5600000D01*
X-6930000Y-5542857D01*
X-6901429Y-5514285D01*
X-6844286Y-5485714D01*
X-6758572Y-5485714D01*
X-6701429Y-5514285D01*
X-6672858Y-5542857D01*
X-6644286Y-5600000D01*
X-6644286Y-5828571D01*
X-6358572Y-4914285D02*
X-6358572Y-5257142D01*
X-6358572Y-5085714D02*
X-6958572Y-5085714D01*
X-6872858Y-5142857D01*
X-6815715Y-5200000D01*
X-6787143Y-5257142D01*
X-6958572Y-4714285D02*
X-6958572Y-4314285D01*
X-6358572Y-4571428D01*
%TO.C,R2*%
X-37030000Y-9391428D02*
X-37230000Y-9105714D01*
X-37372858Y-9391428D02*
X-37372858Y-8791428D01*
X-37144286Y-8791428D01*
X-37087143Y-8820000D01*
X-37058572Y-8848571D01*
X-37030000Y-8905714D01*
X-37030000Y-8991428D01*
X-37058572Y-9048571D01*
X-37087143Y-9077142D01*
X-37144286Y-9105714D01*
X-37372858Y-9105714D01*
X-36801429Y-8848571D02*
X-36772858Y-8820000D01*
X-36715715Y-8791428D01*
X-36572858Y-8791428D01*
X-36515715Y-8820000D01*
X-36487143Y-8848571D01*
X-36458572Y-8905714D01*
X-36458572Y-8962857D01*
X-36487143Y-9048571D01*
X-36830000Y-9391428D01*
X-36458572Y-9391428D01*
%TO.C,C3*%
X-18810000Y-3034285D02*
X-18838572Y-3062857D01*
X-18924286Y-3091428D01*
X-18981429Y-3091428D01*
X-19067143Y-3062857D01*
X-19124286Y-3005714D01*
X-19152858Y-2948571D01*
X-19181429Y-2834285D01*
X-19181429Y-2748571D01*
X-19152858Y-2634285D01*
X-19124286Y-2577142D01*
X-19067143Y-2520000D01*
X-18981429Y-2491428D01*
X-18924286Y-2491428D01*
X-18838572Y-2520000D01*
X-18810000Y-2548571D01*
X-18610000Y-2491428D02*
X-18238572Y-2491428D01*
X-18438572Y-2720000D01*
X-18352858Y-2720000D01*
X-18295715Y-2748571D01*
X-18267143Y-2777142D01*
X-18238572Y-2834285D01*
X-18238572Y-2977142D01*
X-18267143Y-3034285D01*
X-18295715Y-3062857D01*
X-18352858Y-3091428D01*
X-18524286Y-3091428D01*
X-18581429Y-3062857D01*
X-18610000Y-3034285D01*
%TO.C,C9*%
X-5025715Y-21050000D02*
X-4997143Y-21078571D01*
X-4968572Y-21164285D01*
X-4968572Y-21221428D01*
X-4997143Y-21307142D01*
X-5054286Y-21364285D01*
X-5111429Y-21392857D01*
X-5225715Y-21421428D01*
X-5311429Y-21421428D01*
X-5425715Y-21392857D01*
X-5482858Y-21364285D01*
X-5540000Y-21307142D01*
X-5568572Y-21221428D01*
X-5568572Y-21164285D01*
X-5540000Y-21078571D01*
X-5511429Y-21050000D01*
X-4968572Y-20764285D02*
X-4968572Y-20650000D01*
X-4997143Y-20592857D01*
X-5025715Y-20564285D01*
X-5111429Y-20507142D01*
X-5225715Y-20478571D01*
X-5454286Y-20478571D01*
X-5511429Y-20507142D01*
X-5540000Y-20535714D01*
X-5568572Y-20592857D01*
X-5568572Y-20707142D01*
X-5540000Y-20764285D01*
X-5511429Y-20792857D01*
X-5454286Y-20821428D01*
X-5311429Y-20821428D01*
X-5254286Y-20792857D01*
X-5225715Y-20764285D01*
X-5197143Y-20707142D01*
X-5197143Y-20592857D01*
X-5225715Y-20535714D01*
X-5254286Y-20507142D01*
X-5311429Y-20478571D01*
%TO.C,R9*%
X-34348572Y-20770000D02*
X-34634286Y-20970000D01*
X-34348572Y-21112857D02*
X-34948572Y-21112857D01*
X-34948572Y-20884285D01*
X-34920000Y-20827142D01*
X-34891429Y-20798571D01*
X-34834286Y-20770000D01*
X-34748572Y-20770000D01*
X-34691429Y-20798571D01*
X-34662858Y-20827142D01*
X-34634286Y-20884285D01*
X-34634286Y-21112857D01*
X-34348572Y-20484285D02*
X-34348572Y-20370000D01*
X-34377143Y-20312857D01*
X-34405715Y-20284285D01*
X-34491429Y-20227142D01*
X-34605715Y-20198571D01*
X-34834286Y-20198571D01*
X-34891429Y-20227142D01*
X-34920000Y-20255714D01*
X-34948572Y-20312857D01*
X-34948572Y-20427142D01*
X-34920000Y-20484285D01*
X-34891429Y-20512857D01*
X-34834286Y-20541428D01*
X-34691429Y-20541428D01*
X-34634286Y-20512857D01*
X-34605715Y-20484285D01*
X-34577143Y-20427142D01*
X-34577143Y-20312857D01*
X-34605715Y-20255714D01*
X-34634286Y-20227142D01*
X-34691429Y-20198571D01*
%TO.C,R1*%
X-37030000Y-7851428D02*
X-37230000Y-7565714D01*
X-37372858Y-7851428D02*
X-37372858Y-7251428D01*
X-37144286Y-7251428D01*
X-37087143Y-7280000D01*
X-37058572Y-7308571D01*
X-37030000Y-7365714D01*
X-37030000Y-7451428D01*
X-37058572Y-7508571D01*
X-37087143Y-7537142D01*
X-37144286Y-7565714D01*
X-37372858Y-7565714D01*
X-36458572Y-7851428D02*
X-36801429Y-7851428D01*
X-36630000Y-7851428D02*
X-36630000Y-7251428D01*
X-36687143Y-7337142D01*
X-36744286Y-7394285D01*
X-36801429Y-7422857D01*
%TO.C,R22*%
X-19945715Y-6711428D02*
X-20145715Y-6425714D01*
X-20288572Y-6711428D02*
X-20288572Y-6111428D01*
X-20060000Y-6111428D01*
X-20002858Y-6140000D01*
X-19974286Y-6168571D01*
X-19945715Y-6225714D01*
X-19945715Y-6311428D01*
X-19974286Y-6368571D01*
X-20002858Y-6397142D01*
X-20060000Y-6425714D01*
X-20288572Y-6425714D01*
X-19717143Y-6168571D02*
X-19688572Y-6140000D01*
X-19631429Y-6111428D01*
X-19488572Y-6111428D01*
X-19431429Y-6140000D01*
X-19402858Y-6168571D01*
X-19374286Y-6225714D01*
X-19374286Y-6282857D01*
X-19402858Y-6368571D01*
X-19745715Y-6711428D01*
X-19374286Y-6711428D01*
X-19145715Y-6168571D02*
X-19117143Y-6140000D01*
X-19060000Y-6111428D01*
X-18917143Y-6111428D01*
X-18860000Y-6140000D01*
X-18831429Y-6168571D01*
X-18802858Y-6225714D01*
X-18802858Y-6282857D01*
X-18831429Y-6368571D01*
X-19174286Y-6711428D01*
X-18802858Y-6711428D01*
%TO.C,R7*%
X-37030000Y-16791428D02*
X-37230000Y-16505714D01*
X-37372858Y-16791428D02*
X-37372858Y-16191428D01*
X-37144286Y-16191428D01*
X-37087143Y-16220000D01*
X-37058572Y-16248571D01*
X-37030000Y-16305714D01*
X-37030000Y-16391428D01*
X-37058572Y-16448571D01*
X-37087143Y-16477142D01*
X-37144286Y-16505714D01*
X-37372858Y-16505714D01*
X-36830000Y-16191428D02*
X-36430000Y-16191428D01*
X-36687143Y-16791428D01*
%TO.C,C7*%
X-10904286Y-9990000D02*
X-10932858Y-9961428D01*
X-10961429Y-9875714D01*
X-10961429Y-9818571D01*
X-10932858Y-9732857D01*
X-10875715Y-9675714D01*
X-10818572Y-9647142D01*
X-10704286Y-9618571D01*
X-10618572Y-9618571D01*
X-10504286Y-9647142D01*
X-10447143Y-9675714D01*
X-10390000Y-9732857D01*
X-10361429Y-9818571D01*
X-10361429Y-9875714D01*
X-10390000Y-9961428D01*
X-10418572Y-9990000D01*
X-10361429Y-10190000D02*
X-10361429Y-10590000D01*
X-10961429Y-10332857D01*
%TO.C,R21*%
X-25795715Y-6711428D02*
X-25995715Y-6425714D01*
X-26138572Y-6711428D02*
X-26138572Y-6111428D01*
X-25910000Y-6111428D01*
X-25852858Y-6140000D01*
X-25824286Y-6168571D01*
X-25795715Y-6225714D01*
X-25795715Y-6311428D01*
X-25824286Y-6368571D01*
X-25852858Y-6397142D01*
X-25910000Y-6425714D01*
X-26138572Y-6425714D01*
X-25567143Y-6168571D02*
X-25538572Y-6140000D01*
X-25481429Y-6111428D01*
X-25338572Y-6111428D01*
X-25281429Y-6140000D01*
X-25252858Y-6168571D01*
X-25224286Y-6225714D01*
X-25224286Y-6282857D01*
X-25252858Y-6368571D01*
X-25595715Y-6711428D01*
X-25224286Y-6711428D01*
X-24652858Y-6711428D02*
X-24995715Y-6711428D01*
X-24824286Y-6711428D02*
X-24824286Y-6111428D01*
X-24881429Y-6197142D01*
X-24938572Y-6254285D01*
X-24995715Y-6282857D01*
%TO.C,C6*%
X-22630000Y-10804285D02*
X-22658572Y-10832857D01*
X-22744286Y-10861428D01*
X-22801429Y-10861428D01*
X-22887143Y-10832857D01*
X-22944286Y-10775714D01*
X-22972858Y-10718571D01*
X-23001429Y-10604285D01*
X-23001429Y-10518571D01*
X-22972858Y-10404285D01*
X-22944286Y-10347142D01*
X-22887143Y-10290000D01*
X-22801429Y-10261428D01*
X-22744286Y-10261428D01*
X-22658572Y-10290000D01*
X-22630000Y-10318571D01*
X-22115715Y-10261428D02*
X-22230000Y-10261428D01*
X-22287143Y-10290000D01*
X-22315715Y-10318571D01*
X-22372858Y-10404285D01*
X-22401429Y-10518571D01*
X-22401429Y-10747142D01*
X-22372858Y-10804285D01*
X-22344286Y-10832857D01*
X-22287143Y-10861428D01*
X-22172858Y-10861428D01*
X-22115715Y-10832857D01*
X-22087143Y-10804285D01*
X-22058572Y-10747142D01*
X-22058572Y-10604285D01*
X-22087143Y-10547142D01*
X-22115715Y-10518571D01*
X-22172858Y-10490000D01*
X-22287143Y-10490000D01*
X-22344286Y-10518571D01*
X-22372858Y-10547142D01*
X-22401429Y-10604285D01*
%TO.C,U2*%
X-30923143Y-12489928D02*
X-30923143Y-12975642D01*
X-30894572Y-13032785D01*
X-30866000Y-13061357D01*
X-30808858Y-13089928D01*
X-30694572Y-13089928D01*
X-30637429Y-13061357D01*
X-30608858Y-13032785D01*
X-30580286Y-12975642D01*
X-30580286Y-12489928D01*
X-30323143Y-12547071D02*
X-30294572Y-12518500D01*
X-30237429Y-12489928D01*
X-30094572Y-12489928D01*
X-30037429Y-12518500D01*
X-30008858Y-12547071D01*
X-29980286Y-12604214D01*
X-29980286Y-12661357D01*
X-30008858Y-12747071D01*
X-30351715Y-13089928D01*
X-29980286Y-13089928D01*
%TO.C,R15*%
X-33434281Y-4754285D02*
X-33148567Y-4554285D01*
X-33434281Y-4411428D02*
X-32834281Y-4411428D01*
X-32834281Y-4640000D01*
X-32862852Y-4697142D01*
X-32891424Y-4725714D01*
X-32948567Y-4754285D01*
X-33034281Y-4754285D01*
X-33091424Y-4725714D01*
X-33119995Y-4697142D01*
X-33148567Y-4640000D01*
X-33148567Y-4411428D01*
X-33434281Y-5325714D02*
X-33434281Y-4982857D01*
X-33434281Y-5154285D02*
X-32834281Y-5154285D01*
X-32919995Y-5097142D01*
X-32977138Y-5040000D01*
X-33005710Y-4982857D01*
X-32834281Y-5868571D02*
X-32834281Y-5582857D01*
X-33119995Y-5554285D01*
X-33091424Y-5582857D01*
X-33062852Y-5640000D01*
X-33062852Y-5782857D01*
X-33091424Y-5840000D01*
X-33119995Y-5868571D01*
X-33177138Y-5897142D01*
X-33319995Y-5897142D01*
X-33377138Y-5868571D01*
X-33405710Y-5840000D01*
X-33434281Y-5782857D01*
X-33434281Y-5640000D01*
X-33405710Y-5582857D01*
X-33377138Y-5554285D01*
%TO.C,R12*%
X-29747146Y-20795714D02*
X-30032860Y-20995714D01*
X-29747146Y-21138571D02*
X-30347146Y-21138571D01*
X-30347146Y-20910000D01*
X-30318574Y-20852857D01*
X-30290003Y-20824285D01*
X-30232860Y-20795714D01*
X-30147146Y-20795714D01*
X-30090003Y-20824285D01*
X-30061432Y-20852857D01*
X-30032860Y-20910000D01*
X-30032860Y-21138571D01*
X-29747146Y-20224285D02*
X-29747146Y-20567142D01*
X-29747146Y-20395714D02*
X-30347146Y-20395714D01*
X-30261432Y-20452857D01*
X-30204289Y-20510000D01*
X-30175717Y-20567142D01*
X-30290003Y-19995714D02*
X-30318574Y-19967142D01*
X-30347146Y-19910000D01*
X-30347146Y-19767142D01*
X-30318574Y-19710000D01*
X-30290003Y-19681428D01*
X-30232860Y-19652857D01*
X-30175717Y-19652857D01*
X-30090003Y-19681428D01*
X-29747146Y-20024285D01*
X-29747146Y-19652857D01*
%TO.C,R10*%
X-32841430Y-20795714D02*
X-33127144Y-20995714D01*
X-32841430Y-21138571D02*
X-33441430Y-21138571D01*
X-33441430Y-20910000D01*
X-33412858Y-20852857D01*
X-33384287Y-20824285D01*
X-33327144Y-20795714D01*
X-33241430Y-20795714D01*
X-33184287Y-20824285D01*
X-33155716Y-20852857D01*
X-33127144Y-20910000D01*
X-33127144Y-21138571D01*
X-32841430Y-20224285D02*
X-32841430Y-20567142D01*
X-32841430Y-20395714D02*
X-33441430Y-20395714D01*
X-33355716Y-20452857D01*
X-33298573Y-20510000D01*
X-33270001Y-20567142D01*
X-33441430Y-19852857D02*
X-33441430Y-19795714D01*
X-33412858Y-19738571D01*
X-33384287Y-19710000D01*
X-33327144Y-19681428D01*
X-33212858Y-19652857D01*
X-33070001Y-19652857D01*
X-32955716Y-19681428D01*
X-32898573Y-19710000D01*
X-32870001Y-19738571D01*
X-32841430Y-19795714D01*
X-32841430Y-19852857D01*
X-32870001Y-19910000D01*
X-32898573Y-19938571D01*
X-32955716Y-19967142D01*
X-33070001Y-19995714D01*
X-33212858Y-19995714D01*
X-33327144Y-19967142D01*
X-33384287Y-19938571D01*
X-33412858Y-19910000D01*
X-33441430Y-19852857D01*
%TO.C,R14*%
X-31927139Y-4754285D02*
X-31641425Y-4554285D01*
X-31927139Y-4411428D02*
X-31327139Y-4411428D01*
X-31327139Y-4640000D01*
X-31355710Y-4697142D01*
X-31384282Y-4725714D01*
X-31441425Y-4754285D01*
X-31527139Y-4754285D01*
X-31584282Y-4725714D01*
X-31612853Y-4697142D01*
X-31641425Y-4640000D01*
X-31641425Y-4411428D01*
X-31927139Y-5325714D02*
X-31927139Y-4982857D01*
X-31927139Y-5154285D02*
X-31327139Y-5154285D01*
X-31412853Y-5097142D01*
X-31469996Y-5040000D01*
X-31498568Y-4982857D01*
X-31527139Y-5840000D02*
X-31927139Y-5840000D01*
X-31298568Y-5697142D02*
X-31727139Y-5554285D01*
X-31727139Y-5925714D01*
%TO.C,R23*%
X-13558572Y-20925714D02*
X-13844286Y-21125714D01*
X-13558572Y-21268571D02*
X-14158572Y-21268571D01*
X-14158572Y-21040000D01*
X-14130000Y-20982857D01*
X-14101429Y-20954285D01*
X-14044286Y-20925714D01*
X-13958572Y-20925714D01*
X-13901429Y-20954285D01*
X-13872858Y-20982857D01*
X-13844286Y-21040000D01*
X-13844286Y-21268571D01*
X-14101429Y-20697142D02*
X-14130000Y-20668571D01*
X-14158572Y-20611428D01*
X-14158572Y-20468571D01*
X-14130000Y-20411428D01*
X-14101429Y-20382857D01*
X-14044286Y-20354285D01*
X-13987143Y-20354285D01*
X-13901429Y-20382857D01*
X-13558572Y-20725714D01*
X-13558572Y-20354285D01*
X-14158572Y-20154285D02*
X-14158572Y-19782857D01*
X-13930000Y-19982857D01*
X-13930000Y-19897142D01*
X-13901429Y-19840000D01*
X-13872858Y-19811428D01*
X-13815715Y-19782857D01*
X-13672858Y-19782857D01*
X-13615715Y-19811428D01*
X-13587143Y-19840000D01*
X-13558572Y-19897142D01*
X-13558572Y-20068571D01*
X-13587143Y-20125714D01*
X-13615715Y-20154285D01*
%TO.C,C8*%
X-10145715Y-21050000D02*
X-10117143Y-21078571D01*
X-10088572Y-21164285D01*
X-10088572Y-21221428D01*
X-10117143Y-21307142D01*
X-10174286Y-21364285D01*
X-10231429Y-21392857D01*
X-10345715Y-21421428D01*
X-10431429Y-21421428D01*
X-10545715Y-21392857D01*
X-10602858Y-21364285D01*
X-10660000Y-21307142D01*
X-10688572Y-21221428D01*
X-10688572Y-21164285D01*
X-10660000Y-21078571D01*
X-10631429Y-21050000D01*
X-10431429Y-20707142D02*
X-10460000Y-20764285D01*
X-10488572Y-20792857D01*
X-10545715Y-20821428D01*
X-10574286Y-20821428D01*
X-10631429Y-20792857D01*
X-10660000Y-20764285D01*
X-10688572Y-20707142D01*
X-10688572Y-20592857D01*
X-10660000Y-20535714D01*
X-10631429Y-20507142D01*
X-10574286Y-20478571D01*
X-10545715Y-20478571D01*
X-10488572Y-20507142D01*
X-10460000Y-20535714D01*
X-10431429Y-20592857D01*
X-10431429Y-20707142D01*
X-10402858Y-20764285D01*
X-10374286Y-20792857D01*
X-10317143Y-20821428D01*
X-10202858Y-20821428D01*
X-10145715Y-20792857D01*
X-10117143Y-20764285D01*
X-10088572Y-20707142D01*
X-10088572Y-20592857D01*
X-10117143Y-20535714D01*
X-10145715Y-20507142D01*
X-10202858Y-20478571D01*
X-10317143Y-20478571D01*
X-10374286Y-20507142D01*
X-10402858Y-20535714D01*
X-10431429Y-20592857D01*
%TO.C,U3*%
X-12098572Y-4302142D02*
X-11612858Y-4302142D01*
X-11555715Y-4273571D01*
X-11527143Y-4245000D01*
X-11498572Y-4187857D01*
X-11498572Y-4073571D01*
X-11527143Y-4016428D01*
X-11555715Y-3987857D01*
X-11612858Y-3959285D01*
X-12098572Y-3959285D01*
X-12098572Y-3730714D02*
X-12098572Y-3359285D01*
X-11870000Y-3559285D01*
X-11870000Y-3473571D01*
X-11841429Y-3416428D01*
X-11812858Y-3387857D01*
X-11755715Y-3359285D01*
X-11612858Y-3359285D01*
X-11555715Y-3387857D01*
X-11527143Y-3416428D01*
X-11498572Y-3473571D01*
X-11498572Y-3645000D01*
X-11527143Y-3702142D01*
X-11555715Y-3730714D01*
%TO.C,R6*%
X-37030000Y-15301428D02*
X-37230000Y-15015714D01*
X-37372858Y-15301428D02*
X-37372858Y-14701428D01*
X-37144286Y-14701428D01*
X-37087143Y-14730000D01*
X-37058572Y-14758571D01*
X-37030000Y-14815714D01*
X-37030000Y-14901428D01*
X-37058572Y-14958571D01*
X-37087143Y-14987142D01*
X-37144286Y-15015714D01*
X-37372858Y-15015714D01*
X-36515715Y-14701428D02*
X-36630000Y-14701428D01*
X-36687143Y-14730000D01*
X-36715715Y-14758571D01*
X-36772858Y-14844285D01*
X-36801429Y-14958571D01*
X-36801429Y-15187142D01*
X-36772858Y-15244285D01*
X-36744286Y-15272857D01*
X-36687143Y-15301428D01*
X-36572858Y-15301428D01*
X-36515715Y-15272857D01*
X-36487143Y-15244285D01*
X-36458572Y-15187142D01*
X-36458572Y-15044285D01*
X-36487143Y-14987142D01*
X-36515715Y-14958571D01*
X-36572858Y-14930000D01*
X-36687143Y-14930000D01*
X-36744286Y-14958571D01*
X-36772858Y-14987142D01*
X-36801429Y-15044285D01*
%TO.C,*%
G36*
X-8430201Y-14024923D02*
G01*
X-8317070Y-14039877D01*
X-8216532Y-14070381D01*
X-8128492Y-14116494D01*
X-8052855Y-14178276D01*
X-7989527Y-14255785D01*
X-7949745Y-14324895D01*
X-7917902Y-14398264D01*
X-7895941Y-14471356D01*
X-7882706Y-14549831D01*
X-7877039Y-14639352D01*
X-7876639Y-14682447D01*
X-7879380Y-14764766D01*
X-7887964Y-14837522D01*
X-7903881Y-14908613D01*
X-7928621Y-14985941D01*
X-7939414Y-15015341D01*
X-7961084Y-15072909D01*
X-8270012Y-15072909D01*
X-8270012Y-15044425D01*
X-8263093Y-15016589D01*
X-8250102Y-14997923D01*
X-8209643Y-14950407D01*
X-8175161Y-14888927D01*
X-8148949Y-14819204D01*
X-8133295Y-14746955D01*
X-8129846Y-14697681D01*
X-8136312Y-14618828D01*
X-8156503Y-14553572D01*
X-8191609Y-14499894D01*
X-8242821Y-14455779D01*
X-8287678Y-14430101D01*
X-8317161Y-14416071D01*
X-8341417Y-14406711D01*
X-8365805Y-14401079D01*
X-8395679Y-14398232D01*
X-8436397Y-14397225D01*
X-8475044Y-14397110D01*
X-8547036Y-14399294D01*
X-8603909Y-14406812D01*
X-8650185Y-14421112D01*
X-8690387Y-14443644D01*
X-8729039Y-14475857D01*
X-8733123Y-14479794D01*
X-8772008Y-14531041D01*
X-8797797Y-14593871D01*
X-8810545Y-14664766D01*
X-8810304Y-14740210D01*
X-8797129Y-14816684D01*
X-8771074Y-14890672D01*
X-8732192Y-14958655D01*
X-8725656Y-14967587D01*
X-8703527Y-14999862D01*
X-8687426Y-15028940D01*
X-8680553Y-15048968D01*
X-8680496Y-15050185D01*
X-8681041Y-15058899D01*
X-8684663Y-15065041D01*
X-8694343Y-15069059D01*
X-8713063Y-15071406D01*
X-8743803Y-15072530D01*
X-8789546Y-15072881D01*
X-8831030Y-15072909D01*
X-8981563Y-15072909D01*
X-9001228Y-15027032D01*
X-9030292Y-14942379D01*
X-9051444Y-14845583D01*
X-9063857Y-14743228D01*
X-9066698Y-14641901D01*
X-9060422Y-14557300D01*
X-9036458Y-14439302D01*
X-8998207Y-14334926D01*
X-8946282Y-14244689D01*
X-8881294Y-14169107D01*
X-8803855Y-14108698D01*
X-8714579Y-14063978D01*
X-8614076Y-14035466D01*
X-8502960Y-14023679D01*
X-8430201Y-14024923D01*
G37*
G36*
X-8248835Y-15266837D02*
G01*
X-8154525Y-15307207D01*
X-8072268Y-15362648D01*
X-8002905Y-15432540D01*
X-7947279Y-15516261D01*
X-7906231Y-15613192D01*
X-7893068Y-15659606D01*
X-7883076Y-15718033D01*
X-7877509Y-15789021D01*
X-7876361Y-15865606D01*
X-7879627Y-15940820D01*
X-7887299Y-16007699D01*
X-7893395Y-16038403D01*
X-7927342Y-16140233D01*
X-7976638Y-16229351D01*
X-8040670Y-16305140D01*
X-8118826Y-16366978D01*
X-8210494Y-16414247D01*
X-8290759Y-16440546D01*
X-8346390Y-16450484D01*
X-8414322Y-16456064D01*
X-8487545Y-16457281D01*
X-8559049Y-16454134D01*
X-8621824Y-16446618D01*
X-8649738Y-16440713D01*
X-8750992Y-16405071D01*
X-8839696Y-16354445D01*
X-8914898Y-16289789D01*
X-8975647Y-16212060D01*
X-9020993Y-16122212D01*
X-9045272Y-16043409D01*
X-9055076Y-15987789D01*
X-9062046Y-15921595D01*
X-9064799Y-15870543D01*
X-8821091Y-15870543D01*
X-8809148Y-15930924D01*
X-8801711Y-15949652D01*
X-8770792Y-15995916D01*
X-8724714Y-16036282D01*
X-8668252Y-16066767D01*
X-8655784Y-16071449D01*
X-8627429Y-16079371D01*
X-8593554Y-16084566D01*
X-8549790Y-16087432D01*
X-8491770Y-16088366D01*
X-8470248Y-16088325D01*
X-8411778Y-16087575D01*
X-8368462Y-16085595D01*
X-8335441Y-16081802D01*
X-8307855Y-16075609D01*
X-8280844Y-16066430D01*
X-8277364Y-16065082D01*
X-8213144Y-16033136D01*
X-8166773Y-15993625D01*
X-8136903Y-15944670D01*
X-8122181Y-15884390D01*
X-8120054Y-15846001D01*
X-8124036Y-15788493D01*
X-8138121Y-15743364D01*
X-8164828Y-15704459D01*
X-8187024Y-15682384D01*
X-8222812Y-15654491D01*
X-8261739Y-15634173D01*
X-8307560Y-15620450D01*
X-8364034Y-15612343D01*
X-8434917Y-15608873D01*
X-8470248Y-15608563D01*
X-8540408Y-15609573D01*
X-8594990Y-15613217D01*
X-8638364Y-15620378D01*
X-8674899Y-15631941D01*
X-8708963Y-15648789D01*
X-8728470Y-15660785D01*
X-8770342Y-15699221D01*
X-8800517Y-15750072D01*
X-8817824Y-15808719D01*
X-8821091Y-15870543D01*
X-9064799Y-15870543D01*
X-9065783Y-15852298D01*
X-9065891Y-15787365D01*
X-9061973Y-15734265D01*
X-9061789Y-15732934D01*
X-9037452Y-15622431D01*
X-8997697Y-15524359D01*
X-8943306Y-15439374D01*
X-8875059Y-15368138D01*
X-8793736Y-15311308D01*
X-8700118Y-15269542D01*
X-8594987Y-15243501D01*
X-8479122Y-15233842D01*
X-8470248Y-15233796D01*
X-8354357Y-15242160D01*
X-8248835Y-15266837D01*
G37*
G36*
X-7539148Y-7053437D02*
G01*
X-8022883Y-7053437D01*
X-8148331Y-7053682D01*
X-8259436Y-7054404D01*
X-8355246Y-7055584D01*
X-8434806Y-7057203D01*
X-8497162Y-7059242D01*
X-8541361Y-7061681D01*
X-8565707Y-7064360D01*
X-8637612Y-7083813D01*
X-8693238Y-7113455D01*
X-8733907Y-7154843D01*
X-8760943Y-7209535D01*
X-8775669Y-7279089D01*
X-8778602Y-7315061D01*
X-8777053Y-7396324D01*
X-8762994Y-7462858D01*
X-8735753Y-7516079D01*
X-8694662Y-7557405D01*
X-8652234Y-7582449D01*
X-8595396Y-7609093D01*
X-8067272Y-7612012D01*
X-7539148Y-7614930D01*
X-7539148Y-7994548D01*
X-8063168Y-7994548D01*
X-8179952Y-7994509D01*
X-8278563Y-7994350D01*
X-8360850Y-7994011D01*
X-8428663Y-7993431D01*
X-8483853Y-7992549D01*
X-8528270Y-7991304D01*
X-8563763Y-7989634D01*
X-8592183Y-7987480D01*
X-8615380Y-7984781D01*
X-8635203Y-7981474D01*
X-8653502Y-7977500D01*
X-8664623Y-7974743D01*
X-8743584Y-7949490D01*
X-8808853Y-7916387D01*
X-8866247Y-7872096D01*
X-8896813Y-7841488D01*
X-8942253Y-7786692D01*
X-8976938Y-7730186D01*
X-9004757Y-7664924D01*
X-9019706Y-7618852D01*
X-9047880Y-7489669D01*
X-9058274Y-7351314D01*
X-9050884Y-7203831D01*
X-9049750Y-7193602D01*
X-9028720Y-7078614D01*
X-8993750Y-6976989D01*
X-8945287Y-6889260D01*
X-8883780Y-6815960D01*
X-8809677Y-6757623D01*
X-8723426Y-6714781D01*
X-8625474Y-6687966D01*
X-8624623Y-6687814D01*
X-8600491Y-6684363D01*
X-8569010Y-6681466D01*
X-8528541Y-6679085D01*
X-8477443Y-6677177D01*
X-8414076Y-6675703D01*
X-8336799Y-6674621D01*
X-8243974Y-6673890D01*
X-8133958Y-6673470D01*
X-8042243Y-6673337D01*
X-7539148Y-6672987D01*
X-7539148Y-7053437D01*
G37*
G36*
X-8106789Y-11570051D02*
G01*
X-8088649Y-11573313D01*
X-7973133Y-11605389D01*
X-7867411Y-11652532D01*
X-7773301Y-11713537D01*
X-7692623Y-11787201D01*
X-7627196Y-11872321D01*
X-7620592Y-11883023D01*
X-7575134Y-11975856D01*
X-7541828Y-12080956D01*
X-7521031Y-12194409D01*
X-7513098Y-12312301D01*
X-7518388Y-12430717D01*
X-7537258Y-12545743D01*
X-7554411Y-12608880D01*
X-7598214Y-12716006D01*
X-7657764Y-12811143D01*
X-7732244Y-12893552D01*
X-7820838Y-12962498D01*
X-7922729Y-13017241D01*
X-8037101Y-13057046D01*
X-8055910Y-13061835D01*
X-8135742Y-13075926D01*
X-8226974Y-13083371D01*
X-8322406Y-13084160D01*
X-8414834Y-13078287D01*
X-8497059Y-13065741D01*
X-8511946Y-13062358D01*
X-8629973Y-13024621D01*
X-8734424Y-12972254D01*
X-8824944Y-12905664D01*
X-8901177Y-12825259D01*
X-8962768Y-12731446D01*
X-9009363Y-12624634D01*
X-9040605Y-12505230D01*
X-9049893Y-12444805D01*
X-9056974Y-12374093D01*
X-9058723Y-12323505D01*
X-8780234Y-12323505D01*
X-8772655Y-12399205D01*
X-8759125Y-12446426D01*
X-8724384Y-12511629D01*
X-8672999Y-12569385D01*
X-8607557Y-12617814D01*
X-8530645Y-12655038D01*
X-8444854Y-12679178D01*
X-8436278Y-12680733D01*
X-8380267Y-12687089D01*
X-8314263Y-12689394D01*
X-8243975Y-12687942D01*
X-8175107Y-12683029D01*
X-8113368Y-12674949D01*
X-8064464Y-12663995D01*
X-8055557Y-12661075D01*
X-7969002Y-12622327D01*
X-7899624Y-12573748D01*
X-7846907Y-12514883D01*
X-7810336Y-12445276D01*
X-7809849Y-12443992D01*
X-7797638Y-12406548D01*
X-7791635Y-12371556D01*
X-7790683Y-12330107D01*
X-7791713Y-12304639D01*
X-7804698Y-12219505D01*
X-7834018Y-12145870D01*
X-7879545Y-12083832D01*
X-7941151Y-12033491D01*
X-8018709Y-11994947D01*
X-8112091Y-11968297D01*
X-8221169Y-11953642D01*
X-8245178Y-11952143D01*
X-8356969Y-11953043D01*
X-8458989Y-11967332D01*
X-8549685Y-11994475D01*
X-8627506Y-12033936D01*
X-8690902Y-12085181D01*
X-8716324Y-12114555D01*
X-8751387Y-12175896D01*
X-8772918Y-12247307D01*
X-8780234Y-12323505D01*
X-9058723Y-12323505D01*
X-9059123Y-12311934D01*
X-9056308Y-12248856D01*
X-9049013Y-12179491D01*
X-9024873Y-12061599D01*
X-8983580Y-11952757D01*
X-8926259Y-11854301D01*
X-8854038Y-11767567D01*
X-8768044Y-11693891D01*
X-8669405Y-11634608D01*
X-8559248Y-11591055D01*
X-8550179Y-11588351D01*
X-8490679Y-11575383D01*
X-8417445Y-11566122D01*
X-8336459Y-11560764D01*
X-8253701Y-11559502D01*
X-8245178Y-11559831D01*
X-8175151Y-11562533D01*
X-8106789Y-11570051D01*
G37*
G36*
X-7909586Y-8695376D02*
G01*
X-9030910Y-8695376D01*
X-9030910Y-8334950D01*
X-7909586Y-8334950D01*
X-7909586Y-8695376D01*
G37*
G36*
X-7909586Y-9396204D02*
G01*
X-8029057Y-9396204D01*
X-7984173Y-9460412D01*
X-7927514Y-9555571D01*
X-7890694Y-9650483D01*
X-7873766Y-9744952D01*
X-7876782Y-9838782D01*
X-7879108Y-9853659D01*
X-7900698Y-9937867D01*
X-7934113Y-10006871D01*
X-7980405Y-10062349D01*
X-8035967Y-10103289D01*
X-8059067Y-10116413D01*
X-8080981Y-10127361D01*
X-8103747Y-10136353D01*
X-8129405Y-10143606D01*
X-8159993Y-10149338D01*
X-8197551Y-10153768D01*
X-8244119Y-10157114D01*
X-8301734Y-10159594D01*
X-8372436Y-10161427D01*
X-8458265Y-10162829D01*
X-8561259Y-10164021D01*
X-8607911Y-10164489D01*
X-9030910Y-10168639D01*
X-9030910Y-9808387D01*
X-8662976Y-9805035D01*
X-8295041Y-9801683D01*
X-8244982Y-9776653D01*
X-8206625Y-9753056D01*
X-8181236Y-9725040D01*
X-8166896Y-9688543D01*
X-8161688Y-9639506D01*
X-8162185Y-9601446D01*
X-8166648Y-9547792D01*
X-8176461Y-9503759D01*
X-8193898Y-9459185D01*
X-8194084Y-9458778D01*
X-8222687Y-9396204D01*
X-9030910Y-9396204D01*
X-9030910Y-9035778D01*
X-7909586Y-9035778D01*
X-7909586Y-9396204D01*
G37*
G36*
X-8760591Y-10697741D02*
G01*
X-7809468Y-10697741D01*
X-7809468Y-10457457D01*
X-7539148Y-10457457D01*
X-7539148Y-11318474D01*
X-7809468Y-11318474D01*
X-7809468Y-11078190D01*
X-8760591Y-11078190D01*
X-8760591Y-11318474D01*
X-9030910Y-11318474D01*
X-9030910Y-10457457D01*
X-8760591Y-10457457D01*
X-8760591Y-10697741D01*
G37*
G36*
X-8640449Y-13741336D02*
G01*
X-9030910Y-13741336D01*
X-9030910Y-13380910D01*
X-8640449Y-13380910D01*
X-8640449Y-13741336D01*
G37*
G36*
X-7909586Y-17085285D02*
G01*
X-8030645Y-17085285D01*
X-7994678Y-17132390D01*
X-7957924Y-17187552D01*
X-7924330Y-17250779D01*
X-7897261Y-17314882D01*
X-7880085Y-17372677D01*
X-7878595Y-17380217D01*
X-7872344Y-17462554D01*
X-7882640Y-17542744D01*
X-7908181Y-17617459D01*
X-7947666Y-17683371D01*
X-7999793Y-17737152D01*
X-8025356Y-17755457D01*
X-8067227Y-17782011D01*
X-8018097Y-17846636D01*
X-7975579Y-17908774D01*
X-7937363Y-17976330D01*
X-7906187Y-18043687D01*
X-7884791Y-18105225D01*
X-7878421Y-18133160D01*
X-7872612Y-18215681D01*
X-7883253Y-18294781D01*
X-7909066Y-18367541D01*
X-7948775Y-18431038D01*
X-8001102Y-18482352D01*
X-8042509Y-18508424D01*
X-8066406Y-18520273D01*
X-8088998Y-18530146D01*
X-8112361Y-18538248D01*
X-8138571Y-18544785D01*
X-8169705Y-18549962D01*
X-8207838Y-18553984D01*
X-8255047Y-18557056D01*
X-8313408Y-18559384D01*
X-8384997Y-18561173D01*
X-8471891Y-18562628D01*
X-8576165Y-18563954D01*
X-8607911Y-18564321D01*
X-9030910Y-18569150D01*
X-9030910Y-18208096D01*
X-8652964Y-18204850D01*
X-8555437Y-18203958D01*
X-8475844Y-18203047D01*
X-8412096Y-18202000D01*
X-8362103Y-18200701D01*
X-8323776Y-18199033D01*
X-8295026Y-18196880D01*
X-8273763Y-18194126D01*
X-8257898Y-18190655D01*
X-8245341Y-18186350D01*
X-8234970Y-18181580D01*
X-8199197Y-18157321D01*
X-8176027Y-18124912D01*
X-8164008Y-18081067D01*
X-8161684Y-18022497D01*
X-8161901Y-18016385D01*
X-8166458Y-17964511D01*
X-8176894Y-17922075D01*
X-8193181Y-17883728D01*
X-8221425Y-17826160D01*
X-9030910Y-17826160D01*
X-9030910Y-17467035D01*
X-8652964Y-17463882D01*
X-8555625Y-17463023D01*
X-8476219Y-17462152D01*
X-8412657Y-17461149D01*
X-8362848Y-17459896D01*
X-8324702Y-17458273D01*
X-8296129Y-17456160D01*
X-8275040Y-17453439D01*
X-8259343Y-17449990D01*
X-8246949Y-17445693D01*
X-8235769Y-17440430D01*
X-8234970Y-17440018D01*
X-8196096Y-17409330D01*
X-8170590Y-17365975D01*
X-8158846Y-17312536D01*
X-8161257Y-17251598D01*
X-8178216Y-17185742D01*
X-8191399Y-17153664D01*
X-8222917Y-17085285D01*
X-9030910Y-17085285D01*
X-9030910Y-16724860D01*
X-7909586Y-16724860D01*
X-7909586Y-17085285D01*
G37*
G36*
X-7469066Y-8705388D02*
G01*
X-7739385Y-8705388D01*
X-7739385Y-8324939D01*
X-7469066Y-8324939D01*
X-7469066Y-8705388D01*
G37*
%TO.C,HOLE2*%
X-37090000Y-22710000D02*
G75*
G03*
X-37090000Y-22710000I-1800000J0D01*
G01*
D14*
%TO.C,U1*%
X-24320000Y-2180000D02*
X-27920000Y-2180000D01*
X-24320000Y-5400000D02*
X-26520000Y-5400000D01*
X-24320000Y-2180000D02*
X-22120000Y-2180000D01*
X-24320000Y-5400000D02*
X-22120000Y-5400000D01*
%TO.C,C1*%
X-8820000Y-4162164D02*
X-8820000Y-4377836D01*
X-9540000Y-4162164D02*
X-9540000Y-4377836D01*
D11*
%TO.C,HOLE4*%
X1000000Y-22710000D02*
G75*
G03*
X1000000Y-22710000I-1800000J0D01*
G01*
D14*
%TO.C,R16*%
X-34290000Y-2746359D02*
X-34290000Y-3053641D01*
X-35050000Y-2746359D02*
X-35050000Y-3053641D01*
%TO.C,R20*%
X-11020000Y-15596359D02*
X-11020000Y-15903641D01*
X-10260000Y-15596359D02*
X-10260000Y-15903641D01*
%TO.C,C5*%
X-24032164Y-15890000D02*
X-24247836Y-15890000D01*
X-24032164Y-15170000D02*
X-24247836Y-15170000D01*
%TO.C,R11*%
X-31985716Y-22703641D02*
X-31985716Y-22396359D01*
X-31225716Y-22703641D02*
X-31225716Y-22396359D01*
%TO.C,U4*%
X-21050000Y-16890000D02*
X-20575000Y-16890000D01*
X-21050000Y-9145000D02*
X-21050000Y-8670000D01*
X-12830000Y-9145000D02*
X-12830000Y-8670000D01*
X-21050000Y-8670000D02*
X-20575000Y-8670000D01*
X-12830000Y-16890000D02*
X-13305000Y-16890000D01*
X-21050000Y-16415000D02*
X-21050000Y-16890000D01*
X-12830000Y-16415000D02*
X-12830000Y-16890000D01*
%TO.C,R19*%
X-19140000Y-22423641D02*
X-19140000Y-22116359D01*
X-19900000Y-22423641D02*
X-19900000Y-22116359D01*
D15*
%TO.C,USB1*%
X-1236000Y-8360000D02*
X-2981000Y-8360000D01*
X-1236000Y-17160000D02*
X-2981000Y-17160000D01*
X2541000Y-17160000D02*
X2541000Y-8360000D01*
X2541000Y-17160000D02*
X1119000Y-17160000D01*
X2541000Y-8360000D02*
X1119000Y-8360000D01*
D14*
%TO.C,C2*%
X-14150000Y-4162164D02*
X-14150000Y-4377836D01*
X-14870000Y-4162164D02*
X-14870000Y-4377836D01*
%TO.C,D1*%
X-4375000Y-2205000D02*
X-5845000Y-2205000D01*
X-5845000Y-2205000D02*
X-5845000Y-4490000D01*
X-4375000Y-4490000D02*
X-4375000Y-2205000D01*
%TO.C,R3*%
X-38576359Y-10905714D02*
X-38883641Y-10905714D01*
X-38576359Y-10145714D02*
X-38883641Y-10145714D01*
%TO.C,D3*%
X-17160000Y-20465000D02*
X-18630000Y-20465000D01*
X-17160000Y-22750000D02*
X-17160000Y-20465000D01*
X-18630000Y-20465000D02*
X-18630000Y-22750000D01*
%TO.C,D2*%
X-24025000Y-22797500D02*
X-24025000Y-20512500D01*
X-24025000Y-20512500D02*
X-25495000Y-20512500D01*
X-25495000Y-20512500D02*
X-25495000Y-22797500D01*
%TO.C,C4*%
X-24032164Y-17100000D02*
X-24247836Y-17100000D01*
X-24032164Y-17820000D02*
X-24247836Y-17820000D01*
%TO.C,R8*%
X-38576359Y-17560000D02*
X-38883641Y-17560000D01*
X-38576359Y-18320000D02*
X-38883641Y-18320000D01*
%TO.C,R18*%
X-23600000Y-22433641D02*
X-23600000Y-22126359D01*
X-22840000Y-22433641D02*
X-22840000Y-22126359D01*
%TO.C,R5*%
X-38576359Y-13871428D02*
X-38883641Y-13871428D01*
X-38576359Y-13111428D02*
X-38883641Y-13111428D01*
%TO.C,R4*%
X-38576359Y-11628571D02*
X-38883641Y-11628571D01*
X-38576359Y-12388571D02*
X-38883641Y-12388571D01*
%TO.C,R13*%
X-29693568Y-2746359D02*
X-29693568Y-3053641D01*
X-30453568Y-2746359D02*
X-30453568Y-3053641D01*
%TO.C,Y1*%
X-6190000Y-23340000D02*
X-6190000Y-19340000D01*
X-9490000Y-23340000D02*
X-6190000Y-23340000D01*
%TO.C,C10*%
X-12970000Y-22432164D02*
X-12970000Y-22647836D01*
X-12250000Y-22432164D02*
X-12250000Y-22647836D01*
%TO.C,R17*%
X-6300000Y-3263641D02*
X-6300000Y-2956359D01*
X-7060000Y-3263641D02*
X-7060000Y-2956359D01*
%TO.C,R2*%
X-38576359Y-8662857D02*
X-38883641Y-8662857D01*
X-38576359Y-9422857D02*
X-38883641Y-9422857D01*
%TO.C,C3*%
X-19050000Y-4367836D02*
X-19050000Y-4152164D01*
X-18330000Y-4367836D02*
X-18330000Y-4152164D01*
%TO.C,C9*%
X-5620000Y-22422164D02*
X-5620000Y-22637836D01*
X-4900000Y-22422164D02*
X-4900000Y-22637836D01*
D11*
%TO.C,HOLE3*%
X1000000Y-2710000D02*
G75*
G03*
X1000000Y-2710000I-1800000J0D01*
G01*
D14*
%TO.C,R9*%
X-34290000Y-22703641D02*
X-34290000Y-22396359D01*
X-35050000Y-22703641D02*
X-35050000Y-22396359D01*
%TO.C,R1*%
X-38576359Y-7180000D02*
X-38883641Y-7180000D01*
X-38576359Y-7940000D02*
X-38883641Y-7940000D01*
%TO.C,R22*%
X-21633641Y-6000000D02*
X-21326359Y-6000000D01*
X-21633641Y-6760000D02*
X-21326359Y-6760000D01*
%TO.C,R7*%
X-38576359Y-16077142D02*
X-38883641Y-16077142D01*
X-38576359Y-16837142D02*
X-38883641Y-16837142D01*
%TO.C,C7*%
X-11000000Y-11552164D02*
X-11000000Y-11767836D01*
X-10280000Y-11552164D02*
X-10280000Y-11767836D01*
%TO.C,R21*%
X-23653641Y-6760000D02*
X-23346359Y-6760000D01*
X-23653641Y-6000000D02*
X-23346359Y-6000000D01*
%TO.C,C6*%
X-24022164Y-10160000D02*
X-24237836Y-10160000D01*
X-24022164Y-10880000D02*
X-24237836Y-10880000D01*
D16*
%TO.C,U2*%
X-32261000Y-9454000D02*
X-28719000Y-9454000D01*
X-28719000Y-16106000D02*
X-32261000Y-16106000D01*
X-32261000Y-16106000D02*
X-32261000Y-9454000D01*
X-28719000Y-9454000D02*
X-28719000Y-16106000D01*
D13*
X-27469000Y-16339000D02*
G75*
G03*
X-27469000Y-16339000I-150000J0D01*
G01*
X-29321000Y-15705000D02*
G75*
G03*
X-29321000Y-15705000I-150000J0D01*
G01*
D14*
%TO.C,R15*%
X-32757852Y-2746359D02*
X-32757852Y-3053641D01*
X-33517852Y-2746359D02*
X-33517852Y-3053641D01*
%TO.C,J1*%
X-44055000Y-22935000D02*
X-44055000Y-15000D01*
X-44055000Y-25535000D02*
X-45385000Y-25535000D01*
X-44055000Y-15000D02*
X-46715000Y-15000D01*
X-44055000Y-24205000D02*
X-44055000Y-25535000D01*
X-46715000Y-22935000D02*
X-46715000Y-15000D01*
X-44055000Y-22935000D02*
X-46715000Y-22935000D01*
%TO.C,R12*%
X-30453574Y-22703641D02*
X-30453574Y-22396359D01*
X-29693574Y-22703641D02*
X-29693574Y-22396359D01*
%TO.C,R10*%
X-33517858Y-22703641D02*
X-33517858Y-22396359D01*
X-32757858Y-22703641D02*
X-32757858Y-22396359D01*
%TO.C,R14*%
X-31225710Y-2746359D02*
X-31225710Y-3053641D01*
X-31985710Y-2746359D02*
X-31985710Y-3053641D01*
%TO.C,R23*%
X-14280000Y-22673641D02*
X-14280000Y-22366359D01*
X-13520000Y-22673641D02*
X-13520000Y-22366359D01*
D11*
%TO.C,HOLE1*%
X-37090000Y-2710000D02*
G75*
G03*
X-37090000Y-2710000I-1800000J0D01*
G01*
D14*
%TO.C,C8*%
X-10760000Y-22627836D02*
X-10760000Y-22412164D01*
X-10040000Y-22627836D02*
X-10040000Y-22412164D01*
D15*
%TO.C,U3*%
X-12745000Y-4212000D02*
X-12745000Y-3412000D01*
X-12745000Y-2262000D02*
X-10945000Y-2262000D01*
X-12745000Y-5362000D02*
X-10945000Y-5362000D01*
X-10194000Y-5463000D02*
G75*
G03*
X-10194000Y-5463000I-127000J0D01*
G01*
D14*
%TO.C,R6*%
X-38576359Y-14594285D02*
X-38883641Y-14594285D01*
X-38576359Y-15354285D02*
X-38883641Y-15354285D01*
%TD*%
%LPC*%
D17*
%TO.C,HOLE2*%
X-38890000Y-22710000D03*
%TD*%
D18*
%TO.C,U1*%
X-27182500Y-2815000D03*
X-27182500Y-3465000D03*
X-27182500Y-4115000D03*
X-27182500Y-4765000D03*
X-21457500Y-4765000D03*
X-21457500Y-4115000D03*
X-21457500Y-3465000D03*
X-21457500Y-2815000D03*
%TD*%
D19*
%TO.C,C1*%
X-9180000Y-3790000D03*
X-9180000Y-4750000D03*
%TD*%
D17*
%TO.C,HOLE4*%
X-800000Y-22710000D03*
%TD*%
D20*
%TO.C,R16*%
X-34670000Y-2390000D03*
X-34670000Y-3410000D03*
%TD*%
%TO.C,R20*%
X-10640000Y-15240000D03*
X-10640000Y-16260000D03*
%TD*%
D21*
%TO.C,C5*%
X-23660000Y-15530000D03*
X-24620000Y-15530000D03*
%TD*%
D22*
%TO.C,R11*%
X-31605716Y-23060000D03*
X-31605716Y-22040000D03*
%TD*%
D23*
%TO.C,U4*%
X-15177500Y-14280000D03*
D24*
X-18702500Y-11280000D03*
D25*
X-18702500Y-14280000D03*
D26*
X-16352500Y-14280000D03*
D27*
X-17527500Y-13280000D03*
D28*
X-18702500Y-13280000D03*
D29*
X-15177500Y-12280000D03*
D30*
X-15177500Y-11280000D03*
D27*
X-16352500Y-13280000D03*
X-16352500Y-12280000D03*
X-17527500Y-12280000D03*
D31*
X-16352500Y-11280000D03*
D28*
X-18702500Y-12280000D03*
D31*
X-17527500Y-11280000D03*
D29*
X-15177500Y-13280000D03*
D26*
X-17527500Y-14280000D03*
D32*
X-13690000Y-8842500D03*
X-14190000Y-8842500D03*
X-14690000Y-8842500D03*
X-15190000Y-8842500D03*
X-15690000Y-8842500D03*
X-16190000Y-8842500D03*
X-16690000Y-8842500D03*
X-17190000Y-8842500D03*
X-17690000Y-8842500D03*
X-18190000Y-8842500D03*
X-18690000Y-8842500D03*
X-19190000Y-8842500D03*
X-19690000Y-8842500D03*
X-20190000Y-8842500D03*
D33*
X-20877500Y-9530000D03*
X-20877500Y-10030000D03*
X-20877500Y-10530000D03*
X-20877500Y-11030000D03*
X-20877500Y-11530000D03*
X-20877500Y-12030000D03*
X-20877500Y-12530000D03*
X-20877500Y-13030000D03*
X-20877500Y-13530000D03*
X-20877500Y-14030000D03*
X-20877500Y-14530000D03*
X-20877500Y-15030000D03*
X-20877500Y-15530000D03*
X-20877500Y-16030000D03*
D32*
X-20190000Y-16717500D03*
X-19690000Y-16717500D03*
X-19190000Y-16717500D03*
X-18690000Y-16717500D03*
X-18190000Y-16717500D03*
X-17690000Y-16717500D03*
X-17190000Y-16717500D03*
X-16690000Y-16717500D03*
X-16190000Y-16717500D03*
X-15690000Y-16717500D03*
X-15190000Y-16717500D03*
X-14690000Y-16717500D03*
X-14190000Y-16717500D03*
X-13690000Y-16717500D03*
D33*
X-13002500Y-16030000D03*
X-13002500Y-15530000D03*
X-13002500Y-15030000D03*
X-13002500Y-14530000D03*
X-13002500Y-14030000D03*
X-13002500Y-13530000D03*
X-13002500Y-13030000D03*
X-13002500Y-12530000D03*
X-13002500Y-12030000D03*
X-13002500Y-11530000D03*
X-13002500Y-11030000D03*
X-13002500Y-10530000D03*
X-13002500Y-10030000D03*
X-13002500Y-9530000D03*
%TD*%
D22*
%TO.C,R19*%
X-19520000Y-22780000D03*
X-19520000Y-21760000D03*
%TD*%
D34*
%TO.C,USB1*%
X-3759000Y-15650000D03*
X-3759000Y-9870000D03*
D35*
X-4259000Y-17085000D03*
X-4259000Y-8435000D03*
D36*
X-59000Y-17085000D03*
X-59000Y-8435000D03*
D37*
X-5021000Y-15960000D03*
X-5021000Y-15160000D03*
D38*
X-5021000Y-14010000D03*
X-5021000Y-13010000D03*
X-5021000Y-12510000D03*
X-5021000Y-11510000D03*
D37*
X-5021000Y-9560000D03*
X-5021000Y-10360000D03*
D38*
X-5021000Y-11010000D03*
X-5021000Y-12010000D03*
X-5021000Y-13510000D03*
X-5021000Y-14510000D03*
%TD*%
D19*
%TO.C,C2*%
X-14510000Y-4750000D03*
X-14510000Y-3790000D03*
%TD*%
D39*
%TO.C,D1*%
X-5110000Y-2902500D03*
X-5110000Y-4477500D03*
%TD*%
D40*
%TO.C,R3*%
X-38220000Y-10525714D03*
X-39240000Y-10525714D03*
%TD*%
D39*
%TO.C,D3*%
X-17895000Y-21162500D03*
X-17895000Y-22737500D03*
%TD*%
%TO.C,D2*%
X-24760000Y-21210000D03*
X-24760000Y-22785000D03*
%TD*%
D21*
%TO.C,C4*%
X-23660000Y-17460000D03*
X-24620000Y-17460000D03*
%TD*%
D40*
%TO.C,R8*%
X-38220000Y-17940000D03*
X-39240000Y-17940000D03*
%TD*%
D22*
%TO.C,R18*%
X-23220000Y-22790000D03*
X-23220000Y-21770000D03*
%TD*%
D40*
%TO.C,R5*%
X-38220000Y-13491428D03*
X-39240000Y-13491428D03*
%TD*%
%TO.C,R4*%
X-38220000Y-12008571D03*
X-39240000Y-12008571D03*
%TD*%
D20*
%TO.C,R13*%
X-30073568Y-2390000D03*
X-30073568Y-3410000D03*
%TD*%
D41*
%TO.C,Y1*%
X-6990000Y-22440000D03*
X-6990000Y-20240000D03*
X-8690000Y-20240000D03*
X-8690000Y-22440000D03*
%TD*%
D19*
%TO.C,C10*%
X-12610000Y-22060000D03*
X-12610000Y-23020000D03*
%TD*%
D22*
%TO.C,R17*%
X-6680000Y-3620000D03*
X-6680000Y-2600000D03*
%TD*%
D40*
%TO.C,R2*%
X-38220000Y-9042857D03*
X-39240000Y-9042857D03*
%TD*%
D42*
%TO.C,C3*%
X-18690000Y-3780000D03*
X-18690000Y-4740000D03*
%TD*%
D19*
%TO.C,C9*%
X-5260000Y-22050000D03*
X-5260000Y-23010000D03*
%TD*%
D17*
%TO.C,HOLE3*%
X-800000Y-2710000D03*
%TD*%
D22*
%TO.C,R9*%
X-34670000Y-23060000D03*
X-34670000Y-22040000D03*
%TD*%
D40*
%TO.C,R1*%
X-38220000Y-7560000D03*
X-39240000Y-7560000D03*
%TD*%
D43*
%TO.C,R22*%
X-21990000Y-6380000D03*
X-20970000Y-6380000D03*
%TD*%
D40*
%TO.C,R7*%
X-38220000Y-16457142D03*
X-39240000Y-16457142D03*
%TD*%
D19*
%TO.C,C7*%
X-10640000Y-11180000D03*
X-10640000Y-12140000D03*
%TD*%
D43*
%TO.C,R21*%
X-24010000Y-6380000D03*
X-22990000Y-6380000D03*
%TD*%
D21*
%TO.C,C6*%
X-23650000Y-10520000D03*
X-24610000Y-10520000D03*
%TD*%
D44*
%TO.C,U2*%
X-27619000Y-15705000D03*
X-27619000Y-15055000D03*
X-27619000Y-14405000D03*
X-27619000Y-13755000D03*
X-27619000Y-13105000D03*
X-27619000Y-12455000D03*
X-27619000Y-11805000D03*
X-27619000Y-11155000D03*
X-27619000Y-10505000D03*
X-27619000Y-9855000D03*
X-33361000Y-9855000D03*
X-33361000Y-10505000D03*
X-33361000Y-11155000D03*
X-33361000Y-11805000D03*
X-33361000Y-12455000D03*
X-33361000Y-13105000D03*
X-33361000Y-13755000D03*
X-33361000Y-14405000D03*
X-33361000Y-15055000D03*
X-33361000Y-15705000D03*
%TD*%
D20*
%TO.C,R15*%
X-33137852Y-2390000D03*
X-33137852Y-3410000D03*
%TD*%
D45*
%TO.C,J1*%
X-45385000Y-24205000D03*
D46*
X-45385000Y-21665000D03*
X-45385000Y-19125000D03*
X-45385000Y-16585000D03*
X-45385000Y-14045000D03*
X-45385000Y-11505000D03*
X-45385000Y-8965000D03*
X-45385000Y-6425000D03*
X-45385000Y-3885000D03*
X-45385000Y-1345000D03*
%TD*%
D22*
%TO.C,R12*%
X-30073574Y-23060000D03*
X-30073574Y-22040000D03*
%TD*%
%TO.C,R10*%
X-33137858Y-23060000D03*
X-33137858Y-22040000D03*
%TD*%
D20*
%TO.C,R14*%
X-31605710Y-2390000D03*
X-31605710Y-3410000D03*
%TD*%
D22*
%TO.C,R23*%
X-13900000Y-23030000D03*
X-13900000Y-22010000D03*
%TD*%
D17*
%TO.C,HOLE1*%
X-38890000Y-2710000D03*
%TD*%
D42*
%TO.C,C8*%
X-10400000Y-23000000D03*
X-10400000Y-22040000D03*
%TD*%
D47*
%TO.C,U3*%
X-10545000Y-4762000D03*
X-10545000Y-3812000D03*
X-10545000Y-2862000D03*
X-13145000Y-2862000D03*
X-13145000Y-4762000D03*
%TD*%
D40*
%TO.C,R6*%
X-38220000Y-14974285D03*
X-39240000Y-14974285D03*
%TD*%
M02*
