%TF.GenerationSoftware,KiCad,Pcbnew,7.0.5*%
%TF.CreationDate,2023-07-05T13:27:57+08:00*%
%TF.ProjectId,UINIO-Logic-24MHz,55494e49-4f2d-44c6-9f67-69632d32344d,Version 3.1.0*%
%TF.SameCoordinates,PX925c430PY587b5e0*%
%TF.FileFunction,Paste,Top*%
%TF.FilePolarity,Positive*%
%FSLAX46Y46*%
G04 Gerber Fmt 4.6, Leading zero omitted, Abs format (unit mm)*
G04 Created by KiCad (PCBNEW 7.0.5) date 2023-07-05 13:27:57*
%MOMM*%
%LPD*%
G01*
G04 APERTURE LIST*
G04 Aperture macros list*
%AMRoundRect*
0 Rectangle with rounded corners*
0 $1 Rounding radius*
0 $2 $3 $4 $5 $6 $7 $8 $9 X,Y pos of 4 corners*
0 Add a 4 corners polygon primitive as box body*
4,1,4,$2,$3,$4,$5,$6,$7,$8,$9,$2,$3,0*
0 Add four circle primitives for the rounded corners*
1,1,$1+$1,$2,$3*
1,1,$1+$1,$4,$5*
1,1,$1+$1,$6,$7*
1,1,$1+$1,$8,$9*
0 Add four rect primitives between the rounded corners*
20,1,$1+$1,$2,$3,$4,$5,0*
20,1,$1+$1,$4,$5,$6,$7,0*
20,1,$1+$1,$6,$7,$8,$9,0*
20,1,$1+$1,$8,$9,$2,$3,0*%
%AMFreePoly0*
4,1,9,0.435000,0.357500,0.435000,-0.357500,0.290000,-0.502500,-0.290000,-0.502500,-0.435000,-0.357500,-0.435000,0.357500,-0.290000,0.502500,0.290000,0.502500,0.435000,0.357500,0.435000,0.357500,$1*%
G04 Aperture macros list end*
%ADD10C,0.120000*%
%ADD11RoundRect,0.100000X0.637500X0.100000X-0.637500X0.100000X-0.637500X-0.100000X0.637500X-0.100000X0*%
%ADD12RoundRect,0.140000X0.170000X-0.140000X0.170000X0.140000X-0.170000X0.140000X-0.170000X-0.140000X0*%
%ADD13RoundRect,0.135000X0.185000X-0.135000X0.185000X0.135000X-0.185000X0.135000X-0.185000X-0.135000X0*%
%ADD14RoundRect,0.140000X-0.140000X-0.170000X0.140000X-0.170000X0.140000X0.170000X-0.140000X0.170000X0*%
%ADD15RoundRect,0.135000X-0.185000X0.135000X-0.185000X-0.135000X0.185000X-0.135000X0.185000X0.135000X0*%
%ADD16FreePoly0,90.000000*%
%ADD17RoundRect,0.062500X0.062500X-0.375000X0.062500X0.375000X-0.062500X0.375000X-0.062500X-0.375000X0*%
%ADD18RoundRect,0.062500X0.375000X-0.062500X0.375000X0.062500X-0.375000X0.062500X-0.375000X-0.062500X0*%
%ADD19R,1.150000X0.600000*%
%ADD20R,1.150000X0.300000*%
%ADD21RoundRect,0.218750X0.256250X-0.218750X0.256250X0.218750X-0.256250X0.218750X-0.256250X-0.218750X0*%
%ADD22RoundRect,0.135000X-0.135000X-0.185000X0.135000X-0.185000X0.135000X0.185000X-0.135000X0.185000X0*%
%ADD23R,1.200000X1.400000*%
%ADD24RoundRect,0.140000X-0.170000X0.140000X-0.170000X-0.140000X0.170000X-0.140000X0.170000X0.140000X0*%
%ADD25RoundRect,0.135000X0.135000X0.185000X-0.135000X0.185000X-0.135000X-0.185000X0.135000X-0.185000X0*%
%ADD26O,1.742000X0.364000*%
%ADD27R,1.000000X0.600000*%
G04 APERTURE END LIST*
%TO.C,USB1*%
D10*
X-19379000Y-9900000D02*
X-20529000Y-9900000D01*
X-20529000Y-9300000D01*
X-19379000Y-9300000D01*
X-19379000Y-9900000D01*
G36*
X-19379000Y-9900000D02*
G01*
X-20529000Y-9900000D01*
X-20529000Y-9300000D01*
X-19379000Y-9300000D01*
X-19379000Y-9900000D01*
G37*
X-19379000Y-10700000D02*
X-20529000Y-10700000D01*
X-20529000Y-10100000D01*
X-19379000Y-10100000D01*
X-19379000Y-10700000D01*
G36*
X-19379000Y-10700000D02*
G01*
X-20529000Y-10700000D01*
X-20529000Y-10100000D01*
X-19379000Y-10100000D01*
X-19379000Y-10700000D01*
G37*
X-19379000Y-11200000D02*
X-20529000Y-11200000D01*
X-20529000Y-10900000D01*
X-19379000Y-10900000D01*
X-19379000Y-11200000D01*
G36*
X-19379000Y-11200000D02*
G01*
X-20529000Y-11200000D01*
X-20529000Y-10900000D01*
X-19379000Y-10900000D01*
X-19379000Y-11200000D01*
G37*
X-19379000Y-11700000D02*
X-20529000Y-11700000D01*
X-20529000Y-11400000D01*
X-19379000Y-11400000D01*
X-19379000Y-11700000D01*
G36*
X-19379000Y-11700000D02*
G01*
X-20529000Y-11700000D01*
X-20529000Y-11400000D01*
X-19379000Y-11400000D01*
X-19379000Y-11700000D01*
G37*
X-19379000Y-12200000D02*
X-20529000Y-12200000D01*
X-20529000Y-11900000D01*
X-19379000Y-11900000D01*
X-19379000Y-12200000D01*
G36*
X-19379000Y-12200000D02*
G01*
X-20529000Y-12200000D01*
X-20529000Y-11900000D01*
X-19379000Y-11900000D01*
X-19379000Y-12200000D01*
G37*
X-19379000Y-12700000D02*
X-20529000Y-12700000D01*
X-20529000Y-12400000D01*
X-19379000Y-12400000D01*
X-19379000Y-12700000D01*
G36*
X-19379000Y-12700000D02*
G01*
X-20529000Y-12700000D01*
X-20529000Y-12400000D01*
X-19379000Y-12400000D01*
X-19379000Y-12700000D01*
G37*
X-19379000Y-13200000D02*
X-20529000Y-13200000D01*
X-20529000Y-12900000D01*
X-19379000Y-12900000D01*
X-19379000Y-13200000D01*
G36*
X-19379000Y-13200000D02*
G01*
X-20529000Y-13200000D01*
X-20529000Y-12900000D01*
X-19379000Y-12900000D01*
X-19379000Y-13200000D01*
G37*
X-19379000Y-13700000D02*
X-20529000Y-13700000D01*
X-20529000Y-13400000D01*
X-19379000Y-13400000D01*
X-19379000Y-13700000D01*
G36*
X-19379000Y-13700000D02*
G01*
X-20529000Y-13700000D01*
X-20529000Y-13400000D01*
X-19379000Y-13400000D01*
X-19379000Y-13700000D01*
G37*
X-19379000Y-14200000D02*
X-20529000Y-14200000D01*
X-20529000Y-13900000D01*
X-19379000Y-13900000D01*
X-19379000Y-14200000D01*
G36*
X-19379000Y-14200000D02*
G01*
X-20529000Y-14200000D01*
X-20529000Y-13900000D01*
X-19379000Y-13900000D01*
X-19379000Y-14200000D01*
G37*
X-19379000Y-14700000D02*
X-20529000Y-14700000D01*
X-20529000Y-14400000D01*
X-19379000Y-14400000D01*
X-19379000Y-14700000D01*
G36*
X-19379000Y-14700000D02*
G01*
X-20529000Y-14700000D01*
X-20529000Y-14400000D01*
X-19379000Y-14400000D01*
X-19379000Y-14700000D01*
G37*
X-19379000Y-15500000D02*
X-20529000Y-15500000D01*
X-20529000Y-14900000D01*
X-19379000Y-14900000D01*
X-19379000Y-15500000D01*
G36*
X-19379000Y-15500000D02*
G01*
X-20529000Y-15500000D01*
X-20529000Y-14900000D01*
X-19379000Y-14900000D01*
X-19379000Y-15500000D01*
G37*
X-19379000Y-16300000D02*
X-20529000Y-16300000D01*
X-20529000Y-15700000D01*
X-19379000Y-15700000D01*
X-19379000Y-16300000D01*
G36*
X-19379000Y-16300000D02*
G01*
X-20529000Y-16300000D01*
X-20529000Y-15700000D01*
X-19379000Y-15700000D01*
X-19379000Y-16300000D01*
G37*
X-20069000Y-7985000D02*
X-19975000Y-8013000D01*
X-19889000Y-8059000D01*
X-19813000Y-8121000D01*
X-19751000Y-8197000D01*
X-19704000Y-8284000D01*
X-19676000Y-8377000D01*
X-19666000Y-8475000D01*
X-19676000Y-8573000D01*
X-19704000Y-8666000D01*
X-19751000Y-8753000D01*
X-19813000Y-8829000D01*
X-19889000Y-8891000D01*
X-19975000Y-8937000D01*
X-20069000Y-8965000D01*
X-20166000Y-8975000D01*
X-21266000Y-8975000D01*
X-21364000Y-8965000D01*
X-21458000Y-8937000D01*
X-21544000Y-8891000D01*
X-21620000Y-8829000D01*
X-21682000Y-8753000D01*
X-21728000Y-8666000D01*
X-21757000Y-8573000D01*
X-21766000Y-8475000D01*
X-21757000Y-8377000D01*
X-21728000Y-8284000D01*
X-21682000Y-8197000D01*
X-21620000Y-8121000D01*
X-21544000Y-8059000D01*
X-21458000Y-8013000D01*
X-21364000Y-7985000D01*
X-21266000Y-7975000D01*
X-20166000Y-7975000D01*
X-20069000Y-7985000D01*
G36*
X-20069000Y-7985000D02*
G01*
X-19975000Y-8013000D01*
X-19889000Y-8059000D01*
X-19813000Y-8121000D01*
X-19751000Y-8197000D01*
X-19704000Y-8284000D01*
X-19676000Y-8377000D01*
X-19666000Y-8475000D01*
X-19676000Y-8573000D01*
X-19704000Y-8666000D01*
X-19751000Y-8753000D01*
X-19813000Y-8829000D01*
X-19889000Y-8891000D01*
X-19975000Y-8937000D01*
X-20069000Y-8965000D01*
X-20166000Y-8975000D01*
X-21266000Y-8975000D01*
X-21364000Y-8965000D01*
X-21458000Y-8937000D01*
X-21544000Y-8891000D01*
X-21620000Y-8829000D01*
X-21682000Y-8753000D01*
X-21728000Y-8666000D01*
X-21757000Y-8573000D01*
X-21766000Y-8475000D01*
X-21757000Y-8377000D01*
X-21728000Y-8284000D01*
X-21682000Y-8197000D01*
X-21620000Y-8121000D01*
X-21544000Y-8059000D01*
X-21458000Y-8013000D01*
X-21364000Y-7985000D01*
X-21266000Y-7975000D01*
X-20166000Y-7975000D01*
X-20069000Y-7985000D01*
G37*
X-24369000Y-7985000D02*
X-24275000Y-8013000D01*
X-24189000Y-8059000D01*
X-24113000Y-8121000D01*
X-24051000Y-8197000D01*
X-24004000Y-8284000D01*
X-23976000Y-8377000D01*
X-23966000Y-8475000D01*
X-23976000Y-8573000D01*
X-24004000Y-8666000D01*
X-24051000Y-8753000D01*
X-24113000Y-8829000D01*
X-24189000Y-8891000D01*
X-24275000Y-8937000D01*
X-24369000Y-8965000D01*
X-24466000Y-8975000D01*
X-25366000Y-8975000D01*
X-25464000Y-8965000D01*
X-25558000Y-8937000D01*
X-25644000Y-8891000D01*
X-25720000Y-8829000D01*
X-25782000Y-8753000D01*
X-25828000Y-8666000D01*
X-25857000Y-8573000D01*
X-25866000Y-8475000D01*
X-25857000Y-8377000D01*
X-25828000Y-8284000D01*
X-25782000Y-8197000D01*
X-25720000Y-8121000D01*
X-25644000Y-8059000D01*
X-25558000Y-8013000D01*
X-25464000Y-7985000D01*
X-25366000Y-7975000D01*
X-24466000Y-7975000D01*
X-24369000Y-7985000D01*
G36*
X-24369000Y-7985000D02*
G01*
X-24275000Y-8013000D01*
X-24189000Y-8059000D01*
X-24113000Y-8121000D01*
X-24051000Y-8197000D01*
X-24004000Y-8284000D01*
X-23976000Y-8377000D01*
X-23966000Y-8475000D01*
X-23976000Y-8573000D01*
X-24004000Y-8666000D01*
X-24051000Y-8753000D01*
X-24113000Y-8829000D01*
X-24189000Y-8891000D01*
X-24275000Y-8937000D01*
X-24369000Y-8965000D01*
X-24466000Y-8975000D01*
X-25366000Y-8975000D01*
X-25464000Y-8965000D01*
X-25558000Y-8937000D01*
X-25644000Y-8891000D01*
X-25720000Y-8829000D01*
X-25782000Y-8753000D01*
X-25828000Y-8666000D01*
X-25857000Y-8573000D01*
X-25866000Y-8475000D01*
X-25857000Y-8377000D01*
X-25828000Y-8284000D01*
X-25782000Y-8197000D01*
X-25720000Y-8121000D01*
X-25644000Y-8059000D01*
X-25558000Y-8013000D01*
X-25464000Y-7985000D01*
X-25366000Y-7975000D01*
X-24466000Y-7975000D01*
X-24369000Y-7985000D01*
G37*
X-20069000Y-16635000D02*
X-19975000Y-16663000D01*
X-19889000Y-16709000D01*
X-19813000Y-16771000D01*
X-19751000Y-16847000D01*
X-19704000Y-16934000D01*
X-19676000Y-17027000D01*
X-19666000Y-17125000D01*
X-19676000Y-17223000D01*
X-19704000Y-17316000D01*
X-19751000Y-17403000D01*
X-19813000Y-17479000D01*
X-19889000Y-17541000D01*
X-19975000Y-17587000D01*
X-20069000Y-17615000D01*
X-20166000Y-17625000D01*
X-21266000Y-17625000D01*
X-21364000Y-17615000D01*
X-21458000Y-17587000D01*
X-21544000Y-17541000D01*
X-21620000Y-17479000D01*
X-21682000Y-17403000D01*
X-21728000Y-17316000D01*
X-21757000Y-17223000D01*
X-21766000Y-17125000D01*
X-21757000Y-17027000D01*
X-21728000Y-16934000D01*
X-21682000Y-16847000D01*
X-21620000Y-16771000D01*
X-21544000Y-16709000D01*
X-21458000Y-16663000D01*
X-21364000Y-16635000D01*
X-21266000Y-16625000D01*
X-20166000Y-16625000D01*
X-20069000Y-16635000D01*
G36*
X-20069000Y-16635000D02*
G01*
X-19975000Y-16663000D01*
X-19889000Y-16709000D01*
X-19813000Y-16771000D01*
X-19751000Y-16847000D01*
X-19704000Y-16934000D01*
X-19676000Y-17027000D01*
X-19666000Y-17125000D01*
X-19676000Y-17223000D01*
X-19704000Y-17316000D01*
X-19751000Y-17403000D01*
X-19813000Y-17479000D01*
X-19889000Y-17541000D01*
X-19975000Y-17587000D01*
X-20069000Y-17615000D01*
X-20166000Y-17625000D01*
X-21266000Y-17625000D01*
X-21364000Y-17615000D01*
X-21458000Y-17587000D01*
X-21544000Y-17541000D01*
X-21620000Y-17479000D01*
X-21682000Y-17403000D01*
X-21728000Y-17316000D01*
X-21757000Y-17223000D01*
X-21766000Y-17125000D01*
X-21757000Y-17027000D01*
X-21728000Y-16934000D01*
X-21682000Y-16847000D01*
X-21620000Y-16771000D01*
X-21544000Y-16709000D01*
X-21458000Y-16663000D01*
X-21364000Y-16635000D01*
X-21266000Y-16625000D01*
X-20166000Y-16625000D01*
X-20069000Y-16635000D01*
G37*
X-24369000Y-16635000D02*
X-24275000Y-16663000D01*
X-24189000Y-16709000D01*
X-24113000Y-16771000D01*
X-24051000Y-16847000D01*
X-24004000Y-16934000D01*
X-23976000Y-17027000D01*
X-23966000Y-17125000D01*
X-23976000Y-17223000D01*
X-24004000Y-17316000D01*
X-24051000Y-17403000D01*
X-24113000Y-17479000D01*
X-24189000Y-17541000D01*
X-24275000Y-17587000D01*
X-24369000Y-17615000D01*
X-24466000Y-17625000D01*
X-25366000Y-17625000D01*
X-25464000Y-17615000D01*
X-25558000Y-17587000D01*
X-25644000Y-17541000D01*
X-25720000Y-17479000D01*
X-25782000Y-17403000D01*
X-25828000Y-17316000D01*
X-25857000Y-17223000D01*
X-25866000Y-17125000D01*
X-25857000Y-17027000D01*
X-25828000Y-16934000D01*
X-25782000Y-16847000D01*
X-25720000Y-16771000D01*
X-25644000Y-16709000D01*
X-25558000Y-16663000D01*
X-25464000Y-16635000D01*
X-25366000Y-16625000D01*
X-24466000Y-16625000D01*
X-24369000Y-16635000D01*
G36*
X-24369000Y-16635000D02*
G01*
X-24275000Y-16663000D01*
X-24189000Y-16709000D01*
X-24113000Y-16771000D01*
X-24051000Y-16847000D01*
X-24004000Y-16934000D01*
X-23976000Y-17027000D01*
X-23966000Y-17125000D01*
X-23976000Y-17223000D01*
X-24004000Y-17316000D01*
X-24051000Y-17403000D01*
X-24113000Y-17479000D01*
X-24189000Y-17541000D01*
X-24275000Y-17587000D01*
X-24369000Y-17615000D01*
X-24466000Y-17625000D01*
X-25366000Y-17625000D01*
X-25464000Y-17615000D01*
X-25558000Y-17587000D01*
X-25644000Y-17541000D01*
X-25720000Y-17479000D01*
X-25782000Y-17403000D01*
X-25828000Y-17316000D01*
X-25857000Y-17223000D01*
X-25866000Y-17125000D01*
X-25857000Y-17027000D01*
X-25828000Y-16934000D01*
X-25782000Y-16847000D01*
X-25720000Y-16771000D01*
X-25644000Y-16709000D01*
X-25558000Y-16663000D01*
X-25464000Y-16635000D01*
X-25366000Y-16625000D01*
X-24466000Y-16625000D01*
X-24369000Y-16635000D01*
G37*
%TD*%
D11*
%TO.C,U1*%
X2387500Y-22930000D03*
X2387500Y-22280000D03*
X2387500Y-21630000D03*
X2387500Y-20980000D03*
X-3337500Y-20980000D03*
X-3337500Y-21630000D03*
X-3337500Y-22280000D03*
X-3337500Y-22930000D03*
%TD*%
D12*
%TO.C,C1*%
X-15615000Y-21785000D03*
X-15615000Y-20825000D03*
%TD*%
D13*
%TO.C,R16*%
X9875000Y-23185000D03*
X9875000Y-22165000D03*
%TD*%
%TO.C,R20*%
X-14155000Y-10335000D03*
X-14155000Y-9315000D03*
%TD*%
D14*
%TO.C,C5*%
X-1135000Y-10045000D03*
X-175000Y-10045000D03*
%TD*%
D13*
%TO.C,R24*%
X-20555000Y-3555000D03*
X-20555000Y-2535000D03*
%TD*%
D15*
%TO.C,R11*%
X6810716Y-2515000D03*
X6810716Y-3535000D03*
%TD*%
D16*
%TO.C,U4*%
X-9617500Y-14295000D03*
X-8442500Y-14295000D03*
X-7267500Y-14295000D03*
X-6092500Y-14295000D03*
X-9617500Y-13295000D03*
X-8442500Y-13295000D03*
X-7267500Y-13295000D03*
X-6092500Y-13295000D03*
X-9617500Y-12295000D03*
X-8442500Y-12295000D03*
X-7267500Y-12295000D03*
X-6092500Y-12295000D03*
X-9617500Y-11295000D03*
X-8442500Y-11295000D03*
X-7267500Y-11295000D03*
X-6092500Y-11295000D03*
D17*
X-11105000Y-16732500D03*
X-10605000Y-16732500D03*
X-10105000Y-16732500D03*
X-9605000Y-16732500D03*
X-9105000Y-16732500D03*
X-8605000Y-16732500D03*
X-8105000Y-16732500D03*
X-7605000Y-16732500D03*
X-7105000Y-16732500D03*
X-6605000Y-16732500D03*
X-6105000Y-16732500D03*
X-5605000Y-16732500D03*
X-5105000Y-16732500D03*
X-4605000Y-16732500D03*
D18*
X-3917500Y-16045000D03*
X-3917500Y-15545000D03*
X-3917500Y-15045000D03*
X-3917500Y-14545000D03*
X-3917500Y-14045000D03*
X-3917500Y-13545000D03*
X-3917500Y-13045000D03*
X-3917500Y-12545000D03*
X-3917500Y-12045000D03*
X-3917500Y-11545000D03*
X-3917500Y-11045000D03*
X-3917500Y-10545000D03*
X-3917500Y-10045000D03*
X-3917500Y-9545000D03*
D17*
X-4605000Y-8857500D03*
X-5105000Y-8857500D03*
X-5605000Y-8857500D03*
X-6105000Y-8857500D03*
X-6605000Y-8857500D03*
X-7105000Y-8857500D03*
X-7605000Y-8857500D03*
X-8105000Y-8857500D03*
X-8605000Y-8857500D03*
X-9105000Y-8857500D03*
X-9605000Y-8857500D03*
X-10105000Y-8857500D03*
X-10605000Y-8857500D03*
X-11105000Y-8857500D03*
D18*
X-11792500Y-9545000D03*
X-11792500Y-10045000D03*
X-11792500Y-10545000D03*
X-11792500Y-11045000D03*
X-11792500Y-11545000D03*
X-11792500Y-12045000D03*
X-11792500Y-12545000D03*
X-11792500Y-13045000D03*
X-11792500Y-13545000D03*
X-11792500Y-14045000D03*
X-11792500Y-14545000D03*
X-11792500Y-15045000D03*
X-11792500Y-15545000D03*
X-11792500Y-16045000D03*
%TD*%
D15*
%TO.C,R19*%
X-5275000Y-2795000D03*
X-5275000Y-3815000D03*
%TD*%
D19*
%TO.C,USB1*%
X-19954000Y-9600000D03*
X-19954000Y-10400000D03*
D20*
X-19954000Y-11550000D03*
X-19954000Y-12550000D03*
X-19954000Y-13050000D03*
X-19954000Y-14050000D03*
D19*
X-19954000Y-16000000D03*
X-19954000Y-15200000D03*
D20*
X-19954000Y-14550000D03*
X-19954000Y-13550000D03*
X-19954000Y-12050000D03*
X-19954000Y-11050000D03*
%TD*%
D12*
%TO.C,C2*%
X-10285000Y-21785000D03*
X-10285000Y-20825000D03*
%TD*%
D21*
%TO.C,D1*%
X-20265000Y-22672500D03*
X-20265000Y-21097500D03*
%TD*%
D22*
%TO.C,R3*%
X13425000Y-15049286D03*
X14445000Y-15049286D03*
%TD*%
D21*
%TO.C,D3*%
X-6900000Y-4412500D03*
X-6900000Y-2837500D03*
%TD*%
%TO.C,D2*%
X-35000Y-4412500D03*
X-35000Y-2837500D03*
%TD*%
D14*
%TO.C,C4*%
X-1135000Y-8115000D03*
X-175000Y-8115000D03*
%TD*%
D22*
%TO.C,R8*%
X13425000Y-7635000D03*
X14445000Y-7635000D03*
%TD*%
D15*
%TO.C,R18*%
X-1575000Y-2795000D03*
X-1575000Y-3815000D03*
%TD*%
D22*
%TO.C,R5*%
X13425000Y-12083572D03*
X14445000Y-12083572D03*
%TD*%
%TO.C,R4*%
X13425000Y-13566429D03*
X14445000Y-13566429D03*
%TD*%
D13*
%TO.C,R13*%
X5278568Y-23185000D03*
X5278568Y-22165000D03*
%TD*%
D23*
%TO.C,Y1*%
X-17215000Y-3125000D03*
X-17215000Y-5325000D03*
X-15515000Y-5325000D03*
X-15515000Y-3125000D03*
%TD*%
D12*
%TO.C,C10*%
X-12185000Y-3515000D03*
X-12185000Y-2555000D03*
%TD*%
D15*
%TO.C,R17*%
X-18695000Y-21955000D03*
X-18695000Y-22975000D03*
%TD*%
D22*
%TO.C,R2*%
X13425000Y-16532143D03*
X14445000Y-16532143D03*
%TD*%
D24*
%TO.C,C3*%
X-6105000Y-20835000D03*
X-6105000Y-21795000D03*
%TD*%
D12*
%TO.C,C9*%
X-18945000Y-3515000D03*
X-18945000Y-2555000D03*
%TD*%
D15*
%TO.C,R9*%
X9875000Y-2515000D03*
X9875000Y-3535000D03*
%TD*%
D22*
%TO.C,R1*%
X13425000Y-18015000D03*
X14445000Y-18015000D03*
%TD*%
D25*
%TO.C,R22*%
X-2805000Y-19195000D03*
X-3825000Y-19195000D03*
%TD*%
D22*
%TO.C,R7*%
X13425000Y-9117858D03*
X14445000Y-9117858D03*
%TD*%
D12*
%TO.C,C7*%
X-14155000Y-14395000D03*
X-14155000Y-13435000D03*
%TD*%
D25*
%TO.C,R21*%
X-785000Y-19195000D03*
X-1805000Y-19195000D03*
%TD*%
D14*
%TO.C,C6*%
X-1145000Y-15055000D03*
X-185000Y-15055000D03*
%TD*%
D26*
%TO.C,U2*%
X2824000Y-9870000D03*
X2824000Y-10520000D03*
X2824000Y-11170000D03*
X2824000Y-11820000D03*
X2824000Y-12470000D03*
X2824000Y-13120000D03*
X2824000Y-13770000D03*
X2824000Y-14420000D03*
X2824000Y-15070000D03*
X2824000Y-15720000D03*
X8566000Y-15720000D03*
X8566000Y-15070000D03*
X8566000Y-14420000D03*
X8566000Y-13770000D03*
X8566000Y-13120000D03*
X8566000Y-12470000D03*
X8566000Y-11820000D03*
X8566000Y-11170000D03*
X8566000Y-10520000D03*
X8566000Y-9870000D03*
%TD*%
D13*
%TO.C,R15*%
X8342852Y-23185000D03*
X8342852Y-22165000D03*
%TD*%
D15*
%TO.C,R12*%
X5278574Y-2515000D03*
X5278574Y-3535000D03*
%TD*%
%TO.C,R10*%
X8342858Y-2515000D03*
X8342858Y-3535000D03*
%TD*%
D13*
%TO.C,R14*%
X6810710Y-23185000D03*
X6810710Y-22165000D03*
%TD*%
D15*
%TO.C,R25*%
X-17475000Y-21955000D03*
X-17475000Y-22975000D03*
%TD*%
%TO.C,R23*%
X-10895000Y-2545000D03*
X-10895000Y-3565000D03*
%TD*%
D24*
%TO.C,C8*%
X-13805000Y-2565000D03*
X-13805000Y-3525000D03*
%TD*%
D27*
%TO.C,U3*%
X-14250000Y-20813000D03*
X-14250000Y-21763000D03*
X-14250000Y-22713000D03*
X-11650000Y-22713000D03*
X-11650000Y-20813000D03*
%TD*%
D22*
%TO.C,R6*%
X13425000Y-10600715D03*
X14445000Y-10600715D03*
%TD*%
M02*
