%TF.GenerationSoftware,KiCad,Pcbnew,7.0.5*%
%TF.CreationDate,2023-06-29T17:46:53+08:00*%
%TF.ProjectId,UINIO-Logic-24MHz,55494e49-4f2d-44c6-9f67-69632d32344d,Version 3.1.0*%
%TF.SameCoordinates,PX9259d20PY589b1b0*%
%TF.FileFunction,Paste,Top*%
%TF.FilePolarity,Positive*%
%FSLAX46Y46*%
G04 Gerber Fmt 4.6, Leading zero omitted, Abs format (unit mm)*
G04 Created by KiCad (PCBNEW 7.0.5) date 2023-06-29 17:46:53*
%MOMM*%
%LPD*%
G01*
G04 APERTURE LIST*
G04 Aperture macros list*
%AMRoundRect*
0 Rectangle with rounded corners*
0 $1 Rounding radius*
0 $2 $3 $4 $5 $6 $7 $8 $9 X,Y pos of 4 corners*
0 Add a 4 corners polygon primitive as box body*
4,1,4,$2,$3,$4,$5,$6,$7,$8,$9,$2,$3,0*
0 Add four circle primitives for the rounded corners*
1,1,$1+$1,$2,$3*
1,1,$1+$1,$4,$5*
1,1,$1+$1,$6,$7*
1,1,$1+$1,$8,$9*
0 Add four rect primitives between the rounded corners*
20,1,$1+$1,$2,$3,$4,$5,0*
20,1,$1+$1,$4,$5,$6,$7,0*
20,1,$1+$1,$6,$7,$8,$9,0*
20,1,$1+$1,$8,$9,$2,$3,0*%
%AMFreePoly0*
4,1,9,0.435000,0.357500,0.435000,-0.357500,0.290000,-0.502500,-0.290000,-0.502500,-0.435000,-0.357500,-0.435000,0.357500,-0.290000,0.502500,0.290000,0.502500,0.435000,0.357500,0.435000,0.357500,$1*%
G04 Aperture macros list end*
%ADD10C,0.120000*%
%ADD11RoundRect,0.100000X-0.637500X-0.100000X0.637500X-0.100000X0.637500X0.100000X-0.637500X0.100000X0*%
%ADD12RoundRect,0.140000X-0.170000X0.140000X-0.170000X-0.140000X0.170000X-0.140000X0.170000X0.140000X0*%
%ADD13RoundRect,0.135000X-0.185000X0.135000X-0.185000X-0.135000X0.185000X-0.135000X0.185000X0.135000X0*%
%ADD14RoundRect,0.140000X0.140000X0.170000X-0.140000X0.170000X-0.140000X-0.170000X0.140000X-0.170000X0*%
%ADD15RoundRect,0.135000X0.185000X-0.135000X0.185000X0.135000X-0.185000X0.135000X-0.185000X-0.135000X0*%
%ADD16FreePoly0,270.000000*%
%ADD17RoundRect,0.062500X-0.062500X0.375000X-0.062500X-0.375000X0.062500X-0.375000X0.062500X0.375000X0*%
%ADD18RoundRect,0.062500X-0.375000X0.062500X-0.375000X-0.062500X0.375000X-0.062500X0.375000X0.062500X0*%
%ADD19R,1.150000X0.600000*%
%ADD20R,1.150000X0.300000*%
%ADD21RoundRect,0.218750X-0.256250X0.218750X-0.256250X-0.218750X0.256250X-0.218750X0.256250X0.218750X0*%
%ADD22RoundRect,0.135000X0.135000X0.185000X-0.135000X0.185000X-0.135000X-0.185000X0.135000X-0.185000X0*%
%ADD23R,1.200000X1.400000*%
%ADD24RoundRect,0.140000X0.170000X-0.140000X0.170000X0.140000X-0.170000X0.140000X-0.170000X-0.140000X0*%
%ADD25RoundRect,0.135000X-0.135000X-0.185000X0.135000X-0.185000X0.135000X0.185000X-0.135000X0.185000X0*%
%ADD26O,1.742000X0.364000*%
%ADD27R,1.000000X0.600000*%
G04 APERTURE END LIST*
%TO.C,USB1*%
D10*
X16479000Y-16270000D02*
X15329000Y-16270000D01*
X15329000Y-15670000D01*
X16479000Y-15670000D01*
X16479000Y-16270000D01*
G36*
X16479000Y-16270000D02*
G01*
X15329000Y-16270000D01*
X15329000Y-15670000D01*
X16479000Y-15670000D01*
X16479000Y-16270000D01*
G37*
X16479000Y-15470000D02*
X15329000Y-15470000D01*
X15329000Y-14870000D01*
X16479000Y-14870000D01*
X16479000Y-15470000D01*
G36*
X16479000Y-15470000D02*
G01*
X15329000Y-15470000D01*
X15329000Y-14870000D01*
X16479000Y-14870000D01*
X16479000Y-15470000D01*
G37*
X16479000Y-14670000D02*
X15329000Y-14670000D01*
X15329000Y-14370000D01*
X16479000Y-14370000D01*
X16479000Y-14670000D01*
G36*
X16479000Y-14670000D02*
G01*
X15329000Y-14670000D01*
X15329000Y-14370000D01*
X16479000Y-14370000D01*
X16479000Y-14670000D01*
G37*
X16479000Y-14170000D02*
X15329000Y-14170000D01*
X15329000Y-13870000D01*
X16479000Y-13870000D01*
X16479000Y-14170000D01*
G36*
X16479000Y-14170000D02*
G01*
X15329000Y-14170000D01*
X15329000Y-13870000D01*
X16479000Y-13870000D01*
X16479000Y-14170000D01*
G37*
X16479000Y-13670000D02*
X15329000Y-13670000D01*
X15329000Y-13370000D01*
X16479000Y-13370000D01*
X16479000Y-13670000D01*
G36*
X16479000Y-13670000D02*
G01*
X15329000Y-13670000D01*
X15329000Y-13370000D01*
X16479000Y-13370000D01*
X16479000Y-13670000D01*
G37*
X16479000Y-13170000D02*
X15329000Y-13170000D01*
X15329000Y-12870000D01*
X16479000Y-12870000D01*
X16479000Y-13170000D01*
G36*
X16479000Y-13170000D02*
G01*
X15329000Y-13170000D01*
X15329000Y-12870000D01*
X16479000Y-12870000D01*
X16479000Y-13170000D01*
G37*
X16479000Y-12670000D02*
X15329000Y-12670000D01*
X15329000Y-12370000D01*
X16479000Y-12370000D01*
X16479000Y-12670000D01*
G36*
X16479000Y-12670000D02*
G01*
X15329000Y-12670000D01*
X15329000Y-12370000D01*
X16479000Y-12370000D01*
X16479000Y-12670000D01*
G37*
X16479000Y-12170000D02*
X15329000Y-12170000D01*
X15329000Y-11870000D01*
X16479000Y-11870000D01*
X16479000Y-12170000D01*
G36*
X16479000Y-12170000D02*
G01*
X15329000Y-12170000D01*
X15329000Y-11870000D01*
X16479000Y-11870000D01*
X16479000Y-12170000D01*
G37*
X16479000Y-11670000D02*
X15329000Y-11670000D01*
X15329000Y-11370000D01*
X16479000Y-11370000D01*
X16479000Y-11670000D01*
G36*
X16479000Y-11670000D02*
G01*
X15329000Y-11670000D01*
X15329000Y-11370000D01*
X16479000Y-11370000D01*
X16479000Y-11670000D01*
G37*
X16479000Y-11170000D02*
X15329000Y-11170000D01*
X15329000Y-10870000D01*
X16479000Y-10870000D01*
X16479000Y-11170000D01*
G36*
X16479000Y-11170000D02*
G01*
X15329000Y-11170000D01*
X15329000Y-10870000D01*
X16479000Y-10870000D01*
X16479000Y-11170000D01*
G37*
X16479000Y-10670000D02*
X15329000Y-10670000D01*
X15329000Y-10070000D01*
X16479000Y-10070000D01*
X16479000Y-10670000D01*
G36*
X16479000Y-10670000D02*
G01*
X15329000Y-10670000D01*
X15329000Y-10070000D01*
X16479000Y-10070000D01*
X16479000Y-10670000D01*
G37*
X16479000Y-9870000D02*
X15329000Y-9870000D01*
X15329000Y-9270000D01*
X16479000Y-9270000D01*
X16479000Y-9870000D01*
G36*
X16479000Y-9870000D02*
G01*
X15329000Y-9870000D01*
X15329000Y-9270000D01*
X16479000Y-9270000D01*
X16479000Y-9870000D01*
G37*
X17314000Y-16605000D02*
X17408000Y-16633000D01*
X17494000Y-16679000D01*
X17570000Y-16741000D01*
X17632000Y-16817000D01*
X17678000Y-16904000D01*
X17707000Y-16997000D01*
X17716000Y-17095000D01*
X17707000Y-17193000D01*
X17678000Y-17286000D01*
X17632000Y-17373000D01*
X17570000Y-17449000D01*
X17494000Y-17511000D01*
X17408000Y-17557000D01*
X17314000Y-17585000D01*
X17216000Y-17595000D01*
X16116000Y-17595000D01*
X16019000Y-17585000D01*
X15925000Y-17557000D01*
X15839000Y-17511000D01*
X15763000Y-17449000D01*
X15701000Y-17373000D01*
X15654000Y-17286000D01*
X15626000Y-17193000D01*
X15616000Y-17095000D01*
X15626000Y-16997000D01*
X15654000Y-16904000D01*
X15701000Y-16817000D01*
X15763000Y-16741000D01*
X15839000Y-16679000D01*
X15925000Y-16633000D01*
X16019000Y-16605000D01*
X16116000Y-16595000D01*
X17216000Y-16595000D01*
X17314000Y-16605000D01*
G36*
X17314000Y-16605000D02*
G01*
X17408000Y-16633000D01*
X17494000Y-16679000D01*
X17570000Y-16741000D01*
X17632000Y-16817000D01*
X17678000Y-16904000D01*
X17707000Y-16997000D01*
X17716000Y-17095000D01*
X17707000Y-17193000D01*
X17678000Y-17286000D01*
X17632000Y-17373000D01*
X17570000Y-17449000D01*
X17494000Y-17511000D01*
X17408000Y-17557000D01*
X17314000Y-17585000D01*
X17216000Y-17595000D01*
X16116000Y-17595000D01*
X16019000Y-17585000D01*
X15925000Y-17557000D01*
X15839000Y-17511000D01*
X15763000Y-17449000D01*
X15701000Y-17373000D01*
X15654000Y-17286000D01*
X15626000Y-17193000D01*
X15616000Y-17095000D01*
X15626000Y-16997000D01*
X15654000Y-16904000D01*
X15701000Y-16817000D01*
X15763000Y-16741000D01*
X15839000Y-16679000D01*
X15925000Y-16633000D01*
X16019000Y-16605000D01*
X16116000Y-16595000D01*
X17216000Y-16595000D01*
X17314000Y-16605000D01*
G37*
X21414000Y-16605000D02*
X21508000Y-16633000D01*
X21594000Y-16679000D01*
X21670000Y-16741000D01*
X21732000Y-16817000D01*
X21778000Y-16904000D01*
X21807000Y-16997000D01*
X21816000Y-17095000D01*
X21807000Y-17193000D01*
X21778000Y-17286000D01*
X21732000Y-17373000D01*
X21670000Y-17449000D01*
X21594000Y-17511000D01*
X21508000Y-17557000D01*
X21414000Y-17585000D01*
X21316000Y-17595000D01*
X20416000Y-17595000D01*
X20319000Y-17585000D01*
X20225000Y-17557000D01*
X20139000Y-17511000D01*
X20063000Y-17449000D01*
X20001000Y-17373000D01*
X19954000Y-17286000D01*
X19926000Y-17193000D01*
X19916000Y-17095000D01*
X19926000Y-16997000D01*
X19954000Y-16904000D01*
X20001000Y-16817000D01*
X20063000Y-16741000D01*
X20139000Y-16679000D01*
X20225000Y-16633000D01*
X20319000Y-16605000D01*
X20416000Y-16595000D01*
X21316000Y-16595000D01*
X21414000Y-16605000D01*
G36*
X21414000Y-16605000D02*
G01*
X21508000Y-16633000D01*
X21594000Y-16679000D01*
X21670000Y-16741000D01*
X21732000Y-16817000D01*
X21778000Y-16904000D01*
X21807000Y-16997000D01*
X21816000Y-17095000D01*
X21807000Y-17193000D01*
X21778000Y-17286000D01*
X21732000Y-17373000D01*
X21670000Y-17449000D01*
X21594000Y-17511000D01*
X21508000Y-17557000D01*
X21414000Y-17585000D01*
X21316000Y-17595000D01*
X20416000Y-17595000D01*
X20319000Y-17585000D01*
X20225000Y-17557000D01*
X20139000Y-17511000D01*
X20063000Y-17449000D01*
X20001000Y-17373000D01*
X19954000Y-17286000D01*
X19926000Y-17193000D01*
X19916000Y-17095000D01*
X19926000Y-16997000D01*
X19954000Y-16904000D01*
X20001000Y-16817000D01*
X20063000Y-16741000D01*
X20139000Y-16679000D01*
X20225000Y-16633000D01*
X20319000Y-16605000D01*
X20416000Y-16595000D01*
X21316000Y-16595000D01*
X21414000Y-16605000D01*
G37*
X17314000Y-7955000D02*
X17408000Y-7983000D01*
X17494000Y-8029000D01*
X17570000Y-8091000D01*
X17632000Y-8167000D01*
X17678000Y-8254000D01*
X17707000Y-8347000D01*
X17716000Y-8445000D01*
X17707000Y-8543000D01*
X17678000Y-8636000D01*
X17632000Y-8723000D01*
X17570000Y-8799000D01*
X17494000Y-8861000D01*
X17408000Y-8907000D01*
X17314000Y-8935000D01*
X17216000Y-8945000D01*
X16116000Y-8945000D01*
X16019000Y-8935000D01*
X15925000Y-8907000D01*
X15839000Y-8861000D01*
X15763000Y-8799000D01*
X15701000Y-8723000D01*
X15654000Y-8636000D01*
X15626000Y-8543000D01*
X15616000Y-8445000D01*
X15626000Y-8347000D01*
X15654000Y-8254000D01*
X15701000Y-8167000D01*
X15763000Y-8091000D01*
X15839000Y-8029000D01*
X15925000Y-7983000D01*
X16019000Y-7955000D01*
X16116000Y-7945000D01*
X17216000Y-7945000D01*
X17314000Y-7955000D01*
G36*
X17314000Y-7955000D02*
G01*
X17408000Y-7983000D01*
X17494000Y-8029000D01*
X17570000Y-8091000D01*
X17632000Y-8167000D01*
X17678000Y-8254000D01*
X17707000Y-8347000D01*
X17716000Y-8445000D01*
X17707000Y-8543000D01*
X17678000Y-8636000D01*
X17632000Y-8723000D01*
X17570000Y-8799000D01*
X17494000Y-8861000D01*
X17408000Y-8907000D01*
X17314000Y-8935000D01*
X17216000Y-8945000D01*
X16116000Y-8945000D01*
X16019000Y-8935000D01*
X15925000Y-8907000D01*
X15839000Y-8861000D01*
X15763000Y-8799000D01*
X15701000Y-8723000D01*
X15654000Y-8636000D01*
X15626000Y-8543000D01*
X15616000Y-8445000D01*
X15626000Y-8347000D01*
X15654000Y-8254000D01*
X15701000Y-8167000D01*
X15763000Y-8091000D01*
X15839000Y-8029000D01*
X15925000Y-7983000D01*
X16019000Y-7955000D01*
X16116000Y-7945000D01*
X17216000Y-7945000D01*
X17314000Y-7955000D01*
G37*
X21414000Y-7955000D02*
X21508000Y-7983000D01*
X21594000Y-8029000D01*
X21670000Y-8091000D01*
X21732000Y-8167000D01*
X21778000Y-8254000D01*
X21807000Y-8347000D01*
X21816000Y-8445000D01*
X21807000Y-8543000D01*
X21778000Y-8636000D01*
X21732000Y-8723000D01*
X21670000Y-8799000D01*
X21594000Y-8861000D01*
X21508000Y-8907000D01*
X21414000Y-8935000D01*
X21316000Y-8945000D01*
X20416000Y-8945000D01*
X20319000Y-8935000D01*
X20225000Y-8907000D01*
X20139000Y-8861000D01*
X20063000Y-8799000D01*
X20001000Y-8723000D01*
X19954000Y-8636000D01*
X19926000Y-8543000D01*
X19916000Y-8445000D01*
X19926000Y-8347000D01*
X19954000Y-8254000D01*
X20001000Y-8167000D01*
X20063000Y-8091000D01*
X20139000Y-8029000D01*
X20225000Y-7983000D01*
X20319000Y-7955000D01*
X20416000Y-7945000D01*
X21316000Y-7945000D01*
X21414000Y-7955000D01*
G36*
X21414000Y-7955000D02*
G01*
X21508000Y-7983000D01*
X21594000Y-8029000D01*
X21670000Y-8091000D01*
X21732000Y-8167000D01*
X21778000Y-8254000D01*
X21807000Y-8347000D01*
X21816000Y-8445000D01*
X21807000Y-8543000D01*
X21778000Y-8636000D01*
X21732000Y-8723000D01*
X21670000Y-8799000D01*
X21594000Y-8861000D01*
X21508000Y-8907000D01*
X21414000Y-8935000D01*
X21316000Y-8945000D01*
X20416000Y-8945000D01*
X20319000Y-8935000D01*
X20225000Y-8907000D01*
X20139000Y-8861000D01*
X20063000Y-8799000D01*
X20001000Y-8723000D01*
X19954000Y-8636000D01*
X19926000Y-8543000D01*
X19916000Y-8445000D01*
X19926000Y-8347000D01*
X19954000Y-8254000D01*
X20001000Y-8167000D01*
X20063000Y-8091000D01*
X20139000Y-8029000D01*
X20225000Y-7983000D01*
X20319000Y-7955000D01*
X20416000Y-7945000D01*
X21316000Y-7945000D01*
X21414000Y-7955000D01*
G37*
%TD*%
D11*
%TO.C,U1*%
X-6437500Y-2640000D03*
X-6437500Y-3290000D03*
X-6437500Y-3940000D03*
X-6437500Y-4590000D03*
X-712500Y-4590000D03*
X-712500Y-3940000D03*
X-712500Y-3290000D03*
X-712500Y-2640000D03*
%TD*%
D12*
%TO.C,C1*%
X11565000Y-3785000D03*
X11565000Y-4745000D03*
%TD*%
D13*
%TO.C,R16*%
X-13925000Y-2385000D03*
X-13925000Y-3405000D03*
%TD*%
%TO.C,R20*%
X10105000Y-15235000D03*
X10105000Y-16255000D03*
%TD*%
D14*
%TO.C,C5*%
X-2915000Y-15525000D03*
X-3875000Y-15525000D03*
%TD*%
D13*
%TO.C,R24*%
X16505000Y-22015000D03*
X16505000Y-23035000D03*
%TD*%
D15*
%TO.C,R11*%
X-10860716Y-23055000D03*
X-10860716Y-22035000D03*
%TD*%
D16*
%TO.C,U4*%
X5567500Y-11275000D03*
X4392500Y-11275000D03*
X3217500Y-11275000D03*
X2042500Y-11275000D03*
X5567500Y-12275000D03*
X4392500Y-12275000D03*
X3217500Y-12275000D03*
X2042500Y-12275000D03*
X5567500Y-13275000D03*
X4392500Y-13275000D03*
X3217500Y-13275000D03*
X2042500Y-13275000D03*
X5567500Y-14275000D03*
X4392500Y-14275000D03*
X3217500Y-14275000D03*
X2042500Y-14275000D03*
D17*
X7055000Y-8837500D03*
X6555000Y-8837500D03*
X6055000Y-8837500D03*
X5555000Y-8837500D03*
X5055000Y-8837500D03*
X4555000Y-8837500D03*
X4055000Y-8837500D03*
X3555000Y-8837500D03*
X3055000Y-8837500D03*
X2555000Y-8837500D03*
X2055000Y-8837500D03*
X1555000Y-8837500D03*
X1055000Y-8837500D03*
X555000Y-8837500D03*
D18*
X-132500Y-9525000D03*
X-132500Y-10025000D03*
X-132500Y-10525000D03*
X-132500Y-11025000D03*
X-132500Y-11525000D03*
X-132500Y-12025000D03*
X-132500Y-12525000D03*
X-132500Y-13025000D03*
X-132500Y-13525000D03*
X-132500Y-14025000D03*
X-132500Y-14525000D03*
X-132500Y-15025000D03*
X-132500Y-15525000D03*
X-132500Y-16025000D03*
D17*
X555000Y-16712500D03*
X1055000Y-16712500D03*
X1555000Y-16712500D03*
X2055000Y-16712500D03*
X2555000Y-16712500D03*
X3055000Y-16712500D03*
X3555000Y-16712500D03*
X4055000Y-16712500D03*
X4555000Y-16712500D03*
X5055000Y-16712500D03*
X5555000Y-16712500D03*
X6055000Y-16712500D03*
X6555000Y-16712500D03*
X7055000Y-16712500D03*
D18*
X7742500Y-16025000D03*
X7742500Y-15525000D03*
X7742500Y-15025000D03*
X7742500Y-14525000D03*
X7742500Y-14025000D03*
X7742500Y-13525000D03*
X7742500Y-13025000D03*
X7742500Y-12525000D03*
X7742500Y-12025000D03*
X7742500Y-11525000D03*
X7742500Y-11025000D03*
X7742500Y-10525000D03*
X7742500Y-10025000D03*
X7742500Y-9525000D03*
%TD*%
D15*
%TO.C,R19*%
X1225000Y-22775000D03*
X1225000Y-21755000D03*
%TD*%
D19*
%TO.C,USB1*%
X15904000Y-15970000D03*
X15904000Y-15170000D03*
D20*
X15904000Y-14020000D03*
X15904000Y-13020000D03*
X15904000Y-12520000D03*
X15904000Y-11520000D03*
D19*
X15904000Y-9570000D03*
X15904000Y-10370000D03*
D20*
X15904000Y-11020000D03*
X15904000Y-12020000D03*
X15904000Y-13520000D03*
X15904000Y-14520000D03*
%TD*%
D12*
%TO.C,C2*%
X6235000Y-3785000D03*
X6235000Y-4745000D03*
%TD*%
D21*
%TO.C,D1*%
X16215000Y-2897500D03*
X16215000Y-4472500D03*
%TD*%
D22*
%TO.C,R3*%
X-17475000Y-10520714D03*
X-18495000Y-10520714D03*
%TD*%
D21*
%TO.C,D3*%
X2850000Y-21157500D03*
X2850000Y-22732500D03*
%TD*%
%TO.C,D2*%
X-4015000Y-21157500D03*
X-4015000Y-22732500D03*
%TD*%
D14*
%TO.C,C4*%
X-2915000Y-17455000D03*
X-3875000Y-17455000D03*
%TD*%
D22*
%TO.C,R8*%
X-17475000Y-17935000D03*
X-18495000Y-17935000D03*
%TD*%
D15*
%TO.C,R18*%
X-2475000Y-22775000D03*
X-2475000Y-21755000D03*
%TD*%
D22*
%TO.C,R5*%
X-17475000Y-13486428D03*
X-18495000Y-13486428D03*
%TD*%
%TO.C,R4*%
X-17475000Y-12003571D03*
X-18495000Y-12003571D03*
%TD*%
D13*
%TO.C,R13*%
X-9328568Y-2385000D03*
X-9328568Y-3405000D03*
%TD*%
D23*
%TO.C,Y1*%
X13165000Y-22445000D03*
X13165000Y-20245000D03*
X11465000Y-20245000D03*
X11465000Y-22445000D03*
%TD*%
D12*
%TO.C,C10*%
X8135000Y-22055000D03*
X8135000Y-23015000D03*
%TD*%
D15*
%TO.C,R17*%
X14645000Y-3615000D03*
X14645000Y-2595000D03*
%TD*%
D22*
%TO.C,R2*%
X-17475000Y-9037857D03*
X-18495000Y-9037857D03*
%TD*%
D24*
%TO.C,C3*%
X2055000Y-4735000D03*
X2055000Y-3775000D03*
%TD*%
D12*
%TO.C,C9*%
X14895000Y-22055000D03*
X14895000Y-23015000D03*
%TD*%
D15*
%TO.C,R9*%
X-13925000Y-23055000D03*
X-13925000Y-22035000D03*
%TD*%
D22*
%TO.C,R1*%
X-17475000Y-7555000D03*
X-18495000Y-7555000D03*
%TD*%
D25*
%TO.C,R22*%
X-1245000Y-6375000D03*
X-225000Y-6375000D03*
%TD*%
D22*
%TO.C,R7*%
X-17475000Y-16452142D03*
X-18495000Y-16452142D03*
%TD*%
D12*
%TO.C,C7*%
X10105000Y-11175000D03*
X10105000Y-12135000D03*
%TD*%
D25*
%TO.C,R21*%
X-3265000Y-6375000D03*
X-2245000Y-6375000D03*
%TD*%
D14*
%TO.C,C6*%
X-2905000Y-10515000D03*
X-3865000Y-10515000D03*
%TD*%
D26*
%TO.C,U2*%
X-6874000Y-15700000D03*
X-6874000Y-15050000D03*
X-6874000Y-14400000D03*
X-6874000Y-13750000D03*
X-6874000Y-13100000D03*
X-6874000Y-12450000D03*
X-6874000Y-11800000D03*
X-6874000Y-11150000D03*
X-6874000Y-10500000D03*
X-6874000Y-9850000D03*
X-12616000Y-9850000D03*
X-12616000Y-10500000D03*
X-12616000Y-11150000D03*
X-12616000Y-11800000D03*
X-12616000Y-12450000D03*
X-12616000Y-13100000D03*
X-12616000Y-13750000D03*
X-12616000Y-14400000D03*
X-12616000Y-15050000D03*
X-12616000Y-15700000D03*
%TD*%
D13*
%TO.C,R15*%
X-12392852Y-2385000D03*
X-12392852Y-3405000D03*
%TD*%
D15*
%TO.C,R12*%
X-9328574Y-23055000D03*
X-9328574Y-22035000D03*
%TD*%
%TO.C,R10*%
X-12392858Y-23055000D03*
X-12392858Y-22035000D03*
%TD*%
D13*
%TO.C,R14*%
X-10860710Y-2385000D03*
X-10860710Y-3405000D03*
%TD*%
D15*
%TO.C,R25*%
X13425000Y-3615000D03*
X13425000Y-2595000D03*
%TD*%
%TO.C,R23*%
X6845000Y-23025000D03*
X6845000Y-22005000D03*
%TD*%
D24*
%TO.C,C8*%
X9755000Y-23005000D03*
X9755000Y-22045000D03*
%TD*%
D27*
%TO.C,U3*%
X10200000Y-4757000D03*
X10200000Y-3807000D03*
X10200000Y-2857000D03*
X7600000Y-2857000D03*
X7600000Y-4757000D03*
%TD*%
D22*
%TO.C,R6*%
X-17475000Y-14969285D03*
X-18495000Y-14969285D03*
%TD*%
M02*
