M48
; DRILL file {KiCad 7.0.9} date Thu Jan 11 17:12:36 2024
; FORMAT={-:-/ absolute / metric / decimal}
; #@! TF.CreationDate,2024-01-11T17:12:36+08:00
; #@! TF.GenerationSoftware,Kicad,Pcbnew,7.0.9
; #@! TF.FileFunction,MixedPlating,1,2
FMAT,2
METRIC
; #@! TA.AperFunction,Plated,PTH,ComponentDrill
T1C0.200
; #@! TA.AperFunction,Plated,PTH,ViaDrill
T2C0.300
; #@! TA.AperFunction,Plated,PTH,ViaDrill
T3C0.400
; #@! TA.AperFunction,Plated,PTH,ViaDrill
T4C0.500
; #@! TA.AperFunction,Plated,PTH,ComponentDrill
T5C0.600
; #@! TA.AperFunction,Plated,PTH,ComponentDrill
T6C1.000
; #@! TA.AperFunction,Plated,PTH,ComponentDrill
T7C2.200
; #@! TA.AperFunction,NonPlated,NPTH,ComponentDrill
T8C0.650
%
G90
G05
T1
X14.645Y-10.795
X14.645Y-11.795
X14.645Y-12.795
X14.645Y-13.795
X14.645Y-14.795
X15.82Y-10.795
X15.82Y-11.795
X15.82Y-12.795
X15.82Y-13.795
X15.82Y-14.795
X16.995Y-10.795
X16.995Y-11.795
X16.995Y-12.795
X16.995Y-13.795
X16.995Y-14.795
X18.17Y-10.795
X18.17Y-11.795
X18.17Y-12.795
X18.17Y-13.795
X18.17Y-14.795
X19.345Y-10.795
X19.345Y-11.795
X19.345Y-12.795
X19.345Y-13.795
X19.345Y-14.795
T2
X3.995Y-12.075
X3.995Y-13.045
X4.265Y-5.975
X5.115Y-1.555
X5.115Y-4.625
X6.015Y-11.565
X6.015Y-14.55
X6.125Y-20.445
X6.905Y-12.205
X7.375Y-19.505
X7.705Y-8.245
X9.725Y-8.235
X11.855Y-1.555
X11.855Y-4.625
X11.945Y-16.595
X16.389Y-18.439
X18.245Y-19.965
X20.245Y-18.115
X20.305Y-7.485
X22.045Y-15.055
X22.045Y-17.865
X22.835Y-9.125
X30.115Y-21.465
X30.135Y-4.235
X31.655Y-4.235
X31.655Y-21.465
X33.185Y-21.475
X33.195Y-4.235
X34.715Y-21.475
X34.725Y-4.235
X36.92Y-13.77
X37.58Y-15.83
X37.585Y-9.845
X37.605Y-8.375
X37.615Y-11.295
X37.62Y-12.77
X37.635Y-17.345
X37.675Y-14.42
X40.025Y-12.885
X40.725Y-8.295
X40.725Y-9.835
X40.725Y-11.385
X40.725Y-14.325
X40.725Y-15.715
X40.725Y-17.265
X43.825Y-12.885
T3
X6.855Y-17.575
X6.91Y-10.99
X8.325Y-22.695
X9.235Y-19.505
X9.935Y-11.805
X27.495Y-2.515
T4
X15.405Y-22.755
X16.395Y-20.825
T6
X45.44Y-1.37
X45.44Y-3.91
X45.44Y-6.45
X45.44Y-8.99
X45.44Y-11.53
X45.44Y-14.07
X45.44Y-16.61
X45.44Y-19.15
X45.44Y-21.69
X45.44Y-24.23
T7
X0.855Y-2.865
X0.855Y-22.865
X38.535Y-2.865
X38.535Y-22.865
T8
X3.634Y-9.91
X3.634Y-15.69
T5
G00X0.384Y-8.475
M15
G01X-0.516Y-8.475
M16
G05
G00X0.384Y-17.125
M15
G01X-0.516Y-17.125
M16
G05
G00X4.734Y-8.475
M15
G01X3.534Y-8.475
M16
G05
G00X4.734Y-17.125
M15
G01X3.534Y-17.125
M16
G05
T0
M30
