%TF.GenerationSoftware,KiCad,Pcbnew,8.0.6*%
%TF.CreationDate,2024-10-29T13:46:17+08:00*%
%TF.ProjectId,UINIO-Logic-24MHz,55494e49-4f2d-44c6-9f67-69632d32344d,Version 5.0.0*%
%TF.SameCoordinates,PX78f6cc0PY58928f8*%
%TF.FileFunction,Legend,Bot*%
%TF.FilePolarity,Positive*%
%FSLAX46Y46*%
G04 Gerber Fmt 4.6, Leading zero omitted, Abs format (unit mm)*
G04 Created by KiCad (PCBNEW 8.0.6) date 2024-10-29 13:46:17*
%MOMM*%
%LPD*%
G01*
G04 APERTURE LIST*
%ADD10C,0.200000*%
%ADD11C,0.325000*%
%ADD12C,0.300000*%
%ADD13C,0.100000*%
%ADD14C,2.200000*%
%ADD15C,0.650000*%
%ADD16O,2.100000X1.000000*%
%ADD17O,1.900000X1.000000*%
%ADD18R,1.700000X1.700000*%
%ADD19O,1.700000X1.700000*%
G04 APERTURE END LIST*
D10*
G36*
X43978160Y-18564898D02*
G01*
X43918942Y-18559704D01*
X43861728Y-18555021D01*
X43806519Y-18550848D01*
X43753316Y-18547187D01*
X43702117Y-18544036D01*
X43652923Y-18541397D01*
X43590451Y-18538672D01*
X43531542Y-18536855D01*
X43476198Y-18535947D01*
X43449863Y-18535833D01*
X43399525Y-18538186D01*
X43347374Y-18546878D01*
X43296446Y-18564655D01*
X43254768Y-18590796D01*
X43241524Y-18602756D01*
X43209174Y-18646391D01*
X43189306Y-18695007D01*
X43178784Y-18745134D01*
X43174667Y-18802344D01*
X43174601Y-18811095D01*
X43174601Y-19261235D01*
X43177031Y-19314961D01*
X43186009Y-19370371D01*
X43201602Y-19417951D01*
X43227522Y-19462739D01*
X43243722Y-19481297D01*
X43283488Y-19511538D01*
X43333420Y-19533138D01*
X43385451Y-19544951D01*
X43436244Y-19549811D01*
X43463785Y-19550418D01*
X43978160Y-19550418D01*
X43978160Y-19337927D01*
X43520205Y-19337927D01*
X43470550Y-19325270D01*
X43445385Y-19283329D01*
X43443513Y-19261235D01*
X43443513Y-18811095D01*
X43460121Y-18765177D01*
X43504818Y-18748569D01*
X43554975Y-18749053D01*
X43567832Y-18749302D01*
X43617462Y-18750540D01*
X43640861Y-18751256D01*
X43690975Y-18753179D01*
X43717309Y-18754187D01*
X43767910Y-18756685D01*
X43817204Y-18759804D01*
X43868575Y-18763193D01*
X43919623Y-18766437D01*
X43971970Y-18769683D01*
X43978160Y-18770062D01*
X43978160Y-18564898D01*
G37*
G36*
X44944141Y-18550000D02*
G01*
X44675229Y-18550000D01*
X44675229Y-18951046D01*
X44339151Y-18951046D01*
X44339151Y-18550000D01*
X44070484Y-18550000D01*
X44070484Y-19550418D01*
X44339151Y-19550418D01*
X44339151Y-19163538D01*
X44675229Y-19163538D01*
X44675229Y-19550418D01*
X44944141Y-19550418D01*
X44944141Y-18550000D01*
G37*
G36*
X45239919Y-18550000D02*
G01*
X45239919Y-19313503D01*
X45081650Y-19258548D01*
X45005446Y-19434159D01*
X45274357Y-19550418D01*
X45508830Y-19550418D01*
X45508830Y-18550000D01*
X45239919Y-18550000D01*
G37*
G36*
X43667268Y-5864898D02*
G01*
X43608050Y-5859704D01*
X43550836Y-5855021D01*
X43495627Y-5850848D01*
X43442424Y-5847187D01*
X43391225Y-5844036D01*
X43342031Y-5841397D01*
X43279559Y-5838672D01*
X43220650Y-5836855D01*
X43165306Y-5835947D01*
X43138971Y-5835833D01*
X43088633Y-5838186D01*
X43036482Y-5846878D01*
X42985554Y-5864655D01*
X42943876Y-5890796D01*
X42930632Y-5902756D01*
X42898282Y-5946391D01*
X42878414Y-5995007D01*
X42867892Y-6045134D01*
X42863775Y-6102344D01*
X42863709Y-6111095D01*
X42863709Y-6561235D01*
X42866139Y-6614961D01*
X42875117Y-6670371D01*
X42890710Y-6717951D01*
X42916630Y-6762739D01*
X42932830Y-6781297D01*
X42972596Y-6811538D01*
X43022528Y-6833138D01*
X43074559Y-6844951D01*
X43125352Y-6849811D01*
X43152893Y-6850418D01*
X43667268Y-6850418D01*
X43667268Y-6637927D01*
X43209313Y-6637927D01*
X43159658Y-6625270D01*
X43134493Y-6583329D01*
X43132621Y-6561235D01*
X43132621Y-6111095D01*
X43149229Y-6065177D01*
X43193926Y-6048569D01*
X43244083Y-6049053D01*
X43256940Y-6049302D01*
X43306570Y-6050540D01*
X43329969Y-6051256D01*
X43380083Y-6053179D01*
X43406417Y-6054187D01*
X43457018Y-6056685D01*
X43506312Y-6059804D01*
X43557683Y-6063193D01*
X43608731Y-6066437D01*
X43661078Y-6069683D01*
X43667268Y-6070062D01*
X43667268Y-5864898D01*
G37*
G36*
X44633249Y-5850000D02*
G01*
X44364337Y-5850000D01*
X44364337Y-6251046D01*
X44028259Y-6251046D01*
X44028259Y-5850000D01*
X43759592Y-5850000D01*
X43759592Y-6850418D01*
X44028259Y-6850418D01*
X44028259Y-6463538D01*
X44364337Y-6463538D01*
X44364337Y-6850418D01*
X44633249Y-6850418D01*
X44633249Y-5850000D01*
G37*
G36*
X45304386Y-5835897D02*
G01*
X45361581Y-5839879D01*
X45411670Y-5850055D01*
X45460213Y-5869270D01*
X45503730Y-5900558D01*
X45507863Y-5904683D01*
X45539150Y-5947651D01*
X45558041Y-5994668D01*
X45567683Y-6042619D01*
X45570897Y-6096929D01*
X45570897Y-6279867D01*
X45570369Y-6298071D01*
X45562448Y-6348560D01*
X45542498Y-6397409D01*
X45510813Y-6438625D01*
X45499208Y-6449362D01*
X45455626Y-6477527D01*
X45404507Y-6493956D01*
X45352055Y-6498709D01*
X45253381Y-6498709D01*
X45233793Y-6498477D01*
X45179438Y-6495592D01*
X45129347Y-6490362D01*
X45076896Y-6482609D01*
X45022083Y-6472330D01*
X45022083Y-6589323D01*
X45022770Y-6600497D01*
X45049637Y-6641530D01*
X45100241Y-6651849D01*
X45103211Y-6651846D01*
X45153067Y-6651091D01*
X45203800Y-6649162D01*
X45222817Y-6647571D01*
X45271944Y-6644033D01*
X45311328Y-6641652D01*
X45360604Y-6638415D01*
X45397570Y-6636159D01*
X45450051Y-6633137D01*
X45500555Y-6630355D01*
X45500555Y-6835519D01*
X45466024Y-6839039D01*
X45415484Y-6843893D01*
X45366451Y-6848235D01*
X45303417Y-6853231D01*
X45243062Y-6857318D01*
X45185386Y-6860497D01*
X45130390Y-6862768D01*
X45078072Y-6864130D01*
X45028434Y-6864584D01*
X45019683Y-6864519D01*
X44962473Y-6860386D01*
X44912346Y-6849826D01*
X44863730Y-6829886D01*
X44820095Y-6797418D01*
X44808135Y-6784217D01*
X44781993Y-6742635D01*
X44764217Y-6691771D01*
X44755525Y-6639652D01*
X44753172Y-6589323D01*
X44753172Y-6125017D01*
X45022083Y-6125017D01*
X45022083Y-6272784D01*
X45036938Y-6274492D01*
X45086075Y-6280600D01*
X45132420Y-6284813D01*
X45183039Y-6286217D01*
X45260464Y-6286217D01*
X45290262Y-6274249D01*
X45301986Y-6244696D01*
X45301986Y-6125017D01*
X45300787Y-6107099D01*
X45274949Y-6061186D01*
X45225293Y-6048569D01*
X45098776Y-6048569D01*
X45076682Y-6050435D01*
X45034741Y-6075520D01*
X45022083Y-6125017D01*
X44753172Y-6125017D01*
X44753172Y-6096929D01*
X44756374Y-6042619D01*
X44767877Y-5988336D01*
X44787744Y-5942358D01*
X44820095Y-5900558D01*
X44828779Y-5892720D01*
X44875017Y-5863708D01*
X44925945Y-5846515D01*
X44978096Y-5838109D01*
X45028434Y-5835833D01*
X45295635Y-5835833D01*
X45304386Y-5835897D01*
G37*
D11*
G36*
X15110027Y-6388300D02*
G01*
X15468698Y-7422180D01*
X15880125Y-7422180D01*
X15321053Y-5945000D01*
X14899002Y-5945000D01*
X14339563Y-7422180D01*
X14751357Y-7422180D01*
X15110027Y-6388300D01*
G37*
G36*
X16230710Y-5923916D02*
G01*
X16315958Y-5925244D01*
X16403565Y-5927901D01*
X16493531Y-5931885D01*
X16585854Y-5937197D01*
X16680537Y-5943837D01*
X16777577Y-5951806D01*
X16851906Y-5958654D01*
X16927561Y-5966249D01*
X16927561Y-6230031D01*
X16829844Y-6222561D01*
X16738196Y-6216086D01*
X16652616Y-6210608D01*
X16573103Y-6206126D01*
X16482246Y-6201924D01*
X16400869Y-6199278D01*
X16315732Y-6198157D01*
X16262976Y-6219040D01*
X16241727Y-6272163D01*
X16241727Y-6356427D01*
X16970059Y-6356427D01*
X16970059Y-6746971D01*
X16969270Y-6776041D01*
X16957436Y-6855987D01*
X16927634Y-6932036D01*
X16880300Y-6994633D01*
X16850577Y-7020492D01*
X16781097Y-7059060D01*
X16707124Y-7078782D01*
X16632271Y-7084392D01*
X16210219Y-7084392D01*
X16171722Y-7082990D01*
X16092932Y-7069579D01*
X16024981Y-7041967D01*
X15962191Y-6994633D01*
X15936332Y-6965016D01*
X15897764Y-6895693D01*
X15878041Y-6821801D01*
X15872431Y-6746971D01*
X15872431Y-6736346D01*
X16241727Y-6736346D01*
X16257925Y-6793949D01*
X16326357Y-6820610D01*
X16516134Y-6820610D01*
X16570928Y-6806703D01*
X16600764Y-6736346D01*
X16600764Y-6620209D01*
X16241727Y-6620209D01*
X16241727Y-6736346D01*
X15872431Y-6736346D01*
X15872431Y-6240289D01*
X15873191Y-6213926D01*
X15884590Y-6140787D01*
X15913298Y-6069990D01*
X15958893Y-6010212D01*
X15975670Y-5994761D01*
X16038753Y-5954232D01*
X16112856Y-5930590D01*
X16188970Y-5923750D01*
X16230710Y-5923916D01*
G37*
G36*
X17796210Y-6757595D02*
G01*
X17720737Y-6752582D01*
X17643930Y-6737541D01*
X17565790Y-6712474D01*
X17521803Y-6694214D01*
X17521803Y-5945000D01*
X17152508Y-5945000D01*
X17152508Y-7063510D01*
X17479672Y-7063510D01*
X17500554Y-6926123D01*
X17569278Y-6979910D01*
X17639160Y-7022568D01*
X17710202Y-7054099D01*
X17782403Y-7074501D01*
X17855763Y-7083774D01*
X17880474Y-7084392D01*
X17975362Y-7084392D01*
X17975362Y-6757595D01*
X17796210Y-6757595D01*
G37*
G36*
X18076113Y-6240289D02*
G01*
X18154821Y-6234658D01*
X18230342Y-6229582D01*
X18326077Y-6223674D01*
X18416146Y-6218751D01*
X18500547Y-6214812D01*
X18579281Y-6211859D01*
X18669729Y-6209551D01*
X18751322Y-6208782D01*
X18804078Y-6229665D01*
X18825328Y-6282787D01*
X18825328Y-6356427D01*
X18371402Y-6356427D01*
X18295288Y-6363266D01*
X18221185Y-6386908D01*
X18158102Y-6427437D01*
X18141325Y-6442889D01*
X18095730Y-6502666D01*
X18067022Y-6573463D01*
X18055623Y-6646602D01*
X18054863Y-6672965D01*
X18054863Y-6746971D01*
X18061703Y-6823056D01*
X18085345Y-6897059D01*
X18125874Y-6959971D01*
X18141325Y-6976681D01*
X18201103Y-7022470D01*
X18271900Y-7051299D01*
X18345039Y-7062746D01*
X18371402Y-7063510D01*
X19089110Y-7063510D01*
X19089110Y-6789103D01*
X18498164Y-6789103D01*
X18445041Y-6767854D01*
X18424159Y-6715097D01*
X18445041Y-6662341D01*
X18498164Y-6641458D01*
X18878084Y-6641458D01*
X18954169Y-6634590D01*
X19028172Y-6610848D01*
X19091084Y-6570147D01*
X19107794Y-6554630D01*
X19153583Y-6495045D01*
X19182412Y-6424370D01*
X19193860Y-6351279D01*
X19194623Y-6324919D01*
X19194623Y-6240289D01*
X19187754Y-6164175D01*
X19164012Y-6090072D01*
X19123312Y-6026989D01*
X19107794Y-6010212D01*
X19048210Y-5964617D01*
X18977535Y-5935909D01*
X18904444Y-5924510D01*
X18878084Y-5923750D01*
X18783808Y-5924414D01*
X18687826Y-5926407D01*
X18590139Y-5929727D01*
X18515754Y-5933088D01*
X18440409Y-5937197D01*
X18364105Y-5942053D01*
X18286841Y-5947656D01*
X18208617Y-5954005D01*
X18129434Y-5961102D01*
X18076113Y-5966249D01*
X18076113Y-6240289D01*
G37*
G36*
X19779706Y-7021378D02*
G01*
X19779706Y-5945000D01*
X19410411Y-5945000D01*
X19410411Y-6736346D01*
X19252142Y-6736346D01*
X19252142Y-7021378D01*
X19779706Y-7021378D01*
G37*
G36*
X19410411Y-7443429D02*
G01*
X19779706Y-7443429D01*
X19779706Y-7147773D01*
X19410411Y-7147773D01*
X19410411Y-7443429D01*
G37*
G36*
X20817744Y-5924539D02*
G01*
X20897690Y-5936373D01*
X20973739Y-5966176D01*
X21036336Y-6013510D01*
X21062194Y-6043232D01*
X21100763Y-6112712D01*
X21120485Y-6186685D01*
X21126095Y-6261538D01*
X21126095Y-6746971D01*
X21125306Y-6776041D01*
X21113473Y-6855987D01*
X21083670Y-6932036D01*
X21036336Y-6994633D01*
X21006719Y-7020492D01*
X20937396Y-7059060D01*
X20863504Y-7078782D01*
X20788674Y-7084392D01*
X20303241Y-7084392D01*
X20264744Y-7082990D01*
X20185954Y-7069579D01*
X20118002Y-7041967D01*
X20055212Y-6994633D01*
X20029354Y-6965016D01*
X19990786Y-6895693D01*
X19971063Y-6821801D01*
X19965453Y-6746971D01*
X19965453Y-6293046D01*
X20334748Y-6293046D01*
X20334748Y-6715097D01*
X20350947Y-6772950D01*
X20419378Y-6799727D01*
X20672536Y-6799727D01*
X20730138Y-6783529D01*
X20756800Y-6715097D01*
X20756800Y-6293046D01*
X20742893Y-6238488D01*
X20672536Y-6208782D01*
X20419378Y-6208782D01*
X20364584Y-6222689D01*
X20334748Y-6293046D01*
X19965453Y-6293046D01*
X19965453Y-6261538D01*
X19966856Y-6223041D01*
X19980267Y-6144251D01*
X20007878Y-6076300D01*
X20055212Y-6013510D01*
X20084935Y-5987651D01*
X20154415Y-5949083D01*
X20228388Y-5929360D01*
X20303241Y-5923750D01*
X20788674Y-5923750D01*
X20817744Y-5924539D01*
G37*
G36*
X21930997Y-6778478D02*
G01*
X21850669Y-6773500D01*
X21771557Y-6760334D01*
X21695401Y-6741448D01*
X21677840Y-6736346D01*
X21677840Y-5945000D01*
X21308545Y-5945000D01*
X21308545Y-7063510D01*
X21635708Y-7063510D01*
X21656591Y-6957997D01*
X21725455Y-6998718D01*
X21795531Y-7031214D01*
X21860289Y-7053618D01*
X21934014Y-7072371D01*
X22008436Y-7083310D01*
X22036510Y-7084392D01*
X22131399Y-7084392D01*
X22207661Y-7077553D01*
X22281793Y-7053911D01*
X22344762Y-7013382D01*
X22361475Y-6997930D01*
X22407071Y-6938310D01*
X22435779Y-6867528D01*
X22447177Y-6794279D01*
X22447937Y-6767854D01*
X22447937Y-5945000D01*
X22078642Y-5945000D01*
X22078642Y-6704839D01*
X22057393Y-6757229D01*
X22005003Y-6778478D01*
X21930997Y-6778478D01*
G37*
G36*
X23977875Y-5923750D02*
G01*
X23888579Y-5924414D01*
X23796914Y-5926407D01*
X23702878Y-5929727D01*
X23606473Y-5934375D01*
X23532614Y-5938733D01*
X23457421Y-5943837D01*
X23380896Y-5949689D01*
X23303037Y-5956288D01*
X23223846Y-5963634D01*
X23197152Y-5966249D01*
X23197152Y-6250914D01*
X23282522Y-6245283D01*
X23363738Y-6240206D01*
X23440800Y-6235683D01*
X23537088Y-6230514D01*
X23625991Y-6226329D01*
X23707510Y-6223129D01*
X23781645Y-6220914D01*
X23863928Y-6219529D01*
X23893611Y-6219406D01*
X23965015Y-6242575D01*
X23970547Y-6247616D01*
X23998873Y-6315960D01*
X23999124Y-6324919D01*
X23999124Y-6430432D01*
X23984145Y-6502394D01*
X23921754Y-6550780D01*
X23872362Y-6556828D01*
X23260533Y-6556828D01*
X23260533Y-7422180D01*
X24273531Y-7422180D01*
X24273531Y-7126891D01*
X23640453Y-7126891D01*
X23640453Y-6852484D01*
X23977875Y-6852484D01*
X24051634Y-6849174D01*
X24127919Y-6836944D01*
X24202223Y-6811934D01*
X24269392Y-6769730D01*
X24281957Y-6758328D01*
X24328888Y-6697805D01*
X24360461Y-6621749D01*
X24375630Y-6541103D01*
X24379043Y-6472564D01*
X24379043Y-6324919D01*
X24375630Y-6251160D01*
X24363020Y-6174874D01*
X24337232Y-6100571D01*
X24293714Y-6033402D01*
X24281957Y-6020837D01*
X24218652Y-5973905D01*
X24147783Y-5945083D01*
X24074503Y-5929818D01*
X23990705Y-5923845D01*
X23977875Y-5923750D01*
G37*
G36*
X24477229Y-6261538D02*
G01*
X24857149Y-6261538D01*
X24857149Y-5945000D01*
X24477229Y-5945000D01*
X24477229Y-6261538D01*
G37*
G36*
X25852681Y-5924142D02*
G01*
X25928673Y-5930024D01*
X26006521Y-5945807D01*
X26081236Y-5975609D01*
X26147117Y-6024134D01*
X26165057Y-6044019D01*
X26204270Y-6107434D01*
X26230934Y-6185962D01*
X26243972Y-6267071D01*
X26247501Y-6345802D01*
X26247501Y-7021378D01*
X26247109Y-7048566D01*
X26241227Y-7124463D01*
X26225444Y-7202267D01*
X26195643Y-7277016D01*
X26147117Y-7343046D01*
X26127295Y-7360985D01*
X26063983Y-7400198D01*
X25985466Y-7426862D01*
X25904292Y-7439900D01*
X25825450Y-7443429D01*
X25424281Y-7443429D01*
X25397093Y-7443037D01*
X25321195Y-7437155D01*
X25243392Y-7421372D01*
X25168642Y-7391571D01*
X25102613Y-7343046D01*
X25084673Y-7323161D01*
X25045461Y-7259746D01*
X25018796Y-7181218D01*
X25005758Y-7100109D01*
X25002229Y-7021378D01*
X25002229Y-6345802D01*
X25382149Y-6345802D01*
X25382149Y-7021378D01*
X25388215Y-7070628D01*
X25436741Y-7132838D01*
X25508911Y-7147773D01*
X25740819Y-7147773D01*
X25790212Y-7141725D01*
X25852603Y-7093339D01*
X25867582Y-7021378D01*
X25867582Y-6345802D01*
X25861516Y-6296552D01*
X25812990Y-6234342D01*
X25740819Y-6219406D01*
X25508911Y-6219406D01*
X25459518Y-6225455D01*
X25397128Y-6273840D01*
X25382149Y-6345802D01*
X25002229Y-6345802D01*
X25002621Y-6318614D01*
X25008503Y-6242716D01*
X25024286Y-6164913D01*
X25054088Y-6090163D01*
X25102613Y-6024134D01*
X25122497Y-6006194D01*
X25185913Y-5966982D01*
X25264441Y-5940318D01*
X25345550Y-5927279D01*
X25424281Y-5923750D01*
X25825450Y-5923750D01*
X25852681Y-5924142D01*
G37*
G36*
X26388185Y-6261538D02*
G01*
X26768105Y-6261538D01*
X26768105Y-5945000D01*
X26388185Y-5945000D01*
X26388185Y-6261538D01*
G37*
G36*
X27763637Y-5924142D02*
G01*
X27839629Y-5930024D01*
X27917477Y-5945807D01*
X27992192Y-5975609D01*
X28058073Y-6024134D01*
X28076013Y-6044019D01*
X28115226Y-6107434D01*
X28141890Y-6185962D01*
X28154928Y-6267071D01*
X28158457Y-6345802D01*
X28158457Y-7021378D01*
X28158065Y-7048566D01*
X28152183Y-7124463D01*
X28136400Y-7202267D01*
X28106599Y-7277016D01*
X28058073Y-7343046D01*
X28038251Y-7360985D01*
X27974939Y-7400198D01*
X27896422Y-7426862D01*
X27815248Y-7439900D01*
X27736406Y-7443429D01*
X27335237Y-7443429D01*
X27308049Y-7443037D01*
X27232151Y-7437155D01*
X27154348Y-7421372D01*
X27079598Y-7391571D01*
X27013569Y-7343046D01*
X26995629Y-7323161D01*
X26956417Y-7259746D01*
X26929752Y-7181218D01*
X26916714Y-7100109D01*
X26913185Y-7021378D01*
X26913185Y-6345802D01*
X27293105Y-6345802D01*
X27293105Y-7021378D01*
X27299171Y-7070628D01*
X27347697Y-7132838D01*
X27419867Y-7147773D01*
X27651776Y-7147773D01*
X27701168Y-7141725D01*
X27763559Y-7093339D01*
X27778538Y-7021378D01*
X27778538Y-6345802D01*
X27772472Y-6296552D01*
X27723946Y-6234342D01*
X27651776Y-6219406D01*
X27419867Y-6219406D01*
X27370474Y-6225455D01*
X27308084Y-6273840D01*
X27293105Y-6345802D01*
X26913185Y-6345802D01*
X26913577Y-6318614D01*
X26919459Y-6242716D01*
X26935242Y-6164913D01*
X26965044Y-6090163D01*
X27013569Y-6024134D01*
X27033454Y-6006194D01*
X27096869Y-5966982D01*
X27175397Y-5940318D01*
X27256506Y-5927279D01*
X27335237Y-5923750D01*
X27736406Y-5923750D01*
X27763637Y-5924142D01*
G37*
D10*
G36*
X43577497Y-21084898D02*
G01*
X43518279Y-21079704D01*
X43461065Y-21075021D01*
X43405856Y-21070848D01*
X43352653Y-21067187D01*
X43301454Y-21064036D01*
X43252260Y-21061397D01*
X43189788Y-21058672D01*
X43130879Y-21056855D01*
X43075535Y-21055947D01*
X43049200Y-21055833D01*
X42998862Y-21058186D01*
X42946711Y-21066878D01*
X42895783Y-21084655D01*
X42854105Y-21110796D01*
X42840861Y-21122756D01*
X42808511Y-21166391D01*
X42788643Y-21215007D01*
X42778121Y-21265134D01*
X42774004Y-21322344D01*
X42773938Y-21331095D01*
X42773938Y-21781235D01*
X42776368Y-21834961D01*
X42785346Y-21890371D01*
X42800939Y-21937951D01*
X42826859Y-21982739D01*
X42843059Y-22001297D01*
X42882825Y-22031538D01*
X42932757Y-22053138D01*
X42984788Y-22064951D01*
X43035581Y-22069811D01*
X43063122Y-22070418D01*
X43577497Y-22070418D01*
X43577497Y-21857927D01*
X43119542Y-21857927D01*
X43069887Y-21845270D01*
X43044722Y-21803329D01*
X43042850Y-21781235D01*
X43042850Y-21331095D01*
X43059458Y-21285177D01*
X43104155Y-21268569D01*
X43154312Y-21269053D01*
X43167169Y-21269302D01*
X43216799Y-21270540D01*
X43240198Y-21271256D01*
X43290312Y-21273179D01*
X43316646Y-21274187D01*
X43367247Y-21276685D01*
X43416541Y-21279804D01*
X43467912Y-21283193D01*
X43518960Y-21286437D01*
X43571307Y-21289683D01*
X43577497Y-21290062D01*
X43577497Y-21084898D01*
G37*
G36*
X44543478Y-21070000D02*
G01*
X44274566Y-21070000D01*
X44274566Y-21471046D01*
X43938488Y-21471046D01*
X43938488Y-21070000D01*
X43669821Y-21070000D01*
X43669821Y-22070418D01*
X43938488Y-22070418D01*
X43938488Y-21683538D01*
X44274566Y-21683538D01*
X44274566Y-22070418D01*
X44543478Y-22070418D01*
X44543478Y-21070000D01*
G37*
G36*
X45247613Y-21056441D02*
G01*
X45298463Y-21061301D01*
X45350517Y-21073114D01*
X45400419Y-21094714D01*
X45440093Y-21124954D01*
X45456293Y-21143566D01*
X45482214Y-21188415D01*
X45497806Y-21235998D01*
X45506784Y-21291365D01*
X45509214Y-21345017D01*
X45509214Y-21795401D01*
X45508606Y-21822940D01*
X45503746Y-21873715D01*
X45491934Y-21925704D01*
X45470334Y-21975560D01*
X45440093Y-22015219D01*
X45421535Y-22031477D01*
X45376747Y-22057489D01*
X45329167Y-22073136D01*
X45273757Y-22082146D01*
X45220030Y-22084584D01*
X44952585Y-22084584D01*
X44925044Y-22083975D01*
X44874251Y-22079097D01*
X44822220Y-22067243D01*
X44772288Y-22045566D01*
X44732522Y-22015219D01*
X44716322Y-21996664D01*
X44690401Y-21951907D01*
X44674809Y-21904379D01*
X44665831Y-21849044D01*
X44663401Y-21795401D01*
X44663401Y-21345017D01*
X44932312Y-21345017D01*
X44932312Y-21795401D01*
X44933511Y-21813318D01*
X44959349Y-21859232D01*
X45009005Y-21871849D01*
X45163610Y-21871849D01*
X45185704Y-21869982D01*
X45227645Y-21844898D01*
X45240303Y-21795401D01*
X45240303Y-21345017D01*
X45239104Y-21327099D01*
X45213266Y-21281186D01*
X45163610Y-21268569D01*
X45009005Y-21268569D01*
X44986911Y-21270435D01*
X44944970Y-21295520D01*
X44932312Y-21345017D01*
X44663401Y-21345017D01*
X44664009Y-21317476D01*
X44668869Y-21266683D01*
X44680681Y-21214652D01*
X44702281Y-21164720D01*
X44732522Y-21124954D01*
X44751134Y-21108754D01*
X44795983Y-21082834D01*
X44843566Y-21067241D01*
X44898932Y-21058263D01*
X44952585Y-21055833D01*
X45220030Y-21055833D01*
X45247613Y-21056441D01*
G37*
G36*
X43622383Y-10944898D02*
G01*
X43563165Y-10939704D01*
X43505951Y-10935021D01*
X43450742Y-10930848D01*
X43397539Y-10927187D01*
X43346340Y-10924036D01*
X43297146Y-10921397D01*
X43234674Y-10918672D01*
X43175765Y-10916855D01*
X43120421Y-10915947D01*
X43094086Y-10915833D01*
X43043748Y-10918186D01*
X42991597Y-10926878D01*
X42940669Y-10944655D01*
X42898991Y-10970796D01*
X42885747Y-10982756D01*
X42853397Y-11026391D01*
X42833529Y-11075007D01*
X42823007Y-11125134D01*
X42818890Y-11182344D01*
X42818824Y-11191095D01*
X42818824Y-11641235D01*
X42821254Y-11694961D01*
X42830232Y-11750371D01*
X42845825Y-11797951D01*
X42871745Y-11842739D01*
X42887945Y-11861297D01*
X42927711Y-11891538D01*
X42977643Y-11913138D01*
X43029674Y-11924951D01*
X43080467Y-11929811D01*
X43108008Y-11930418D01*
X43622383Y-11930418D01*
X43622383Y-11717927D01*
X43164428Y-11717927D01*
X43114773Y-11705270D01*
X43089608Y-11663329D01*
X43087736Y-11641235D01*
X43087736Y-11191095D01*
X43104344Y-11145177D01*
X43149041Y-11128569D01*
X43199198Y-11129053D01*
X43212055Y-11129302D01*
X43261685Y-11130540D01*
X43285084Y-11131256D01*
X43335198Y-11133179D01*
X43361532Y-11134187D01*
X43412133Y-11136685D01*
X43461427Y-11139804D01*
X43512798Y-11143193D01*
X43563846Y-11146437D01*
X43616193Y-11149683D01*
X43622383Y-11150062D01*
X43622383Y-10944898D01*
G37*
G36*
X44588364Y-10930000D02*
G01*
X44319452Y-10930000D01*
X44319452Y-11331046D01*
X43983374Y-11331046D01*
X43983374Y-10930000D01*
X43714707Y-10930000D01*
X43714707Y-11930418D01*
X43983374Y-11930418D01*
X43983374Y-11543538D01*
X44319452Y-11543538D01*
X44319452Y-11930418D01*
X44588364Y-11930418D01*
X44588364Y-10930000D01*
G37*
G36*
X45200681Y-11126859D02*
G01*
X44680199Y-11126859D01*
X44680199Y-11333977D01*
X45021162Y-11930418D01*
X45320604Y-11930418D01*
X44982816Y-11339595D01*
X45200681Y-11339595D01*
X45200681Y-11550621D01*
X45469592Y-11550621D01*
X45469592Y-11339595D01*
X45568022Y-11339595D01*
X45568022Y-11126859D01*
X45469592Y-11126859D01*
X45469592Y-10930000D01*
X45200681Y-10930000D01*
X45200681Y-11126859D01*
G37*
G36*
X43540427Y-23651737D02*
G01*
X43477851Y-23645321D01*
X43416336Y-23639535D01*
X43355881Y-23634381D01*
X43296486Y-23629858D01*
X43238152Y-23625966D01*
X43180878Y-23622706D01*
X43124665Y-23620076D01*
X43069512Y-23618077D01*
X43015419Y-23616710D01*
X42962388Y-23615974D01*
X42927622Y-23615833D01*
X42877284Y-23618186D01*
X42825133Y-23626878D01*
X42774205Y-23644655D01*
X42732527Y-23670796D01*
X42719283Y-23682756D01*
X42686933Y-23726391D01*
X42667065Y-23775007D01*
X42656543Y-23825134D01*
X42652426Y-23882344D01*
X42652360Y-23891095D01*
X42652360Y-24341235D01*
X42654790Y-24394961D01*
X42663768Y-24450371D01*
X42679361Y-24497951D01*
X42705281Y-24542739D01*
X42721481Y-24561297D01*
X42761247Y-24591538D01*
X42811179Y-24613138D01*
X42863210Y-24624951D01*
X42914003Y-24629811D01*
X42941544Y-24630418D01*
X43455919Y-24630418D01*
X43455919Y-24417927D01*
X42997964Y-24417927D01*
X42948309Y-24405270D01*
X42923144Y-24363329D01*
X42921272Y-24341235D01*
X42921272Y-23891095D01*
X42937880Y-23845177D01*
X42983798Y-23828569D01*
X43033455Y-23828730D01*
X43090745Y-23829348D01*
X43145528Y-23830430D01*
X43197804Y-23831976D01*
X43247572Y-23833985D01*
X43271516Y-23835163D01*
X43271516Y-24023963D01*
X43088578Y-24023963D01*
X43088578Y-24208367D01*
X43540427Y-24208367D01*
X43540427Y-23651737D01*
G37*
G36*
X44534251Y-23630000D02*
G01*
X44254593Y-23630000D01*
X43929262Y-24199330D01*
X43929262Y-23630000D01*
X43660595Y-23630000D01*
X43660595Y-24630418D01*
X43940253Y-24630418D01*
X44265340Y-24061332D01*
X44265340Y-24630418D01*
X44534251Y-24630418D01*
X44534251Y-23630000D01*
G37*
G36*
X45296978Y-23632970D02*
G01*
X45349603Y-23641883D01*
X45396766Y-23656738D01*
X45444889Y-23681579D01*
X45485577Y-23714508D01*
X45518601Y-23755292D01*
X45543514Y-23803485D01*
X45558411Y-23850692D01*
X45567350Y-23903343D01*
X45570330Y-23961437D01*
X45570330Y-24298981D01*
X45567350Y-24357067D01*
X45558411Y-24409691D01*
X45543514Y-24456855D01*
X45518601Y-24504977D01*
X45485577Y-24545666D01*
X45444889Y-24578690D01*
X45396766Y-24603602D01*
X45349603Y-24618500D01*
X45296978Y-24627439D01*
X45238892Y-24630418D01*
X44682507Y-24630418D01*
X44682507Y-24417927D01*
X44951174Y-24417927D01*
X45182716Y-24417927D01*
X45216913Y-24415023D01*
X45263860Y-24395160D01*
X45293999Y-24351020D01*
X45301418Y-24298981D01*
X45301418Y-23961437D01*
X45298520Y-23927170D01*
X45278698Y-23880126D01*
X45234648Y-23849925D01*
X45182716Y-23842491D01*
X44951174Y-23842491D01*
X44951174Y-24417927D01*
X44682507Y-24417927D01*
X44682507Y-23630000D01*
X45238892Y-23630000D01*
X45296978Y-23632970D01*
G37*
D12*
G36*
X21310305Y-14634745D02*
G01*
X21413660Y-14818399D01*
X21418453Y-14890069D01*
X21418453Y-16691605D01*
X21367824Y-16889593D01*
X21200060Y-16989931D01*
X21111684Y-16997397D01*
X20155229Y-16997397D01*
X19956608Y-16946929D01*
X19853253Y-16763275D01*
X19848460Y-16691605D01*
X19848460Y-14890069D01*
X19899089Y-14692081D01*
X20066853Y-14591743D01*
X20155229Y-14584277D01*
X21111684Y-14584277D01*
X21310305Y-14634745D01*
G37*
G36*
X29375557Y-14647376D02*
G01*
X29394448Y-14749385D01*
X29394448Y-15874856D01*
X29303017Y-16050288D01*
X29201007Y-16069274D01*
X28525920Y-16069274D01*
X28350489Y-15977381D01*
X28331503Y-15874856D01*
X28331503Y-14749385D01*
X28423395Y-14574836D01*
X28525920Y-14555945D01*
X29201007Y-14555945D01*
X29375557Y-14647376D01*
G37*
G36*
X36071969Y-18292783D02*
G01*
X6581267Y-18292783D01*
X6581267Y-17848339D01*
X11419151Y-17848339D01*
X12466464Y-17848339D01*
X12466464Y-16997397D01*
X11419151Y-16997397D01*
X11419151Y-17848339D01*
X6581267Y-17848339D01*
X6581267Y-14890069D01*
X7025711Y-14890069D01*
X7025711Y-17791674D01*
X8100379Y-17791674D01*
X8100379Y-14890069D01*
X8151008Y-14692081D01*
X8318772Y-14591743D01*
X8407148Y-14584277D01*
X9251251Y-14584277D01*
X9449872Y-14634745D01*
X9553227Y-14818399D01*
X9558020Y-14890069D01*
X9558020Y-17791674D01*
X10632689Y-17791674D01*
X10632689Y-16835219D01*
X12955927Y-16835219D01*
X13885027Y-16835219D01*
X13936806Y-16574368D01*
X14116416Y-16677728D01*
X14310864Y-16762130D01*
X14448739Y-16807864D01*
X14649003Y-16858468D01*
X14851736Y-16887987D01*
X14928432Y-16890907D01*
X15181468Y-16890907D01*
X15391669Y-16871896D01*
X15596223Y-16806179D01*
X15770246Y-16693522D01*
X15816499Y-16650572D01*
X15943238Y-16485708D01*
X16023037Y-16290314D01*
X16054722Y-16088355D01*
X16056834Y-16015540D01*
X16056834Y-14639965D01*
X16368488Y-14639965D01*
X16874559Y-14639965D01*
X16874559Y-16941709D01*
X16368488Y-16941709D01*
X16368488Y-17791674D01*
X18456276Y-17791674D01*
X18456276Y-16941709D01*
X17950205Y-16941709D01*
X17950205Y-14890069D01*
X18772815Y-14890069D01*
X18772815Y-16691605D01*
X18782535Y-16906179D01*
X18818445Y-17127519D01*
X18880816Y-17317629D01*
X18984497Y-17496659D01*
X19049297Y-17570879D01*
X19208361Y-17692267D01*
X19408090Y-17778974D01*
X19616213Y-17826391D01*
X19819385Y-17845900D01*
X19929549Y-17848339D01*
X21336388Y-17848339D01*
X21551294Y-17838584D01*
X21772934Y-17802547D01*
X21963252Y-17739956D01*
X22142404Y-17635908D01*
X22216639Y-17570879D01*
X22337600Y-17412243D01*
X22424001Y-17212819D01*
X22471251Y-17004863D01*
X22490692Y-16801760D01*
X22493122Y-16691605D01*
X22493122Y-14890069D01*
X22484361Y-14696629D01*
X22804775Y-14696629D01*
X23880421Y-14696629D01*
X23880421Y-14608702D01*
X24204775Y-14608702D01*
X24204775Y-15903189D01*
X24220285Y-16108902D01*
X24274810Y-16312449D01*
X24368594Y-16486475D01*
X24452926Y-16586092D01*
X24607744Y-16706520D01*
X24791928Y-16787535D01*
X25005478Y-16829137D01*
X25136806Y-16835219D01*
X26968628Y-16835219D01*
X26968628Y-16012609D01*
X25446506Y-16012609D01*
X25271075Y-15921179D01*
X25252089Y-15819169D01*
X25252089Y-14722030D01*
X25274383Y-14665366D01*
X27284189Y-14665366D01*
X27284189Y-14749385D01*
X27284189Y-15959853D01*
X27299699Y-16165566D01*
X27354224Y-16369113D01*
X27448008Y-16543139D01*
X27532340Y-16642756D01*
X27687158Y-16762712D01*
X27871341Y-16843409D01*
X28084892Y-16884848D01*
X28216220Y-16890907D01*
X29510707Y-16890907D01*
X29716421Y-16875397D01*
X29866409Y-16835219D01*
X30865766Y-16835219D01*
X31794866Y-16835219D01*
X31846646Y-16574368D01*
X32026256Y-16677728D01*
X32220704Y-16762130D01*
X32358579Y-16807864D01*
X32558843Y-16858468D01*
X32761576Y-16887987D01*
X32838272Y-16890907D01*
X32894936Y-16890907D01*
X33089922Y-16875339D01*
X33285744Y-16819423D01*
X33471593Y-16707908D01*
X33606171Y-16565575D01*
X33777908Y-16666493D01*
X33965346Y-16748941D01*
X34149367Y-16807864D01*
X34351865Y-16855143D01*
X34555128Y-16884338D01*
X34695494Y-16890907D01*
X34752159Y-16890907D01*
X34961965Y-16871896D01*
X35166442Y-16806179D01*
X35340771Y-16693522D01*
X35387190Y-16650572D01*
X35513929Y-16485708D01*
X35593728Y-16290314D01*
X35625413Y-16088355D01*
X35627525Y-16015540D01*
X35627525Y-13790000D01*
X34580212Y-13790000D01*
X34580212Y-15847501D01*
X34532340Y-15965715D01*
X34414127Y-16012609D01*
X34385794Y-16012609D01*
X34182462Y-15997909D01*
X33987831Y-15963200D01*
X33793086Y-15914505D01*
X33770302Y-15908073D01*
X33770302Y-13790000D01*
X32722989Y-13790000D01*
X32722989Y-15847501D01*
X32676094Y-15965715D01*
X32556904Y-16012609D01*
X32528572Y-16012609D01*
X32325240Y-15997909D01*
X32130609Y-15963200D01*
X31935863Y-15914505D01*
X31913080Y-15908073D01*
X31913080Y-13790000D01*
X30865766Y-13790000D01*
X30865766Y-16835219D01*
X29866409Y-16835219D01*
X29919967Y-16820872D01*
X30093993Y-16727088D01*
X30193610Y-16642756D01*
X30313566Y-16488411D01*
X30394263Y-16304544D01*
X30435702Y-16091157D01*
X30441761Y-15959853D01*
X30441761Y-14665366D01*
X30426251Y-14459591D01*
X30371726Y-14255830D01*
X30277943Y-14081435D01*
X30193610Y-13981486D01*
X30039265Y-13861530D01*
X29855399Y-13780833D01*
X29642011Y-13739394D01*
X29510707Y-13733335D01*
X28216220Y-13733335D01*
X28010445Y-13748845D01*
X27806684Y-13803370D01*
X27632289Y-13897153D01*
X27532340Y-13981486D01*
X27412384Y-14136303D01*
X27331687Y-14320487D01*
X27290248Y-14534038D01*
X27284189Y-14665366D01*
X25274383Y-14665366D01*
X25298983Y-14602840D01*
X25418174Y-14555945D01*
X25626578Y-14559002D01*
X25829266Y-14566219D01*
X26058334Y-14577683D01*
X26260583Y-14589910D01*
X26479714Y-14604855D01*
X26715729Y-14622517D01*
X26968628Y-14642896D01*
X26968628Y-13849595D01*
X26768258Y-13828818D01*
X26572714Y-13810085D01*
X26319495Y-13788286D01*
X26074855Y-13770120D01*
X25838794Y-13755588D01*
X25611313Y-13744689D01*
X25392410Y-13737422D01*
X25182087Y-13733789D01*
X25080142Y-13733335D01*
X24870335Y-13752346D01*
X24665858Y-13818063D01*
X24491530Y-13930720D01*
X24445110Y-13973670D01*
X24318371Y-14138954D01*
X24238573Y-14334386D01*
X24206888Y-14536053D01*
X24204775Y-14608702D01*
X23880421Y-14608702D01*
X23880421Y-13790000D01*
X22804775Y-13790000D01*
X22804775Y-14696629D01*
X22484361Y-14696629D01*
X22483402Y-14675460D01*
X22447491Y-14453994D01*
X22385120Y-14263663D01*
X22281439Y-14084266D01*
X22216639Y-14009818D01*
X22057942Y-13888857D01*
X21858334Y-13802456D01*
X21650118Y-13755205D01*
X21446718Y-13735765D01*
X21336388Y-13733335D01*
X19929549Y-13733335D01*
X19714939Y-13743055D01*
X19493473Y-13778966D01*
X19303142Y-13841336D01*
X19123746Y-13945017D01*
X19049297Y-14009818D01*
X18928336Y-14168881D01*
X18841935Y-14368611D01*
X18794685Y-14576733D01*
X18775245Y-14779905D01*
X18772815Y-14890069D01*
X17950205Y-14890069D01*
X17950205Y-14639965D01*
X18456276Y-14639965D01*
X18456276Y-13790000D01*
X16368488Y-13790000D01*
X16368488Y-14639965D01*
X16056834Y-14639965D01*
X16056834Y-13790000D01*
X15009521Y-13790000D01*
X15009521Y-15847501D01*
X14962626Y-15965715D01*
X14844413Y-16012609D01*
X14647064Y-16012609D01*
X14438753Y-16000257D01*
X14237558Y-15967590D01*
X14046857Y-15920732D01*
X14003240Y-15908073D01*
X14003240Y-13790000D01*
X12955927Y-13790000D01*
X12955927Y-16835219D01*
X10632689Y-16835219D01*
X10632689Y-15900258D01*
X10997099Y-15900258D01*
X10997099Y-16722868D01*
X12466464Y-16722868D01*
X12466464Y-13790000D01*
X11419151Y-13790000D01*
X11419151Y-15900258D01*
X10997099Y-15900258D01*
X10632689Y-15900258D01*
X10632689Y-14890069D01*
X10622969Y-14675460D01*
X10587058Y-14453994D01*
X10524688Y-14263663D01*
X10421007Y-14084266D01*
X10356206Y-14009818D01*
X10197509Y-13888857D01*
X9997902Y-13802456D01*
X9789686Y-13755205D01*
X9586285Y-13735765D01*
X9475955Y-13733335D01*
X8182445Y-13733335D01*
X7967538Y-13743055D01*
X7745898Y-13778966D01*
X7555580Y-13841336D01*
X7376428Y-13945017D01*
X7302194Y-14009818D01*
X7181232Y-14168881D01*
X7094831Y-14368611D01*
X7047581Y-14576733D01*
X7028141Y-14779905D01*
X7025711Y-14890069D01*
X6581267Y-14890069D01*
X6581267Y-13288891D01*
X36071969Y-13288891D01*
X36071969Y-18292783D01*
G37*
D10*
G36*
X43749714Y-8404898D02*
G01*
X43690496Y-8399704D01*
X43633282Y-8395021D01*
X43578073Y-8390848D01*
X43524870Y-8387187D01*
X43473671Y-8384036D01*
X43424477Y-8381397D01*
X43362005Y-8378672D01*
X43303096Y-8376855D01*
X43247752Y-8375947D01*
X43221417Y-8375833D01*
X43171079Y-8378186D01*
X43118928Y-8386878D01*
X43068000Y-8404655D01*
X43026322Y-8430796D01*
X43013078Y-8442756D01*
X42980728Y-8486391D01*
X42960860Y-8535007D01*
X42950338Y-8585134D01*
X42946221Y-8642344D01*
X42946155Y-8651095D01*
X42946155Y-9101235D01*
X42948585Y-9154961D01*
X42957563Y-9210371D01*
X42973156Y-9257951D01*
X42999076Y-9302739D01*
X43015276Y-9321297D01*
X43055042Y-9351538D01*
X43104974Y-9373138D01*
X43157005Y-9384951D01*
X43207798Y-9389811D01*
X43235339Y-9390418D01*
X43749714Y-9390418D01*
X43749714Y-9177927D01*
X43291759Y-9177927D01*
X43242104Y-9165270D01*
X43216939Y-9123329D01*
X43215067Y-9101235D01*
X43215067Y-8651095D01*
X43231675Y-8605177D01*
X43276372Y-8588569D01*
X43326529Y-8589053D01*
X43339386Y-8589302D01*
X43389016Y-8590540D01*
X43412415Y-8591256D01*
X43462529Y-8593179D01*
X43488863Y-8594187D01*
X43539464Y-8596685D01*
X43588758Y-8599804D01*
X43640129Y-8603193D01*
X43691177Y-8606437D01*
X43743524Y-8609683D01*
X43749714Y-8610062D01*
X43749714Y-8404898D01*
G37*
G36*
X44715695Y-8390000D02*
G01*
X44446783Y-8390000D01*
X44446783Y-8791046D01*
X44110705Y-8791046D01*
X44110705Y-8390000D01*
X43842038Y-8390000D01*
X43842038Y-9390418D01*
X44110705Y-9390418D01*
X44110705Y-9003538D01*
X44446783Y-9003538D01*
X44446783Y-9390418D01*
X44715695Y-9390418D01*
X44715695Y-8390000D01*
G37*
G36*
X45335827Y-8375833D02*
G01*
X45276068Y-8376288D01*
X45214515Y-8377650D01*
X45151168Y-8379921D01*
X45086028Y-8383100D01*
X45035996Y-8386080D01*
X44984954Y-8389571D01*
X44932904Y-8393573D01*
X44879845Y-8398086D01*
X44825777Y-8403110D01*
X44807530Y-8404898D01*
X44807530Y-8610062D01*
X44865881Y-8606221D01*
X44921318Y-8602758D01*
X44973839Y-8599672D01*
X45023445Y-8596965D01*
X45085051Y-8593942D01*
X45141475Y-8591591D01*
X45192716Y-8589912D01*
X45249480Y-8588758D01*
X45279652Y-8588569D01*
X45325325Y-8605177D01*
X45342178Y-8651095D01*
X45342178Y-8721437D01*
X45329520Y-8770934D01*
X45287579Y-8796019D01*
X45265485Y-8797885D01*
X44849784Y-8797885D01*
X44849784Y-9390418D01*
X45540747Y-9390418D01*
X45540747Y-9177927D01*
X45118695Y-9177927D01*
X45118695Y-9010621D01*
X45335827Y-9010621D01*
X45386157Y-9008337D01*
X45438276Y-8999898D01*
X45489139Y-8982641D01*
X45535267Y-8953519D01*
X45543922Y-8945652D01*
X45576391Y-8903970D01*
X45596331Y-8858064D01*
X45607875Y-8803823D01*
X45611089Y-8749525D01*
X45611089Y-8651095D01*
X45608728Y-8600757D01*
X45600004Y-8548606D01*
X45582163Y-8497678D01*
X45555926Y-8456000D01*
X45543922Y-8442756D01*
X45500405Y-8410406D01*
X45451862Y-8390538D01*
X45401773Y-8380016D01*
X45344578Y-8375899D01*
X45335827Y-8375833D01*
G37*
G36*
X43711667Y-13484898D02*
G01*
X43652449Y-13479704D01*
X43595235Y-13475021D01*
X43540026Y-13470848D01*
X43486823Y-13467187D01*
X43435624Y-13464036D01*
X43386430Y-13461397D01*
X43323958Y-13458672D01*
X43265049Y-13456855D01*
X43209705Y-13455947D01*
X43183370Y-13455833D01*
X43133032Y-13458186D01*
X43080881Y-13466878D01*
X43029953Y-13484655D01*
X42988275Y-13510796D01*
X42975031Y-13522756D01*
X42942681Y-13566391D01*
X42922813Y-13615007D01*
X42912291Y-13665134D01*
X42908174Y-13722344D01*
X42908108Y-13731095D01*
X42908108Y-14181235D01*
X42910538Y-14234961D01*
X42919516Y-14290371D01*
X42935109Y-14337951D01*
X42961029Y-14382739D01*
X42977229Y-14401297D01*
X43016995Y-14431538D01*
X43066927Y-14453138D01*
X43118958Y-14464951D01*
X43169751Y-14469811D01*
X43197292Y-14470418D01*
X43711667Y-14470418D01*
X43711667Y-14257927D01*
X43253712Y-14257927D01*
X43204057Y-14245270D01*
X43178892Y-14203329D01*
X43177020Y-14181235D01*
X43177020Y-13731095D01*
X43193628Y-13685177D01*
X43238325Y-13668569D01*
X43288482Y-13669053D01*
X43301339Y-13669302D01*
X43350969Y-13670540D01*
X43374368Y-13671256D01*
X43424482Y-13673179D01*
X43450816Y-13674187D01*
X43501417Y-13676685D01*
X43550711Y-13679804D01*
X43602082Y-13683193D01*
X43653130Y-13686437D01*
X43705477Y-13689683D01*
X43711667Y-13690062D01*
X43711667Y-13484898D01*
G37*
G36*
X44677648Y-13470000D02*
G01*
X44408736Y-13470000D01*
X44408736Y-13871046D01*
X44072658Y-13871046D01*
X44072658Y-13470000D01*
X43803991Y-13470000D01*
X43803991Y-14470418D01*
X44072658Y-14470418D01*
X44072658Y-14083538D01*
X44408736Y-14083538D01*
X44408736Y-14470418D01*
X44677648Y-14470418D01*
X44677648Y-13470000D01*
G37*
G36*
X45297780Y-13455833D02*
G01*
X45238021Y-13456288D01*
X45176468Y-13457650D01*
X45113121Y-13459921D01*
X45047981Y-13463100D01*
X44997949Y-13466080D01*
X44946907Y-13469571D01*
X44894857Y-13473573D01*
X44841798Y-13478086D01*
X44787730Y-13483110D01*
X44769483Y-13484898D01*
X44769483Y-13690062D01*
X44827834Y-13686221D01*
X44883271Y-13682758D01*
X44935792Y-13679672D01*
X44985398Y-13676965D01*
X45047004Y-13673942D01*
X45103428Y-13671591D01*
X45154669Y-13669912D01*
X45211433Y-13668758D01*
X45241605Y-13668569D01*
X45287278Y-13685177D01*
X45304131Y-13731095D01*
X45304131Y-13787271D01*
X45291473Y-13836926D01*
X45249532Y-13862091D01*
X45227438Y-13863963D01*
X44924333Y-13863963D01*
X44924333Y-14076454D01*
X45199351Y-14076454D01*
X45249006Y-14089112D01*
X45274170Y-14131053D01*
X45276043Y-14153147D01*
X45276043Y-14181235D01*
X45263386Y-14230890D01*
X45221444Y-14256055D01*
X45199351Y-14257927D01*
X44783649Y-14257927D01*
X44783649Y-14470418D01*
X45269692Y-14470418D01*
X45320022Y-14468134D01*
X45372141Y-14459696D01*
X45423004Y-14442439D01*
X45469132Y-14413317D01*
X45477787Y-14405450D01*
X45510256Y-14363768D01*
X45530196Y-14317862D01*
X45541740Y-14263621D01*
X45544954Y-14209323D01*
X45541019Y-14158232D01*
X45527598Y-14109195D01*
X45504654Y-14067662D01*
X45471907Y-14029941D01*
X45431050Y-14001998D01*
X45423321Y-13999030D01*
X45471628Y-13976878D01*
X45507787Y-13943985D01*
X45537566Y-13898667D01*
X45558387Y-13848820D01*
X45569378Y-13800521D01*
X45573028Y-13748697D01*
X45573042Y-13745017D01*
X45573042Y-13731095D01*
X45570681Y-13680757D01*
X45561957Y-13628606D01*
X45544116Y-13577678D01*
X45517879Y-13536000D01*
X45505875Y-13522756D01*
X45462358Y-13490406D01*
X45413815Y-13470538D01*
X45363726Y-13460016D01*
X45306531Y-13455899D01*
X45297780Y-13455833D01*
G37*
G36*
X43509707Y-781737D02*
G01*
X43447131Y-775321D01*
X43385616Y-769535D01*
X43325161Y-764381D01*
X43265766Y-759858D01*
X43207432Y-755966D01*
X43150158Y-752706D01*
X43093945Y-750076D01*
X43038792Y-748077D01*
X42984699Y-746710D01*
X42931668Y-745974D01*
X42896902Y-745833D01*
X42846564Y-748186D01*
X42794413Y-756878D01*
X42743485Y-774655D01*
X42701807Y-800796D01*
X42688563Y-812756D01*
X42656213Y-856391D01*
X42636345Y-905007D01*
X42625823Y-955134D01*
X42621706Y-1012344D01*
X42621640Y-1021095D01*
X42621640Y-1471235D01*
X42624070Y-1524961D01*
X42633048Y-1580371D01*
X42648641Y-1627951D01*
X42674561Y-1672739D01*
X42690761Y-1691297D01*
X42730527Y-1721538D01*
X42780459Y-1743138D01*
X42832490Y-1754951D01*
X42883283Y-1759811D01*
X42910824Y-1760418D01*
X43425199Y-1760418D01*
X43425199Y-1547927D01*
X42967244Y-1547927D01*
X42917589Y-1535270D01*
X42892424Y-1493329D01*
X42890552Y-1471235D01*
X42890552Y-1021095D01*
X42907160Y-975177D01*
X42953078Y-958569D01*
X43002735Y-958730D01*
X43060025Y-959348D01*
X43114808Y-960430D01*
X43167084Y-961976D01*
X43216852Y-963985D01*
X43240796Y-965163D01*
X43240796Y-1153963D01*
X43057858Y-1153963D01*
X43057858Y-1338367D01*
X43509707Y-1338367D01*
X43509707Y-781737D01*
G37*
G36*
X44503531Y-760000D02*
G01*
X44223873Y-760000D01*
X43898542Y-1329330D01*
X43898542Y-760000D01*
X43629875Y-760000D01*
X43629875Y-1760418D01*
X43909533Y-1760418D01*
X44234620Y-1191332D01*
X44234620Y-1760418D01*
X44503531Y-1760418D01*
X44503531Y-760000D01*
G37*
G36*
X45266258Y-762970D02*
G01*
X45318883Y-771883D01*
X45366046Y-786738D01*
X45414169Y-811579D01*
X45454857Y-844508D01*
X45487881Y-885292D01*
X45512794Y-933485D01*
X45527691Y-980692D01*
X45536630Y-1033343D01*
X45539610Y-1091437D01*
X45539610Y-1428981D01*
X45536630Y-1487067D01*
X45527691Y-1539691D01*
X45512794Y-1586855D01*
X45487881Y-1634977D01*
X45454857Y-1675666D01*
X45414169Y-1708690D01*
X45366046Y-1733602D01*
X45318883Y-1748500D01*
X45266258Y-1757439D01*
X45208172Y-1760418D01*
X44651787Y-1760418D01*
X44651787Y-1547927D01*
X44920454Y-1547927D01*
X45151996Y-1547927D01*
X45186193Y-1545023D01*
X45233140Y-1525160D01*
X45263279Y-1481020D01*
X45270698Y-1428981D01*
X45270698Y-1091437D01*
X45267800Y-1057170D01*
X45247978Y-1010126D01*
X45203928Y-979925D01*
X45151996Y-972491D01*
X44920454Y-972491D01*
X44920454Y-1547927D01*
X44651787Y-1547927D01*
X44651787Y-760000D01*
X45208172Y-760000D01*
X45266258Y-762970D01*
G37*
D12*
G36*
X7951929Y-11467879D02*
G01*
X8516130Y-11467879D01*
X8516130Y-9944536D01*
X8511027Y-9831866D01*
X8492174Y-9715596D01*
X8459429Y-9615673D01*
X8404997Y-9521490D01*
X8370976Y-9482404D01*
X8287661Y-9418900D01*
X8182867Y-9373539D01*
X8073553Y-9348733D01*
X7966768Y-9338526D01*
X7908845Y-9337251D01*
X7229752Y-9337251D01*
X7116926Y-9342354D01*
X7000565Y-9361207D01*
X6900648Y-9393951D01*
X6806593Y-9448384D01*
X6767620Y-9482404D01*
X6704115Y-9565912D01*
X6658755Y-9670770D01*
X6633948Y-9780035D01*
X6623742Y-9886700D01*
X6622466Y-9944536D01*
X6622466Y-11467879D01*
X7186667Y-11467879D01*
X7186667Y-9944536D01*
X7213247Y-9840592D01*
X7301324Y-9787915D01*
X7347721Y-9783995D01*
X7790875Y-9783995D01*
X7895151Y-9810491D01*
X7949413Y-9906909D01*
X7951929Y-9944536D01*
X7951929Y-11467879D01*
G37*
G36*
X9833283Y-9367000D02*
G01*
X8737194Y-9367000D01*
X8737194Y-9813231D01*
X9002882Y-9813231D01*
X9002882Y-11021647D01*
X8737194Y-11021647D01*
X8737194Y-11467879D01*
X9833283Y-11467879D01*
X9833283Y-11021647D01*
X9567595Y-11021647D01*
X9567595Y-9813231D01*
X9833283Y-9813231D01*
X9833283Y-9367000D01*
G37*
G36*
X11893642Y-9367000D02*
G01*
X11306360Y-9367000D01*
X10623164Y-10562593D01*
X10623164Y-9367000D01*
X10058963Y-9367000D01*
X10058963Y-11467879D01*
X10646245Y-11467879D01*
X11328928Y-10272799D01*
X11328928Y-11467879D01*
X11893642Y-11467879D01*
X11893642Y-9367000D01*
G37*
G36*
X13212334Y-9367000D02*
G01*
X12116245Y-9367000D01*
X12116245Y-9813231D01*
X12381933Y-9813231D01*
X12381933Y-11021647D01*
X12116245Y-11021647D01*
X12116245Y-11467879D01*
X13212334Y-11467879D01*
X13212334Y-11021647D01*
X12946646Y-11021647D01*
X12946646Y-9813231D01*
X13212334Y-9813231D01*
X13212334Y-9367000D01*
G37*
G36*
X14782316Y-9338526D02*
G01*
X14889101Y-9348733D01*
X14998415Y-9373539D01*
X15103208Y-9418900D01*
X15186524Y-9482404D01*
X15220545Y-9521490D01*
X15274977Y-9615673D01*
X15307722Y-9715596D01*
X15326575Y-9831866D01*
X15331678Y-9944536D01*
X15331678Y-10890342D01*
X15330402Y-10948174D01*
X15320196Y-11054803D01*
X15295389Y-11163980D01*
X15250029Y-11268677D01*
X15186524Y-11351961D01*
X15147551Y-11386102D01*
X15053496Y-11440727D01*
X14953579Y-11473587D01*
X14837219Y-11492506D01*
X14724392Y-11497628D01*
X13985802Y-11497628D01*
X13927966Y-11496347D01*
X13821301Y-11486105D01*
X13712036Y-11461211D01*
X13607178Y-11415690D01*
X13523670Y-11351961D01*
X13489650Y-11312996D01*
X13435217Y-11219005D01*
X13402473Y-11119197D01*
X13383620Y-11002994D01*
X13378517Y-10890342D01*
X13378517Y-9944536D01*
X13943230Y-9944536D01*
X13943230Y-10890342D01*
X13945747Y-10927969D01*
X14000008Y-11024387D01*
X14104284Y-11050883D01*
X14606423Y-11050883D01*
X14652820Y-11046964D01*
X14740897Y-10994286D01*
X14767477Y-10890342D01*
X14767477Y-9944536D01*
X14764960Y-9906909D01*
X14710699Y-9810491D01*
X14606423Y-9783995D01*
X14104284Y-9783995D01*
X14057887Y-9787915D01*
X13969811Y-9840592D01*
X13943230Y-9944536D01*
X13378517Y-9944536D01*
X13379792Y-9886700D01*
X13389998Y-9780035D01*
X13414805Y-9670770D01*
X13460165Y-9565912D01*
X13523670Y-9482404D01*
X13562755Y-9448384D01*
X13656939Y-9393951D01*
X13756862Y-9361207D01*
X13873132Y-9342354D01*
X13985802Y-9337251D01*
X14724392Y-9337251D01*
X14782316Y-9338526D01*
G37*
G36*
X15495296Y-10194323D02*
G01*
X15495296Y-10640555D01*
X16739103Y-10640555D01*
X16739103Y-10194323D01*
X15495296Y-10194323D01*
G37*
G36*
X17528984Y-9813231D02*
G01*
X18607634Y-9813231D01*
X18607634Y-9367000D01*
X16964783Y-9367000D01*
X16964783Y-11467879D01*
X17528984Y-11467879D01*
X17528984Y-9813231D01*
G37*
G36*
X19950637Y-9340431D02*
G01*
X20062665Y-9362187D01*
X20159195Y-9404553D01*
X20240226Y-9467530D01*
X20284501Y-9520003D01*
X20333737Y-9611560D01*
X20362363Y-9718535D01*
X20370505Y-9826567D01*
X20370505Y-10506173D01*
X20367325Y-10575107D01*
X20345569Y-10687136D01*
X20303203Y-10783665D01*
X20240226Y-10864697D01*
X20187928Y-10908971D01*
X20096564Y-10958208D01*
X19989702Y-10986833D01*
X19881702Y-10994976D01*
X19202096Y-10994976D01*
X19133149Y-10991795D01*
X19021035Y-10970040D01*
X18924339Y-10927673D01*
X18843060Y-10864697D01*
X18798785Y-10812398D01*
X18749549Y-10721034D01*
X18720923Y-10614172D01*
X18712780Y-10506173D01*
X18712780Y-9870677D01*
X19262620Y-9870677D01*
X19262620Y-10461549D01*
X19272588Y-10515375D01*
X19364689Y-10563618D01*
X19719110Y-10563618D01*
X19772665Y-10553651D01*
X19820666Y-10461549D01*
X19820666Y-9870677D01*
X19810748Y-9817122D01*
X19719110Y-9769121D01*
X19364689Y-9769121D01*
X19310863Y-9779039D01*
X19262620Y-9870677D01*
X18712780Y-9870677D01*
X18712780Y-9826567D01*
X18715961Y-9757620D01*
X18737717Y-9645506D01*
X18780083Y-9548809D01*
X18843060Y-9467530D01*
X18895533Y-9423255D01*
X18987090Y-9374019D01*
X19094065Y-9345393D01*
X19202096Y-9337251D01*
X19881702Y-9337251D01*
X19950637Y-9340431D01*
G37*
G36*
X21740760Y-8836221D02*
G01*
X21846789Y-8852855D01*
X21949371Y-8894750D01*
X22035924Y-8961288D01*
X22058473Y-8985658D01*
X22117618Y-9077180D01*
X22152119Y-9184531D01*
X22162100Y-9294679D01*
X22162100Y-10965740D01*
X21052676Y-10965740D01*
X20983728Y-10962547D01*
X20871614Y-10940705D01*
X20774918Y-10898173D01*
X20693639Y-10834948D01*
X20649364Y-10782649D01*
X20600128Y-10691285D01*
X20571502Y-10584423D01*
X20563360Y-10476424D01*
X20563360Y-9944536D01*
X21113199Y-9944536D01*
X21113199Y-10432314D01*
X21123167Y-10485869D01*
X21215268Y-10533870D01*
X21612260Y-10533870D01*
X21612260Y-9884526D01*
X21602645Y-9882885D01*
X21492841Y-9868273D01*
X21386602Y-9860459D01*
X21274253Y-9857854D01*
X21200394Y-9857854D01*
X21137819Y-9882474D01*
X21113199Y-9944536D01*
X20563360Y-9944536D01*
X20563360Y-9885551D01*
X20564469Y-9847411D01*
X20581103Y-9741536D01*
X20622997Y-9638934D01*
X20689535Y-9552160D01*
X20713906Y-9529611D01*
X20805428Y-9470466D01*
X20912779Y-9435965D01*
X21022927Y-9425984D01*
X21126535Y-9425984D01*
X21167670Y-9426471D01*
X21281817Y-9432530D01*
X21387007Y-9443511D01*
X21497155Y-9459794D01*
X21612260Y-9481378D01*
X21612260Y-9353664D01*
X21587641Y-9291602D01*
X21525579Y-9266982D01*
X21468223Y-9267383D01*
X21361351Y-9269835D01*
X21240379Y-9274516D01*
X21133450Y-9279865D01*
X21017496Y-9286641D01*
X20892518Y-9294844D01*
X20758516Y-9304473D01*
X20652093Y-9312631D01*
X20652093Y-8895635D01*
X20760856Y-8884819D01*
X20867491Y-8875067D01*
X20971999Y-8866378D01*
X21074378Y-8858754D01*
X21207575Y-8850243D01*
X21336988Y-8843623D01*
X21462619Y-8838895D01*
X21584467Y-8836058D01*
X21702533Y-8835112D01*
X21740760Y-8836221D01*
G37*
G36*
X23097648Y-10906755D02*
G01*
X23097648Y-9367000D01*
X22547808Y-9367000D01*
X22547808Y-10474885D01*
X22326231Y-10474885D01*
X22326231Y-10906755D01*
X23097648Y-10906755D01*
G37*
G36*
X22547808Y-11497628D02*
G01*
X23097648Y-11497628D01*
X23097648Y-11050883D01*
X22547808Y-11050883D01*
X22547808Y-11497628D01*
G37*
G36*
X24775889Y-9398287D02*
G01*
X24670695Y-9387379D01*
X24568034Y-9377544D01*
X24435095Y-9366100D01*
X24306659Y-9356563D01*
X24182727Y-9348933D01*
X24063299Y-9343211D01*
X23948375Y-9339397D01*
X23837955Y-9337489D01*
X23784434Y-9337251D01*
X23674286Y-9347231D01*
X23566935Y-9381733D01*
X23475413Y-9440878D01*
X23451043Y-9463427D01*
X23384505Y-9550201D01*
X23342610Y-9652803D01*
X23325976Y-9758677D01*
X23324867Y-9796818D01*
X23324867Y-10476424D01*
X23333009Y-10584423D01*
X23361635Y-10691285D01*
X23410871Y-10782649D01*
X23455146Y-10834948D01*
X23536425Y-10898173D01*
X23633122Y-10940705D01*
X23745236Y-10962547D01*
X23814183Y-10965740D01*
X24775889Y-10965740D01*
X24775889Y-10533870D01*
X23976775Y-10533870D01*
X23884674Y-10485869D01*
X23874706Y-10432314D01*
X23874706Y-9856316D01*
X23899326Y-9793741D01*
X23961901Y-9769121D01*
X24071313Y-9770726D01*
X24177725Y-9774515D01*
X24297985Y-9780533D01*
X24404166Y-9786953D01*
X24519210Y-9794798D01*
X24643118Y-9804071D01*
X24775889Y-9814770D01*
X24775889Y-9398287D01*
G37*
G36*
X24912323Y-10194323D02*
G01*
X24912323Y-10640555D01*
X26156130Y-10640555D01*
X26156130Y-10194323D01*
X24912323Y-10194323D01*
G37*
G36*
X27803597Y-10801609D02*
G01*
X27793141Y-10691699D01*
X27761775Y-10588613D01*
X27709497Y-10492350D01*
X27636308Y-10402909D01*
X27585097Y-10354864D01*
X27502976Y-10287684D01*
X27441995Y-10241511D01*
X26848046Y-9813231D01*
X27803597Y-9813231D01*
X27803597Y-9367000D01*
X26175108Y-9367000D01*
X26175108Y-9952743D01*
X27238883Y-10721082D01*
X27238883Y-10860593D01*
X27212303Y-10964869D01*
X27124227Y-11017715D01*
X27077829Y-11021647D01*
X26234092Y-11021647D01*
X26234092Y-11467879D01*
X27196311Y-11467879D01*
X27308963Y-11462776D01*
X27425166Y-11443923D01*
X27524975Y-11411178D01*
X27618965Y-11356746D01*
X27657930Y-11322725D01*
X27721659Y-11239409D01*
X27767180Y-11134616D01*
X27792074Y-11025302D01*
X27802317Y-10918517D01*
X27803597Y-10860593D01*
X27803597Y-10801609D01*
G37*
G36*
X28884811Y-9780405D02*
G01*
X27791800Y-9780405D01*
X27791800Y-10215353D01*
X28507822Y-11467879D01*
X29136650Y-11467879D01*
X28427295Y-10227150D01*
X28884811Y-10227150D01*
X28884811Y-10670304D01*
X29449525Y-10670304D01*
X29449525Y-10227150D01*
X29656228Y-10227150D01*
X29656228Y-9780405D01*
X29449525Y-9780405D01*
X29449525Y-9367000D01*
X28884811Y-9367000D01*
X28884811Y-9780405D01*
G37*
G36*
X31592976Y-10472321D02*
G01*
X31205216Y-9780405D01*
X30772320Y-9780405D01*
X30384560Y-10472321D01*
X30384560Y-9367000D01*
X29820359Y-9367000D01*
X29820359Y-11467879D01*
X30407641Y-11467879D01*
X30988768Y-10392819D01*
X31569895Y-11467879D01*
X32157177Y-11467879D01*
X32157177Y-9367000D01*
X31592976Y-9367000D01*
X31592976Y-10472321D01*
G37*
G36*
X34299602Y-9367000D02*
G01*
X33734888Y-9367000D01*
X33734888Y-10209198D01*
X33029124Y-10209198D01*
X33029124Y-9367000D01*
X32464923Y-9367000D01*
X32464923Y-11467879D01*
X33029124Y-11467879D01*
X33029124Y-10655429D01*
X33734888Y-10655429D01*
X33734888Y-11467879D01*
X34299602Y-11467879D01*
X34299602Y-9367000D01*
G37*
G36*
X35987588Y-10543102D02*
G01*
X35199759Y-9798870D01*
X35987588Y-9798870D01*
X35987588Y-9367000D01*
X34492456Y-9367000D01*
X34492456Y-9789637D01*
X35280286Y-10533870D01*
X34492456Y-10533870D01*
X34492456Y-10965740D01*
X35987588Y-10965740D01*
X35987588Y-10543102D01*
G37*
D10*
G36*
X43787273Y-16014898D02*
G01*
X43728055Y-16009704D01*
X43670841Y-16005021D01*
X43615632Y-16000848D01*
X43562429Y-15997187D01*
X43511230Y-15994036D01*
X43462036Y-15991397D01*
X43399564Y-15988672D01*
X43340655Y-15986855D01*
X43285311Y-15985947D01*
X43258976Y-15985833D01*
X43208638Y-15988186D01*
X43156487Y-15996878D01*
X43105559Y-16014655D01*
X43063881Y-16040796D01*
X43050637Y-16052756D01*
X43018287Y-16096391D01*
X42998419Y-16145007D01*
X42987897Y-16195134D01*
X42983780Y-16252344D01*
X42983714Y-16261095D01*
X42983714Y-16711235D01*
X42986144Y-16764961D01*
X42995122Y-16820371D01*
X43010715Y-16867951D01*
X43036635Y-16912739D01*
X43052835Y-16931297D01*
X43092601Y-16961538D01*
X43142533Y-16983138D01*
X43194564Y-16994951D01*
X43245357Y-16999811D01*
X43272898Y-17000418D01*
X43787273Y-17000418D01*
X43787273Y-16787927D01*
X43329318Y-16787927D01*
X43279663Y-16775270D01*
X43254498Y-16733329D01*
X43252626Y-16711235D01*
X43252626Y-16261095D01*
X43269234Y-16215177D01*
X43313931Y-16198569D01*
X43364088Y-16199053D01*
X43376945Y-16199302D01*
X43426575Y-16200540D01*
X43449974Y-16201256D01*
X43500088Y-16203179D01*
X43526422Y-16204187D01*
X43577023Y-16206685D01*
X43626317Y-16209804D01*
X43677688Y-16213193D01*
X43728736Y-16216437D01*
X43781083Y-16219683D01*
X43787273Y-16220062D01*
X43787273Y-16014898D01*
G37*
G36*
X44753254Y-16000000D02*
G01*
X44484342Y-16000000D01*
X44484342Y-16401046D01*
X44148264Y-16401046D01*
X44148264Y-16000000D01*
X43879597Y-16000000D01*
X43879597Y-17000418D01*
X44148264Y-17000418D01*
X44148264Y-16613538D01*
X44484342Y-16613538D01*
X44484342Y-17000418D01*
X44753254Y-17000418D01*
X44753254Y-16000000D01*
G37*
G36*
X45620560Y-16683147D02*
G01*
X45615581Y-16630809D01*
X45600645Y-16581720D01*
X45575751Y-16535880D01*
X45540899Y-16493290D01*
X45516513Y-16470411D01*
X45477407Y-16438421D01*
X45448369Y-16416434D01*
X45165536Y-16212491D01*
X45620560Y-16212491D01*
X45620560Y-16000000D01*
X44845089Y-16000000D01*
X44845089Y-16278925D01*
X45351649Y-16644801D01*
X45351649Y-16711235D01*
X45338992Y-16760890D01*
X45297050Y-16786055D01*
X45274957Y-16787927D01*
X44873177Y-16787927D01*
X44873177Y-17000418D01*
X45331377Y-17000418D01*
X45385020Y-16997988D01*
X45440355Y-16989011D01*
X45487883Y-16973418D01*
X45532640Y-16947498D01*
X45551195Y-16931297D01*
X45581542Y-16891623D01*
X45603219Y-16841721D01*
X45615073Y-16789667D01*
X45619950Y-16738817D01*
X45620560Y-16711235D01*
X45620560Y-16683147D01*
G37*
G36*
X43838998Y-3324898D02*
G01*
X43779780Y-3319704D01*
X43722566Y-3315021D01*
X43667357Y-3310848D01*
X43614154Y-3307187D01*
X43562955Y-3304036D01*
X43513761Y-3301397D01*
X43451289Y-3298672D01*
X43392380Y-3296855D01*
X43337036Y-3295947D01*
X43310701Y-3295833D01*
X43260363Y-3298186D01*
X43208212Y-3306878D01*
X43157284Y-3324655D01*
X43115606Y-3350796D01*
X43102362Y-3362756D01*
X43070012Y-3406391D01*
X43050144Y-3455007D01*
X43039622Y-3505134D01*
X43035505Y-3562344D01*
X43035439Y-3571095D01*
X43035439Y-4021235D01*
X43037869Y-4074961D01*
X43046847Y-4130371D01*
X43062440Y-4177951D01*
X43088360Y-4222739D01*
X43104560Y-4241297D01*
X43144326Y-4271538D01*
X43194258Y-4293138D01*
X43246289Y-4304951D01*
X43297082Y-4309811D01*
X43324623Y-4310418D01*
X43838998Y-4310418D01*
X43838998Y-4097927D01*
X43381043Y-4097927D01*
X43331388Y-4085270D01*
X43306223Y-4043329D01*
X43304351Y-4021235D01*
X43304351Y-3571095D01*
X43320959Y-3525177D01*
X43365656Y-3508569D01*
X43415813Y-3509053D01*
X43428670Y-3509302D01*
X43478300Y-3510540D01*
X43501699Y-3511256D01*
X43551813Y-3513179D01*
X43578147Y-3514187D01*
X43628748Y-3516685D01*
X43678042Y-3519804D01*
X43729413Y-3523193D01*
X43780461Y-3526437D01*
X43832808Y-3529683D01*
X43838998Y-3530062D01*
X43838998Y-3324898D01*
G37*
G36*
X44804979Y-3310000D02*
G01*
X44536067Y-3310000D01*
X44536067Y-3711046D01*
X44199989Y-3711046D01*
X44199989Y-3310000D01*
X43931322Y-3310000D01*
X43931322Y-4310418D01*
X44199989Y-4310418D01*
X44199989Y-3923538D01*
X44536067Y-3923538D01*
X44536067Y-4310418D01*
X44804979Y-4310418D01*
X44804979Y-3310000D01*
G37*
G36*
X44882892Y-4310418D02*
G01*
X45658119Y-4310418D01*
X45658119Y-4104277D01*
X45331811Y-3310000D01*
X45033346Y-3310000D01*
X45371134Y-4097927D01*
X44882892Y-4097927D01*
X44882892Y-4310418D01*
G37*
D13*
%TO.C,HOLE2*%
X42340000Y-3305000D02*
G75*
G02*
X38740000Y-3305000I-1800000J0D01*
G01*
X38740000Y-3305000D02*
G75*
G02*
X42340000Y-3305000I1800000J0D01*
G01*
%TO.C,HOLE4*%
X2100000Y-3305000D02*
G75*
G02*
X-1500000Y-3305000I-1800000J0D01*
G01*
X-1500000Y-3305000D02*
G75*
G02*
X2100000Y-3305000I1800000J0D01*
G01*
%TO.C,HOLE3*%
X2100000Y-22105000D02*
G75*
G02*
X-1500000Y-22105000I-1800000J0D01*
G01*
X-1500000Y-22105000D02*
G75*
G02*
X2100000Y-22105000I1800000J0D01*
G01*
%TO.C,HOLE1*%
X42340000Y-22105000D02*
G75*
G02*
X38740000Y-22105000I-1800000J0D01*
G01*
X38740000Y-22105000D02*
G75*
G02*
X42340000Y-22105000I1800000J0D01*
G01*
%TD*%
%LPC*%
D14*
%TO.C,HOLE2*%
X40540000Y-3305000D03*
%TD*%
%TO.C,HOLE4*%
X300000Y-3305000D03*
%TD*%
D15*
%TO.C,USB1*%
X2377000Y-9810000D03*
X2377000Y-15590000D03*
D16*
X2877000Y-8375000D03*
X2877000Y-17025000D03*
D17*
X-1323000Y-8375000D03*
X-1323000Y-17025000D03*
%TD*%
D14*
%TO.C,HOLE3*%
X300000Y-22105000D03*
%TD*%
D18*
%TO.C,J1*%
X47100000Y-1275000D03*
D19*
X47100000Y-3815000D03*
X47100000Y-6355000D03*
X47100000Y-8895000D03*
X47100000Y-11435000D03*
X47100000Y-13975000D03*
X47100000Y-16515000D03*
X47100000Y-19055000D03*
X47100000Y-21595000D03*
X47100000Y-24135000D03*
%TD*%
D14*
%TO.C,HOLE1*%
X40540000Y-22105000D03*
%TD*%
%LPD*%
M02*
