%TF.GenerationSoftware,KiCad,Pcbnew,8.0.6*%
%TF.CreationDate,2024-10-29T13:46:17+08:00*%
%TF.ProjectId,UINIO-Logic-24MHz,55494e49-4f2d-44c6-9f67-69632d32344d,Version 5.0.0*%
%TF.SameCoordinates,PX78f6cc0PY58928f8*%
%TF.FileFunction,Paste,Top*%
%TF.FilePolarity,Positive*%
%FSLAX46Y46*%
G04 Gerber Fmt 4.6, Leading zero omitted, Abs format (unit mm)*
G04 Created by KiCad (PCBNEW 8.0.6) date 2024-10-29 13:46:17*
%MOMM*%
%LPD*%
G01*
G04 APERTURE LIST*
G04 Aperture macros list*
%AMRoundRect*
0 Rectangle with rounded corners*
0 $1 Rounding radius*
0 $2 $3 $4 $5 $6 $7 $8 $9 X,Y pos of 4 corners*
0 Add a 4 corners polygon primitive as box body*
4,1,4,$2,$3,$4,$5,$6,$7,$8,$9,$2,$3,0*
0 Add four circle primitives for the rounded corners*
1,1,$1+$1,$2,$3*
1,1,$1+$1,$4,$5*
1,1,$1+$1,$6,$7*
1,1,$1+$1,$8,$9*
0 Add four rect primitives between the rounded corners*
20,1,$1+$1,$2,$3,$4,$5,0*
20,1,$1+$1,$4,$5,$6,$7,0*
20,1,$1+$1,$6,$7,$8,$9,0*
20,1,$1+$1,$8,$9,$2,$3,0*%
%AMFreePoly0*
4,1,9,0.435000,0.357500,0.435000,-0.357500,0.290000,-0.502500,-0.290000,-0.502500,-0.435000,-0.357500,-0.435000,0.357500,-0.290000,0.502500,0.290000,0.502500,0.435000,0.357500,0.435000,0.357500,$1*%
G04 Aperture macros list end*
%ADD10C,0.120000*%
%ADD11RoundRect,0.100000X0.637500X0.100000X-0.637500X0.100000X-0.637500X-0.100000X0.637500X-0.100000X0*%
%ADD12RoundRect,0.250000X-1.000000X-0.650000X1.000000X-0.650000X1.000000X0.650000X-1.000000X0.650000X0*%
%ADD13RoundRect,0.140000X-0.170000X0.140000X-0.170000X-0.140000X0.170000X-0.140000X0.170000X0.140000X0*%
%ADD14RoundRect,0.150000X-0.200000X0.150000X-0.200000X-0.150000X0.200000X-0.150000X0.200000X0.150000X0*%
%ADD15RoundRect,0.135000X0.185000X-0.135000X0.185000X0.135000X-0.185000X0.135000X-0.185000X-0.135000X0*%
%ADD16RoundRect,0.140000X-0.140000X-0.170000X0.140000X-0.170000X0.140000X0.170000X-0.140000X0.170000X0*%
%ADD17RoundRect,0.200000X-0.200000X-0.275000X0.200000X-0.275000X0.200000X0.275000X-0.200000X0.275000X0*%
%ADD18RoundRect,0.140000X0.140000X0.170000X-0.140000X0.170000X-0.140000X-0.170000X0.140000X-0.170000X0*%
%ADD19RoundRect,0.135000X-0.185000X0.135000X-0.185000X-0.135000X0.185000X-0.135000X0.185000X0.135000X0*%
%ADD20FreePoly0,90.000000*%
%ADD21RoundRect,0.062500X0.062500X-0.375000X0.062500X0.375000X-0.062500X0.375000X-0.062500X-0.375000X0*%
%ADD22RoundRect,0.062500X0.375000X-0.062500X0.375000X0.062500X-0.375000X0.062500X-0.375000X-0.062500X0*%
%ADD23R,1.150000X0.600000*%
%ADD24R,1.150000X0.300000*%
%ADD25RoundRect,0.140000X0.170000X-0.140000X0.170000X0.140000X-0.170000X0.140000X-0.170000X-0.140000X0*%
%ADD26RoundRect,0.250000X-0.375000X-0.625000X0.375000X-0.625000X0.375000X0.625000X-0.375000X0.625000X0*%
%ADD27RoundRect,0.218750X0.218750X0.256250X-0.218750X0.256250X-0.218750X-0.256250X0.218750X-0.256250X0*%
%ADD28RoundRect,0.135000X-0.135000X-0.185000X0.135000X-0.185000X0.135000X0.185000X-0.135000X0.185000X0*%
%ADD29RoundRect,0.218750X0.256250X-0.218750X0.256250X0.218750X-0.256250X0.218750X-0.256250X-0.218750X0*%
%ADD30RoundRect,0.150000X0.200000X-0.150000X0.200000X0.150000X-0.200000X0.150000X-0.200000X-0.150000X0*%
%ADD31R,1.200000X1.400000*%
%ADD32O,1.742000X0.364000*%
%ADD33R,1.000000X0.600000*%
G04 APERTURE END LIST*
D10*
%TO.C,USB1*%
X4214000Y-9800000D02*
X3064000Y-9800000D01*
X3064000Y-9200000D01*
X4214000Y-9200000D01*
X4214000Y-9800000D01*
G36*
X4214000Y-9800000D02*
G01*
X3064000Y-9800000D01*
X3064000Y-9200000D01*
X4214000Y-9200000D01*
X4214000Y-9800000D01*
G37*
X4214000Y-10600000D02*
X3064000Y-10600000D01*
X3064000Y-10000000D01*
X4214000Y-10000000D01*
X4214000Y-10600000D01*
G36*
X4214000Y-10600000D02*
G01*
X3064000Y-10600000D01*
X3064000Y-10000000D01*
X4214000Y-10000000D01*
X4214000Y-10600000D01*
G37*
X4214000Y-11100000D02*
X3064000Y-11100000D01*
X3064000Y-10800000D01*
X4214000Y-10800000D01*
X4214000Y-11100000D01*
G36*
X4214000Y-11100000D02*
G01*
X3064000Y-11100000D01*
X3064000Y-10800000D01*
X4214000Y-10800000D01*
X4214000Y-11100000D01*
G37*
X4214000Y-11600000D02*
X3064000Y-11600000D01*
X3064000Y-11300000D01*
X4214000Y-11300000D01*
X4214000Y-11600000D01*
G36*
X4214000Y-11600000D02*
G01*
X3064000Y-11600000D01*
X3064000Y-11300000D01*
X4214000Y-11300000D01*
X4214000Y-11600000D01*
G37*
X4214000Y-12100000D02*
X3064000Y-12100000D01*
X3064000Y-11800000D01*
X4214000Y-11800000D01*
X4214000Y-12100000D01*
G36*
X4214000Y-12100000D02*
G01*
X3064000Y-12100000D01*
X3064000Y-11800000D01*
X4214000Y-11800000D01*
X4214000Y-12100000D01*
G37*
X4214000Y-12600000D02*
X3064000Y-12600000D01*
X3064000Y-12300000D01*
X4214000Y-12300000D01*
X4214000Y-12600000D01*
G36*
X4214000Y-12600000D02*
G01*
X3064000Y-12600000D01*
X3064000Y-12300000D01*
X4214000Y-12300000D01*
X4214000Y-12600000D01*
G37*
X4214000Y-13100000D02*
X3064000Y-13100000D01*
X3064000Y-12800000D01*
X4214000Y-12800000D01*
X4214000Y-13100000D01*
G36*
X4214000Y-13100000D02*
G01*
X3064000Y-13100000D01*
X3064000Y-12800000D01*
X4214000Y-12800000D01*
X4214000Y-13100000D01*
G37*
X4214000Y-13600000D02*
X3064000Y-13600000D01*
X3064000Y-13300000D01*
X4214000Y-13300000D01*
X4214000Y-13600000D01*
G36*
X4214000Y-13600000D02*
G01*
X3064000Y-13600000D01*
X3064000Y-13300000D01*
X4214000Y-13300000D01*
X4214000Y-13600000D01*
G37*
X4214000Y-14100000D02*
X3064000Y-14100000D01*
X3064000Y-13800000D01*
X4214000Y-13800000D01*
X4214000Y-14100000D01*
G36*
X4214000Y-14100000D02*
G01*
X3064000Y-14100000D01*
X3064000Y-13800000D01*
X4214000Y-13800000D01*
X4214000Y-14100000D01*
G37*
X4214000Y-14600000D02*
X3064000Y-14600000D01*
X3064000Y-14300000D01*
X4214000Y-14300000D01*
X4214000Y-14600000D01*
G36*
X4214000Y-14600000D02*
G01*
X3064000Y-14600000D01*
X3064000Y-14300000D01*
X4214000Y-14300000D01*
X4214000Y-14600000D01*
G37*
X4214000Y-15400000D02*
X3064000Y-15400000D01*
X3064000Y-14800000D01*
X4214000Y-14800000D01*
X4214000Y-15400000D01*
G36*
X4214000Y-15400000D02*
G01*
X3064000Y-15400000D01*
X3064000Y-14800000D01*
X4214000Y-14800000D01*
X4214000Y-15400000D01*
G37*
X4214000Y-16200000D02*
X3064000Y-16200000D01*
X3064000Y-15600000D01*
X4214000Y-15600000D01*
X4214000Y-16200000D01*
G36*
X4214000Y-16200000D02*
G01*
X3064000Y-16200000D01*
X3064000Y-15600000D01*
X4214000Y-15600000D01*
X4214000Y-16200000D01*
G37*
X-776000Y-7885000D02*
X-682000Y-7913000D01*
X-596000Y-7959000D01*
X-520000Y-8021000D01*
X-458000Y-8097000D01*
X-411000Y-8184000D01*
X-383000Y-8277000D01*
X-373000Y-8375000D01*
X-383000Y-8473000D01*
X-411000Y-8566000D01*
X-458000Y-8653000D01*
X-520000Y-8729000D01*
X-596000Y-8791000D01*
X-682000Y-8837000D01*
X-776000Y-8865000D01*
X-873000Y-8875000D01*
X-1773000Y-8875000D01*
X-1871000Y-8865000D01*
X-1965000Y-8837000D01*
X-2051000Y-8791000D01*
X-2127000Y-8729000D01*
X-2189000Y-8653000D01*
X-2235000Y-8566000D01*
X-2264000Y-8473000D01*
X-2273000Y-8375000D01*
X-2264000Y-8277000D01*
X-2235000Y-8184000D01*
X-2189000Y-8097000D01*
X-2127000Y-8021000D01*
X-2051000Y-7959000D01*
X-1965000Y-7913000D01*
X-1871000Y-7885000D01*
X-1773000Y-7875000D01*
X-873000Y-7875000D01*
X-776000Y-7885000D01*
G36*
X-776000Y-7885000D02*
G01*
X-682000Y-7913000D01*
X-596000Y-7959000D01*
X-520000Y-8021000D01*
X-458000Y-8097000D01*
X-411000Y-8184000D01*
X-383000Y-8277000D01*
X-373000Y-8375000D01*
X-383000Y-8473000D01*
X-411000Y-8566000D01*
X-458000Y-8653000D01*
X-520000Y-8729000D01*
X-596000Y-8791000D01*
X-682000Y-8837000D01*
X-776000Y-8865000D01*
X-873000Y-8875000D01*
X-1773000Y-8875000D01*
X-1871000Y-8865000D01*
X-1965000Y-8837000D01*
X-2051000Y-8791000D01*
X-2127000Y-8729000D01*
X-2189000Y-8653000D01*
X-2235000Y-8566000D01*
X-2264000Y-8473000D01*
X-2273000Y-8375000D01*
X-2264000Y-8277000D01*
X-2235000Y-8184000D01*
X-2189000Y-8097000D01*
X-2127000Y-8021000D01*
X-2051000Y-7959000D01*
X-1965000Y-7913000D01*
X-1871000Y-7885000D01*
X-1773000Y-7875000D01*
X-873000Y-7875000D01*
X-776000Y-7885000D01*
G37*
X-776000Y-16535000D02*
X-682000Y-16563000D01*
X-596000Y-16609000D01*
X-520000Y-16671000D01*
X-458000Y-16747000D01*
X-411000Y-16834000D01*
X-383000Y-16927000D01*
X-373000Y-17025000D01*
X-383000Y-17123000D01*
X-411000Y-17216000D01*
X-458000Y-17303000D01*
X-520000Y-17379000D01*
X-596000Y-17441000D01*
X-682000Y-17487000D01*
X-776000Y-17515000D01*
X-873000Y-17525000D01*
X-1773000Y-17525000D01*
X-1871000Y-17515000D01*
X-1965000Y-17487000D01*
X-2051000Y-17441000D01*
X-2127000Y-17379000D01*
X-2189000Y-17303000D01*
X-2235000Y-17216000D01*
X-2264000Y-17123000D01*
X-2273000Y-17025000D01*
X-2264000Y-16927000D01*
X-2235000Y-16834000D01*
X-2189000Y-16747000D01*
X-2127000Y-16671000D01*
X-2051000Y-16609000D01*
X-1965000Y-16563000D01*
X-1871000Y-16535000D01*
X-1773000Y-16525000D01*
X-873000Y-16525000D01*
X-776000Y-16535000D01*
G36*
X-776000Y-16535000D02*
G01*
X-682000Y-16563000D01*
X-596000Y-16609000D01*
X-520000Y-16671000D01*
X-458000Y-16747000D01*
X-411000Y-16834000D01*
X-383000Y-16927000D01*
X-373000Y-17025000D01*
X-383000Y-17123000D01*
X-411000Y-17216000D01*
X-458000Y-17303000D01*
X-520000Y-17379000D01*
X-596000Y-17441000D01*
X-682000Y-17487000D01*
X-776000Y-17515000D01*
X-873000Y-17525000D01*
X-1773000Y-17525000D01*
X-1871000Y-17515000D01*
X-1965000Y-17487000D01*
X-2051000Y-17441000D01*
X-2127000Y-17379000D01*
X-2189000Y-17303000D01*
X-2235000Y-17216000D01*
X-2264000Y-17123000D01*
X-2273000Y-17025000D01*
X-2264000Y-16927000D01*
X-2235000Y-16834000D01*
X-2189000Y-16747000D01*
X-2127000Y-16671000D01*
X-2051000Y-16609000D01*
X-1965000Y-16563000D01*
X-1871000Y-16535000D01*
X-1773000Y-16525000D01*
X-873000Y-16525000D01*
X-776000Y-16535000D01*
G37*
X3524000Y-7885000D02*
X3618000Y-7913000D01*
X3704000Y-7959000D01*
X3780000Y-8021000D01*
X3842000Y-8097000D01*
X3889000Y-8184000D01*
X3917000Y-8277000D01*
X3927000Y-8375000D01*
X3917000Y-8473000D01*
X3889000Y-8566000D01*
X3842000Y-8653000D01*
X3780000Y-8729000D01*
X3704000Y-8791000D01*
X3618000Y-8837000D01*
X3524000Y-8865000D01*
X3427000Y-8875000D01*
X2327000Y-8875000D01*
X2229000Y-8865000D01*
X2135000Y-8837000D01*
X2049000Y-8791000D01*
X1973000Y-8729000D01*
X1911000Y-8653000D01*
X1865000Y-8566000D01*
X1836000Y-8473000D01*
X1827000Y-8375000D01*
X1836000Y-8277000D01*
X1865000Y-8184000D01*
X1911000Y-8097000D01*
X1973000Y-8021000D01*
X2049000Y-7959000D01*
X2135000Y-7913000D01*
X2229000Y-7885000D01*
X2327000Y-7875000D01*
X3427000Y-7875000D01*
X3524000Y-7885000D01*
G36*
X3524000Y-7885000D02*
G01*
X3618000Y-7913000D01*
X3704000Y-7959000D01*
X3780000Y-8021000D01*
X3842000Y-8097000D01*
X3889000Y-8184000D01*
X3917000Y-8277000D01*
X3927000Y-8375000D01*
X3917000Y-8473000D01*
X3889000Y-8566000D01*
X3842000Y-8653000D01*
X3780000Y-8729000D01*
X3704000Y-8791000D01*
X3618000Y-8837000D01*
X3524000Y-8865000D01*
X3427000Y-8875000D01*
X2327000Y-8875000D01*
X2229000Y-8865000D01*
X2135000Y-8837000D01*
X2049000Y-8791000D01*
X1973000Y-8729000D01*
X1911000Y-8653000D01*
X1865000Y-8566000D01*
X1836000Y-8473000D01*
X1827000Y-8375000D01*
X1836000Y-8277000D01*
X1865000Y-8184000D01*
X1911000Y-8097000D01*
X1973000Y-8021000D01*
X2049000Y-7959000D01*
X2135000Y-7913000D01*
X2229000Y-7885000D01*
X2327000Y-7875000D01*
X3427000Y-7875000D01*
X3524000Y-7885000D01*
G37*
X3524000Y-16535000D02*
X3618000Y-16563000D01*
X3704000Y-16609000D01*
X3780000Y-16671000D01*
X3842000Y-16747000D01*
X3889000Y-16834000D01*
X3917000Y-16927000D01*
X3927000Y-17025000D01*
X3917000Y-17123000D01*
X3889000Y-17216000D01*
X3842000Y-17303000D01*
X3780000Y-17379000D01*
X3704000Y-17441000D01*
X3618000Y-17487000D01*
X3524000Y-17515000D01*
X3427000Y-17525000D01*
X2327000Y-17525000D01*
X2229000Y-17515000D01*
X2135000Y-17487000D01*
X2049000Y-17441000D01*
X1973000Y-17379000D01*
X1911000Y-17303000D01*
X1865000Y-17216000D01*
X1836000Y-17123000D01*
X1827000Y-17025000D01*
X1836000Y-16927000D01*
X1865000Y-16834000D01*
X1911000Y-16747000D01*
X1973000Y-16671000D01*
X2049000Y-16609000D01*
X2135000Y-16563000D01*
X2229000Y-16535000D01*
X2327000Y-16525000D01*
X3427000Y-16525000D01*
X3524000Y-16535000D01*
G36*
X3524000Y-16535000D02*
G01*
X3618000Y-16563000D01*
X3704000Y-16609000D01*
X3780000Y-16671000D01*
X3842000Y-16747000D01*
X3889000Y-16834000D01*
X3917000Y-16927000D01*
X3927000Y-17025000D01*
X3917000Y-17123000D01*
X3889000Y-17216000D01*
X3842000Y-17303000D01*
X3780000Y-17379000D01*
X3704000Y-17441000D01*
X3618000Y-17487000D01*
X3524000Y-17515000D01*
X3427000Y-17525000D01*
X2327000Y-17525000D01*
X2229000Y-17515000D01*
X2135000Y-17487000D01*
X2049000Y-17441000D01*
X1973000Y-17379000D01*
X1911000Y-17303000D01*
X1865000Y-17216000D01*
X1836000Y-17123000D01*
X1827000Y-17025000D01*
X1836000Y-16927000D01*
X1865000Y-16834000D01*
X1911000Y-16747000D01*
X1973000Y-16671000D01*
X2049000Y-16609000D01*
X2135000Y-16563000D01*
X2229000Y-16535000D01*
X2327000Y-16525000D01*
X3427000Y-16525000D01*
X3524000Y-16535000D01*
G37*
%TD*%
D11*
%TO.C,U1*%
X35732500Y-19210000D03*
X35732500Y-18560000D03*
X35732500Y-17910000D03*
X35732500Y-17260000D03*
X30007500Y-17260000D03*
X30007500Y-17910000D03*
X30007500Y-18560000D03*
X30007500Y-19210000D03*
%TD*%
D12*
%TO.C,D4*%
X24700000Y-22595000D03*
X28700000Y-22595000D03*
%TD*%
D13*
%TO.C,C1*%
X10920000Y-21930000D03*
X10920000Y-22890000D03*
%TD*%
D14*
%TO.C,D5*%
X6590000Y-14675000D03*
X6590000Y-13275000D03*
%TD*%
D15*
%TO.C,R16*%
X36964290Y-23510000D03*
X36964290Y-22490000D03*
%TD*%
%TO.C,R20*%
X11960000Y-10465000D03*
X11960000Y-9445000D03*
%TD*%
D16*
%TO.C,C5*%
X25930000Y-9935000D03*
X24970000Y-9935000D03*
%TD*%
D17*
%TO.C,R24*%
X6545000Y-8385000D03*
X8195000Y-8385000D03*
%TD*%
D18*
%TO.C,C12*%
X11960000Y-17925000D03*
X12920000Y-17925000D03*
%TD*%
D19*
%TO.C,R11*%
X33900000Y-1880000D03*
X33900000Y-2900000D03*
%TD*%
D20*
%TO.C,U4*%
X16707500Y-14200000D03*
X17882500Y-14200000D03*
X19057500Y-14200000D03*
X20232500Y-14200000D03*
X16707500Y-13200000D03*
X17882500Y-13200000D03*
X19057500Y-13200000D03*
X20232500Y-13200000D03*
X16707500Y-12200000D03*
X17882500Y-12200000D03*
X19057500Y-12200000D03*
X20232500Y-12200000D03*
X16707500Y-11200000D03*
X17882500Y-11200000D03*
X19057500Y-11200000D03*
X20232500Y-11200000D03*
D21*
X15220000Y-16637500D03*
X15720000Y-16637500D03*
X16220000Y-16637500D03*
X16720000Y-16637500D03*
X17220000Y-16637500D03*
X17720000Y-16637500D03*
X18220000Y-16637500D03*
X18720000Y-16637500D03*
X19220000Y-16637500D03*
X19720000Y-16637500D03*
X20220000Y-16637500D03*
X20720000Y-16637500D03*
X21220000Y-16637500D03*
X21720000Y-16637500D03*
D22*
X22407500Y-15950000D03*
X22407500Y-15450000D03*
X22407500Y-14950000D03*
X22407500Y-14450000D03*
X22407500Y-13950000D03*
X22407500Y-13450000D03*
X22407500Y-12950000D03*
X22407500Y-12450000D03*
X22407500Y-11950000D03*
X22407500Y-11450000D03*
X22407500Y-10950000D03*
X22407500Y-10450000D03*
X22407500Y-9950000D03*
X22407500Y-9450000D03*
D21*
X21720000Y-8762500D03*
X21220000Y-8762500D03*
X20720000Y-8762500D03*
X20220000Y-8762500D03*
X19720000Y-8762500D03*
X19220000Y-8762500D03*
X18720000Y-8762500D03*
X18220000Y-8762500D03*
X17720000Y-8762500D03*
X17220000Y-8762500D03*
X16720000Y-8762500D03*
X16220000Y-8762500D03*
X15720000Y-8762500D03*
X15220000Y-8762500D03*
D22*
X14532500Y-9450000D03*
X14532500Y-9950000D03*
X14532500Y-10450000D03*
X14532500Y-10950000D03*
X14532500Y-11450000D03*
X14532500Y-11950000D03*
X14532500Y-12450000D03*
X14532500Y-12950000D03*
X14532500Y-13450000D03*
X14532500Y-13950000D03*
X14532500Y-14450000D03*
X14532500Y-14950000D03*
X14532500Y-15450000D03*
X14532500Y-15950000D03*
%TD*%
D19*
%TO.C,R19*%
X20950000Y-2142500D03*
X20950000Y-3162500D03*
%TD*%
D23*
%TO.C,USB1*%
X3639000Y-9500000D03*
X3639000Y-10300000D03*
D24*
X3639000Y-11450000D03*
X3639000Y-12450000D03*
X3639000Y-12950000D03*
X3639000Y-13950000D03*
D23*
X3639000Y-15900000D03*
X3639000Y-15100000D03*
D24*
X3639000Y-14450000D03*
X3639000Y-13450000D03*
X3639000Y-11950000D03*
X3639000Y-10950000D03*
%TD*%
D25*
%TO.C,C2*%
X15710000Y-22890000D03*
X15710000Y-21930000D03*
%TD*%
D26*
%TO.C,F1*%
X18200000Y-22620000D03*
X21000000Y-22620000D03*
%TD*%
D27*
%TO.C,D1*%
X6445000Y-21350000D03*
X4870000Y-21350000D03*
%TD*%
D28*
%TO.C,R3*%
X41070000Y-14899286D03*
X40050000Y-14899286D03*
%TD*%
D29*
%TO.C,D3*%
X22485000Y-3717500D03*
X22485000Y-2142500D03*
%TD*%
D30*
%TO.C,D6*%
X6590000Y-10775000D03*
X6590000Y-12175000D03*
%TD*%
D29*
%TO.C,D2*%
X29045000Y-2135000D03*
X29045000Y-3710000D03*
%TD*%
D25*
%TO.C,C4*%
X20380000Y-7345000D03*
X20380000Y-6385000D03*
%TD*%
D28*
%TO.C,R8*%
X41070000Y-7485000D03*
X40050000Y-7485000D03*
%TD*%
D19*
%TO.C,R18*%
X27500000Y-3155000D03*
X27500000Y-2135000D03*
%TD*%
D28*
%TO.C,R5*%
X41070000Y-11933572D03*
X40050000Y-11933572D03*
%TD*%
%TO.C,R4*%
X41070000Y-13416429D03*
X40050000Y-13416429D03*
%TD*%
D15*
%TO.C,R13*%
X32367858Y-23510000D03*
X32367858Y-22490000D03*
%TD*%
D31*
%TO.C,Y1*%
X9640000Y-2305000D03*
X9640000Y-4505000D03*
X11340000Y-4505000D03*
X11340000Y-2305000D03*
%TD*%
D18*
%TO.C,C11*%
X18210000Y-18675000D03*
X17250000Y-18675000D03*
%TD*%
D13*
%TO.C,C10*%
X15220000Y-1855000D03*
X15220000Y-2815000D03*
%TD*%
D17*
%TO.C,R17*%
X4840000Y-23195000D03*
X6490000Y-23195000D03*
%TD*%
D28*
%TO.C,R2*%
X41070000Y-16382143D03*
X40050000Y-16382143D03*
%TD*%
D16*
%TO.C,C3*%
X20350000Y-18675000D03*
X21310000Y-18675000D03*
%TD*%
%TO.C,C9*%
X10320000Y-5965000D03*
X9360000Y-5965000D03*
%TD*%
D19*
%TO.C,R9*%
X36964290Y-1880000D03*
X36964290Y-2900000D03*
%TD*%
D28*
%TO.C,R1*%
X41070000Y-17865000D03*
X40050000Y-17865000D03*
%TD*%
D15*
%TO.C,R22*%
X25010000Y-18005000D03*
X25010000Y-19025000D03*
%TD*%
D28*
%TO.C,R7*%
X41070000Y-8967858D03*
X40050000Y-8967858D03*
%TD*%
D25*
%TO.C,C7*%
X11960000Y-15435000D03*
X11960000Y-14475000D03*
%TD*%
D19*
%TO.C,R21*%
X25010000Y-17165000D03*
X25010000Y-16145000D03*
%TD*%
D16*
%TO.C,C6*%
X25930000Y-15115000D03*
X24970000Y-15115000D03*
%TD*%
D32*
%TO.C,U2*%
X29993000Y-9630000D03*
X29993000Y-10280000D03*
X29993000Y-10930000D03*
X29993000Y-11580000D03*
X29993000Y-12230000D03*
X29993000Y-12880000D03*
X29993000Y-13530000D03*
X29993000Y-14180000D03*
X29993000Y-14830000D03*
X29993000Y-15480000D03*
X35735000Y-15480000D03*
X35735000Y-14830000D03*
X35735000Y-14180000D03*
X35735000Y-13530000D03*
X35735000Y-12880000D03*
X35735000Y-12230000D03*
X35735000Y-11580000D03*
X35735000Y-10930000D03*
X35735000Y-10280000D03*
X35735000Y-9630000D03*
%TD*%
D15*
%TO.C,R15*%
X35432142Y-23510000D03*
X35432142Y-22490000D03*
%TD*%
D19*
%TO.C,R12*%
X32367858Y-1880000D03*
X32367858Y-2900000D03*
%TD*%
%TO.C,R10*%
X35432142Y-1880000D03*
X35432142Y-2900000D03*
%TD*%
D15*
%TO.C,R14*%
X33900000Y-23510000D03*
X33900000Y-22490000D03*
%TD*%
D17*
%TO.C,R25*%
X6545000Y-17015000D03*
X8195000Y-17015000D03*
%TD*%
D15*
%TO.C,R23*%
X16790000Y-2865000D03*
X16790000Y-1845000D03*
%TD*%
D18*
%TO.C,C8*%
X11180000Y-5965000D03*
X12140000Y-5965000D03*
%TD*%
D33*
%TO.C,U3*%
X12015000Y-21318000D03*
X12015000Y-22268000D03*
X12015000Y-23218000D03*
X14615000Y-23218000D03*
X14615000Y-21318000D03*
%TD*%
D28*
%TO.C,R6*%
X41070000Y-10450715D03*
X40050000Y-10450715D03*
%TD*%
M02*
