%TF.GenerationSoftware,KiCad,Pcbnew,(6.0.11)*%
%TF.CreationDate,2023-02-04T21:15:47+08:00*%
%TF.ProjectId,UINIO-Logic-24MHz,55494e49-4f2d-44c6-9f67-69632d32344d,Version 3.0.0*%
%TF.SameCoordinates,PX91e9840PY6514770*%
%TF.FileFunction,Paste,Top*%
%TF.FilePolarity,Positive*%
%FSLAX46Y46*%
G04 Gerber Fmt 4.6, Leading zero omitted, Abs format (unit mm)*
G04 Created by KiCad (PCBNEW (6.0.11)) date 2023-02-04 21:15:47*
%MOMM*%
%LPD*%
G01*
G04 APERTURE LIST*
G04 Aperture macros list*
%AMRoundRect*
0 Rectangle with rounded corners*
0 $1 Rounding radius*
0 $2 $3 $4 $5 $6 $7 $8 $9 X,Y pos of 4 corners*
0 Add a 4 corners polygon primitive as box body*
4,1,4,$2,$3,$4,$5,$6,$7,$8,$9,$2,$3,0*
0 Add four circle primitives for the rounded corners*
1,1,$1+$1,$2,$3*
1,1,$1+$1,$4,$5*
1,1,$1+$1,$6,$7*
1,1,$1+$1,$8,$9*
0 Add four rect primitives between the rounded corners*
20,1,$1+$1,$2,$3,$4,$5,0*
20,1,$1+$1,$4,$5,$6,$7,0*
20,1,$1+$1,$6,$7,$8,$9,0*
20,1,$1+$1,$8,$9,$2,$3,0*%
%AMFreePoly0*
4,1,9,0.435000,0.357500,0.435000,-0.357500,0.290000,-0.502500,-0.290000,-0.502500,-0.435000,-0.357500,-0.435000,0.357500,-0.290000,0.502500,0.290000,0.502500,0.435000,0.357500,0.435000,0.357500,$1*%
G04 Aperture macros list end*
%ADD10C,0.120000*%
%ADD11RoundRect,0.100000X-0.637500X-0.100000X0.637500X-0.100000X0.637500X0.100000X-0.637500X0.100000X0*%
%ADD12RoundRect,0.140000X-0.170000X0.140000X-0.170000X-0.140000X0.170000X-0.140000X0.170000X0.140000X0*%
%ADD13RoundRect,0.135000X-0.185000X0.135000X-0.185000X-0.135000X0.185000X-0.135000X0.185000X0.135000X0*%
%ADD14RoundRect,0.140000X0.140000X0.170000X-0.140000X0.170000X-0.140000X-0.170000X0.140000X-0.170000X0*%
%ADD15RoundRect,0.135000X0.185000X-0.135000X0.185000X0.135000X-0.185000X0.135000X-0.185000X-0.135000X0*%
%ADD16FreePoly0,270.000000*%
%ADD17RoundRect,0.062500X-0.062500X0.375000X-0.062500X-0.375000X0.062500X-0.375000X0.062500X0.375000X0*%
%ADD18RoundRect,0.062500X-0.375000X0.062500X-0.375000X-0.062500X0.375000X-0.062500X0.375000X0.062500X0*%
%ADD19R,1.150000X0.600000*%
%ADD20R,1.150000X0.300000*%
%ADD21RoundRect,0.218750X-0.256250X0.218750X-0.256250X-0.218750X0.256250X-0.218750X0.256250X0.218750X0*%
%ADD22RoundRect,0.135000X0.135000X0.185000X-0.135000X0.185000X-0.135000X-0.185000X0.135000X-0.185000X0*%
%ADD23R,1.200000X1.400000*%
%ADD24RoundRect,0.140000X0.170000X-0.140000X0.170000X0.140000X-0.170000X0.140000X-0.170000X-0.140000X0*%
%ADD25RoundRect,0.135000X-0.135000X-0.185000X0.135000X-0.185000X0.135000X0.185000X-0.135000X0.185000X0*%
%ADD26O,1.742000X0.364000*%
%ADD27R,1.000000X0.600000*%
G04 APERTURE END LIST*
%TO.C,USB1*%
G36*
X-4446000Y-10660000D02*
G01*
X-5596000Y-10660000D01*
X-5596000Y-10060000D01*
X-4446000Y-10060000D01*
X-4446000Y-10660000D01*
G37*
D10*
X-4446000Y-10660000D02*
X-5596000Y-10660000D01*
X-5596000Y-10060000D01*
X-4446000Y-10060000D01*
X-4446000Y-10660000D01*
G36*
X-4446000Y-16260000D02*
G01*
X-5596000Y-16260000D01*
X-5596000Y-15660000D01*
X-4446000Y-15660000D01*
X-4446000Y-16260000D01*
G37*
X-4446000Y-16260000D02*
X-5596000Y-16260000D01*
X-5596000Y-15660000D01*
X-4446000Y-15660000D01*
X-4446000Y-16260000D01*
G36*
X-4446000Y-12660000D02*
G01*
X-5596000Y-12660000D01*
X-5596000Y-12360000D01*
X-4446000Y-12360000D01*
X-4446000Y-12660000D01*
G37*
X-4446000Y-12660000D02*
X-5596000Y-12660000D01*
X-5596000Y-12360000D01*
X-4446000Y-12360000D01*
X-4446000Y-12660000D01*
G36*
X-4446000Y-11160000D02*
G01*
X-5596000Y-11160000D01*
X-5596000Y-10860000D01*
X-4446000Y-10860000D01*
X-4446000Y-11160000D01*
G37*
X-4446000Y-11160000D02*
X-5596000Y-11160000D01*
X-5596000Y-10860000D01*
X-4446000Y-10860000D01*
X-4446000Y-11160000D01*
G36*
X-4446000Y-14660000D02*
G01*
X-5596000Y-14660000D01*
X-5596000Y-14360000D01*
X-4446000Y-14360000D01*
X-4446000Y-14660000D01*
G37*
X-4446000Y-14660000D02*
X-5596000Y-14660000D01*
X-5596000Y-14360000D01*
X-4446000Y-14360000D01*
X-4446000Y-14660000D01*
G36*
X-4446000Y-13660000D02*
G01*
X-5596000Y-13660000D01*
X-5596000Y-13360000D01*
X-4446000Y-13360000D01*
X-4446000Y-13660000D01*
G37*
X-4446000Y-13660000D02*
X-5596000Y-13660000D01*
X-5596000Y-13360000D01*
X-4446000Y-13360000D01*
X-4446000Y-13660000D01*
G36*
X489000Y-7945000D02*
G01*
X583000Y-7973000D01*
X669000Y-8019000D01*
X745000Y-8081000D01*
X807000Y-8157000D01*
X853000Y-8244000D01*
X882000Y-8337000D01*
X891000Y-8435000D01*
X882000Y-8533000D01*
X853000Y-8626000D01*
X807000Y-8713000D01*
X745000Y-8789000D01*
X669000Y-8851000D01*
X583000Y-8897000D01*
X489000Y-8925000D01*
X391000Y-8935000D01*
X-509000Y-8935000D01*
X-606000Y-8925000D01*
X-700000Y-8897000D01*
X-786000Y-8851000D01*
X-862000Y-8789000D01*
X-924000Y-8713000D01*
X-971000Y-8626000D01*
X-999000Y-8533000D01*
X-1009000Y-8435000D01*
X-999000Y-8337000D01*
X-971000Y-8244000D01*
X-924000Y-8157000D01*
X-862000Y-8081000D01*
X-786000Y-8019000D01*
X-700000Y-7973000D01*
X-606000Y-7945000D01*
X-509000Y-7935000D01*
X391000Y-7935000D01*
X489000Y-7945000D01*
G37*
X489000Y-7945000D02*
X583000Y-7973000D01*
X669000Y-8019000D01*
X745000Y-8081000D01*
X807000Y-8157000D01*
X853000Y-8244000D01*
X882000Y-8337000D01*
X891000Y-8435000D01*
X882000Y-8533000D01*
X853000Y-8626000D01*
X807000Y-8713000D01*
X745000Y-8789000D01*
X669000Y-8851000D01*
X583000Y-8897000D01*
X489000Y-8925000D01*
X391000Y-8935000D01*
X-509000Y-8935000D01*
X-606000Y-8925000D01*
X-700000Y-8897000D01*
X-786000Y-8851000D01*
X-862000Y-8789000D01*
X-924000Y-8713000D01*
X-971000Y-8626000D01*
X-999000Y-8533000D01*
X-1009000Y-8435000D01*
X-999000Y-8337000D01*
X-971000Y-8244000D01*
X-924000Y-8157000D01*
X-862000Y-8081000D01*
X-786000Y-8019000D01*
X-700000Y-7973000D01*
X-606000Y-7945000D01*
X-509000Y-7935000D01*
X391000Y-7935000D01*
X489000Y-7945000D01*
G36*
X-4446000Y-9860000D02*
G01*
X-5596000Y-9860000D01*
X-5596000Y-9260000D01*
X-4446000Y-9260000D01*
X-4446000Y-9860000D01*
G37*
X-4446000Y-9860000D02*
X-5596000Y-9860000D01*
X-5596000Y-9260000D01*
X-4446000Y-9260000D01*
X-4446000Y-9860000D01*
G36*
X-4446000Y-12160000D02*
G01*
X-5596000Y-12160000D01*
X-5596000Y-11860000D01*
X-4446000Y-11860000D01*
X-4446000Y-12160000D01*
G37*
X-4446000Y-12160000D02*
X-5596000Y-12160000D01*
X-5596000Y-11860000D01*
X-4446000Y-11860000D01*
X-4446000Y-12160000D01*
G36*
X-4446000Y-13160000D02*
G01*
X-5596000Y-13160000D01*
X-5596000Y-12860000D01*
X-4446000Y-12860000D01*
X-4446000Y-13160000D01*
G37*
X-4446000Y-13160000D02*
X-5596000Y-13160000D01*
X-5596000Y-12860000D01*
X-4446000Y-12860000D01*
X-4446000Y-13160000D01*
G36*
X489000Y-16595000D02*
G01*
X583000Y-16623000D01*
X669000Y-16669000D01*
X745000Y-16731000D01*
X807000Y-16807000D01*
X853000Y-16894000D01*
X882000Y-16987000D01*
X891000Y-17085000D01*
X882000Y-17183000D01*
X853000Y-17276000D01*
X807000Y-17363000D01*
X745000Y-17439000D01*
X669000Y-17501000D01*
X583000Y-17547000D01*
X489000Y-17575000D01*
X391000Y-17585000D01*
X-509000Y-17585000D01*
X-606000Y-17575000D01*
X-700000Y-17547000D01*
X-786000Y-17501000D01*
X-862000Y-17439000D01*
X-924000Y-17363000D01*
X-971000Y-17276000D01*
X-999000Y-17183000D01*
X-1009000Y-17085000D01*
X-999000Y-16987000D01*
X-971000Y-16894000D01*
X-924000Y-16807000D01*
X-862000Y-16731000D01*
X-786000Y-16669000D01*
X-700000Y-16623000D01*
X-606000Y-16595000D01*
X-509000Y-16585000D01*
X391000Y-16585000D01*
X489000Y-16595000D01*
G37*
X489000Y-16595000D02*
X583000Y-16623000D01*
X669000Y-16669000D01*
X745000Y-16731000D01*
X807000Y-16807000D01*
X853000Y-16894000D01*
X882000Y-16987000D01*
X891000Y-17085000D01*
X882000Y-17183000D01*
X853000Y-17276000D01*
X807000Y-17363000D01*
X745000Y-17439000D01*
X669000Y-17501000D01*
X583000Y-17547000D01*
X489000Y-17575000D01*
X391000Y-17585000D01*
X-509000Y-17585000D01*
X-606000Y-17575000D01*
X-700000Y-17547000D01*
X-786000Y-17501000D01*
X-862000Y-17439000D01*
X-924000Y-17363000D01*
X-971000Y-17276000D01*
X-999000Y-17183000D01*
X-1009000Y-17085000D01*
X-999000Y-16987000D01*
X-971000Y-16894000D01*
X-924000Y-16807000D01*
X-862000Y-16731000D01*
X-786000Y-16669000D01*
X-700000Y-16623000D01*
X-606000Y-16595000D01*
X-509000Y-16585000D01*
X391000Y-16585000D01*
X489000Y-16595000D01*
G36*
X-4446000Y-14160000D02*
G01*
X-5596000Y-14160000D01*
X-5596000Y-13860000D01*
X-4446000Y-13860000D01*
X-4446000Y-14160000D01*
G37*
X-4446000Y-14160000D02*
X-5596000Y-14160000D01*
X-5596000Y-13860000D01*
X-4446000Y-13860000D01*
X-4446000Y-14160000D01*
G36*
X-3611000Y-7945000D02*
G01*
X-3517000Y-7973000D01*
X-3431000Y-8019000D01*
X-3355000Y-8081000D01*
X-3293000Y-8157000D01*
X-3247000Y-8244000D01*
X-3218000Y-8337000D01*
X-3209000Y-8435000D01*
X-3218000Y-8533000D01*
X-3247000Y-8626000D01*
X-3293000Y-8713000D01*
X-3355000Y-8789000D01*
X-3431000Y-8851000D01*
X-3517000Y-8897000D01*
X-3611000Y-8925000D01*
X-3709000Y-8935000D01*
X-4809000Y-8935000D01*
X-4906000Y-8925000D01*
X-5000000Y-8897000D01*
X-5086000Y-8851000D01*
X-5162000Y-8789000D01*
X-5224000Y-8713000D01*
X-5271000Y-8626000D01*
X-5299000Y-8533000D01*
X-5309000Y-8435000D01*
X-5299000Y-8337000D01*
X-5271000Y-8244000D01*
X-5224000Y-8157000D01*
X-5162000Y-8081000D01*
X-5086000Y-8019000D01*
X-5000000Y-7973000D01*
X-4906000Y-7945000D01*
X-4809000Y-7935000D01*
X-3709000Y-7935000D01*
X-3611000Y-7945000D01*
G37*
X-3611000Y-7945000D02*
X-3517000Y-7973000D01*
X-3431000Y-8019000D01*
X-3355000Y-8081000D01*
X-3293000Y-8157000D01*
X-3247000Y-8244000D01*
X-3218000Y-8337000D01*
X-3209000Y-8435000D01*
X-3218000Y-8533000D01*
X-3247000Y-8626000D01*
X-3293000Y-8713000D01*
X-3355000Y-8789000D01*
X-3431000Y-8851000D01*
X-3517000Y-8897000D01*
X-3611000Y-8925000D01*
X-3709000Y-8935000D01*
X-4809000Y-8935000D01*
X-4906000Y-8925000D01*
X-5000000Y-8897000D01*
X-5086000Y-8851000D01*
X-5162000Y-8789000D01*
X-5224000Y-8713000D01*
X-5271000Y-8626000D01*
X-5299000Y-8533000D01*
X-5309000Y-8435000D01*
X-5299000Y-8337000D01*
X-5271000Y-8244000D01*
X-5224000Y-8157000D01*
X-5162000Y-8081000D01*
X-5086000Y-8019000D01*
X-5000000Y-7973000D01*
X-4906000Y-7945000D01*
X-4809000Y-7935000D01*
X-3709000Y-7935000D01*
X-3611000Y-7945000D01*
G36*
X-4446000Y-15460000D02*
G01*
X-5596000Y-15460000D01*
X-5596000Y-14860000D01*
X-4446000Y-14860000D01*
X-4446000Y-15460000D01*
G37*
X-4446000Y-15460000D02*
X-5596000Y-15460000D01*
X-5596000Y-14860000D01*
X-4446000Y-14860000D01*
X-4446000Y-15460000D01*
G36*
X-4446000Y-11660000D02*
G01*
X-5596000Y-11660000D01*
X-5596000Y-11360000D01*
X-4446000Y-11360000D01*
X-4446000Y-11660000D01*
G37*
X-4446000Y-11660000D02*
X-5596000Y-11660000D01*
X-5596000Y-11360000D01*
X-4446000Y-11360000D01*
X-4446000Y-11660000D01*
G36*
X-3611000Y-16595000D02*
G01*
X-3517000Y-16623000D01*
X-3431000Y-16669000D01*
X-3355000Y-16731000D01*
X-3293000Y-16807000D01*
X-3247000Y-16894000D01*
X-3218000Y-16987000D01*
X-3209000Y-17085000D01*
X-3218000Y-17183000D01*
X-3247000Y-17276000D01*
X-3293000Y-17363000D01*
X-3355000Y-17439000D01*
X-3431000Y-17501000D01*
X-3517000Y-17547000D01*
X-3611000Y-17575000D01*
X-3709000Y-17585000D01*
X-4809000Y-17585000D01*
X-4906000Y-17575000D01*
X-5000000Y-17547000D01*
X-5086000Y-17501000D01*
X-5162000Y-17439000D01*
X-5224000Y-17363000D01*
X-5271000Y-17276000D01*
X-5299000Y-17183000D01*
X-5309000Y-17085000D01*
X-5299000Y-16987000D01*
X-5271000Y-16894000D01*
X-5224000Y-16807000D01*
X-5162000Y-16731000D01*
X-5086000Y-16669000D01*
X-5000000Y-16623000D01*
X-4906000Y-16595000D01*
X-4809000Y-16585000D01*
X-3709000Y-16585000D01*
X-3611000Y-16595000D01*
G37*
X-3611000Y-16595000D02*
X-3517000Y-16623000D01*
X-3431000Y-16669000D01*
X-3355000Y-16731000D01*
X-3293000Y-16807000D01*
X-3247000Y-16894000D01*
X-3218000Y-16987000D01*
X-3209000Y-17085000D01*
X-3218000Y-17183000D01*
X-3247000Y-17276000D01*
X-3293000Y-17363000D01*
X-3355000Y-17439000D01*
X-3431000Y-17501000D01*
X-3517000Y-17547000D01*
X-3611000Y-17575000D01*
X-3709000Y-17585000D01*
X-4809000Y-17585000D01*
X-4906000Y-17575000D01*
X-5000000Y-17547000D01*
X-5086000Y-17501000D01*
X-5162000Y-17439000D01*
X-5224000Y-17363000D01*
X-5271000Y-17276000D01*
X-5299000Y-17183000D01*
X-5309000Y-17085000D01*
X-5299000Y-16987000D01*
X-5271000Y-16894000D01*
X-5224000Y-16807000D01*
X-5162000Y-16731000D01*
X-5086000Y-16669000D01*
X-5000000Y-16623000D01*
X-4906000Y-16595000D01*
X-4809000Y-16585000D01*
X-3709000Y-16585000D01*
X-3611000Y-16595000D01*
%TD*%
D11*
%TO.C,U1*%
X-27182500Y-2645000D03*
X-27182500Y-3295000D03*
X-27182500Y-3945000D03*
X-27182500Y-4595000D03*
X-21457500Y-4595000D03*
X-21457500Y-3945000D03*
X-21457500Y-3295000D03*
X-21457500Y-2645000D03*
%TD*%
D12*
%TO.C,C1*%
X-9180000Y-3790000D03*
X-9180000Y-4750000D03*
%TD*%
D13*
%TO.C,R16*%
X-34670000Y-2390000D03*
X-34670000Y-3410000D03*
%TD*%
%TO.C,R20*%
X-10640000Y-15240000D03*
X-10640000Y-16260000D03*
%TD*%
D14*
%TO.C,C5*%
X-23660000Y-15530000D03*
X-24620000Y-15530000D03*
%TD*%
D13*
%TO.C,R24*%
X-4240000Y-22020000D03*
X-4240000Y-23040000D03*
%TD*%
D15*
%TO.C,R11*%
X-31605716Y-23060000D03*
X-31605716Y-22040000D03*
%TD*%
D16*
%TO.C,U4*%
X-17527500Y-13280000D03*
X-18702500Y-13280000D03*
X-16352500Y-14280000D03*
X-18702500Y-11280000D03*
X-17527500Y-14280000D03*
X-15177500Y-12280000D03*
X-16352500Y-11280000D03*
X-15177500Y-14280000D03*
X-15177500Y-13280000D03*
X-18702500Y-12280000D03*
X-18702500Y-14280000D03*
X-16352500Y-13280000D03*
X-17527500Y-11280000D03*
X-15177500Y-11280000D03*
X-17527500Y-12280000D03*
X-16352500Y-12280000D03*
D17*
X-13690000Y-8842500D03*
X-14190000Y-8842500D03*
X-14690000Y-8842500D03*
X-15190000Y-8842500D03*
X-15690000Y-8842500D03*
X-16190000Y-8842500D03*
X-16690000Y-8842500D03*
X-17190000Y-8842500D03*
X-17690000Y-8842500D03*
X-18190000Y-8842500D03*
X-18690000Y-8842500D03*
X-19190000Y-8842500D03*
X-19690000Y-8842500D03*
X-20190000Y-8842500D03*
D18*
X-20877500Y-9530000D03*
X-20877500Y-10030000D03*
X-20877500Y-10530000D03*
X-20877500Y-11030000D03*
X-20877500Y-11530000D03*
X-20877500Y-12030000D03*
X-20877500Y-12530000D03*
X-20877500Y-13030000D03*
X-20877500Y-13530000D03*
X-20877500Y-14030000D03*
X-20877500Y-14530000D03*
X-20877500Y-15030000D03*
X-20877500Y-15530000D03*
X-20877500Y-16030000D03*
D17*
X-20190000Y-16717500D03*
X-19690000Y-16717500D03*
X-19190000Y-16717500D03*
X-18690000Y-16717500D03*
X-18190000Y-16717500D03*
X-17690000Y-16717500D03*
X-17190000Y-16717500D03*
X-16690000Y-16717500D03*
X-16190000Y-16717500D03*
X-15690000Y-16717500D03*
X-15190000Y-16717500D03*
X-14690000Y-16717500D03*
X-14190000Y-16717500D03*
X-13690000Y-16717500D03*
D18*
X-13002500Y-16030000D03*
X-13002500Y-15530000D03*
X-13002500Y-15030000D03*
X-13002500Y-14530000D03*
X-13002500Y-14030000D03*
X-13002500Y-13530000D03*
X-13002500Y-13030000D03*
X-13002500Y-12530000D03*
X-13002500Y-12030000D03*
X-13002500Y-11530000D03*
X-13002500Y-11030000D03*
X-13002500Y-10530000D03*
X-13002500Y-10030000D03*
X-13002500Y-9530000D03*
%TD*%
D15*
%TO.C,R19*%
X-19520000Y-22780000D03*
X-19520000Y-21760000D03*
%TD*%
D19*
%TO.C,USB1*%
X-5021000Y-15960000D03*
X-5021000Y-15160000D03*
D20*
X-5021000Y-14010000D03*
X-5021000Y-13010000D03*
X-5021000Y-12510000D03*
X-5021000Y-11510000D03*
D19*
X-5021000Y-9560000D03*
X-5021000Y-10360000D03*
D20*
X-5021000Y-11010000D03*
X-5021000Y-12010000D03*
X-5021000Y-13510000D03*
X-5021000Y-14510000D03*
%TD*%
D12*
%TO.C,C2*%
X-14510000Y-3790000D03*
X-14510000Y-4750000D03*
%TD*%
D21*
%TO.C,D1*%
X-4530000Y-2902500D03*
X-4530000Y-4477500D03*
%TD*%
D22*
%TO.C,R3*%
X-38220000Y-10525714D03*
X-39240000Y-10525714D03*
%TD*%
D21*
%TO.C,D3*%
X-17895000Y-21162500D03*
X-17895000Y-22737500D03*
%TD*%
%TO.C,D2*%
X-24760000Y-21210000D03*
X-24760000Y-22785000D03*
%TD*%
D14*
%TO.C,C4*%
X-23660000Y-17460000D03*
X-24620000Y-17460000D03*
%TD*%
D22*
%TO.C,R8*%
X-38220000Y-17940000D03*
X-39240000Y-17940000D03*
%TD*%
D15*
%TO.C,R18*%
X-23220000Y-22790000D03*
X-23220000Y-21770000D03*
%TD*%
D22*
%TO.C,R5*%
X-38220000Y-13491428D03*
X-39240000Y-13491428D03*
%TD*%
%TO.C,R4*%
X-38220000Y-12008571D03*
X-39240000Y-12008571D03*
%TD*%
D13*
%TO.C,R13*%
X-30073568Y-2390000D03*
X-30073568Y-3410000D03*
%TD*%
D23*
%TO.C,Y1*%
X-7580000Y-22450000D03*
X-7580000Y-20250000D03*
X-9280000Y-20250000D03*
X-9280000Y-22450000D03*
%TD*%
D12*
%TO.C,C10*%
X-12610000Y-22060000D03*
X-12610000Y-23020000D03*
%TD*%
D15*
%TO.C,R17*%
X-6100000Y-3620000D03*
X-6100000Y-2600000D03*
%TD*%
D22*
%TO.C,R2*%
X-38220000Y-9042857D03*
X-39240000Y-9042857D03*
%TD*%
D24*
%TO.C,C3*%
X-18690000Y-4740000D03*
X-18690000Y-3780000D03*
%TD*%
D12*
%TO.C,C9*%
X-5850000Y-22060000D03*
X-5850000Y-23020000D03*
%TD*%
D15*
%TO.C,R9*%
X-34670000Y-23060000D03*
X-34670000Y-22040000D03*
%TD*%
D22*
%TO.C,R1*%
X-38220000Y-7560000D03*
X-39240000Y-7560000D03*
%TD*%
D25*
%TO.C,R22*%
X-21990000Y-6380000D03*
X-20970000Y-6380000D03*
%TD*%
D22*
%TO.C,R7*%
X-38220000Y-16457142D03*
X-39240000Y-16457142D03*
%TD*%
D12*
%TO.C,C7*%
X-10640000Y-11180000D03*
X-10640000Y-12140000D03*
%TD*%
D25*
%TO.C,R21*%
X-24010000Y-6380000D03*
X-22990000Y-6380000D03*
%TD*%
D14*
%TO.C,C6*%
X-23650000Y-10520000D03*
X-24610000Y-10520000D03*
%TD*%
D26*
%TO.C,U2*%
X-27619000Y-15705000D03*
X-27619000Y-15055000D03*
X-27619000Y-14405000D03*
X-27619000Y-13755000D03*
X-27619000Y-13105000D03*
X-27619000Y-12455000D03*
X-27619000Y-11805000D03*
X-27619000Y-11155000D03*
X-27619000Y-10505000D03*
X-27619000Y-9855000D03*
X-33361000Y-9855000D03*
X-33361000Y-10505000D03*
X-33361000Y-11155000D03*
X-33361000Y-11805000D03*
X-33361000Y-12455000D03*
X-33361000Y-13105000D03*
X-33361000Y-13755000D03*
X-33361000Y-14405000D03*
X-33361000Y-15055000D03*
X-33361000Y-15705000D03*
%TD*%
D13*
%TO.C,R15*%
X-33137852Y-2390000D03*
X-33137852Y-3410000D03*
%TD*%
D15*
%TO.C,R12*%
X-30073574Y-23060000D03*
X-30073574Y-22040000D03*
%TD*%
%TO.C,R10*%
X-33137858Y-23060000D03*
X-33137858Y-22040000D03*
%TD*%
D13*
%TO.C,R14*%
X-31605710Y-2390000D03*
X-31605710Y-3410000D03*
%TD*%
D15*
%TO.C,R25*%
X-7320000Y-3620000D03*
X-7320000Y-2600000D03*
%TD*%
%TO.C,R23*%
X-13900000Y-23030000D03*
X-13900000Y-22010000D03*
%TD*%
D24*
%TO.C,C8*%
X-10990000Y-23010000D03*
X-10990000Y-22050000D03*
%TD*%
D27*
%TO.C,U3*%
X-10545000Y-4762000D03*
X-10545000Y-3812000D03*
X-10545000Y-2862000D03*
X-13145000Y-2862000D03*
X-13145000Y-4762000D03*
%TD*%
D22*
%TO.C,R6*%
X-38220000Y-14974285D03*
X-39240000Y-14974285D03*
%TD*%
M02*
