M48
; DRILL file {KiCad 7.0.5} date Wed Jul  5 13:28:01 2023
; FORMAT={-:-/ absolute / metric / decimal}
; #@! TF.CreationDate,2023-07-05T13:28:01+08:00
; #@! TF.GenerationSoftware,Kicad,Pcbnew,7.0.5
; #@! TF.FileFunction,MixedPlating,1,2
FMAT,2
METRIC
; #@! TA.AperFunction,Plated,PTH,ComponentDrill
T1C0.200
; #@! TA.AperFunction,Plated,PTH,ViaDrill
T2C0.300
; #@! TA.AperFunction,Plated,PTH,ViaDrill
T3C0.400
; #@! TA.AperFunction,Plated,PTH,ViaDrill
T4C0.500
; #@! TA.AperFunction,Plated,PTH,ComponentDrill
T5C0.600
; #@! TA.AperFunction,Plated,PTH,ComponentDrill
T6C1.000
; #@! TA.AperFunction,Plated,PTH,ComponentDrill
T7C2.200
; #@! TA.AperFunction,NonPlated,NPTH,ComponentDrill
T8C0.650
%
G90
G05
T1
X-10.205Y-10.795
X-10.205Y-11.795
X-10.205Y-12.795
X-10.205Y-13.795
X-10.205Y-14.795
X-9.03Y-10.795
X-9.03Y-11.795
X-9.03Y-12.795
X-9.03Y-13.795
X-9.03Y-14.795
X-7.855Y-10.795
X-7.855Y-11.795
X-7.855Y-12.795
X-7.855Y-13.795
X-7.855Y-14.795
X-6.68Y-10.795
X-6.68Y-11.795
X-6.68Y-12.795
X-6.68Y-13.795
X-6.68Y-14.795
X-5.505Y-10.795
X-5.505Y-11.795
X-5.505Y-12.795
X-5.505Y-13.795
X-5.505Y-14.795
T2
X-20.855Y-12.075
X-20.855Y-13.045
X-20.585Y-5.975
X-19.735Y-1.555
X-19.735Y-4.625
X-18.835Y-11.565
X-18.835Y-14.55
X-18.725Y-20.445
X-17.945Y-12.205
X-17.475Y-19.505
X-17.145Y-8.245
X-15.125Y-8.235
X-12.995Y-1.555
X-12.995Y-4.625
X-12.905Y-16.595
X-8.461Y-18.439
X-6.604Y-19.965
X-4.605Y-18.115
X-4.545Y-7.485
X-2.805Y-15.055
X-2.805Y-17.865
X-2.015Y-9.125
X5.265Y-21.465
X5.285Y-4.235
X6.805Y-4.235
X6.805Y-21.465
X8.335Y-21.475
X8.345Y-4.235
X9.865Y-21.475
X9.875Y-4.235
X12.07Y-13.77
X12.73Y-15.83
X12.735Y-9.845
X12.755Y-8.375
X12.765Y-11.295
X12.77Y-12.77
X12.785Y-17.345
X12.825Y-14.42
X15.175Y-12.885
X15.875Y-8.295
X15.875Y-9.835
X15.875Y-11.385
X15.875Y-14.325
X15.875Y-15.715
X15.875Y-17.265
X18.975Y-12.885
T3
X-17.995Y-17.575
X-17.94Y-10.99
X-16.525Y-22.695
X-15.615Y-19.505
X-14.915Y-11.805
X2.645Y-2.515
T4
X-9.445Y-22.755
X-8.455Y-20.825
T6
X20.59Y-1.37
X20.59Y-3.91
X20.59Y-6.45
X20.59Y-8.99
X20.59Y-11.53
X20.59Y-14.07
X20.59Y-16.61
X20.59Y-19.15
X20.59Y-21.69
X20.59Y-24.23
T7
X-23.995Y-2.865
X-23.995Y-22.865
X13.685Y-2.865
X13.685Y-22.865
T8
X-21.216Y-9.91
X-21.216Y-15.69
T5
G00X-24.466Y-8.475
M15
G01X-25.366Y-8.475
M16
G05
G00X-24.466Y-17.125
M15
G01X-25.366Y-17.125
M16
G05
G00X-20.116Y-8.475
M15
G01X-21.316Y-8.475
M16
G05
G00X-20.116Y-17.125
M15
G01X-21.316Y-17.125
M16
G05
T0
M30
