%TF.GenerationSoftware,KiCad,Pcbnew,(6.0.11)*%
%TF.CreationDate,2023-02-04T21:15:47+08:00*%
%TF.ProjectId,UINIO-Logic-24MHz,55494e49-4f2d-44c6-9f67-69632d32344d,Version 3.0.0*%
%TF.SameCoordinates,PX91e9840PY6514770*%
%TF.FileFunction,Legend,Bot*%
%TF.FilePolarity,Positive*%
%FSLAX46Y46*%
G04 Gerber Fmt 4.6, Leading zero omitted, Abs format (unit mm)*
G04 Created by KiCad (PCBNEW (6.0.11)) date 2023-02-04 21:15:47*
%MOMM*%
%LPD*%
G01*
G04 APERTURE LIST*
%ADD10C,0.200000*%
%ADD11C,0.100000*%
%ADD12C,0.300000*%
%ADD13C,2.200000*%
%ADD14C,0.650000*%
%ADD15O,2.100000X1.000000*%
%ADD16O,1.900000X1.000000*%
%ADD17R,1.700000X1.700000*%
%ADD18O,1.700000X1.700000*%
G04 APERTURE END LIST*
D10*
X-41798572Y-6736428D02*
X-41755715Y-6779285D01*
X-41627143Y-6822142D01*
X-41541429Y-6822142D01*
X-41412858Y-6779285D01*
X-41327143Y-6693571D01*
X-41284286Y-6607857D01*
X-41241429Y-6436428D01*
X-41241429Y-6307857D01*
X-41284286Y-6136428D01*
X-41327143Y-6050714D01*
X-41412858Y-5965000D01*
X-41541429Y-5922142D01*
X-41627143Y-5922142D01*
X-41755715Y-5965000D01*
X-41798572Y-6007857D01*
X-42184286Y-6822142D02*
X-42184286Y-5922142D01*
X-42184286Y-6350714D02*
X-42698572Y-6350714D01*
X-42698572Y-6822142D02*
X-42698572Y-5922142D01*
X-43598572Y-6822142D02*
X-43084286Y-6822142D01*
X-43341429Y-6822142D02*
X-43341429Y-5922142D01*
X-43255715Y-6050714D01*
X-43170000Y-6136428D01*
X-43084286Y-6179285D01*
X-41798572Y-19436428D02*
X-41755715Y-19479285D01*
X-41627143Y-19522142D01*
X-41541429Y-19522142D01*
X-41412858Y-19479285D01*
X-41327143Y-19393571D01*
X-41284286Y-19307857D01*
X-41241429Y-19136428D01*
X-41241429Y-19007857D01*
X-41284286Y-18836428D01*
X-41327143Y-18750714D01*
X-41412858Y-18665000D01*
X-41541429Y-18622142D01*
X-41627143Y-18622142D01*
X-41755715Y-18665000D01*
X-41798572Y-18707857D01*
X-42184286Y-19522142D02*
X-42184286Y-18622142D01*
X-42184286Y-19050714D02*
X-42698572Y-19050714D01*
X-42698572Y-19522142D02*
X-42698572Y-18622142D01*
X-43512858Y-18622142D02*
X-43341429Y-18622142D01*
X-43255715Y-18665000D01*
X-43212858Y-18707857D01*
X-43127143Y-18836428D01*
X-43084286Y-19007857D01*
X-43084286Y-19350714D01*
X-43127143Y-19436428D01*
X-43170000Y-19479285D01*
X-43255715Y-19522142D01*
X-43427143Y-19522142D01*
X-43512858Y-19479285D01*
X-43555715Y-19436428D01*
X-43598572Y-19350714D01*
X-43598572Y-19136428D01*
X-43555715Y-19050714D01*
X-43512858Y-19007857D01*
X-43427143Y-18965000D01*
X-43255715Y-18965000D01*
X-43170000Y-19007857D01*
X-43127143Y-19050714D01*
X-43084286Y-19136428D01*
X-41798572Y-4221428D02*
X-41755715Y-4264285D01*
X-41627143Y-4307142D01*
X-41541429Y-4307142D01*
X-41412858Y-4264285D01*
X-41327143Y-4178571D01*
X-41284286Y-4092857D01*
X-41241429Y-3921428D01*
X-41241429Y-3792857D01*
X-41284286Y-3621428D01*
X-41327143Y-3535714D01*
X-41412858Y-3450000D01*
X-41541429Y-3407142D01*
X-41627143Y-3407142D01*
X-41755715Y-3450000D01*
X-41798572Y-3492857D01*
X-42184286Y-4307142D02*
X-42184286Y-3407142D01*
X-42184286Y-3835714D02*
X-42698572Y-3835714D01*
X-42698572Y-4307142D02*
X-42698572Y-3407142D01*
X-43298572Y-3407142D02*
X-43384286Y-3407142D01*
X-43470000Y-3450000D01*
X-43512858Y-3492857D01*
X-43555715Y-3578571D01*
X-43598572Y-3750000D01*
X-43598572Y-3964285D01*
X-43555715Y-4135714D01*
X-43512858Y-4221428D01*
X-43470000Y-4264285D01*
X-43384286Y-4307142D01*
X-43298572Y-4307142D01*
X-43212858Y-4264285D01*
X-43170000Y-4221428D01*
X-43127143Y-4135714D01*
X-43084286Y-3964285D01*
X-43084286Y-3750000D01*
X-43127143Y-3578571D01*
X-43170000Y-3492857D01*
X-43212858Y-3450000D01*
X-43298572Y-3407142D01*
X-41798572Y-14356428D02*
X-41755715Y-14399285D01*
X-41627143Y-14442142D01*
X-41541429Y-14442142D01*
X-41412858Y-14399285D01*
X-41327143Y-14313571D01*
X-41284286Y-14227857D01*
X-41241429Y-14056428D01*
X-41241429Y-13927857D01*
X-41284286Y-13756428D01*
X-41327143Y-13670714D01*
X-41412858Y-13585000D01*
X-41541429Y-13542142D01*
X-41627143Y-13542142D01*
X-41755715Y-13585000D01*
X-41798572Y-13627857D01*
X-42184286Y-14442142D02*
X-42184286Y-13542142D01*
X-42184286Y-13970714D02*
X-42698572Y-13970714D01*
X-42698572Y-14442142D02*
X-42698572Y-13542142D01*
X-43512858Y-13842142D02*
X-43512858Y-14442142D01*
X-43298572Y-13499285D02*
X-43084286Y-14142142D01*
X-43641429Y-14142142D01*
D11*
X283333Y-16163333D02*
X-416667Y-15930000D01*
X283333Y-15696666D01*
X-383334Y-15196666D02*
X-416667Y-15263333D01*
X-416667Y-15396666D01*
X-383334Y-15463333D01*
X-316667Y-15496666D01*
X-50000Y-15496666D01*
X16666Y-15463333D01*
X50000Y-15396666D01*
X50000Y-15263333D01*
X16666Y-15196666D01*
X-50000Y-15163333D01*
X-116667Y-15163333D01*
X-183334Y-15496666D01*
X-416667Y-14863333D02*
X50000Y-14863333D01*
X-83334Y-14863333D02*
X-16667Y-14830000D01*
X16666Y-14796666D01*
X50000Y-14730000D01*
X50000Y-14663333D01*
X-383334Y-14463333D02*
X-416667Y-14396666D01*
X-416667Y-14263333D01*
X-383334Y-14196666D01*
X-316667Y-14163333D01*
X-283334Y-14163333D01*
X-216667Y-14196666D01*
X-183334Y-14263333D01*
X-183334Y-14363333D01*
X-150000Y-14430000D01*
X-83334Y-14463333D01*
X-50000Y-14463333D01*
X16666Y-14430000D01*
X50000Y-14363333D01*
X50000Y-14263333D01*
X16666Y-14196666D01*
X-416667Y-13863333D02*
X50000Y-13863333D01*
X283333Y-13863333D02*
X250000Y-13896666D01*
X216666Y-13863333D01*
X250000Y-13830000D01*
X283333Y-13863333D01*
X216666Y-13863333D01*
X-416667Y-13430000D02*
X-383334Y-13496666D01*
X-350000Y-13530000D01*
X-283334Y-13563333D01*
X-83334Y-13563333D01*
X-16667Y-13530000D01*
X16666Y-13496666D01*
X50000Y-13430000D01*
X50000Y-13330000D01*
X16666Y-13263333D01*
X-16667Y-13230000D01*
X-83334Y-13196666D01*
X-283334Y-13196666D01*
X-350000Y-13230000D01*
X-383334Y-13263333D01*
X-416667Y-13330000D01*
X-416667Y-13430000D01*
X50000Y-12896666D02*
X-416667Y-12896666D01*
X-16667Y-12896666D02*
X16666Y-12863333D01*
X50000Y-12796666D01*
X50000Y-12696666D01*
X16666Y-12630000D01*
X-50000Y-12596666D01*
X-416667Y-12596666D01*
X283333Y-11796666D02*
X283333Y-11363333D01*
X16666Y-11596666D01*
X16666Y-11496666D01*
X-16667Y-11430000D01*
X-50000Y-11396666D01*
X-116667Y-11363333D01*
X-283334Y-11363333D01*
X-350000Y-11396666D01*
X-383334Y-11430000D01*
X-416667Y-11496666D01*
X-416667Y-11696666D01*
X-383334Y-11763333D01*
X-350000Y-11796666D01*
X-350000Y-11063333D02*
X-383334Y-11030000D01*
X-416667Y-11063333D01*
X-383334Y-11096666D01*
X-350000Y-11063333D01*
X-416667Y-11063333D01*
X283333Y-10596666D02*
X283333Y-10530000D01*
X250000Y-10463333D01*
X216666Y-10430000D01*
X150000Y-10396666D01*
X16666Y-10363333D01*
X-150000Y-10363333D01*
X-283334Y-10396666D01*
X-350000Y-10430000D01*
X-383334Y-10463333D01*
X-416667Y-10530000D01*
X-416667Y-10596666D01*
X-383334Y-10663333D01*
X-350000Y-10696666D01*
X-283334Y-10730000D01*
X-150000Y-10763333D01*
X16666Y-10763333D01*
X150000Y-10730000D01*
X216666Y-10696666D01*
X250000Y-10663333D01*
X283333Y-10596666D01*
X-350000Y-10063333D02*
X-383334Y-10030000D01*
X-416667Y-10063333D01*
X-383334Y-10096666D01*
X-350000Y-10063333D01*
X-416667Y-10063333D01*
X283333Y-9596666D02*
X283333Y-9530000D01*
X250000Y-9463333D01*
X216666Y-9430000D01*
X150000Y-9396666D01*
X16666Y-9363333D01*
X-150000Y-9363333D01*
X-283334Y-9396666D01*
X-350000Y-9430000D01*
X-383334Y-9463333D01*
X-416667Y-9530000D01*
X-416667Y-9596666D01*
X-383334Y-9663333D01*
X-350000Y-9696666D01*
X-283334Y-9730000D01*
X-150000Y-9763333D01*
X16666Y-9763333D01*
X150000Y-9730000D01*
X216666Y-9696666D01*
X250000Y-9663333D01*
X283333Y-9596666D01*
D10*
X-41734286Y-885000D02*
X-41648572Y-842142D01*
X-41520000Y-842142D01*
X-41391429Y-885000D01*
X-41305715Y-970714D01*
X-41262858Y-1056428D01*
X-41220000Y-1227857D01*
X-41220000Y-1356428D01*
X-41262858Y-1527857D01*
X-41305715Y-1613571D01*
X-41391429Y-1699285D01*
X-41520000Y-1742142D01*
X-41605715Y-1742142D01*
X-41734286Y-1699285D01*
X-41777143Y-1656428D01*
X-41777143Y-1356428D01*
X-41605715Y-1356428D01*
X-42162858Y-1742142D02*
X-42162858Y-842142D01*
X-42677143Y-1742142D01*
X-42677143Y-842142D01*
X-43105715Y-1742142D02*
X-43105715Y-842142D01*
X-43320000Y-842142D01*
X-43448572Y-885000D01*
X-43534286Y-970714D01*
X-43577143Y-1056428D01*
X-43620000Y-1227857D01*
X-43620000Y-1356428D01*
X-43577143Y-1527857D01*
X-43534286Y-1613571D01*
X-43448572Y-1699285D01*
X-43320000Y-1742142D01*
X-43105715Y-1742142D01*
X-1697143Y-20246190D02*
X-2425715Y-20246190D01*
X-2511429Y-20198571D01*
X-2554286Y-20150952D01*
X-2597143Y-20055714D01*
X-2597143Y-19865238D01*
X-2554286Y-19770000D01*
X-2511429Y-19722380D01*
X-2425715Y-19674761D01*
X-1697143Y-19674761D01*
X-2597143Y-19198571D02*
X-1697143Y-19198571D01*
X-2597143Y-18722380D02*
X-1697143Y-18722380D01*
X-2597143Y-18150952D01*
X-1697143Y-18150952D01*
X-2597143Y-17674761D02*
X-1697143Y-17674761D01*
X-1697143Y-17008095D02*
X-1697143Y-16817619D01*
X-1740000Y-16722380D01*
X-1825715Y-16627142D01*
X-1997143Y-16579523D01*
X-2297143Y-16579523D01*
X-2468572Y-16627142D01*
X-2554286Y-16722380D01*
X-2597143Y-16817619D01*
X-2597143Y-17008095D01*
X-2554286Y-17103333D01*
X-2468572Y-17198571D01*
X-2297143Y-17246190D01*
X-1997143Y-17246190D01*
X-1825715Y-17198571D01*
X-1740000Y-17103333D01*
X-1697143Y-17008095D01*
X-2254286Y-16150952D02*
X-2254286Y-15389047D01*
X-2597143Y-14436666D02*
X-2597143Y-14912857D01*
X-1697143Y-14912857D01*
X-2597143Y-13960476D02*
X-2554286Y-14055714D01*
X-2511429Y-14103333D01*
X-2425715Y-14150952D01*
X-2168572Y-14150952D01*
X-2082858Y-14103333D01*
X-2040000Y-14055714D01*
X-1997143Y-13960476D01*
X-1997143Y-13817619D01*
X-2040000Y-13722380D01*
X-2082858Y-13674761D01*
X-2168572Y-13627142D01*
X-2425715Y-13627142D01*
X-2511429Y-13674761D01*
X-2554286Y-13722380D01*
X-2597143Y-13817619D01*
X-2597143Y-13960476D01*
X-1997143Y-12770000D02*
X-2725715Y-12770000D01*
X-2811429Y-12817619D01*
X-2854286Y-12865238D01*
X-2897143Y-12960476D01*
X-2897143Y-13103333D01*
X-2854286Y-13198571D01*
X-2554286Y-12770000D02*
X-2597143Y-12865238D01*
X-2597143Y-13055714D01*
X-2554286Y-13150952D01*
X-2511429Y-13198571D01*
X-2425715Y-13246190D01*
X-2168572Y-13246190D01*
X-2082858Y-13198571D01*
X-2040000Y-13150952D01*
X-1997143Y-13055714D01*
X-1997143Y-12865238D01*
X-2040000Y-12770000D01*
X-2597143Y-12293809D02*
X-1997143Y-12293809D01*
X-1697143Y-12293809D02*
X-1740000Y-12341428D01*
X-1782858Y-12293809D01*
X-1740000Y-12246190D01*
X-1697143Y-12293809D01*
X-1782858Y-12293809D01*
X-2554286Y-11389047D02*
X-2597143Y-11484285D01*
X-2597143Y-11674761D01*
X-2554286Y-11770000D01*
X-2511429Y-11817619D01*
X-2425715Y-11865238D01*
X-2168572Y-11865238D01*
X-2082858Y-11817619D01*
X-2040000Y-11770000D01*
X-1997143Y-11674761D01*
X-1997143Y-11484285D01*
X-2040000Y-11389047D01*
X-2254286Y-10960476D02*
X-2254286Y-10198571D01*
X-1782858Y-9770000D02*
X-1740000Y-9722380D01*
X-1697143Y-9627142D01*
X-1697143Y-9389047D01*
X-1740000Y-9293809D01*
X-1782858Y-9246190D01*
X-1868572Y-9198571D01*
X-1954286Y-9198571D01*
X-2082858Y-9246190D01*
X-2597143Y-9817619D01*
X-2597143Y-9198571D01*
X-1997143Y-8341428D02*
X-2597143Y-8341428D01*
X-1654286Y-8579523D02*
X-2297143Y-8817619D01*
X-2297143Y-8198571D01*
X-2597143Y-7817619D02*
X-1697143Y-7817619D01*
X-2340000Y-7484285D01*
X-1697143Y-7150952D01*
X-2597143Y-7150952D01*
X-2597143Y-6674761D02*
X-1697143Y-6674761D01*
X-2125715Y-6674761D02*
X-2125715Y-6103333D01*
X-2597143Y-6103333D02*
X-1697143Y-6103333D01*
X-1997143Y-5722380D02*
X-1997143Y-5198571D01*
X-2597143Y-5722380D01*
X-2597143Y-5198571D01*
X-41798572Y-16896428D02*
X-41755715Y-16939285D01*
X-41627143Y-16982142D01*
X-41541429Y-16982142D01*
X-41412858Y-16939285D01*
X-41327143Y-16853571D01*
X-41284286Y-16767857D01*
X-41241429Y-16596428D01*
X-41241429Y-16467857D01*
X-41284286Y-16296428D01*
X-41327143Y-16210714D01*
X-41412858Y-16125000D01*
X-41541429Y-16082142D01*
X-41627143Y-16082142D01*
X-41755715Y-16125000D01*
X-41798572Y-16167857D01*
X-42184286Y-16982142D02*
X-42184286Y-16082142D01*
X-42184286Y-16510714D02*
X-42698572Y-16510714D01*
X-42698572Y-16982142D02*
X-42698572Y-16082142D01*
X-43555715Y-16082142D02*
X-43127143Y-16082142D01*
X-43084286Y-16510714D01*
X-43127143Y-16467857D01*
X-43212858Y-16425000D01*
X-43427143Y-16425000D01*
X-43512858Y-16467857D01*
X-43555715Y-16510714D01*
X-43598572Y-16596428D01*
X-43598572Y-16810714D01*
X-43555715Y-16896428D01*
X-43512858Y-16939285D01*
X-43427143Y-16982142D01*
X-43212858Y-16982142D01*
X-43127143Y-16939285D01*
X-43084286Y-16896428D01*
X-41798572Y-11816428D02*
X-41755715Y-11859285D01*
X-41627143Y-11902142D01*
X-41541429Y-11902142D01*
X-41412858Y-11859285D01*
X-41327143Y-11773571D01*
X-41284286Y-11687857D01*
X-41241429Y-11516428D01*
X-41241429Y-11387857D01*
X-41284286Y-11216428D01*
X-41327143Y-11130714D01*
X-41412858Y-11045000D01*
X-41541429Y-11002142D01*
X-41627143Y-11002142D01*
X-41755715Y-11045000D01*
X-41798572Y-11087857D01*
X-42184286Y-11902142D02*
X-42184286Y-11002142D01*
X-42184286Y-11430714D02*
X-42698572Y-11430714D01*
X-42698572Y-11902142D02*
X-42698572Y-11002142D01*
X-43041429Y-11002142D02*
X-43598572Y-11002142D01*
X-43298572Y-11345000D01*
X-43427143Y-11345000D01*
X-43512858Y-11387857D01*
X-43555715Y-11430714D01*
X-43598572Y-11516428D01*
X-43598572Y-11730714D01*
X-43555715Y-11816428D01*
X-43512858Y-11859285D01*
X-43427143Y-11902142D01*
X-43170000Y-11902142D01*
X-43084286Y-11859285D01*
X-43041429Y-11816428D01*
X-41764286Y-23750000D02*
X-41678572Y-23707142D01*
X-41550000Y-23707142D01*
X-41421429Y-23750000D01*
X-41335715Y-23835714D01*
X-41292858Y-23921428D01*
X-41250000Y-24092857D01*
X-41250000Y-24221428D01*
X-41292858Y-24392857D01*
X-41335715Y-24478571D01*
X-41421429Y-24564285D01*
X-41550000Y-24607142D01*
X-41635715Y-24607142D01*
X-41764286Y-24564285D01*
X-41807143Y-24521428D01*
X-41807143Y-24221428D01*
X-41635715Y-24221428D01*
X-42192858Y-24607142D02*
X-42192858Y-23707142D01*
X-42707143Y-24607142D01*
X-42707143Y-23707142D01*
X-43135715Y-24607142D02*
X-43135715Y-23707142D01*
X-43350000Y-23707142D01*
X-43478572Y-23750000D01*
X-43564286Y-23835714D01*
X-43607143Y-23921428D01*
X-43650000Y-24092857D01*
X-43650000Y-24221428D01*
X-43607143Y-24392857D01*
X-43564286Y-24478571D01*
X-43478572Y-24564285D01*
X-43350000Y-24607142D01*
X-43135715Y-24607142D01*
X-41798572Y-9276428D02*
X-41755715Y-9319285D01*
X-41627143Y-9362142D01*
X-41541429Y-9362142D01*
X-41412858Y-9319285D01*
X-41327143Y-9233571D01*
X-41284286Y-9147857D01*
X-41241429Y-8976428D01*
X-41241429Y-8847857D01*
X-41284286Y-8676428D01*
X-41327143Y-8590714D01*
X-41412858Y-8505000D01*
X-41541429Y-8462142D01*
X-41627143Y-8462142D01*
X-41755715Y-8505000D01*
X-41798572Y-8547857D01*
X-42184286Y-9362142D02*
X-42184286Y-8462142D01*
X-42184286Y-8890714D02*
X-42698572Y-8890714D01*
X-42698572Y-9362142D02*
X-42698572Y-8462142D01*
X-43084286Y-8547857D02*
X-43127143Y-8505000D01*
X-43212858Y-8462142D01*
X-43427143Y-8462142D01*
X-43512858Y-8505000D01*
X-43555715Y-8547857D01*
X-43598572Y-8633571D01*
X-43598572Y-8719285D01*
X-43555715Y-8847857D01*
X-43041429Y-9362142D01*
X-43598572Y-9362142D01*
X-41828572Y-21981428D02*
X-41785715Y-22024285D01*
X-41657143Y-22067142D01*
X-41571429Y-22067142D01*
X-41442858Y-22024285D01*
X-41357143Y-21938571D01*
X-41314286Y-21852857D01*
X-41271429Y-21681428D01*
X-41271429Y-21552857D01*
X-41314286Y-21381428D01*
X-41357143Y-21295714D01*
X-41442858Y-21210000D01*
X-41571429Y-21167142D01*
X-41657143Y-21167142D01*
X-41785715Y-21210000D01*
X-41828572Y-21252857D01*
X-42214286Y-22067142D02*
X-42214286Y-21167142D01*
X-42214286Y-21595714D02*
X-42728572Y-21595714D01*
X-42728572Y-22067142D02*
X-42728572Y-21167142D01*
X-43071429Y-21167142D02*
X-43671429Y-21167142D01*
X-43285715Y-22067142D01*
D12*
%TO.C,*%
D11*
%TO.C,HOLE2*%
X-37090000Y-22710000D02*
G75*
G03*
X-37090000Y-22710000I-1800000J0D01*
G01*
%TO.C,HOLE4*%
X1000000Y-22710000D02*
G75*
G03*
X1000000Y-22710000I-1800000J0D01*
G01*
%TO.C,HOLE3*%
X1000000Y-2710000D02*
G75*
G03*
X1000000Y-2710000I-1800000J0D01*
G01*
%TO.C,HOLE1*%
X-37090000Y-2710000D02*
G75*
G03*
X-37090000Y-2710000I-1800000J0D01*
G01*
%TO.C,*%
G36*
X-11085629Y-15279146D02*
G01*
X-11086989Y-15289121D01*
X-11098191Y-15291707D01*
X-11100446Y-15288946D01*
X-11098191Y-15266584D01*
X-11092524Y-15263636D01*
X-11085629Y-15279146D01*
G37*
G36*
X-31237232Y-11706112D02*
G01*
X-31203538Y-11734840D01*
X-31161438Y-11778119D01*
X-31089983Y-11857211D01*
X-31143101Y-11895886D01*
X-31174262Y-11918832D01*
X-31230334Y-11960478D01*
X-31300769Y-12013008D01*
X-31377237Y-12070222D01*
X-31377871Y-12070697D01*
X-31448752Y-12123282D01*
X-31508301Y-12166469D01*
X-31550283Y-12195803D01*
X-31568464Y-12206832D01*
X-31583608Y-12196804D01*
X-31617806Y-12166189D01*
X-31662678Y-12122031D01*
X-31746683Y-12036282D01*
X-31699576Y-11999893D01*
X-31664419Y-11973509D01*
X-31600889Y-11927871D01*
X-31527603Y-11876824D01*
X-31451314Y-11824898D01*
X-31378774Y-11776625D01*
X-31316736Y-11736535D01*
X-31271951Y-11709159D01*
X-31251173Y-11699027D01*
X-31237232Y-11706112D01*
G37*
G36*
X-30116787Y-9927810D02*
G01*
X-29739932Y-9927810D01*
X-29739932Y-10191608D01*
X-30116787Y-10191608D01*
X-30116787Y-12528107D01*
X-30380585Y-12528107D01*
X-30380585Y-10191608D01*
X-30738597Y-10191608D01*
X-30738597Y-9927810D01*
X-30380585Y-9927810D01*
X-30380585Y-8891460D01*
X-30116787Y-8891460D01*
X-30116787Y-9927810D01*
G37*
G36*
X-10030436Y-15458151D02*
G01*
X-10039858Y-15467573D01*
X-10049279Y-15458151D01*
X-10039858Y-15448730D01*
X-10030436Y-15458151D01*
G37*
G36*
X-8956401Y-16428552D02*
G01*
X-8957761Y-16438527D01*
X-8968963Y-16441114D01*
X-8971218Y-16438352D01*
X-8968963Y-16415990D01*
X-8963295Y-16413042D01*
X-8956401Y-16428552D01*
G37*
G36*
X-10231122Y-14577263D02*
G01*
X-10204732Y-14579270D01*
X-10192353Y-14587929D01*
X-10181178Y-14620096D01*
X-10184591Y-14639133D01*
X-10204732Y-14663950D01*
X-10210806Y-14665294D01*
X-10249724Y-14668200D01*
X-10316084Y-14670096D01*
X-10402479Y-14670825D01*
X-10501505Y-14670231D01*
X-10549716Y-14669594D01*
X-10642347Y-14667871D01*
X-10705539Y-14665139D01*
X-10745127Y-14660458D01*
X-10766946Y-14652891D01*
X-10776831Y-14641498D01*
X-10780617Y-14625342D01*
X-10781747Y-14615513D01*
X-10779543Y-14602286D01*
X-10767302Y-14593135D01*
X-10739496Y-14587107D01*
X-10690595Y-14583250D01*
X-10615071Y-14580611D01*
X-10507397Y-14578235D01*
X-10463240Y-14577424D01*
X-10367684Y-14576315D01*
X-10287875Y-14576270D01*
X-10231122Y-14577263D01*
G37*
G36*
X-10360467Y-13103541D02*
G01*
X-10349740Y-13122967D01*
X-10341928Y-13161296D01*
X-10335808Y-13224787D01*
X-10330158Y-13319698D01*
X-10324922Y-13395872D01*
X-10315745Y-13482879D01*
X-10304828Y-13553105D01*
X-10293554Y-13596104D01*
X-10287082Y-13613509D01*
X-10282391Y-13680744D01*
X-10314117Y-13738673D01*
X-10382369Y-13787533D01*
X-10399186Y-13795588D01*
X-10446678Y-13812403D01*
X-10477378Y-13814639D01*
X-10485393Y-13810202D01*
X-10500494Y-13781041D01*
X-10494303Y-13745347D01*
X-10468530Y-13721165D01*
X-10445536Y-13710454D01*
X-10403995Y-13682431D01*
X-10396516Y-13675728D01*
X-10382980Y-13655573D01*
X-10384794Y-13627026D01*
X-10401668Y-13576949D01*
X-10406713Y-13561255D01*
X-10420515Y-13489425D01*
X-10429266Y-13398032D01*
X-10432400Y-13300824D01*
X-10429348Y-13211549D01*
X-10419544Y-13143954D01*
X-10402837Y-13106843D01*
X-10373643Y-13097044D01*
X-10360467Y-13103541D01*
G37*
G36*
X-17963226Y-14261638D02*
G01*
X-18679249Y-14261638D01*
X-18679249Y-13752884D01*
X-17963226Y-13752884D01*
X-17963226Y-14261638D01*
G37*
G36*
X-10761770Y-15417016D02*
G01*
X-10753048Y-15423798D01*
X-10773154Y-15428400D01*
X-10792265Y-15427067D01*
X-10797885Y-15418503D01*
X-10791219Y-15414769D01*
X-10761770Y-15417016D01*
G37*
G36*
X-35005690Y-14523638D02*
G01*
X-34991500Y-14526442D01*
X-34882727Y-14558768D01*
X-34762081Y-14609713D01*
X-34643086Y-14672939D01*
X-34539267Y-14742112D01*
X-34450614Y-14809804D01*
X-34450614Y-14581965D01*
X-33772276Y-14581965D01*
X-33772276Y-16692350D01*
X-34450614Y-16692350D01*
X-34450614Y-15171668D01*
X-34579306Y-15112350D01*
X-34639679Y-15087539D01*
X-34763622Y-15055621D01*
X-34878311Y-15051083D01*
X-34978885Y-15073186D01*
X-35060482Y-15121189D01*
X-35118238Y-15194353D01*
X-35119013Y-15195856D01*
X-35128919Y-15216899D01*
X-35137005Y-15240224D01*
X-35143497Y-15269766D01*
X-35148619Y-15309457D01*
X-35152595Y-15363233D01*
X-35155650Y-15435025D01*
X-35158008Y-15528768D01*
X-35159895Y-15648396D01*
X-35161534Y-15797841D01*
X-35163151Y-15981037D01*
X-35169085Y-16692350D01*
X-35844976Y-16692350D01*
X-35844976Y-15168861D01*
X-35953322Y-15115704D01*
X-36025491Y-15085052D01*
X-36105359Y-15065410D01*
X-36202988Y-15056833D01*
X-36214491Y-15056425D01*
X-36324722Y-15060798D01*
X-36407242Y-15083420D01*
X-36468237Y-15127026D01*
X-36513893Y-15194353D01*
X-36522870Y-15213872D01*
X-36530972Y-15237504D01*
X-36537506Y-15267363D01*
X-36542688Y-15307381D01*
X-36546740Y-15361490D01*
X-36549879Y-15433623D01*
X-36552324Y-15527712D01*
X-36554295Y-15647689D01*
X-36556010Y-15797487D01*
X-36557688Y-15981037D01*
X-36563798Y-16692350D01*
X-37243319Y-16692350D01*
X-37234229Y-15896245D01*
X-37233539Y-15836497D01*
X-37231043Y-15640249D01*
X-37228305Y-15476711D01*
X-37224938Y-15341977D01*
X-37220556Y-15232139D01*
X-37214774Y-15143290D01*
X-37207205Y-15071521D01*
X-37197462Y-15012926D01*
X-37185159Y-14963597D01*
X-37169910Y-14919626D01*
X-37151328Y-14877107D01*
X-37129028Y-14832131D01*
X-37079960Y-14754201D01*
X-36983385Y-14655720D01*
X-36863880Y-14580987D01*
X-36726943Y-14532405D01*
X-36578072Y-14512378D01*
X-36422764Y-14523310D01*
X-36370190Y-14535298D01*
X-36254371Y-14575568D01*
X-36127603Y-14634243D01*
X-36000459Y-14706167D01*
X-35883512Y-14786188D01*
X-35761885Y-14878652D01*
X-35711909Y-14799849D01*
X-35677458Y-14751738D01*
X-35576240Y-14653633D01*
X-35452190Y-14579320D01*
X-35311573Y-14531251D01*
X-35160652Y-14511873D01*
X-35005690Y-14523638D01*
G37*
G36*
X-10689932Y-15533522D02*
G01*
X-10699353Y-15542944D01*
X-10708775Y-15533522D01*
X-10699353Y-15524101D01*
X-10689932Y-15533522D01*
G37*
G36*
X-10897202Y-15476994D02*
G01*
X-10906623Y-15486416D01*
X-10916045Y-15476994D01*
X-10906623Y-15467573D01*
X-10897202Y-15476994D01*
G37*
G36*
X-11191107Y-12816614D02*
G01*
X-11155249Y-12860605D01*
X-11144278Y-12904160D01*
X-11167758Y-12940436D01*
X-11173987Y-12944947D01*
X-11201883Y-12948054D01*
X-11241390Y-12923901D01*
X-11269020Y-12905136D01*
X-11332444Y-12885181D01*
X-11388113Y-12900129D01*
X-11431447Y-12949366D01*
X-11433617Y-12953249D01*
X-11474938Y-13004834D01*
X-11525234Y-13043009D01*
X-11560489Y-13056871D01*
X-11641201Y-13064623D01*
X-11719674Y-13045132D01*
X-11785331Y-13002035D01*
X-11827599Y-12938972D01*
X-11848760Y-12882772D01*
X-11971238Y-12895725D01*
X-12031981Y-12902998D01*
X-12080139Y-12910481D01*
X-12101451Y-12916126D01*
X-12098859Y-12929437D01*
X-12077898Y-12958147D01*
X-12057428Y-12984880D01*
X-12049318Y-13020952D01*
X-12076238Y-13044199D01*
X-12110547Y-13046937D01*
X-12162147Y-13021015D01*
X-12214883Y-12963330D01*
X-12224198Y-12949752D01*
X-12249988Y-12895499D01*
X-12244217Y-12854022D01*
X-12206474Y-12818242D01*
X-12187899Y-12808923D01*
X-12158076Y-12800684D01*
X-12113830Y-12794140D01*
X-12050508Y-12788917D01*
X-11963457Y-12784639D01*
X-11848027Y-12780933D01*
X-11699563Y-12777423D01*
X-11240056Y-12767665D01*
X-11191107Y-12816614D01*
G37*
G36*
X-10790427Y-15530382D02*
G01*
X-10787479Y-15536049D01*
X-10802988Y-15542944D01*
X-10812964Y-15541584D01*
X-10815550Y-15530382D01*
X-10812788Y-15528127D01*
X-10790427Y-15530382D01*
G37*
G36*
X-21976727Y-14393537D02*
G01*
X-22428953Y-14393537D01*
X-22428953Y-16183597D01*
X-21976727Y-16183597D01*
X-21976727Y-16692350D01*
X-23597202Y-16692350D01*
X-23597202Y-16183597D01*
X-23144976Y-16183597D01*
X-23144976Y-14393537D01*
X-23597202Y-14393537D01*
X-23597202Y-13884784D01*
X-21976727Y-13884784D01*
X-21976727Y-14393537D01*
G37*
G36*
X-10934887Y-15420466D02*
G01*
X-10944309Y-15429887D01*
X-10953730Y-15420466D01*
X-10944309Y-15411045D01*
X-10934887Y-15420466D01*
G37*
G36*
X-8881030Y-16626401D02*
G01*
X-8890451Y-16635822D01*
X-8899873Y-16626401D01*
X-8890451Y-16616979D01*
X-8881030Y-16626401D01*
G37*
G36*
X-10746460Y-15533522D02*
G01*
X-10755882Y-15542944D01*
X-10765303Y-15533522D01*
X-10755882Y-15524101D01*
X-10746460Y-15533522D01*
G37*
G36*
X-12046609Y-16616979D02*
G01*
X-12047968Y-16626955D01*
X-12059170Y-16629541D01*
X-12061425Y-16626779D01*
X-12059170Y-16604418D01*
X-12053503Y-16601470D01*
X-12046609Y-16616979D01*
G37*
G36*
X-11990080Y-16475659D02*
G01*
X-11999502Y-16485080D01*
X-12008923Y-16475659D01*
X-11999502Y-16466238D01*
X-11990080Y-16475659D01*
G37*
G36*
X-10218864Y-15580629D02*
G01*
X-10220224Y-15590605D01*
X-10231426Y-15593191D01*
X-10233681Y-15590429D01*
X-10231426Y-15568067D01*
X-10225758Y-15565120D01*
X-10218864Y-15580629D01*
G37*
G36*
X-27478804Y-16692350D02*
G01*
X-28157143Y-16692350D01*
X-28157143Y-15957484D01*
X-27478804Y-15957484D01*
X-27478804Y-16692350D01*
G37*
G36*
X-16615971Y-15872692D02*
G01*
X-16565824Y-15979664D01*
X-16518691Y-16059515D01*
X-16440914Y-16136850D01*
X-16340749Y-16188118D01*
X-16215530Y-16214579D01*
X-16062588Y-16217494D01*
X-15994888Y-16211974D01*
X-15863983Y-16184259D01*
X-15761050Y-16133376D01*
X-15683156Y-16056834D01*
X-15627369Y-15952144D01*
X-15590757Y-15816816D01*
X-15585715Y-15770995D01*
X-15581125Y-15687811D01*
X-15577288Y-15570453D01*
X-15574241Y-15420718D01*
X-15572019Y-15240399D01*
X-15570660Y-15031293D01*
X-15570199Y-14795195D01*
X-15570199Y-13884784D01*
X-14854175Y-13884784D01*
X-14854833Y-14831631D01*
X-14855084Y-15004244D01*
X-14855874Y-15211298D01*
X-14857249Y-15386000D01*
X-14859286Y-15531438D01*
X-14862061Y-15650698D01*
X-14865651Y-15746867D01*
X-14870133Y-15823032D01*
X-14875584Y-15882280D01*
X-14882080Y-15927698D01*
X-14882366Y-15929299D01*
X-14932832Y-16113649D01*
X-15013463Y-16275979D01*
X-15123257Y-16415444D01*
X-15261210Y-16531203D01*
X-15426320Y-16622412D01*
X-15617583Y-16688228D01*
X-15833997Y-16727808D01*
X-15853249Y-16729941D01*
X-16130818Y-16743850D01*
X-16391208Y-16724289D01*
X-16634338Y-16671263D01*
X-16721047Y-16643129D01*
X-16843874Y-16590772D01*
X-16950221Y-16525493D01*
X-17053350Y-16439972D01*
X-17110954Y-16382446D01*
X-17194312Y-16274428D01*
X-17256613Y-16151589D01*
X-17304142Y-16002981D01*
X-17309330Y-15982050D01*
X-17316809Y-15947609D01*
X-17323032Y-15910302D01*
X-17328114Y-15866645D01*
X-17332168Y-15813157D01*
X-17335309Y-15746358D01*
X-17337653Y-15662763D01*
X-17339313Y-15558893D01*
X-17340405Y-15431264D01*
X-17341043Y-15276396D01*
X-17341342Y-15090806D01*
X-17341416Y-14871013D01*
X-17341416Y-13884784D01*
X-16626957Y-13884784D01*
X-16615971Y-15872692D01*
G37*
G36*
X-9973908Y-15420466D02*
G01*
X-9983330Y-15429887D01*
X-9992751Y-15420466D01*
X-9983330Y-15411045D01*
X-9973908Y-15420466D01*
G37*
G36*
X-10221903Y-15474586D02*
G01*
X-10218864Y-15505258D01*
X-10222061Y-15527146D01*
X-10235942Y-15542944D01*
X-10244223Y-15535305D01*
X-10243166Y-15505258D01*
X-10235985Y-15483109D01*
X-10226087Y-15467573D01*
X-10221903Y-15474586D01*
G37*
G36*
X-20457963Y-14546409D02*
G01*
X-20279334Y-14615705D01*
X-20100240Y-14722340D01*
X-19979398Y-14806815D01*
X-19979398Y-14581965D01*
X-19301060Y-14581965D01*
X-19301060Y-16692350D01*
X-19979398Y-16692350D01*
X-19979398Y-15171236D01*
X-20097165Y-15117403D01*
X-20097931Y-15117053D01*
X-20181822Y-15084237D01*
X-20264693Y-15065768D01*
X-20365674Y-15057368D01*
X-20437304Y-15056432D01*
X-20529594Y-15066235D01*
X-20598282Y-15093222D01*
X-20651011Y-15141006D01*
X-20695422Y-15213196D01*
X-20742528Y-15307410D01*
X-20748837Y-15999880D01*
X-20755145Y-16692350D01*
X-21433158Y-16692350D01*
X-21425346Y-15896245D01*
X-21424465Y-15808444D01*
X-21422223Y-15614604D01*
X-21419583Y-15453071D01*
X-21416135Y-15320005D01*
X-21411467Y-15211571D01*
X-21405170Y-15123929D01*
X-21396833Y-15053243D01*
X-21386044Y-14995674D01*
X-21372394Y-14947385D01*
X-21355471Y-14904538D01*
X-21334866Y-14863295D01*
X-21310166Y-14819819D01*
X-21233115Y-14715250D01*
X-21128703Y-14628125D01*
X-20998833Y-14565237D01*
X-20840349Y-14524603D01*
X-20812352Y-14520226D01*
X-20635759Y-14514549D01*
X-20457963Y-14546409D01*
G37*
G36*
X-27648389Y-9795911D02*
G01*
X-26046757Y-9795911D01*
X-26046757Y-10059709D01*
X-26774218Y-10059709D01*
X-26797977Y-10059710D01*
X-26978537Y-10059817D01*
X-27125232Y-10060212D01*
X-27241477Y-10061055D01*
X-27330687Y-10062501D01*
X-27396280Y-10064709D01*
X-27441669Y-10067836D01*
X-27470272Y-10072040D01*
X-27485503Y-10077477D01*
X-27490778Y-10084306D01*
X-27489514Y-10092684D01*
X-27482931Y-10108327D01*
X-27452379Y-10166967D01*
X-27405349Y-10247340D01*
X-27345893Y-10343131D01*
X-27278063Y-10448028D01*
X-27205913Y-10555716D01*
X-27133495Y-10659882D01*
X-27064863Y-10754212D01*
X-27004530Y-10831902D01*
X-26885311Y-10974432D01*
X-26749701Y-11125918D01*
X-26605315Y-11278406D01*
X-26459769Y-11423940D01*
X-26320677Y-11554564D01*
X-26195655Y-11662321D01*
X-26131742Y-11714227D01*
X-26063629Y-11769651D01*
X-26008835Y-11814353D01*
X-25975340Y-11841830D01*
X-25927991Y-11880998D01*
X-26026780Y-12006704D01*
X-26044417Y-12028940D01*
X-26087871Y-12081823D01*
X-26120356Y-12118613D01*
X-26135882Y-12132410D01*
X-26155123Y-12123967D01*
X-26199265Y-12091726D01*
X-26261953Y-12039023D01*
X-26339156Y-11969751D01*
X-26426844Y-11887808D01*
X-26520986Y-11797087D01*
X-26617552Y-11701485D01*
X-26712510Y-11604895D01*
X-26801830Y-11511214D01*
X-26881481Y-11424335D01*
X-26947433Y-11348156D01*
X-27066688Y-11197476D01*
X-27240599Y-10952989D01*
X-27403780Y-10694672D01*
X-27546996Y-10436564D01*
X-27638968Y-10257558D01*
X-27643824Y-11402254D01*
X-27648681Y-12546950D01*
X-27930738Y-12546950D01*
X-27935595Y-11402254D01*
X-27940451Y-10257558D01*
X-28066693Y-10498011D01*
X-28186242Y-10713503D01*
X-28405066Y-11055335D01*
X-28644596Y-11369364D01*
X-28902576Y-11652478D01*
X-28957543Y-11705879D01*
X-29035470Y-11777782D01*
X-29118063Y-11850698D01*
X-29199947Y-11920180D01*
X-29275747Y-11981778D01*
X-29340088Y-12031045D01*
X-29387595Y-12063532D01*
X-29412892Y-12074792D01*
X-29419146Y-12071199D01*
X-29446215Y-12044914D01*
X-29487245Y-11998779D01*
X-29536106Y-11939523D01*
X-29643186Y-11805343D01*
X-29536106Y-11739391D01*
X-29334438Y-11603941D01*
X-29071162Y-11391808D01*
X-28821117Y-11149143D01*
X-28588102Y-10879719D01*
X-28375913Y-10587306D01*
X-28371867Y-10581186D01*
X-28316551Y-10495211D01*
X-28259846Y-10403421D01*
X-28205361Y-10312080D01*
X-28156703Y-10227454D01*
X-28117480Y-10155808D01*
X-28091300Y-10103408D01*
X-28081772Y-10076520D01*
X-28081965Y-10076111D01*
X-28103827Y-10072255D01*
X-28159400Y-10068766D01*
X-28245075Y-10065725D01*
X-28357244Y-10063217D01*
X-28492300Y-10061323D01*
X-28646634Y-10060127D01*
X-28816638Y-10059709D01*
X-29551505Y-10059709D01*
X-29551505Y-9795911D01*
X-27931030Y-9795911D01*
X-27931030Y-8891460D01*
X-27648389Y-8891460D01*
X-27648389Y-9795911D01*
G37*
G36*
X-28409957Y-9046133D02*
G01*
X-28370199Y-9090162D01*
X-28338771Y-9129188D01*
X-28326727Y-9150175D01*
X-28327239Y-9151746D01*
X-28346135Y-9172570D01*
X-28388222Y-9210764D01*
X-28447974Y-9261473D01*
X-28519865Y-9319842D01*
X-28599660Y-9384089D01*
X-28682303Y-9451997D01*
X-28754732Y-9512834D01*
X-28807217Y-9558518D01*
X-28856116Y-9601103D01*
X-28895027Y-9632160D01*
X-28914807Y-9644325D01*
X-28918026Y-9643409D01*
X-28942445Y-9624493D01*
X-28980637Y-9587732D01*
X-29024481Y-9541835D01*
X-29065855Y-9495511D01*
X-29096635Y-9457470D01*
X-29108701Y-9436421D01*
X-29096753Y-9420743D01*
X-29059724Y-9386208D01*
X-29003097Y-9337871D01*
X-28932471Y-9280219D01*
X-28853444Y-9217739D01*
X-28771614Y-9154919D01*
X-28692579Y-9096247D01*
X-28621937Y-9046210D01*
X-28493186Y-8958043D01*
X-28409957Y-9046133D01*
G37*
G36*
X-9980189Y-15304269D02*
G01*
X-9977241Y-15309937D01*
X-9992751Y-15316831D01*
X-10002726Y-15315471D01*
X-10005313Y-15304269D01*
X-10002551Y-15302014D01*
X-9980189Y-15304269D01*
G37*
G36*
X-11971238Y-16390867D02*
G01*
X-11972597Y-16400842D01*
X-11983799Y-16403428D01*
X-11986055Y-16400667D01*
X-11983799Y-16378305D01*
X-11978132Y-16375357D01*
X-11971238Y-16390867D01*
G37*
G36*
X-11029101Y-15420466D02*
G01*
X-11038522Y-15429887D01*
X-11047944Y-15420466D01*
X-11038522Y-15411045D01*
X-11029101Y-15420466D01*
G37*
G36*
X-10686399Y-15417016D02*
G01*
X-10677677Y-15423798D01*
X-10697783Y-15428400D01*
X-10716895Y-15427067D01*
X-10722514Y-15418503D01*
X-10715848Y-15414769D01*
X-10686399Y-15417016D01*
G37*
G36*
X-8951439Y-16479905D02*
G01*
X-8953216Y-16510637D01*
X-8957974Y-16527169D01*
X-8965051Y-16538559D01*
X-8971679Y-16515320D01*
X-8972414Y-16511879D01*
X-8981678Y-16491555D01*
X-8997429Y-16505899D01*
X-8998573Y-16507532D01*
X-9011298Y-16522610D01*
X-9008631Y-16505569D01*
X-9002163Y-16493058D01*
X-8971799Y-16474598D01*
X-8951439Y-16479905D01*
G37*
G36*
X-22692751Y-9645169D02*
G01*
X-22202840Y-9645169D01*
X-22202840Y-9890125D01*
X-22692751Y-9890125D01*
X-22692751Y-10695215D01*
X-22452506Y-10764721D01*
X-22435312Y-10769699D01*
X-22345564Y-10795782D01*
X-22269146Y-10818155D01*
X-22213686Y-10834576D01*
X-22186809Y-10842803D01*
X-22179382Y-10847273D01*
X-22170410Y-10868929D01*
X-22169077Y-10913403D01*
X-22174789Y-10987851D01*
X-22175587Y-10995834D01*
X-22183230Y-11062203D01*
X-22190617Y-11111263D01*
X-22196251Y-11132895D01*
X-22201498Y-11132843D01*
X-22235064Y-11125084D01*
X-22292768Y-11108998D01*
X-22366777Y-11086990D01*
X-22449257Y-11061462D01*
X-22532376Y-11034818D01*
X-22608301Y-11009461D01*
X-22669198Y-10987795D01*
X-22670631Y-10987512D01*
X-22677317Y-10995571D01*
X-22682601Y-11022043D01*
X-22686618Y-11070138D01*
X-22689506Y-11143068D01*
X-22691399Y-11244045D01*
X-22692436Y-11376280D01*
X-22692751Y-11542984D01*
X-22692751Y-12106998D01*
X-22646760Y-12150204D01*
X-22644008Y-12152771D01*
X-22620678Y-12171449D01*
X-22594168Y-12182795D01*
X-22555869Y-12188097D01*
X-22497168Y-12188644D01*
X-22409456Y-12185726D01*
X-22218144Y-12178042D01*
X-22231186Y-12299830D01*
X-22238451Y-12360042D01*
X-22246911Y-12415710D01*
X-22253814Y-12446598D01*
X-22255122Y-12449094D01*
X-22273537Y-12459717D01*
X-22314949Y-12466656D01*
X-22384235Y-12470436D01*
X-22486270Y-12471579D01*
X-22512208Y-12471515D01*
X-22623930Y-12468821D01*
X-22707041Y-12460976D01*
X-22769011Y-12446350D01*
X-22817312Y-12423315D01*
X-22859415Y-12390242D01*
X-22880111Y-12370688D01*
X-22903134Y-12346226D01*
X-22921683Y-12319748D01*
X-22936311Y-12287290D01*
X-22947570Y-12244889D01*
X-22956015Y-12188584D01*
X-22962199Y-12114411D01*
X-22966675Y-12018407D01*
X-22969997Y-11896609D01*
X-22972718Y-11745055D01*
X-22975392Y-11559782D01*
X-22984813Y-10883519D01*
X-23187373Y-10819604D01*
X-23389932Y-10755690D01*
X-23389932Y-10477302D01*
X-23235820Y-10524630D01*
X-23213749Y-10531441D01*
X-23138341Y-10555176D01*
X-23075405Y-10575653D01*
X-23036745Y-10589053D01*
X-23005451Y-10600194D01*
X-22983587Y-10606149D01*
X-22983415Y-10606070D01*
X-22980880Y-10585956D01*
X-22978677Y-10534319D01*
X-22976940Y-10456945D01*
X-22975801Y-10359621D01*
X-22975392Y-10248137D01*
X-22975392Y-9890125D01*
X-23408775Y-9890125D01*
X-23408775Y-9645169D01*
X-22975392Y-9645169D01*
X-22975392Y-8910303D01*
X-22692751Y-8910303D01*
X-22692751Y-9645169D01*
G37*
G36*
X-15080288Y-11699027D02*
G01*
X-15080288Y-11435229D01*
X-16129853Y-11435229D01*
X-16141229Y-11732002D01*
X-16143582Y-11785275D01*
X-16150009Y-11890357D01*
X-16157955Y-11983298D01*
X-16166630Y-12055584D01*
X-16175245Y-12098705D01*
X-16210260Y-12177039D01*
X-16284865Y-12267613D01*
X-16387807Y-12334772D01*
X-16517370Y-12377119D01*
X-16531204Y-12379064D01*
X-16585557Y-12382749D01*
X-16669801Y-12385802D01*
X-16778657Y-12388126D01*
X-16906845Y-12389624D01*
X-17049084Y-12390199D01*
X-17200095Y-12389751D01*
X-17249569Y-12389426D01*
X-17419707Y-12387999D01*
X-17557643Y-12385757D01*
X-17667735Y-12381959D01*
X-17754345Y-12375863D01*
X-17821833Y-12366730D01*
X-17874560Y-12353817D01*
X-17916887Y-12336383D01*
X-17953174Y-12313689D01*
X-17987782Y-12284991D01*
X-18025072Y-12249550D01*
X-18064172Y-12203908D01*
X-18103678Y-12135142D01*
X-18137938Y-12045046D01*
X-18168961Y-11928169D01*
X-18198761Y-11779063D01*
X-18204091Y-11749370D01*
X-18218071Y-11672633D01*
X-18229675Y-11610490D01*
X-18236812Y-11574199D01*
X-18237839Y-11568460D01*
X-18235037Y-11548121D01*
X-18215924Y-11530131D01*
X-18173923Y-11510045D01*
X-18102452Y-11483416D01*
X-18082046Y-11476252D01*
X-18018577Y-11455125D01*
X-17972943Y-11441713D01*
X-17953913Y-11438659D01*
X-17949558Y-11456685D01*
X-17941099Y-11504919D01*
X-17929906Y-11575673D01*
X-17917231Y-11661341D01*
X-17896526Y-11784273D01*
X-17867909Y-11898441D01*
X-17833037Y-11983001D01*
X-17790057Y-12042269D01*
X-17737113Y-12080563D01*
X-17736892Y-12080673D01*
X-17713708Y-12090400D01*
X-17684733Y-12098018D01*
X-17645412Y-12103773D01*
X-17591189Y-12107913D01*
X-17517507Y-12110684D01*
X-17419810Y-12112335D01*
X-17293541Y-12113111D01*
X-17134146Y-12113260D01*
X-17034619Y-12113162D01*
X-16886707Y-12112456D01*
X-16769888Y-12110458D01*
X-16679958Y-12106453D01*
X-16612715Y-12099726D01*
X-16563955Y-12089564D01*
X-16529475Y-12075249D01*
X-16505072Y-12056068D01*
X-16486543Y-12031306D01*
X-16469684Y-12000248D01*
X-16456663Y-11969327D01*
X-16447042Y-11928638D01*
X-16441765Y-11873634D01*
X-16440127Y-11796546D01*
X-16441420Y-11689605D01*
X-16446386Y-11444650D01*
X-17129435Y-11439704D01*
X-17812484Y-11434759D01*
X-17812484Y-11171430D01*
X-17511000Y-11171430D01*
X-15080288Y-11171430D01*
X-15080288Y-10549620D01*
X-16135481Y-10549620D01*
X-16135481Y-11171430D01*
X-16436965Y-11171430D01*
X-16436965Y-10549620D01*
X-17511000Y-10549620D01*
X-17511000Y-11171430D01*
X-17812484Y-11171430D01*
X-17812484Y-10285822D01*
X-17511000Y-10285822D01*
X-15080288Y-10285822D01*
X-15080288Y-9645169D01*
X-16135481Y-9645169D01*
X-16135481Y-10285822D01*
X-16436053Y-10285822D01*
X-16441220Y-9970206D01*
X-16446386Y-9654591D01*
X-16978693Y-9649587D01*
X-17511000Y-9644582D01*
X-17511000Y-10285822D01*
X-17812484Y-10285822D01*
X-17812484Y-9381371D01*
X-16436965Y-9381371D01*
X-16436965Y-8910303D01*
X-16135481Y-8910303D01*
X-16135481Y-9381371D01*
X-14778804Y-9381371D01*
X-14778804Y-11699027D01*
X-15080288Y-11699027D01*
G37*
G36*
X-11784182Y-12221505D02*
G01*
X-11643310Y-12233971D01*
X-11517694Y-12257376D01*
X-11396613Y-12293698D01*
X-11269346Y-12344916D01*
X-11266227Y-12346303D01*
X-11191250Y-12384548D01*
X-11150560Y-12416633D01*
X-11144930Y-12441624D01*
X-11175132Y-12458590D01*
X-11188587Y-12461706D01*
X-11281833Y-12469090D01*
X-11388564Y-12459017D01*
X-11492509Y-12432808D01*
X-11571248Y-12407092D01*
X-11691840Y-12372066D01*
X-11820689Y-12338480D01*
X-11946812Y-12309016D01*
X-12059227Y-12286350D01*
X-12146954Y-12273162D01*
X-12158453Y-12271916D01*
X-12223663Y-12262417D01*
X-12254831Y-12251853D01*
X-12255168Y-12239218D01*
X-12228035Y-12230696D01*
X-12166765Y-12224078D01*
X-12075181Y-12219762D01*
X-11956974Y-12218012D01*
X-11951033Y-12217998D01*
X-11784182Y-12221505D01*
G37*
G36*
X-9804324Y-15307410D02*
G01*
X-9813745Y-15316831D01*
X-9823166Y-15307410D01*
X-9813745Y-15297988D01*
X-9804324Y-15307410D01*
G37*
G36*
X-18792306Y-9362528D02*
G01*
X-19979398Y-9362528D01*
X-20026397Y-9362539D01*
X-20231774Y-9362852D01*
X-20424891Y-9363567D01*
X-20602570Y-9364646D01*
X-20761633Y-9366053D01*
X-20898902Y-9367748D01*
X-21011197Y-9369694D01*
X-21095343Y-9371853D01*
X-21148159Y-9374188D01*
X-21166468Y-9376660D01*
X-21156237Y-9386897D01*
X-21118812Y-9417313D01*
X-21057233Y-9465018D01*
X-20974975Y-9527383D01*
X-20875512Y-9601776D01*
X-20762319Y-9685566D01*
X-20638871Y-9776123D01*
X-20111297Y-10161453D01*
X-20111297Y-10549620D01*
X-18396609Y-10549620D01*
X-18396609Y-10813419D01*
X-20111297Y-10813419D01*
X-20111297Y-11417322D01*
X-20111294Y-11449560D01*
X-20111016Y-11622548D01*
X-20109842Y-11762446D01*
X-20107150Y-11873192D01*
X-20102318Y-11958727D01*
X-20094724Y-12022989D01*
X-20083745Y-12069919D01*
X-20068760Y-12103455D01*
X-20049147Y-12127538D01*
X-20024284Y-12146106D01*
X-19993549Y-12163100D01*
X-19975687Y-12171304D01*
X-19943679Y-12180709D01*
X-19900866Y-12186245D01*
X-19840544Y-12188300D01*
X-19756011Y-12187262D01*
X-19640567Y-12183518D01*
X-19585271Y-12181273D01*
X-19487640Y-12176378D01*
X-19405819Y-12171079D01*
X-19347093Y-12165878D01*
X-19318750Y-12161280D01*
X-19309504Y-12158860D01*
X-19300331Y-12164832D01*
X-19297989Y-12188620D01*
X-19302228Y-12236681D01*
X-19312798Y-12315476D01*
X-19317699Y-12349999D01*
X-19327460Y-12418405D01*
X-19334484Y-12467141D01*
X-19337504Y-12487386D01*
X-19338554Y-12487824D01*
X-19364622Y-12489278D01*
X-19421460Y-12489962D01*
X-19503439Y-12489874D01*
X-19604933Y-12489016D01*
X-19720310Y-12487386D01*
X-19745772Y-12486954D01*
X-19870622Y-12484485D01*
X-19964946Y-12481537D01*
X-20034836Y-12477455D01*
X-20086384Y-12471582D01*
X-20125681Y-12463265D01*
X-20158820Y-12451847D01*
X-20191891Y-12436675D01*
X-20250375Y-12401879D01*
X-20335172Y-12318783D01*
X-20395167Y-12207781D01*
X-20395514Y-12206858D01*
X-20402876Y-12176403D01*
X-20409077Y-12126417D01*
X-20414250Y-12053873D01*
X-20418528Y-11955748D01*
X-20422044Y-11829015D01*
X-20424932Y-11670649D01*
X-20427325Y-11477625D01*
X-20434208Y-10813419D01*
X-22052098Y-10813419D01*
X-22052098Y-10549620D01*
X-20431623Y-10549620D01*
X-20431623Y-10289918D01*
X-21044012Y-9840561D01*
X-21656401Y-9391203D01*
X-21656401Y-9098730D01*
X-18792306Y-9098730D01*
X-18792306Y-9362528D01*
G37*
G36*
X-23813424Y-10685054D02*
G01*
X-23849633Y-10793217D01*
X-23896673Y-10917492D01*
X-23949214Y-11044802D01*
X-24001924Y-11162071D01*
X-24049470Y-11256223D01*
X-24088651Y-11323564D01*
X-24165665Y-11444125D01*
X-24255771Y-11574396D01*
X-24351505Y-11703329D01*
X-24391145Y-11754739D01*
X-24234419Y-11856560D01*
X-24177275Y-11892530D01*
X-24013571Y-11986429D01*
X-23832649Y-12079518D01*
X-23648403Y-12164868D01*
X-23474724Y-12235548D01*
X-23413204Y-12258650D01*
X-23346246Y-12284270D01*
X-23299566Y-12302714D01*
X-23280703Y-12311049D01*
X-23280830Y-12313047D01*
X-23294314Y-12336727D01*
X-23324202Y-12380742D01*
X-23365495Y-12437629D01*
X-23455882Y-12558935D01*
X-23602626Y-12496824D01*
X-23715534Y-12446858D01*
X-23942027Y-12335442D01*
X-24166939Y-12211420D01*
X-24372494Y-12084316D01*
X-24393589Y-12070408D01*
X-24469480Y-12020819D01*
X-24531975Y-11980675D01*
X-24575082Y-11953791D01*
X-24592814Y-11943982D01*
X-24595501Y-11945068D01*
X-24621190Y-11961417D01*
X-24667059Y-11993321D01*
X-24725461Y-12035501D01*
X-24765083Y-12064165D01*
X-24990919Y-12213007D01*
X-25235405Y-12349639D01*
X-25508046Y-12479452D01*
X-25608370Y-12523820D01*
X-25721277Y-12388524D01*
X-25834183Y-12253228D01*
X-25653119Y-12191395D01*
X-25622636Y-12180744D01*
X-25517475Y-12141378D01*
X-25410180Y-12098041D01*
X-25319803Y-12058337D01*
X-25268120Y-12032913D01*
X-25183777Y-11987793D01*
X-25094664Y-11936845D01*
X-25008415Y-11884723D01*
X-24932666Y-11836082D01*
X-24875052Y-11795574D01*
X-24843210Y-11767853D01*
X-24839559Y-11752619D01*
X-24852653Y-11721877D01*
X-24887531Y-11673668D01*
X-24946912Y-11603695D01*
X-24976836Y-11569069D01*
X-25089448Y-11426727D01*
X-25196313Y-11273569D01*
X-25294574Y-11115072D01*
X-25381375Y-10956713D01*
X-25453859Y-10803969D01*
X-25509170Y-10662316D01*
X-25535642Y-10568463D01*
X-25239059Y-10568463D01*
X-25226527Y-10610859D01*
X-25220824Y-10629008D01*
X-25186052Y-10719748D01*
X-25137190Y-10828058D01*
X-25079726Y-10942850D01*
X-25019145Y-11053038D01*
X-24960935Y-11147533D01*
X-24939333Y-11179093D01*
X-24870450Y-11272249D01*
X-24795503Y-11365394D01*
X-24727267Y-11442407D01*
X-24603307Y-11572400D01*
X-24508561Y-11451997D01*
X-24503728Y-11445842D01*
X-24361546Y-11250432D01*
X-24246992Y-11059926D01*
X-24154007Y-10863053D01*
X-24076530Y-10648545D01*
X-24051230Y-10568463D01*
X-25239059Y-10568463D01*
X-25535642Y-10568463D01*
X-25544451Y-10537233D01*
X-25556846Y-10434196D01*
X-25556846Y-10323508D01*
X-24765451Y-10323508D01*
X-24765451Y-9758226D01*
X-25764116Y-9758226D01*
X-25764116Y-9494427D01*
X-24765451Y-9494427D01*
X-24765451Y-8891460D01*
X-24482810Y-8891460D01*
X-24482810Y-9494427D01*
X-23521831Y-9494427D01*
X-23521831Y-9758226D01*
X-24482810Y-9758226D01*
X-24482810Y-10323508D01*
X-23521831Y-10323508D01*
X-23521831Y-10568463D01*
X-23780732Y-10568463D01*
X-23805544Y-10657966D01*
X-23813424Y-10685054D01*
G37*
G36*
X-17982068Y-16692350D02*
G01*
X-18660407Y-16692350D01*
X-18660407Y-14581965D01*
X-17982068Y-14581965D01*
X-17982068Y-16692350D01*
G37*
G36*
X-10609614Y-15413924D02*
G01*
X-10605140Y-15429887D01*
X-10609002Y-15435588D01*
X-10623982Y-15448730D01*
X-10626708Y-15447843D01*
X-10642825Y-15429887D01*
X-10644334Y-15419908D01*
X-10623982Y-15411045D01*
X-10609614Y-15413924D01*
G37*
G36*
X-29847251Y-14520709D02*
G01*
X-29678769Y-14531376D01*
X-29531075Y-14556285D01*
X-29393513Y-14597615D01*
X-29255429Y-14657545D01*
X-29125361Y-14732418D01*
X-28979485Y-14851604D01*
X-28863209Y-14993956D01*
X-28776421Y-15159651D01*
X-28719011Y-15348869D01*
X-28690867Y-15561786D01*
X-28688525Y-15698723D01*
X-28710710Y-15907849D01*
X-28764371Y-16096999D01*
X-28848535Y-16265022D01*
X-28962228Y-16410765D01*
X-29104476Y-16533075D01*
X-29274308Y-16630802D01*
X-29470748Y-16702792D01*
X-29692825Y-16747893D01*
X-29852049Y-16759704D01*
X-30042751Y-16754357D01*
X-30235387Y-16730997D01*
X-30417564Y-16691186D01*
X-30576885Y-16636486D01*
X-30663226Y-16599476D01*
X-30663226Y-16316165D01*
X-30663174Y-16238092D01*
X-30662513Y-16152001D01*
X-30660397Y-16094146D01*
X-30655981Y-16058915D01*
X-30648418Y-16040696D01*
X-30636859Y-16033880D01*
X-30620459Y-16032855D01*
X-30618169Y-16032961D01*
X-30580474Y-16045896D01*
X-30525748Y-16076199D01*
X-30465006Y-16117848D01*
X-30448194Y-16130148D01*
X-30320247Y-16203325D01*
X-30181000Y-16252362D01*
X-30037071Y-16277158D01*
X-29895082Y-16277611D01*
X-29761653Y-16253620D01*
X-29643404Y-16205084D01*
X-29546956Y-16131900D01*
X-29539547Y-16124213D01*
X-29478920Y-16051470D01*
X-29436513Y-15975807D01*
X-29409600Y-15888714D01*
X-29395451Y-15781677D01*
X-29391341Y-15646183D01*
X-29391557Y-15573449D01*
X-29393451Y-15496815D01*
X-29398811Y-15440590D01*
X-29409411Y-15394692D01*
X-29427026Y-15349040D01*
X-29453431Y-15293552D01*
X-29501758Y-15209129D01*
X-29584786Y-15112746D01*
X-29685809Y-15046674D01*
X-29808624Y-15008674D01*
X-29957030Y-14996505D01*
X-30049765Y-15002995D01*
X-30185741Y-15032456D01*
X-30316964Y-15081790D01*
X-30432671Y-15146686D01*
X-30522100Y-15222833D01*
X-30557230Y-15247281D01*
X-30609618Y-15260303D01*
X-30663226Y-15260303D01*
X-30663226Y-14678886D01*
X-30554880Y-14638102D01*
X-30499548Y-14617789D01*
X-30354014Y-14571228D01*
X-30220217Y-14541272D01*
X-30083288Y-14525116D01*
X-29928359Y-14519958D01*
X-29847251Y-14520709D01*
G37*
G36*
X-35240420Y-8895834D02*
G01*
X-35183525Y-8929426D01*
X-35132516Y-8962811D01*
X-35109134Y-8990337D01*
X-35111215Y-9020614D01*
X-35136594Y-9062252D01*
X-35183109Y-9123860D01*
X-35205638Y-9152946D01*
X-35241211Y-9197247D01*
X-35269124Y-9233314D01*
X-35286647Y-9261982D01*
X-35291052Y-9284085D01*
X-35279612Y-9300459D01*
X-35249596Y-9311941D01*
X-35198278Y-9319363D01*
X-35122928Y-9323564D01*
X-35020819Y-9325376D01*
X-34889222Y-9325637D01*
X-34725407Y-9325181D01*
X-34526648Y-9324843D01*
X-33734591Y-9324843D01*
X-33734591Y-10022024D01*
X-33998389Y-10022024D01*
X-33998389Y-9569798D01*
X-36768270Y-9569798D01*
X-36768270Y-10022024D01*
X-37032068Y-10022024D01*
X-37032068Y-9324843D01*
X-35459374Y-9324843D01*
X-35534408Y-9274831D01*
X-35558873Y-9258465D01*
X-35598088Y-9231924D01*
X-35616814Y-9218782D01*
X-35611032Y-9203851D01*
X-35586048Y-9166199D01*
X-35546611Y-9112711D01*
X-35497827Y-9050096D01*
X-35444803Y-8985059D01*
X-35392644Y-8924310D01*
X-35323624Y-8846534D01*
X-35240420Y-8895834D01*
G37*
G36*
X-24053202Y-15385360D02*
G01*
X-24063287Y-15537780D01*
X-24080716Y-15675608D01*
X-24105122Y-15787591D01*
X-24110212Y-15804659D01*
X-24192181Y-16011980D01*
X-24303754Y-16197623D01*
X-24442416Y-16359468D01*
X-24605653Y-16495391D01*
X-24790952Y-16603272D01*
X-24995798Y-16680989D01*
X-25217677Y-16726420D01*
X-25348225Y-16740150D01*
X-25466941Y-16745448D01*
X-25583927Y-16741403D01*
X-25717009Y-16728077D01*
X-25830732Y-16710596D01*
X-26055456Y-16651796D01*
X-26256482Y-16564103D01*
X-26433042Y-16448185D01*
X-26584368Y-16304711D01*
X-26709694Y-16134349D01*
X-26808252Y-15937767D01*
X-26879274Y-15715634D01*
X-26885641Y-15687617D01*
X-26909252Y-15532866D01*
X-26920307Y-15358911D01*
X-26920180Y-15343587D01*
X-26177338Y-15343587D01*
X-26173000Y-15467808D01*
X-26161037Y-15573223D01*
X-26158111Y-15589364D01*
X-26112678Y-15750828D01*
X-26042621Y-15895578D01*
X-25951475Y-16018744D01*
X-25842776Y-16115454D01*
X-25720060Y-16180837D01*
X-25631188Y-16206301D01*
X-25488718Y-16220566D01*
X-25345310Y-16206796D01*
X-25210910Y-16166275D01*
X-25095464Y-16100284D01*
X-25040181Y-16052438D01*
X-24943735Y-15933125D01*
X-24869467Y-15786661D01*
X-24818384Y-15615967D01*
X-24791491Y-15423961D01*
X-24789797Y-15213565D01*
X-24792619Y-15168379D01*
X-24820200Y-14963088D01*
X-24870355Y-14787339D01*
X-24942898Y-14641372D01*
X-25037642Y-14525426D01*
X-25154400Y-14439743D01*
X-25292985Y-14384561D01*
X-25453211Y-14360122D01*
X-25501143Y-14358183D01*
X-25579151Y-14359976D01*
X-25645008Y-14371273D01*
X-25715479Y-14394255D01*
X-25717897Y-14395172D01*
X-25848901Y-14464000D01*
X-25959687Y-14563215D01*
X-26051114Y-14693788D01*
X-26124039Y-14856690D01*
X-26129537Y-14873452D01*
X-26150151Y-14965493D01*
X-26165359Y-15081689D01*
X-26174606Y-15211300D01*
X-26177338Y-15343587D01*
X-26920180Y-15343587D01*
X-26918821Y-15179305D01*
X-26904810Y-15007601D01*
X-26878290Y-14857354D01*
X-26869276Y-14821954D01*
X-26794362Y-14606700D01*
X-26691332Y-14414936D01*
X-26561574Y-14248198D01*
X-26406475Y-14108024D01*
X-26227423Y-13995949D01*
X-26025806Y-13913509D01*
X-25906981Y-13881225D01*
X-25690496Y-13845712D01*
X-25467631Y-13835756D01*
X-25245754Y-13850685D01*
X-25032229Y-13889827D01*
X-24834426Y-13952511D01*
X-24659709Y-14038064D01*
X-24639568Y-14050494D01*
X-24479369Y-14173631D01*
X-24340729Y-14325470D01*
X-24225914Y-14502589D01*
X-24137189Y-14701564D01*
X-24076820Y-14918970D01*
X-24070681Y-14953109D01*
X-24056532Y-15081770D01*
X-24051447Y-15213565D01*
X-24050828Y-15229605D01*
X-24053202Y-15385360D01*
G37*
G36*
X-34431772Y-12528107D02*
G01*
X-34431772Y-12358171D01*
X-35369198Y-12363057D01*
X-36306623Y-12367944D01*
X-36312417Y-12448025D01*
X-36318212Y-12528107D01*
X-36579843Y-12528107D01*
X-36579843Y-12132410D01*
X-36317052Y-12132410D01*
X-34431772Y-12132410D01*
X-34431772Y-11566776D01*
X-35369198Y-11571663D01*
X-36306623Y-11576549D01*
X-36311838Y-11854479D01*
X-36317052Y-12132410D01*
X-36579843Y-12132410D01*
X-36579843Y-11341015D01*
X-34167974Y-11341015D01*
X-34167974Y-12528107D01*
X-34431772Y-12528107D01*
G37*
G36*
X-31190822Y-11265644D02*
G01*
X-31190822Y-10964160D01*
X-31869160Y-10964160D01*
X-31869160Y-11209116D01*
X-32131160Y-11209116D01*
X-32142380Y-10973582D01*
X-32830140Y-10963310D01*
X-32830140Y-11190273D01*
X-33093938Y-11190273D01*
X-33093938Y-10756890D01*
X-32830140Y-10756890D01*
X-31190822Y-10756890D01*
X-31190822Y-10493092D01*
X-31869160Y-10493092D01*
X-31869160Y-10756890D01*
X-32131237Y-10756890D01*
X-32136808Y-10629702D01*
X-32142380Y-10502513D01*
X-32486260Y-10497378D01*
X-32830140Y-10492242D01*
X-32830140Y-10756890D01*
X-33093938Y-10756890D01*
X-33093938Y-10285822D01*
X-32830140Y-10285822D01*
X-31190822Y-10285822D01*
X-31190822Y-10022024D01*
X-31869160Y-10022024D01*
X-31869160Y-10285822D01*
X-32132959Y-10285822D01*
X-32132959Y-10022024D01*
X-32830140Y-10022024D01*
X-32830140Y-10285822D01*
X-33093938Y-10285822D01*
X-33093938Y-9795911D01*
X-32132959Y-9795911D01*
X-32132959Y-9550956D01*
X-33320051Y-9550956D01*
X-33320051Y-9324843D01*
X-32132959Y-9324843D01*
X-32132959Y-8891460D01*
X-31869160Y-8891460D01*
X-31869160Y-9324843D01*
X-30738597Y-9324843D01*
X-30738597Y-9550956D01*
X-31869160Y-9550956D01*
X-31869160Y-9795911D01*
X-30927024Y-9795911D01*
X-30927024Y-11265644D01*
X-31190822Y-11265644D01*
G37*
G36*
X-10828112Y-15417326D02*
G01*
X-10825164Y-15422993D01*
X-10840674Y-15429887D01*
X-10850649Y-15428528D01*
X-10853236Y-15417326D01*
X-10850474Y-15415070D01*
X-10828112Y-15417326D01*
G37*
G36*
X-34039358Y-10315939D02*
G01*
X-33929465Y-10402696D01*
X-33738063Y-10545035D01*
X-33826477Y-10632120D01*
X-33871735Y-10674733D01*
X-33909977Y-10706903D01*
X-33930379Y-10719205D01*
X-33938410Y-10716205D01*
X-33972831Y-10694222D01*
X-34026741Y-10654927D01*
X-34094068Y-10603119D01*
X-34168741Y-10543600D01*
X-34244689Y-10481169D01*
X-34315843Y-10420625D01*
X-34376130Y-10366770D01*
X-34489680Y-10261642D01*
X-34644443Y-10412166D01*
X-34689678Y-10454667D01*
X-34776109Y-10530162D01*
X-34863172Y-10600369D01*
X-34937556Y-10654291D01*
X-35075906Y-10745892D01*
X-34975241Y-10780320D01*
X-34913254Y-10800399D01*
X-34758981Y-10843882D01*
X-34578955Y-10887676D01*
X-34381196Y-10930113D01*
X-34173721Y-10969527D01*
X-33964549Y-11004249D01*
X-33761700Y-11032614D01*
X-33496747Y-11065738D01*
X-33573273Y-11192616D01*
X-33600605Y-11236549D01*
X-33635905Y-11285332D01*
X-33663152Y-11308750D01*
X-33687484Y-11312180D01*
X-33711494Y-11308063D01*
X-33767882Y-11299148D01*
X-33844668Y-11287426D01*
X-33932439Y-11274350D01*
X-34225887Y-11225301D01*
X-34709536Y-11117497D01*
X-35172638Y-10979353D01*
X-35395330Y-10903912D01*
X-35599015Y-10971574D01*
X-35679501Y-10997454D01*
X-36022689Y-11090208D01*
X-36393049Y-11163203D01*
X-36793379Y-11217013D01*
X-36876954Y-11226266D01*
X-36949052Y-11232703D01*
X-36998914Y-11230697D01*
X-37034927Y-11216630D01*
X-37065475Y-11186886D01*
X-37098946Y-11137847D01*
X-37143724Y-11065897D01*
X-37216039Y-10950942D01*
X-36912073Y-10939724D01*
X-36791343Y-10934079D01*
X-36383554Y-10896042D01*
X-35997004Y-10829319D01*
X-35985479Y-10826840D01*
X-35878565Y-10803673D01*
X-35806526Y-10785466D01*
X-35767745Y-10768674D01*
X-35760608Y-10749752D01*
X-35783499Y-10725155D01*
X-35834803Y-10691337D01*
X-35912904Y-10644753D01*
X-36035327Y-10567140D01*
X-36164011Y-10476634D01*
X-36285693Y-10382700D01*
X-36391515Y-10292185D01*
X-36472621Y-10211940D01*
X-36504469Y-10174884D01*
X-36528950Y-10135080D01*
X-36153853Y-10135080D01*
X-36088918Y-10202601D01*
X-36076252Y-10215194D01*
X-36005306Y-10275194D01*
X-35910548Y-10343994D01*
X-35800385Y-10416035D01*
X-35683222Y-10485754D01*
X-35567464Y-10547591D01*
X-35533010Y-10564493D01*
X-35466118Y-10595517D01*
X-35414673Y-10616976D01*
X-35387686Y-10624991D01*
X-35356955Y-10616063D01*
X-35300922Y-10588675D01*
X-35228264Y-10547163D01*
X-35146044Y-10495941D01*
X-35061326Y-10439423D01*
X-34981175Y-10382024D01*
X-34912654Y-10328157D01*
X-34868159Y-10291251D01*
X-34817648Y-10249298D01*
X-34780349Y-10215569D01*
X-34758707Y-10189173D01*
X-34755171Y-10169219D01*
X-34772187Y-10154816D01*
X-34812202Y-10145073D01*
X-34877662Y-10139100D01*
X-34971014Y-10136005D01*
X-35094705Y-10134897D01*
X-35251182Y-10134886D01*
X-35442891Y-10135080D01*
X-36153853Y-10135080D01*
X-36528950Y-10135080D01*
X-36529381Y-10134380D01*
X-36539957Y-10088837D01*
X-36542157Y-10021970D01*
X-36542157Y-9908967D01*
X-35694235Y-9908967D01*
X-35626684Y-9908950D01*
X-35428668Y-9908607D01*
X-35264842Y-9907710D01*
X-35132529Y-9906110D01*
X-35029051Y-9903659D01*
X-34951730Y-9900207D01*
X-34897890Y-9895604D01*
X-34864852Y-9889703D01*
X-34849939Y-9882353D01*
X-34850474Y-9873405D01*
X-34863778Y-9862711D01*
X-34872471Y-9855360D01*
X-34901629Y-9824022D01*
X-34938676Y-9779403D01*
X-34996107Y-9706891D01*
X-34867447Y-9650062D01*
X-34738786Y-9593234D01*
X-34643527Y-9718126D01*
X-34603421Y-9767978D01*
X-34513286Y-9869187D01*
X-34404425Y-9981670D01*
X-34284225Y-10098344D01*
X-34206892Y-10169219D01*
X-34160074Y-10212128D01*
X-34039358Y-10315939D01*
G37*
G36*
X-9096607Y-15440299D02*
G01*
X-9023055Y-15590639D01*
X-8946653Y-15765702D01*
X-8869109Y-15961594D01*
X-8792133Y-16174421D01*
X-8717432Y-16400288D01*
X-8704917Y-16439892D01*
X-8676024Y-16531192D01*
X-8651725Y-16607792D01*
X-8634269Y-16662612D01*
X-8625902Y-16688573D01*
X-8630470Y-16702636D01*
X-8660559Y-16708551D01*
X-8722028Y-16707416D01*
X-8826358Y-16701772D01*
X-8872345Y-16569873D01*
X-8874432Y-16563896D01*
X-8898574Y-16495954D01*
X-8918899Y-16440739D01*
X-8931196Y-16409709D01*
X-8939723Y-16384654D01*
X-8949268Y-16336870D01*
X-8954667Y-16306968D01*
X-8964334Y-16282439D01*
X-8971437Y-16281309D01*
X-8985287Y-16301391D01*
X-8997439Y-16338880D01*
X-9004222Y-16380896D01*
X-9001969Y-16414558D01*
X-8997995Y-16439545D01*
X-9013094Y-16437871D01*
X-9020478Y-16435971D01*
X-9028665Y-16450730D01*
X-9031261Y-16492868D01*
X-9028879Y-16567411D01*
X-9021618Y-16711193D01*
X-11952395Y-16711193D01*
X-11952395Y-16672396D01*
X-11949456Y-16650594D01*
X-11938263Y-16642322D01*
X-11930287Y-16642321D01*
X-11921564Y-16618356D01*
X-11919439Y-16571424D01*
X-11923544Y-16510491D01*
X-11933508Y-16444525D01*
X-11948962Y-16382492D01*
X-11984152Y-16271379D01*
X-12005164Y-16331654D01*
X-12005930Y-16333896D01*
X-12016637Y-16384385D01*
X-12014347Y-16422753D01*
X-12010594Y-16438986D01*
X-12021203Y-16442029D01*
X-12023626Y-16441568D01*
X-12039696Y-16459547D01*
X-12061569Y-16505014D01*
X-12085644Y-16570779D01*
X-12131401Y-16711076D01*
X-12203331Y-16711135D01*
X-12243113Y-16709412D01*
X-12265690Y-16699927D01*
X-12265737Y-16678218D01*
X-12264323Y-16673228D01*
X-12253716Y-16634751D01*
X-12235986Y-16569739D01*
X-12213225Y-16485882D01*
X-12187526Y-16390867D01*
X-12120136Y-16151309D01*
X-12050165Y-15926193D01*
X-11982095Y-15733309D01*
X-11914885Y-15569931D01*
X-11847495Y-15433333D01*
X-11778883Y-15320790D01*
X-11732105Y-15265630D01*
X-11683141Y-15223601D01*
X-11191215Y-15223601D01*
X-11190471Y-15247619D01*
X-11189614Y-15253345D01*
X-11175527Y-15300438D01*
X-11151748Y-15354392D01*
X-11148269Y-15361065D01*
X-11127220Y-15397055D01*
X-11114673Y-15402993D01*
X-11104284Y-15382656D01*
X-11096072Y-15364028D01*
X-11087726Y-15367561D01*
X-11077723Y-15404760D01*
X-11077338Y-15406454D01*
X-11060030Y-15450608D01*
X-11037371Y-15474829D01*
X-11025949Y-15477375D01*
X-11012344Y-15466732D01*
X-11007543Y-15430932D01*
X-11010060Y-15363938D01*
X-11010237Y-15361103D01*
X-11009165Y-15326649D01*
X-11002142Y-15318895D01*
X-10998025Y-15327917D01*
X-10990880Y-15366644D01*
X-10986211Y-15422530D01*
X-10984285Y-15456021D01*
X-10977428Y-15495763D01*
X-10961287Y-15513827D01*
X-10929857Y-15520673D01*
X-10896435Y-15529831D01*
X-10888394Y-15543936D01*
X-10886602Y-15556965D01*
X-10861571Y-15581804D01*
X-10820279Y-15607958D01*
X-10773973Y-15628646D01*
X-10733898Y-15637087D01*
X-10708121Y-15641384D01*
X-10685940Y-15658555D01*
X-10680981Y-15661424D01*
X-10668797Y-15642361D01*
X-10654176Y-15604459D01*
X-10640610Y-15558587D01*
X-10631593Y-15515615D01*
X-10631090Y-15500548D01*
X-10500837Y-15500548D01*
X-10489513Y-15516078D01*
X-10454398Y-15524101D01*
X-10437693Y-15523518D01*
X-10413219Y-15514409D01*
X-10410661Y-15487882D01*
X-10427553Y-15435825D01*
X-10447816Y-15382781D01*
X-10313077Y-15382781D01*
X-10310398Y-15395867D01*
X-10289524Y-15411333D01*
X-10278380Y-15414485D01*
X-10293364Y-15428950D01*
X-10297603Y-15431806D01*
X-10311049Y-15453501D01*
X-10299913Y-15487882D01*
X-10299259Y-15489901D01*
X-10284198Y-15523967D01*
X-10266438Y-15574178D01*
X-10260029Y-15591836D01*
X-10228819Y-15622555D01*
X-10176468Y-15622877D01*
X-10160769Y-15615072D01*
X-10149985Y-15592974D01*
X-10144819Y-15549136D01*
X-10143493Y-15475613D01*
X-10143543Y-15452322D01*
X-10145129Y-15389521D01*
X-10149055Y-15363938D01*
X-10124650Y-15363938D01*
X-10118797Y-15395004D01*
X-10101097Y-15411333D01*
X-10088054Y-15414143D01*
X-10102319Y-15427333D01*
X-10102783Y-15427636D01*
X-10119126Y-15459618D01*
X-10119665Y-15475613D01*
X-10121162Y-15520071D01*
X-10120746Y-15525339D01*
X-10114744Y-15570309D01*
X-10103550Y-15585574D01*
X-10082254Y-15578506D01*
X-10062761Y-15560041D01*
X-10047093Y-15518454D01*
X-10046773Y-15512965D01*
X-10043193Y-15493078D01*
X-10036411Y-15509341D01*
X-10034324Y-15516461D01*
X-10020701Y-15531617D01*
X-9991490Y-15518941D01*
X-9970914Y-15499213D01*
X-9958491Y-15461385D01*
X-9955066Y-15397091D01*
X-9955000Y-15392202D01*
X-9932998Y-15392202D01*
X-9931296Y-15417582D01*
X-9921455Y-15458524D01*
X-9904270Y-15463191D01*
X-9880358Y-15431126D01*
X-9875400Y-15421253D01*
X-9860728Y-15369044D01*
X-9868853Y-15331335D01*
X-9898402Y-15316831D01*
X-9920817Y-15321366D01*
X-9932011Y-15343146D01*
X-9932998Y-15392202D01*
X-9955000Y-15392202D01*
X-9954456Y-15351938D01*
X-9949401Y-15315688D01*
X-9935394Y-15300844D01*
X-9907959Y-15297988D01*
X-9842009Y-15297988D01*
X-9841649Y-15331878D01*
X-9839985Y-15369044D01*
X-9839708Y-15375241D01*
X-9836650Y-15392202D01*
X-9835994Y-15391954D01*
X-9822156Y-15374353D01*
X-9798965Y-15337477D01*
X-9784487Y-15310164D01*
X-9767539Y-15255120D01*
X-9774232Y-15217626D01*
X-9804324Y-15203775D01*
X-9813040Y-15204178D01*
X-9831603Y-15213295D01*
X-9833080Y-15218237D01*
X-9840025Y-15241479D01*
X-9841017Y-15269724D01*
X-9842009Y-15297988D01*
X-9907959Y-15297988D01*
X-9877232Y-15292456D01*
X-9860852Y-15269724D01*
X-9863138Y-15255104D01*
X-9885557Y-15242479D01*
X-9931768Y-15258927D01*
X-9951229Y-15268411D01*
X-9999501Y-15287383D01*
X-10012166Y-15292878D01*
X-10027567Y-15316360D01*
X-10026838Y-15364129D01*
X-10026537Y-15366810D01*
X-10027055Y-15413027D01*
X-10040378Y-15429887D01*
X-10053322Y-15415401D01*
X-10053298Y-15373359D01*
X-10050627Y-15348007D01*
X-10057476Y-15322807D01*
X-10084826Y-15316831D01*
X-10085761Y-15316835D01*
X-10116151Y-15327347D01*
X-10124650Y-15363938D01*
X-10149055Y-15363938D01*
X-10150522Y-15354376D01*
X-10161834Y-15339042D01*
X-10181178Y-15335674D01*
X-10205001Y-15341547D01*
X-10218864Y-15372247D01*
X-10221622Y-15393817D01*
X-10235949Y-15419380D01*
X-10244414Y-15417729D01*
X-10243173Y-15392228D01*
X-10243134Y-15392077D01*
X-10243888Y-15362486D01*
X-10273194Y-15354516D01*
X-10297166Y-15359816D01*
X-10313077Y-15382781D01*
X-10447816Y-15382781D01*
X-10449419Y-15385666D01*
X-10473993Y-15429887D01*
X-10491718Y-15467592D01*
X-10500837Y-15500548D01*
X-10631090Y-15500548D01*
X-10630618Y-15486416D01*
X-10631860Y-15473712D01*
X-10622918Y-15471998D01*
X-10622754Y-15472155D01*
X-10605369Y-15467257D01*
X-10583442Y-15436870D01*
X-10575151Y-15420658D01*
X-10560567Y-15385666D01*
X-10566927Y-15374063D01*
X-10595718Y-15378819D01*
X-10618343Y-15381723D01*
X-10633404Y-15373735D01*
X-10636684Y-15369062D01*
X-10665793Y-15356993D01*
X-10715225Y-15346526D01*
X-10731382Y-15344075D01*
X-10795938Y-15333857D01*
X-10847124Y-15325175D01*
X-10854827Y-15323898D01*
X-10888565Y-15325974D01*
X-10899080Y-15349437D01*
X-10899203Y-15351333D01*
X-10904086Y-15361815D01*
X-10914062Y-15335674D01*
X-10928987Y-15305690D01*
X-10964001Y-15288567D01*
X-10985851Y-15286123D01*
X-11011948Y-15273500D01*
X-11019656Y-15267543D01*
X-11056006Y-15250805D01*
X-11109054Y-15232552D01*
X-11148508Y-15221027D01*
X-11163658Y-15218286D01*
X-10832443Y-15218286D01*
X-10830709Y-15219125D01*
X-10803441Y-15226179D01*
X-10750655Y-15237566D01*
X-10681614Y-15251261D01*
X-10676254Y-15252276D01*
X-10593683Y-15265629D01*
X-10515314Y-15274726D01*
X-10457451Y-15277648D01*
X-10412465Y-15274072D01*
X-10337777Y-15263702D01*
X-10254337Y-15249204D01*
X-10177260Y-15233242D01*
X-10121660Y-15218480D01*
X-10121316Y-15218237D01*
X-10139170Y-15216639D01*
X-10188532Y-15215255D01*
X-10264002Y-15214165D01*
X-10360181Y-15213452D01*
X-10471670Y-15213196D01*
X-10486634Y-15213200D01*
X-10597451Y-15213509D01*
X-10693060Y-15214252D01*
X-10767841Y-15215348D01*
X-10816175Y-15216720D01*
X-10832443Y-15218286D01*
X-11163658Y-15218286D01*
X-11180217Y-15215290D01*
X-11191215Y-15223601D01*
X-11683141Y-15223601D01*
X-11649830Y-15195008D01*
X-11554579Y-15133069D01*
X-11459655Y-15089453D01*
X-11390876Y-15065666D01*
X-11535026Y-14991958D01*
X-11608180Y-14953955D01*
X-11751689Y-14874183D01*
X-11872504Y-14797506D01*
X-11979562Y-14717488D01*
X-12081803Y-14627695D01*
X-12188165Y-14521689D01*
X-12253018Y-14452813D01*
X-12327138Y-14368519D01*
X-12386218Y-14291762D01*
X-12437992Y-14212247D01*
X-12490193Y-14119680D01*
X-12531577Y-14043068D01*
X-12565018Y-13984773D01*
X-12590152Y-13949118D01*
X-12611924Y-13930517D01*
X-12635281Y-13923387D01*
X-12665172Y-13922142D01*
X-12712690Y-13918792D01*
X-12785754Y-13908814D01*
X-12862909Y-13894579D01*
X-12954992Y-13869599D01*
X-13099343Y-13802378D01*
X-13222763Y-13704286D01*
X-13327348Y-13573878D01*
X-13400218Y-13445652D01*
X-13450424Y-13308003D01*
X-13469437Y-13168439D01*
X-13466899Y-13131074D01*
X-13298560Y-13131074D01*
X-13298077Y-13191990D01*
X-13294681Y-13261543D01*
X-13285979Y-13313229D01*
X-13269603Y-13359013D01*
X-13243185Y-13410858D01*
X-13210197Y-13463969D01*
X-13121299Y-13568466D01*
X-13015013Y-13655134D01*
X-12902335Y-13714186D01*
X-12859554Y-13728242D01*
X-12784698Y-13745959D01*
X-12722970Y-13752884D01*
X-12722495Y-13752884D01*
X-12674770Y-13750485D01*
X-12656132Y-13740300D01*
X-12658179Y-13717777D01*
X-12673183Y-13661559D01*
X-12694153Y-13553504D01*
X-12713921Y-13417848D01*
X-12731659Y-13260514D01*
X-12746534Y-13087424D01*
X-12755183Y-12969860D01*
X-12589415Y-12969860D01*
X-12586062Y-13031335D01*
X-12579459Y-13111972D01*
X-12570388Y-13204161D01*
X-12559631Y-13300290D01*
X-12547967Y-13392746D01*
X-12536180Y-13473917D01*
X-12525050Y-13536193D01*
X-12473176Y-13740300D01*
X-12471615Y-13746442D01*
X-12396730Y-13947167D01*
X-12299935Y-14127850D01*
X-12176990Y-14296309D01*
X-12023653Y-14460362D01*
X-11893620Y-14575064D01*
X-11675216Y-14728816D01*
X-11435091Y-14856910D01*
X-11179118Y-14956363D01*
X-10913171Y-15024193D01*
X-10881201Y-15029621D01*
X-10798852Y-15040343D01*
X-10701412Y-15050013D01*
X-10597635Y-15058079D01*
X-10496276Y-15063989D01*
X-10406086Y-15067189D01*
X-10335822Y-15067129D01*
X-10294235Y-15063254D01*
X-10285175Y-15061403D01*
X-10241801Y-15054228D01*
X-10175736Y-15044343D01*
X-10097263Y-15033313D01*
X-9937275Y-15003054D01*
X-9726790Y-14941905D01*
X-9515071Y-14859188D01*
X-9313987Y-14759657D01*
X-9135407Y-14648066D01*
X-9120815Y-14637467D01*
X-9019003Y-14553300D01*
X-8909593Y-14448295D01*
X-8802203Y-14332716D01*
X-8706455Y-14216828D01*
X-8631969Y-14110896D01*
X-8614928Y-14082667D01*
X-8520106Y-13887368D01*
X-8476245Y-13752884D01*
X-8290825Y-13752884D01*
X-8213784Y-13752870D01*
X-8181427Y-13750362D01*
X-8093631Y-13727428D01*
X-7997430Y-13685296D01*
X-7904906Y-13629795D01*
X-7828137Y-13566757D01*
X-7807955Y-13546041D01*
X-7741295Y-13464234D01*
X-7697481Y-13379495D01*
X-7671918Y-13280607D01*
X-7660014Y-13156355D01*
X-7658115Y-13111004D01*
X-7657529Y-13037630D01*
X-7663025Y-12983083D01*
X-7676413Y-12934705D01*
X-7699499Y-12879835D01*
X-7737038Y-12811358D01*
X-7788325Y-12737754D01*
X-7844485Y-12670964D01*
X-7898048Y-12619835D01*
X-7941543Y-12593216D01*
X-7964126Y-12592227D01*
X-8005039Y-12611655D01*
X-8061862Y-12658447D01*
X-8100854Y-12692538D01*
X-8125003Y-12710960D01*
X-8141385Y-12723457D01*
X-8164585Y-12735377D01*
X-8165500Y-12735505D01*
X-8175137Y-12756066D01*
X-8181532Y-12807313D01*
X-8183849Y-12882846D01*
X-8184709Y-12922353D01*
X-8185935Y-12978640D01*
X-8195656Y-13136334D01*
X-8211890Y-13302216D01*
X-8233061Y-13461007D01*
X-8257592Y-13597432D01*
X-8290825Y-13752884D01*
X-8476245Y-13752884D01*
X-8446285Y-13661022D01*
X-8393536Y-13403886D01*
X-8361928Y-13116217D01*
X-8348476Y-12922353D01*
X-8395623Y-12943835D01*
X-8400992Y-12946393D01*
X-8428122Y-12967281D01*
X-8436458Y-12986389D01*
X-8443645Y-13002864D01*
X-8453020Y-13064634D01*
X-8455179Y-13082613D01*
X-8485297Y-13198954D01*
X-8539150Y-13295673D01*
X-8612893Y-13365532D01*
X-8651424Y-13387347D01*
X-8714980Y-13411949D01*
X-8794762Y-13430866D01*
X-8895038Y-13444641D01*
X-9020078Y-13453813D01*
X-9174149Y-13458925D01*
X-9361520Y-13460518D01*
X-9459424Y-13460448D01*
X-9573111Y-13459827D01*
X-9658970Y-13458140D01*
X-9722829Y-13454882D01*
X-9770515Y-13449547D01*
X-9807859Y-13441632D01*
X-9840686Y-13430630D01*
X-9874826Y-13416036D01*
X-9910934Y-13397415D01*
X-9981475Y-13350533D01*
X-10037424Y-13300871D01*
X-10065837Y-13263897D01*
X-10107512Y-13193260D01*
X-10144532Y-13114080D01*
X-10171040Y-13039350D01*
X-10181178Y-12982059D01*
X-10182271Y-12972271D01*
X-10195901Y-12955335D01*
X-10231427Y-12943808D01*
X-10296737Y-12934441D01*
X-10307755Y-12933321D01*
X-10388108Y-12929390D01*
X-10484244Y-12929716D01*
X-10577713Y-12934307D01*
X-10743129Y-12947247D01*
X-10743439Y-12948916D01*
X-10755844Y-13015607D01*
X-10785242Y-13123792D01*
X-10849350Y-13246315D01*
X-10942398Y-13344820D01*
X-11064847Y-13419908D01*
X-11078110Y-13425885D01*
X-11108929Y-13437697D01*
X-11143207Y-13446437D01*
X-11186647Y-13452563D01*
X-11244954Y-13456531D01*
X-11323832Y-13458798D01*
X-11428986Y-13459822D01*
X-11566119Y-13460058D01*
X-11646166Y-13459842D01*
X-11815784Y-13457337D01*
X-11954149Y-13451504D01*
X-12065761Y-13441699D01*
X-12155122Y-13427275D01*
X-12226730Y-13407588D01*
X-12285086Y-13381993D01*
X-12334691Y-13349843D01*
X-12338170Y-13347152D01*
X-12412807Y-13265586D01*
X-12460991Y-13162086D01*
X-12478967Y-13044596D01*
X-12482030Y-13000491D01*
X-12496528Y-12966669D01*
X-12529533Y-12944966D01*
X-12566266Y-12931582D01*
X-12587223Y-12930541D01*
X-12588737Y-12935161D01*
X-12589415Y-12969860D01*
X-12755183Y-12969860D01*
X-12759135Y-12916144D01*
X-12419323Y-12916144D01*
X-12418950Y-13019972D01*
X-12416080Y-13051456D01*
X-12392630Y-13160078D01*
X-12347434Y-13243284D01*
X-12277016Y-13304375D01*
X-12177899Y-13346649D01*
X-12046609Y-13373407D01*
X-12011159Y-13377815D01*
X-11894396Y-13388655D01*
X-11761553Y-13396849D01*
X-11623336Y-13402071D01*
X-11490448Y-13403995D01*
X-11373594Y-13402294D01*
X-11283478Y-13396643D01*
X-11215950Y-13386931D01*
X-11082527Y-13347481D01*
X-10977251Y-13283512D01*
X-10899298Y-13194421D01*
X-10847840Y-13079608D01*
X-10839209Y-13049290D01*
X-10821250Y-12948916D01*
X-10825591Y-12910358D01*
X-10104634Y-12910358D01*
X-10100940Y-13002805D01*
X-10067929Y-13117843D01*
X-10036262Y-13186578D01*
X-9972030Y-13270177D01*
X-9884750Y-13331385D01*
X-9770608Y-13372601D01*
X-9625790Y-13396227D01*
X-9572151Y-13401082D01*
X-9459017Y-13408197D01*
X-9349809Y-13409558D01*
X-9230809Y-13405132D01*
X-9088300Y-13394884D01*
X-8926789Y-13378682D01*
X-8797237Y-13357807D01*
X-8697880Y-13329718D01*
X-8624978Y-13291709D01*
X-8574786Y-13241077D01*
X-8543562Y-13175116D01*
X-8527563Y-13091121D01*
X-8523047Y-12986389D01*
X-8524511Y-12912727D01*
X-8532786Y-12847573D01*
X-8552114Y-12805319D01*
X-8586667Y-12777827D01*
X-8640613Y-12756958D01*
X-8704633Y-12741211D01*
X-8819221Y-12723759D01*
X-8957794Y-12711108D01*
X-9112682Y-12703258D01*
X-9276213Y-12700208D01*
X-9440718Y-12701960D01*
X-9598526Y-12708512D01*
X-9741967Y-12719864D01*
X-9863370Y-12736017D01*
X-9955066Y-12756971D01*
X-10021881Y-12786213D01*
X-10078464Y-12838745D01*
X-10104634Y-12910358D01*
X-10825591Y-12910358D01*
X-10829845Y-12872566D01*
X-10867506Y-12815846D01*
X-10936747Y-12774365D01*
X-11040083Y-12743731D01*
X-11044436Y-12742787D01*
X-11154489Y-12725135D01*
X-11290256Y-12712564D01*
X-11443843Y-12704978D01*
X-11607355Y-12702283D01*
X-11772901Y-12704383D01*
X-11932584Y-12711184D01*
X-12078512Y-12722592D01*
X-12202791Y-12738510D01*
X-12297527Y-12758845D01*
X-12303282Y-12760586D01*
X-12363800Y-12791421D01*
X-12401710Y-12841617D01*
X-12419323Y-12916144D01*
X-12759135Y-12916144D01*
X-12769846Y-12770554D01*
X-12827478Y-12746463D01*
X-12875455Y-12720340D01*
X-12880315Y-12716298D01*
X-12593048Y-12716298D01*
X-12592372Y-12761525D01*
X-12586858Y-12808831D01*
X-12572482Y-12837739D01*
X-12545353Y-12859973D01*
X-12544496Y-12860533D01*
X-12509984Y-12880051D01*
X-12492977Y-12883961D01*
X-12491194Y-12880699D01*
X-12477569Y-12852400D01*
X-12456590Y-12806889D01*
X-12448186Y-12789853D01*
X-12412120Y-12741465D01*
X-12359756Y-12706571D01*
X-12283994Y-12681497D01*
X-12177730Y-12662566D01*
X-12070847Y-12649712D01*
X-11890224Y-12635374D01*
X-11705543Y-12628782D01*
X-11522708Y-12629620D01*
X-11347626Y-12637571D01*
X-11186201Y-12652319D01*
X-11044338Y-12673547D01*
X-10927943Y-12700938D01*
X-10842920Y-12734175D01*
X-10842367Y-12734475D01*
X-10804858Y-12768367D01*
X-10774877Y-12816975D01*
X-10749957Y-12876697D01*
X-10465563Y-12871043D01*
X-10181169Y-12865388D01*
X-10152715Y-12810362D01*
X-10140157Y-12789490D01*
X-10102681Y-12750229D01*
X-10047852Y-12718195D01*
X-9971606Y-12692181D01*
X-9869882Y-12670976D01*
X-9738617Y-12653374D01*
X-9573748Y-12638165D01*
X-9563901Y-12637412D01*
X-9429566Y-12630728D01*
X-9282210Y-12628987D01*
X-9130268Y-12631802D01*
X-8982177Y-12638785D01*
X-8846372Y-12649547D01*
X-8731289Y-12663701D01*
X-8645365Y-12680859D01*
X-8622643Y-12688105D01*
X-8548462Y-12727395D01*
X-8490036Y-12781487D01*
X-8458234Y-12841077D01*
X-8458171Y-12841327D01*
X-8442167Y-12878342D01*
X-8418463Y-12880783D01*
X-8382348Y-12849153D01*
X-8381610Y-12848330D01*
X-8369161Y-12830520D01*
X-8360676Y-12805786D01*
X-8355690Y-12767980D01*
X-8353741Y-12710960D01*
X-8354363Y-12628579D01*
X-8357093Y-12514694D01*
X-8358593Y-12462002D01*
X-8362166Y-12362054D01*
X-8366756Y-12288967D01*
X-8373523Y-12235158D01*
X-8383628Y-12193044D01*
X-8398234Y-12155041D01*
X-8418499Y-12113567D01*
X-8480791Y-12000239D01*
X-8590882Y-11837165D01*
X-8710109Y-11707023D01*
X-8841837Y-11606949D01*
X-8989434Y-11534078D01*
X-9156264Y-11485543D01*
X-9157128Y-11485361D01*
X-9226093Y-11471910D01*
X-9267663Y-11467597D01*
X-9290932Y-11472489D01*
X-9304991Y-11486656D01*
X-9335345Y-11529871D01*
X-9374760Y-11570879D01*
X-9420311Y-11593381D01*
X-9485646Y-11606423D01*
X-9492512Y-11607361D01*
X-9586771Y-11615719D01*
X-9708038Y-11620479D01*
X-9846693Y-11621768D01*
X-9993115Y-11619710D01*
X-10137683Y-11614432D01*
X-10270776Y-11606059D01*
X-10382773Y-11594716D01*
X-10546907Y-11568596D01*
X-10773004Y-11519950D01*
X-11005177Y-11457501D01*
X-11232486Y-11384537D01*
X-11443993Y-11304345D01*
X-11628759Y-11220214D01*
X-11660108Y-11204400D01*
X-11708296Y-11181557D01*
X-11733642Y-11174361D01*
X-11743476Y-11181691D01*
X-11745125Y-11202428D01*
X-11754800Y-11243636D01*
X-11781147Y-11307185D01*
X-11819311Y-11383591D01*
X-11864439Y-11463736D01*
X-11911674Y-11538502D01*
X-11956162Y-11598770D01*
X-11958969Y-11602119D01*
X-12017117Y-11663817D01*
X-12090306Y-11731744D01*
X-12163393Y-11791796D01*
X-12179620Y-11804268D01*
X-12278388Y-11891946D01*
X-12359338Y-11989130D01*
X-12426750Y-12102866D01*
X-12484908Y-12240194D01*
X-12538092Y-12408158D01*
X-12542455Y-12423973D01*
X-12569040Y-12535253D01*
X-12586665Y-12636962D01*
X-12593048Y-12716298D01*
X-12880315Y-12716298D01*
X-12912002Y-12689947D01*
X-12944545Y-12660509D01*
X-12991764Y-12630181D01*
X-13022324Y-12616505D01*
X-13047188Y-12616730D01*
X-13075931Y-12635807D01*
X-13119682Y-12677886D01*
X-13147773Y-12708725D01*
X-13202401Y-12780502D01*
X-13246743Y-12852501D01*
X-13261072Y-12880892D01*
X-13280929Y-12929226D01*
X-13292300Y-12978985D01*
X-13297428Y-13042244D01*
X-13298560Y-13131074D01*
X-13466899Y-13131074D01*
X-13459256Y-13018544D01*
X-13439637Y-12932852D01*
X-13400969Y-12824768D01*
X-13350732Y-12719567D01*
X-13294515Y-12628730D01*
X-13237904Y-12563739D01*
X-13223937Y-12551297D01*
X-13192101Y-12517756D01*
X-13183735Y-12491302D01*
X-13193667Y-12459785D01*
X-13208463Y-12408919D01*
X-13214858Y-12348921D01*
X-13217118Y-12320136D01*
X-13230025Y-12254028D01*
X-13250560Y-12184934D01*
X-13256279Y-12168662D01*
X-13304534Y-12004699D01*
X-13347076Y-11812904D01*
X-13382803Y-11601892D01*
X-13410615Y-11380283D01*
X-13429408Y-11156695D01*
X-13438082Y-10939743D01*
X-13435534Y-10738048D01*
X-13433801Y-10703892D01*
X-13411846Y-10476680D01*
X-13373176Y-10256165D01*
X-13319676Y-10049811D01*
X-13253231Y-9865083D01*
X-13175727Y-9709442D01*
X-13151929Y-9672208D01*
X-13071374Y-9567572D01*
X-12970575Y-9457712D01*
X-12858865Y-9351720D01*
X-12745576Y-9258685D01*
X-12640041Y-9187696D01*
X-12575348Y-9147882D01*
X-12497393Y-9089228D01*
X-12452667Y-9038395D01*
X-12439478Y-9017024D01*
X-12349597Y-8903445D01*
X-12230296Y-8791457D01*
X-12088350Y-8685688D01*
X-11930532Y-8590766D01*
X-11763619Y-8511321D01*
X-11594383Y-8451981D01*
X-11483672Y-8425797D01*
X-11320305Y-8399200D01*
X-11134985Y-8379174D01*
X-10936135Y-8366085D01*
X-10732181Y-8360297D01*
X-10531547Y-8362177D01*
X-10342656Y-8372089D01*
X-10173933Y-8390398D01*
X-10057502Y-8409065D01*
X-9695953Y-8490914D01*
X-9349695Y-8606975D01*
X-9017088Y-8757864D01*
X-8696490Y-8944194D01*
X-8695457Y-8944863D01*
X-8580751Y-9022186D01*
X-8478612Y-9098377D01*
X-8382025Y-9179707D01*
X-8283976Y-9272448D01*
X-8177448Y-9382871D01*
X-8055425Y-9517247D01*
X-8049151Y-9524292D01*
X-7934060Y-9651276D01*
X-7837825Y-9752237D01*
X-7756476Y-9830807D01*
X-7686042Y-9890616D01*
X-7622553Y-9935295D01*
X-7562039Y-9968477D01*
X-7536036Y-9981862D01*
X-7481293Y-10016470D01*
X-7444691Y-10048347D01*
X-7416681Y-10105711D01*
X-7416960Y-10174081D01*
X-7446342Y-10239447D01*
X-7502406Y-10291600D01*
X-7543439Y-10317172D01*
X-7575354Y-10337717D01*
X-7582054Y-10346607D01*
X-7587169Y-10373798D01*
X-7587090Y-10422774D01*
X-7581734Y-10498704D01*
X-7571018Y-10606756D01*
X-7570722Y-10609544D01*
X-7560258Y-10730261D01*
X-7551602Y-10870939D01*
X-7545643Y-11014326D01*
X-7543276Y-11143166D01*
X-7542750Y-11203580D01*
X-7538023Y-11343706D01*
X-7528747Y-11457294D01*
X-7515309Y-11538864D01*
X-7503597Y-11591318D01*
X-7492066Y-11653984D01*
X-7487339Y-11695766D01*
X-7487490Y-11700570D01*
X-7505521Y-11748069D01*
X-7545178Y-11796668D01*
X-7594575Y-11834518D01*
X-7641824Y-11849769D01*
X-7650046Y-11850082D01*
X-7665986Y-11854960D01*
X-7679897Y-11869941D01*
X-7693934Y-11900336D01*
X-7710248Y-11951458D01*
X-7730993Y-12028615D01*
X-7758323Y-12137120D01*
X-7772830Y-12195196D01*
X-7796404Y-12288557D01*
X-7816160Y-12365532D01*
X-7830362Y-12419385D01*
X-7837275Y-12443384D01*
X-7832950Y-12457135D01*
X-7806225Y-12489049D01*
X-7762479Y-12528152D01*
X-7681665Y-12606024D01*
X-7591120Y-12735431D01*
X-7522831Y-12889767D01*
X-7494785Y-13008571D01*
X-7493454Y-13037630D01*
X-7487675Y-13163854D01*
X-7509716Y-13318400D01*
X-7560094Y-13459728D01*
X-7629188Y-13579658D01*
X-7736262Y-13707856D01*
X-7863763Y-13804738D01*
X-8013230Y-13871410D01*
X-8186204Y-13908976D01*
X-8241273Y-13916242D01*
X-8303904Y-13926751D01*
X-8341753Y-13938271D01*
X-8362669Y-13953573D01*
X-8374501Y-13975427D01*
X-8379084Y-13986832D01*
X-8414423Y-14058604D01*
X-8465974Y-14147892D01*
X-8527537Y-14244845D01*
X-8592910Y-14339616D01*
X-8655893Y-14422356D01*
X-8689126Y-14462372D01*
X-8786582Y-14568938D01*
X-8889949Y-14664157D01*
X-9006662Y-14753922D01*
X-9144155Y-14844124D01*
X-9309862Y-14940656D01*
X-9503160Y-15048454D01*
X-9399850Y-15098999D01*
X-9357298Y-15122824D01*
X-9287805Y-15172180D01*
X-9234144Y-15222440D01*
X-9228325Y-15229372D01*
X-9210221Y-15255120D01*
X-9165600Y-15318579D01*
X-9096607Y-15440299D01*
G37*
G36*
X-11085629Y-15326252D02*
G01*
X-11095051Y-15335674D01*
X-11104472Y-15326252D01*
X-11095051Y-15316831D01*
X-11085629Y-15326252D01*
G37*
G36*
X-9263375Y-12777631D02*
G01*
X-9131820Y-12781144D01*
X-8986023Y-12786908D01*
X-8876524Y-12793886D01*
X-8802534Y-12802132D01*
X-8763263Y-12811698D01*
X-8731864Y-12832589D01*
X-8712041Y-12875444D01*
X-8726643Y-12929230D01*
X-8775511Y-12991638D01*
X-8810180Y-13024634D01*
X-8847015Y-13050100D01*
X-8874292Y-13050067D01*
X-8900331Y-13026887D01*
X-8910078Y-13012029D01*
X-8908435Y-12986955D01*
X-8880511Y-12951516D01*
X-8836775Y-12904962D01*
X-8901299Y-12904754D01*
X-8966902Y-12901282D01*
X-9034575Y-12893177D01*
X-9047423Y-12891138D01*
X-9087483Y-12889640D01*
X-9111948Y-12906457D01*
X-9135647Y-12949912D01*
X-9142839Y-12964944D01*
X-9161716Y-13002943D01*
X-9170528Y-13018302D01*
X-9173758Y-13019300D01*
X-9201737Y-13029040D01*
X-9248463Y-13045739D01*
X-9252613Y-13047234D01*
X-9305980Y-13065545D01*
X-9340772Y-13071552D01*
X-9373016Y-13065393D01*
X-9418743Y-13047206D01*
X-9419217Y-13047007D01*
X-9477023Y-13008408D01*
X-9523634Y-12952992D01*
X-9543895Y-12922196D01*
X-9577204Y-12893580D01*
X-9621254Y-12886119D01*
X-9667726Y-12894820D01*
X-9722475Y-12926570D01*
X-9740630Y-12942486D01*
X-9768752Y-12955477D01*
X-9794350Y-12943105D01*
X-9802535Y-12935806D01*
X-9820835Y-12904441D01*
X-9809654Y-12868528D01*
X-9767418Y-12820916D01*
X-9711670Y-12767506D01*
X-9263375Y-12777631D01*
G37*
G36*
X-11460739Y-14082641D02*
G01*
X-11423653Y-14093066D01*
X-11408861Y-14129739D01*
X-11401007Y-14163688D01*
X-11384982Y-14198012D01*
X-11371272Y-14208861D01*
X-11317896Y-14228869D01*
X-11233831Y-14246385D01*
X-11123704Y-14261219D01*
X-10992140Y-14273181D01*
X-10843765Y-14282082D01*
X-10683204Y-14287731D01*
X-10515084Y-14289940D01*
X-10344031Y-14288519D01*
X-10174669Y-14283277D01*
X-10011625Y-14274025D01*
X-9859524Y-14260574D01*
X-9761465Y-14248390D01*
X-9676717Y-14232425D01*
X-9620007Y-14212888D01*
X-9586124Y-14187890D01*
X-9569855Y-14155540D01*
X-9569740Y-14155082D01*
X-9551370Y-14119989D01*
X-9516306Y-14114384D01*
X-9499180Y-14118470D01*
X-9479587Y-14138637D01*
X-9474576Y-14184234D01*
X-9475035Y-14197737D01*
X-9484933Y-14239554D01*
X-9510526Y-14273585D01*
X-9555476Y-14301138D01*
X-9623451Y-14323525D01*
X-9718115Y-14342055D01*
X-9843134Y-14358038D01*
X-10002172Y-14372783D01*
X-10054588Y-14376698D01*
X-10233968Y-14385386D01*
X-10428699Y-14388776D01*
X-10629975Y-14387121D01*
X-10828988Y-14380672D01*
X-11016929Y-14369679D01*
X-11184991Y-14354394D01*
X-11324367Y-14335068D01*
X-11407582Y-14313825D01*
X-11473721Y-14276132D01*
X-11508749Y-14222213D01*
X-11515218Y-14149586D01*
X-11509987Y-14112281D01*
X-11494863Y-14088229D01*
X-11462484Y-14082632D01*
X-11460739Y-14082641D01*
G37*
G36*
X-32530503Y-8915139D02*
G01*
X-32502425Y-8944055D01*
X-32470152Y-8990384D01*
X-32421496Y-9070466D01*
X-32630528Y-9176163D01*
X-32635315Y-9178582D01*
X-32716662Y-9219004D01*
X-32786287Y-9252405D01*
X-32836928Y-9275376D01*
X-32861324Y-9284509D01*
X-32871651Y-9280888D01*
X-32897671Y-9254157D01*
X-32927031Y-9211145D01*
X-32953081Y-9163334D01*
X-32969169Y-9122205D01*
X-32968643Y-9099240D01*
X-32948329Y-9086906D01*
X-32900581Y-9063015D01*
X-32834918Y-9032299D01*
X-32760000Y-8998586D01*
X-32684491Y-8965703D01*
X-32617051Y-8937477D01*
X-32566343Y-8917734D01*
X-32541028Y-8910303D01*
X-32530503Y-8915139D01*
G37*
G36*
X-30984289Y-15871921D02*
G01*
X-31033300Y-16069784D01*
X-31111904Y-16245977D01*
X-31218861Y-16399030D01*
X-31352932Y-16527475D01*
X-31512876Y-16629842D01*
X-31697454Y-16704662D01*
X-31905425Y-16750465D01*
X-31907930Y-16750811D01*
X-32007866Y-16758186D01*
X-32130073Y-16757983D01*
X-32260495Y-16750949D01*
X-32385073Y-16737832D01*
X-32489753Y-16719379D01*
X-32638064Y-16673685D01*
X-32807163Y-16588343D01*
X-32953453Y-16474010D01*
X-33075137Y-16332476D01*
X-33170419Y-16165531D01*
X-33237498Y-15974965D01*
X-33248612Y-15922431D01*
X-33262757Y-15804285D01*
X-33268331Y-15677662D01*
X-32574365Y-15677662D01*
X-32572607Y-15786858D01*
X-32567213Y-15869224D01*
X-32557435Y-15932980D01*
X-32542526Y-15986345D01*
X-32533714Y-16009810D01*
X-32476341Y-16116075D01*
X-32400369Y-16202795D01*
X-32313298Y-16260987D01*
X-32278051Y-16274982D01*
X-32164411Y-16297460D01*
X-32048056Y-16291311D01*
X-31937680Y-16258739D01*
X-31841976Y-16201948D01*
X-31769636Y-16123143D01*
X-31747060Y-16086430D01*
X-31715351Y-16022319D01*
X-31693589Y-15953560D01*
X-31680111Y-15871928D01*
X-31673253Y-15769202D01*
X-31671353Y-15637157D01*
X-31671937Y-15570663D01*
X-31678467Y-15437258D01*
X-31693724Y-15330971D01*
X-31719551Y-15244733D01*
X-31757791Y-15171471D01*
X-31810288Y-15104116D01*
X-31851834Y-15062342D01*
X-31925054Y-15012079D01*
X-32009990Y-14985570D01*
X-32118221Y-14978076D01*
X-32190471Y-14982079D01*
X-32303922Y-15009785D01*
X-32396058Y-15066004D01*
X-32470419Y-15153275D01*
X-32530543Y-15274141D01*
X-32533080Y-15280690D01*
X-32550355Y-15331525D01*
X-32562011Y-15383444D01*
X-32569151Y-15445592D01*
X-32572876Y-15527114D01*
X-32574288Y-15637157D01*
X-32574365Y-15677662D01*
X-33268331Y-15677662D01*
X-33268681Y-15669711D01*
X-33266389Y-15531902D01*
X-33255888Y-15404051D01*
X-33237185Y-15299349D01*
X-33187688Y-15148288D01*
X-33098726Y-14975765D01*
X-32982343Y-14828671D01*
X-32839706Y-14708160D01*
X-32671980Y-14615383D01*
X-32480332Y-14551493D01*
X-32422546Y-14540020D01*
X-32296677Y-14525580D01*
X-32155119Y-14519434D01*
X-32010984Y-14521594D01*
X-31877380Y-14532072D01*
X-31767418Y-14550878D01*
X-31680065Y-14575650D01*
X-31497637Y-14652905D01*
X-31340069Y-14757596D01*
X-31208529Y-14888140D01*
X-31104186Y-15042951D01*
X-31028208Y-15220448D01*
X-30981765Y-15419044D01*
X-30966024Y-15637157D01*
X-30966110Y-15653858D01*
X-30984289Y-15871921D01*
G37*
G36*
X-9018337Y-12210733D02*
G01*
X-8928867Y-12213730D01*
X-8845564Y-12219128D01*
X-8776307Y-12226424D01*
X-8728974Y-12235113D01*
X-8711445Y-12244692D01*
X-8715631Y-12248482D01*
X-8748019Y-12258500D01*
X-8805472Y-12269923D01*
X-8879620Y-12280946D01*
X-8892905Y-12282782D01*
X-8980312Y-12298686D01*
X-9088581Y-12322990D01*
X-9205214Y-12352725D01*
X-9317713Y-12384927D01*
X-9430439Y-12417841D01*
X-9555977Y-12449006D01*
X-9656101Y-12465816D01*
X-9735880Y-12469053D01*
X-9800383Y-12459501D01*
X-9831529Y-12444762D01*
X-9831981Y-12422831D01*
X-9797818Y-12393274D01*
X-9728193Y-12354862D01*
X-9651821Y-12321337D01*
X-9503936Y-12272232D01*
X-9343995Y-12235160D01*
X-9187769Y-12214225D01*
X-9184257Y-12213960D01*
X-9106093Y-12210642D01*
X-9018337Y-12210733D01*
G37*
G36*
X-10162336Y-15420466D02*
G01*
X-10171757Y-15429887D01*
X-10181178Y-15420466D01*
X-10171757Y-15411045D01*
X-10162336Y-15420466D01*
G37*
G36*
X-10889275Y-15412524D02*
G01*
X-10887781Y-15429887D01*
X-10891648Y-15435526D01*
X-10907735Y-15448730D01*
X-10909616Y-15448240D01*
X-10916045Y-15429887D01*
X-10915278Y-15424723D01*
X-10896090Y-15411045D01*
X-10889275Y-15412524D01*
G37*
G36*
X-32547499Y-11416386D02*
G01*
X-30644383Y-11416386D01*
X-30644383Y-11642499D01*
X-32547499Y-11642499D01*
X-32547499Y-12116466D01*
X-32434105Y-12229860D01*
X-32122489Y-12223531D01*
X-32021358Y-12221592D01*
X-31935007Y-12220629D01*
X-31876671Y-12221556D01*
X-31841168Y-12224908D01*
X-31823313Y-12231222D01*
X-31817926Y-12241037D01*
X-31819822Y-12254887D01*
X-31822801Y-12268803D01*
X-31832025Y-12320133D01*
X-31841684Y-12382076D01*
X-31854597Y-12471579D01*
X-32189475Y-12471579D01*
X-32209352Y-12471577D01*
X-32324662Y-12471303D01*
X-32410021Y-12469994D01*
X-32472174Y-12466844D01*
X-32517864Y-12461049D01*
X-32553835Y-12451802D01*
X-32586831Y-12438299D01*
X-32623596Y-12419734D01*
X-32675690Y-12389891D01*
X-32722679Y-12352853D01*
X-32756725Y-12307886D01*
X-32780068Y-12249044D01*
X-32794947Y-12170387D01*
X-32803603Y-12065970D01*
X-32808277Y-11929850D01*
X-32814679Y-11642499D01*
X-33414264Y-11642499D01*
X-33414264Y-11416386D01*
X-32811297Y-11416386D01*
X-32811297Y-11190273D01*
X-32547499Y-11190273D01*
X-32547499Y-11416386D01*
G37*
%TD*%
%LPC*%
D13*
%TO.C,HOLE2*%
X-38890000Y-22710000D03*
%TD*%
%TO.C,HOLE4*%
X-800000Y-22710000D03*
%TD*%
D14*
%TO.C,USB1*%
X-3759000Y-15650000D03*
X-3759000Y-9870000D03*
D15*
X-4259000Y-17085000D03*
X-4259000Y-8435000D03*
D16*
X-59000Y-17085000D03*
X-59000Y-8435000D03*
%TD*%
D13*
%TO.C,HOLE3*%
X-800000Y-2710000D03*
%TD*%
D17*
%TO.C,J1*%
X-45385000Y-24205000D03*
D18*
X-45385000Y-21665000D03*
X-45385000Y-19125000D03*
X-45385000Y-16585000D03*
X-45385000Y-14045000D03*
X-45385000Y-11505000D03*
X-45385000Y-8965000D03*
X-45385000Y-6425000D03*
X-45385000Y-3885000D03*
X-45385000Y-1345000D03*
%TD*%
D13*
%TO.C,HOLE1*%
X-38890000Y-2710000D03*
%TD*%
M02*
