M48
; DRILL file {KiCad (6.0.10)} date Fri Dec 30 18:11:45 2022
; FORMAT={-:-/ absolute / metric / decimal}
; #@! TF.CreationDate,2022-12-30T18:11:45+08:00
; #@! TF.GenerationSoftware,Kicad,Pcbnew,(6.0.10)
; #@! TF.FileFunction,MixedPlating,1,2
FMAT,2
METRIC
; #@! TA.AperFunction,Plated,PTH,ComponentDrill
T1C0.200
; #@! TA.AperFunction,Plated,PTH,ViaDrill
T2C0.300
; #@! TA.AperFunction,Plated,PTH,ViaDrill
T3C0.400
; #@! TA.AperFunction,Plated,PTH,ComponentDrill
T4C0.600
; #@! TA.AperFunction,Plated,PTH,ComponentDrill
T5C1.000
; #@! TA.AperFunction,Plated,PTH,ComponentDrill
T6C1.200
; #@! TA.AperFunction,Plated,PTH,ComponentDrill
T7C2.200
; #@! TA.AperFunction,NonPlated,NPTH,ComponentDrill
T8C0.650
%
G90
G05
T1
X146.758Y-108.653
X147.465Y-107.945
X147.589Y-109.483
X148.172Y-107.238
X148.296Y-108.776
X148.42Y-110.314
X148.879Y-106.531
X149.003Y-108.069
X149.127Y-109.607
X149.251Y-111.145
X149.587Y-105.824
X149.71Y-107.362
X149.834Y-108.9
X149.958Y-110.438
X150.081Y-111.976
X150.417Y-106.655
X150.541Y-108.193
X150.665Y-109.731
X150.789Y-111.269
X151.248Y-107.486
X151.372Y-109.024
X151.496Y-110.562
X152.079Y-108.317
X152.203Y-109.855
X152.91Y-109.147
T2
X139.02Y-111.03
X139.024Y-109.912
X139.74Y-114.52
X140.75Y-114.52
X141.35Y-100.59
X142.35Y-99.95
X143.22Y-107.79
X143.36Y-100.59
X143.96Y-109.2
X144.389Y-111.87
X147.08Y-99.92
X147.08Y-103.91
X151.07Y-99.75
X152.17Y-102.89
X153.42Y-104.4
X154.61Y-103.53
X154.61Y-114.29
X156.99Y-108.72
X157.97Y-108.72
X157.97Y-111.35
X161.7Y-116.12
X162.82Y-108.4
X162.82Y-109.39
T3
X160.59Y-103.78
X160.62Y-111.54
T5
X135.107Y-103.82
X135.107Y-106.36
X135.107Y-108.9
X135.107Y-111.44
X135.107Y-113.98
X137.648Y-103.82
X137.648Y-106.36
X137.648Y-108.9
X137.648Y-111.44
X137.648Y-113.98
T6
X167.42Y-100.27
X167.42Y-117.49
T7
X136.16Y-116.88
X136.37Y-100.92
T8
X163.165Y-106.24
X163.165Y-112.02
T4
G00X162.065Y-104.805
M15
G01X163.265Y-104.805
M16
G05
G00X162.065Y-113.455
M15
G01X163.265Y-113.455
M16
G05
G00X166.415Y-104.805
M15
G01X167.315Y-104.805
M16
G05
G00X166.415Y-113.455
M15
G01X167.315Y-113.455
M16
G05
T0
M30
