%TF.GenerationSoftware,KiCad,Pcbnew,7.0.5*%
%TF.CreationDate,2023-07-05T13:27:57+08:00*%
%TF.ProjectId,UINIO-Logic-24MHz,55494e49-4f2d-44c6-9f67-69632d32344d,Version 3.1.0*%
%TF.SameCoordinates,PX925c430PY587b5e0*%
%TF.FileFunction,Copper,L2,Bot*%
%TF.FilePolarity,Positive*%
%FSLAX46Y46*%
G04 Gerber Fmt 4.6, Leading zero omitted, Abs format (unit mm)*
G04 Created by KiCad (PCBNEW 7.0.5) date 2023-07-05 13:27:57*
%MOMM*%
%LPD*%
G01*
G04 APERTURE LIST*
G04 Aperture macros list*
%AMRoundRect*
0 Rectangle with rounded corners*
0 $1 Rounding radius*
0 $2 $3 $4 $5 $6 $7 $8 $9 X,Y pos of 4 corners*
0 Add a 4 corners polygon primitive as box body*
4,1,4,$2,$3,$4,$5,$6,$7,$8,$9,$2,$3,0*
0 Add four circle primitives for the rounded corners*
1,1,$1+$1,$2,$3*
1,1,$1+$1,$4,$5*
1,1,$1+$1,$6,$7*
1,1,$1+$1,$8,$9*
0 Add four rect primitives between the rounded corners*
20,1,$1+$1,$2,$3,$4,$5,0*
20,1,$1+$1,$4,$5,$6,$7,0*
20,1,$1+$1,$6,$7,$8,$9,0*
20,1,$1+$1,$8,$9,$2,$3,0*%
G04 Aperture macros list end*
%TA.AperFunction,ComponentPad*%
%ADD10C,2.200000*%
%TD*%
%TA.AperFunction,ComponentPad*%
%ADD11C,0.500000*%
%TD*%
%TA.AperFunction,SMDPad,CuDef*%
%ADD12RoundRect,0.250002X2.349998X-1.999998X2.349998X1.999998X-2.349998X1.999998X-2.349998X-1.999998X0*%
%TD*%
%TA.AperFunction,ComponentPad*%
%ADD13O,2.100000X1.000000*%
%TD*%
%TA.AperFunction,ComponentPad*%
%ADD14O,1.900000X1.000000*%
%TD*%
%TA.AperFunction,ComponentPad*%
%ADD15R,1.700000X1.700000*%
%TD*%
%TA.AperFunction,ComponentPad*%
%ADD16O,1.700000X1.700000*%
%TD*%
%TA.AperFunction,ViaPad*%
%ADD17C,0.700000*%
%TD*%
%TA.AperFunction,ViaPad*%
%ADD18C,0.500000*%
%TD*%
%TA.AperFunction,ViaPad*%
%ADD19C,0.900000*%
%TD*%
%TA.AperFunction,ViaPad*%
%ADD20C,1.100000*%
%TD*%
%TA.AperFunction,Conductor*%
%ADD21C,0.200000*%
%TD*%
%TA.AperFunction,Conductor*%
%ADD22C,0.700000*%
%TD*%
%TA.AperFunction,Conductor*%
%ADD23C,0.500000*%
%TD*%
%TA.AperFunction,Conductor*%
%ADD24C,0.300000*%
%TD*%
G04 APERTURE END LIST*
D10*
%TO.P,HOLE2,*%
%TO.N,*%
X13685000Y-2865000D03*
%TD*%
%TO.P,HOLE4,*%
%TO.N,*%
X-23995000Y-2865000D03*
%TD*%
D11*
%TO.P,U4,57,EP*%
%TO.N,GND*%
X-10205000Y-14795000D03*
X-9030000Y-14795000D03*
X-7855000Y-14795000D03*
X-6680000Y-14795000D03*
X-5505000Y-14795000D03*
X-10205000Y-13795000D03*
X-9030000Y-13795000D03*
X-7855000Y-13795000D03*
X-6680000Y-13795000D03*
X-5505000Y-13795000D03*
X-10205000Y-12795000D03*
X-9030000Y-12795000D03*
X-7855000Y-12795000D03*
D12*
X-7855000Y-12795000D03*
D11*
X-6680000Y-12795000D03*
X-5505000Y-12795000D03*
X-10205000Y-11795000D03*
X-9030000Y-11795000D03*
X-7855000Y-11795000D03*
X-6680000Y-11795000D03*
X-5505000Y-11795000D03*
X-10205000Y-10795000D03*
X-9030000Y-10795000D03*
X-7855000Y-10795000D03*
X-6680000Y-10795000D03*
X-5505000Y-10795000D03*
%TD*%
D13*
%TO.P,USB1,13,GND*%
%TO.N,GND*%
X-20716000Y-8475000D03*
%TO.P,USB1,14,GND*%
X-20716000Y-17125000D03*
D14*
%TO.P,USB1,15,GND*%
X-24916000Y-8475000D03*
%TO.P,USB1,16,GND*%
X-24916000Y-17125000D03*
%TD*%
D10*
%TO.P,HOLE3,*%
%TO.N,*%
X-23995000Y-22865000D03*
%TD*%
D15*
%TO.P,J1,1,Pin_1*%
%TO.N,GND*%
X20590000Y-1370000D03*
D16*
%TO.P,J1,2,Pin_2*%
%TO.N,Net-(J1-Pin_2)*%
X20590000Y-3910000D03*
%TO.P,J1,3,Pin_3*%
%TO.N,Net-(J1-Pin_3)*%
X20590000Y-6450000D03*
%TO.P,J1,4,Pin_4*%
%TO.N,Net-(J1-Pin_4)*%
X20590000Y-8990000D03*
%TO.P,J1,5,Pin_5*%
%TO.N,Net-(J1-Pin_5)*%
X20590000Y-11530000D03*
%TO.P,J1,6,Pin_6*%
%TO.N,Net-(J1-Pin_6)*%
X20590000Y-14070000D03*
%TO.P,J1,7,Pin_7*%
%TO.N,Net-(J1-Pin_7)*%
X20590000Y-16610000D03*
%TO.P,J1,8,Pin_8*%
%TO.N,Net-(J1-Pin_8)*%
X20590000Y-19150000D03*
%TO.P,J1,9,Pin_9*%
%TO.N,Net-(J1-Pin_9)*%
X20590000Y-21690000D03*
%TO.P,J1,10,Pin_10*%
%TO.N,GND*%
X20590000Y-24230000D03*
%TD*%
D10*
%TO.P,HOLE1,*%
%TO.N,*%
X13685000Y-22865000D03*
%TD*%
D17*
%TO.N,GND*%
X-15125000Y-8235000D03*
D18*
X-12995000Y-1555000D03*
X-17945000Y-12205000D03*
X-19735000Y-4625000D03*
D19*
X-16525000Y-22695000D03*
D18*
X15875000Y-14325000D03*
X15875000Y-9835000D03*
D19*
X-17995000Y-17575000D03*
D18*
X-6604500Y-19965000D03*
D17*
X-17145000Y-8245000D03*
D18*
X15175000Y-12885000D03*
X-18725000Y-20445000D03*
X-12905000Y-16595000D03*
D17*
X-4605000Y-18115000D03*
D18*
X15875000Y-8295000D03*
X-2015000Y-9125000D03*
X15875000Y-15715000D03*
X18975000Y-12885000D03*
D20*
X-9445000Y-22755000D03*
D18*
X-12995000Y-4625000D03*
X15875000Y-17265000D03*
X15875000Y-11385000D03*
X-19735000Y-1555000D03*
D19*
%TO.N,+5V*%
X-17940000Y-10990000D03*
X-15615000Y-19505000D03*
D17*
%TO.N,+3.3V*%
X-4545000Y-7485000D03*
X-2805000Y-15055000D03*
D19*
X2645000Y-2515000D03*
D17*
X-8461444Y-18438556D03*
D19*
X-14915000Y-11805000D03*
D20*
X-8455000Y-20825000D03*
D17*
X-2805000Y-17865000D03*
D18*
%TO.N,/USB_Data-*%
X-20855000Y-13045000D03*
X-20855000Y-12075000D03*
%TO.N,/INPUT1*%
X12755000Y-8375000D03*
X9875000Y-4235000D03*
%TO.N,/INPUT2*%
X12735000Y-9845000D03*
X8345000Y-4235000D03*
%TO.N,/INPUT3*%
X12765000Y-11295000D03*
X6805000Y-4235000D03*
%TO.N,/INPUT4*%
X12770000Y-12770000D03*
X5285000Y-4235000D03*
%TO.N,/INPUT5*%
X5265000Y-21465000D03*
X12070000Y-13770000D03*
%TO.N,/INPUT6*%
X6805000Y-21465000D03*
X12825000Y-14420000D03*
%TO.N,/INPUT7*%
X12730000Y-15830000D03*
X8335000Y-21475000D03*
%TO.N,/INPUT8*%
X12785000Y-17345000D03*
X9865000Y-21475000D03*
%TO.N,Net-(USB1-CC1)*%
X-20585000Y-5975000D03*
X-18835000Y-11565000D03*
%TO.N,Net-(USB1-CC2)*%
X-18835000Y-14550000D03*
X-17475000Y-19505000D03*
%TD*%
D21*
%TO.N,/INPUT5*%
X5265000Y-20575000D02*
X5265000Y-21465000D01*
X12070000Y-13770000D02*
X5265000Y-20575000D01*
%TO.N,/INPUT6*%
X6805000Y-20445000D02*
X12825000Y-14425000D01*
X12825000Y-14425000D02*
X12825000Y-14420000D01*
X6805000Y-21465000D02*
X6805000Y-20445000D01*
%TO.N,/INPUT7*%
X8335000Y-20225000D02*
X8335000Y-21475000D01*
X12730000Y-15830000D02*
X8335000Y-20225000D01*
%TO.N,/INPUT8*%
X12775000Y-17345000D02*
X12785000Y-17345000D01*
X9865000Y-20255000D02*
X12775000Y-17345000D01*
X9865000Y-21475000D02*
X9865000Y-20255000D01*
D22*
%TO.N,GND*%
X-15125000Y-8235000D02*
X-17135000Y-8235000D01*
X-17135000Y-8235000D02*
X-17145000Y-8245000D01*
D23*
%TO.N,+5V*%
X-17940000Y-10990000D02*
X-15615000Y-13315000D01*
X-15615000Y-13315000D02*
X-15615000Y-19505000D01*
D24*
%TO.N,+3.3V*%
X-2805000Y-17865000D02*
X-2805000Y-18475000D01*
X-14915000Y-17445000D02*
X-11535000Y-20825000D01*
X-8455000Y-20825000D02*
X-8455000Y-20745000D01*
X-2805000Y-18475000D02*
X-5145000Y-20815000D01*
D23*
X-8455000Y-18445000D02*
X-8461444Y-18438556D01*
D24*
X-8455000Y-20825000D02*
X-8455000Y-18445000D01*
X2625000Y-2495000D02*
X2645000Y-2515000D01*
X445000Y-2495000D02*
X2625000Y-2495000D01*
X-4545000Y-16835000D02*
X-4545000Y-7485000D01*
X-8445000Y-20815000D02*
X-8455000Y-20825000D01*
X-5145000Y-20815000D02*
X-8445000Y-20815000D01*
X-11535000Y-20825000D02*
X-8455000Y-20825000D01*
X-8455000Y-20745000D02*
X-4545000Y-16835000D01*
X-4545000Y-7485000D02*
X445000Y-2495000D01*
X-2805000Y-15055000D02*
X-2805000Y-17865000D01*
X-14915000Y-11805000D02*
X-14915000Y-17445000D01*
D21*
%TO.N,/USB_Data-*%
X-20855000Y-13045000D02*
X-20855000Y-12075000D01*
%TO.N,/INPUT1*%
X9875000Y-4235000D02*
X9875000Y-5495000D01*
X9875000Y-5495000D02*
X12755000Y-8375000D01*
%TO.N,/INPUT2*%
X8345000Y-5455000D02*
X12735000Y-9845000D01*
X8345000Y-4235000D02*
X8345000Y-5455000D01*
%TO.N,/INPUT3*%
X6805000Y-5335000D02*
X12765000Y-11295000D01*
X6805000Y-4235000D02*
X6805000Y-5335000D01*
%TO.N,/INPUT4*%
X5285000Y-5285000D02*
X12770000Y-12770000D01*
X5285000Y-4235000D02*
X5285000Y-5285000D01*
%TO.N,Net-(USB1-CC1)*%
X-18835000Y-7725000D02*
X-18835000Y-11565000D01*
X-20585000Y-5975000D02*
X-18835000Y-7725000D01*
%TO.N,Net-(USB1-CC2)*%
X-18835000Y-14560000D02*
X-18835000Y-18145000D01*
X-18835000Y-18145000D02*
X-17475000Y-19505000D01*
%TD*%
%TA.AperFunction,Conductor*%
%TO.N,GND*%
G36*
X-3681297Y-15193840D02*
G01*
X-3644570Y-15249235D01*
X-3623206Y-15314986D01*
X-3618614Y-15334227D01*
X-3616245Y-15349445D01*
X-3468936Y-15830446D01*
X-3463500Y-15866757D01*
X-3463500Y-17053242D01*
X-3468936Y-17089553D01*
X-3616238Y-17570532D01*
X-3616241Y-17570542D01*
X-3624138Y-17599285D01*
X-3625105Y-17604532D01*
X-3625361Y-17604484D01*
X-3629511Y-17624419D01*
X-3649365Y-17685523D01*
X-3649365Y-17685524D01*
X-3668229Y-17865000D01*
X-3649365Y-18044475D01*
X-3615619Y-18148337D01*
X-3613792Y-18155319D01*
X-3608667Y-18180896D01*
X-3591239Y-18230081D01*
X-3587403Y-18299845D01*
X-3620438Y-18359176D01*
X-5381441Y-20120181D01*
X-5442764Y-20153666D01*
X-5469122Y-20156500D01*
X-6635878Y-20156500D01*
X-6702917Y-20136815D01*
X-6748672Y-20084011D01*
X-6758616Y-20014853D01*
X-6729591Y-19951297D01*
X-6723559Y-19944819D01*
X-6081946Y-19303206D01*
X-4140457Y-17361715D01*
X-4127786Y-17351566D01*
X-4127932Y-17351389D01*
X-4121926Y-17346419D01*
X-4121920Y-17346416D01*
X-4072661Y-17293959D01*
X-4071389Y-17292647D01*
X-4050073Y-17271333D01*
X-4045505Y-17265442D01*
X-4041718Y-17261008D01*
X-4008028Y-17225133D01*
X-3997620Y-17206200D01*
X-3986941Y-17189942D01*
X-3973696Y-17172868D01*
X-3954148Y-17127691D01*
X-3951591Y-17122472D01*
X-3927876Y-17079337D01*
X-3922505Y-17058413D01*
X-3916204Y-17040009D01*
X-3907620Y-17020176D01*
X-3902267Y-16986372D01*
X-3899922Y-16971569D01*
X-3898737Y-16965844D01*
X-3892378Y-16941078D01*
X-3886500Y-16918188D01*
X-3886500Y-16896580D01*
X-3884973Y-16877180D01*
X-3884627Y-16875000D01*
X-3881594Y-16855848D01*
X-3886225Y-16806854D01*
X-3886500Y-16801017D01*
X-3886500Y-15287553D01*
X-3866815Y-15220514D01*
X-3814011Y-15174759D01*
X-3744853Y-15164815D01*
X-3681297Y-15193840D01*
G37*
%TD.AperFunction*%
%TA.AperFunction,Conductor*%
G36*
X19304919Y-45185D02*
G01*
X19350674Y-97989D01*
X19360618Y-167147D01*
X19337146Y-223812D01*
X19296647Y-277910D01*
X19296645Y-277913D01*
X19246403Y-412620D01*
X19246401Y-412627D01*
X19240000Y-472155D01*
X19240000Y-1120000D01*
X20156314Y-1120000D01*
X20130507Y-1160156D01*
X20090000Y-1298111D01*
X20090000Y-1441889D01*
X20130507Y-1579844D01*
X20156314Y-1620000D01*
X19240000Y-1620000D01*
X19240000Y-2267844D01*
X19246401Y-2327372D01*
X19246403Y-2327379D01*
X19296645Y-2462086D01*
X19296649Y-2462093D01*
X19382809Y-2577187D01*
X19382812Y-2577190D01*
X19497906Y-2663350D01*
X19497913Y-2663354D01*
X19617810Y-2708073D01*
X19673744Y-2749944D01*
X19698161Y-2815409D01*
X19683309Y-2883682D01*
X19665706Y-2908238D01*
X19514284Y-3072723D01*
X19514276Y-3072734D01*
X19391140Y-3261207D01*
X19300703Y-3467385D01*
X19245436Y-3685628D01*
X19245434Y-3685640D01*
X19226844Y-3909994D01*
X19226844Y-3910005D01*
X19245434Y-4134359D01*
X19245436Y-4134371D01*
X19300703Y-4352614D01*
X19391140Y-4558792D01*
X19514276Y-4747265D01*
X19514284Y-4747276D01*
X19666756Y-4912902D01*
X19666760Y-4912906D01*
X19844424Y-5051189D01*
X19844429Y-5051191D01*
X19844431Y-5051193D01*
X19880930Y-5070946D01*
X19930520Y-5120165D01*
X19945628Y-5188382D01*
X19921457Y-5253937D01*
X19880930Y-5289054D01*
X19844431Y-5308806D01*
X19844422Y-5308812D01*
X19666761Y-5447092D01*
X19666756Y-5447097D01*
X19514284Y-5612723D01*
X19514276Y-5612734D01*
X19391140Y-5801207D01*
X19300703Y-6007385D01*
X19245436Y-6225628D01*
X19245434Y-6225640D01*
X19226844Y-6449994D01*
X19226844Y-6450005D01*
X19245434Y-6674359D01*
X19245436Y-6674371D01*
X19300703Y-6892614D01*
X19391140Y-7098792D01*
X19514276Y-7287265D01*
X19514284Y-7287276D01*
X19666756Y-7452902D01*
X19666760Y-7452906D01*
X19844424Y-7591189D01*
X19844429Y-7591191D01*
X19844431Y-7591193D01*
X19880930Y-7610946D01*
X19930520Y-7660165D01*
X19945628Y-7728382D01*
X19921457Y-7793937D01*
X19880930Y-7829054D01*
X19844431Y-7848806D01*
X19844422Y-7848812D01*
X19666761Y-7987092D01*
X19666756Y-7987097D01*
X19514284Y-8152723D01*
X19514276Y-8152734D01*
X19391140Y-8341207D01*
X19300703Y-8547385D01*
X19245436Y-8765628D01*
X19245434Y-8765640D01*
X19226844Y-8989994D01*
X19226844Y-8990005D01*
X19245434Y-9214359D01*
X19245436Y-9214371D01*
X19300703Y-9432614D01*
X19391140Y-9638792D01*
X19514276Y-9827265D01*
X19514284Y-9827276D01*
X19666756Y-9992902D01*
X19666761Y-9992907D01*
X19694952Y-10014849D01*
X19844424Y-10131189D01*
X19844429Y-10131191D01*
X19844431Y-10131193D01*
X19880930Y-10150946D01*
X19930520Y-10200165D01*
X19945628Y-10268382D01*
X19921457Y-10333937D01*
X19880930Y-10369054D01*
X19844431Y-10388806D01*
X19844422Y-10388812D01*
X19666761Y-10527092D01*
X19666756Y-10527097D01*
X19514284Y-10692723D01*
X19514276Y-10692734D01*
X19391140Y-10881207D01*
X19300703Y-11087385D01*
X19245436Y-11305628D01*
X19245434Y-11305640D01*
X19226844Y-11529994D01*
X19226844Y-11530005D01*
X19245434Y-11754359D01*
X19245436Y-11754371D01*
X19300703Y-11972614D01*
X19391140Y-12178792D01*
X19514276Y-12367265D01*
X19514284Y-12367276D01*
X19666756Y-12532902D01*
X19666760Y-12532906D01*
X19844424Y-12671189D01*
X19844429Y-12671191D01*
X19844431Y-12671193D01*
X19880930Y-12690946D01*
X19930520Y-12740165D01*
X19945628Y-12808382D01*
X19921457Y-12873937D01*
X19880930Y-12909054D01*
X19844431Y-12928806D01*
X19844422Y-12928812D01*
X19666761Y-13067092D01*
X19666756Y-13067097D01*
X19514284Y-13232723D01*
X19514276Y-13232734D01*
X19391140Y-13421207D01*
X19300703Y-13627385D01*
X19245436Y-13845628D01*
X19245434Y-13845640D01*
X19226844Y-14069994D01*
X19226844Y-14070005D01*
X19245434Y-14294359D01*
X19245436Y-14294371D01*
X19300703Y-14512614D01*
X19391140Y-14718792D01*
X19514276Y-14907265D01*
X19514284Y-14907276D01*
X19666756Y-15072902D01*
X19666761Y-15072907D01*
X19702607Y-15100807D01*
X19844424Y-15211189D01*
X19880930Y-15230945D01*
X19930519Y-15280162D01*
X19945629Y-15348378D01*
X19921459Y-15413934D01*
X19880932Y-15449052D01*
X19844432Y-15468805D01*
X19844422Y-15468812D01*
X19666761Y-15607092D01*
X19666756Y-15607097D01*
X19514284Y-15772723D01*
X19514276Y-15772734D01*
X19391140Y-15961207D01*
X19300703Y-16167385D01*
X19245436Y-16385628D01*
X19245434Y-16385640D01*
X19226844Y-16609994D01*
X19226844Y-16610005D01*
X19245434Y-16834359D01*
X19245436Y-16834371D01*
X19300703Y-17052614D01*
X19391140Y-17258792D01*
X19514276Y-17447265D01*
X19514284Y-17447276D01*
X19666756Y-17612902D01*
X19666761Y-17612907D01*
X19672760Y-17617576D01*
X19844424Y-17751189D01*
X19844429Y-17751191D01*
X19844431Y-17751193D01*
X19880930Y-17770946D01*
X19930520Y-17820165D01*
X19945628Y-17888382D01*
X19921457Y-17953937D01*
X19880930Y-17989054D01*
X19844431Y-18008806D01*
X19844422Y-18008812D01*
X19666761Y-18147092D01*
X19666756Y-18147097D01*
X19514284Y-18312723D01*
X19514276Y-18312734D01*
X19391140Y-18501207D01*
X19300703Y-18707385D01*
X19245436Y-18925628D01*
X19245434Y-18925640D01*
X19226844Y-19149994D01*
X19226844Y-19150005D01*
X19245434Y-19374359D01*
X19245436Y-19374371D01*
X19300703Y-19592614D01*
X19391140Y-19798792D01*
X19514276Y-19987265D01*
X19514284Y-19987276D01*
X19666756Y-20152902D01*
X19666761Y-20152907D01*
X19672697Y-20157527D01*
X19844424Y-20291189D01*
X19844429Y-20291191D01*
X19844431Y-20291193D01*
X19880930Y-20310946D01*
X19930520Y-20360165D01*
X19945628Y-20428382D01*
X19921457Y-20493937D01*
X19880930Y-20529054D01*
X19844431Y-20548806D01*
X19844422Y-20548812D01*
X19666761Y-20687092D01*
X19666756Y-20687097D01*
X19514284Y-20852723D01*
X19514276Y-20852734D01*
X19391140Y-21041207D01*
X19300703Y-21247385D01*
X19245436Y-21465628D01*
X19245434Y-21465640D01*
X19226844Y-21689994D01*
X19226844Y-21690005D01*
X19245434Y-21914359D01*
X19245436Y-21914371D01*
X19300703Y-22132614D01*
X19391140Y-22338792D01*
X19514276Y-22527265D01*
X19514284Y-22527276D01*
X19666756Y-22692902D01*
X19666760Y-22692906D01*
X19844424Y-22831189D01*
X19887693Y-22854605D01*
X19887695Y-22854606D01*
X19937286Y-22903825D01*
X19952394Y-22972042D01*
X19928224Y-23037597D01*
X19899802Y-23065236D01*
X19718922Y-23191890D01*
X19718920Y-23191891D01*
X19551891Y-23358920D01*
X19551886Y-23358926D01*
X19416400Y-23552420D01*
X19416399Y-23552422D01*
X19316570Y-23766507D01*
X19316567Y-23766513D01*
X19259364Y-23979999D01*
X19259364Y-23980000D01*
X20156314Y-23980000D01*
X20130507Y-24020156D01*
X20090000Y-24158111D01*
X20090000Y-24301889D01*
X20130507Y-24439844D01*
X20156314Y-24480000D01*
X19259364Y-24480000D01*
X19316567Y-24693486D01*
X19316570Y-24693492D01*
X19416399Y-24907578D01*
X19551894Y-25101082D01*
X19718921Y-25268109D01*
X19834338Y-25348926D01*
X19877963Y-25403503D01*
X19885155Y-25473001D01*
X19853633Y-25535356D01*
X19793402Y-25570769D01*
X19763214Y-25574500D01*
X-24852976Y-25574500D01*
X-24857026Y-25574367D01*
X-24887645Y-25572360D01*
X-24938587Y-25569021D01*
X-25120440Y-25556015D01*
X-25128120Y-25554980D01*
X-25244410Y-25531848D01*
X-25388648Y-25500472D01*
X-25395404Y-25498597D01*
X-25513535Y-25458497D01*
X-25515273Y-25457878D01*
X-25646742Y-25408842D01*
X-25652501Y-25406356D01*
X-25766796Y-25349992D01*
X-25769088Y-25348802D01*
X-25889909Y-25282828D01*
X-25894643Y-25279961D01*
X-26001651Y-25208461D01*
X-26004361Y-25206543D01*
X-26044408Y-25176564D01*
X-26113647Y-25124732D01*
X-26117352Y-25121729D01*
X-26214508Y-25036526D01*
X-26217451Y-25033769D01*
X-26313772Y-24937448D01*
X-26316531Y-24934502D01*
X-26332012Y-24916849D01*
X-26401735Y-24837345D01*
X-26404729Y-24833652D01*
X-26486546Y-24724358D01*
X-26488463Y-24721649D01*
X-26493120Y-24714680D01*
X-26510410Y-24688803D01*
X-26559963Y-24614641D01*
X-26562830Y-24609907D01*
X-26628827Y-24489042D01*
X-26629976Y-24486830D01*
X-26686365Y-24372483D01*
X-26688844Y-24366740D01*
X-26712761Y-24302616D01*
X-26737897Y-24235224D01*
X-26738469Y-24233618D01*
X-26778605Y-24115383D01*
X-26780469Y-24108666D01*
X-26811842Y-23964451D01*
X-26834985Y-23848102D01*
X-26836015Y-23840459D01*
X-26849008Y-23658793D01*
X-26853025Y-23597502D01*
X-26854367Y-23577018D01*
X-26854500Y-23572963D01*
X-26854500Y-22864999D01*
X-25608474Y-22864999D01*
X-25588609Y-23117406D01*
X-25529505Y-23363593D01*
X-25432617Y-23597502D01*
X-25300332Y-23813370D01*
X-25300331Y-23813372D01*
X-25300330Y-23813374D01*
X-25300328Y-23813376D01*
X-25135898Y-24005898D01*
X-24943376Y-24170328D01*
X-24943374Y-24170329D01*
X-24943373Y-24170330D01*
X-24943371Y-24170331D01*
X-24727503Y-24302616D01*
X-24493594Y-24399504D01*
X-24493593Y-24399504D01*
X-24493591Y-24399505D01*
X-24247403Y-24458609D01*
X-23995000Y-24478474D01*
X-23742597Y-24458609D01*
X-23496409Y-24399505D01*
X-23262498Y-24302616D01*
X-23046624Y-24170328D01*
X-22854102Y-24005898D01*
X-22689672Y-23813376D01*
X-22557384Y-23597502D01*
X-22460495Y-23363591D01*
X-22401391Y-23117403D01*
X-22381526Y-22865000D01*
X-22381526Y-22864999D01*
X12071526Y-22864999D01*
X12091391Y-23117406D01*
X12150495Y-23363593D01*
X12247383Y-23597502D01*
X12379668Y-23813370D01*
X12379669Y-23813372D01*
X12379670Y-23813374D01*
X12379672Y-23813376D01*
X12544102Y-24005898D01*
X12736624Y-24170328D01*
X12736626Y-24170329D01*
X12736627Y-24170330D01*
X12736629Y-24170331D01*
X12952497Y-24302616D01*
X13186406Y-24399504D01*
X13186407Y-24399504D01*
X13186409Y-24399505D01*
X13432597Y-24458609D01*
X13685000Y-24478474D01*
X13937403Y-24458609D01*
X14183591Y-24399505D01*
X14417502Y-24302616D01*
X14633376Y-24170328D01*
X14825898Y-24005898D01*
X14990328Y-23813376D01*
X15122616Y-23597502D01*
X15219505Y-23363591D01*
X15278609Y-23117403D01*
X15298474Y-22865000D01*
X15278609Y-22612597D01*
X15219505Y-22366409D01*
X15208066Y-22338792D01*
X15122616Y-22132497D01*
X14990331Y-21916629D01*
X14990330Y-21916627D01*
X14990329Y-21916626D01*
X14990328Y-21916624D01*
X14825898Y-21724102D01*
X14633376Y-21559672D01*
X14633374Y-21559670D01*
X14633372Y-21559669D01*
X14633370Y-21559668D01*
X14417502Y-21427383D01*
X14183593Y-21330495D01*
X13937406Y-21271391D01*
X13685000Y-21251526D01*
X13432593Y-21271391D01*
X13186406Y-21330495D01*
X12952497Y-21427383D01*
X12736629Y-21559668D01*
X12736627Y-21559669D01*
X12544102Y-21724102D01*
X12379669Y-21916627D01*
X12379668Y-21916629D01*
X12247383Y-22132497D01*
X12150495Y-22366406D01*
X12091391Y-22612593D01*
X12071526Y-22864999D01*
X-22381526Y-22864999D01*
X-22401391Y-22612597D01*
X-22460495Y-22366409D01*
X-22471934Y-22338792D01*
X-22557384Y-22132497D01*
X-22689669Y-21916629D01*
X-22689670Y-21916627D01*
X-22689671Y-21916626D01*
X-22689672Y-21916624D01*
X-22854102Y-21724102D01*
X-23046624Y-21559672D01*
X-23046626Y-21559670D01*
X-23046628Y-21559669D01*
X-23046630Y-21559668D01*
X-23262498Y-21427383D01*
X-23496407Y-21330495D01*
X-23742594Y-21271391D01*
X-23995000Y-21251526D01*
X-24247407Y-21271391D01*
X-24493594Y-21330495D01*
X-24727503Y-21427383D01*
X-24943371Y-21559668D01*
X-24943373Y-21559669D01*
X-25135898Y-21724102D01*
X-25300331Y-21916627D01*
X-25300332Y-21916629D01*
X-25432617Y-22132497D01*
X-25529505Y-22366406D01*
X-25588609Y-22612593D01*
X-25608474Y-22864999D01*
X-26854500Y-22864999D01*
X-26854500Y-17375000D01*
X-26339366Y-17375000D01*
X-26339069Y-17376946D01*
X-26339067Y-17376952D01*
X-26268438Y-17567657D01*
X-26268435Y-17567664D01*
X-26160851Y-17740267D01*
X-26020736Y-17887668D01*
X-26020734Y-17887669D01*
X-25853805Y-18003856D01*
X-25666908Y-18084059D01*
X-25467690Y-18125000D01*
X-25166000Y-18125000D01*
X-25166000Y-17425000D01*
X-24666000Y-17425000D01*
X-24666000Y-18125000D01*
X-24415287Y-18125000D01*
X-24263662Y-18109581D01*
X-24069619Y-18048700D01*
X-24069609Y-18048695D01*
X-23891785Y-17949994D01*
X-23891784Y-17949994D01*
X-23737470Y-17817521D01*
X-23737469Y-17817520D01*
X-23612982Y-17656695D01*
X-23523412Y-17474093D01*
X-23497754Y-17375000D01*
X-22239366Y-17375000D01*
X-22239069Y-17376946D01*
X-22239067Y-17376952D01*
X-22168438Y-17567657D01*
X-22168435Y-17567664D01*
X-22060851Y-17740267D01*
X-21920736Y-17887668D01*
X-21920734Y-17887669D01*
X-21753805Y-18003856D01*
X-21566908Y-18084059D01*
X-21367690Y-18125000D01*
X-20966001Y-18125000D01*
X-20966000Y-17425000D01*
X-20466000Y-17425000D01*
X-20466000Y-18125000D01*
X-20115287Y-18125000D01*
X-19963662Y-18109581D01*
X-19769619Y-18048700D01*
X-19769601Y-18048692D01*
X-19627679Y-17969918D01*
X-19559511Y-17954594D01*
X-19493879Y-17978557D01*
X-19451622Y-18034200D01*
X-19443501Y-18078329D01*
X-19443500Y-18101049D01*
X-19444031Y-18109154D01*
X-19448750Y-18144998D01*
X-19448750Y-18145001D01*
X-19443790Y-18182678D01*
X-19443788Y-18182699D01*
X-19431946Y-18272647D01*
X-19427838Y-18303850D01*
X-19427837Y-18303854D01*
X-19366527Y-18451871D01*
X-19366527Y-18451872D01*
X-19366525Y-18451875D01*
X-19366524Y-18451876D01*
X-19310173Y-18525314D01*
X-19293475Y-18547074D01*
X-19293474Y-18547075D01*
X-19268988Y-18578986D01*
X-19240302Y-18600998D01*
X-19234206Y-18606343D01*
X-18716037Y-19124512D01*
X-18340934Y-19499615D01*
X-18318181Y-19530901D01*
X-18181378Y-19798792D01*
X-18167725Y-19825526D01*
X-18167814Y-19825571D01*
X-18165880Y-19829989D01*
X-18165727Y-19829916D01*
X-18162708Y-19836185D01*
X-18156064Y-19846759D01*
X-18154304Y-19849742D01*
X-18151914Y-19854065D01*
X-18151210Y-19855109D01*
X-18147963Y-19859652D01*
X-18071773Y-19980907D01*
X-18071772Y-19980908D01*
X-18071771Y-19980909D01*
X-17950909Y-20101771D01*
X-17806183Y-20192709D01*
X-17644850Y-20249162D01*
X-17644845Y-20249163D01*
X-17475004Y-20268299D01*
X-17475000Y-20268299D01*
X-17474996Y-20268299D01*
X-17305156Y-20249163D01*
X-17305153Y-20249162D01*
X-17305150Y-20249162D01*
X-17143817Y-20192709D01*
X-16999091Y-20101771D01*
X-16878229Y-19980909D01*
X-16787291Y-19836183D01*
X-16767512Y-19779657D01*
X-16726790Y-19722882D01*
X-16661838Y-19697134D01*
X-16593276Y-19710590D01*
X-16542873Y-19758977D01*
X-16531810Y-19784616D01*
X-16504823Y-19873578D01*
X-16415824Y-20040085D01*
X-16415820Y-20040092D01*
X-16296042Y-20186041D01*
X-16150093Y-20305819D01*
X-16150086Y-20305823D01*
X-16003734Y-20384049D01*
X-15983577Y-20394823D01*
X-15802899Y-20449632D01*
X-15615000Y-20468138D01*
X-15427101Y-20449632D01*
X-15246423Y-20394823D01*
X-15079909Y-20305820D01*
X-14933959Y-20186041D01*
X-14814180Y-20040091D01*
X-14725177Y-19873577D01*
X-14670368Y-19692899D01*
X-14651862Y-19505000D01*
X-14670368Y-19317101D01*
X-14696050Y-19232442D01*
X-14699656Y-19213461D01*
X-14700092Y-19213529D01*
X-14700763Y-19209168D01*
X-14700763Y-19209160D01*
X-14787717Y-18827342D01*
X-14783410Y-18757607D01*
X-14742085Y-18701269D01*
X-14676861Y-18676217D01*
X-14608447Y-18690404D01*
X-14579132Y-18712128D01*
X-12061720Y-21229540D01*
X-12051570Y-21242208D01*
X-12051394Y-21242064D01*
X-12046420Y-21248076D01*
X-12046417Y-21248079D01*
X-12046416Y-21248080D01*
X-12034717Y-21259066D01*
X-11994018Y-21297285D01*
X-11992618Y-21298642D01*
X-11971338Y-21319923D01*
X-11965449Y-21324491D01*
X-11961006Y-21328286D01*
X-11925136Y-21361970D01*
X-11925134Y-21361971D01*
X-11925133Y-21361972D01*
X-11906197Y-21372382D01*
X-11889951Y-21383053D01*
X-11872868Y-21396304D01*
X-11827704Y-21415848D01*
X-11822456Y-21418420D01*
X-11790766Y-21435840D01*
X-11779337Y-21442124D01*
X-11763177Y-21446272D01*
X-11758417Y-21447495D01*
X-11740014Y-21453795D01*
X-11720176Y-21462380D01*
X-11683040Y-21468261D01*
X-11671569Y-21470078D01*
X-11665854Y-21471261D01*
X-11618188Y-21483500D01*
X-11596581Y-21483500D01*
X-11577184Y-21485026D01*
X-11555848Y-21488406D01*
X-11506856Y-21483774D01*
X-11501019Y-21483500D01*
X-9690932Y-21483500D01*
X-9644622Y-21492472D01*
X-8871482Y-21803749D01*
X-8865925Y-21805986D01*
X-8864775Y-21806523D01*
X-8862039Y-21807656D01*
X-8862034Y-21807657D01*
X-8862031Y-21807659D01*
X-8852316Y-21810605D01*
X-8850183Y-21811296D01*
X-8818865Y-21822099D01*
X-8818858Y-21822100D01*
X-8813284Y-21823437D01*
X-8801391Y-21826053D01*
X-8662502Y-21868185D01*
X-8455000Y-21888622D01*
X-8247498Y-21868185D01*
X-8047969Y-21807659D01*
X-8047965Y-21807656D01*
X-8042333Y-21805324D01*
X-8042205Y-21805633D01*
X-8040919Y-21805081D01*
X-8041088Y-21804672D01*
X-7278599Y-21488405D01*
X-7265476Y-21482961D01*
X-7217968Y-21473500D01*
X-5231391Y-21473500D01*
X-5215254Y-21475281D01*
X-5215232Y-21475054D01*
X-5207465Y-21475788D01*
X-5207464Y-21475787D01*
X-5207463Y-21475788D01*
X-5200761Y-21475577D01*
X-5135625Y-21473531D01*
X-5133678Y-21473500D01*
X-5103573Y-21473500D01*
X-5103568Y-21473500D01*
X-5096178Y-21472566D01*
X-5090349Y-21472107D01*
X-5041169Y-21470562D01*
X-5022038Y-21465003D01*
X4501701Y-21465003D01*
X4520836Y-21634844D01*
X4520837Y-21634849D01*
X4577291Y-21796183D01*
X4668227Y-21940907D01*
X4668229Y-21940909D01*
X4789091Y-22061771D01*
X4933817Y-22152709D01*
X5095149Y-22209162D01*
X5095150Y-22209162D01*
X5095155Y-22209163D01*
X5264996Y-22228299D01*
X5265000Y-22228299D01*
X5265004Y-22228299D01*
X5434844Y-22209163D01*
X5434847Y-22209162D01*
X5434850Y-22209162D01*
X5596183Y-22152709D01*
X5740909Y-22061771D01*
X5861771Y-21940909D01*
X5930006Y-21832313D01*
X5982339Y-21786023D01*
X6051392Y-21775374D01*
X6115241Y-21803749D01*
X6139992Y-21832313D01*
X6208226Y-21940905D01*
X6208227Y-21940907D01*
X6208228Y-21940908D01*
X6208229Y-21940909D01*
X6329091Y-22061771D01*
X6473817Y-22152709D01*
X6635150Y-22209162D01*
X6635155Y-22209163D01*
X6804996Y-22228299D01*
X6805000Y-22228299D01*
X6805004Y-22228299D01*
X6974844Y-22209163D01*
X6974847Y-22209162D01*
X6974850Y-22209162D01*
X7136183Y-22152709D01*
X7280909Y-22061771D01*
X7401771Y-21940909D01*
X7461864Y-21845271D01*
X7514199Y-21798981D01*
X7583252Y-21788333D01*
X7647101Y-21816708D01*
X7671852Y-21845272D01*
X7738228Y-21950908D01*
X7738229Y-21950909D01*
X7859091Y-22071771D01*
X8003817Y-22162709D01*
X8136572Y-22209162D01*
X8165150Y-22219162D01*
X8165155Y-22219163D01*
X8334996Y-22238299D01*
X8335000Y-22238299D01*
X8335004Y-22238299D01*
X8504844Y-22219163D01*
X8504847Y-22219162D01*
X8504850Y-22219162D01*
X8666183Y-22162709D01*
X8810909Y-22071771D01*
X8931771Y-21950909D01*
X8995005Y-21850272D01*
X9047341Y-21803981D01*
X9116394Y-21793333D01*
X9180243Y-21821708D01*
X9204994Y-21850272D01*
X9261945Y-21940909D01*
X9268229Y-21950909D01*
X9389091Y-22071771D01*
X9533817Y-22162709D01*
X9666572Y-22209162D01*
X9695150Y-22219162D01*
X9695155Y-22219163D01*
X9864996Y-22238299D01*
X9865000Y-22238299D01*
X9865004Y-22238299D01*
X10034844Y-22219163D01*
X10034847Y-22219162D01*
X10034850Y-22219162D01*
X10196183Y-22162709D01*
X10340909Y-22071771D01*
X10461771Y-21950909D01*
X10552709Y-21806183D01*
X10609162Y-21644850D01*
X10610289Y-21634849D01*
X10628299Y-21475003D01*
X10628299Y-21474996D01*
X10609163Y-21305157D01*
X10609161Y-21305147D01*
X10589413Y-21248711D01*
X10584251Y-21228789D01*
X10581164Y-21210855D01*
X10581163Y-21210851D01*
X10581163Y-21210849D01*
X10479534Y-20897099D01*
X10473500Y-20858889D01*
X10473500Y-20558410D01*
X10493185Y-20491371D01*
X10509814Y-20470734D01*
X12772323Y-18208224D01*
X12805464Y-18184545D01*
X13096654Y-18041966D01*
X13101106Y-18039577D01*
X13110488Y-18035450D01*
X13116175Y-18032711D01*
X13116183Y-18032709D01*
X13127627Y-18025517D01*
X13129405Y-18024484D01*
X13130088Y-18024033D01*
X13130101Y-18024027D01*
X13130111Y-18024018D01*
X13131609Y-18023032D01*
X13132753Y-18022296D01*
X13154215Y-18008811D01*
X13260909Y-17941771D01*
X13381771Y-17820909D01*
X13472709Y-17676183D01*
X13529162Y-17514850D01*
X13533754Y-17474093D01*
X13548299Y-17345003D01*
X13548299Y-17344996D01*
X13529163Y-17175155D01*
X13529162Y-17175150D01*
X13501760Y-17096840D01*
X13472709Y-17013817D01*
X13381771Y-16869091D01*
X13260909Y-16748229D01*
X13260908Y-16748228D01*
X13144707Y-16675214D01*
X13098416Y-16622879D01*
X13087768Y-16553826D01*
X13116143Y-16489977D01*
X13144708Y-16465226D01*
X13205906Y-16426773D01*
X13205906Y-16426772D01*
X13205909Y-16426771D01*
X13326771Y-16305909D01*
X13417709Y-16161183D01*
X13474162Y-15999850D01*
X13481577Y-15934037D01*
X13493299Y-15830003D01*
X13493299Y-15829996D01*
X13474163Y-15660155D01*
X13474162Y-15660150D01*
X13455596Y-15607092D01*
X13417709Y-15498817D01*
X13326771Y-15354091D01*
X13219584Y-15246904D01*
X13186099Y-15185581D01*
X13191083Y-15115889D01*
X13232955Y-15059956D01*
X13241285Y-15054234D01*
X13300909Y-15016771D01*
X13421771Y-14895909D01*
X13512709Y-14751183D01*
X13569162Y-14589850D01*
X13573652Y-14550000D01*
X13588299Y-14420003D01*
X13588299Y-14419996D01*
X13569163Y-14250155D01*
X13569162Y-14250150D01*
X13563518Y-14234020D01*
X13512709Y-14088817D01*
X13421771Y-13944091D01*
X13300909Y-13823229D01*
X13300908Y-13823228D01*
X13156180Y-13732289D01*
X13070814Y-13702418D01*
X13014038Y-13661697D01*
X12988291Y-13596744D01*
X13001747Y-13528182D01*
X13050135Y-13477780D01*
X13070816Y-13468335D01*
X13074627Y-13467001D01*
X13101183Y-13457709D01*
X13245909Y-13366771D01*
X13366771Y-13245909D01*
X13457709Y-13101183D01*
X13514162Y-12939850D01*
X13515406Y-12928809D01*
X13533299Y-12770003D01*
X13533299Y-12769996D01*
X13514163Y-12600155D01*
X13514162Y-12600150D01*
X13500113Y-12560000D01*
X13457709Y-12438817D01*
X13366771Y-12294091D01*
X13245909Y-12173229D01*
X13245908Y-12173228D01*
X13186537Y-12135923D01*
X13140246Y-12083589D01*
X13129597Y-12014535D01*
X13157972Y-11950687D01*
X13186538Y-11925935D01*
X13240904Y-11891774D01*
X13240907Y-11891772D01*
X13240906Y-11891772D01*
X13240909Y-11891771D01*
X13361771Y-11770909D01*
X13452709Y-11626183D01*
X13509162Y-11464850D01*
X13513037Y-11430461D01*
X13528299Y-11295003D01*
X13528299Y-11294996D01*
X13509163Y-11125155D01*
X13509162Y-11125150D01*
X13475499Y-11028947D01*
X13452709Y-10963817D01*
X13361771Y-10819091D01*
X13240909Y-10698229D01*
X13240907Y-10698227D01*
X13240905Y-10698226D01*
X13188930Y-10665567D01*
X13142639Y-10613232D01*
X13131992Y-10544179D01*
X13160367Y-10480330D01*
X13188930Y-10455581D01*
X13210909Y-10441771D01*
X13331771Y-10320909D01*
X13422709Y-10176183D01*
X13479162Y-10014850D01*
X13480719Y-10001033D01*
X13498299Y-9845003D01*
X13498299Y-9844996D01*
X13479163Y-9675155D01*
X13479162Y-9675150D01*
X13466439Y-9638791D01*
X13422709Y-9513817D01*
X13331771Y-9369091D01*
X13210909Y-9248229D01*
X13210908Y-9248228D01*
X13168016Y-9221277D01*
X13121725Y-9168942D01*
X13111077Y-9099888D01*
X13139452Y-9036040D01*
X13168017Y-9011289D01*
X13230904Y-8971774D01*
X13230907Y-8971772D01*
X13230906Y-8971772D01*
X13230909Y-8971771D01*
X13351771Y-8850909D01*
X13442709Y-8706183D01*
X13499162Y-8544850D01*
X13499163Y-8544844D01*
X13518299Y-8375003D01*
X13518299Y-8374996D01*
X13499163Y-8205155D01*
X13499162Y-8205150D01*
X13471433Y-8125906D01*
X13442709Y-8043817D01*
X13351771Y-7899091D01*
X13230909Y-7778229D01*
X13230908Y-7778228D01*
X13086183Y-7687290D01*
X13084243Y-7686356D01*
X13079779Y-7684446D01*
X12780902Y-7531820D01*
X12749616Y-7509067D01*
X10519819Y-5279269D01*
X10486334Y-5217946D01*
X10483500Y-5191588D01*
X10483500Y-4851108D01*
X10489534Y-4812897D01*
X10591163Y-4499149D01*
X10591172Y-4499116D01*
X10591180Y-4499092D01*
X10597119Y-4478473D01*
X10600480Y-4466805D01*
X10600481Y-4466791D01*
X10601522Y-4461460D01*
X10601913Y-4461536D01*
X10606534Y-4440933D01*
X10619162Y-4404850D01*
X10619764Y-4399505D01*
X10638299Y-4235003D01*
X10638299Y-4234996D01*
X10619163Y-4065155D01*
X10619162Y-4065150D01*
X10598428Y-4005897D01*
X10562709Y-3903817D01*
X10471771Y-3759091D01*
X10350909Y-3638229D01*
X10350908Y-3638228D01*
X10206183Y-3547291D01*
X10044849Y-3490837D01*
X10044844Y-3490836D01*
X9875004Y-3471701D01*
X9874996Y-3471701D01*
X9705155Y-3490836D01*
X9705150Y-3490837D01*
X9543816Y-3547291D01*
X9399091Y-3638228D01*
X9278227Y-3759092D01*
X9278226Y-3759094D01*
X9214993Y-3859728D01*
X9162659Y-3906018D01*
X9093605Y-3916666D01*
X9029757Y-3888291D01*
X9005007Y-3859728D01*
X8941773Y-3759094D01*
X8941772Y-3759092D01*
X8820908Y-3638228D01*
X8676183Y-3547291D01*
X8514849Y-3490837D01*
X8514844Y-3490836D01*
X8345004Y-3471701D01*
X8344996Y-3471701D01*
X8175155Y-3490836D01*
X8175150Y-3490837D01*
X8013816Y-3547291D01*
X7869091Y-3638228D01*
X7748227Y-3759092D01*
X7748226Y-3759094D01*
X7679992Y-3867686D01*
X7627657Y-3913977D01*
X7558604Y-3924624D01*
X7494755Y-3896249D01*
X7470006Y-3867686D01*
X7401771Y-3759091D01*
X7280909Y-3638229D01*
X7280909Y-3638228D01*
X7280908Y-3638228D01*
X7136183Y-3547291D01*
X6974849Y-3490837D01*
X6974844Y-3490836D01*
X6805004Y-3471701D01*
X6804996Y-3471701D01*
X6635155Y-3490836D01*
X6635150Y-3490837D01*
X6473816Y-3547291D01*
X6329091Y-3638228D01*
X6208228Y-3759091D01*
X6149994Y-3851770D01*
X6097659Y-3898061D01*
X6028605Y-3908709D01*
X5964757Y-3880334D01*
X5940006Y-3851770D01*
X5881771Y-3759091D01*
X5760908Y-3638228D01*
X5616183Y-3547291D01*
X5454849Y-3490837D01*
X5454844Y-3490836D01*
X5285004Y-3471701D01*
X5284996Y-3471701D01*
X5115155Y-3490836D01*
X5115150Y-3490837D01*
X4953816Y-3547291D01*
X4809091Y-3638228D01*
X4688228Y-3759091D01*
X4597291Y-3903816D01*
X4540837Y-4065150D01*
X4540836Y-4065155D01*
X4521701Y-4234996D01*
X4521701Y-4235003D01*
X4540837Y-4404847D01*
X4540837Y-4404849D01*
X4540838Y-4404850D01*
X4559648Y-4458609D01*
X4560586Y-4461288D01*
X4565746Y-4481203D01*
X4568835Y-4499147D01*
X4568835Y-4499149D01*
X4670466Y-4812900D01*
X4676500Y-4851111D01*
X4676500Y-5241054D01*
X4675969Y-5249151D01*
X4672628Y-5274527D01*
X4671250Y-5284999D01*
X4671250Y-5285004D01*
X4675970Y-5320860D01*
X4682433Y-5369948D01*
X4692162Y-5443852D01*
X4753473Y-5591871D01*
X4753473Y-5591872D01*
X4753475Y-5591875D01*
X4753476Y-5591876D01*
X4826523Y-5687072D01*
X4826525Y-5687074D01*
X4851013Y-5718987D01*
X4879698Y-5740998D01*
X4885794Y-5746343D01*
X8439445Y-9299994D01*
X11904066Y-12764615D01*
X11926819Y-12795901D01*
X11957788Y-12856545D01*
X11970746Y-12925202D01*
X11944529Y-12989967D01*
X11888308Y-13029981D01*
X11854291Y-13041884D01*
X11738817Y-13082290D01*
X11594091Y-13173228D01*
X11473228Y-13294091D01*
X11382289Y-13438820D01*
X11381359Y-13440750D01*
X11379437Y-13445238D01*
X11226820Y-13744096D01*
X11204067Y-13775382D01*
X4865801Y-20113649D01*
X4859698Y-20119000D01*
X4831013Y-20141012D01*
X4806520Y-20172931D01*
X4733476Y-20268123D01*
X4733474Y-20268126D01*
X4672161Y-20416148D01*
X4671893Y-20418191D01*
X4655968Y-20539150D01*
X4655969Y-20539151D01*
X4653434Y-20558410D01*
X4651250Y-20575000D01*
X4655739Y-20609101D01*
X4655969Y-20610843D01*
X4656500Y-20618945D01*
X4656500Y-20848887D01*
X4650466Y-20887098D01*
X4548844Y-21200824D01*
X4548836Y-21200850D01*
X4539518Y-21233194D01*
X4538477Y-21238534D01*
X4538090Y-21238458D01*
X4533463Y-21259066D01*
X4520838Y-21295149D01*
X4520836Y-21295156D01*
X4501701Y-21464996D01*
X4501701Y-21465003D01*
X-5022038Y-21465003D01*
X-5020417Y-21464532D01*
X-5001379Y-21460590D01*
X-4979936Y-21457882D01*
X-4934166Y-21439760D01*
X-4928652Y-21437873D01*
X-4892549Y-21427384D01*
X-4881400Y-21424145D01*
X-4862804Y-21413146D01*
X-4845336Y-21404589D01*
X-4825244Y-21396635D01*
X-4785418Y-21367698D01*
X-4780559Y-21364506D01*
X-4738193Y-21339453D01*
X-4722910Y-21324168D01*
X-4708127Y-21311542D01*
X-4690643Y-21298841D01*
X-4659269Y-21260914D01*
X-4655355Y-21256613D01*
X-2400457Y-19001715D01*
X-2387786Y-18991566D01*
X-2387932Y-18991389D01*
X-2381926Y-18986419D01*
X-2381920Y-18986416D01*
X-2332661Y-18933959D01*
X-2331389Y-18932647D01*
X-2310073Y-18911333D01*
X-2305505Y-18905442D01*
X-2301718Y-18901008D01*
X-2268028Y-18865133D01*
X-2257620Y-18846200D01*
X-2246941Y-18829942D01*
X-2233696Y-18812868D01*
X-2214148Y-18767691D01*
X-2211591Y-18762472D01*
X-2187876Y-18719337D01*
X-2182505Y-18698413D01*
X-2176204Y-18680009D01*
X-2167620Y-18660176D01*
X-2160947Y-18618037D01*
X-2159922Y-18611569D01*
X-2158737Y-18605844D01*
X-2146500Y-18558188D01*
X-2146500Y-18541581D01*
X-2136206Y-18492114D01*
X-2058164Y-18312723D01*
X-2015439Y-18214514D01*
X-1993985Y-18155603D01*
X-1993244Y-18150537D01*
X-1988485Y-18130187D01*
X-1960635Y-18044475D01*
X-1941771Y-17865000D01*
X-1960635Y-17685525D01*
X-1986798Y-17605003D01*
X-1991392Y-17585751D01*
X-1993756Y-17570562D01*
X-1993757Y-17570553D01*
X-2141064Y-17089553D01*
X-2146500Y-17053243D01*
X-2146500Y-15866755D01*
X-2141064Y-15830444D01*
X-2131103Y-15797921D01*
X-2053765Y-15545389D01*
X-1993769Y-15349487D01*
X-1993764Y-15349466D01*
X-1993757Y-15349446D01*
X-1985863Y-15320719D01*
X-1985862Y-15320705D01*
X-1984898Y-15315480D01*
X-1984642Y-15315527D01*
X-1980493Y-15295590D01*
X-1960635Y-15234475D01*
X-1941771Y-15055000D01*
X-1960635Y-14875525D01*
X-2016401Y-14703893D01*
X-2106633Y-14547607D01*
X-2153929Y-14495079D01*
X-2227382Y-14413500D01*
X-2227385Y-14413498D01*
X-2227386Y-14413497D01*
X-2227387Y-14413496D01*
X-2373385Y-14307422D01*
X-2373386Y-14307421D01*
X-2538243Y-14234021D01*
X-2538249Y-14234019D01*
X-2683270Y-14203195D01*
X-2714768Y-14196500D01*
X-2895232Y-14196500D01*
X-2926175Y-14203076D01*
X-3071752Y-14234019D01*
X-3071758Y-14234021D01*
X-3236614Y-14307421D01*
X-3236619Y-14307424D01*
X-3382612Y-14413494D01*
X-3382619Y-14413500D01*
X-3503368Y-14547608D01*
X-3593600Y-14703894D01*
X-3644570Y-14860765D01*
X-3684008Y-14918441D01*
X-3748366Y-14945639D01*
X-3817213Y-14933724D01*
X-3868688Y-14886480D01*
X-3886500Y-14822450D01*
X-3886500Y-8296757D01*
X-3881065Y-8260448D01*
X-3867042Y-8214658D01*
X-3748533Y-7827688D01*
X-3739490Y-7805860D01*
X-3527204Y-7406147D01*
X-3505377Y-7376635D01*
X681440Y-3189819D01*
X742764Y-3156334D01*
X769122Y-3153500D01*
X1615032Y-3153500D01*
X1660565Y-3162162D01*
X1746383Y-3196041D01*
X2273554Y-3404157D01*
X2321048Y-3420273D01*
X2322709Y-3420499D01*
X2341949Y-3424700D01*
X2430628Y-3451601D01*
X2457100Y-3459632D01*
X2473946Y-3461291D01*
X2645000Y-3478138D01*
X2832899Y-3459632D01*
X3013577Y-3404823D01*
X3180091Y-3315820D01*
X3326041Y-3196041D01*
X3445820Y-3050091D01*
X3534823Y-2883577D01*
X3540458Y-2865000D01*
X12071526Y-2865000D01*
X12091391Y-3117406D01*
X12150495Y-3363593D01*
X12247383Y-3597502D01*
X12379668Y-3813370D01*
X12379669Y-3813372D01*
X12379670Y-3813374D01*
X12379672Y-3813376D01*
X12544102Y-4005898D01*
X12736624Y-4170328D01*
X12736626Y-4170329D01*
X12736627Y-4170330D01*
X12736629Y-4170331D01*
X12952497Y-4302616D01*
X13186406Y-4399504D01*
X13186407Y-4399504D01*
X13186409Y-4399505D01*
X13432597Y-4458609D01*
X13685000Y-4478474D01*
X13937403Y-4458609D01*
X14183591Y-4399505D01*
X14417502Y-4302616D01*
X14633376Y-4170328D01*
X14825898Y-4005898D01*
X14990328Y-3813376D01*
X15122616Y-3597502D01*
X15219505Y-3363591D01*
X15278609Y-3117403D01*
X15298474Y-2865000D01*
X15278609Y-2612597D01*
X15219505Y-2366409D01*
X15219504Y-2366406D01*
X15122616Y-2132497D01*
X14990331Y-1916629D01*
X14990330Y-1916627D01*
X14990329Y-1916626D01*
X14990328Y-1916624D01*
X14825898Y-1724102D01*
X14633376Y-1559672D01*
X14633374Y-1559670D01*
X14633372Y-1559669D01*
X14633370Y-1559668D01*
X14417502Y-1427383D01*
X14183593Y-1330495D01*
X13937406Y-1271391D01*
X13685000Y-1251526D01*
X13432593Y-1271391D01*
X13186406Y-1330495D01*
X12952497Y-1427383D01*
X12736629Y-1559668D01*
X12736627Y-1559669D01*
X12544102Y-1724102D01*
X12379669Y-1916627D01*
X12379668Y-1916629D01*
X12247383Y-2132497D01*
X12150495Y-2366406D01*
X12091391Y-2612593D01*
X12071526Y-2865000D01*
X3540458Y-2865000D01*
X3589632Y-2702899D01*
X3608138Y-2515000D01*
X3589632Y-2327101D01*
X3534823Y-2146423D01*
X3527380Y-2132498D01*
X3445823Y-1979914D01*
X3445819Y-1979907D01*
X3326041Y-1833958D01*
X3180092Y-1714180D01*
X3180085Y-1714176D01*
X3013578Y-1625177D01*
X2832901Y-1570368D01*
X2645000Y-1551862D01*
X2457102Y-1570367D01*
X2320312Y-1611862D01*
X2313693Y-1613478D01*
X2297352Y-1616529D01*
X1668843Y-1829917D01*
X1628978Y-1836500D01*
X531391Y-1836500D01*
X515248Y-1834717D01*
X515227Y-1834945D01*
X507464Y-1834210D01*
X435607Y-1836469D01*
X433659Y-1836500D01*
X403568Y-1836500D01*
X403564Y-1836500D01*
X403554Y-1836501D01*
X396167Y-1837434D01*
X390350Y-1837891D01*
X341174Y-1839437D01*
X341163Y-1839439D01*
X320422Y-1845464D01*
X301382Y-1849407D01*
X279946Y-1852116D01*
X279931Y-1852119D01*
X234178Y-1870233D01*
X228654Y-1872124D01*
X181399Y-1885855D01*
X162808Y-1896850D01*
X145339Y-1905408D01*
X125246Y-1913364D01*
X125245Y-1913364D01*
X125244Y-1913365D01*
X100641Y-1931239D01*
X85433Y-1942289D01*
X80550Y-1945496D01*
X38192Y-1970546D01*
X22913Y-1985826D01*
X8127Y-1998455D01*
X-9357Y-2011159D01*
X-9359Y-2011161D01*
X-9360Y-2011162D01*
X-40729Y-2049078D01*
X-44661Y-2053399D01*
X-4436630Y-6445368D01*
X-4466149Y-6467200D01*
X-4910403Y-6703142D01*
X-4910427Y-6703155D01*
X-4940977Y-6720537D01*
X-4941153Y-6720228D01*
X-4953343Y-6727060D01*
X-4976616Y-6737422D01*
X-5122612Y-6843494D01*
X-5122619Y-6843500D01*
X-5243368Y-6977608D01*
X-5333600Y-7133894D01*
X-5389365Y-7305523D01*
X-5401200Y-7418123D01*
X-5408229Y-7485000D01*
X-5389365Y-7664475D01*
X-5369700Y-7725000D01*
X-5363206Y-7744985D01*
X-5358614Y-7764227D01*
X-5356245Y-7779445D01*
X-5208936Y-8260446D01*
X-5203500Y-8296757D01*
X-5203500Y-9933994D01*
X-5223185Y-10001033D01*
X-5275989Y-10046788D01*
X-5345147Y-10056732D01*
X-5351768Y-10055549D01*
X-5455016Y-10045000D01*
X-5459395Y-10045000D01*
X-5466343Y-10044610D01*
X-5504998Y-10040254D01*
X-5505001Y-10040254D01*
X-5543657Y-10044610D01*
X-5550605Y-10045000D01*
X-6634395Y-10045000D01*
X-6641343Y-10044610D01*
X-6679999Y-10040254D01*
X-6680001Y-10040254D01*
X-6718659Y-10044610D01*
X-6725606Y-10045000D01*
X-7605000Y-10045000D01*
X-7605000Y-10691447D01*
X-7267500Y-11028946D01*
X-7066046Y-10827492D01*
X-6780000Y-10827492D01*
X-6741803Y-10880065D01*
X-6695838Y-10895000D01*
X-6664162Y-10895000D01*
X-6618197Y-10880065D01*
X-6580000Y-10827492D01*
X-6580000Y-10762508D01*
X-6618197Y-10709935D01*
X-6664162Y-10695000D01*
X-6695838Y-10695000D01*
X-6741803Y-10709935D01*
X-6780000Y-10762508D01*
X-6780000Y-10827492D01*
X-7066046Y-10827492D01*
X-6767681Y-10529128D01*
X-6706358Y-10495643D01*
X-6636666Y-10500627D01*
X-6592319Y-10529128D01*
X-6092500Y-11028947D01*
X-5891045Y-10827492D01*
X-5605000Y-10827492D01*
X-5566803Y-10880065D01*
X-5520838Y-10895000D01*
X-5489162Y-10895000D01*
X-5443197Y-10880065D01*
X-5405000Y-10827492D01*
X-5405000Y-10762508D01*
X-5443197Y-10709935D01*
X-5489162Y-10695000D01*
X-5520838Y-10695000D01*
X-5566803Y-10709935D01*
X-5605000Y-10762508D01*
X-5605000Y-10827492D01*
X-5891045Y-10827492D01*
X-5592681Y-10529128D01*
X-5531358Y-10495643D01*
X-5461666Y-10500627D01*
X-5417319Y-10529128D01*
X-5239819Y-10706628D01*
X-5206334Y-10767951D01*
X-5203500Y-10794309D01*
X-5203500Y-11150691D01*
X-5223185Y-11217730D01*
X-5275989Y-11263485D01*
X-5345147Y-11273429D01*
X-5408703Y-11244404D01*
X-5415181Y-11238372D01*
X-5505000Y-11148553D01*
X-5651447Y-11294999D01*
X-5505001Y-11441446D01*
X-5415182Y-11351627D01*
X-5353859Y-11318142D01*
X-5284167Y-11323126D01*
X-5228233Y-11364997D01*
X-5203816Y-11430461D01*
X-5203500Y-11439308D01*
X-5203500Y-12150691D01*
X-5223185Y-12217730D01*
X-5275989Y-12263485D01*
X-5345147Y-12273429D01*
X-5408703Y-12244404D01*
X-5415181Y-12238372D01*
X-5505000Y-12148553D01*
X-5651447Y-12295000D01*
X-5505000Y-12441447D01*
X-5415181Y-12351628D01*
X-5353858Y-12318143D01*
X-5284166Y-12323127D01*
X-5228233Y-12364999D01*
X-5203816Y-12430463D01*
X-5203500Y-12439309D01*
X-5203500Y-13150689D01*
X-5223185Y-13217728D01*
X-5275989Y-13263483D01*
X-5345147Y-13273427D01*
X-5408703Y-13244402D01*
X-5415181Y-13238371D01*
X-5505000Y-13148553D01*
X-5505001Y-13148553D01*
X-5651447Y-13294999D01*
X-5505000Y-13441445D01*
X-5415182Y-13351627D01*
X-5353859Y-13318142D01*
X-5284167Y-13323126D01*
X-5228233Y-13364997D01*
X-5203816Y-13430461D01*
X-5203500Y-13439308D01*
X-5203500Y-14150691D01*
X-5223185Y-14217730D01*
X-5275989Y-14263485D01*
X-5345147Y-14273429D01*
X-5408703Y-14244404D01*
X-5415181Y-14238372D01*
X-5505000Y-14148553D01*
X-5651447Y-14295000D01*
X-5505000Y-14441447D01*
X-5415181Y-14351628D01*
X-5353858Y-14318143D01*
X-5284166Y-14323127D01*
X-5228233Y-14364999D01*
X-5203816Y-14430463D01*
X-5203500Y-14439309D01*
X-5203500Y-14795690D01*
X-5223185Y-14862729D01*
X-5239819Y-14883371D01*
X-5417320Y-15060871D01*
X-5478643Y-15094356D01*
X-5548335Y-15089372D01*
X-5592682Y-15060871D01*
X-5826061Y-14827492D01*
X-5605000Y-14827492D01*
X-5566803Y-14880065D01*
X-5520838Y-14895000D01*
X-5489162Y-14895000D01*
X-5443197Y-14880065D01*
X-5405000Y-14827492D01*
X-5405000Y-14762508D01*
X-5443197Y-14709935D01*
X-5489162Y-14695000D01*
X-5520838Y-14695000D01*
X-5566803Y-14709935D01*
X-5605000Y-14762508D01*
X-5605000Y-14827492D01*
X-5826061Y-14827492D01*
X-6092500Y-14561053D01*
X-6592319Y-15060871D01*
X-6653642Y-15094356D01*
X-6723334Y-15089372D01*
X-6767681Y-15060871D01*
X-7001060Y-14827492D01*
X-6780000Y-14827492D01*
X-6741803Y-14880065D01*
X-6695838Y-14895000D01*
X-6664162Y-14895000D01*
X-6618197Y-14880065D01*
X-6580000Y-14827492D01*
X-6580000Y-14762508D01*
X-6618197Y-14709935D01*
X-6664162Y-14695000D01*
X-6695838Y-14695000D01*
X-6741803Y-14709935D01*
X-6780000Y-14762508D01*
X-6780000Y-14827492D01*
X-7001060Y-14827492D01*
X-7267499Y-14561053D01*
X-7267500Y-14561053D01*
X-7605000Y-14898551D01*
X-7605000Y-15544999D01*
X-6725612Y-15544999D01*
X-6718664Y-15545389D01*
X-6680001Y-15549746D01*
X-6679999Y-15549746D01*
X-6641336Y-15545389D01*
X-6634388Y-15544999D01*
X-5550614Y-15544999D01*
X-5543666Y-15545389D01*
X-5505002Y-15549746D01*
X-5504999Y-15549746D01*
X-5466335Y-15545389D01*
X-5459387Y-15544999D01*
X-5455030Y-15544999D01*
X-5455014Y-15544998D01*
X-5345568Y-15533818D01*
X-5345411Y-15535357D01*
X-5283796Y-15539962D01*
X-5227996Y-15582012D01*
X-5203788Y-15647554D01*
X-5203500Y-15656005D01*
X-5203500Y-16510876D01*
X-5223185Y-16577915D01*
X-5239819Y-16598557D01*
X-7424066Y-18782804D01*
X-7485389Y-18816289D01*
X-7555081Y-18811305D01*
X-7611014Y-18769433D01*
X-7635431Y-18703969D01*
X-7629677Y-18656803D01*
X-7617081Y-18618036D01*
X-7617079Y-18618031D01*
X-7598215Y-18438556D01*
X-7617079Y-18259081D01*
X-7672845Y-18087449D01*
X-7763077Y-17931163D01*
X-7828645Y-17858342D01*
X-7883826Y-17797056D01*
X-7883829Y-17797054D01*
X-7883830Y-17797053D01*
X-7883831Y-17797052D01*
X-8029829Y-17690978D01*
X-8029830Y-17690977D01*
X-8194687Y-17617577D01*
X-8194693Y-17617575D01*
X-8344419Y-17585751D01*
X-8371212Y-17580056D01*
X-8551676Y-17580056D01*
X-8578469Y-17585751D01*
X-8728196Y-17617575D01*
X-8728202Y-17617577D01*
X-8893058Y-17690977D01*
X-8893063Y-17690980D01*
X-9039056Y-17797050D01*
X-9039063Y-17797056D01*
X-9159812Y-17931164D01*
X-9250044Y-18087450D01*
X-9305809Y-18259079D01*
X-9305810Y-18259081D01*
X-9305809Y-18259081D01*
X-9324673Y-18438556D01*
X-9315554Y-18525313D01*
X-9305809Y-18618031D01*
X-9305807Y-18618037D01*
X-9278126Y-18703234D01*
X-9273750Y-18721128D01*
X-9270852Y-18738483D01*
X-9119711Y-19213236D01*
X-9119343Y-19214390D01*
X-9113500Y-19252006D01*
X-9113500Y-19589064D01*
X-9122473Y-19635376D01*
X-9252630Y-19958655D01*
X-9295928Y-20013491D01*
X-9321345Y-20027370D01*
X-9644623Y-20157527D01*
X-9690935Y-20166500D01*
X-11210878Y-20166500D01*
X-11277917Y-20146815D01*
X-11298559Y-20130181D01*
X-14220181Y-17208558D01*
X-14253666Y-17147235D01*
X-14256500Y-17120877D01*
X-14256500Y-15475267D01*
X-10531716Y-15475267D01*
X-10531370Y-15476784D01*
X-10530980Y-15476971D01*
X-10530668Y-15476304D01*
X-10524118Y-15479358D01*
X-10446915Y-15504941D01*
X-10372950Y-15530821D01*
X-10366153Y-15532373D01*
X-10366297Y-15533002D01*
X-10364387Y-15533419D01*
X-10364316Y-15533089D01*
X-10357699Y-15534505D01*
X-10254980Y-15544998D01*
X-10250626Y-15544998D01*
X-10243661Y-15545389D01*
X-10205000Y-15549745D01*
X-10166342Y-15545389D01*
X-10159393Y-15544999D01*
X-9075609Y-15544999D01*
X-9068661Y-15545389D01*
X-9030000Y-15549746D01*
X-8991339Y-15545389D01*
X-8984391Y-15544999D01*
X-8105000Y-15544999D01*
X-8105000Y-14898553D01*
X-8176061Y-14827492D01*
X-7955000Y-14827492D01*
X-7916803Y-14880065D01*
X-7870838Y-14895000D01*
X-7839162Y-14895000D01*
X-7793197Y-14880065D01*
X-7755000Y-14827492D01*
X-7755000Y-14762508D01*
X-7793197Y-14709935D01*
X-7839162Y-14695000D01*
X-7870838Y-14695000D01*
X-7916803Y-14709935D01*
X-7955000Y-14762508D01*
X-7955000Y-14827492D01*
X-8176061Y-14827492D01*
X-8442500Y-14561053D01*
X-8942319Y-15060872D01*
X-9003642Y-15094357D01*
X-9073334Y-15089373D01*
X-9117681Y-15060872D01*
X-9351061Y-14827492D01*
X-9130000Y-14827492D01*
X-9091803Y-14880065D01*
X-9045838Y-14895000D01*
X-9014162Y-14895000D01*
X-8968197Y-14880065D01*
X-8930000Y-14827492D01*
X-8930000Y-14762508D01*
X-8968197Y-14709935D01*
X-9014162Y-14695000D01*
X-9045838Y-14695000D01*
X-9091803Y-14709935D01*
X-9130000Y-14762508D01*
X-9130000Y-14827492D01*
X-9351061Y-14827492D01*
X-9617500Y-14561053D01*
X-10205000Y-15148553D01*
X-10531716Y-15475267D01*
X-14256500Y-15475267D01*
X-14256500Y-14795000D01*
X-10959746Y-14795000D01*
X-10955391Y-14833670D01*
X-10955001Y-14840599D01*
X-10955000Y-14844962D01*
X-10955000Y-14844966D01*
X-10944507Y-14947688D01*
X-10943089Y-14954310D01*
X-10943393Y-14954374D01*
X-10942968Y-14956301D01*
X-10942371Y-14956165D01*
X-10940824Y-14962946D01*
X-10914955Y-15036876D01*
X-10889357Y-15114124D01*
X-10886308Y-15120662D01*
X-10886902Y-15120938D01*
X-10886689Y-15121390D01*
X-10885269Y-15121714D01*
X-10591045Y-14827492D01*
X-10305000Y-14827492D01*
X-10266803Y-14880065D01*
X-10220838Y-14895000D01*
X-10189162Y-14895000D01*
X-10143197Y-14880065D01*
X-10105000Y-14827492D01*
X-10105000Y-14762508D01*
X-10143197Y-14709935D01*
X-10189162Y-14695000D01*
X-10220838Y-14695000D01*
X-10266803Y-14709935D01*
X-10305000Y-14762508D01*
X-10305000Y-14827492D01*
X-10591045Y-14827492D01*
X-10558553Y-14795000D01*
X-10852710Y-14500843D01*
X-10886195Y-14439520D01*
X-10881211Y-14369828D01*
X-10852710Y-14325481D01*
X-10822229Y-14295000D01*
X-10351447Y-14295000D01*
X-10205000Y-14441447D01*
X-10058553Y-14295000D01*
X-9176447Y-14295000D01*
X-9030000Y-14441447D01*
X-8883553Y-14295000D01*
X-6826447Y-14295000D01*
X-6680000Y-14441447D01*
X-6533553Y-14295000D01*
X-6680000Y-14148553D01*
X-6826447Y-14295000D01*
X-8883553Y-14295000D01*
X-8883553Y-14294999D01*
X-9030000Y-14148553D01*
X-9176447Y-14295000D01*
X-10058553Y-14295000D01*
X-10058553Y-14294999D01*
X-10205000Y-14148553D01*
X-10351447Y-14294999D01*
X-10351447Y-14295000D01*
X-10822229Y-14295000D01*
X-10852711Y-14264518D01*
X-10886196Y-14203195D01*
X-10881212Y-14133503D01*
X-10852711Y-14089156D01*
X-10591047Y-13827492D01*
X-10305000Y-13827492D01*
X-10266803Y-13880065D01*
X-10220838Y-13895000D01*
X-10189162Y-13895000D01*
X-10143197Y-13880065D01*
X-10105000Y-13827492D01*
X-10105000Y-13794999D01*
X-9851447Y-13794999D01*
X-9617500Y-14028946D01*
X-9416046Y-13827492D01*
X-9130000Y-13827492D01*
X-9091803Y-13880065D01*
X-9045838Y-13895000D01*
X-9014162Y-13895000D01*
X-8968197Y-13880065D01*
X-8930000Y-13827492D01*
X-8930000Y-13794999D01*
X-8676447Y-13794999D01*
X-8442500Y-14028946D01*
X-8241046Y-13827492D01*
X-7955000Y-13827492D01*
X-7916803Y-13880065D01*
X-7870838Y-13895000D01*
X-7839162Y-13895000D01*
X-7793197Y-13880065D01*
X-7755000Y-13827492D01*
X-7755000Y-13794999D01*
X-7501447Y-13794999D01*
X-7267500Y-14028946D01*
X-7066046Y-13827492D01*
X-6780000Y-13827492D01*
X-6741803Y-13880065D01*
X-6695838Y-13895000D01*
X-6664162Y-13895000D01*
X-6618197Y-13880065D01*
X-6580000Y-13827492D01*
X-6580000Y-13794999D01*
X-6326447Y-13794999D01*
X-6092500Y-14028946D01*
X-5891046Y-13827492D01*
X-5605000Y-13827492D01*
X-5566803Y-13880065D01*
X-5520838Y-13895000D01*
X-5489162Y-13895000D01*
X-5443197Y-13880065D01*
X-5405000Y-13827492D01*
X-5405000Y-13762508D01*
X-5443197Y-13709935D01*
X-5489162Y-13695000D01*
X-5520838Y-13695000D01*
X-5566803Y-13709935D01*
X-5605000Y-13762508D01*
X-5605000Y-13827492D01*
X-5891046Y-13827492D01*
X-5858553Y-13794999D01*
X-6092501Y-13561053D01*
X-6326447Y-13794999D01*
X-6580000Y-13794999D01*
X-6580000Y-13762508D01*
X-6618197Y-13709935D01*
X-6664162Y-13695000D01*
X-6695838Y-13695000D01*
X-6741803Y-13709935D01*
X-6780000Y-13762508D01*
X-6780000Y-13827492D01*
X-7066046Y-13827492D01*
X-7033553Y-13794999D01*
X-7267501Y-13561053D01*
X-7501447Y-13794999D01*
X-7755000Y-13794999D01*
X-7755000Y-13762508D01*
X-7793197Y-13709935D01*
X-7839162Y-13695000D01*
X-7870838Y-13695000D01*
X-7916803Y-13709935D01*
X-7955000Y-13762508D01*
X-7955000Y-13827492D01*
X-8241046Y-13827492D01*
X-8208553Y-13794999D01*
X-8442501Y-13561053D01*
X-8676447Y-13794999D01*
X-8930000Y-13794999D01*
X-8930000Y-13762508D01*
X-8968197Y-13709935D01*
X-9014162Y-13695000D01*
X-9045838Y-13695000D01*
X-9091803Y-13709935D01*
X-9130000Y-13762508D01*
X-9130000Y-13827492D01*
X-9416046Y-13827492D01*
X-9383553Y-13794999D01*
X-9617501Y-13561053D01*
X-9851447Y-13794999D01*
X-10105000Y-13794999D01*
X-10105000Y-13762508D01*
X-10143197Y-13709935D01*
X-10189162Y-13695000D01*
X-10220838Y-13695000D01*
X-10266803Y-13709935D01*
X-10305000Y-13762508D01*
X-10305000Y-13827492D01*
X-10591047Y-13827492D01*
X-10558553Y-13794998D01*
X-10852710Y-13500842D01*
X-10886195Y-13439519D01*
X-10881211Y-13369828D01*
X-10852710Y-13325479D01*
X-10822230Y-13294999D01*
X-10351447Y-13294999D01*
X-10205000Y-13441446D01*
X-10058553Y-13294999D01*
X-9176447Y-13294999D01*
X-9030000Y-13441446D01*
X-8883553Y-13294999D01*
X-6826447Y-13294999D01*
X-6680000Y-13441446D01*
X-6533553Y-13294999D01*
X-6680001Y-13148553D01*
X-6826447Y-13294999D01*
X-8883553Y-13294999D01*
X-9030001Y-13148553D01*
X-9176447Y-13294999D01*
X-10058553Y-13294999D01*
X-10205001Y-13148553D01*
X-10351447Y-13294999D01*
X-10822230Y-13294999D01*
X-10852710Y-13264519D01*
X-10886195Y-13203196D01*
X-10881211Y-13133504D01*
X-10852710Y-13089156D01*
X-10808554Y-13045000D01*
X-10955000Y-13045000D01*
X-10955000Y-13749383D01*
X-10955390Y-13756329D01*
X-10959746Y-13794999D01*
X-10955390Y-13833670D01*
X-10955000Y-13840616D01*
X-10955000Y-14749381D01*
X-10955390Y-14756326D01*
X-10959746Y-14795000D01*
X-14256500Y-14795000D01*
X-14256500Y-12831441D01*
X-14255802Y-12827492D01*
X-10305000Y-12827492D01*
X-10266803Y-12880065D01*
X-10220838Y-12895000D01*
X-10189162Y-12895000D01*
X-10143197Y-12880065D01*
X-10105000Y-12827492D01*
X-9130000Y-12827492D01*
X-9091803Y-12880065D01*
X-9045838Y-12895000D01*
X-9014162Y-12895000D01*
X-8968197Y-12880065D01*
X-8930000Y-12827492D01*
X-7955000Y-12827492D01*
X-7916803Y-12880065D01*
X-7870838Y-12895000D01*
X-7839162Y-12895000D01*
X-7793197Y-12880065D01*
X-7755000Y-12827492D01*
X-7755000Y-12795000D01*
X-7501447Y-12795000D01*
X-7267500Y-13028947D01*
X-7066045Y-12827492D01*
X-6780000Y-12827492D01*
X-6741803Y-12880065D01*
X-6695838Y-12895000D01*
X-6664162Y-12895000D01*
X-6618197Y-12880065D01*
X-6580000Y-12827492D01*
X-6580000Y-12795000D01*
X-6326447Y-12795000D01*
X-6092500Y-13028947D01*
X-5891045Y-12827492D01*
X-5605000Y-12827492D01*
X-5566803Y-12880065D01*
X-5520838Y-12895000D01*
X-5489162Y-12895000D01*
X-5443197Y-12880065D01*
X-5405000Y-12827492D01*
X-5405000Y-12762508D01*
X-5443197Y-12709935D01*
X-5489162Y-12695000D01*
X-5520838Y-12695000D01*
X-5566803Y-12709935D01*
X-5605000Y-12762508D01*
X-5605000Y-12827492D01*
X-5891045Y-12827492D01*
X-5858553Y-12795000D01*
X-6092500Y-12561053D01*
X-6326447Y-12795000D01*
X-6580000Y-12795000D01*
X-6580000Y-12762508D01*
X-6618197Y-12709935D01*
X-6664162Y-12695000D01*
X-6695838Y-12695000D01*
X-6741803Y-12709935D01*
X-6780000Y-12762508D01*
X-6780000Y-12827492D01*
X-7066045Y-12827492D01*
X-7033553Y-12795000D01*
X-7267500Y-12561053D01*
X-7501447Y-12794999D01*
X-7501447Y-12795000D01*
X-7755000Y-12795000D01*
X-7755000Y-12762508D01*
X-7793197Y-12709935D01*
X-7839162Y-12695000D01*
X-7870838Y-12695000D01*
X-7916803Y-12709935D01*
X-7955000Y-12762508D01*
X-7955000Y-12827492D01*
X-8930000Y-12827492D01*
X-8930000Y-12762508D01*
X-8968197Y-12709935D01*
X-9014162Y-12695000D01*
X-9045838Y-12695000D01*
X-9091803Y-12709935D01*
X-9130000Y-12762508D01*
X-9130000Y-12827492D01*
X-10105000Y-12827492D01*
X-10105000Y-12762508D01*
X-10143197Y-12709935D01*
X-10189162Y-12695000D01*
X-10220838Y-12695000D01*
X-10266803Y-12709935D01*
X-10305000Y-12762508D01*
X-10305000Y-12827492D01*
X-14255802Y-12827492D01*
X-14248978Y-12788910D01*
X-14246035Y-12780851D01*
X-14020741Y-12163843D01*
X-14007572Y-12122411D01*
X-14007454Y-12121445D01*
X-14003049Y-12100629D01*
X-13970368Y-11992899D01*
X-13951862Y-11805000D01*
X-13952847Y-11795000D01*
X-10959746Y-11795000D01*
X-10955390Y-11833657D01*
X-10955000Y-11840605D01*
X-10955000Y-12545000D01*
X-10808553Y-12545000D01*
X-10808553Y-12544999D01*
X-10852710Y-12500842D01*
X-10886195Y-12439519D01*
X-10881211Y-12369827D01*
X-10852710Y-12325479D01*
X-10822231Y-12295000D01*
X-10351447Y-12295000D01*
X-10205000Y-12441447D01*
X-10058553Y-12295000D01*
X-9176447Y-12295000D01*
X-9030000Y-12441447D01*
X-8883553Y-12295000D01*
X-6826447Y-12295000D01*
X-6680000Y-12441447D01*
X-6533553Y-12295000D01*
X-6533553Y-12294999D01*
X-6680000Y-12148553D01*
X-6826447Y-12295000D01*
X-8883553Y-12295000D01*
X-8883553Y-12294999D01*
X-9030000Y-12148553D01*
X-9176447Y-12294999D01*
X-9176447Y-12295000D01*
X-10058553Y-12295000D01*
X-10058553Y-12294999D01*
X-10205000Y-12148553D01*
X-10351447Y-12295000D01*
X-10822231Y-12295000D01*
X-10822230Y-12294999D01*
X-10852710Y-12264519D01*
X-10886195Y-12203196D01*
X-10881211Y-12133504D01*
X-10852710Y-12089157D01*
X-10591045Y-11827492D01*
X-10305000Y-11827492D01*
X-10266803Y-11880065D01*
X-10220838Y-11895000D01*
X-10189162Y-11895000D01*
X-10143197Y-11880065D01*
X-10105000Y-11827492D01*
X-10105000Y-11795000D01*
X-9851447Y-11795000D01*
X-9617500Y-12028946D01*
X-9416045Y-11827492D01*
X-9130000Y-11827492D01*
X-9091803Y-11880065D01*
X-9045838Y-11895000D01*
X-9014162Y-11895000D01*
X-8968197Y-11880065D01*
X-8930000Y-11827492D01*
X-8930000Y-11795000D01*
X-8676447Y-11795000D01*
X-8442500Y-12028946D01*
X-8241045Y-11827492D01*
X-7955000Y-11827492D01*
X-7916803Y-11880065D01*
X-7870838Y-11895000D01*
X-7839162Y-11895000D01*
X-7793197Y-11880065D01*
X-7755000Y-11827492D01*
X-7755000Y-11795000D01*
X-7501447Y-11795000D01*
X-7267500Y-12028947D01*
X-7066045Y-11827492D01*
X-6780000Y-11827492D01*
X-6741803Y-11880065D01*
X-6695838Y-11895000D01*
X-6664162Y-11895000D01*
X-6618197Y-11880065D01*
X-6580000Y-11827492D01*
X-6580000Y-11795000D01*
X-6326447Y-11795000D01*
X-6092500Y-12028947D01*
X-5891045Y-11827492D01*
X-5605000Y-11827492D01*
X-5566803Y-11880065D01*
X-5520838Y-11895000D01*
X-5489162Y-11895000D01*
X-5443197Y-11880065D01*
X-5405000Y-11827492D01*
X-5405000Y-11762508D01*
X-5443197Y-11709935D01*
X-5489162Y-11695000D01*
X-5520838Y-11695000D01*
X-5566803Y-11709935D01*
X-5605000Y-11762508D01*
X-5605000Y-11827492D01*
X-5891045Y-11827492D01*
X-5858553Y-11795000D01*
X-6092500Y-11561053D01*
X-6326447Y-11795000D01*
X-6580000Y-11795000D01*
X-6580000Y-11762508D01*
X-6618197Y-11709935D01*
X-6664162Y-11695000D01*
X-6695838Y-11695000D01*
X-6741803Y-11709935D01*
X-6780000Y-11762508D01*
X-6780000Y-11827492D01*
X-7066045Y-11827492D01*
X-7033553Y-11795000D01*
X-7267500Y-11561053D01*
X-7501447Y-11794999D01*
X-7501447Y-11795000D01*
X-7755000Y-11795000D01*
X-7755000Y-11762508D01*
X-7793197Y-11709935D01*
X-7839162Y-11695000D01*
X-7870838Y-11695000D01*
X-7916803Y-11709935D01*
X-7955000Y-11762508D01*
X-7955000Y-11827492D01*
X-8241045Y-11827492D01*
X-8208553Y-11795000D01*
X-8442500Y-11561053D01*
X-8676447Y-11795000D01*
X-8930000Y-11795000D01*
X-8930000Y-11762508D01*
X-8968197Y-11709935D01*
X-9014162Y-11695000D01*
X-9045838Y-11695000D01*
X-9091803Y-11709935D01*
X-9130000Y-11762508D01*
X-9130000Y-11827492D01*
X-9416045Y-11827492D01*
X-9383553Y-11795000D01*
X-9617500Y-11561053D01*
X-9851447Y-11795000D01*
X-10105000Y-11795000D01*
X-10105000Y-11762508D01*
X-10143197Y-11709935D01*
X-10189162Y-11695000D01*
X-10220838Y-11695000D01*
X-10266803Y-11709935D01*
X-10305000Y-11762508D01*
X-10305000Y-11827492D01*
X-10591045Y-11827492D01*
X-10558553Y-11795000D01*
X-10852710Y-11500843D01*
X-10886195Y-11439520D01*
X-10881211Y-11369828D01*
X-10852710Y-11325481D01*
X-10822229Y-11295000D01*
X-10351447Y-11295000D01*
X-10205000Y-11441446D01*
X-10058553Y-11295000D01*
X-9176447Y-11295000D01*
X-9030000Y-11441446D01*
X-8883553Y-11295000D01*
X-8883554Y-11294999D01*
X-6826447Y-11294999D01*
X-6680000Y-11441446D01*
X-6533553Y-11294999D01*
X-6680000Y-11148553D01*
X-6826447Y-11294999D01*
X-8883554Y-11294999D01*
X-9030000Y-11148553D01*
X-9176447Y-11295000D01*
X-10058553Y-11295000D01*
X-10205000Y-11148553D01*
X-10351447Y-11294999D01*
X-10351447Y-11295000D01*
X-10822229Y-11295000D01*
X-10852710Y-11264519D01*
X-10886195Y-11203196D01*
X-10881211Y-11133504D01*
X-10852710Y-11089157D01*
X-10591045Y-10827492D01*
X-10305000Y-10827492D01*
X-10266803Y-10880065D01*
X-10220838Y-10895000D01*
X-10189162Y-10895000D01*
X-10143197Y-10880065D01*
X-10105000Y-10827492D01*
X-10105000Y-10762508D01*
X-10143197Y-10709935D01*
X-10189162Y-10695000D01*
X-10220838Y-10695000D01*
X-10266803Y-10709935D01*
X-10305000Y-10762508D01*
X-10305000Y-10827492D01*
X-10591045Y-10827492D01*
X-10558553Y-10795000D01*
X-10558553Y-10794999D01*
X-10885268Y-10468284D01*
X-10886687Y-10468608D01*
X-10886899Y-10469057D01*
X-10886306Y-10469334D01*
X-10889358Y-10475880D01*
X-10914961Y-10553140D01*
X-10940822Y-10627047D01*
X-10942371Y-10633837D01*
X-10942969Y-10633700D01*
X-10943394Y-10635625D01*
X-10943090Y-10635690D01*
X-10944506Y-10642303D01*
X-10955000Y-10745015D01*
X-10955000Y-10749395D01*
X-10955390Y-10756343D01*
X-10959746Y-10794999D01*
X-10959746Y-10795000D01*
X-10955390Y-10833656D01*
X-10955000Y-10840604D01*
X-10955000Y-11749393D01*
X-10955390Y-11756340D01*
X-10959746Y-11794997D01*
X-10959746Y-11795000D01*
X-13952847Y-11795000D01*
X-13970368Y-11617101D01*
X-14025177Y-11436423D01*
X-14028364Y-11430461D01*
X-14114177Y-11269914D01*
X-14114181Y-11269907D01*
X-14233959Y-11123958D01*
X-14379908Y-11004180D01*
X-14379915Y-11004176D01*
X-14546422Y-10915177D01*
X-14727099Y-10860368D01*
X-14915000Y-10841862D01*
X-15102902Y-10860368D01*
X-15283579Y-10915177D01*
X-15450086Y-11004176D01*
X-15450093Y-11004180D01*
X-15596042Y-11123958D01*
X-15715820Y-11269907D01*
X-15715824Y-11269914D01*
X-15804823Y-11436421D01*
X-15859632Y-11617099D01*
X-15868058Y-11702650D01*
X-15894219Y-11767437D01*
X-15951253Y-11807796D01*
X-16021054Y-11810913D01*
X-16079142Y-11778177D01*
X-16701060Y-11156259D01*
X-16718341Y-11134600D01*
X-16784798Y-11028947D01*
X-17084346Y-10552726D01*
X-17090393Y-10543340D01*
X-17090395Y-10543338D01*
X-17092973Y-10539336D01*
X-17092876Y-10539273D01*
X-17100166Y-10527900D01*
X-17139180Y-10454909D01*
X-17150228Y-10441447D01*
X-17258959Y-10308958D01*
X-17404908Y-10189180D01*
X-17404915Y-10189176D01*
X-17544191Y-10114732D01*
X-10531716Y-10114732D01*
X-10205000Y-10441447D01*
X-9617500Y-11028947D01*
X-9416045Y-10827492D01*
X-9130000Y-10827492D01*
X-9091803Y-10880065D01*
X-9045838Y-10895000D01*
X-9014162Y-10895000D01*
X-8968197Y-10880065D01*
X-8930000Y-10827492D01*
X-8930000Y-10762508D01*
X-8968197Y-10709935D01*
X-9014162Y-10695000D01*
X-9045838Y-10695000D01*
X-9091803Y-10709935D01*
X-9130000Y-10762508D01*
X-9130000Y-10827492D01*
X-9416045Y-10827492D01*
X-9117681Y-10529128D01*
X-9056358Y-10495643D01*
X-8986666Y-10500627D01*
X-8942319Y-10529128D01*
X-8442500Y-11028947D01*
X-8442499Y-11028947D01*
X-8241046Y-10827492D01*
X-7955000Y-10827492D01*
X-7916803Y-10880065D01*
X-7870838Y-10895000D01*
X-7839162Y-10895000D01*
X-7793197Y-10880065D01*
X-7755000Y-10827492D01*
X-7755000Y-10762508D01*
X-7793197Y-10709935D01*
X-7839162Y-10695000D01*
X-7870838Y-10695000D01*
X-7916803Y-10709935D01*
X-7955000Y-10762508D01*
X-7955000Y-10827492D01*
X-8241046Y-10827492D01*
X-8105001Y-10691446D01*
X-8105000Y-10691445D01*
X-8105000Y-10045000D01*
X-8984383Y-10045000D01*
X-8991329Y-10044610D01*
X-9030000Y-10040254D01*
X-9068670Y-10044610D01*
X-9075616Y-10045000D01*
X-10159383Y-10045000D01*
X-10166329Y-10044610D01*
X-10205002Y-10040254D01*
X-10243672Y-10044609D01*
X-10250601Y-10044999D01*
X-10254963Y-10045000D01*
X-10254967Y-10045000D01*
X-10357691Y-10055493D01*
X-10364312Y-10056911D01*
X-10364378Y-10056607D01*
X-10366300Y-10057031D01*
X-10366163Y-10057629D01*
X-10372953Y-10059178D01*
X-10446860Y-10085039D01*
X-10524120Y-10110642D01*
X-10530666Y-10113694D01*
X-10530943Y-10113101D01*
X-10531392Y-10113313D01*
X-10531716Y-10114732D01*
X-17544191Y-10114732D01*
X-17571422Y-10100177D01*
X-17752099Y-10045368D01*
X-17940000Y-10026862D01*
X-17940001Y-10026862D01*
X-18090347Y-10041669D01*
X-18158993Y-10028650D01*
X-18209703Y-9980585D01*
X-18226500Y-9918266D01*
X-18226500Y-7768945D01*
X-18225969Y-7760843D01*
X-18225124Y-7754429D01*
X-18221250Y-7725000D01*
X-18226234Y-7687148D01*
X-18226235Y-7687129D01*
X-18226935Y-7681813D01*
X-18242162Y-7566150D01*
X-18242163Y-7566148D01*
X-18242163Y-7566146D01*
X-18267050Y-7506063D01*
X-18303474Y-7418128D01*
X-18303477Y-7418123D01*
X-18377765Y-7321308D01*
X-18377785Y-7321284D01*
X-18389879Y-7305523D01*
X-18401013Y-7291013D01*
X-18401015Y-7291011D01*
X-18401016Y-7291010D01*
X-18417061Y-7278699D01*
X-18429707Y-7268995D01*
X-18435797Y-7263654D01*
X-19719070Y-5980381D01*
X-19741823Y-5949095D01*
X-19815328Y-5805155D01*
X-19891813Y-5655379D01*
X-19891818Y-5655370D01*
X-19892275Y-5654475D01*
X-19892183Y-5654427D01*
X-19894111Y-5650022D01*
X-19894266Y-5650097D01*
X-19897289Y-5643821D01*
X-19897291Y-5643818D01*
X-19897291Y-5643817D01*
X-19903952Y-5633217D01*
X-19905709Y-5630237D01*
X-19908089Y-5625931D01*
X-19908771Y-5624919D01*
X-19912037Y-5620348D01*
X-19988229Y-5499091D01*
X-20109092Y-5378228D01*
X-20253817Y-5287291D01*
X-20415151Y-5230837D01*
X-20415156Y-5230836D01*
X-20584996Y-5211701D01*
X-20585004Y-5211701D01*
X-20754845Y-5230836D01*
X-20754850Y-5230837D01*
X-20916184Y-5287291D01*
X-21060909Y-5378228D01*
X-21181772Y-5499091D01*
X-21272709Y-5643816D01*
X-21329163Y-5805150D01*
X-21329164Y-5805155D01*
X-21348299Y-5974996D01*
X-21348299Y-5975003D01*
X-21329164Y-6144844D01*
X-21329163Y-6144849D01*
X-21272709Y-6306183D01*
X-21182343Y-6450000D01*
X-21181771Y-6450909D01*
X-21060909Y-6571771D01*
X-20916183Y-6662709D01*
X-20916179Y-6662710D01*
X-20914253Y-6663638D01*
X-20909779Y-6665553D01*
X-20904624Y-6668185D01*
X-20904623Y-6668186D01*
X-20610903Y-6818178D01*
X-20579619Y-6840930D01*
X-20157230Y-7263319D01*
X-20123745Y-7324642D01*
X-20128729Y-7394334D01*
X-20170601Y-7450267D01*
X-20236065Y-7474684D01*
X-20244911Y-7475000D01*
X-20466000Y-7475000D01*
X-20466000Y-8175000D01*
X-20966001Y-8175000D01*
X-20966000Y-7475000D01*
X-21316713Y-7475000D01*
X-21468339Y-7490418D01*
X-21662382Y-7551299D01*
X-21662392Y-7551304D01*
X-21840216Y-7650005D01*
X-21840217Y-7650005D01*
X-21994531Y-7782478D01*
X-21994532Y-7782479D01*
X-22119019Y-7943304D01*
X-22208589Y-8125906D01*
X-22234246Y-8225000D01*
X-21482111Y-8225000D01*
X-21521610Y-8249457D01*
X-21589201Y-8338962D01*
X-21619895Y-8446840D01*
X-21609546Y-8558521D01*
X-21559552Y-8658922D01*
X-21487069Y-8725000D01*
X-22239366Y-8725000D01*
X-22239069Y-8726946D01*
X-22239067Y-8726952D01*
X-22168438Y-8917657D01*
X-22168435Y-8917664D01*
X-22060851Y-9090267D01*
X-21920736Y-9237668D01*
X-21920734Y-9237669D01*
X-21753804Y-9353857D01*
X-21674118Y-9388052D01*
X-21620274Y-9432578D01*
X-21599050Y-9499146D01*
X-21617185Y-9566621D01*
X-21621712Y-9573511D01*
X-21686972Y-9665963D01*
X-21735346Y-9802074D01*
X-21735346Y-9802077D01*
X-21743293Y-9918266D01*
X-21745204Y-9946199D01*
X-21724754Y-10044610D01*
X-21715814Y-10087634D01*
X-21715813Y-10087636D01*
X-21649355Y-10215893D01*
X-21649351Y-10215899D01*
X-21552280Y-10319836D01*
X-21550755Y-10321469D01*
X-21427328Y-10396526D01*
X-21288228Y-10435500D01*
X-21288227Y-10435500D01*
X-21180050Y-10435500D01*
X-21168498Y-10433911D01*
X-21072889Y-10420771D01*
X-20940391Y-10363219D01*
X-20828335Y-10272054D01*
X-20745029Y-10154037D01*
X-20717038Y-10075278D01*
X-20696655Y-10017925D01*
X-20696655Y-10017923D01*
X-20696654Y-10017921D01*
X-20686796Y-9873801D01*
X-20716186Y-9732366D01*
X-20782646Y-9604105D01*
X-20782649Y-9604102D01*
X-20782650Y-9604100D01*
X-20881245Y-9498531D01*
X-20906429Y-9483216D01*
X-20953481Y-9431564D01*
X-20966000Y-9377268D01*
X-20966000Y-8775000D01*
X-20466000Y-8775000D01*
X-20466000Y-9475000D01*
X-20115287Y-9475000D01*
X-19963662Y-9459581D01*
X-19769619Y-9398700D01*
X-19769609Y-9398695D01*
X-19627678Y-9319917D01*
X-19559509Y-9304594D01*
X-19493878Y-9328557D01*
X-19451621Y-9384200D01*
X-19443500Y-9428336D01*
X-19443500Y-10948887D01*
X-19449534Y-10987098D01*
X-19551156Y-11300824D01*
X-19551164Y-11300850D01*
X-19560482Y-11333194D01*
X-19561523Y-11338534D01*
X-19561910Y-11338458D01*
X-19566537Y-11359066D01*
X-19579162Y-11395149D01*
X-19579164Y-11395156D01*
X-19598299Y-11564996D01*
X-19598299Y-11565003D01*
X-19579164Y-11734844D01*
X-19579163Y-11734849D01*
X-19522709Y-11896183D01*
X-19439288Y-12028947D01*
X-19431771Y-12040909D01*
X-19310909Y-12161771D01*
X-19166183Y-12252709D01*
X-19011586Y-12306805D01*
X-19004850Y-12309162D01*
X-19004845Y-12309163D01*
X-18835004Y-12328299D01*
X-18835000Y-12328299D01*
X-18834996Y-12328299D01*
X-18665156Y-12309163D01*
X-18665153Y-12309162D01*
X-18665150Y-12309162D01*
X-18503817Y-12252709D01*
X-18359091Y-12161771D01*
X-18242013Y-12044692D01*
X-18180694Y-12011210D01*
X-18111002Y-12016194D01*
X-18088313Y-12027414D01*
X-17871418Y-12163843D01*
X-17808855Y-12203196D01*
X-17795400Y-12211659D01*
X-17773741Y-12228940D01*
X-16409819Y-13592861D01*
X-16376334Y-13654184D01*
X-16373500Y-13680542D01*
X-16373500Y-18511372D01*
X-16376596Y-18538907D01*
X-16529231Y-19209123D01*
X-16530121Y-19213236D01*
X-16563552Y-19274589D01*
X-16624845Y-19308129D01*
X-16694541Y-19303206D01*
X-16750512Y-19261385D01*
X-16768353Y-19227939D01*
X-16787290Y-19173818D01*
X-16878229Y-19029091D01*
X-16999092Y-18908228D01*
X-17143817Y-18817290D01*
X-17145757Y-18816356D01*
X-17150221Y-18814446D01*
X-17449099Y-18661819D01*
X-17480385Y-18639066D01*
X-18190181Y-17929269D01*
X-18223666Y-17867946D01*
X-18226500Y-17841588D01*
X-18226500Y-15166108D01*
X-18220466Y-15127897D01*
X-18216576Y-15115889D01*
X-18118837Y-14814149D01*
X-18118828Y-14814116D01*
X-18118820Y-14814092D01*
X-18111817Y-14789778D01*
X-18109520Y-14781805D01*
X-18109519Y-14781791D01*
X-18108478Y-14776460D01*
X-18108087Y-14776536D01*
X-18103466Y-14755933D01*
X-18090838Y-14719850D01*
X-18090719Y-14718792D01*
X-18071701Y-14550003D01*
X-18071701Y-14549996D01*
X-18090837Y-14380155D01*
X-18090838Y-14380150D01*
X-18116287Y-14307421D01*
X-18147291Y-14218817D01*
X-18238229Y-14074091D01*
X-18359091Y-13953229D01*
X-18359092Y-13953228D01*
X-18503817Y-13862291D01*
X-18665151Y-13805837D01*
X-18665156Y-13805836D01*
X-18834996Y-13786701D01*
X-18835004Y-13786701D01*
X-19004845Y-13805836D01*
X-19004850Y-13805837D01*
X-19166184Y-13862291D01*
X-19310909Y-13953228D01*
X-19431772Y-14074091D01*
X-19522709Y-14218816D01*
X-19579163Y-14380150D01*
X-19579164Y-14380155D01*
X-19598299Y-14549996D01*
X-19598299Y-14550003D01*
X-19579163Y-14719847D01*
X-19559414Y-14776288D01*
X-19554254Y-14796203D01*
X-19551165Y-14814147D01*
X-19551165Y-14814149D01*
X-19449534Y-15127900D01*
X-19443500Y-15166111D01*
X-19443500Y-16172111D01*
X-19463185Y-16239150D01*
X-19515989Y-16284905D01*
X-19585147Y-16294849D01*
X-19638337Y-16273886D01*
X-19678196Y-16246143D01*
X-19865093Y-16165940D01*
X-20064310Y-16125000D01*
X-20466000Y-16125000D01*
X-20466000Y-16825000D01*
X-20966000Y-16825000D01*
X-20966000Y-16223024D01*
X-20946315Y-16155985D01*
X-20920258Y-16126839D01*
X-20828335Y-16052054D01*
X-20745029Y-15934037D01*
X-20719190Y-15861332D01*
X-20696655Y-15797925D01*
X-20696655Y-15797923D01*
X-20696654Y-15797921D01*
X-20686796Y-15653801D01*
X-20716186Y-15512366D01*
X-20782646Y-15384105D01*
X-20782649Y-15384102D01*
X-20782650Y-15384100D01*
X-20881246Y-15278530D01*
X-21004670Y-15203475D01*
X-21004671Y-15203474D01*
X-21004672Y-15203474D01*
X-21143772Y-15164500D01*
X-21251949Y-15164500D01*
X-21251950Y-15164500D01*
X-21359111Y-15179229D01*
X-21491611Y-15236781D01*
X-21491611Y-15236782D01*
X-21603662Y-15327943D01*
X-21603667Y-15327948D01*
X-21686972Y-15445963D01*
X-21735346Y-15582074D01*
X-21735346Y-15582077D01*
X-21735347Y-15582079D01*
X-21735346Y-15582079D01*
X-21745204Y-15726199D01*
X-21722666Y-15834658D01*
X-21715814Y-15867634D01*
X-21715813Y-15867636D01*
X-21649355Y-15995893D01*
X-21649351Y-15995899D01*
X-21635812Y-16010396D01*
X-21604441Y-16072827D01*
X-21611803Y-16142308D01*
X-21655561Y-16196778D01*
X-21666259Y-16203450D01*
X-21840216Y-16300004D01*
X-21840217Y-16300005D01*
X-21994531Y-16432478D01*
X-21994532Y-16432479D01*
X-22119019Y-16593304D01*
X-22208589Y-16775906D01*
X-22234246Y-16875000D01*
X-21482111Y-16875000D01*
X-21521610Y-16899457D01*
X-21589201Y-16988962D01*
X-21619895Y-17096840D01*
X-21609546Y-17208521D01*
X-21559552Y-17308922D01*
X-21487069Y-17375000D01*
X-22239366Y-17375000D01*
X-23497754Y-17375000D01*
X-24299889Y-17375000D01*
X-24260390Y-17350543D01*
X-24192799Y-17261038D01*
X-24162105Y-17153160D01*
X-24172454Y-17041479D01*
X-24222448Y-16941078D01*
X-24294931Y-16875000D01*
X-23492634Y-16875000D01*
X-23492932Y-16873053D01*
X-23492934Y-16873047D01*
X-23563563Y-16682342D01*
X-23563566Y-16682335D01*
X-23671150Y-16509732D01*
X-23811265Y-16362331D01*
X-23811267Y-16362330D01*
X-23978196Y-16246143D01*
X-24165093Y-16165940D01*
X-24364310Y-16125000D01*
X-24666000Y-16125000D01*
X-24666000Y-16825000D01*
X-25166000Y-16825000D01*
X-25166000Y-16125000D01*
X-25416713Y-16125000D01*
X-25568339Y-16140418D01*
X-25762382Y-16201299D01*
X-25762392Y-16201304D01*
X-25940216Y-16300005D01*
X-25940217Y-16300005D01*
X-26094531Y-16432478D01*
X-26094532Y-16432479D01*
X-26219019Y-16593304D01*
X-26308589Y-16775906D01*
X-26334246Y-16875000D01*
X-25532111Y-16875000D01*
X-25571610Y-16899457D01*
X-25639201Y-16988962D01*
X-25669895Y-17096840D01*
X-25659546Y-17208521D01*
X-25609552Y-17308922D01*
X-25537069Y-17375000D01*
X-26339366Y-17375000D01*
X-26854500Y-17375000D01*
X-26854500Y-13045000D01*
X-21618299Y-13045000D01*
X-21599164Y-13214844D01*
X-21599163Y-13214849D01*
X-21542709Y-13376183D01*
X-21456011Y-13514162D01*
X-21451771Y-13520909D01*
X-21330909Y-13641771D01*
X-21186183Y-13732709D01*
X-21031883Y-13786701D01*
X-21024850Y-13789162D01*
X-21024845Y-13789163D01*
X-20855004Y-13808299D01*
X-20855000Y-13808299D01*
X-20854996Y-13808299D01*
X-20685156Y-13789163D01*
X-20685153Y-13789162D01*
X-20685150Y-13789162D01*
X-20523817Y-13732709D01*
X-20379091Y-13641771D01*
X-20258229Y-13520909D01*
X-20167291Y-13376183D01*
X-20110838Y-13214850D01*
X-20106148Y-13173229D01*
X-20091701Y-13045000D01*
X-20091701Y-13044996D01*
X-20110837Y-12875157D01*
X-20110839Y-12875149D01*
X-20130587Y-12818711D01*
X-20135749Y-12798789D01*
X-20138836Y-12780855D01*
X-20138837Y-12780851D01*
X-20138837Y-12780849D01*
X-20197999Y-12598208D01*
X-20199930Y-12528367D01*
X-20197997Y-12521787D01*
X-20138850Y-12339189D01*
X-20138838Y-12339151D01*
X-20138837Y-12339149D01*
X-20129520Y-12306805D01*
X-20129519Y-12306791D01*
X-20128478Y-12301460D01*
X-20128087Y-12301536D01*
X-20123466Y-12280933D01*
X-20110838Y-12244850D01*
X-20109045Y-12228940D01*
X-20091701Y-12075003D01*
X-20091701Y-12074996D01*
X-20110837Y-11905155D01*
X-20110838Y-11905150D01*
X-20114390Y-11895000D01*
X-20167291Y-11743817D01*
X-20258229Y-11599091D01*
X-20379091Y-11478229D01*
X-20379092Y-11478229D01*
X-20379092Y-11478228D01*
X-20523817Y-11387291D01*
X-20685151Y-11330837D01*
X-20685156Y-11330836D01*
X-20854996Y-11311701D01*
X-20855004Y-11311701D01*
X-21024845Y-11330836D01*
X-21024850Y-11330837D01*
X-21186184Y-11387291D01*
X-21330909Y-11478228D01*
X-21451772Y-11599091D01*
X-21542709Y-11743816D01*
X-21599163Y-11905150D01*
X-21599164Y-11905155D01*
X-21618299Y-12074996D01*
X-21618299Y-12075003D01*
X-21599163Y-12244847D01*
X-21599163Y-12244849D01*
X-21599162Y-12244850D01*
X-21592642Y-12263485D01*
X-21579414Y-12301288D01*
X-21574254Y-12321203D01*
X-21571164Y-12339151D01*
X-21553542Y-12393554D01*
X-21512005Y-12521789D01*
X-21510074Y-12591632D01*
X-21512005Y-12598210D01*
X-21571160Y-12780836D01*
X-21580482Y-12813194D01*
X-21581523Y-12818534D01*
X-21581910Y-12818458D01*
X-21586537Y-12839066D01*
X-21599162Y-12875149D01*
X-21599164Y-12875156D01*
X-21618299Y-13044996D01*
X-21618299Y-13045000D01*
X-26854500Y-13045000D01*
X-26854500Y-8725000D01*
X-26339366Y-8725000D01*
X-26339069Y-8726946D01*
X-26339067Y-8726952D01*
X-26268438Y-8917657D01*
X-26268435Y-8917664D01*
X-26160851Y-9090267D01*
X-26020736Y-9237668D01*
X-26020734Y-9237669D01*
X-25853805Y-9353856D01*
X-25666908Y-9434059D01*
X-25467690Y-9475000D01*
X-25166000Y-9475000D01*
X-25166000Y-8775000D01*
X-24666000Y-8775000D01*
X-24666000Y-9475000D01*
X-24415287Y-9475000D01*
X-24263662Y-9459581D01*
X-24069619Y-9398700D01*
X-24069609Y-9398695D01*
X-23891785Y-9299994D01*
X-23891784Y-9299994D01*
X-23737470Y-9167521D01*
X-23737469Y-9167520D01*
X-23612982Y-9006695D01*
X-23523412Y-8824093D01*
X-23497754Y-8725000D01*
X-24299889Y-8725000D01*
X-24260390Y-8700543D01*
X-24192799Y-8611038D01*
X-24162105Y-8503160D01*
X-24172454Y-8391479D01*
X-24222448Y-8291078D01*
X-24294931Y-8225000D01*
X-23492634Y-8225000D01*
X-23492932Y-8223053D01*
X-23492934Y-8223047D01*
X-23563563Y-8032342D01*
X-23563566Y-8032335D01*
X-23671150Y-7859732D01*
X-23811265Y-7712331D01*
X-23811267Y-7712330D01*
X-23978196Y-7596143D01*
X-24165093Y-7515940D01*
X-24364310Y-7475000D01*
X-24666000Y-7475000D01*
X-24666000Y-8175000D01*
X-25166000Y-8175000D01*
X-25166000Y-7475000D01*
X-25416713Y-7475000D01*
X-25568339Y-7490418D01*
X-25762382Y-7551299D01*
X-25762392Y-7551304D01*
X-25940216Y-7650005D01*
X-25940217Y-7650005D01*
X-26094531Y-7782478D01*
X-26094532Y-7782479D01*
X-26219019Y-7943304D01*
X-26308589Y-8125906D01*
X-26334246Y-8225000D01*
X-25532111Y-8225000D01*
X-25571610Y-8249457D01*
X-25639201Y-8338962D01*
X-25669895Y-8446840D01*
X-25659546Y-8558521D01*
X-25609552Y-8658922D01*
X-25537069Y-8725000D01*
X-26339366Y-8725000D01*
X-26854500Y-8725000D01*
X-26854500Y-2865000D01*
X-25608474Y-2865000D01*
X-25588609Y-3117406D01*
X-25529505Y-3363593D01*
X-25432617Y-3597502D01*
X-25300332Y-3813370D01*
X-25300331Y-3813372D01*
X-25300330Y-3813374D01*
X-25300328Y-3813376D01*
X-25135898Y-4005898D01*
X-24943376Y-4170328D01*
X-24943374Y-4170329D01*
X-24943373Y-4170330D01*
X-24943371Y-4170331D01*
X-24727503Y-4302616D01*
X-24493594Y-4399504D01*
X-24493593Y-4399504D01*
X-24493591Y-4399505D01*
X-24247403Y-4458609D01*
X-23995000Y-4478474D01*
X-23742597Y-4458609D01*
X-23496409Y-4399505D01*
X-23262498Y-4302616D01*
X-23046624Y-4170328D01*
X-22854102Y-4005898D01*
X-22689672Y-3813376D01*
X-22557384Y-3597502D01*
X-22460495Y-3363591D01*
X-22401391Y-3117403D01*
X-22381526Y-2865000D01*
X-22401391Y-2612597D01*
X-22460495Y-2366409D01*
X-22460496Y-2366406D01*
X-22557384Y-2132497D01*
X-22689669Y-1916629D01*
X-22689670Y-1916627D01*
X-22689671Y-1916626D01*
X-22689672Y-1916624D01*
X-22854102Y-1724102D01*
X-23046624Y-1559672D01*
X-23046626Y-1559670D01*
X-23046628Y-1559669D01*
X-23046630Y-1559668D01*
X-23262498Y-1427383D01*
X-23496407Y-1330495D01*
X-23742594Y-1271391D01*
X-23995000Y-1251526D01*
X-24247407Y-1271391D01*
X-24493594Y-1330495D01*
X-24727503Y-1427383D01*
X-24943371Y-1559668D01*
X-24943373Y-1559669D01*
X-25135898Y-1724102D01*
X-25300331Y-1916627D01*
X-25300332Y-1916629D01*
X-25432617Y-2132497D01*
X-25529505Y-2366406D01*
X-25588609Y-2612593D01*
X-25608474Y-2865000D01*
X-26854500Y-2865000D01*
X-26854500Y-2027036D01*
X-26854367Y-2022981D01*
X-26849018Y-1941355D01*
X-26836014Y-1759536D01*
X-26834985Y-1751901D01*
X-26811845Y-1635567D01*
X-26780467Y-1491323D01*
X-26778608Y-1484625D01*
X-26738453Y-1366335D01*
X-26737913Y-1364817D01*
X-26688838Y-1233242D01*
X-26686372Y-1227530D01*
X-26629956Y-1113129D01*
X-26628848Y-1110996D01*
X-26562816Y-990066D01*
X-26559971Y-985368D01*
X-26488437Y-878311D01*
X-26486572Y-875676D01*
X-26404709Y-766321D01*
X-26401756Y-762678D01*
X-26316497Y-665459D01*
X-26313802Y-662581D01*
X-26217419Y-566198D01*
X-26214541Y-563503D01*
X-26117322Y-478244D01*
X-26113679Y-475291D01*
X-26004324Y-393428D01*
X-26001689Y-391563D01*
X-25894632Y-320029D01*
X-25889934Y-317184D01*
X-25769004Y-251152D01*
X-25766871Y-250044D01*
X-25652470Y-193628D01*
X-25646758Y-191162D01*
X-25515183Y-142087D01*
X-25513665Y-141547D01*
X-25395375Y-101392D01*
X-25388677Y-99533D01*
X-25244433Y-68155D01*
X-25128099Y-45015D01*
X-25120464Y-43986D01*
X-24938710Y-30986D01*
X-24908763Y-29023D01*
X-24857019Y-25633D01*
X-24852964Y-25500D01*
X19237880Y-25500D01*
X19304919Y-45185D01*
G37*
%TD.AperFunction*%
%TD*%
%TA.AperFunction,Conductor*%
%TO.N,/INPUT5*%
G36*
X5364764Y-20968427D02*
G01*
X5367622Y-20973095D01*
X5492652Y-21359087D01*
X5491941Y-21368013D01*
X5486038Y-21373485D01*
X5269517Y-21464109D01*
X5260563Y-21464142D01*
X5260483Y-21464109D01*
X5043961Y-21373485D01*
X5037652Y-21367129D01*
X5037347Y-21359088D01*
X5162377Y-20973095D01*
X5168188Y-20966280D01*
X5173509Y-20965000D01*
X5356491Y-20965000D01*
X5364764Y-20968427D01*
G37*
%TD.AperFunction*%
%TD*%
%TA.AperFunction,Conductor*%
%TO.N,/INPUT5*%
G36*
X11848988Y-13678410D02*
G01*
X12066177Y-13767436D01*
X12072531Y-13773744D01*
X12072564Y-13773823D01*
X12161588Y-13991008D01*
X12161555Y-13999963D01*
X12156083Y-14005866D01*
X11794734Y-14190394D01*
X11785808Y-14191105D01*
X11781140Y-14188247D01*
X11651752Y-14058859D01*
X11648325Y-14050586D01*
X11649604Y-14045268D01*
X11834135Y-13683914D01*
X11840948Y-13678106D01*
X11848988Y-13678410D01*
G37*
%TD.AperFunction*%
%TD*%
%TA.AperFunction,Conductor*%
%TO.N,/INPUT6*%
G36*
X12604073Y-14328445D02*
G01*
X12821175Y-14417435D01*
X12827531Y-14423744D01*
X12827564Y-14423824D01*
X12916618Y-14641083D01*
X12916585Y-14650037D01*
X12911190Y-14655900D01*
X12552761Y-14842310D01*
X12543840Y-14843087D01*
X12539090Y-14840203D01*
X12409696Y-14710809D01*
X12406269Y-14702536D01*
X12407505Y-14697303D01*
X12546538Y-14419293D01*
X12589174Y-14334037D01*
X12595938Y-14328172D01*
X12604073Y-14328445D01*
G37*
%TD.AperFunction*%
%TD*%
%TA.AperFunction,Conductor*%
%TO.N,/INPUT6*%
G36*
X6904764Y-20968427D02*
G01*
X6907622Y-20973095D01*
X7032652Y-21359087D01*
X7031941Y-21368013D01*
X7026038Y-21373485D01*
X6809517Y-21464109D01*
X6800563Y-21464142D01*
X6800483Y-21464109D01*
X6583961Y-21373485D01*
X6577652Y-21367129D01*
X6577347Y-21359088D01*
X6702377Y-20973095D01*
X6708188Y-20966280D01*
X6713509Y-20965000D01*
X6896491Y-20965000D01*
X6904764Y-20968427D01*
G37*
%TD.AperFunction*%
%TD*%
%TA.AperFunction,Conductor*%
%TO.N,/INPUT7*%
G36*
X8434764Y-20978427D02*
G01*
X8437622Y-20983095D01*
X8562652Y-21369087D01*
X8561941Y-21378013D01*
X8556038Y-21383485D01*
X8339517Y-21474109D01*
X8330563Y-21474142D01*
X8330483Y-21474109D01*
X8113961Y-21383485D01*
X8107652Y-21377129D01*
X8107347Y-21369088D01*
X8232377Y-20983095D01*
X8238188Y-20976280D01*
X8243509Y-20975000D01*
X8426491Y-20975000D01*
X8434764Y-20978427D01*
G37*
%TD.AperFunction*%
%TD*%
%TA.AperFunction,Conductor*%
%TO.N,/INPUT7*%
G36*
X12508988Y-15738410D02*
G01*
X12726177Y-15827436D01*
X12732531Y-15833744D01*
X12732564Y-15833823D01*
X12821588Y-16051008D01*
X12821555Y-16059963D01*
X12816083Y-16065866D01*
X12454734Y-16250394D01*
X12445808Y-16251105D01*
X12441140Y-16248247D01*
X12311752Y-16118859D01*
X12308325Y-16110586D01*
X12309604Y-16105268D01*
X12494135Y-15743914D01*
X12500948Y-15738106D01*
X12508988Y-15738410D01*
G37*
%TD.AperFunction*%
%TD*%
%TA.AperFunction,Conductor*%
%TO.N,/INPUT8*%
G36*
X12563842Y-17253351D02*
G01*
X12781175Y-17342435D01*
X12787531Y-17348744D01*
X12787564Y-17348824D01*
X12876518Y-17565839D01*
X12876485Y-17574793D01*
X12870837Y-17580784D01*
X12505659Y-17759593D01*
X12496722Y-17760153D01*
X12492241Y-17757358D01*
X12362842Y-17627959D01*
X12359415Y-17619686D01*
X12360776Y-17614210D01*
X12381030Y-17575970D01*
X12549066Y-17258700D01*
X12555966Y-17252994D01*
X12563842Y-17253351D01*
G37*
%TD.AperFunction*%
%TD*%
%TA.AperFunction,Conductor*%
%TO.N,/INPUT8*%
G36*
X9964764Y-20978427D02*
G01*
X9967622Y-20983095D01*
X10092652Y-21369087D01*
X10091941Y-21378013D01*
X10086038Y-21383485D01*
X9869517Y-21474109D01*
X9860563Y-21474142D01*
X9860483Y-21474109D01*
X9643961Y-21383485D01*
X9637652Y-21377129D01*
X9637347Y-21369088D01*
X9762377Y-20983095D01*
X9768188Y-20976280D01*
X9773509Y-20975000D01*
X9956491Y-20975000D01*
X9964764Y-20978427D01*
G37*
%TD.AperFunction*%
%TD*%
%TA.AperFunction,Conductor*%
%TO.N,+5V*%
G36*
X-17524412Y-10821563D02*
G01*
X-17519008Y-10826133D01*
X-17131799Y-11441717D01*
X-17130295Y-11450545D01*
X-17133430Y-11456220D01*
X-17473780Y-11796570D01*
X-17482053Y-11799997D01*
X-17488283Y-11798201D01*
X-18103867Y-11410992D01*
X-18109045Y-11403686D01*
X-18108457Y-11396635D01*
X-17942563Y-10993798D01*
X-17936246Y-10987455D01*
X-17533365Y-10821544D01*
X-17524412Y-10821563D01*
G37*
%TD.AperFunction*%
%TD*%
%TA.AperFunction,Conductor*%
%TO.N,+5V*%
G36*
X-15366062Y-18608427D02*
G01*
X-15362927Y-18614102D01*
X-15201443Y-19323183D01*
X-15202947Y-19332011D01*
X-15208351Y-19336581D01*
X-15610500Y-19504125D01*
X-15619455Y-19504144D01*
X-15619500Y-19504125D01*
X-16021650Y-19336581D01*
X-16027969Y-19330236D01*
X-16028558Y-19323183D01*
X-15867073Y-18614102D01*
X-15861895Y-18606796D01*
X-15855665Y-18605000D01*
X-15374335Y-18605000D01*
X-15366062Y-18608427D01*
G37*
%TD.AperFunction*%
%TD*%
%TA.AperFunction,Conductor*%
%TO.N,+3.3V*%
G36*
X-2799811Y-17866163D02*
G01*
X-2492602Y-17994365D01*
X-2486288Y-18000713D01*
X-2486311Y-18009668D01*
X-2486380Y-18009829D01*
X-2755721Y-18628950D01*
X-2762164Y-18635170D01*
X-2771117Y-18635012D01*
X-2774723Y-18632556D01*
X-2972834Y-18434445D01*
X-2975589Y-18430080D01*
X-3124653Y-18009395D01*
X-3124186Y-18000452D01*
X-3118116Y-17994683D01*
X-2808792Y-17866161D01*
X-2799837Y-17866153D01*
X-2799811Y-17866163D01*
G37*
%TD.AperFunction*%
%TD*%
%TA.AperFunction,Conductor*%
%TO.N,+3.3V*%
G36*
X-8456966Y-18439424D02*
G01*
X-8215268Y-18540286D01*
X-8147777Y-18568451D01*
X-8141462Y-18574800D01*
X-8141063Y-18582565D01*
X-8302522Y-19128890D01*
X-8308153Y-19135853D01*
X-8313742Y-19137274D01*
X-8596446Y-19137274D01*
X-8604719Y-19133847D01*
X-8607595Y-19129123D01*
X-8607669Y-19128890D01*
X-8781550Y-18582710D01*
X-8780794Y-18573789D01*
X-8774909Y-18568366D01*
X-8465950Y-18439435D01*
X-8456995Y-18439413D01*
X-8456966Y-18439424D01*
G37*
%TD.AperFunction*%
%TD*%
%TA.AperFunction,Conductor*%
%TO.N,+3.3V*%
G36*
X-8304629Y-19728427D02*
G01*
X-8302049Y-19732330D01*
X-7951186Y-20603795D01*
X-7951275Y-20612750D01*
X-7957543Y-20618967D01*
X-8450505Y-20824128D01*
X-8459460Y-20824143D01*
X-8459497Y-20824128D01*
X-8952458Y-20618967D01*
X-8958779Y-20612624D01*
X-8958815Y-20603796D01*
X-8607952Y-19732330D01*
X-8601683Y-19725936D01*
X-8597098Y-19725000D01*
X-8312902Y-19725000D01*
X-8304629Y-19728427D01*
G37*
%TD.AperFunction*%
%TD*%
%TA.AperFunction,Conductor*%
%TO.N,+3.3V*%
G36*
X2471371Y-2103354D02*
G01*
X2476997Y-2109348D01*
X2644125Y-2510499D01*
X2644144Y-2519454D01*
X2644125Y-2519499D01*
X2477207Y-2920146D01*
X2470862Y-2926465D01*
X2462111Y-2926529D01*
X1756382Y-2647922D01*
X1749945Y-2641696D01*
X1748978Y-2637039D01*
X1748978Y-2353383D01*
X1752405Y-2345110D01*
X1756914Y-2342305D01*
X2462438Y-2102769D01*
X2471371Y-2103354D01*
G37*
%TD.AperFunction*%
%TD*%
%TA.AperFunction,Conductor*%
%TO.N,+3.3V*%
G36*
X-4540522Y-7485868D02*
G01*
X-4326109Y-7575344D01*
X-4231429Y-7614855D01*
X-4225114Y-7621204D01*
X-4224748Y-7629079D01*
X-4392466Y-8176726D01*
X-4398165Y-8183633D01*
X-4403653Y-8185000D01*
X-4686347Y-8185000D01*
X-4694620Y-8181573D01*
X-4697534Y-8176726D01*
X-4865253Y-7629079D01*
X-4864399Y-7620165D01*
X-4858573Y-7614855D01*
X-4549506Y-7485879D01*
X-4540551Y-7485857D01*
X-4540522Y-7485868D01*
G37*
%TD.AperFunction*%
%TD*%
%TA.AperFunction,Conductor*%
%TO.N,+3.3V*%
G36*
X-7364417Y-20662086D02*
G01*
X-7357966Y-20668297D01*
X-7356989Y-20672978D01*
X-7356989Y-20957186D01*
X-7360416Y-20965459D01*
X-7364206Y-20967993D01*
X-8233730Y-21328656D01*
X-8242685Y-21328661D01*
X-8249014Y-21322346D01*
X-8454129Y-20829495D01*
X-8454144Y-20820540D01*
X-8248928Y-20327446D01*
X-8242585Y-20321126D01*
X-8233855Y-20321051D01*
X-7364417Y-20662086D01*
G37*
%TD.AperFunction*%
%TD*%
%TA.AperFunction,Conductor*%
%TO.N,+3.3V*%
G36*
X-8667250Y-20321274D02*
G01*
X-8661033Y-20327542D01*
X-8455872Y-20820504D01*
X-8455857Y-20829459D01*
X-8455872Y-20829496D01*
X-8661033Y-21322457D01*
X-8667376Y-21328778D01*
X-8676205Y-21328814D01*
X-9547670Y-20977951D01*
X-9554064Y-20971683D01*
X-9555000Y-20967098D01*
X-9555000Y-20682901D01*
X-9551573Y-20674628D01*
X-9547674Y-20672050D01*
X-8676204Y-20321185D01*
X-8667250Y-20321274D01*
G37*
%TD.AperFunction*%
%TD*%
%TA.AperFunction,Conductor*%
%TO.N,+3.3V*%
G36*
X-7825300Y-19914980D02*
G01*
X-7624318Y-20115962D01*
X-7620891Y-20124235D01*
X-7621577Y-20128184D01*
X-7942729Y-21023935D01*
X-7948747Y-21030566D01*
X-7957692Y-21031000D01*
X-7958193Y-21030806D01*
X-8061605Y-20988175D01*
X-8451205Y-20827562D01*
X-8457548Y-20821241D01*
X-8457563Y-20821204D01*
X-8661293Y-20327014D01*
X-8661278Y-20318059D01*
X-8655617Y-20312046D01*
X-7838710Y-19912741D01*
X-7829773Y-19912187D01*
X-7825300Y-19914980D01*
G37*
%TD.AperFunction*%
%TD*%
%TA.AperFunction,Conductor*%
%TO.N,+3.3V*%
G36*
X-4149974Y-6890078D02*
G01*
X-3950079Y-7089973D01*
X-3946652Y-7098246D01*
X-3948019Y-7103734D01*
X-4216669Y-7609573D01*
X-4223576Y-7615272D01*
X-4231451Y-7614906D01*
X-4541192Y-7487563D01*
X-4547540Y-7481249D01*
X-4674907Y-7171449D01*
X-4674884Y-7162495D01*
X-4669575Y-7156668D01*
X-4163733Y-6888017D01*
X-4154821Y-6887164D01*
X-4149974Y-6890078D01*
G37*
%TD.AperFunction*%
%TD*%
%TA.AperFunction,Conductor*%
%TO.N,+3.3V*%
G36*
X-2800522Y-15055868D02*
G01*
X-2586109Y-15145344D01*
X-2491429Y-15184855D01*
X-2485114Y-15191204D01*
X-2484748Y-15199079D01*
X-2652466Y-15746726D01*
X-2658165Y-15753633D01*
X-2663653Y-15755000D01*
X-2946347Y-15755000D01*
X-2954620Y-15751573D01*
X-2957534Y-15746726D01*
X-3125253Y-15199079D01*
X-3124399Y-15190165D01*
X-3118573Y-15184855D01*
X-2809506Y-15055879D01*
X-2800551Y-15055857D01*
X-2800522Y-15055868D01*
G37*
%TD.AperFunction*%
%TD*%
%TA.AperFunction,Conductor*%
%TO.N,+3.3V*%
G36*
X-2655380Y-17168427D02*
G01*
X-2652466Y-17173274D01*
X-2484748Y-17720920D01*
X-2485602Y-17729834D01*
X-2491429Y-17735144D01*
X-2800494Y-17864119D01*
X-2809449Y-17864142D01*
X-2809506Y-17864119D01*
X-3118572Y-17735144D01*
X-3124887Y-17728795D01*
X-3125253Y-17720922D01*
X-2957534Y-17173273D01*
X-2951835Y-17166367D01*
X-2946347Y-17165000D01*
X-2663653Y-17165000D01*
X-2655380Y-17168427D01*
G37*
%TD.AperFunction*%
%TD*%
%TA.AperFunction,Conductor*%
%TO.N,+3.3V*%
G36*
X-14509582Y-11972905D02*
G01*
X-14503263Y-11979250D01*
X-14503092Y-11987718D01*
X-14762193Y-12697313D01*
X-14768249Y-12703909D01*
X-14773183Y-12705000D01*
X-15056817Y-12705000D01*
X-15065090Y-12701573D01*
X-15067807Y-12697313D01*
X-15326909Y-11987716D01*
X-15326528Y-11978771D01*
X-15320421Y-11972906D01*
X-14919499Y-11805873D01*
X-14910548Y-11805855D01*
X-14509582Y-11972905D01*
G37*
%TD.AperFunction*%
%TD*%
%TA.AperFunction,Conductor*%
%TO.N,/USB_Data-*%
G36*
X-20755236Y-12548427D02*
G01*
X-20752378Y-12553095D01*
X-20627348Y-12939087D01*
X-20628059Y-12948013D01*
X-20633962Y-12953485D01*
X-20850483Y-13044109D01*
X-20859437Y-13044142D01*
X-20859517Y-13044109D01*
X-21076039Y-12953485D01*
X-21082348Y-12947129D01*
X-21082653Y-12939088D01*
X-20957623Y-12553095D01*
X-20951812Y-12546280D01*
X-20946491Y-12545000D01*
X-20763509Y-12545000D01*
X-20755236Y-12548427D01*
G37*
%TD.AperFunction*%
%TD*%
%TA.AperFunction,Conductor*%
%TO.N,/USB_Data-*%
G36*
X-20633962Y-12166514D02*
G01*
X-20627653Y-12172870D01*
X-20627348Y-12180912D01*
X-20752378Y-12566905D01*
X-20758188Y-12573720D01*
X-20763509Y-12575000D01*
X-20946491Y-12575000D01*
X-20954764Y-12571573D01*
X-20957622Y-12566905D01*
X-21082653Y-12180912D01*
X-21081942Y-12171986D01*
X-21076040Y-12166514D01*
X-20859516Y-12075889D01*
X-20850563Y-12075857D01*
X-20633962Y-12166514D01*
G37*
%TD.AperFunction*%
%TD*%
%TA.AperFunction,Conductor*%
%TO.N,/INPUT1*%
G36*
X10096038Y-4326514D02*
G01*
X10102347Y-4332870D01*
X10102652Y-4340912D01*
X9977622Y-4726905D01*
X9971812Y-4733720D01*
X9966491Y-4735000D01*
X9783509Y-4735000D01*
X9775236Y-4731573D01*
X9772378Y-4726905D01*
X9647347Y-4340912D01*
X9648058Y-4331986D01*
X9653960Y-4326514D01*
X9870484Y-4235889D01*
X9879437Y-4235857D01*
X10096038Y-4326514D01*
G37*
%TD.AperFunction*%
%TD*%
%TA.AperFunction,Conductor*%
%TO.N,/INPUT1*%
G36*
X12479732Y-7954604D02*
G01*
X12841084Y-8139134D01*
X12846893Y-8145948D01*
X12846588Y-8153991D01*
X12757564Y-8371176D01*
X12751255Y-8377531D01*
X12751176Y-8377564D01*
X12533991Y-8466588D01*
X12525036Y-8466555D01*
X12519134Y-8461084D01*
X12334604Y-8099733D01*
X12333894Y-8090808D01*
X12336750Y-8086142D01*
X12466141Y-7956751D01*
X12474413Y-7953325D01*
X12479732Y-7954604D01*
G37*
%TD.AperFunction*%
%TD*%
%TA.AperFunction,Conductor*%
%TO.N,/INPUT2*%
G36*
X12459732Y-9424604D02*
G01*
X12821084Y-9609134D01*
X12826893Y-9615948D01*
X12826588Y-9623991D01*
X12737564Y-9841176D01*
X12731255Y-9847531D01*
X12731176Y-9847564D01*
X12513991Y-9936588D01*
X12505036Y-9936555D01*
X12499134Y-9931084D01*
X12314604Y-9569733D01*
X12313894Y-9560808D01*
X12316750Y-9556142D01*
X12446141Y-9426751D01*
X12454413Y-9423325D01*
X12459732Y-9424604D01*
G37*
%TD.AperFunction*%
%TD*%
%TA.AperFunction,Conductor*%
%TO.N,/INPUT2*%
G36*
X8566038Y-4326514D02*
G01*
X8572347Y-4332870D01*
X8572652Y-4340912D01*
X8447622Y-4726905D01*
X8441812Y-4733720D01*
X8436491Y-4735000D01*
X8253509Y-4735000D01*
X8245236Y-4731573D01*
X8242378Y-4726905D01*
X8117347Y-4340912D01*
X8118058Y-4331986D01*
X8123960Y-4326514D01*
X8340484Y-4235889D01*
X8349437Y-4235857D01*
X8566038Y-4326514D01*
G37*
%TD.AperFunction*%
%TD*%
%TA.AperFunction,Conductor*%
%TO.N,/INPUT3*%
G36*
X12489732Y-10874604D02*
G01*
X12851084Y-11059134D01*
X12856893Y-11065948D01*
X12856588Y-11073991D01*
X12767564Y-11291176D01*
X12761255Y-11297531D01*
X12761176Y-11297564D01*
X12543991Y-11386588D01*
X12535036Y-11386555D01*
X12529134Y-11381084D01*
X12344604Y-11019733D01*
X12343894Y-11010808D01*
X12346750Y-11006142D01*
X12476141Y-10876751D01*
X12484413Y-10873325D01*
X12489732Y-10874604D01*
G37*
%TD.AperFunction*%
%TD*%
%TA.AperFunction,Conductor*%
%TO.N,/INPUT3*%
G36*
X7026038Y-4326514D02*
G01*
X7032347Y-4332870D01*
X7032652Y-4340912D01*
X6907622Y-4726905D01*
X6901812Y-4733720D01*
X6896491Y-4735000D01*
X6713509Y-4735000D01*
X6705236Y-4731573D01*
X6702378Y-4726905D01*
X6577347Y-4340912D01*
X6578058Y-4331986D01*
X6583960Y-4326514D01*
X6800484Y-4235889D01*
X6809437Y-4235857D01*
X7026038Y-4326514D01*
G37*
%TD.AperFunction*%
%TD*%
%TA.AperFunction,Conductor*%
%TO.N,/INPUT4*%
G36*
X12494732Y-12349604D02*
G01*
X12856084Y-12534134D01*
X12861893Y-12540948D01*
X12861588Y-12548991D01*
X12772564Y-12766176D01*
X12766255Y-12772531D01*
X12766176Y-12772564D01*
X12548991Y-12861588D01*
X12540036Y-12861555D01*
X12534134Y-12856084D01*
X12349604Y-12494733D01*
X12348894Y-12485808D01*
X12351750Y-12481142D01*
X12481141Y-12351751D01*
X12489413Y-12348325D01*
X12494732Y-12349604D01*
G37*
%TD.AperFunction*%
%TD*%
%TA.AperFunction,Conductor*%
%TO.N,/INPUT4*%
G36*
X5506038Y-4326514D02*
G01*
X5512347Y-4332870D01*
X5512652Y-4340912D01*
X5387622Y-4726905D01*
X5381812Y-4733720D01*
X5376491Y-4735000D01*
X5193509Y-4735000D01*
X5185236Y-4731573D01*
X5182378Y-4726905D01*
X5057347Y-4340912D01*
X5058058Y-4331986D01*
X5063960Y-4326514D01*
X5280484Y-4235889D01*
X5289437Y-4235857D01*
X5506038Y-4326514D01*
G37*
%TD.AperFunction*%
%TD*%
%TA.AperFunction,Conductor*%
%TO.N,Net-(USB1-CC1)*%
G36*
X-18735236Y-11068427D02*
G01*
X-18732378Y-11073095D01*
X-18607348Y-11459087D01*
X-18608059Y-11468013D01*
X-18613962Y-11473485D01*
X-18830483Y-11564109D01*
X-18839437Y-11564142D01*
X-18839517Y-11564109D01*
X-19056039Y-11473485D01*
X-19062348Y-11467129D01*
X-19062653Y-11459088D01*
X-18937623Y-11073095D01*
X-18931812Y-11066280D01*
X-18926491Y-11065000D01*
X-18743509Y-11065000D01*
X-18735236Y-11068427D01*
G37*
%TD.AperFunction*%
%TD*%
%TA.AperFunction,Conductor*%
%TO.N,Net-(USB1-CC1)*%
G36*
X-20355037Y-5883444D02*
G01*
X-20349134Y-5888916D01*
X-20164606Y-6250265D01*
X-20163895Y-6259191D01*
X-20166753Y-6263859D01*
X-20296141Y-6393247D01*
X-20304414Y-6396674D01*
X-20309735Y-6395394D01*
X-20579092Y-6257843D01*
X-20671085Y-6210865D01*
X-20676894Y-6204051D01*
X-20676590Y-6196011D01*
X-20587564Y-5978821D01*
X-20581257Y-5972468D01*
X-20363989Y-5883411D01*
X-20355037Y-5883444D01*
G37*
%TD.AperFunction*%
%TD*%
%TA.AperFunction,Conductor*%
%TO.N,Net-(USB1-CC2)*%
G36*
X-18613962Y-14641514D02*
G01*
X-18607653Y-14647870D01*
X-18607348Y-14655912D01*
X-18732378Y-15041905D01*
X-18738188Y-15048720D01*
X-18743509Y-15050000D01*
X-18926491Y-15050000D01*
X-18934764Y-15046573D01*
X-18937622Y-15041905D01*
X-19062653Y-14655912D01*
X-19061942Y-14646986D01*
X-19056040Y-14641514D01*
X-18839516Y-14550889D01*
X-18830563Y-14550857D01*
X-18613962Y-14641514D01*
G37*
%TD.AperFunction*%
%TD*%
%TA.AperFunction,Conductor*%
%TO.N,Net-(USB1-CC2)*%
G36*
X-17750268Y-19084604D02*
G01*
X-17388916Y-19269134D01*
X-17383107Y-19275948D01*
X-17383412Y-19283991D01*
X-17472436Y-19501176D01*
X-17478745Y-19507531D01*
X-17478824Y-19507564D01*
X-17696009Y-19596588D01*
X-17704964Y-19596555D01*
X-17710866Y-19591084D01*
X-17895396Y-19229733D01*
X-17896106Y-19220808D01*
X-17893250Y-19216142D01*
X-17763859Y-19086751D01*
X-17755587Y-19083325D01*
X-17750268Y-19084604D01*
G37*
%TD.AperFunction*%
%TD*%
M02*
