%TF.GenerationSoftware,KiCad,Pcbnew,7.0.9*%
%TF.CreationDate,2024-01-11T17:12:29+08:00*%
%TF.ProjectId,UINIO-Logic-24MHz,55494e49-4f2d-44c6-9f67-69632d32344d,Version 3.1.1*%
%TF.SameCoordinates,PX7aa95e0PY587b5e0*%
%TF.FileFunction,Legend,Bot*%
%TF.FilePolarity,Positive*%
%FSLAX46Y46*%
G04 Gerber Fmt 4.6, Leading zero omitted, Abs format (unit mm)*
G04 Created by KiCad (PCBNEW 7.0.9) date 2024-01-11 17:12:29*
%MOMM*%
%LPD*%
G01*
G04 APERTURE LIST*
%ADD10C,0.325000*%
%ADD11C,0.300000*%
%ADD12C,0.200000*%
%ADD13C,0.100000*%
%ADD14C,2.200000*%
%ADD15C,0.650000*%
%ADD16O,2.100000X1.000000*%
%ADD17O,1.900000X1.000000*%
%ADD18R,1.700000X1.700000*%
%ADD19O,1.700000X1.700000*%
G04 APERTURE END LIST*
D10*
G36*
X27970785Y-19111699D02*
G01*
X27612114Y-18077819D01*
X27200687Y-18077819D01*
X27759759Y-19555000D01*
X28181810Y-19555000D01*
X28741249Y-18077819D01*
X28329455Y-18077819D01*
X27970785Y-19111699D01*
G37*
G36*
X26890109Y-18415957D02*
G01*
X26909090Y-18417009D01*
X26927535Y-18418762D01*
X26945445Y-18421217D01*
X26962821Y-18424372D01*
X26979660Y-18428229D01*
X26995965Y-18432787D01*
X27011734Y-18438046D01*
X27026969Y-18444007D01*
X27041668Y-18450669D01*
X27055831Y-18458032D01*
X27069460Y-18466096D01*
X27082553Y-18474862D01*
X27095111Y-18484329D01*
X27107134Y-18494497D01*
X27118621Y-18505366D01*
X27129491Y-18516809D01*
X27139659Y-18528790D01*
X27149125Y-18541310D01*
X27157891Y-18554367D01*
X27165955Y-18567963D01*
X27173318Y-18582096D01*
X27179980Y-18596768D01*
X27185941Y-18611978D01*
X27191200Y-18627726D01*
X27195758Y-18644012D01*
X27199615Y-18660836D01*
X27202771Y-18678198D01*
X27205225Y-18696099D01*
X27206978Y-18714537D01*
X27208030Y-18733513D01*
X27208381Y-18753028D01*
X27208381Y-19259710D01*
X27208043Y-19277396D01*
X27207030Y-19294640D01*
X27205341Y-19311445D01*
X27202977Y-19327808D01*
X27199937Y-19343730D01*
X27196222Y-19359212D01*
X27191831Y-19374253D01*
X27186765Y-19388853D01*
X27181023Y-19403013D01*
X27174606Y-19416731D01*
X27167514Y-19430009D01*
X27159746Y-19442846D01*
X27151302Y-19455243D01*
X27142183Y-19467198D01*
X27132389Y-19478713D01*
X27121919Y-19489787D01*
X27110845Y-19500257D01*
X27099330Y-19510051D01*
X27087374Y-19519170D01*
X27074978Y-19527614D01*
X27062141Y-19535382D01*
X27048863Y-19542474D01*
X27035145Y-19548892D01*
X27020985Y-19554633D01*
X27006385Y-19559699D01*
X26991344Y-19564090D01*
X26975862Y-19567805D01*
X26959940Y-19570845D01*
X26943576Y-19573209D01*
X26926772Y-19574898D01*
X26909527Y-19575911D01*
X26891842Y-19576249D01*
X26871046Y-19576207D01*
X26850102Y-19576083D01*
X26829011Y-19575875D01*
X26807773Y-19575585D01*
X26786387Y-19575211D01*
X26764854Y-19574755D01*
X26743173Y-19574215D01*
X26721345Y-19573592D01*
X26699370Y-19572887D01*
X26677247Y-19572098D01*
X26654977Y-19571227D01*
X26632559Y-19570272D01*
X26609994Y-19569235D01*
X26587281Y-19568114D01*
X26564422Y-19566911D01*
X26541414Y-19565624D01*
X26518260Y-19564254D01*
X26494958Y-19562802D01*
X26471508Y-19561266D01*
X26447911Y-19559648D01*
X26424167Y-19557946D01*
X26400275Y-19556162D01*
X26376236Y-19554294D01*
X26352050Y-19552343D01*
X26327716Y-19550310D01*
X26303235Y-19548193D01*
X26278606Y-19545994D01*
X26253830Y-19543711D01*
X26228906Y-19541345D01*
X26203835Y-19538897D01*
X26178617Y-19536365D01*
X26153251Y-19533750D01*
X26153251Y-19269968D01*
X26178249Y-19271929D01*
X26202868Y-19273828D01*
X26227107Y-19275664D01*
X26250968Y-19277438D01*
X26274449Y-19279150D01*
X26297550Y-19280800D01*
X26320273Y-19282388D01*
X26342616Y-19283913D01*
X26364580Y-19285376D01*
X26386165Y-19286776D01*
X26407370Y-19288115D01*
X26428196Y-19289391D01*
X26448643Y-19290605D01*
X26468711Y-19291757D01*
X26488400Y-19292846D01*
X26507709Y-19293873D01*
X26526639Y-19294838D01*
X26545190Y-19295741D01*
X26563361Y-19296581D01*
X26581153Y-19297360D01*
X26598566Y-19298075D01*
X26615600Y-19298729D01*
X26632255Y-19299321D01*
X26648530Y-19299850D01*
X26664426Y-19300317D01*
X26679943Y-19300721D01*
X26695081Y-19301064D01*
X26709839Y-19301344D01*
X26738218Y-19301717D01*
X26765080Y-19301842D01*
X26774675Y-19301332D01*
X26790685Y-19297845D01*
X26805072Y-19291054D01*
X26817836Y-19280959D01*
X26825058Y-19272617D01*
X26833088Y-19258703D01*
X26837757Y-19243109D01*
X26839085Y-19227836D01*
X26839085Y-19143572D01*
X26110753Y-19143572D01*
X26110753Y-18879790D01*
X26480048Y-18879790D01*
X26839085Y-18879790D01*
X26839085Y-18763653D01*
X26839003Y-18758468D01*
X26837019Y-18739377D01*
X26832391Y-18722920D01*
X26825118Y-18709095D01*
X26815200Y-18697904D01*
X26802638Y-18689346D01*
X26787431Y-18683421D01*
X26769580Y-18680129D01*
X26754455Y-18679389D01*
X26564678Y-18679389D01*
X26559472Y-18679471D01*
X26540298Y-18681446D01*
X26523768Y-18686054D01*
X26509884Y-18693296D01*
X26498644Y-18703170D01*
X26490049Y-18715678D01*
X26484098Y-18730819D01*
X26480792Y-18748594D01*
X26480048Y-18763653D01*
X26480048Y-18879790D01*
X26110753Y-18879790D01*
X26110753Y-18753028D01*
X26111104Y-18733513D01*
X26112156Y-18714537D01*
X26113909Y-18696099D01*
X26116363Y-18678198D01*
X26119519Y-18660836D01*
X26123376Y-18644012D01*
X26127934Y-18627726D01*
X26133193Y-18611978D01*
X26139154Y-18596768D01*
X26145815Y-18582096D01*
X26153178Y-18567963D01*
X26161243Y-18554367D01*
X26170008Y-18541310D01*
X26179475Y-18528790D01*
X26189643Y-18516809D01*
X26200512Y-18505366D01*
X26212000Y-18494497D01*
X26224023Y-18484329D01*
X26236581Y-18474862D01*
X26249674Y-18466096D01*
X26263302Y-18458032D01*
X26277466Y-18450669D01*
X26292165Y-18444007D01*
X26307399Y-18438046D01*
X26323169Y-18432787D01*
X26339473Y-18428229D01*
X26356313Y-18424372D01*
X26373688Y-18421217D01*
X26391599Y-18418762D01*
X26410044Y-18417009D01*
X26429025Y-18415957D01*
X26448541Y-18415607D01*
X26870593Y-18415607D01*
X26890109Y-18415957D01*
G37*
G36*
X25284602Y-18742404D02*
G01*
X25301258Y-18742651D01*
X25317981Y-18743394D01*
X25334769Y-18744632D01*
X25351623Y-18746365D01*
X25368544Y-18748593D01*
X25385529Y-18751317D01*
X25402581Y-18754535D01*
X25419699Y-18758249D01*
X25436882Y-18762458D01*
X25454131Y-18767162D01*
X25471446Y-18772361D01*
X25488827Y-18778055D01*
X25506274Y-18784245D01*
X25523786Y-18790930D01*
X25541364Y-18798110D01*
X25559009Y-18805785D01*
X25559009Y-19555000D01*
X25928304Y-19555000D01*
X25928304Y-18436489D01*
X25601140Y-18436489D01*
X25580258Y-18573876D01*
X25568884Y-18564139D01*
X25557479Y-18554711D01*
X25534571Y-18536782D01*
X25511534Y-18520089D01*
X25488369Y-18504633D01*
X25465075Y-18490414D01*
X25441652Y-18477431D01*
X25418100Y-18465684D01*
X25394419Y-18455174D01*
X25370610Y-18445900D01*
X25346672Y-18437863D01*
X25322605Y-18431063D01*
X25298409Y-18425498D01*
X25274085Y-18421171D01*
X25249631Y-18418080D01*
X25225049Y-18416225D01*
X25200338Y-18415607D01*
X25105450Y-18415607D01*
X25105450Y-18742404D01*
X25284602Y-18742404D01*
G37*
G36*
X25004699Y-19259710D02*
G01*
X24978109Y-19261648D01*
X24951873Y-19263525D01*
X24925991Y-19265341D01*
X24900463Y-19267094D01*
X24875289Y-19268787D01*
X24850470Y-19270417D01*
X24826005Y-19271987D01*
X24801894Y-19273494D01*
X24778137Y-19274940D01*
X24754735Y-19276325D01*
X24731686Y-19277648D01*
X24708992Y-19278910D01*
X24686652Y-19280110D01*
X24664666Y-19281248D01*
X24643035Y-19282325D01*
X24621757Y-19283340D01*
X24600834Y-19284294D01*
X24580265Y-19285187D01*
X24560050Y-19286017D01*
X24540190Y-19286787D01*
X24520683Y-19287494D01*
X24501531Y-19288140D01*
X24482733Y-19288725D01*
X24464289Y-19289248D01*
X24446200Y-19289710D01*
X24428464Y-19290110D01*
X24411083Y-19290448D01*
X24394056Y-19290725D01*
X24377383Y-19290940D01*
X24361065Y-19291094D01*
X24345100Y-19291186D01*
X24329490Y-19291217D01*
X24314378Y-19289912D01*
X24298909Y-19285324D01*
X24285063Y-19277431D01*
X24276734Y-19270334D01*
X24266462Y-19257541D01*
X24259552Y-19243068D01*
X24256232Y-19228791D01*
X24255484Y-19217212D01*
X24255484Y-19143572D01*
X24709410Y-19143572D01*
X24727095Y-19143235D01*
X24744340Y-19142221D01*
X24761144Y-19140533D01*
X24777508Y-19138169D01*
X24793430Y-19135129D01*
X24808912Y-19131414D01*
X24823953Y-19127023D01*
X24838553Y-19121957D01*
X24852713Y-19116215D01*
X24866431Y-19109798D01*
X24879709Y-19102706D01*
X24892546Y-19094938D01*
X24904942Y-19086494D01*
X24916898Y-19077375D01*
X24928413Y-19067580D01*
X24939487Y-19057110D01*
X24949957Y-19046037D01*
X24959751Y-19034522D01*
X24968870Y-19022566D01*
X24977314Y-19010170D01*
X24985082Y-18997333D01*
X24992174Y-18984055D01*
X24998591Y-18970337D01*
X25004333Y-18956177D01*
X25009399Y-18941577D01*
X25013790Y-18926536D01*
X25017505Y-18911054D01*
X25020545Y-18895132D01*
X25022909Y-18878768D01*
X25024598Y-18861964D01*
X25025611Y-18844719D01*
X25025949Y-18827034D01*
X25025949Y-18753028D01*
X25025611Y-18735344D01*
X25024598Y-18718103D01*
X25022909Y-18701306D01*
X25020545Y-18684953D01*
X25017505Y-18669043D01*
X25013790Y-18653577D01*
X25009399Y-18638555D01*
X25004333Y-18623976D01*
X24998591Y-18609841D01*
X24992174Y-18596150D01*
X24985082Y-18582902D01*
X24977314Y-18570098D01*
X24968870Y-18557737D01*
X24959751Y-18545820D01*
X24949957Y-18534347D01*
X24939487Y-18523318D01*
X24928413Y-18512803D01*
X24916898Y-18502967D01*
X24904942Y-18493810D01*
X24892546Y-18485330D01*
X24879709Y-18477529D01*
X24866431Y-18470407D01*
X24852713Y-18463962D01*
X24838553Y-18458196D01*
X24823953Y-18453109D01*
X24808912Y-18448700D01*
X24793430Y-18444969D01*
X24777508Y-18441916D01*
X24761144Y-18439542D01*
X24744340Y-18437846D01*
X24727095Y-18436829D01*
X24709410Y-18436489D01*
X23991702Y-18436489D01*
X23991702Y-18710896D01*
X24582648Y-18710896D01*
X24597921Y-18712224D01*
X24613515Y-18716893D01*
X24627429Y-18724924D01*
X24635771Y-18732145D01*
X24645865Y-18744761D01*
X24652656Y-18759116D01*
X24656144Y-18775210D01*
X24656653Y-18784902D01*
X24655348Y-18800014D01*
X24650760Y-18815483D01*
X24642867Y-18829329D01*
X24635771Y-18837658D01*
X24622978Y-18847753D01*
X24608504Y-18854544D01*
X24592349Y-18858031D01*
X24582648Y-18858541D01*
X24202728Y-18858541D01*
X24185044Y-18858880D01*
X24167803Y-18859898D01*
X24151006Y-18861594D01*
X24134653Y-18863968D01*
X24118743Y-18867020D01*
X24103277Y-18870751D01*
X24088255Y-18875161D01*
X24073676Y-18880248D01*
X24059541Y-18886014D01*
X24045850Y-18892458D01*
X24032602Y-18899581D01*
X24019798Y-18907382D01*
X24007437Y-18915861D01*
X23995520Y-18925019D01*
X23984047Y-18934855D01*
X23973018Y-18945369D01*
X23962503Y-18956399D01*
X23952667Y-18967872D01*
X23943510Y-18979789D01*
X23935030Y-18992149D01*
X23927229Y-19004954D01*
X23920107Y-19018201D01*
X23913662Y-19031893D01*
X23907896Y-19046028D01*
X23902809Y-19060607D01*
X23898400Y-19075629D01*
X23894669Y-19091095D01*
X23891616Y-19107005D01*
X23889242Y-19123358D01*
X23887546Y-19140155D01*
X23886528Y-19157396D01*
X23886189Y-19175080D01*
X23886189Y-19259710D01*
X23886528Y-19277396D01*
X23887546Y-19294640D01*
X23889242Y-19311445D01*
X23891616Y-19327808D01*
X23894669Y-19343730D01*
X23898400Y-19359212D01*
X23902809Y-19374253D01*
X23907896Y-19388853D01*
X23913662Y-19403013D01*
X23920107Y-19416731D01*
X23927229Y-19430009D01*
X23935030Y-19442846D01*
X23943510Y-19455243D01*
X23952667Y-19467198D01*
X23962503Y-19478713D01*
X23973018Y-19489787D01*
X23984047Y-19500257D01*
X23995520Y-19510051D01*
X24007437Y-19519170D01*
X24019798Y-19527614D01*
X24032602Y-19535382D01*
X24045850Y-19542474D01*
X24059541Y-19548892D01*
X24073676Y-19554633D01*
X24088255Y-19559699D01*
X24103277Y-19564090D01*
X24118743Y-19567805D01*
X24134653Y-19570845D01*
X24151006Y-19573209D01*
X24167803Y-19574898D01*
X24185044Y-19575911D01*
X24202728Y-19576249D01*
X24226137Y-19576207D01*
X24249653Y-19576083D01*
X24273275Y-19575875D01*
X24297004Y-19575585D01*
X24320839Y-19575211D01*
X24344781Y-19574755D01*
X24368830Y-19574215D01*
X24392986Y-19573592D01*
X24417248Y-19572887D01*
X24441616Y-19572098D01*
X24466091Y-19571227D01*
X24490673Y-19570272D01*
X24515362Y-19569235D01*
X24540157Y-19568114D01*
X24565058Y-19566911D01*
X24590067Y-19565624D01*
X24615182Y-19564254D01*
X24640403Y-19562802D01*
X24665731Y-19561266D01*
X24691166Y-19559648D01*
X24716707Y-19557946D01*
X24742355Y-19556162D01*
X24768110Y-19554294D01*
X24793971Y-19552343D01*
X24819939Y-19550310D01*
X24846014Y-19548193D01*
X24872195Y-19545994D01*
X24898482Y-19543711D01*
X24924877Y-19541345D01*
X24951378Y-19538897D01*
X24977985Y-19536365D01*
X25004699Y-19533750D01*
X25004699Y-19259710D01*
G37*
G36*
X23301106Y-18478621D02*
G01*
X23301106Y-19555000D01*
X23670401Y-19555000D01*
X23670401Y-18763653D01*
X23828670Y-18763653D01*
X23828670Y-18478621D01*
X23301106Y-18478621D01*
G37*
G36*
X23670401Y-18056570D02*
G01*
X23301106Y-18056570D01*
X23301106Y-18352226D01*
X23670401Y-18352226D01*
X23670401Y-18056570D01*
G37*
G36*
X22797087Y-18415957D02*
G01*
X22816068Y-18417009D01*
X22834513Y-18418762D01*
X22852424Y-18421217D01*
X22869799Y-18424372D01*
X22886639Y-18428229D01*
X22902943Y-18432787D01*
X22918713Y-18438046D01*
X22933947Y-18444007D01*
X22948646Y-18450669D01*
X22962810Y-18458032D01*
X22976438Y-18466096D01*
X22989531Y-18474862D01*
X23002089Y-18484329D01*
X23014112Y-18494497D01*
X23025600Y-18505366D01*
X23036469Y-18516809D01*
X23046637Y-18528790D01*
X23056104Y-18541310D01*
X23064869Y-18554367D01*
X23072934Y-18567963D01*
X23080297Y-18582096D01*
X23086958Y-18596768D01*
X23092919Y-18611978D01*
X23098178Y-18627726D01*
X23102736Y-18644012D01*
X23106593Y-18660836D01*
X23109749Y-18678198D01*
X23112203Y-18696099D01*
X23113956Y-18714537D01*
X23115008Y-18733513D01*
X23115359Y-18753028D01*
X23115359Y-19238461D01*
X23115008Y-19257977D01*
X23113956Y-19276958D01*
X23112203Y-19295403D01*
X23109749Y-19313314D01*
X23106593Y-19330689D01*
X23102736Y-19347529D01*
X23098178Y-19363833D01*
X23092919Y-19379603D01*
X23086958Y-19394837D01*
X23080297Y-19409536D01*
X23072934Y-19423699D01*
X23064869Y-19437328D01*
X23056104Y-19450421D01*
X23046637Y-19462979D01*
X23036469Y-19475002D01*
X23025600Y-19486489D01*
X23014112Y-19497359D01*
X23002089Y-19507527D01*
X22989531Y-19516994D01*
X22976438Y-19525759D01*
X22962810Y-19533823D01*
X22948646Y-19541186D01*
X22933947Y-19547848D01*
X22918713Y-19553809D01*
X22902943Y-19559068D01*
X22886639Y-19563626D01*
X22869799Y-19567483D01*
X22852424Y-19570639D01*
X22834513Y-19573093D01*
X22816068Y-19574846D01*
X22797087Y-19575898D01*
X22777571Y-19576249D01*
X22292138Y-19576249D01*
X22272624Y-19575898D01*
X22253647Y-19574846D01*
X22235209Y-19573093D01*
X22217308Y-19570639D01*
X22199946Y-19567483D01*
X22183122Y-19563626D01*
X22166836Y-19559068D01*
X22151088Y-19553809D01*
X22135878Y-19547848D01*
X22121207Y-19541186D01*
X22107073Y-19533823D01*
X22093477Y-19525759D01*
X22080420Y-19516994D01*
X22067901Y-19507527D01*
X22055919Y-19497359D01*
X22044476Y-19486489D01*
X22033607Y-19475002D01*
X22023439Y-19462979D01*
X22013972Y-19450421D01*
X22005206Y-19437328D01*
X21997142Y-19423699D01*
X21989779Y-19409536D01*
X21983117Y-19394837D01*
X21977157Y-19379603D01*
X21971897Y-19363833D01*
X21967339Y-19347529D01*
X21963482Y-19330689D01*
X21960327Y-19313314D01*
X21957872Y-19295403D01*
X21956119Y-19276958D01*
X21955067Y-19257977D01*
X21954717Y-19238461D01*
X21954717Y-19206953D01*
X22324012Y-19206953D01*
X22324094Y-19212138D01*
X22326069Y-19231229D01*
X22330677Y-19247686D01*
X22337919Y-19261511D01*
X22347794Y-19272702D01*
X22360301Y-19281260D01*
X22375443Y-19287185D01*
X22393217Y-19290477D01*
X22408276Y-19291217D01*
X22661434Y-19291217D01*
X22666640Y-19291135D01*
X22685814Y-19289160D01*
X22702344Y-19284552D01*
X22716228Y-19277310D01*
X22727468Y-19267436D01*
X22736063Y-19254928D01*
X22742014Y-19239787D01*
X22745320Y-19222012D01*
X22746064Y-19206953D01*
X22746064Y-18784902D01*
X22745981Y-18779695D01*
X22743998Y-18760521D01*
X22739369Y-18743992D01*
X22732096Y-18730107D01*
X22722179Y-18718867D01*
X22709617Y-18710272D01*
X22694410Y-18704321D01*
X22676558Y-18701015D01*
X22661434Y-18700272D01*
X22408276Y-18700272D01*
X22403092Y-18700354D01*
X22384001Y-18702338D01*
X22367543Y-18706966D01*
X22353718Y-18714239D01*
X22342527Y-18724157D01*
X22333969Y-18736719D01*
X22328044Y-18751926D01*
X22324753Y-18769777D01*
X22324012Y-18784902D01*
X22324012Y-19206953D01*
X21954717Y-19206953D01*
X21954717Y-18753028D01*
X21955067Y-18733513D01*
X21956119Y-18714537D01*
X21957872Y-18696099D01*
X21960327Y-18678198D01*
X21963482Y-18660836D01*
X21967339Y-18644012D01*
X21971897Y-18627726D01*
X21977157Y-18611978D01*
X21983117Y-18596768D01*
X21989779Y-18582096D01*
X21997142Y-18567963D01*
X22005206Y-18554367D01*
X22013972Y-18541310D01*
X22023439Y-18528790D01*
X22033607Y-18516809D01*
X22044476Y-18505366D01*
X22055919Y-18494497D01*
X22067901Y-18484329D01*
X22080420Y-18474862D01*
X22093477Y-18466096D01*
X22107073Y-18458032D01*
X22121207Y-18450669D01*
X22135878Y-18444007D01*
X22151088Y-18438046D01*
X22166836Y-18432787D01*
X22183122Y-18428229D01*
X22199946Y-18424372D01*
X22217308Y-18421217D01*
X22235209Y-18418762D01*
X22253647Y-18417009D01*
X22272624Y-18415957D01*
X22292138Y-18415607D01*
X22777571Y-18415607D01*
X22797087Y-18415957D01*
G37*
G36*
X21149815Y-18721521D02*
G01*
X21171027Y-18721891D01*
X21192761Y-18723002D01*
X21207540Y-18724154D01*
X21222551Y-18725635D01*
X21237794Y-18727446D01*
X21253268Y-18729585D01*
X21268975Y-18732054D01*
X21284913Y-18734852D01*
X21301083Y-18737979D01*
X21317485Y-18741435D01*
X21334119Y-18745220D01*
X21350984Y-18749334D01*
X21368082Y-18753778D01*
X21385411Y-18758551D01*
X21402972Y-18763653D01*
X21402972Y-19555000D01*
X21772267Y-19555000D01*
X21772267Y-18436489D01*
X21445104Y-18436489D01*
X21424221Y-18542002D01*
X21411791Y-18533987D01*
X21399320Y-18526243D01*
X21380539Y-18515137D01*
X21361668Y-18504643D01*
X21342706Y-18494761D01*
X21323654Y-18485491D01*
X21304513Y-18476832D01*
X21285281Y-18468785D01*
X21265958Y-18461350D01*
X21246546Y-18454527D01*
X21227044Y-18448316D01*
X21220523Y-18446381D01*
X21201232Y-18440881D01*
X21182514Y-18435923D01*
X21164369Y-18431505D01*
X21146798Y-18427628D01*
X21129799Y-18424292D01*
X21113374Y-18421497D01*
X21097522Y-18419243D01*
X21082243Y-18417530D01*
X21067538Y-18416358D01*
X21048821Y-18415637D01*
X21044302Y-18415607D01*
X20949413Y-18415607D01*
X20931685Y-18415944D01*
X20914403Y-18416958D01*
X20897567Y-18418646D01*
X20881178Y-18421010D01*
X20865235Y-18424050D01*
X20849739Y-18427765D01*
X20834690Y-18432156D01*
X20820087Y-18437222D01*
X20805930Y-18442964D01*
X20792220Y-18449381D01*
X20778957Y-18456473D01*
X20766140Y-18464241D01*
X20753769Y-18472685D01*
X20741845Y-18481804D01*
X20730368Y-18491599D01*
X20719337Y-18502069D01*
X20708867Y-18513100D01*
X20699072Y-18524577D01*
X20689953Y-18536501D01*
X20681509Y-18548872D01*
X20673741Y-18561689D01*
X20666649Y-18574952D01*
X20660232Y-18588662D01*
X20654490Y-18602819D01*
X20649424Y-18617422D01*
X20645033Y-18632471D01*
X20641318Y-18647967D01*
X20638278Y-18663910D01*
X20635914Y-18680299D01*
X20634226Y-18697135D01*
X20633212Y-18714417D01*
X20632875Y-18732145D01*
X20632875Y-19555000D01*
X21002170Y-19555000D01*
X21002170Y-18795160D01*
X21003498Y-18780070D01*
X21008167Y-18764682D01*
X21016198Y-18750974D01*
X21023419Y-18742770D01*
X21036006Y-18732498D01*
X21050274Y-18725588D01*
X21066222Y-18722040D01*
X21075809Y-18721521D01*
X21149815Y-18721521D01*
G37*
G36*
X19102937Y-19576249D02*
G01*
X19125039Y-19576207D01*
X19147289Y-19576083D01*
X19169687Y-19575875D01*
X19192233Y-19575585D01*
X19214927Y-19575211D01*
X19237769Y-19574755D01*
X19260760Y-19574215D01*
X19283898Y-19573592D01*
X19307185Y-19572887D01*
X19330620Y-19572098D01*
X19354203Y-19571227D01*
X19377934Y-19570272D01*
X19401813Y-19569235D01*
X19425840Y-19568114D01*
X19450016Y-19566911D01*
X19474339Y-19565624D01*
X19498811Y-19564254D01*
X19523431Y-19562802D01*
X19548198Y-19561266D01*
X19573114Y-19559648D01*
X19598179Y-19557946D01*
X19623391Y-19556162D01*
X19648751Y-19554294D01*
X19674260Y-19552343D01*
X19699916Y-19550310D01*
X19725721Y-19548193D01*
X19751674Y-19545994D01*
X19777775Y-19543711D01*
X19804024Y-19541345D01*
X19830421Y-19538897D01*
X19856966Y-19536365D01*
X19883660Y-19533750D01*
X19883660Y-19249085D01*
X19854742Y-19251024D01*
X19826285Y-19252901D01*
X19798290Y-19254716D01*
X19770756Y-19256470D01*
X19743685Y-19258162D01*
X19717074Y-19259793D01*
X19690925Y-19261362D01*
X19665238Y-19262870D01*
X19640012Y-19264316D01*
X19615248Y-19265701D01*
X19590945Y-19267024D01*
X19567104Y-19268285D01*
X19543724Y-19269485D01*
X19520806Y-19270624D01*
X19498349Y-19271700D01*
X19476354Y-19272716D01*
X19454821Y-19273670D01*
X19433749Y-19274562D01*
X19413138Y-19275393D01*
X19392989Y-19276162D01*
X19373302Y-19276870D01*
X19354076Y-19277516D01*
X19335311Y-19278100D01*
X19317009Y-19278623D01*
X19299167Y-19279085D01*
X19281788Y-19279485D01*
X19264869Y-19279823D01*
X19248413Y-19280100D01*
X19232417Y-19280316D01*
X19216884Y-19280470D01*
X19201812Y-19280562D01*
X19187201Y-19280593D01*
X19169762Y-19279601D01*
X19153713Y-19276626D01*
X19139056Y-19271667D01*
X19125789Y-19264725D01*
X19113914Y-19255799D01*
X19110265Y-19252383D01*
X19100553Y-19240958D01*
X19092851Y-19228117D01*
X19087158Y-19213859D01*
X19083474Y-19198184D01*
X19081800Y-19181092D01*
X19081688Y-19175080D01*
X19081688Y-19090816D01*
X19082183Y-19075466D01*
X19084783Y-19054298D01*
X19089611Y-19035358D01*
X19096667Y-19018646D01*
X19105951Y-19004162D01*
X19117464Y-18991907D01*
X19131205Y-18981880D01*
X19147174Y-18974081D01*
X19165371Y-18968510D01*
X19185797Y-18965168D01*
X19200651Y-18964178D01*
X19208450Y-18964054D01*
X19651385Y-18964054D01*
X19651385Y-18668764D01*
X19250582Y-18668764D01*
X19235232Y-18668269D01*
X19214064Y-18665670D01*
X19195124Y-18660842D01*
X19178412Y-18653786D01*
X19163928Y-18644501D01*
X19151673Y-18632989D01*
X19141646Y-18619248D01*
X19133847Y-18603279D01*
X19128277Y-18585082D01*
X19124934Y-18564656D01*
X19123944Y-18549801D01*
X19123820Y-18542002D01*
X19123820Y-18499870D01*
X19124315Y-18484520D01*
X19126915Y-18463352D01*
X19131743Y-18444412D01*
X19138799Y-18427700D01*
X19148083Y-18413217D01*
X19159596Y-18400961D01*
X19173337Y-18390934D01*
X19189306Y-18383135D01*
X19207503Y-18377565D01*
X19227928Y-18374222D01*
X19242783Y-18373232D01*
X19250582Y-18373108D01*
X19862411Y-18373108D01*
X19862411Y-18077819D01*
X19145069Y-18077819D01*
X19119624Y-18078187D01*
X19095038Y-18079290D01*
X19071310Y-18081129D01*
X19048441Y-18083703D01*
X19026430Y-18087014D01*
X19005278Y-18091059D01*
X18984985Y-18095841D01*
X18965551Y-18101358D01*
X18946975Y-18107610D01*
X18929258Y-18114598D01*
X18912399Y-18122322D01*
X18896400Y-18130781D01*
X18881258Y-18139976D01*
X18866976Y-18149907D01*
X18853552Y-18160573D01*
X18840987Y-18171974D01*
X18829230Y-18184082D01*
X18818232Y-18196956D01*
X18807993Y-18210597D01*
X18798512Y-18225006D01*
X18789789Y-18240181D01*
X18781825Y-18256124D01*
X18774619Y-18272833D01*
X18768172Y-18290310D01*
X18762483Y-18308554D01*
X18757553Y-18327565D01*
X18753382Y-18347343D01*
X18749968Y-18367888D01*
X18747314Y-18389200D01*
X18745417Y-18411279D01*
X18744280Y-18434125D01*
X18743900Y-18457739D01*
X18744128Y-18473353D01*
X18744811Y-18488599D01*
X18745948Y-18503475D01*
X18748508Y-18525098D01*
X18752092Y-18545889D01*
X18756700Y-18565850D01*
X18762332Y-18584980D01*
X18768987Y-18603279D01*
X18776667Y-18620748D01*
X18785371Y-18637385D01*
X18795098Y-18653192D01*
X18802152Y-18663269D01*
X18813331Y-18677691D01*
X18825160Y-18691283D01*
X18837640Y-18704044D01*
X18850770Y-18715974D01*
X18864551Y-18727073D01*
X18878981Y-18737342D01*
X18894063Y-18746780D01*
X18909795Y-18755387D01*
X18926177Y-18763163D01*
X18943210Y-18770108D01*
X18954926Y-18774277D01*
X18934013Y-18780620D01*
X18913956Y-18788016D01*
X18894755Y-18796465D01*
X18876410Y-18805968D01*
X18858920Y-18816524D01*
X18842286Y-18828133D01*
X18826508Y-18840795D01*
X18811586Y-18854511D01*
X18797520Y-18869280D01*
X18784309Y-18885102D01*
X18771954Y-18901978D01*
X18760455Y-18919907D01*
X18749812Y-18938889D01*
X18740025Y-18958925D01*
X18731093Y-18980014D01*
X18723018Y-19002156D01*
X18718037Y-19018797D01*
X18713721Y-19036113D01*
X18710069Y-19054105D01*
X18707081Y-19072773D01*
X18704757Y-19092115D01*
X18703449Y-19107066D01*
X18702516Y-19122396D01*
X18701955Y-19138107D01*
X18701769Y-19154197D01*
X18701769Y-19175080D01*
X18702148Y-19200525D01*
X18703285Y-19225111D01*
X18705182Y-19248839D01*
X18707836Y-19271708D01*
X18711250Y-19293719D01*
X18715421Y-19314871D01*
X18720351Y-19335164D01*
X18726040Y-19354598D01*
X18732487Y-19373174D01*
X18739693Y-19390891D01*
X18747657Y-19407750D01*
X18756380Y-19423750D01*
X18765861Y-19438891D01*
X18776100Y-19453173D01*
X18787098Y-19466597D01*
X18798855Y-19479162D01*
X18811420Y-19490919D01*
X18824844Y-19501917D01*
X18839126Y-19512156D01*
X18854268Y-19521637D01*
X18870267Y-19530360D01*
X18887126Y-19538324D01*
X18904843Y-19545530D01*
X18923419Y-19551977D01*
X18942853Y-19557666D01*
X18963147Y-19562596D01*
X18984298Y-19566768D01*
X19006309Y-19570181D01*
X19029178Y-19572835D01*
X19052906Y-19574732D01*
X19077492Y-19575869D01*
X19102937Y-19576249D01*
G37*
G36*
X18581601Y-19238461D02*
G01*
X18201681Y-19238461D01*
X18201681Y-19555000D01*
X18581601Y-19555000D01*
X18581601Y-19238461D01*
G37*
G36*
X17792819Y-19555000D02*
G01*
X17792819Y-18404982D01*
X18035352Y-18489246D01*
X18140865Y-18246713D01*
X17750321Y-18077819D01*
X17412899Y-18077819D01*
X17412899Y-19555000D01*
X17792819Y-19555000D01*
G37*
G36*
X17227519Y-19238461D02*
G01*
X16847599Y-19238461D01*
X16847599Y-19555000D01*
X17227519Y-19555000D01*
X17227519Y-19238461D01*
G37*
G36*
X16438736Y-19555000D02*
G01*
X16438736Y-18404982D01*
X16681270Y-18489246D01*
X16786782Y-18246713D01*
X16396238Y-18077819D01*
X16058817Y-18077819D01*
X16058817Y-19555000D01*
X16438736Y-19555000D01*
G37*
D11*
G36*
X35601493Y-13932120D02*
G01*
X35037292Y-13932120D01*
X35037292Y-15455463D01*
X35037859Y-15494354D01*
X35039560Y-15531910D01*
X35042395Y-15568133D01*
X35046364Y-15603021D01*
X35051467Y-15636574D01*
X35057704Y-15668793D01*
X35065075Y-15699678D01*
X35073580Y-15729229D01*
X35083219Y-15757445D01*
X35093993Y-15784326D01*
X35105900Y-15809874D01*
X35118941Y-15834087D01*
X35133116Y-15856965D01*
X35148425Y-15878509D01*
X35164868Y-15898719D01*
X35182446Y-15917595D01*
X35201261Y-15935172D01*
X35221419Y-15951615D01*
X35242919Y-15966924D01*
X35265761Y-15981099D01*
X35289946Y-15994141D01*
X35315474Y-16006048D01*
X35342343Y-16016821D01*
X35370555Y-16026460D01*
X35400110Y-16034965D01*
X35431007Y-16042336D01*
X35463246Y-16048573D01*
X35496827Y-16053676D01*
X35531751Y-16057645D01*
X35568018Y-16060480D01*
X35605626Y-16062181D01*
X35644577Y-16062748D01*
X36323670Y-16062748D01*
X36362621Y-16062181D01*
X36400230Y-16060480D01*
X36436496Y-16057645D01*
X36471420Y-16053676D01*
X36505002Y-16048573D01*
X36537241Y-16042336D01*
X36568138Y-16034965D01*
X36597692Y-16026460D01*
X36625904Y-16016821D01*
X36652774Y-16006048D01*
X36678301Y-15994141D01*
X36702486Y-15981099D01*
X36725329Y-15966924D01*
X36746829Y-15951615D01*
X36766987Y-15935172D01*
X36785802Y-15917595D01*
X36803379Y-15898719D01*
X36819822Y-15878509D01*
X36835132Y-15856965D01*
X36849307Y-15834087D01*
X36862348Y-15809874D01*
X36874255Y-15784326D01*
X36885028Y-15757445D01*
X36894667Y-15729229D01*
X36903172Y-15699678D01*
X36910543Y-15668793D01*
X36916780Y-15636574D01*
X36921884Y-15603021D01*
X36925853Y-15568133D01*
X36928688Y-15531910D01*
X36930389Y-15494354D01*
X36930956Y-15455463D01*
X36930956Y-13932120D01*
X36366755Y-13932120D01*
X36366755Y-15455463D01*
X36365339Y-15484153D01*
X36361093Y-15510022D01*
X36354015Y-15533068D01*
X36344106Y-15553292D01*
X36331367Y-15570695D01*
X36315796Y-15585275D01*
X36297395Y-15597034D01*
X36276162Y-15605970D01*
X36252098Y-15612084D01*
X36225204Y-15615377D01*
X36205701Y-15616004D01*
X35762547Y-15616004D01*
X35733765Y-15614593D01*
X35707814Y-15610360D01*
X35684694Y-15603305D01*
X35664405Y-15593428D01*
X35646947Y-15580729D01*
X35632320Y-15565208D01*
X35620524Y-15546865D01*
X35611559Y-15525699D01*
X35605425Y-15501712D01*
X35602122Y-15474903D01*
X35601493Y-15455463D01*
X35601493Y-13932120D01*
G37*
G36*
X33720139Y-16033000D02*
G01*
X34816228Y-16033000D01*
X34816228Y-15586768D01*
X34550540Y-15586768D01*
X34550540Y-14378352D01*
X34816228Y-14378352D01*
X34816228Y-13932120D01*
X33720139Y-13932120D01*
X33720139Y-14378352D01*
X33985827Y-14378352D01*
X33985827Y-15586768D01*
X33720139Y-15586768D01*
X33720139Y-16033000D01*
G37*
G36*
X31659780Y-16033000D02*
G01*
X32247062Y-16033000D01*
X32930258Y-14837406D01*
X32930258Y-16033000D01*
X33494459Y-16033000D01*
X33494459Y-13932120D01*
X32907177Y-13932120D01*
X32224494Y-15127200D01*
X32224494Y-13932120D01*
X31659780Y-13932120D01*
X31659780Y-16033000D01*
G37*
G36*
X30341088Y-16033000D02*
G01*
X31437177Y-16033000D01*
X31437177Y-15586768D01*
X31171489Y-15586768D01*
X31171489Y-14378352D01*
X31437177Y-14378352D01*
X31437177Y-13932120D01*
X30341088Y-13932120D01*
X30341088Y-14378352D01*
X30606776Y-14378352D01*
X30606776Y-15586768D01*
X30341088Y-15586768D01*
X30341088Y-16033000D01*
G37*
G36*
X29606511Y-13902940D02*
G01*
X29644068Y-13904647D01*
X29680290Y-13907493D01*
X29715178Y-13911476D01*
X29748731Y-13916597D01*
X29780950Y-13922856D01*
X29811835Y-13930253D01*
X29841386Y-13938788D01*
X29869602Y-13948461D01*
X29896483Y-13959272D01*
X29922031Y-13971222D01*
X29946244Y-13984309D01*
X29969122Y-13998534D01*
X29990667Y-14013897D01*
X30010876Y-14030399D01*
X30029752Y-14048038D01*
X30047329Y-14066851D01*
X30063772Y-14087003D01*
X30079081Y-14108493D01*
X30093257Y-14131322D01*
X30106298Y-14155489D01*
X30118205Y-14180994D01*
X30128978Y-14207837D01*
X30138617Y-14236019D01*
X30147122Y-14265540D01*
X30154493Y-14296399D01*
X30160730Y-14328596D01*
X30165833Y-14362131D01*
X30169802Y-14397005D01*
X30172637Y-14433217D01*
X30174338Y-14470768D01*
X30174905Y-14509657D01*
X30174905Y-15455463D01*
X30174338Y-15494354D01*
X30172637Y-15531910D01*
X30169802Y-15568133D01*
X30165833Y-15603021D01*
X30160730Y-15636574D01*
X30154493Y-15668793D01*
X30147122Y-15699678D01*
X30138617Y-15729229D01*
X30128978Y-15757445D01*
X30118205Y-15784326D01*
X30106298Y-15809874D01*
X30093257Y-15834087D01*
X30079081Y-15856965D01*
X30063772Y-15878509D01*
X30047329Y-15898719D01*
X30029752Y-15917595D01*
X30010876Y-15935172D01*
X29990667Y-15951615D01*
X29969122Y-15966924D01*
X29946244Y-15981099D01*
X29922031Y-15994141D01*
X29896483Y-16006048D01*
X29869602Y-16016821D01*
X29841386Y-16026460D01*
X29811835Y-16034965D01*
X29780950Y-16042336D01*
X29748731Y-16048573D01*
X29715178Y-16053676D01*
X29680290Y-16057645D01*
X29644068Y-16060480D01*
X29606511Y-16062181D01*
X29567620Y-16062748D01*
X28829030Y-16062748D01*
X28790079Y-16062181D01*
X28752470Y-16060480D01*
X28716203Y-16057645D01*
X28681279Y-16053676D01*
X28647698Y-16048573D01*
X28615459Y-16042336D01*
X28584562Y-16034965D01*
X28555007Y-16026460D01*
X28526795Y-16016821D01*
X28499926Y-16006048D01*
X28474398Y-15994141D01*
X28450214Y-15981099D01*
X28427371Y-15966924D01*
X28405871Y-15951615D01*
X28385713Y-15935172D01*
X28366898Y-15917595D01*
X28349321Y-15898719D01*
X28332877Y-15878509D01*
X28317568Y-15856965D01*
X28303393Y-15834087D01*
X28290352Y-15809874D01*
X28278445Y-15784326D01*
X28267672Y-15757445D01*
X28258033Y-15729229D01*
X28249527Y-15699678D01*
X28242156Y-15668793D01*
X28235919Y-15636574D01*
X28230816Y-15603021D01*
X28226847Y-15568133D01*
X28224012Y-15531910D01*
X28222311Y-15494354D01*
X28221744Y-15455463D01*
X28785945Y-15455463D01*
X28786574Y-15474903D01*
X28789877Y-15501712D01*
X28796011Y-15525699D01*
X28804976Y-15546865D01*
X28816772Y-15565208D01*
X28831399Y-15580729D01*
X28848857Y-15593428D01*
X28869146Y-15603305D01*
X28892266Y-15610360D01*
X28918217Y-15614593D01*
X28946999Y-15616004D01*
X29449138Y-15616004D01*
X29468640Y-15615377D01*
X29495535Y-15612084D01*
X29519599Y-15605970D01*
X29540831Y-15597034D01*
X29559233Y-15585275D01*
X29574804Y-15570695D01*
X29587543Y-15553292D01*
X29597452Y-15533068D01*
X29604529Y-15510022D01*
X29608776Y-15484153D01*
X29610192Y-15455463D01*
X29610192Y-14509657D01*
X29609562Y-14490216D01*
X29606260Y-14463407D01*
X29600126Y-14439420D01*
X29591161Y-14418255D01*
X29579365Y-14399912D01*
X29564738Y-14384391D01*
X29547280Y-14371692D01*
X29526991Y-14361815D01*
X29503871Y-14354760D01*
X29477920Y-14350527D01*
X29449138Y-14349116D01*
X28946999Y-14349116D01*
X28927496Y-14349743D01*
X28900602Y-14353035D01*
X28876538Y-14359150D01*
X28855305Y-14368086D01*
X28836904Y-14379845D01*
X28821333Y-14394425D01*
X28808593Y-14411827D01*
X28798685Y-14432052D01*
X28791607Y-14455098D01*
X28787361Y-14480966D01*
X28785945Y-14509657D01*
X28785945Y-15455463D01*
X28221744Y-15455463D01*
X28221744Y-14509657D01*
X28222311Y-14470768D01*
X28224012Y-14433217D01*
X28226847Y-14397005D01*
X28230816Y-14362131D01*
X28235919Y-14328596D01*
X28242156Y-14296399D01*
X28249527Y-14265540D01*
X28258033Y-14236019D01*
X28267672Y-14207837D01*
X28278445Y-14180994D01*
X28290352Y-14155489D01*
X28303393Y-14131322D01*
X28317568Y-14108493D01*
X28332877Y-14087003D01*
X28349321Y-14066851D01*
X28366898Y-14048038D01*
X28385713Y-14030399D01*
X28405871Y-14013897D01*
X28427371Y-13998534D01*
X28450214Y-13984309D01*
X28474398Y-13971222D01*
X28499926Y-13959272D01*
X28526795Y-13948461D01*
X28555007Y-13938788D01*
X28584562Y-13930253D01*
X28615459Y-13922856D01*
X28647698Y-13916597D01*
X28681279Y-13911476D01*
X28716203Y-13907493D01*
X28752470Y-13904647D01*
X28790079Y-13902940D01*
X28829030Y-13902371D01*
X29567620Y-13902371D01*
X29606511Y-13902940D01*
G37*
G36*
X28058126Y-15205676D02*
G01*
X28058126Y-14759444D01*
X26814319Y-14759444D01*
X26814319Y-15205676D01*
X28058126Y-15205676D01*
G37*
G36*
X26024438Y-15586768D02*
G01*
X24945788Y-15586768D01*
X24945788Y-16033000D01*
X26588639Y-16033000D01*
X26588639Y-13932120D01*
X26024438Y-13932120D01*
X26024438Y-15586768D01*
G37*
G36*
X24379475Y-14405532D02*
G01*
X24406864Y-14407059D01*
X24433491Y-14409603D01*
X24459357Y-14413166D01*
X24484462Y-14417746D01*
X24508805Y-14423344D01*
X24532387Y-14429959D01*
X24555207Y-14437593D01*
X24577266Y-14446244D01*
X24598564Y-14455914D01*
X24619101Y-14466600D01*
X24638876Y-14478305D01*
X24657889Y-14491028D01*
X24676142Y-14504768D01*
X24693633Y-14519526D01*
X24710362Y-14535302D01*
X24726138Y-14551970D01*
X24740897Y-14569403D01*
X24754637Y-14587601D01*
X24767360Y-14606565D01*
X24779064Y-14626294D01*
X24789751Y-14646788D01*
X24799420Y-14668048D01*
X24808072Y-14690073D01*
X24815705Y-14712863D01*
X24822321Y-14736419D01*
X24827919Y-14760740D01*
X24832499Y-14785827D01*
X24836061Y-14811679D01*
X24838606Y-14838296D01*
X24840133Y-14865678D01*
X24840642Y-14893826D01*
X24840642Y-15573432D01*
X24840133Y-15601582D01*
X24838606Y-15628971D01*
X24836061Y-15655598D01*
X24832499Y-15681464D01*
X24827919Y-15706568D01*
X24822321Y-15730912D01*
X24815705Y-15754493D01*
X24808072Y-15777314D01*
X24799420Y-15799373D01*
X24789751Y-15820671D01*
X24779064Y-15841207D01*
X24767360Y-15860982D01*
X24754637Y-15879996D01*
X24740897Y-15898248D01*
X24726138Y-15915739D01*
X24710362Y-15932469D01*
X24693633Y-15948245D01*
X24676142Y-15963003D01*
X24657889Y-15976744D01*
X24638876Y-15989466D01*
X24619101Y-16001171D01*
X24598564Y-16011858D01*
X24577266Y-16021527D01*
X24555207Y-16030178D01*
X24532387Y-16037812D01*
X24508805Y-16044428D01*
X24484462Y-16050026D01*
X24459357Y-16054606D01*
X24433491Y-16058168D01*
X24406864Y-16060713D01*
X24379475Y-16062239D01*
X24351326Y-16062748D01*
X23671720Y-16062748D01*
X23643572Y-16062239D01*
X23616189Y-16060713D01*
X23589572Y-16058168D01*
X23563720Y-16054606D01*
X23538634Y-16050026D01*
X23514313Y-16044428D01*
X23490757Y-16037812D01*
X23467966Y-16030178D01*
X23445941Y-16021527D01*
X23424681Y-16011858D01*
X23404187Y-16001171D01*
X23384458Y-15989466D01*
X23365494Y-15976744D01*
X23347296Y-15963003D01*
X23329863Y-15948245D01*
X23313196Y-15932469D01*
X23297420Y-15915739D01*
X23282662Y-15898248D01*
X23268921Y-15879996D01*
X23256199Y-15860982D01*
X23244494Y-15841207D01*
X23233807Y-15820671D01*
X23224138Y-15799373D01*
X23215486Y-15777314D01*
X23207853Y-15754493D01*
X23201237Y-15730912D01*
X23195639Y-15706568D01*
X23191059Y-15681464D01*
X23187497Y-15655598D01*
X23184952Y-15628971D01*
X23183425Y-15601582D01*
X23182917Y-15573432D01*
X23182917Y-15529322D01*
X23732756Y-15529322D01*
X23732855Y-15535570D01*
X23735235Y-15558579D01*
X23740789Y-15578414D01*
X23752195Y-15598745D01*
X23768559Y-15614117D01*
X23789881Y-15624531D01*
X23810510Y-15629291D01*
X23834312Y-15630878D01*
X24188733Y-15630878D01*
X24195013Y-15630779D01*
X24218138Y-15628399D01*
X24238073Y-15622845D01*
X24258507Y-15611440D01*
X24273957Y-15595076D01*
X24284423Y-15573753D01*
X24289207Y-15553124D01*
X24290802Y-15529322D01*
X24290802Y-14938450D01*
X24290702Y-14932170D01*
X24288310Y-14909045D01*
X24282728Y-14889110D01*
X24271265Y-14868676D01*
X24254819Y-14853226D01*
X24233388Y-14842760D01*
X24212655Y-14837975D01*
X24188733Y-14836381D01*
X23834312Y-14836381D01*
X23828064Y-14836480D01*
X23805055Y-14838872D01*
X23785220Y-14844454D01*
X23764889Y-14855917D01*
X23749517Y-14872364D01*
X23739103Y-14893794D01*
X23734343Y-14914527D01*
X23732756Y-14938450D01*
X23732756Y-15529322D01*
X23182917Y-15529322D01*
X23182917Y-14893826D01*
X23183425Y-14865678D01*
X23184952Y-14838296D01*
X23187497Y-14811679D01*
X23191059Y-14785827D01*
X23195639Y-14760740D01*
X23201237Y-14736419D01*
X23207853Y-14712863D01*
X23215486Y-14690073D01*
X23224138Y-14668048D01*
X23233807Y-14646788D01*
X23244494Y-14626294D01*
X23256199Y-14606565D01*
X23268921Y-14587601D01*
X23282662Y-14569403D01*
X23297420Y-14551970D01*
X23313196Y-14535302D01*
X23329863Y-14519526D01*
X23347296Y-14504768D01*
X23365494Y-14491028D01*
X23384458Y-14478305D01*
X23404187Y-14466600D01*
X23424681Y-14455914D01*
X23445941Y-14446244D01*
X23467966Y-14437593D01*
X23490757Y-14429959D01*
X23514313Y-14423344D01*
X23538634Y-14417746D01*
X23563720Y-14413166D01*
X23589572Y-14409603D01*
X23616189Y-14407059D01*
X23643572Y-14405532D01*
X23671720Y-14405023D01*
X24351326Y-14405023D01*
X24379475Y-14405532D01*
G37*
G36*
X22528896Y-14434770D02*
G01*
X22556285Y-14436303D01*
X22582912Y-14438857D01*
X22608778Y-14442434D01*
X22633882Y-14447032D01*
X22658226Y-14452652D01*
X22681808Y-14459294D01*
X22704628Y-14466957D01*
X22726687Y-14475643D01*
X22747985Y-14485350D01*
X22768521Y-14496079D01*
X22788296Y-14507830D01*
X22807310Y-14520602D01*
X22825563Y-14534397D01*
X22843054Y-14549213D01*
X22859783Y-14565051D01*
X22875559Y-14581719D01*
X22890317Y-14599152D01*
X22904058Y-14617350D01*
X22916780Y-14636314D01*
X22928485Y-14656043D01*
X22939172Y-14676537D01*
X22948841Y-14697797D01*
X22957493Y-14719822D01*
X22965126Y-14742612D01*
X22971742Y-14766168D01*
X22977340Y-14790489D01*
X22981920Y-14815576D01*
X22985482Y-14841427D01*
X22988027Y-14868045D01*
X22989554Y-14895427D01*
X22990062Y-14923575D01*
X22990062Y-15514448D01*
X22989570Y-15540033D01*
X22988091Y-15564985D01*
X22985627Y-15589304D01*
X22982176Y-15612990D01*
X22977741Y-15636043D01*
X22972319Y-15658463D01*
X22965912Y-15680250D01*
X22958518Y-15701403D01*
X22950140Y-15721924D01*
X22940775Y-15741811D01*
X22930425Y-15761065D01*
X22919088Y-15779686D01*
X22906767Y-15797674D01*
X22893459Y-15815029D01*
X22879166Y-15831750D01*
X22863887Y-15847839D01*
X22847798Y-15863118D01*
X22831076Y-15877411D01*
X22813722Y-15890719D01*
X22795734Y-15903041D01*
X22777113Y-15914377D01*
X22757858Y-15924727D01*
X22737971Y-15934092D01*
X22717451Y-15942471D01*
X22696297Y-15949864D01*
X22674511Y-15956271D01*
X22652091Y-15961693D01*
X22629038Y-15966129D01*
X22605352Y-15969579D01*
X22581033Y-15972043D01*
X22556080Y-15973522D01*
X22530495Y-15974015D01*
X22426887Y-15974015D01*
X22399565Y-15973798D01*
X22371838Y-15973149D01*
X22343706Y-15972067D01*
X22315169Y-15970553D01*
X22286228Y-15968605D01*
X22256882Y-15966225D01*
X22227131Y-15963412D01*
X22196975Y-15960166D01*
X22166415Y-15956488D01*
X22135450Y-15952376D01*
X22104081Y-15947832D01*
X22072306Y-15942856D01*
X22040127Y-15937446D01*
X22007543Y-15931604D01*
X21974555Y-15925328D01*
X21941162Y-15918621D01*
X21941162Y-16046335D01*
X21941258Y-16050965D01*
X21944624Y-16072614D01*
X21952798Y-16091758D01*
X21965781Y-16108397D01*
X21968909Y-16111379D01*
X21986049Y-16123400D01*
X22005694Y-16130613D01*
X22027843Y-16133017D01*
X22065516Y-16132839D01*
X22105445Y-16132304D01*
X22126255Y-16131902D01*
X22147630Y-16131412D01*
X22169568Y-16130833D01*
X22192071Y-16130164D01*
X22215137Y-16129406D01*
X22238768Y-16128559D01*
X22262962Y-16127623D01*
X22287720Y-16126598D01*
X22313043Y-16125483D01*
X22338929Y-16124279D01*
X22365380Y-16122987D01*
X22392394Y-16121605D01*
X22419972Y-16120134D01*
X22448115Y-16118573D01*
X22476821Y-16116924D01*
X22506092Y-16115185D01*
X22535926Y-16113358D01*
X22566325Y-16111441D01*
X22597287Y-16109435D01*
X22628814Y-16107339D01*
X22660904Y-16105155D01*
X22693558Y-16102881D01*
X22726777Y-16100519D01*
X22760559Y-16098067D01*
X22794906Y-16095526D01*
X22829816Y-16092896D01*
X22865291Y-16090176D01*
X22901329Y-16087368D01*
X22901329Y-16504364D01*
X22864838Y-16508087D01*
X22828584Y-16511693D01*
X22792566Y-16515180D01*
X22756785Y-16518549D01*
X22721239Y-16521800D01*
X22685931Y-16524932D01*
X22650859Y-16527947D01*
X22616023Y-16530843D01*
X22581423Y-16533621D01*
X22547060Y-16536280D01*
X22512934Y-16538822D01*
X22479044Y-16541245D01*
X22445390Y-16543550D01*
X22411973Y-16545737D01*
X22378792Y-16547806D01*
X22345847Y-16549756D01*
X22313139Y-16551589D01*
X22280668Y-16553303D01*
X22248433Y-16554898D01*
X22216434Y-16556376D01*
X22184672Y-16557735D01*
X22153146Y-16558977D01*
X22121856Y-16560100D01*
X22090803Y-16561104D01*
X22059986Y-16561991D01*
X22029406Y-16562759D01*
X21999062Y-16563410D01*
X21968955Y-16563941D01*
X21939084Y-16564355D01*
X21909449Y-16564651D01*
X21880051Y-16564828D01*
X21850889Y-16564887D01*
X21825244Y-16564394D01*
X21800239Y-16562916D01*
X21775876Y-16560451D01*
X21752154Y-16557001D01*
X21729073Y-16552565D01*
X21706633Y-16547144D01*
X21684835Y-16540736D01*
X21663677Y-16533343D01*
X21643161Y-16524964D01*
X21623286Y-16515600D01*
X21604051Y-16505249D01*
X21585458Y-16493913D01*
X21567507Y-16481591D01*
X21550196Y-16468284D01*
X21533526Y-16453990D01*
X21517498Y-16438711D01*
X21502219Y-16422623D01*
X21487925Y-16405901D01*
X21474618Y-16388546D01*
X21462296Y-16370558D01*
X21450960Y-16351937D01*
X21440609Y-16332683D01*
X21431245Y-16312796D01*
X21422866Y-16292275D01*
X21415473Y-16271122D01*
X21409065Y-16249335D01*
X21403644Y-16226916D01*
X21399208Y-16203863D01*
X21395758Y-16180177D01*
X21393294Y-16155857D01*
X21391815Y-16130905D01*
X21391322Y-16105320D01*
X21391322Y-14866129D01*
X21941162Y-14866129D01*
X21941162Y-15515473D01*
X21950777Y-15517114D01*
X21979990Y-15521724D01*
X22009754Y-15525866D01*
X22040067Y-15529538D01*
X22060581Y-15531726D01*
X22081340Y-15533706D01*
X22102343Y-15535477D01*
X22123591Y-15537040D01*
X22145083Y-15538394D01*
X22166820Y-15539540D01*
X22188801Y-15540478D01*
X22211026Y-15541207D01*
X22233496Y-15541728D01*
X22256210Y-15542040D01*
X22279169Y-15542145D01*
X22353028Y-15542145D01*
X22357660Y-15542048D01*
X22379379Y-15538683D01*
X22398693Y-15530508D01*
X22415603Y-15517525D01*
X22418585Y-15514397D01*
X22430606Y-15497257D01*
X22437819Y-15477612D01*
X22440223Y-15455463D01*
X22440223Y-14967685D01*
X22440123Y-14961437D01*
X22437731Y-14938429D01*
X22432149Y-14918593D01*
X22420686Y-14898262D01*
X22404240Y-14882890D01*
X22382809Y-14872477D01*
X22362076Y-14867716D01*
X22338154Y-14866129D01*
X21941162Y-14866129D01*
X21391322Y-14866129D01*
X21391322Y-14434259D01*
X22500746Y-14434259D01*
X22528896Y-14434770D01*
G37*
G36*
X20455774Y-14493244D02*
G01*
X20455774Y-16033000D01*
X21005614Y-16033000D01*
X21005614Y-14925114D01*
X21227191Y-14925114D01*
X21227191Y-14493244D01*
X20455774Y-14493244D01*
G37*
G36*
X21005614Y-13902371D02*
G01*
X20455774Y-13902371D01*
X20455774Y-14349116D01*
X21005614Y-14349116D01*
X21005614Y-13902371D01*
G37*
G36*
X18777533Y-16001712D02*
G01*
X18812879Y-16005467D01*
X18847944Y-16009103D01*
X18882727Y-16012620D01*
X18917229Y-16016017D01*
X18951449Y-16019296D01*
X18985388Y-16022455D01*
X19019045Y-16025495D01*
X19052420Y-16028415D01*
X19085515Y-16031217D01*
X19118327Y-16033899D01*
X19150859Y-16036462D01*
X19183108Y-16038906D01*
X19215077Y-16041231D01*
X19246763Y-16043436D01*
X19278168Y-16045522D01*
X19309292Y-16047489D01*
X19340134Y-16049337D01*
X19370695Y-16051066D01*
X19400974Y-16052675D01*
X19430972Y-16054165D01*
X19460688Y-16055536D01*
X19490123Y-16056788D01*
X19519276Y-16057920D01*
X19548148Y-16058934D01*
X19576738Y-16059828D01*
X19605047Y-16060602D01*
X19633074Y-16061258D01*
X19660820Y-16061795D01*
X19688284Y-16062212D01*
X19715467Y-16062510D01*
X19742368Y-16062689D01*
X19768988Y-16062748D01*
X19794573Y-16062255D01*
X19819525Y-16060777D01*
X19843845Y-16058312D01*
X19867531Y-16054862D01*
X19890583Y-16050426D01*
X19913003Y-16045005D01*
X19934790Y-16038597D01*
X19955943Y-16031204D01*
X19976464Y-16022825D01*
X19996351Y-16013461D01*
X20015605Y-16003110D01*
X20034226Y-15991774D01*
X20052214Y-15979452D01*
X20069569Y-15966145D01*
X20086291Y-15951852D01*
X20102379Y-15936572D01*
X20117658Y-15920484D01*
X20131952Y-15903762D01*
X20145259Y-15886407D01*
X20157581Y-15868420D01*
X20168917Y-15849798D01*
X20179268Y-15830544D01*
X20188632Y-15810657D01*
X20197011Y-15790137D01*
X20204404Y-15768983D01*
X20210812Y-15747196D01*
X20216233Y-15724777D01*
X20220669Y-15701724D01*
X20224119Y-15678038D01*
X20226584Y-15653719D01*
X20228062Y-15628766D01*
X20228555Y-15603181D01*
X20228555Y-14923575D01*
X20228046Y-14895427D01*
X20226519Y-14868045D01*
X20223975Y-14841427D01*
X20220413Y-14815576D01*
X20215833Y-14790489D01*
X20210235Y-14766168D01*
X20203619Y-14742612D01*
X20195985Y-14719822D01*
X20187334Y-14697797D01*
X20177665Y-14676537D01*
X20166978Y-14656043D01*
X20155273Y-14636314D01*
X20142551Y-14617350D01*
X20128810Y-14599152D01*
X20114052Y-14581719D01*
X20098276Y-14565051D01*
X20081546Y-14549213D01*
X20064055Y-14534397D01*
X20045803Y-14520602D01*
X20026789Y-14507830D01*
X20007014Y-14496079D01*
X19986478Y-14485350D01*
X19965180Y-14475643D01*
X19943121Y-14466957D01*
X19920300Y-14459294D01*
X19896718Y-14452652D01*
X19872375Y-14447032D01*
X19847271Y-14442434D01*
X19821405Y-14438857D01*
X19794778Y-14436303D01*
X19767389Y-14434770D01*
X19739239Y-14434259D01*
X18777533Y-14434259D01*
X18777533Y-14866129D01*
X19576647Y-14866129D01*
X19600569Y-14867716D01*
X19621302Y-14872477D01*
X19642732Y-14882890D01*
X19659179Y-14898262D01*
X19670642Y-14918593D01*
X19676224Y-14938429D01*
X19678616Y-14961437D01*
X19678716Y-14967685D01*
X19678716Y-15543683D01*
X19676311Y-15566103D01*
X19669099Y-15585918D01*
X19657077Y-15603129D01*
X19654096Y-15606258D01*
X19637186Y-15619241D01*
X19617872Y-15627416D01*
X19596153Y-15630782D01*
X19591521Y-15630878D01*
X19557266Y-15630700D01*
X19520795Y-15630165D01*
X19482109Y-15629273D01*
X19441206Y-15628025D01*
X19419924Y-15627267D01*
X19398088Y-15626420D01*
X19375697Y-15625484D01*
X19352753Y-15624459D01*
X19329255Y-15623344D01*
X19305203Y-15622141D01*
X19280597Y-15620848D01*
X19255437Y-15619466D01*
X19229723Y-15617995D01*
X19203454Y-15616434D01*
X19176632Y-15614785D01*
X19149256Y-15613046D01*
X19121326Y-15611219D01*
X19092842Y-15609302D01*
X19063804Y-15607296D01*
X19034212Y-15605201D01*
X19004066Y-15603016D01*
X18973366Y-15600743D01*
X18942112Y-15598380D01*
X18910304Y-15595928D01*
X18877942Y-15593387D01*
X18845027Y-15590757D01*
X18811557Y-15588038D01*
X18777533Y-15585229D01*
X18777533Y-16001712D01*
G37*
G36*
X18641099Y-15205676D02*
G01*
X18641099Y-14759444D01*
X17397292Y-14759444D01*
X17397292Y-15205676D01*
X18641099Y-15205676D01*
G37*
G36*
X15749825Y-14598390D02*
G01*
X15750679Y-14630489D01*
X15753239Y-14662031D01*
X15757507Y-14693016D01*
X15763481Y-14723444D01*
X15771163Y-14753315D01*
X15780552Y-14782629D01*
X15791647Y-14811386D01*
X15804450Y-14839586D01*
X15818960Y-14867229D01*
X15835177Y-14894315D01*
X15853100Y-14920844D01*
X15872731Y-14946816D01*
X15894069Y-14972232D01*
X15917114Y-14997090D01*
X15941866Y-15021391D01*
X15968325Y-15045135D01*
X15984922Y-15059248D01*
X16001888Y-15073377D01*
X16019223Y-15087522D01*
X16036927Y-15101683D01*
X16054999Y-15115860D01*
X16073439Y-15130054D01*
X16092249Y-15144263D01*
X16111427Y-15158488D01*
X16705376Y-15586768D01*
X15749825Y-15586768D01*
X15749825Y-16033000D01*
X17378314Y-16033000D01*
X17378314Y-15447256D01*
X16314539Y-14678917D01*
X16314539Y-14539406D01*
X16315955Y-14510624D01*
X16320201Y-14484673D01*
X16327279Y-14461553D01*
X16337187Y-14441264D01*
X16349927Y-14423806D01*
X16365497Y-14409179D01*
X16383899Y-14397383D01*
X16405132Y-14388418D01*
X16429195Y-14382284D01*
X16456090Y-14378981D01*
X16475593Y-14378352D01*
X17319330Y-14378352D01*
X17319330Y-13932120D01*
X16357111Y-13932120D01*
X16318222Y-13932687D01*
X16280671Y-13934388D01*
X16244459Y-13937223D01*
X16209585Y-13941192D01*
X16176049Y-13946295D01*
X16143852Y-13952532D01*
X16112993Y-13959904D01*
X16083473Y-13968409D01*
X16055291Y-13978048D01*
X16028447Y-13988821D01*
X16002942Y-14000728D01*
X15978775Y-14013769D01*
X15955947Y-14027944D01*
X15934457Y-14043253D01*
X15914305Y-14059697D01*
X15895492Y-14077274D01*
X15877852Y-14096089D01*
X15861351Y-14116247D01*
X15845988Y-14137747D01*
X15831763Y-14160590D01*
X15818675Y-14184774D01*
X15806726Y-14210302D01*
X15795915Y-14237171D01*
X15786242Y-14265383D01*
X15777707Y-14294938D01*
X15770309Y-14325835D01*
X15764050Y-14358074D01*
X15758929Y-14391656D01*
X15754946Y-14426579D01*
X15752101Y-14462846D01*
X15750394Y-14500455D01*
X15749825Y-14539406D01*
X15749825Y-14598390D01*
G37*
G36*
X14668611Y-15619594D02*
G01*
X15761622Y-15619594D01*
X15761622Y-15184646D01*
X15045600Y-13932120D01*
X14416772Y-13932120D01*
X15126127Y-15172849D01*
X14668611Y-15172849D01*
X14668611Y-14729695D01*
X14103897Y-14729695D01*
X14103897Y-15172849D01*
X13897194Y-15172849D01*
X13897194Y-15619594D01*
X14103897Y-15619594D01*
X14103897Y-16033000D01*
X14668611Y-16033000D01*
X14668611Y-15619594D01*
G37*
G36*
X11960446Y-14927678D02*
G01*
X12348206Y-15619594D01*
X12781102Y-15619594D01*
X13168862Y-14927678D01*
X13168862Y-16033000D01*
X13733063Y-16033000D01*
X13733063Y-13932120D01*
X13145781Y-13932120D01*
X12564654Y-15007180D01*
X11983527Y-13932120D01*
X11396245Y-13932120D01*
X11396245Y-16033000D01*
X11960446Y-16033000D01*
X11960446Y-14927678D01*
G37*
G36*
X9253820Y-16033000D02*
G01*
X9818534Y-16033000D01*
X9818534Y-15190801D01*
X10524298Y-15190801D01*
X10524298Y-16033000D01*
X11088499Y-16033000D01*
X11088499Y-13932120D01*
X10524298Y-13932120D01*
X10524298Y-14744570D01*
X9818534Y-14744570D01*
X9818534Y-13932120D01*
X9253820Y-13932120D01*
X9253820Y-16033000D01*
G37*
G36*
X7565834Y-14856897D02*
G01*
X8353663Y-15601129D01*
X7565834Y-15601129D01*
X7565834Y-16033000D01*
X9060966Y-16033000D01*
X9060966Y-15610362D01*
X8273136Y-14866129D01*
X9060966Y-14866129D01*
X9060966Y-14434259D01*
X7565834Y-14434259D01*
X7565834Y-14856897D01*
G37*
G36*
X15073068Y-9333763D02*
G01*
X15112559Y-9342876D01*
X15153379Y-9362812D01*
X15184706Y-9392240D01*
X15206540Y-9431162D01*
X15217172Y-9469134D01*
X15221728Y-9513181D01*
X15221918Y-9525143D01*
X15221918Y-10650614D01*
X15218881Y-10695951D01*
X15209767Y-10735244D01*
X15189832Y-10775859D01*
X15160404Y-10807028D01*
X15121482Y-10828752D01*
X15083510Y-10839331D01*
X15039462Y-10843865D01*
X15027501Y-10844054D01*
X14352414Y-10844054D01*
X14307076Y-10841031D01*
X14267784Y-10831964D01*
X14227169Y-10812129D01*
X14195999Y-10782848D01*
X14174275Y-10744122D01*
X14163696Y-10706341D01*
X14159162Y-10662515D01*
X14158973Y-10650614D01*
X14158973Y-9525143D01*
X14161996Y-9479576D01*
X14171064Y-9440085D01*
X14190899Y-9399265D01*
X14220179Y-9367938D01*
X14258905Y-9346104D01*
X14296686Y-9335472D01*
X14340513Y-9330915D01*
X14352414Y-9330725D01*
X15027501Y-9330725D01*
X15073068Y-9333763D01*
G37*
G36*
X23453015Y-8405290D02*
G01*
X23502445Y-8413353D01*
X23546484Y-8426791D01*
X23585129Y-8445604D01*
X23618383Y-8469793D01*
X23646243Y-8499357D01*
X23668712Y-8534296D01*
X23685788Y-8574610D01*
X23697471Y-8620300D01*
X23703763Y-8671365D01*
X23704961Y-8708394D01*
X23704961Y-10509930D01*
X23702265Y-10564578D01*
X23694176Y-10613851D01*
X23680695Y-10657749D01*
X23661822Y-10696272D01*
X23637556Y-10729419D01*
X23607897Y-10757191D01*
X23572847Y-10779588D01*
X23532403Y-10796610D01*
X23486568Y-10808256D01*
X23435340Y-10814527D01*
X23398192Y-10815722D01*
X22441737Y-10815722D01*
X22386914Y-10813034D01*
X22337483Y-10804971D01*
X22293445Y-10791533D01*
X22254800Y-10772720D01*
X22221546Y-10748531D01*
X22193685Y-10718967D01*
X22171217Y-10684028D01*
X22154141Y-10643714D01*
X22142457Y-10598024D01*
X22136166Y-10546959D01*
X22134968Y-10509930D01*
X22134968Y-8708394D01*
X22137664Y-8653746D01*
X22145753Y-8604473D01*
X22159234Y-8560575D01*
X22178107Y-8522052D01*
X22202373Y-8488905D01*
X22232032Y-8461133D01*
X22267082Y-8438736D01*
X22307525Y-8421714D01*
X22353361Y-8410068D01*
X22404589Y-8403797D01*
X22441737Y-8402602D01*
X23398192Y-8402602D01*
X23453015Y-8405290D01*
G37*
G36*
X37099139Y-12238093D02*
G01*
X7354467Y-12238093D01*
X7354467Y-11610000D01*
X7925896Y-11610000D01*
X8973209Y-11610000D01*
X8973209Y-9552498D01*
X8977884Y-9510309D01*
X8991909Y-9472890D01*
X9015284Y-9440241D01*
X9021081Y-9434284D01*
X9052775Y-9409555D01*
X9089240Y-9393984D01*
X9130475Y-9387573D01*
X9139294Y-9387390D01*
X9167627Y-9387390D01*
X9215369Y-9388308D01*
X9265171Y-9391065D01*
X9317035Y-9395659D01*
X9370959Y-9402090D01*
X9426944Y-9410359D01*
X9484990Y-9420465D01*
X9524832Y-9428224D01*
X9565590Y-9436799D01*
X9607264Y-9446191D01*
X9649854Y-9456400D01*
X9693359Y-9467425D01*
X9737781Y-9479267D01*
X9783119Y-9491926D01*
X9783119Y-11610000D01*
X10830432Y-11610000D01*
X10830432Y-9552498D01*
X10835012Y-9510309D01*
X10848750Y-9472890D01*
X10871648Y-9440241D01*
X10877327Y-9434284D01*
X10909116Y-9409555D01*
X10945867Y-9393984D01*
X10987579Y-9387573D01*
X10996517Y-9387390D01*
X11024849Y-9387390D01*
X11072591Y-9388308D01*
X11122394Y-9391065D01*
X11174257Y-9395659D01*
X11228181Y-9402090D01*
X11284166Y-9410359D01*
X11342212Y-9420465D01*
X11382054Y-9428224D01*
X11422812Y-9436799D01*
X11464486Y-9446191D01*
X11507076Y-9456400D01*
X11550582Y-9467425D01*
X11595004Y-9479267D01*
X11640341Y-9491926D01*
X11640341Y-11610000D01*
X12687655Y-11610000D01*
X12687655Y-10734633D01*
X13111660Y-10734633D01*
X13112629Y-10788252D01*
X13115538Y-10840421D01*
X13120384Y-10891139D01*
X13127170Y-10940408D01*
X13135894Y-10988226D01*
X13146556Y-11034594D01*
X13159158Y-11079512D01*
X13173698Y-11122979D01*
X13190177Y-11164997D01*
X13208594Y-11205564D01*
X13228950Y-11244681D01*
X13251245Y-11282348D01*
X13275478Y-11318564D01*
X13301651Y-11353331D01*
X13329761Y-11386647D01*
X13359811Y-11418513D01*
X13391559Y-11448563D01*
X13424764Y-11476673D01*
X13459428Y-11502846D01*
X13495549Y-11527079D01*
X13533128Y-11549374D01*
X13572165Y-11569730D01*
X13612659Y-11588147D01*
X13654612Y-11604626D01*
X13698022Y-11619166D01*
X13742891Y-11631768D01*
X13789217Y-11642430D01*
X13837000Y-11651154D01*
X13886242Y-11657940D01*
X13936941Y-11662786D01*
X13989099Y-11665695D01*
X14042714Y-11666664D01*
X15337201Y-11666664D01*
X15390820Y-11665695D01*
X15442989Y-11662786D01*
X15493707Y-11657940D01*
X15542976Y-11651154D01*
X15590794Y-11642430D01*
X15637162Y-11631768D01*
X15682080Y-11619166D01*
X15725547Y-11604626D01*
X15767565Y-11588147D01*
X15808132Y-11569730D01*
X15847249Y-11549374D01*
X15884916Y-11527079D01*
X15921132Y-11502846D01*
X15955899Y-11476673D01*
X15989215Y-11448563D01*
X16021081Y-11418513D01*
X16051130Y-11386647D01*
X16079241Y-11353331D01*
X16105413Y-11318564D01*
X16129647Y-11282348D01*
X16151942Y-11244681D01*
X16172298Y-11205564D01*
X16190715Y-11164997D01*
X16207194Y-11122979D01*
X16221734Y-11079512D01*
X16234335Y-11034594D01*
X16244998Y-10988226D01*
X16253722Y-10940408D01*
X16260508Y-10891139D01*
X16265354Y-10840421D01*
X16268262Y-10788252D01*
X16269232Y-10734633D01*
X16269232Y-9440146D01*
X16268262Y-9386531D01*
X16265354Y-9334374D01*
X16260508Y-9283674D01*
X16253722Y-9234433D01*
X16244998Y-9186649D01*
X16234335Y-9140323D01*
X16221734Y-9095455D01*
X16207194Y-9052044D01*
X16190715Y-9010092D01*
X16172298Y-8969597D01*
X16151942Y-8930560D01*
X16129647Y-8892981D01*
X16105413Y-8856860D01*
X16079241Y-8822196D01*
X16051130Y-8788991D01*
X16021081Y-8757243D01*
X15989215Y-8727194D01*
X15955899Y-8699083D01*
X15921132Y-8672911D01*
X15884916Y-8648677D01*
X15847249Y-8626382D01*
X15808132Y-8606026D01*
X15767565Y-8587609D01*
X15725547Y-8571130D01*
X15706564Y-8564780D01*
X16584793Y-8564780D01*
X16584793Y-9387390D01*
X18106915Y-9387390D01*
X18152481Y-9390412D01*
X18191972Y-9399480D01*
X18232792Y-9419315D01*
X18264119Y-9448595D01*
X18285953Y-9487321D01*
X18296586Y-9525102D01*
X18301142Y-9568929D01*
X18301332Y-9580830D01*
X18301332Y-10677969D01*
X18296753Y-10720673D01*
X18283014Y-10758416D01*
X18260116Y-10791198D01*
X18254438Y-10797159D01*
X18222228Y-10821889D01*
X18185439Y-10837459D01*
X18144070Y-10843871D01*
X18135247Y-10844054D01*
X18070000Y-10843714D01*
X18000532Y-10842695D01*
X17926843Y-10840997D01*
X17848933Y-10838620D01*
X17808396Y-10837176D01*
X17766803Y-10835563D01*
X17724155Y-10833780D01*
X17680452Y-10831827D01*
X17635693Y-10829704D01*
X17589879Y-10827411D01*
X17543011Y-10824949D01*
X17495087Y-10822316D01*
X17446107Y-10819514D01*
X17396073Y-10816542D01*
X17344983Y-10813400D01*
X17292838Y-10810089D01*
X17239638Y-10806607D01*
X17185383Y-10802956D01*
X17130072Y-10799135D01*
X17073707Y-10795144D01*
X17016286Y-10790984D01*
X16957810Y-10786653D01*
X16898278Y-10782153D01*
X16837692Y-10777482D01*
X16776050Y-10772642D01*
X16713353Y-10767633D01*
X16649601Y-10762453D01*
X16584793Y-10757103D01*
X16584793Y-11550404D01*
X16652120Y-11557557D01*
X16718909Y-11564483D01*
X16785163Y-11571181D01*
X16850881Y-11577653D01*
X16916062Y-11583897D01*
X16980707Y-11589914D01*
X17044816Y-11595705D01*
X17108389Y-11601268D01*
X17171426Y-11606604D01*
X17233926Y-11611713D01*
X17295890Y-11616595D01*
X17357318Y-11621250D01*
X17418210Y-11625678D01*
X17478566Y-11629879D01*
X17538385Y-11633852D01*
X17597669Y-11637599D01*
X17656416Y-11641119D01*
X17714627Y-11644411D01*
X17772301Y-11647476D01*
X17829440Y-11650315D01*
X17886042Y-11652926D01*
X17942108Y-11655310D01*
X17997638Y-11657468D01*
X18052632Y-11659398D01*
X18107089Y-11661101D01*
X18161011Y-11662577D01*
X18214396Y-11663825D01*
X18267245Y-11664847D01*
X18319558Y-11665642D01*
X18371334Y-11666210D01*
X18422575Y-11666550D01*
X18473279Y-11666664D01*
X18522013Y-11665725D01*
X18569541Y-11662909D01*
X18615864Y-11658215D01*
X18660980Y-11651643D01*
X18704890Y-11643194D01*
X18747594Y-11632867D01*
X18789093Y-11620662D01*
X18829385Y-11606580D01*
X18868472Y-11590620D01*
X18906352Y-11572783D01*
X18943027Y-11553068D01*
X18978495Y-11531475D01*
X19012758Y-11508005D01*
X19045815Y-11482657D01*
X19077666Y-11455432D01*
X19108311Y-11426329D01*
X19137414Y-11395684D01*
X19164639Y-11363833D01*
X19189987Y-11330776D01*
X19213457Y-11296514D01*
X19235050Y-11261045D01*
X19254765Y-11224371D01*
X19272602Y-11186490D01*
X19288562Y-11147404D01*
X19302644Y-11107111D01*
X19314848Y-11065613D01*
X19325175Y-11022908D01*
X19333625Y-10978998D01*
X19340196Y-10933882D01*
X19344890Y-10887560D01*
X19347707Y-10840032D01*
X19348646Y-10791297D01*
X19348646Y-10703370D01*
X19673000Y-10703370D01*
X19673000Y-11610000D01*
X20748646Y-11610000D01*
X20748646Y-10703370D01*
X19673000Y-10703370D01*
X19348646Y-10703370D01*
X19348646Y-10509930D01*
X21060299Y-10509930D01*
X21061379Y-10584008D01*
X21064619Y-10655544D01*
X21070019Y-10724539D01*
X21077580Y-10790992D01*
X21087300Y-10854904D01*
X21099180Y-10916273D01*
X21113220Y-10975102D01*
X21129420Y-11031388D01*
X21147780Y-11085133D01*
X21168301Y-11136336D01*
X21190981Y-11184998D01*
X21215821Y-11231118D01*
X21242821Y-11274696D01*
X21271982Y-11315733D01*
X21303302Y-11354228D01*
X21336782Y-11390181D01*
X21372621Y-11423661D01*
X21411017Y-11454982D01*
X21451969Y-11484142D01*
X21495479Y-11511142D01*
X21541546Y-11535982D01*
X21590169Y-11558663D01*
X21641349Y-11579183D01*
X21695087Y-11597543D01*
X21751381Y-11613743D01*
X21810232Y-11627783D01*
X21871640Y-11639664D01*
X21935605Y-11649384D01*
X22002127Y-11656944D01*
X22071205Y-11662344D01*
X22142841Y-11665584D01*
X22217033Y-11666664D01*
X23623872Y-11666664D01*
X23697950Y-11665584D01*
X23769487Y-11662344D01*
X23838482Y-11656944D01*
X23904935Y-11649384D01*
X23968846Y-11639664D01*
X24030216Y-11627783D01*
X24089044Y-11613743D01*
X24145331Y-11597543D01*
X24199076Y-11579183D01*
X24250279Y-11558663D01*
X24298940Y-11535982D01*
X24345060Y-11511142D01*
X24388639Y-11484142D01*
X24429675Y-11454982D01*
X24468170Y-11423661D01*
X24504124Y-11390181D01*
X24537604Y-11354228D01*
X24568924Y-11315733D01*
X24598085Y-11274696D01*
X24625085Y-11231118D01*
X24649925Y-11184998D01*
X24672605Y-11136336D01*
X24693126Y-11085133D01*
X24711486Y-11031388D01*
X24727686Y-10975102D01*
X24741726Y-10916273D01*
X24753606Y-10854904D01*
X24763326Y-10790992D01*
X24770886Y-10724539D01*
X24776286Y-10655544D01*
X24779526Y-10584008D01*
X24780606Y-10509930D01*
X24780606Y-8708394D01*
X24779526Y-8634320D01*
X24776286Y-8562795D01*
X24770886Y-8493820D01*
X24763326Y-8427393D01*
X24753606Y-8363516D01*
X24741726Y-8302188D01*
X24727686Y-8243410D01*
X24711486Y-8187180D01*
X24693126Y-8133500D01*
X24672605Y-8082370D01*
X24649925Y-8033788D01*
X24625085Y-7987756D01*
X24598085Y-7944273D01*
X24568924Y-7903340D01*
X24537604Y-7864955D01*
X24504124Y-7829120D01*
X24468170Y-7795522D01*
X24429675Y-7764091D01*
X24388639Y-7734827D01*
X24345060Y-7707732D01*
X24298940Y-7682803D01*
X24250279Y-7660043D01*
X24199076Y-7639450D01*
X24145331Y-7621025D01*
X24101359Y-7608325D01*
X25097145Y-7608325D01*
X25097145Y-8458290D01*
X25603216Y-8458290D01*
X25603216Y-10760034D01*
X25097145Y-10760034D01*
X25097145Y-11610000D01*
X27184933Y-11610000D01*
X27496587Y-11610000D01*
X28543900Y-11610000D01*
X28543900Y-9552498D01*
X28548480Y-9510309D01*
X28562218Y-9472890D01*
X28585116Y-9440241D01*
X28590795Y-9434284D01*
X28622489Y-9409555D01*
X28658954Y-9393984D01*
X28700189Y-9387573D01*
X28709008Y-9387390D01*
X28906357Y-9387390D01*
X28961818Y-9388308D01*
X29018292Y-9391065D01*
X29075780Y-9395659D01*
X29114668Y-9399742D01*
X29154006Y-9404642D01*
X29193795Y-9410359D01*
X29234034Y-9416892D01*
X29274723Y-9424243D01*
X29315863Y-9432409D01*
X29357453Y-9441393D01*
X29399493Y-9451193D01*
X29441984Y-9461810D01*
X29484925Y-9473244D01*
X29528316Y-9485494D01*
X29550181Y-9491926D01*
X29550181Y-11610000D01*
X30597494Y-11610000D01*
X30597494Y-8677131D01*
X31086957Y-8677131D01*
X31086957Y-11610000D01*
X32134270Y-11610000D01*
X32134270Y-9499741D01*
X32556322Y-9499741D01*
X32556322Y-8677131D01*
X31086957Y-8677131D01*
X30597494Y-8677131D01*
X30597494Y-8564780D01*
X29668394Y-8564780D01*
X29616615Y-8825631D01*
X29573103Y-8798013D01*
X29528664Y-8771581D01*
X29483298Y-8746333D01*
X29437005Y-8722271D01*
X29389784Y-8699393D01*
X29341636Y-8677700D01*
X29292560Y-8657192D01*
X29242557Y-8637869D01*
X29191627Y-8619731D01*
X29139769Y-8602779D01*
X29104682Y-8592135D01*
X29052323Y-8577294D01*
X29001493Y-8563913D01*
X28952191Y-8551992D01*
X28904418Y-8541531D01*
X28858173Y-8532529D01*
X28813457Y-8524987D01*
X28770268Y-8518905D01*
X28728609Y-8514282D01*
X28688478Y-8511120D01*
X28637347Y-8509173D01*
X28624989Y-8509092D01*
X28371953Y-8509092D01*
X28323105Y-8510031D01*
X28275477Y-8512848D01*
X28229071Y-8517542D01*
X28183886Y-8524113D01*
X28139923Y-8532563D01*
X28097180Y-8542889D01*
X28055659Y-8555094D01*
X28015359Y-8569176D01*
X27976280Y-8585136D01*
X27938422Y-8602973D01*
X27901786Y-8622688D01*
X27866371Y-8644281D01*
X27832177Y-8667751D01*
X27799204Y-8693099D01*
X27767452Y-8720324D01*
X27736922Y-8749427D01*
X27707819Y-8779958D01*
X27680593Y-8811709D01*
X27655246Y-8844682D01*
X27631775Y-8878876D01*
X27610183Y-8914291D01*
X27590468Y-8950928D01*
X27572630Y-8988785D01*
X27556671Y-9027864D01*
X27542588Y-9068164D01*
X27530384Y-9109685D01*
X27520057Y-9152428D01*
X27511608Y-9196392D01*
X27505036Y-9241577D01*
X27500342Y-9287983D01*
X27497526Y-9335610D01*
X27496587Y-9384459D01*
X27496587Y-11610000D01*
X27184933Y-11610000D01*
X27184933Y-10760034D01*
X26678862Y-10760034D01*
X26678862Y-8458290D01*
X27184933Y-8458290D01*
X27184933Y-7608325D01*
X25097145Y-7608325D01*
X24101359Y-7608325D01*
X24089044Y-7604768D01*
X24030216Y-7590678D01*
X23968846Y-7578756D01*
X23904935Y-7569002D01*
X23838482Y-7561415D01*
X23769487Y-7555996D01*
X23697950Y-7552744D01*
X23623872Y-7551660D01*
X31086957Y-7551660D01*
X31086957Y-8402602D01*
X32134270Y-8402602D01*
X32134270Y-7608325D01*
X32920732Y-7608325D01*
X32920732Y-10509930D01*
X32921812Y-10584008D01*
X32925052Y-10655544D01*
X32930452Y-10724539D01*
X32938012Y-10790992D01*
X32947732Y-10854904D01*
X32959612Y-10916273D01*
X32973653Y-10975102D01*
X32989853Y-11031388D01*
X33008213Y-11085133D01*
X33028733Y-11136336D01*
X33051413Y-11184998D01*
X33076254Y-11231118D01*
X33103254Y-11274696D01*
X33132414Y-11315733D01*
X33163735Y-11354228D01*
X33197215Y-11390181D01*
X33233054Y-11423661D01*
X33271449Y-11454982D01*
X33312402Y-11484142D01*
X33355912Y-11511142D01*
X33401978Y-11535982D01*
X33450602Y-11558663D01*
X33501782Y-11579183D01*
X33555519Y-11597543D01*
X33611813Y-11613743D01*
X33670664Y-11627783D01*
X33732072Y-11639664D01*
X33796037Y-11649384D01*
X33862559Y-11656944D01*
X33931638Y-11662344D01*
X34003274Y-11665584D01*
X34077466Y-11666664D01*
X35370976Y-11666664D01*
X35445169Y-11665584D01*
X35516805Y-11662344D01*
X35585883Y-11656944D01*
X35652405Y-11649384D01*
X35716370Y-11639664D01*
X35777778Y-11627783D01*
X35836629Y-11613743D01*
X35892923Y-11597543D01*
X35946660Y-11579183D01*
X35997841Y-11558663D01*
X36046464Y-11535982D01*
X36092531Y-11511142D01*
X36136040Y-11484142D01*
X36176993Y-11454982D01*
X36215389Y-11423661D01*
X36251227Y-11390181D01*
X36284708Y-11354228D01*
X36316028Y-11315733D01*
X36345188Y-11274696D01*
X36372189Y-11231118D01*
X36397029Y-11184998D01*
X36419709Y-11136336D01*
X36440229Y-11085133D01*
X36458590Y-11031388D01*
X36474790Y-10975102D01*
X36488830Y-10916273D01*
X36500710Y-10854904D01*
X36510430Y-10790992D01*
X36517990Y-10724539D01*
X36523390Y-10655544D01*
X36526630Y-10584008D01*
X36527710Y-10509930D01*
X36527710Y-7608325D01*
X35453042Y-7608325D01*
X35453042Y-10509930D01*
X35450346Y-10564578D01*
X35442257Y-10613851D01*
X35428776Y-10657749D01*
X35409902Y-10696272D01*
X35385637Y-10729419D01*
X35355978Y-10757191D01*
X35320927Y-10779588D01*
X35280484Y-10796610D01*
X35234649Y-10808256D01*
X35183421Y-10814527D01*
X35146273Y-10815722D01*
X34302170Y-10815722D01*
X34247347Y-10813034D01*
X34197916Y-10804971D01*
X34153878Y-10791533D01*
X34115232Y-10772720D01*
X34081979Y-10748531D01*
X34054118Y-10718967D01*
X34031650Y-10684028D01*
X34014574Y-10643714D01*
X34002890Y-10598024D01*
X33996599Y-10546959D01*
X33995401Y-10509930D01*
X33995401Y-7608325D01*
X32920732Y-7608325D01*
X32134270Y-7608325D01*
X32134270Y-7551660D01*
X31086957Y-7551660D01*
X23623872Y-7551660D01*
X22217033Y-7551660D01*
X22142841Y-7552744D01*
X22071205Y-7555996D01*
X22002127Y-7561415D01*
X21935605Y-7569002D01*
X21871640Y-7578756D01*
X21810232Y-7590678D01*
X21751381Y-7604768D01*
X21695087Y-7621025D01*
X21641349Y-7639450D01*
X21590169Y-7660043D01*
X21541546Y-7682803D01*
X21495479Y-7707732D01*
X21451969Y-7734827D01*
X21411017Y-7764091D01*
X21372621Y-7795522D01*
X21336782Y-7829120D01*
X21303302Y-7864955D01*
X21271982Y-7903340D01*
X21242821Y-7944273D01*
X21215821Y-7987756D01*
X21190981Y-8033788D01*
X21168301Y-8082370D01*
X21147780Y-8133500D01*
X21129420Y-8187180D01*
X21113220Y-8243410D01*
X21099180Y-8302188D01*
X21087300Y-8363516D01*
X21077580Y-8427393D01*
X21070019Y-8493820D01*
X21064619Y-8562795D01*
X21061379Y-8634320D01*
X21060299Y-8708394D01*
X21060299Y-10509930D01*
X19348646Y-10509930D01*
X19348646Y-9496810D01*
X19347676Y-9443195D01*
X19344768Y-9391038D01*
X19339921Y-9340338D01*
X19333136Y-9291097D01*
X19324412Y-9243313D01*
X19313749Y-9196987D01*
X19301148Y-9152119D01*
X19286608Y-9108709D01*
X19270129Y-9066756D01*
X19251712Y-9026261D01*
X19231356Y-8987224D01*
X19209061Y-8949645D01*
X19184827Y-8913524D01*
X19158655Y-8878861D01*
X19130544Y-8845655D01*
X19100495Y-8813907D01*
X19068629Y-8783740D01*
X19035312Y-8755518D01*
X19000546Y-8729243D01*
X18964329Y-8704914D01*
X18926663Y-8682531D01*
X18887546Y-8662095D01*
X18846978Y-8643605D01*
X18804961Y-8627062D01*
X18761493Y-8612464D01*
X18716576Y-8599813D01*
X18670208Y-8589109D01*
X18622389Y-8580350D01*
X18573121Y-8573538D01*
X18522402Y-8568672D01*
X18470234Y-8565753D01*
X18416615Y-8564780D01*
X16584793Y-8564780D01*
X15706564Y-8564780D01*
X15682080Y-8556590D01*
X15637162Y-8543989D01*
X15590794Y-8533326D01*
X15542976Y-8524602D01*
X15493707Y-8517816D01*
X15442989Y-8512970D01*
X15390820Y-8510062D01*
X15337201Y-8509092D01*
X14042714Y-8509092D01*
X13989099Y-8510062D01*
X13936941Y-8512970D01*
X13886242Y-8517816D01*
X13837000Y-8524602D01*
X13789217Y-8533326D01*
X13742891Y-8543989D01*
X13698022Y-8556590D01*
X13654612Y-8571130D01*
X13612659Y-8587609D01*
X13572165Y-8606026D01*
X13533128Y-8626382D01*
X13495549Y-8648677D01*
X13459428Y-8672911D01*
X13424764Y-8699083D01*
X13391559Y-8727194D01*
X13359811Y-8757243D01*
X13329761Y-8788991D01*
X13301651Y-8822196D01*
X13275478Y-8856860D01*
X13251245Y-8892981D01*
X13228950Y-8930560D01*
X13208594Y-8969597D01*
X13190177Y-9010092D01*
X13173698Y-9052044D01*
X13159158Y-9095455D01*
X13146556Y-9140323D01*
X13135894Y-9186649D01*
X13127170Y-9234433D01*
X13120384Y-9283674D01*
X13115538Y-9334374D01*
X13112629Y-9386531D01*
X13111660Y-9440146D01*
X13111660Y-10650614D01*
X13111660Y-10734633D01*
X12687655Y-10734633D01*
X12687655Y-8564780D01*
X11758555Y-8564780D01*
X11706775Y-8825631D01*
X11663264Y-8798013D01*
X11618825Y-8771581D01*
X11573459Y-8746333D01*
X11527165Y-8722271D01*
X11479944Y-8699393D01*
X11431796Y-8677700D01*
X11382720Y-8657192D01*
X11332717Y-8637869D01*
X11281787Y-8619731D01*
X11229929Y-8602779D01*
X11194842Y-8592135D01*
X11142484Y-8577294D01*
X11091654Y-8563913D01*
X11042352Y-8551992D01*
X10994578Y-8541531D01*
X10948334Y-8532529D01*
X10903617Y-8524987D01*
X10860429Y-8518905D01*
X10818769Y-8514282D01*
X10778638Y-8511120D01*
X10727507Y-8509173D01*
X10715149Y-8509092D01*
X10658485Y-8509092D01*
X10600523Y-8510363D01*
X10544363Y-8514176D01*
X10490003Y-8520530D01*
X10437445Y-8529426D01*
X10386689Y-8540863D01*
X10337733Y-8554842D01*
X10290579Y-8571363D01*
X10245226Y-8590425D01*
X10201675Y-8612029D01*
X10159924Y-8636175D01*
X10119975Y-8662862D01*
X10081828Y-8692091D01*
X10045481Y-8723862D01*
X10010936Y-8758174D01*
X9978192Y-8795028D01*
X9947250Y-8834424D01*
X9901969Y-8805069D01*
X9855521Y-8777088D01*
X9807905Y-8750481D01*
X9759122Y-8725247D01*
X9709170Y-8701388D01*
X9658051Y-8678902D01*
X9605764Y-8657790D01*
X9552309Y-8638053D01*
X9497687Y-8619689D01*
X9441896Y-8602698D01*
X9404054Y-8592135D01*
X9366085Y-8582079D01*
X9310092Y-8568211D01*
X9255249Y-8555804D01*
X9201556Y-8544856D01*
X9149015Y-8535367D01*
X9097623Y-8527339D01*
X9047383Y-8520770D01*
X8998293Y-8515661D01*
X8950354Y-8512012D01*
X8903565Y-8509822D01*
X8857927Y-8509092D01*
X8801262Y-8509092D01*
X8752528Y-8510031D01*
X8705000Y-8512848D01*
X8658678Y-8517542D01*
X8613562Y-8524113D01*
X8569651Y-8532563D01*
X8526947Y-8542889D01*
X8485449Y-8555094D01*
X8445156Y-8569176D01*
X8406070Y-8585136D01*
X8368189Y-8602973D01*
X8331515Y-8622688D01*
X8296046Y-8644281D01*
X8261783Y-8667751D01*
X8228727Y-8693099D01*
X8196876Y-8720324D01*
X8166231Y-8749427D01*
X8137128Y-8779958D01*
X8109902Y-8811709D01*
X8084555Y-8844682D01*
X8061084Y-8878876D01*
X8039492Y-8914291D01*
X8019777Y-8950928D01*
X8001940Y-8988785D01*
X7985980Y-9027864D01*
X7971898Y-9068164D01*
X7959693Y-9109685D01*
X7949366Y-9152428D01*
X7940917Y-9196392D01*
X7934345Y-9241577D01*
X7929651Y-9287983D01*
X7926835Y-9335610D01*
X7925896Y-9384459D01*
X7925896Y-11610000D01*
X7354467Y-11610000D01*
X7354467Y-6980231D01*
X37099139Y-6980231D01*
X37099139Y-12238093D01*
G37*
D12*
G36*
X42977767Y-19620101D02*
G01*
X42997729Y-19621889D01*
X43017469Y-19623620D01*
X43036985Y-19625295D01*
X43056279Y-19626913D01*
X43075351Y-19628474D01*
X43094199Y-19629978D01*
X43112825Y-19631426D01*
X43131228Y-19632817D01*
X43149408Y-19634151D01*
X43167365Y-19635428D01*
X43185100Y-19636648D01*
X43202611Y-19637812D01*
X43219900Y-19638919D01*
X43236967Y-19639969D01*
X43253810Y-19640963D01*
X43270431Y-19641899D01*
X43286829Y-19642779D01*
X43303004Y-19643602D01*
X43318956Y-19644369D01*
X43334686Y-19645078D01*
X43350192Y-19645731D01*
X43365476Y-19646327D01*
X43380538Y-19646867D01*
X43395376Y-19647349D01*
X43409992Y-19647775D01*
X43424385Y-19648144D01*
X43438555Y-19648456D01*
X43452502Y-19648711D01*
X43466227Y-19648910D01*
X43479729Y-19649052D01*
X43493008Y-19649137D01*
X43506064Y-19649166D01*
X43523421Y-19648904D01*
X43540201Y-19648120D01*
X43556402Y-19646813D01*
X43572025Y-19644983D01*
X43587070Y-19642630D01*
X43601536Y-19639755D01*
X43615425Y-19636356D01*
X43628735Y-19632435D01*
X43641467Y-19627991D01*
X43653621Y-19623024D01*
X43665197Y-19617534D01*
X43676194Y-19611522D01*
X43686614Y-19604986D01*
X43696455Y-19597928D01*
X43705718Y-19590347D01*
X43714403Y-19582243D01*
X43722507Y-19573558D01*
X43730088Y-19564295D01*
X43737146Y-19554454D01*
X43743682Y-19544034D01*
X43749694Y-19533037D01*
X43755184Y-19521461D01*
X43760151Y-19509307D01*
X43764595Y-19496575D01*
X43768516Y-19483265D01*
X43771915Y-19469376D01*
X43774790Y-19454910D01*
X43777143Y-19439865D01*
X43778973Y-19424242D01*
X43780280Y-19408041D01*
X43781064Y-19391261D01*
X43781326Y-19373904D01*
X43781326Y-18923764D01*
X43781056Y-18905216D01*
X43780246Y-18887307D01*
X43778896Y-18870038D01*
X43777006Y-18853407D01*
X43774576Y-18837416D01*
X43771606Y-18822064D01*
X43768096Y-18807351D01*
X43764045Y-18793278D01*
X43759455Y-18779843D01*
X43754325Y-18767048D01*
X43748655Y-18754892D01*
X43742445Y-18743376D01*
X43735695Y-18732498D01*
X43728405Y-18722260D01*
X43720575Y-18712661D01*
X43712205Y-18703702D01*
X43703217Y-18695331D01*
X43693593Y-18687501D01*
X43683334Y-18680211D01*
X43672439Y-18673461D01*
X43660909Y-18667251D01*
X43648744Y-18661581D01*
X43635943Y-18656451D01*
X43622507Y-18651861D01*
X43608435Y-18647811D01*
X43593728Y-18644301D01*
X43578386Y-18641331D01*
X43562408Y-18638901D01*
X43545794Y-18637011D01*
X43528546Y-18635661D01*
X43510662Y-18634851D01*
X43492142Y-18634581D01*
X42977767Y-18634581D01*
X42977767Y-18847072D01*
X43435722Y-18847072D01*
X43449428Y-18847746D01*
X43461785Y-18849768D01*
X43472795Y-18853139D01*
X43482456Y-18857857D01*
X43490770Y-18863923D01*
X43497735Y-18871338D01*
X43503352Y-18880101D01*
X43507621Y-18890211D01*
X43510542Y-18901670D01*
X43512115Y-18914477D01*
X43512414Y-18923764D01*
X43512414Y-19373904D01*
X43511830Y-19384448D01*
X43510079Y-19394100D01*
X43506559Y-19404231D01*
X43501450Y-19413147D01*
X43495806Y-19419822D01*
X43487907Y-19426293D01*
X43478956Y-19431175D01*
X43468953Y-19434468D01*
X43457899Y-19436171D01*
X43451109Y-19436430D01*
X43440336Y-19436404D01*
X43429082Y-19436327D01*
X43417347Y-19436198D01*
X43407200Y-19436052D01*
X43396719Y-19435869D01*
X43388095Y-19435697D01*
X43377038Y-19435456D01*
X43365850Y-19435192D01*
X43354532Y-19434903D01*
X43343081Y-19434591D01*
X43331500Y-19434254D01*
X43319788Y-19433894D01*
X43315066Y-19433743D01*
X43303153Y-19433285D01*
X43291229Y-19432827D01*
X43279292Y-19432370D01*
X43267343Y-19431912D01*
X43255383Y-19431454D01*
X43243410Y-19430996D01*
X43238618Y-19430812D01*
X43228616Y-19430404D01*
X43217903Y-19429912D01*
X43206481Y-19429336D01*
X43194349Y-19428675D01*
X43181507Y-19427931D01*
X43171410Y-19427318D01*
X43160914Y-19426657D01*
X43150018Y-19425950D01*
X43138723Y-19425195D01*
X43126891Y-19424399D01*
X43114385Y-19423569D01*
X43101205Y-19422705D01*
X43087352Y-19421806D01*
X43072824Y-19420873D01*
X43062764Y-19420232D01*
X43052405Y-19419575D01*
X43041746Y-19418904D01*
X43030787Y-19418217D01*
X43019529Y-19417515D01*
X43007971Y-19416797D01*
X42996114Y-19416064D01*
X42983957Y-19415316D01*
X42977767Y-19414937D01*
X42977767Y-19620101D01*
G37*
G36*
X42011786Y-19635000D02*
G01*
X42280698Y-19635000D01*
X42280698Y-19233953D01*
X42616776Y-19233953D01*
X42616776Y-19635000D01*
X42885443Y-19635000D01*
X42885443Y-18634581D01*
X42616776Y-18634581D01*
X42616776Y-19021461D01*
X42280698Y-19021461D01*
X42280698Y-18634581D01*
X42011786Y-18634581D01*
X42011786Y-19635000D01*
G37*
G36*
X41716008Y-19635000D02*
G01*
X41716008Y-18871496D01*
X41874277Y-18926451D01*
X41950481Y-18750840D01*
X41681570Y-18634581D01*
X41447097Y-18634581D01*
X41447097Y-19635000D01*
X41716008Y-19635000D01*
G37*
G36*
X42977767Y-6920101D02*
G01*
X42997729Y-6921889D01*
X43017469Y-6923620D01*
X43036985Y-6925295D01*
X43056279Y-6926913D01*
X43075351Y-6928474D01*
X43094199Y-6929978D01*
X43112825Y-6931426D01*
X43131228Y-6932817D01*
X43149408Y-6934151D01*
X43167365Y-6935428D01*
X43185100Y-6936648D01*
X43202611Y-6937812D01*
X43219900Y-6938919D01*
X43236967Y-6939969D01*
X43253810Y-6940963D01*
X43270431Y-6941899D01*
X43286829Y-6942779D01*
X43303004Y-6943602D01*
X43318956Y-6944369D01*
X43334686Y-6945078D01*
X43350192Y-6945731D01*
X43365476Y-6946327D01*
X43380538Y-6946867D01*
X43395376Y-6947349D01*
X43409992Y-6947775D01*
X43424385Y-6948144D01*
X43438555Y-6948456D01*
X43452502Y-6948711D01*
X43466227Y-6948910D01*
X43479729Y-6949052D01*
X43493008Y-6949137D01*
X43506064Y-6949166D01*
X43523421Y-6948904D01*
X43540201Y-6948120D01*
X43556402Y-6946813D01*
X43572025Y-6944983D01*
X43587070Y-6942630D01*
X43601536Y-6939755D01*
X43615425Y-6936356D01*
X43628735Y-6932435D01*
X43641467Y-6927991D01*
X43653621Y-6923024D01*
X43665197Y-6917534D01*
X43676194Y-6911522D01*
X43686614Y-6904986D01*
X43696455Y-6897928D01*
X43705718Y-6890347D01*
X43714403Y-6882243D01*
X43722507Y-6873558D01*
X43730088Y-6864295D01*
X43737146Y-6854454D01*
X43743682Y-6844034D01*
X43749694Y-6833037D01*
X43755184Y-6821461D01*
X43760151Y-6809307D01*
X43764595Y-6796575D01*
X43768516Y-6783265D01*
X43771915Y-6769376D01*
X43774790Y-6754910D01*
X43777143Y-6739865D01*
X43778973Y-6724242D01*
X43780280Y-6708041D01*
X43781064Y-6691261D01*
X43781326Y-6673904D01*
X43781326Y-6223764D01*
X43781056Y-6205216D01*
X43780246Y-6187307D01*
X43778896Y-6170038D01*
X43777006Y-6153407D01*
X43774576Y-6137416D01*
X43771606Y-6122064D01*
X43768096Y-6107351D01*
X43764045Y-6093278D01*
X43759455Y-6079843D01*
X43754325Y-6067048D01*
X43748655Y-6054892D01*
X43742445Y-6043376D01*
X43735695Y-6032498D01*
X43728405Y-6022260D01*
X43720575Y-6012661D01*
X43712205Y-6003702D01*
X43703217Y-5995331D01*
X43693593Y-5987501D01*
X43683334Y-5980211D01*
X43672439Y-5973461D01*
X43660909Y-5967251D01*
X43648744Y-5961581D01*
X43635943Y-5956451D01*
X43622507Y-5951861D01*
X43608435Y-5947811D01*
X43593728Y-5944301D01*
X43578386Y-5941331D01*
X43562408Y-5938901D01*
X43545794Y-5937011D01*
X43528546Y-5935661D01*
X43510662Y-5934851D01*
X43492142Y-5934581D01*
X42977767Y-5934581D01*
X42977767Y-6147072D01*
X43435722Y-6147072D01*
X43449428Y-6147746D01*
X43461785Y-6149768D01*
X43472795Y-6153139D01*
X43482456Y-6157857D01*
X43490770Y-6163923D01*
X43497735Y-6171338D01*
X43503352Y-6180101D01*
X43507621Y-6190211D01*
X43510542Y-6201670D01*
X43512115Y-6214477D01*
X43512414Y-6223764D01*
X43512414Y-6673904D01*
X43511830Y-6684448D01*
X43510079Y-6694100D01*
X43506559Y-6704231D01*
X43501450Y-6713147D01*
X43495806Y-6719822D01*
X43487907Y-6726293D01*
X43478956Y-6731175D01*
X43468953Y-6734468D01*
X43457899Y-6736171D01*
X43451109Y-6736430D01*
X43440336Y-6736404D01*
X43429082Y-6736327D01*
X43417347Y-6736198D01*
X43407200Y-6736052D01*
X43396719Y-6735869D01*
X43388095Y-6735697D01*
X43377038Y-6735456D01*
X43365850Y-6735192D01*
X43354532Y-6734903D01*
X43343081Y-6734591D01*
X43331500Y-6734254D01*
X43319788Y-6733894D01*
X43315066Y-6733743D01*
X43303153Y-6733285D01*
X43291229Y-6732827D01*
X43279292Y-6732370D01*
X43267343Y-6731912D01*
X43255383Y-6731454D01*
X43243410Y-6730996D01*
X43238618Y-6730812D01*
X43228616Y-6730404D01*
X43217903Y-6729912D01*
X43206481Y-6729336D01*
X43194349Y-6728675D01*
X43181507Y-6727931D01*
X43171410Y-6727318D01*
X43160914Y-6726657D01*
X43150018Y-6725950D01*
X43138723Y-6725195D01*
X43126891Y-6724399D01*
X43114385Y-6723569D01*
X43101205Y-6722705D01*
X43087352Y-6721806D01*
X43072824Y-6720873D01*
X43062764Y-6720232D01*
X43052405Y-6719575D01*
X43041746Y-6718904D01*
X43030787Y-6718217D01*
X43019529Y-6717515D01*
X43007971Y-6716797D01*
X42996114Y-6716064D01*
X42983957Y-6715316D01*
X42977767Y-6714937D01*
X42977767Y-6920101D01*
G37*
G36*
X42011786Y-6935000D02*
G01*
X42280698Y-6935000D01*
X42280698Y-6533953D01*
X42616776Y-6533953D01*
X42616776Y-6935000D01*
X42885443Y-6935000D01*
X42885443Y-5934581D01*
X42616776Y-5934581D01*
X42616776Y-6321461D01*
X42280698Y-6321461D01*
X42280698Y-5934581D01*
X42011786Y-5934581D01*
X42011786Y-6935000D01*
G37*
G36*
X41633959Y-5920677D02*
G01*
X41650738Y-5921464D01*
X41666939Y-5922776D01*
X41682562Y-5924613D01*
X41697607Y-5926974D01*
X41712074Y-5929860D01*
X41725962Y-5933271D01*
X41739272Y-5937206D01*
X41752004Y-5941667D01*
X41764158Y-5946652D01*
X41775734Y-5952162D01*
X41786732Y-5958196D01*
X41797151Y-5964755D01*
X41806992Y-5971839D01*
X41816256Y-5979448D01*
X41824940Y-5987581D01*
X41833044Y-5996237D01*
X41840625Y-6005472D01*
X41847684Y-6015288D01*
X41854219Y-6025683D01*
X41860232Y-6036659D01*
X41865721Y-6048215D01*
X41870688Y-6060351D01*
X41875132Y-6073066D01*
X41879054Y-6086362D01*
X41882452Y-6100239D01*
X41885328Y-6114695D01*
X41887680Y-6129731D01*
X41889510Y-6145347D01*
X41890817Y-6161543D01*
X41891602Y-6178320D01*
X41891863Y-6195676D01*
X41891863Y-6688070D01*
X41891602Y-6704236D01*
X41890817Y-6719883D01*
X41889510Y-6735010D01*
X41887680Y-6749619D01*
X41885328Y-6763709D01*
X41882452Y-6777280D01*
X41879054Y-6790331D01*
X41875132Y-6802864D01*
X41870688Y-6814878D01*
X41865721Y-6826372D01*
X41860232Y-6837348D01*
X41854219Y-6847805D01*
X41847684Y-6857742D01*
X41840625Y-6867161D01*
X41833044Y-6876061D01*
X41824940Y-6884441D01*
X41816256Y-6892279D01*
X41806992Y-6899611D01*
X41797151Y-6906437D01*
X41786732Y-6912758D01*
X41775734Y-6918573D01*
X41764158Y-6923883D01*
X41752004Y-6928686D01*
X41739272Y-6932984D01*
X41725962Y-6936777D01*
X41712074Y-6940064D01*
X41697607Y-6942845D01*
X41682562Y-6945120D01*
X41666939Y-6946890D01*
X41650738Y-6948154D01*
X41633959Y-6948913D01*
X41616601Y-6949166D01*
X41349400Y-6949166D01*
X41332043Y-6948913D01*
X41315267Y-6948154D01*
X41299070Y-6946890D01*
X41283454Y-6945120D01*
X41268418Y-6942845D01*
X41253962Y-6940064D01*
X41240086Y-6936777D01*
X41226790Y-6932984D01*
X41214074Y-6928686D01*
X41201938Y-6923883D01*
X41190382Y-6918573D01*
X41179407Y-6912758D01*
X41169011Y-6906437D01*
X41159195Y-6899611D01*
X41149960Y-6892279D01*
X41141305Y-6884441D01*
X41133171Y-6876061D01*
X41125562Y-6867161D01*
X41118478Y-6857742D01*
X41111919Y-6847805D01*
X41105885Y-6837348D01*
X41100375Y-6826372D01*
X41095390Y-6814878D01*
X41090930Y-6802864D01*
X41086994Y-6790331D01*
X41083583Y-6777280D01*
X41080697Y-6763709D01*
X41078336Y-6749619D01*
X41076499Y-6735010D01*
X41075187Y-6719883D01*
X41074400Y-6704236D01*
X41074138Y-6688070D01*
X41074138Y-6659982D01*
X41343049Y-6659982D01*
X41343349Y-6669239D01*
X41344922Y-6682006D01*
X41347843Y-6693428D01*
X41352112Y-6703507D01*
X41357729Y-6712241D01*
X41364694Y-6719632D01*
X41373007Y-6725680D01*
X41382669Y-6730383D01*
X41393678Y-6733742D01*
X41406036Y-6735758D01*
X41419742Y-6736430D01*
X41546259Y-6736430D01*
X41555546Y-6736131D01*
X41568353Y-6734564D01*
X41579812Y-6731652D01*
X41589923Y-6727397D01*
X41598686Y-6721797D01*
X41606100Y-6714854D01*
X41612167Y-6706568D01*
X41616885Y-6696937D01*
X41620255Y-6685962D01*
X41622278Y-6673644D01*
X41622952Y-6659982D01*
X41622952Y-6512215D01*
X41621676Y-6512074D01*
X41611442Y-6510902D01*
X41600846Y-6509637D01*
X41590730Y-6508399D01*
X41579446Y-6506994D01*
X41569577Y-6505750D01*
X41558960Y-6504399D01*
X41556189Y-6504054D01*
X41544936Y-6502781D01*
X41533417Y-6501684D01*
X41521630Y-6500762D01*
X41509576Y-6500016D01*
X41497256Y-6499446D01*
X41484667Y-6499051D01*
X41471812Y-6498831D01*
X41461996Y-6498782D01*
X41384571Y-6498782D01*
X41382336Y-6498829D01*
X41371908Y-6500465D01*
X41362720Y-6504438D01*
X41354773Y-6510750D01*
X41353353Y-6512239D01*
X41347629Y-6520401D01*
X41344194Y-6529756D01*
X41343049Y-6540303D01*
X41343049Y-6659982D01*
X41074138Y-6659982D01*
X41074138Y-6505132D01*
X41074373Y-6492920D01*
X41075077Y-6481013D01*
X41076250Y-6469412D01*
X41077893Y-6458115D01*
X41080005Y-6447124D01*
X41082587Y-6436439D01*
X41085638Y-6426058D01*
X41089159Y-6415983D01*
X41093149Y-6406214D01*
X41097608Y-6396749D01*
X41102537Y-6387590D01*
X41107935Y-6378736D01*
X41113803Y-6370188D01*
X41120140Y-6361945D01*
X41126946Y-6354007D01*
X41134222Y-6346374D01*
X41141883Y-6339098D01*
X41149846Y-6332292D01*
X41158110Y-6325955D01*
X41166675Y-6320088D01*
X41175543Y-6314689D01*
X41184711Y-6309761D01*
X41194181Y-6305301D01*
X41203953Y-6301311D01*
X41214026Y-6297791D01*
X41224401Y-6294740D01*
X41235077Y-6292158D01*
X41246054Y-6290046D01*
X41257333Y-6288403D01*
X41268914Y-6287229D01*
X41280796Y-6286525D01*
X41292980Y-6286290D01*
X41391654Y-6286290D01*
X41404664Y-6286394D01*
X41417868Y-6286703D01*
X41431264Y-6287218D01*
X41444853Y-6287939D01*
X41458634Y-6288866D01*
X41472609Y-6290000D01*
X41486776Y-6291339D01*
X41501135Y-6292885D01*
X41515688Y-6294637D01*
X41530433Y-6296594D01*
X41545371Y-6298758D01*
X41560502Y-6301128D01*
X41575825Y-6303704D01*
X41591341Y-6306486D01*
X41607050Y-6309474D01*
X41622952Y-6312669D01*
X41622952Y-6195676D01*
X41622646Y-6188105D01*
X41621043Y-6177663D01*
X41616769Y-6165451D01*
X41610053Y-6155193D01*
X41600893Y-6146889D01*
X41592421Y-6141943D01*
X41582575Y-6138096D01*
X41571355Y-6135348D01*
X41558762Y-6133700D01*
X41544794Y-6133150D01*
X41541824Y-6133153D01*
X41529772Y-6133216D01*
X41517445Y-6133363D01*
X41504844Y-6133594D01*
X41491968Y-6133908D01*
X41482130Y-6134200D01*
X41472138Y-6134538D01*
X41461992Y-6134924D01*
X41451691Y-6135357D01*
X41441235Y-6135837D01*
X41437019Y-6136200D01*
X41426454Y-6137084D01*
X41415853Y-6137932D01*
X41405216Y-6138744D01*
X41394544Y-6139521D01*
X41383835Y-6140261D01*
X41373091Y-6140966D01*
X41364172Y-6141481D01*
X41352155Y-6142200D01*
X41341845Y-6142836D01*
X41330917Y-6143525D01*
X41319371Y-6144267D01*
X41307206Y-6145063D01*
X41294424Y-6145912D01*
X41284431Y-6146584D01*
X41273987Y-6147235D01*
X41262990Y-6147909D01*
X41251439Y-6148604D01*
X41239334Y-6149320D01*
X41226675Y-6150058D01*
X41213462Y-6150817D01*
X41199696Y-6151597D01*
X41185375Y-6152400D01*
X41175521Y-6152946D01*
X41165420Y-6153503D01*
X41155073Y-6154068D01*
X41144480Y-6154644D01*
X41144480Y-5949480D01*
X41161829Y-5947691D01*
X41179011Y-5945960D01*
X41196025Y-5944285D01*
X41212872Y-5942668D01*
X41229551Y-5941106D01*
X41246063Y-5939602D01*
X41262407Y-5938155D01*
X41278584Y-5936764D01*
X41294594Y-5935430D01*
X41310436Y-5934152D01*
X41326111Y-5932932D01*
X41341618Y-5931768D01*
X41356958Y-5930661D01*
X41372130Y-5929611D01*
X41387135Y-5928618D01*
X41401973Y-5927681D01*
X41416643Y-5926801D01*
X41431146Y-5925978D01*
X41445481Y-5925212D01*
X41459649Y-5924502D01*
X41473649Y-5923849D01*
X41487482Y-5923253D01*
X41501147Y-5922714D01*
X41514645Y-5922231D01*
X41527976Y-5921806D01*
X41541139Y-5921437D01*
X41554135Y-5921124D01*
X41566963Y-5920869D01*
X41579624Y-5920670D01*
X41592117Y-5920528D01*
X41604443Y-5920443D01*
X41616601Y-5920415D01*
X41633959Y-5920677D01*
G37*
G36*
X42977766Y-22160101D02*
G01*
X42997728Y-22161889D01*
X43017468Y-22163620D01*
X43036984Y-22165295D01*
X43056278Y-22166913D01*
X43075350Y-22168474D01*
X43094198Y-22169978D01*
X43112824Y-22171426D01*
X43131227Y-22172817D01*
X43149407Y-22174151D01*
X43167364Y-22175428D01*
X43185099Y-22176648D01*
X43202610Y-22177812D01*
X43219899Y-22178919D01*
X43236966Y-22179969D01*
X43253809Y-22180963D01*
X43270430Y-22181899D01*
X43286828Y-22182779D01*
X43303003Y-22183602D01*
X43318955Y-22184369D01*
X43334685Y-22185078D01*
X43350191Y-22185731D01*
X43365475Y-22186327D01*
X43380537Y-22186867D01*
X43395375Y-22187349D01*
X43409991Y-22187775D01*
X43424384Y-22188144D01*
X43438554Y-22188456D01*
X43452501Y-22188711D01*
X43466226Y-22188910D01*
X43479728Y-22189052D01*
X43493007Y-22189137D01*
X43506063Y-22189166D01*
X43523420Y-22188904D01*
X43540200Y-22188120D01*
X43556401Y-22186813D01*
X43572024Y-22184983D01*
X43587069Y-22182630D01*
X43601535Y-22179755D01*
X43615424Y-22176356D01*
X43628734Y-22172435D01*
X43641466Y-22167991D01*
X43653620Y-22163024D01*
X43665196Y-22157534D01*
X43676193Y-22151522D01*
X43686613Y-22144986D01*
X43696454Y-22137928D01*
X43705717Y-22130347D01*
X43714402Y-22122243D01*
X43722506Y-22113558D01*
X43730087Y-22104295D01*
X43737145Y-22094454D01*
X43743681Y-22084034D01*
X43749693Y-22073037D01*
X43755183Y-22061461D01*
X43760150Y-22049307D01*
X43764594Y-22036575D01*
X43768515Y-22023265D01*
X43771914Y-22009376D01*
X43774789Y-21994910D01*
X43777142Y-21979865D01*
X43778972Y-21964242D01*
X43780279Y-21948041D01*
X43781063Y-21931261D01*
X43781325Y-21913904D01*
X43781325Y-21463764D01*
X43781055Y-21445216D01*
X43780245Y-21427307D01*
X43778895Y-21410038D01*
X43777005Y-21393407D01*
X43774575Y-21377416D01*
X43771605Y-21362064D01*
X43768095Y-21347351D01*
X43764044Y-21333278D01*
X43759454Y-21319843D01*
X43754324Y-21307048D01*
X43748654Y-21294892D01*
X43742444Y-21283376D01*
X43735694Y-21272498D01*
X43728404Y-21262260D01*
X43720574Y-21252661D01*
X43712204Y-21243702D01*
X43703216Y-21235331D01*
X43693592Y-21227501D01*
X43683333Y-21220211D01*
X43672438Y-21213461D01*
X43660908Y-21207251D01*
X43648743Y-21201581D01*
X43635942Y-21196451D01*
X43622506Y-21191861D01*
X43608434Y-21187811D01*
X43593727Y-21184301D01*
X43578385Y-21181331D01*
X43562407Y-21178901D01*
X43545793Y-21177011D01*
X43528545Y-21175661D01*
X43510661Y-21174851D01*
X43492141Y-21174581D01*
X42977766Y-21174581D01*
X42977766Y-21387072D01*
X43435721Y-21387072D01*
X43449427Y-21387746D01*
X43461784Y-21389768D01*
X43472794Y-21393139D01*
X43482455Y-21397857D01*
X43490769Y-21403923D01*
X43497734Y-21411338D01*
X43503351Y-21420101D01*
X43507620Y-21430211D01*
X43510541Y-21441670D01*
X43512114Y-21454477D01*
X43512413Y-21463764D01*
X43512413Y-21913904D01*
X43511829Y-21924448D01*
X43510078Y-21934100D01*
X43506558Y-21944231D01*
X43501449Y-21953147D01*
X43495805Y-21959822D01*
X43487906Y-21966293D01*
X43478955Y-21971175D01*
X43468952Y-21974468D01*
X43457898Y-21976171D01*
X43451108Y-21976430D01*
X43440335Y-21976404D01*
X43429081Y-21976327D01*
X43417346Y-21976198D01*
X43407199Y-21976052D01*
X43396718Y-21975869D01*
X43388094Y-21975697D01*
X43377037Y-21975456D01*
X43365849Y-21975192D01*
X43354531Y-21974903D01*
X43343080Y-21974591D01*
X43331499Y-21974254D01*
X43319787Y-21973894D01*
X43315065Y-21973743D01*
X43303152Y-21973285D01*
X43291228Y-21972827D01*
X43279291Y-21972370D01*
X43267342Y-21971912D01*
X43255382Y-21971454D01*
X43243409Y-21970996D01*
X43238617Y-21970812D01*
X43228615Y-21970404D01*
X43217902Y-21969912D01*
X43206480Y-21969336D01*
X43194348Y-21968675D01*
X43181506Y-21967931D01*
X43171409Y-21967318D01*
X43160913Y-21966657D01*
X43150017Y-21965950D01*
X43138722Y-21965195D01*
X43126890Y-21964399D01*
X43114384Y-21963569D01*
X43101204Y-21962705D01*
X43087351Y-21961806D01*
X43072823Y-21960873D01*
X43062763Y-21960232D01*
X43052404Y-21959575D01*
X43041745Y-21958904D01*
X43030786Y-21958217D01*
X43019528Y-21957515D01*
X43007970Y-21956797D01*
X42996113Y-21956064D01*
X42983956Y-21955316D01*
X42977766Y-21954937D01*
X42977766Y-22160101D01*
G37*
G36*
X42011785Y-22175000D02*
G01*
X42280697Y-22175000D01*
X42280697Y-21773953D01*
X42616775Y-21773953D01*
X42616775Y-22175000D01*
X42885442Y-22175000D01*
X42885442Y-21174581D01*
X42616775Y-21174581D01*
X42616775Y-21561461D01*
X42280697Y-21561461D01*
X42280697Y-21174581D01*
X42011785Y-21174581D01*
X42011785Y-22175000D01*
G37*
G36*
X41621198Y-21160686D02*
G01*
X41639082Y-21161499D01*
X41656331Y-21162853D01*
X41672944Y-21164750D01*
X41688922Y-21167189D01*
X41704264Y-21170169D01*
X41718971Y-21173692D01*
X41733043Y-21177756D01*
X41746479Y-21182362D01*
X41759280Y-21187510D01*
X41771445Y-21193200D01*
X41782975Y-21199433D01*
X41793870Y-21206206D01*
X41804129Y-21213522D01*
X41813753Y-21221380D01*
X41822741Y-21229780D01*
X41831111Y-21238738D01*
X41838941Y-21248335D01*
X41846232Y-21258568D01*
X41852982Y-21269439D01*
X41859192Y-21280947D01*
X41864862Y-21293092D01*
X41869992Y-21305875D01*
X41874582Y-21319295D01*
X41878632Y-21333352D01*
X41882142Y-21348047D01*
X41885112Y-21363379D01*
X41887542Y-21379348D01*
X41889432Y-21395955D01*
X41890782Y-21413198D01*
X41891592Y-21431080D01*
X41891862Y-21449598D01*
X41891862Y-21899982D01*
X41891592Y-21918502D01*
X41890782Y-21936386D01*
X41889432Y-21953634D01*
X41887542Y-21970248D01*
X41885112Y-21986226D01*
X41882142Y-22001568D01*
X41878632Y-22016275D01*
X41874582Y-22030347D01*
X41869992Y-22043783D01*
X41864862Y-22056584D01*
X41859192Y-22068749D01*
X41852982Y-22080279D01*
X41846232Y-22091174D01*
X41838941Y-22101433D01*
X41831111Y-22111057D01*
X41822741Y-22120045D01*
X41813753Y-22128415D01*
X41804129Y-22136245D01*
X41793870Y-22143535D01*
X41782975Y-22150285D01*
X41771445Y-22156495D01*
X41759280Y-22162165D01*
X41746479Y-22167295D01*
X41733043Y-22171885D01*
X41718971Y-22175935D01*
X41704264Y-22179445D01*
X41688922Y-22182416D01*
X41672944Y-22184846D01*
X41656331Y-22186736D01*
X41639082Y-22188086D01*
X41621198Y-22188896D01*
X41602678Y-22189166D01*
X41335233Y-22189166D01*
X41316684Y-22188896D01*
X41298775Y-22188086D01*
X41281506Y-22186736D01*
X41264875Y-22184846D01*
X41248884Y-22182416D01*
X41233532Y-22179445D01*
X41218819Y-22175935D01*
X41204746Y-22171885D01*
X41191311Y-22167295D01*
X41178516Y-22162165D01*
X41166361Y-22156495D01*
X41154844Y-22150285D01*
X41143967Y-22143535D01*
X41133728Y-22136245D01*
X41124129Y-22128415D01*
X41115170Y-22120045D01*
X41106800Y-22111057D01*
X41098970Y-22101433D01*
X41091679Y-22091174D01*
X41084929Y-22080279D01*
X41078719Y-22068749D01*
X41073049Y-22056584D01*
X41067919Y-22043783D01*
X41063329Y-22030347D01*
X41059279Y-22016275D01*
X41055769Y-22001568D01*
X41052799Y-21986226D01*
X41050369Y-21970248D01*
X41048479Y-21953634D01*
X41047129Y-21936386D01*
X41046319Y-21918502D01*
X41046049Y-21899982D01*
X41314960Y-21899982D01*
X41315260Y-21909239D01*
X41316833Y-21922006D01*
X41319754Y-21933428D01*
X41324023Y-21943507D01*
X41329640Y-21952241D01*
X41336605Y-21959632D01*
X41344918Y-21965680D01*
X41354580Y-21970383D01*
X41365589Y-21973742D01*
X41377947Y-21975758D01*
X41391653Y-21976430D01*
X41546258Y-21976430D01*
X41555545Y-21976131D01*
X41568352Y-21974564D01*
X41579811Y-21971652D01*
X41589922Y-21967397D01*
X41598685Y-21961797D01*
X41606099Y-21954854D01*
X41612166Y-21946568D01*
X41616884Y-21936937D01*
X41620254Y-21925962D01*
X41622277Y-21913644D01*
X41622951Y-21899982D01*
X41622951Y-21449598D01*
X41622651Y-21440341D01*
X41621078Y-21427575D01*
X41618157Y-21416152D01*
X41613888Y-21406074D01*
X41608271Y-21397339D01*
X41601306Y-21389948D01*
X41592993Y-21383901D01*
X41583331Y-21379197D01*
X41572322Y-21375838D01*
X41559964Y-21373822D01*
X41546258Y-21373150D01*
X41391653Y-21373150D01*
X41382366Y-21373449D01*
X41369559Y-21375017D01*
X41358100Y-21377928D01*
X41347989Y-21382184D01*
X41339226Y-21387783D01*
X41331812Y-21394726D01*
X41325745Y-21403013D01*
X41321027Y-21412643D01*
X41317657Y-21423618D01*
X41315634Y-21435936D01*
X41314960Y-21449598D01*
X41314960Y-21899982D01*
X41046049Y-21899982D01*
X41046049Y-21449598D01*
X41046319Y-21431080D01*
X41047129Y-21413198D01*
X41048479Y-21395955D01*
X41050369Y-21379348D01*
X41052799Y-21363379D01*
X41055769Y-21348047D01*
X41059279Y-21333352D01*
X41063329Y-21319295D01*
X41067919Y-21305875D01*
X41073049Y-21293092D01*
X41078719Y-21280947D01*
X41084929Y-21269439D01*
X41091679Y-21258568D01*
X41098970Y-21248335D01*
X41106800Y-21238738D01*
X41115170Y-21229780D01*
X41124129Y-21221380D01*
X41133728Y-21213522D01*
X41143967Y-21206206D01*
X41154844Y-21199433D01*
X41166361Y-21193200D01*
X41178516Y-21187510D01*
X41191311Y-21182362D01*
X41204746Y-21177756D01*
X41218819Y-21173692D01*
X41233532Y-21170169D01*
X41248884Y-21167189D01*
X41264875Y-21164750D01*
X41281506Y-21162853D01*
X41298775Y-21161499D01*
X41316684Y-21160686D01*
X41335233Y-21160415D01*
X41602678Y-21160415D01*
X41621198Y-21160686D01*
G37*
G36*
X42977766Y-12000101D02*
G01*
X42997728Y-12001889D01*
X43017468Y-12003620D01*
X43036984Y-12005295D01*
X43056278Y-12006913D01*
X43075350Y-12008474D01*
X43094198Y-12009978D01*
X43112824Y-12011426D01*
X43131227Y-12012817D01*
X43149407Y-12014151D01*
X43167364Y-12015428D01*
X43185099Y-12016648D01*
X43202610Y-12017812D01*
X43219899Y-12018919D01*
X43236966Y-12019969D01*
X43253809Y-12020963D01*
X43270430Y-12021899D01*
X43286828Y-12022779D01*
X43303003Y-12023602D01*
X43318955Y-12024369D01*
X43334685Y-12025078D01*
X43350191Y-12025731D01*
X43365475Y-12026327D01*
X43380537Y-12026867D01*
X43395375Y-12027349D01*
X43409991Y-12027775D01*
X43424384Y-12028144D01*
X43438554Y-12028456D01*
X43452501Y-12028711D01*
X43466226Y-12028910D01*
X43479728Y-12029052D01*
X43493007Y-12029137D01*
X43506063Y-12029166D01*
X43523420Y-12028904D01*
X43540200Y-12028120D01*
X43556401Y-12026813D01*
X43572024Y-12024983D01*
X43587069Y-12022630D01*
X43601535Y-12019755D01*
X43615424Y-12016356D01*
X43628734Y-12012435D01*
X43641466Y-12007991D01*
X43653620Y-12003024D01*
X43665196Y-11997534D01*
X43676193Y-11991522D01*
X43686613Y-11984986D01*
X43696454Y-11977928D01*
X43705717Y-11970347D01*
X43714402Y-11962243D01*
X43722506Y-11953558D01*
X43730087Y-11944295D01*
X43737145Y-11934454D01*
X43743681Y-11924034D01*
X43749693Y-11913037D01*
X43755183Y-11901461D01*
X43760150Y-11889307D01*
X43764594Y-11876575D01*
X43768515Y-11863265D01*
X43771914Y-11849376D01*
X43774789Y-11834910D01*
X43777142Y-11819865D01*
X43778972Y-11804242D01*
X43780279Y-11788041D01*
X43781063Y-11771261D01*
X43781325Y-11753904D01*
X43781325Y-11303764D01*
X43781055Y-11285216D01*
X43780245Y-11267307D01*
X43778895Y-11250038D01*
X43777005Y-11233407D01*
X43774575Y-11217416D01*
X43771605Y-11202064D01*
X43768095Y-11187351D01*
X43764044Y-11173278D01*
X43759454Y-11159843D01*
X43754324Y-11147048D01*
X43748654Y-11134892D01*
X43742444Y-11123376D01*
X43735694Y-11112498D01*
X43728404Y-11102260D01*
X43720574Y-11092661D01*
X43712204Y-11083702D01*
X43703216Y-11075331D01*
X43693592Y-11067501D01*
X43683333Y-11060211D01*
X43672438Y-11053461D01*
X43660908Y-11047251D01*
X43648743Y-11041581D01*
X43635942Y-11036451D01*
X43622506Y-11031861D01*
X43608434Y-11027811D01*
X43593727Y-11024301D01*
X43578385Y-11021331D01*
X43562407Y-11018901D01*
X43545793Y-11017011D01*
X43528545Y-11015661D01*
X43510661Y-11014851D01*
X43492141Y-11014581D01*
X42977766Y-11014581D01*
X42977766Y-11227072D01*
X43435721Y-11227072D01*
X43449427Y-11227746D01*
X43461784Y-11229768D01*
X43472794Y-11233139D01*
X43482455Y-11237857D01*
X43490769Y-11243923D01*
X43497734Y-11251338D01*
X43503351Y-11260101D01*
X43507620Y-11270211D01*
X43510541Y-11281670D01*
X43512114Y-11294477D01*
X43512413Y-11303764D01*
X43512413Y-11753904D01*
X43511829Y-11764448D01*
X43510078Y-11774100D01*
X43506558Y-11784231D01*
X43501449Y-11793147D01*
X43495805Y-11799822D01*
X43487906Y-11806293D01*
X43478955Y-11811175D01*
X43468952Y-11814468D01*
X43457898Y-11816171D01*
X43451108Y-11816430D01*
X43440335Y-11816404D01*
X43429081Y-11816327D01*
X43417346Y-11816198D01*
X43407199Y-11816052D01*
X43396718Y-11815869D01*
X43388094Y-11815697D01*
X43377037Y-11815456D01*
X43365849Y-11815192D01*
X43354531Y-11814903D01*
X43343080Y-11814591D01*
X43331499Y-11814254D01*
X43319787Y-11813894D01*
X43315065Y-11813743D01*
X43303152Y-11813285D01*
X43291228Y-11812827D01*
X43279291Y-11812370D01*
X43267342Y-11811912D01*
X43255382Y-11811454D01*
X43243409Y-11810996D01*
X43238617Y-11810812D01*
X43228615Y-11810404D01*
X43217902Y-11809912D01*
X43206480Y-11809336D01*
X43194348Y-11808675D01*
X43181506Y-11807931D01*
X43171409Y-11807318D01*
X43160913Y-11806657D01*
X43150017Y-11805950D01*
X43138722Y-11805195D01*
X43126890Y-11804399D01*
X43114384Y-11803569D01*
X43101204Y-11802705D01*
X43087351Y-11801806D01*
X43072823Y-11800873D01*
X43062763Y-11800232D01*
X43052404Y-11799575D01*
X43041745Y-11798904D01*
X43030786Y-11798217D01*
X43019528Y-11797515D01*
X43007970Y-11796797D01*
X42996113Y-11796064D01*
X42983956Y-11795316D01*
X42977766Y-11794937D01*
X42977766Y-12000101D01*
G37*
G36*
X42011785Y-12015000D02*
G01*
X42280697Y-12015000D01*
X42280697Y-11613953D01*
X42616775Y-11613953D01*
X42616775Y-12015000D01*
X42885442Y-12015000D01*
X42885442Y-11014581D01*
X42616775Y-11014581D01*
X42616775Y-11401461D01*
X42280697Y-11401461D01*
X42280697Y-11014581D01*
X42011785Y-11014581D01*
X42011785Y-12015000D01*
G37*
G36*
X41399468Y-11818140D02*
G01*
X41919950Y-11818140D01*
X41919950Y-11611022D01*
X41578987Y-11014581D01*
X41279545Y-11014581D01*
X41617333Y-11605404D01*
X41399468Y-11605404D01*
X41399468Y-11394378D01*
X41130557Y-11394378D01*
X41130557Y-11605404D01*
X41032127Y-11605404D01*
X41032127Y-11818140D01*
X41130557Y-11818140D01*
X41130557Y-12015000D01*
X41399468Y-12015000D01*
X41399468Y-11818140D01*
G37*
G36*
X42893258Y-24693262D02*
G01*
X42914234Y-24695471D01*
X42935093Y-24697610D01*
X42955834Y-24699678D01*
X42976457Y-24701677D01*
X42996962Y-24703605D01*
X43017349Y-24705464D01*
X43037619Y-24707252D01*
X43057770Y-24708970D01*
X43077804Y-24710618D01*
X43097720Y-24712195D01*
X43117519Y-24713703D01*
X43137199Y-24715141D01*
X43156762Y-24716508D01*
X43176206Y-24717805D01*
X43195533Y-24719033D01*
X43214742Y-24720190D01*
X43233834Y-24721277D01*
X43252807Y-24722293D01*
X43271663Y-24723240D01*
X43290400Y-24724117D01*
X43309020Y-24724923D01*
X43327522Y-24725659D01*
X43345907Y-24726326D01*
X43364173Y-24726922D01*
X43382322Y-24727448D01*
X43400353Y-24727903D01*
X43418266Y-24728289D01*
X43436061Y-24728605D01*
X43453738Y-24728850D01*
X43471297Y-24729025D01*
X43488739Y-24729131D01*
X43506063Y-24729166D01*
X43523420Y-24728904D01*
X43540200Y-24728120D01*
X43556401Y-24726813D01*
X43572024Y-24724983D01*
X43587069Y-24722630D01*
X43601535Y-24719755D01*
X43615424Y-24716356D01*
X43628734Y-24712435D01*
X43641466Y-24707991D01*
X43653620Y-24703024D01*
X43665196Y-24697534D01*
X43676193Y-24691522D01*
X43686613Y-24684986D01*
X43696454Y-24677928D01*
X43705717Y-24670347D01*
X43714402Y-24662243D01*
X43722506Y-24653558D01*
X43730087Y-24644295D01*
X43737145Y-24634454D01*
X43743681Y-24624034D01*
X43749693Y-24613037D01*
X43755183Y-24601461D01*
X43760150Y-24589307D01*
X43764594Y-24576575D01*
X43768515Y-24563265D01*
X43771914Y-24549376D01*
X43774789Y-24534910D01*
X43777142Y-24519865D01*
X43778972Y-24504242D01*
X43780279Y-24488041D01*
X43781063Y-24471261D01*
X43781325Y-24453904D01*
X43781325Y-24003764D01*
X43781055Y-23985216D01*
X43780245Y-23967307D01*
X43778895Y-23950038D01*
X43777005Y-23933407D01*
X43774575Y-23917416D01*
X43771605Y-23902064D01*
X43768095Y-23887351D01*
X43764044Y-23873278D01*
X43759454Y-23859843D01*
X43754324Y-23847048D01*
X43748654Y-23834892D01*
X43742444Y-23823376D01*
X43735694Y-23812498D01*
X43728404Y-23802260D01*
X43720574Y-23792661D01*
X43712204Y-23783702D01*
X43703216Y-23775331D01*
X43693592Y-23767501D01*
X43683333Y-23760211D01*
X43672438Y-23753461D01*
X43660908Y-23747251D01*
X43648743Y-23741581D01*
X43635942Y-23736451D01*
X43622506Y-23731861D01*
X43608434Y-23727811D01*
X43593727Y-23724301D01*
X43578385Y-23721331D01*
X43562407Y-23718901D01*
X43545793Y-23717011D01*
X43528545Y-23715661D01*
X43510661Y-23714851D01*
X43492141Y-23714581D01*
X42977766Y-23714581D01*
X42977766Y-23927072D01*
X43435721Y-23927072D01*
X43449427Y-23927746D01*
X43461784Y-23929768D01*
X43472794Y-23933139D01*
X43482455Y-23937857D01*
X43490769Y-23943923D01*
X43497734Y-23951338D01*
X43503351Y-23960101D01*
X43507620Y-23970211D01*
X43510541Y-23981670D01*
X43512114Y-23994477D01*
X43512413Y-24003764D01*
X43512413Y-24453904D01*
X43511829Y-24464448D01*
X43510078Y-24474100D01*
X43506558Y-24484231D01*
X43501449Y-24493147D01*
X43495805Y-24499822D01*
X43487847Y-24506293D01*
X43478721Y-24511175D01*
X43468426Y-24514468D01*
X43458672Y-24516025D01*
X43449887Y-24516430D01*
X43439816Y-24516424D01*
X43429815Y-24516404D01*
X43419884Y-24516372D01*
X43410022Y-24516327D01*
X43400230Y-24516269D01*
X43380855Y-24516115D01*
X43361758Y-24515908D01*
X43342940Y-24515651D01*
X43324400Y-24515342D01*
X43306139Y-24514981D01*
X43288157Y-24514569D01*
X43270453Y-24514105D01*
X43253028Y-24513590D01*
X43235881Y-24513023D01*
X43219013Y-24512405D01*
X43202424Y-24511735D01*
X43186113Y-24511014D01*
X43170081Y-24510241D01*
X43162169Y-24509836D01*
X43162169Y-24321036D01*
X43345107Y-24321036D01*
X43345107Y-24136632D01*
X42893258Y-24136632D01*
X42893258Y-24693262D01*
G37*
G36*
X41899434Y-24715000D02*
G01*
X42179092Y-24715000D01*
X42504423Y-24145669D01*
X42504423Y-24715000D01*
X42773090Y-24715000D01*
X42773090Y-23714581D01*
X42493432Y-23714581D01*
X42168345Y-24283667D01*
X42168345Y-23714581D01*
X41899434Y-23714581D01*
X41899434Y-24715000D01*
G37*
G36*
X41751178Y-24715000D02*
G01*
X41194793Y-24715000D01*
X41184733Y-24714917D01*
X41174824Y-24714669D01*
X41155462Y-24713679D01*
X41136707Y-24712029D01*
X41118559Y-24709718D01*
X41101017Y-24706747D01*
X41084082Y-24703116D01*
X41067754Y-24698824D01*
X41052033Y-24693872D01*
X41036919Y-24688261D01*
X41022411Y-24681989D01*
X41008510Y-24675056D01*
X40995216Y-24667464D01*
X40982529Y-24659211D01*
X40970448Y-24650298D01*
X40958975Y-24640725D01*
X40948108Y-24630491D01*
X40937845Y-24619595D01*
X40928244Y-24608094D01*
X40919305Y-24595987D01*
X40911029Y-24583276D01*
X40903414Y-24569960D01*
X40896462Y-24556039D01*
X40890171Y-24541514D01*
X40884543Y-24526383D01*
X40879577Y-24510647D01*
X40875274Y-24494307D01*
X40871632Y-24477362D01*
X40868652Y-24459812D01*
X40866335Y-24441656D01*
X40864680Y-24422897D01*
X40863686Y-24403532D01*
X40863438Y-24393622D01*
X40863355Y-24383562D01*
X41132267Y-24383562D01*
X41132730Y-24397966D01*
X41134121Y-24411440D01*
X41136440Y-24423985D01*
X41139686Y-24435601D01*
X41143859Y-24446288D01*
X41148959Y-24456045D01*
X41154987Y-24464873D01*
X41161942Y-24472772D01*
X41169825Y-24479741D01*
X41178635Y-24485781D01*
X41188372Y-24490892D01*
X41199037Y-24495074D01*
X41210629Y-24498327D01*
X41223148Y-24500650D01*
X41236595Y-24502044D01*
X41250969Y-24502508D01*
X41482511Y-24502508D01*
X41482511Y-23927072D01*
X41250969Y-23927072D01*
X41236595Y-23927537D01*
X41223148Y-23928931D01*
X41210629Y-23931254D01*
X41199037Y-23934506D01*
X41188372Y-23938688D01*
X41178635Y-23943799D01*
X41169825Y-23949839D01*
X41161942Y-23956809D01*
X41154987Y-23964707D01*
X41148959Y-23973535D01*
X41143859Y-23983293D01*
X41139686Y-23993979D01*
X41136440Y-24005595D01*
X41134121Y-24018140D01*
X41132730Y-24031615D01*
X41132267Y-24046018D01*
X41132267Y-24383562D01*
X40863355Y-24383562D01*
X40863355Y-24046018D01*
X40863438Y-24035958D01*
X40863686Y-24026050D01*
X40864680Y-24006688D01*
X40866335Y-23987932D01*
X40868652Y-23969784D01*
X40871632Y-23952242D01*
X40875274Y-23935308D01*
X40879577Y-23918980D01*
X40884543Y-23903258D01*
X40890171Y-23888144D01*
X40896462Y-23873636D01*
X40903414Y-23859735D01*
X40911029Y-23846441D01*
X40919305Y-23833754D01*
X40928244Y-23821674D01*
X40937845Y-23810200D01*
X40948108Y-23799333D01*
X40958975Y-23789070D01*
X40970448Y-23779469D01*
X40982529Y-23770531D01*
X40995216Y-23762254D01*
X41008510Y-23754639D01*
X41022411Y-23747687D01*
X41036919Y-23741397D01*
X41052033Y-23735769D01*
X41067754Y-23730803D01*
X41084082Y-23726499D01*
X41101017Y-23722857D01*
X41118559Y-23719878D01*
X41136707Y-23717560D01*
X41155462Y-23715905D01*
X41174824Y-23714912D01*
X41184733Y-23714664D01*
X41194793Y-23714581D01*
X41751178Y-23714581D01*
X41751178Y-24715000D01*
G37*
G36*
X42977766Y-9460101D02*
G01*
X42997728Y-9461889D01*
X43017468Y-9463620D01*
X43036984Y-9465295D01*
X43056278Y-9466913D01*
X43075350Y-9468474D01*
X43094198Y-9469978D01*
X43112824Y-9471426D01*
X43131227Y-9472817D01*
X43149407Y-9474151D01*
X43167364Y-9475428D01*
X43185099Y-9476648D01*
X43202610Y-9477812D01*
X43219899Y-9478919D01*
X43236966Y-9479969D01*
X43253809Y-9480963D01*
X43270430Y-9481899D01*
X43286828Y-9482779D01*
X43303003Y-9483602D01*
X43318955Y-9484369D01*
X43334685Y-9485078D01*
X43350191Y-9485731D01*
X43365475Y-9486327D01*
X43380537Y-9486867D01*
X43395375Y-9487349D01*
X43409991Y-9487775D01*
X43424384Y-9488144D01*
X43438554Y-9488456D01*
X43452501Y-9488711D01*
X43466226Y-9488910D01*
X43479728Y-9489052D01*
X43493007Y-9489137D01*
X43506063Y-9489166D01*
X43523420Y-9488904D01*
X43540200Y-9488120D01*
X43556401Y-9486813D01*
X43572024Y-9484983D01*
X43587069Y-9482630D01*
X43601535Y-9479755D01*
X43615424Y-9476356D01*
X43628734Y-9472435D01*
X43641466Y-9467991D01*
X43653620Y-9463024D01*
X43665196Y-9457534D01*
X43676193Y-9451522D01*
X43686613Y-9444986D01*
X43696454Y-9437928D01*
X43705717Y-9430347D01*
X43714402Y-9422243D01*
X43722506Y-9413558D01*
X43730087Y-9404295D01*
X43737145Y-9394454D01*
X43743681Y-9384034D01*
X43749693Y-9373037D01*
X43755183Y-9361461D01*
X43760150Y-9349307D01*
X43764594Y-9336575D01*
X43768515Y-9323265D01*
X43771914Y-9309376D01*
X43774789Y-9294910D01*
X43777142Y-9279865D01*
X43778972Y-9264242D01*
X43780279Y-9248041D01*
X43781063Y-9231261D01*
X43781325Y-9213904D01*
X43781325Y-8763764D01*
X43781055Y-8745216D01*
X43780245Y-8727307D01*
X43778895Y-8710038D01*
X43777005Y-8693407D01*
X43774575Y-8677416D01*
X43771605Y-8662064D01*
X43768095Y-8647351D01*
X43764044Y-8633278D01*
X43759454Y-8619843D01*
X43754324Y-8607048D01*
X43748654Y-8594892D01*
X43742444Y-8583376D01*
X43735694Y-8572498D01*
X43728404Y-8562260D01*
X43720574Y-8552661D01*
X43712204Y-8543702D01*
X43703216Y-8535331D01*
X43693592Y-8527501D01*
X43683333Y-8520211D01*
X43672438Y-8513461D01*
X43660908Y-8507251D01*
X43648743Y-8501581D01*
X43635942Y-8496451D01*
X43622506Y-8491861D01*
X43608434Y-8487811D01*
X43593727Y-8484301D01*
X43578385Y-8481331D01*
X43562407Y-8478901D01*
X43545793Y-8477011D01*
X43528545Y-8475661D01*
X43510661Y-8474851D01*
X43492141Y-8474581D01*
X42977766Y-8474581D01*
X42977766Y-8687072D01*
X43435721Y-8687072D01*
X43449427Y-8687746D01*
X43461784Y-8689768D01*
X43472794Y-8693139D01*
X43482455Y-8697857D01*
X43490769Y-8703923D01*
X43497734Y-8711338D01*
X43503351Y-8720101D01*
X43507620Y-8730211D01*
X43510541Y-8741670D01*
X43512114Y-8754477D01*
X43512413Y-8763764D01*
X43512413Y-9213904D01*
X43511829Y-9224448D01*
X43510078Y-9234100D01*
X43506558Y-9244231D01*
X43501449Y-9253147D01*
X43495805Y-9259822D01*
X43487906Y-9266293D01*
X43478955Y-9271175D01*
X43468952Y-9274468D01*
X43457898Y-9276171D01*
X43451108Y-9276430D01*
X43440335Y-9276404D01*
X43429081Y-9276327D01*
X43417346Y-9276198D01*
X43407199Y-9276052D01*
X43396718Y-9275869D01*
X43388094Y-9275697D01*
X43377037Y-9275456D01*
X43365849Y-9275192D01*
X43354531Y-9274903D01*
X43343080Y-9274591D01*
X43331499Y-9274254D01*
X43319787Y-9273894D01*
X43315065Y-9273743D01*
X43303152Y-9273285D01*
X43291228Y-9272827D01*
X43279291Y-9272370D01*
X43267342Y-9271912D01*
X43255382Y-9271454D01*
X43243409Y-9270996D01*
X43238617Y-9270812D01*
X43228615Y-9270404D01*
X43217902Y-9269912D01*
X43206480Y-9269336D01*
X43194348Y-9268675D01*
X43181506Y-9267931D01*
X43171409Y-9267318D01*
X43160913Y-9266657D01*
X43150017Y-9265950D01*
X43138722Y-9265195D01*
X43126890Y-9264399D01*
X43114384Y-9263569D01*
X43101204Y-9262705D01*
X43087351Y-9261806D01*
X43072823Y-9260873D01*
X43062763Y-9260232D01*
X43052404Y-9259575D01*
X43041745Y-9258904D01*
X43030786Y-9258217D01*
X43019528Y-9257515D01*
X43007970Y-9256797D01*
X42996113Y-9256064D01*
X42983956Y-9255316D01*
X42977766Y-9254937D01*
X42977766Y-9460101D01*
G37*
G36*
X42011785Y-9475000D02*
G01*
X42280697Y-9475000D01*
X42280697Y-9073953D01*
X42616775Y-9073953D01*
X42616775Y-9475000D01*
X42885442Y-9475000D01*
X42885442Y-8474581D01*
X42616775Y-8474581D01*
X42616775Y-8861461D01*
X42280697Y-8861461D01*
X42280697Y-8474581D01*
X42011785Y-8474581D01*
X42011785Y-9475000D01*
G37*
G36*
X41391653Y-9489166D02*
G01*
X41406424Y-9489137D01*
X41421308Y-9489052D01*
X41436304Y-9488910D01*
X41451412Y-9488711D01*
X41466632Y-9488456D01*
X41481964Y-9488144D01*
X41497409Y-9487775D01*
X41512965Y-9487349D01*
X41528634Y-9486867D01*
X41544414Y-9486327D01*
X41560307Y-9485731D01*
X41576312Y-9485078D01*
X41592429Y-9484369D01*
X41608658Y-9483602D01*
X41624999Y-9482779D01*
X41641452Y-9481899D01*
X41658017Y-9480963D01*
X41674695Y-9479969D01*
X41691484Y-9478919D01*
X41708386Y-9477812D01*
X41725400Y-9476648D01*
X41742526Y-9475428D01*
X41759764Y-9474151D01*
X41777114Y-9472817D01*
X41794576Y-9471426D01*
X41812150Y-9469978D01*
X41829836Y-9468474D01*
X41847635Y-9466913D01*
X41865546Y-9465295D01*
X41883568Y-9463620D01*
X41901703Y-9461889D01*
X41919950Y-9460101D01*
X41919950Y-9254937D01*
X41900176Y-9256259D01*
X41880725Y-9257539D01*
X41861599Y-9258778D01*
X41842796Y-9259974D01*
X41824317Y-9261129D01*
X41806162Y-9262241D01*
X41788331Y-9263312D01*
X41770824Y-9264340D01*
X41753641Y-9265327D01*
X41736782Y-9266271D01*
X41720247Y-9267174D01*
X41704035Y-9268034D01*
X41688148Y-9268853D01*
X41672584Y-9269629D01*
X41657345Y-9270364D01*
X41642429Y-9271057D01*
X41627837Y-9271707D01*
X41613569Y-9272316D01*
X41599625Y-9272883D01*
X41586005Y-9273408D01*
X41572709Y-9273890D01*
X41559737Y-9274331D01*
X41547088Y-9274730D01*
X41534764Y-9275087D01*
X41522763Y-9275402D01*
X41511086Y-9275674D01*
X41499734Y-9275905D01*
X41488705Y-9276094D01*
X41478000Y-9276241D01*
X41467619Y-9276346D01*
X41457562Y-9276409D01*
X41447828Y-9276430D01*
X41437367Y-9275846D01*
X41426269Y-9273689D01*
X41416363Y-9269942D01*
X41407649Y-9264606D01*
X41402155Y-9259822D01*
X41395588Y-9251948D01*
X41390635Y-9242858D01*
X41387294Y-9232553D01*
X41385714Y-9222753D01*
X41385302Y-9213904D01*
X41385302Y-9143562D01*
X41385976Y-9129900D01*
X41387999Y-9117582D01*
X41391369Y-9106607D01*
X41396087Y-9096976D01*
X41402154Y-9088690D01*
X41409568Y-9081747D01*
X41418331Y-9076147D01*
X41428442Y-9071892D01*
X41439901Y-9068980D01*
X41452708Y-9067413D01*
X41461995Y-9067114D01*
X41877696Y-9067114D01*
X41877696Y-8474581D01*
X41186733Y-8474581D01*
X41186733Y-8687072D01*
X41608785Y-8687072D01*
X41608785Y-8854378D01*
X41391653Y-8854378D01*
X41374296Y-8854632D01*
X41357520Y-8855394D01*
X41341323Y-8856662D01*
X41325707Y-8858439D01*
X41310671Y-8860723D01*
X41296215Y-8863515D01*
X41282339Y-8866814D01*
X41269043Y-8870621D01*
X41256327Y-8874935D01*
X41244191Y-8879757D01*
X41232635Y-8885086D01*
X41221660Y-8890923D01*
X41211264Y-8897268D01*
X41201449Y-8904120D01*
X41192213Y-8911480D01*
X41183558Y-8919347D01*
X41175424Y-8927698D01*
X41167816Y-8936570D01*
X41160732Y-8945963D01*
X41154172Y-8955877D01*
X41148138Y-8966311D01*
X41142628Y-8977267D01*
X41137643Y-8988743D01*
X41133183Y-9000741D01*
X41129247Y-9013259D01*
X41125836Y-9026299D01*
X41122950Y-9039859D01*
X41120589Y-9053940D01*
X41118752Y-9068542D01*
X41117440Y-9083665D01*
X41116653Y-9099309D01*
X41116391Y-9115474D01*
X41116391Y-9213904D01*
X41116653Y-9231261D01*
X41117440Y-9248041D01*
X41118752Y-9264242D01*
X41120589Y-9279865D01*
X41122950Y-9294910D01*
X41125836Y-9309376D01*
X41129247Y-9323265D01*
X41133183Y-9336575D01*
X41137643Y-9349307D01*
X41142628Y-9361461D01*
X41148138Y-9373037D01*
X41154172Y-9384034D01*
X41160732Y-9394454D01*
X41167816Y-9404295D01*
X41175424Y-9413558D01*
X41183558Y-9422243D01*
X41192213Y-9430347D01*
X41201449Y-9437928D01*
X41211264Y-9444986D01*
X41221660Y-9451522D01*
X41232635Y-9457534D01*
X41244191Y-9463024D01*
X41256327Y-9467991D01*
X41269043Y-9472435D01*
X41282339Y-9476356D01*
X41296215Y-9479755D01*
X41310671Y-9482630D01*
X41325707Y-9484983D01*
X41341323Y-9486813D01*
X41357520Y-9488120D01*
X41374296Y-9488904D01*
X41391653Y-9489166D01*
G37*
G36*
X42977766Y-14540101D02*
G01*
X42997728Y-14541889D01*
X43017468Y-14543620D01*
X43036984Y-14545295D01*
X43056278Y-14546913D01*
X43075350Y-14548474D01*
X43094198Y-14549978D01*
X43112824Y-14551426D01*
X43131227Y-14552817D01*
X43149407Y-14554151D01*
X43167364Y-14555428D01*
X43185099Y-14556648D01*
X43202610Y-14557812D01*
X43219899Y-14558919D01*
X43236966Y-14559969D01*
X43253809Y-14560963D01*
X43270430Y-14561899D01*
X43286828Y-14562779D01*
X43303003Y-14563602D01*
X43318955Y-14564369D01*
X43334685Y-14565078D01*
X43350191Y-14565731D01*
X43365475Y-14566327D01*
X43380537Y-14566867D01*
X43395375Y-14567349D01*
X43409991Y-14567775D01*
X43424384Y-14568144D01*
X43438554Y-14568456D01*
X43452501Y-14568711D01*
X43466226Y-14568910D01*
X43479728Y-14569052D01*
X43493007Y-14569137D01*
X43506063Y-14569166D01*
X43523420Y-14568904D01*
X43540200Y-14568120D01*
X43556401Y-14566813D01*
X43572024Y-14564983D01*
X43587069Y-14562630D01*
X43601535Y-14559755D01*
X43615424Y-14556356D01*
X43628734Y-14552435D01*
X43641466Y-14547991D01*
X43653620Y-14543024D01*
X43665196Y-14537534D01*
X43676193Y-14531522D01*
X43686613Y-14524986D01*
X43696454Y-14517928D01*
X43705717Y-14510347D01*
X43714402Y-14502243D01*
X43722506Y-14493558D01*
X43730087Y-14484295D01*
X43737145Y-14474454D01*
X43743681Y-14464034D01*
X43749693Y-14453037D01*
X43755183Y-14441461D01*
X43760150Y-14429307D01*
X43764594Y-14416575D01*
X43768515Y-14403265D01*
X43771914Y-14389376D01*
X43774789Y-14374910D01*
X43777142Y-14359865D01*
X43778972Y-14344242D01*
X43780279Y-14328041D01*
X43781063Y-14311261D01*
X43781325Y-14293904D01*
X43781325Y-13843764D01*
X43781055Y-13825216D01*
X43780245Y-13807307D01*
X43778895Y-13790038D01*
X43777005Y-13773407D01*
X43774575Y-13757416D01*
X43771605Y-13742064D01*
X43768095Y-13727351D01*
X43764044Y-13713278D01*
X43759454Y-13699843D01*
X43754324Y-13687048D01*
X43748654Y-13674892D01*
X43742444Y-13663376D01*
X43735694Y-13652498D01*
X43728404Y-13642260D01*
X43720574Y-13632661D01*
X43712204Y-13623702D01*
X43703216Y-13615331D01*
X43693592Y-13607501D01*
X43683333Y-13600211D01*
X43672438Y-13593461D01*
X43660908Y-13587251D01*
X43648743Y-13581581D01*
X43635942Y-13576451D01*
X43622506Y-13571861D01*
X43608434Y-13567811D01*
X43593727Y-13564301D01*
X43578385Y-13561331D01*
X43562407Y-13558901D01*
X43545793Y-13557011D01*
X43528545Y-13555661D01*
X43510661Y-13554851D01*
X43492141Y-13554581D01*
X42977766Y-13554581D01*
X42977766Y-13767072D01*
X43435721Y-13767072D01*
X43449427Y-13767746D01*
X43461784Y-13769768D01*
X43472794Y-13773139D01*
X43482455Y-13777857D01*
X43490769Y-13783923D01*
X43497734Y-13791338D01*
X43503351Y-13800101D01*
X43507620Y-13810211D01*
X43510541Y-13821670D01*
X43512114Y-13834477D01*
X43512413Y-13843764D01*
X43512413Y-14293904D01*
X43511829Y-14304448D01*
X43510078Y-14314100D01*
X43506558Y-14324231D01*
X43501449Y-14333147D01*
X43495805Y-14339822D01*
X43487906Y-14346293D01*
X43478955Y-14351175D01*
X43468952Y-14354468D01*
X43457898Y-14356171D01*
X43451108Y-14356430D01*
X43440335Y-14356404D01*
X43429081Y-14356327D01*
X43417346Y-14356198D01*
X43407199Y-14356052D01*
X43396718Y-14355869D01*
X43388094Y-14355697D01*
X43377037Y-14355456D01*
X43365849Y-14355192D01*
X43354531Y-14354903D01*
X43343080Y-14354591D01*
X43331499Y-14354254D01*
X43319787Y-14353894D01*
X43315065Y-14353743D01*
X43303152Y-14353285D01*
X43291228Y-14352827D01*
X43279291Y-14352370D01*
X43267342Y-14351912D01*
X43255382Y-14351454D01*
X43243409Y-14350996D01*
X43238617Y-14350812D01*
X43228615Y-14350404D01*
X43217902Y-14349912D01*
X43206480Y-14349336D01*
X43194348Y-14348675D01*
X43181506Y-14347931D01*
X43171409Y-14347318D01*
X43160913Y-14346657D01*
X43150017Y-14345950D01*
X43138722Y-14345195D01*
X43126890Y-14344399D01*
X43114384Y-14343569D01*
X43101204Y-14342705D01*
X43087351Y-14341806D01*
X43072823Y-14340873D01*
X43062763Y-14340232D01*
X43052404Y-14339575D01*
X43041745Y-14338904D01*
X43030786Y-14338217D01*
X43019528Y-14337515D01*
X43007970Y-14336797D01*
X42996113Y-14336064D01*
X42983956Y-14335316D01*
X42977766Y-14334937D01*
X42977766Y-14540101D01*
G37*
G36*
X42011785Y-14555000D02*
G01*
X42280697Y-14555000D01*
X42280697Y-14153953D01*
X42616775Y-14153953D01*
X42616775Y-14555000D01*
X42885442Y-14555000D01*
X42885442Y-13554581D01*
X42616775Y-13554581D01*
X42616775Y-13941461D01*
X42280697Y-13941461D01*
X42280697Y-13554581D01*
X42011785Y-13554581D01*
X42011785Y-14555000D01*
G37*
G36*
X41391653Y-14569166D02*
G01*
X41406424Y-14569137D01*
X41421308Y-14569052D01*
X41436304Y-14568910D01*
X41451412Y-14568711D01*
X41466632Y-14568456D01*
X41481964Y-14568144D01*
X41497409Y-14567775D01*
X41512965Y-14567349D01*
X41528634Y-14566867D01*
X41544414Y-14566327D01*
X41560307Y-14565731D01*
X41576312Y-14565078D01*
X41592429Y-14564369D01*
X41608658Y-14563602D01*
X41624999Y-14562779D01*
X41641452Y-14561899D01*
X41658017Y-14560963D01*
X41674695Y-14559969D01*
X41691484Y-14558919D01*
X41708386Y-14557812D01*
X41725400Y-14556648D01*
X41742526Y-14555428D01*
X41759764Y-14554151D01*
X41777114Y-14552817D01*
X41794576Y-14551426D01*
X41812150Y-14549978D01*
X41829836Y-14548474D01*
X41847635Y-14546913D01*
X41865546Y-14545295D01*
X41883568Y-14543620D01*
X41901703Y-14541889D01*
X41919950Y-14540101D01*
X41919950Y-14334937D01*
X41900176Y-14336259D01*
X41880725Y-14337539D01*
X41861599Y-14338778D01*
X41842796Y-14339974D01*
X41824317Y-14341129D01*
X41806162Y-14342241D01*
X41788331Y-14343312D01*
X41770824Y-14344340D01*
X41753641Y-14345327D01*
X41736782Y-14346271D01*
X41720247Y-14347174D01*
X41704035Y-14348034D01*
X41688148Y-14348853D01*
X41672584Y-14349629D01*
X41657345Y-14350364D01*
X41642429Y-14351057D01*
X41627837Y-14351707D01*
X41613569Y-14352316D01*
X41599625Y-14352883D01*
X41586005Y-14353408D01*
X41572709Y-14353890D01*
X41559737Y-14354331D01*
X41547088Y-14354730D01*
X41534764Y-14355087D01*
X41522763Y-14355402D01*
X41511086Y-14355674D01*
X41499734Y-14355905D01*
X41488705Y-14356094D01*
X41478000Y-14356241D01*
X41467619Y-14356346D01*
X41457562Y-14356409D01*
X41447828Y-14356430D01*
X41437367Y-14355846D01*
X41426269Y-14353689D01*
X41416363Y-14349942D01*
X41407649Y-14344606D01*
X41402155Y-14339822D01*
X41395588Y-14331948D01*
X41390635Y-14322858D01*
X41387294Y-14312553D01*
X41385714Y-14302753D01*
X41385302Y-14293904D01*
X41385302Y-14237728D01*
X41385976Y-14224022D01*
X41387999Y-14211665D01*
X41391369Y-14200655D01*
X41396087Y-14190994D01*
X41402154Y-14182680D01*
X41409568Y-14175715D01*
X41418331Y-14170098D01*
X41428442Y-14165829D01*
X41439901Y-14162908D01*
X41452708Y-14161335D01*
X41461995Y-14161036D01*
X41765100Y-14161036D01*
X41765100Y-13948545D01*
X41490082Y-13948545D01*
X41476377Y-13947870D01*
X41464019Y-13945848D01*
X41453010Y-13942478D01*
X41443348Y-13937760D01*
X41435035Y-13931693D01*
X41428070Y-13924279D01*
X41422453Y-13915516D01*
X41418184Y-13905405D01*
X41415263Y-13893946D01*
X41413690Y-13881139D01*
X41413390Y-13871852D01*
X41413390Y-13843764D01*
X41414064Y-13830059D01*
X41416086Y-13817701D01*
X41419457Y-13806691D01*
X41424175Y-13797030D01*
X41430242Y-13788717D01*
X41437656Y-13781751D01*
X41446419Y-13776134D01*
X41456530Y-13771865D01*
X41467989Y-13768944D01*
X41480796Y-13767372D01*
X41490082Y-13767072D01*
X41905784Y-13767072D01*
X41905784Y-13554581D01*
X41419741Y-13554581D01*
X41402384Y-13554835D01*
X41385608Y-13555596D01*
X41369411Y-13556865D01*
X41353795Y-13558641D01*
X41338759Y-13560925D01*
X41324303Y-13563717D01*
X41310427Y-13567016D01*
X41297131Y-13570823D01*
X41284415Y-13575137D01*
X41272279Y-13579959D01*
X41260723Y-13585289D01*
X41249748Y-13591126D01*
X41239352Y-13597470D01*
X41229536Y-13604322D01*
X41220301Y-13611682D01*
X41211646Y-13619549D01*
X41203512Y-13627900D01*
X41195903Y-13636772D01*
X41188819Y-13646165D01*
X41182260Y-13656079D01*
X41176226Y-13666514D01*
X41170716Y-13677469D01*
X41165731Y-13688946D01*
X41161271Y-13700943D01*
X41157335Y-13713462D01*
X41153924Y-13726501D01*
X41151038Y-13740061D01*
X41148677Y-13754142D01*
X41146840Y-13768745D01*
X41145528Y-13783868D01*
X41144741Y-13799512D01*
X41144479Y-13815676D01*
X41144636Y-13826391D01*
X41145109Y-13836857D01*
X41145896Y-13847075D01*
X41146998Y-13857045D01*
X41148414Y-13866767D01*
X41151130Y-13880885D01*
X41154554Y-13894445D01*
X41158686Y-13907446D01*
X41163527Y-13919890D01*
X41169076Y-13931775D01*
X41175334Y-13943102D01*
X41182300Y-13953872D01*
X41184779Y-13957337D01*
X41192300Y-13967237D01*
X41199843Y-13976420D01*
X41207407Y-13984885D01*
X41214993Y-13992634D01*
X41222600Y-13999666D01*
X41230228Y-14005981D01*
X41240433Y-14013285D01*
X41250676Y-14019315D01*
X41260957Y-14024070D01*
X41266112Y-14025969D01*
X41254679Y-14029533D01*
X41243645Y-14033873D01*
X41233010Y-14038990D01*
X41222774Y-14044883D01*
X41212937Y-14051553D01*
X41203498Y-14059000D01*
X41194458Y-14067223D01*
X41185817Y-14076222D01*
X41177575Y-14085999D01*
X41169731Y-14096552D01*
X41162287Y-14107881D01*
X41155241Y-14119988D01*
X41148594Y-14132871D01*
X41142346Y-14146530D01*
X41136496Y-14160966D01*
X41131046Y-14176179D01*
X41127611Y-14187578D01*
X41124634Y-14199428D01*
X41122115Y-14211728D01*
X41120055Y-14224478D01*
X41118810Y-14234336D01*
X41117822Y-14244448D01*
X41117092Y-14254812D01*
X41116620Y-14265431D01*
X41116405Y-14276302D01*
X41116391Y-14279982D01*
X41116391Y-14293904D01*
X41116653Y-14311261D01*
X41117440Y-14328041D01*
X41118752Y-14344242D01*
X41120589Y-14359865D01*
X41122950Y-14374910D01*
X41125836Y-14389376D01*
X41129247Y-14403265D01*
X41133183Y-14416575D01*
X41137643Y-14429307D01*
X41142628Y-14441461D01*
X41148138Y-14453037D01*
X41154172Y-14464034D01*
X41160732Y-14474454D01*
X41167816Y-14484295D01*
X41175424Y-14493558D01*
X41183558Y-14502243D01*
X41192213Y-14510347D01*
X41201449Y-14517928D01*
X41211264Y-14524986D01*
X41221660Y-14531522D01*
X41232635Y-14537534D01*
X41244191Y-14543024D01*
X41256327Y-14547991D01*
X41269043Y-14552435D01*
X41282339Y-14556356D01*
X41296215Y-14559755D01*
X41310671Y-14562630D01*
X41325707Y-14564983D01*
X41341323Y-14566813D01*
X41357520Y-14568120D01*
X41374296Y-14568904D01*
X41391653Y-14569166D01*
G37*
G36*
X42893258Y-1833262D02*
G01*
X42914234Y-1835471D01*
X42935093Y-1837610D01*
X42955834Y-1839678D01*
X42976457Y-1841677D01*
X42996962Y-1843605D01*
X43017349Y-1845464D01*
X43037619Y-1847252D01*
X43057770Y-1848970D01*
X43077804Y-1850618D01*
X43097720Y-1852195D01*
X43117519Y-1853703D01*
X43137199Y-1855141D01*
X43156762Y-1856508D01*
X43176206Y-1857805D01*
X43195533Y-1859033D01*
X43214742Y-1860190D01*
X43233834Y-1861277D01*
X43252807Y-1862293D01*
X43271663Y-1863240D01*
X43290400Y-1864117D01*
X43309020Y-1864923D01*
X43327522Y-1865659D01*
X43345907Y-1866326D01*
X43364173Y-1866922D01*
X43382322Y-1867448D01*
X43400353Y-1867903D01*
X43418266Y-1868289D01*
X43436061Y-1868605D01*
X43453738Y-1868850D01*
X43471297Y-1869025D01*
X43488739Y-1869131D01*
X43506063Y-1869166D01*
X43523420Y-1868904D01*
X43540200Y-1868120D01*
X43556401Y-1866813D01*
X43572024Y-1864983D01*
X43587069Y-1862630D01*
X43601535Y-1859755D01*
X43615424Y-1856356D01*
X43628734Y-1852435D01*
X43641466Y-1847991D01*
X43653620Y-1843024D01*
X43665196Y-1837534D01*
X43676193Y-1831522D01*
X43686613Y-1824986D01*
X43696454Y-1817928D01*
X43705717Y-1810347D01*
X43714402Y-1802243D01*
X43722506Y-1793558D01*
X43730087Y-1784295D01*
X43737145Y-1774454D01*
X43743681Y-1764034D01*
X43749693Y-1753037D01*
X43755183Y-1741461D01*
X43760150Y-1729307D01*
X43764594Y-1716575D01*
X43768515Y-1703265D01*
X43771914Y-1689376D01*
X43774789Y-1674910D01*
X43777142Y-1659865D01*
X43778972Y-1644242D01*
X43780279Y-1628041D01*
X43781063Y-1611261D01*
X43781325Y-1593904D01*
X43781325Y-1143764D01*
X43781055Y-1125216D01*
X43780245Y-1107307D01*
X43778895Y-1090038D01*
X43777005Y-1073407D01*
X43774575Y-1057416D01*
X43771605Y-1042064D01*
X43768095Y-1027351D01*
X43764044Y-1013278D01*
X43759454Y-999843D01*
X43754324Y-987048D01*
X43748654Y-974892D01*
X43742444Y-963376D01*
X43735694Y-952498D01*
X43728404Y-942260D01*
X43720574Y-932661D01*
X43712204Y-923702D01*
X43703216Y-915331D01*
X43693592Y-907501D01*
X43683333Y-900211D01*
X43672438Y-893461D01*
X43660908Y-887251D01*
X43648743Y-881581D01*
X43635942Y-876451D01*
X43622506Y-871861D01*
X43608434Y-867811D01*
X43593727Y-864301D01*
X43578385Y-861331D01*
X43562407Y-858901D01*
X43545793Y-857011D01*
X43528545Y-855661D01*
X43510661Y-854851D01*
X43492141Y-854581D01*
X42977766Y-854581D01*
X42977766Y-1067072D01*
X43435721Y-1067072D01*
X43449427Y-1067746D01*
X43461784Y-1069768D01*
X43472794Y-1073139D01*
X43482455Y-1077857D01*
X43490769Y-1083923D01*
X43497734Y-1091338D01*
X43503351Y-1100101D01*
X43507620Y-1110211D01*
X43510541Y-1121670D01*
X43512114Y-1134477D01*
X43512413Y-1143764D01*
X43512413Y-1593904D01*
X43511829Y-1604448D01*
X43510078Y-1614100D01*
X43506558Y-1624231D01*
X43501449Y-1633147D01*
X43495805Y-1639822D01*
X43487847Y-1646293D01*
X43478721Y-1651175D01*
X43468426Y-1654468D01*
X43458672Y-1656025D01*
X43449887Y-1656430D01*
X43439816Y-1656424D01*
X43429815Y-1656404D01*
X43419884Y-1656372D01*
X43410022Y-1656327D01*
X43400230Y-1656269D01*
X43380855Y-1656115D01*
X43361758Y-1655908D01*
X43342940Y-1655651D01*
X43324400Y-1655342D01*
X43306139Y-1654981D01*
X43288157Y-1654569D01*
X43270453Y-1654105D01*
X43253028Y-1653590D01*
X43235881Y-1653023D01*
X43219013Y-1652405D01*
X43202424Y-1651735D01*
X43186113Y-1651014D01*
X43170081Y-1650241D01*
X43162169Y-1649836D01*
X43162169Y-1461036D01*
X43345107Y-1461036D01*
X43345107Y-1276632D01*
X42893258Y-1276632D01*
X42893258Y-1833262D01*
G37*
G36*
X41899434Y-1855000D02*
G01*
X42179092Y-1855000D01*
X42504423Y-1285669D01*
X42504423Y-1855000D01*
X42773090Y-1855000D01*
X42773090Y-854581D01*
X42493432Y-854581D01*
X42168345Y-1423667D01*
X42168345Y-854581D01*
X41899434Y-854581D01*
X41899434Y-1855000D01*
G37*
G36*
X41751178Y-1855000D02*
G01*
X41194793Y-1855000D01*
X41184733Y-1854917D01*
X41174824Y-1854669D01*
X41155462Y-1853679D01*
X41136707Y-1852029D01*
X41118559Y-1849718D01*
X41101017Y-1846747D01*
X41084082Y-1843116D01*
X41067754Y-1838824D01*
X41052033Y-1833872D01*
X41036919Y-1828261D01*
X41022411Y-1821989D01*
X41008510Y-1815056D01*
X40995216Y-1807464D01*
X40982529Y-1799211D01*
X40970448Y-1790298D01*
X40958975Y-1780725D01*
X40948108Y-1770491D01*
X40937845Y-1759595D01*
X40928244Y-1748094D01*
X40919305Y-1735987D01*
X40911029Y-1723276D01*
X40903414Y-1709960D01*
X40896462Y-1696039D01*
X40890171Y-1681514D01*
X40884543Y-1666383D01*
X40879577Y-1650647D01*
X40875274Y-1634307D01*
X40871632Y-1617362D01*
X40868652Y-1599812D01*
X40866335Y-1581656D01*
X40864680Y-1562897D01*
X40863686Y-1543532D01*
X40863438Y-1533622D01*
X40863355Y-1523562D01*
X41132267Y-1523562D01*
X41132730Y-1537966D01*
X41134121Y-1551440D01*
X41136440Y-1563985D01*
X41139686Y-1575601D01*
X41143859Y-1586288D01*
X41148959Y-1596045D01*
X41154987Y-1604873D01*
X41161942Y-1612772D01*
X41169825Y-1619741D01*
X41178635Y-1625781D01*
X41188372Y-1630892D01*
X41199037Y-1635074D01*
X41210629Y-1638327D01*
X41223148Y-1640650D01*
X41236595Y-1642044D01*
X41250969Y-1642508D01*
X41482511Y-1642508D01*
X41482511Y-1067072D01*
X41250969Y-1067072D01*
X41236595Y-1067537D01*
X41223148Y-1068931D01*
X41210629Y-1071254D01*
X41199037Y-1074506D01*
X41188372Y-1078688D01*
X41178635Y-1083799D01*
X41169825Y-1089839D01*
X41161942Y-1096809D01*
X41154987Y-1104707D01*
X41148959Y-1113535D01*
X41143859Y-1123293D01*
X41139686Y-1133979D01*
X41136440Y-1145595D01*
X41134121Y-1158140D01*
X41132730Y-1171615D01*
X41132267Y-1186018D01*
X41132267Y-1523562D01*
X40863355Y-1523562D01*
X40863355Y-1186018D01*
X40863438Y-1175958D01*
X40863686Y-1166050D01*
X40864680Y-1146688D01*
X40866335Y-1127932D01*
X40868652Y-1109784D01*
X40871632Y-1092242D01*
X40875274Y-1075308D01*
X40879577Y-1058980D01*
X40884543Y-1043258D01*
X40890171Y-1028144D01*
X40896462Y-1013636D01*
X40903414Y-999735D01*
X40911029Y-986441D01*
X40919305Y-973754D01*
X40928244Y-961674D01*
X40937845Y-950200D01*
X40948108Y-939333D01*
X40958975Y-929070D01*
X40970448Y-919469D01*
X40982529Y-910531D01*
X40995216Y-902254D01*
X41008510Y-894639D01*
X41022411Y-887687D01*
X41036919Y-881397D01*
X41052033Y-875769D01*
X41067754Y-870803D01*
X41084082Y-866499D01*
X41101017Y-862857D01*
X41118559Y-859878D01*
X41136707Y-857560D01*
X41155462Y-855905D01*
X41174824Y-854912D01*
X41184733Y-854664D01*
X41194793Y-854581D01*
X41751178Y-854581D01*
X41751178Y-1855000D01*
G37*
G36*
X42977766Y-17080101D02*
G01*
X42997728Y-17081889D01*
X43017468Y-17083620D01*
X43036984Y-17085295D01*
X43056278Y-17086913D01*
X43075350Y-17088474D01*
X43094198Y-17089978D01*
X43112824Y-17091426D01*
X43131227Y-17092817D01*
X43149407Y-17094151D01*
X43167364Y-17095428D01*
X43185099Y-17096648D01*
X43202610Y-17097812D01*
X43219899Y-17098919D01*
X43236966Y-17099969D01*
X43253809Y-17100963D01*
X43270430Y-17101899D01*
X43286828Y-17102779D01*
X43303003Y-17103602D01*
X43318955Y-17104369D01*
X43334685Y-17105078D01*
X43350191Y-17105731D01*
X43365475Y-17106327D01*
X43380537Y-17106867D01*
X43395375Y-17107349D01*
X43409991Y-17107775D01*
X43424384Y-17108144D01*
X43438554Y-17108456D01*
X43452501Y-17108711D01*
X43466226Y-17108910D01*
X43479728Y-17109052D01*
X43493007Y-17109137D01*
X43506063Y-17109166D01*
X43523420Y-17108904D01*
X43540200Y-17108120D01*
X43556401Y-17106813D01*
X43572024Y-17104983D01*
X43587069Y-17102630D01*
X43601535Y-17099755D01*
X43615424Y-17096356D01*
X43628734Y-17092435D01*
X43641466Y-17087991D01*
X43653620Y-17083024D01*
X43665196Y-17077534D01*
X43676193Y-17071522D01*
X43686613Y-17064986D01*
X43696454Y-17057928D01*
X43705717Y-17050347D01*
X43714402Y-17042243D01*
X43722506Y-17033558D01*
X43730087Y-17024295D01*
X43737145Y-17014454D01*
X43743681Y-17004034D01*
X43749693Y-16993037D01*
X43755183Y-16981461D01*
X43760150Y-16969307D01*
X43764594Y-16956575D01*
X43768515Y-16943265D01*
X43771914Y-16929376D01*
X43774789Y-16914910D01*
X43777142Y-16899865D01*
X43778972Y-16884242D01*
X43780279Y-16868041D01*
X43781063Y-16851261D01*
X43781325Y-16833904D01*
X43781325Y-16383764D01*
X43781055Y-16365216D01*
X43780245Y-16347307D01*
X43778895Y-16330038D01*
X43777005Y-16313407D01*
X43774575Y-16297416D01*
X43771605Y-16282064D01*
X43768095Y-16267351D01*
X43764044Y-16253278D01*
X43759454Y-16239843D01*
X43754324Y-16227048D01*
X43748654Y-16214892D01*
X43742444Y-16203376D01*
X43735694Y-16192498D01*
X43728404Y-16182260D01*
X43720574Y-16172661D01*
X43712204Y-16163702D01*
X43703216Y-16155331D01*
X43693592Y-16147501D01*
X43683333Y-16140211D01*
X43672438Y-16133461D01*
X43660908Y-16127251D01*
X43648743Y-16121581D01*
X43635942Y-16116451D01*
X43622506Y-16111861D01*
X43608434Y-16107811D01*
X43593727Y-16104301D01*
X43578385Y-16101331D01*
X43562407Y-16098901D01*
X43545793Y-16097011D01*
X43528545Y-16095661D01*
X43510661Y-16094851D01*
X43492141Y-16094581D01*
X42977766Y-16094581D01*
X42977766Y-16307072D01*
X43435721Y-16307072D01*
X43449427Y-16307746D01*
X43461784Y-16309768D01*
X43472794Y-16313139D01*
X43482455Y-16317857D01*
X43490769Y-16323923D01*
X43497734Y-16331338D01*
X43503351Y-16340101D01*
X43507620Y-16350211D01*
X43510541Y-16361670D01*
X43512114Y-16374477D01*
X43512413Y-16383764D01*
X43512413Y-16833904D01*
X43511829Y-16844448D01*
X43510078Y-16854100D01*
X43506558Y-16864231D01*
X43501449Y-16873147D01*
X43495805Y-16879822D01*
X43487906Y-16886293D01*
X43478955Y-16891175D01*
X43468952Y-16894468D01*
X43457898Y-16896171D01*
X43451108Y-16896430D01*
X43440335Y-16896404D01*
X43429081Y-16896327D01*
X43417346Y-16896198D01*
X43407199Y-16896052D01*
X43396718Y-16895869D01*
X43388094Y-16895697D01*
X43377037Y-16895456D01*
X43365849Y-16895192D01*
X43354531Y-16894903D01*
X43343080Y-16894591D01*
X43331499Y-16894254D01*
X43319787Y-16893894D01*
X43315065Y-16893743D01*
X43303152Y-16893285D01*
X43291228Y-16892827D01*
X43279291Y-16892370D01*
X43267342Y-16891912D01*
X43255382Y-16891454D01*
X43243409Y-16890996D01*
X43238617Y-16890812D01*
X43228615Y-16890404D01*
X43217902Y-16889912D01*
X43206480Y-16889336D01*
X43194348Y-16888675D01*
X43181506Y-16887931D01*
X43171409Y-16887318D01*
X43160913Y-16886657D01*
X43150017Y-16885950D01*
X43138722Y-16885195D01*
X43126890Y-16884399D01*
X43114384Y-16883569D01*
X43101204Y-16882705D01*
X43087351Y-16881806D01*
X43072823Y-16880873D01*
X43062763Y-16880232D01*
X43052404Y-16879575D01*
X43041745Y-16878904D01*
X43030786Y-16878217D01*
X43019528Y-16877515D01*
X43007970Y-16876797D01*
X42996113Y-16876064D01*
X42983956Y-16875316D01*
X42977766Y-16874937D01*
X42977766Y-17080101D01*
G37*
G36*
X42011785Y-17095000D02*
G01*
X42280697Y-17095000D01*
X42280697Y-16693953D01*
X42616775Y-16693953D01*
X42616775Y-17095000D01*
X42885442Y-17095000D01*
X42885442Y-16094581D01*
X42616775Y-16094581D01*
X42616775Y-16481461D01*
X42280697Y-16481461D01*
X42280697Y-16094581D01*
X42011785Y-16094581D01*
X42011785Y-17095000D01*
G37*
G36*
X41144479Y-16411852D02*
G01*
X41144885Y-16427137D01*
X41146105Y-16442157D01*
X41148137Y-16456912D01*
X41150982Y-16471402D01*
X41154640Y-16485626D01*
X41159111Y-16499585D01*
X41164394Y-16513279D01*
X41170491Y-16526707D01*
X41177400Y-16539871D01*
X41185122Y-16552769D01*
X41193658Y-16565402D01*
X41203006Y-16577769D01*
X41213166Y-16589872D01*
X41224140Y-16601709D01*
X41235927Y-16613281D01*
X41248526Y-16624588D01*
X41256430Y-16631308D01*
X41264509Y-16638036D01*
X41272764Y-16644772D01*
X41281194Y-16651516D01*
X41289800Y-16658267D01*
X41298581Y-16665025D01*
X41307538Y-16671792D01*
X41316670Y-16678565D01*
X41599503Y-16882508D01*
X41144479Y-16882508D01*
X41144479Y-17095000D01*
X41919950Y-17095000D01*
X41919950Y-16816074D01*
X41413390Y-16450198D01*
X41413390Y-16383764D01*
X41414064Y-16370059D01*
X41416086Y-16357701D01*
X41419457Y-16346691D01*
X41424175Y-16337030D01*
X41430242Y-16328717D01*
X41437656Y-16321751D01*
X41446419Y-16316134D01*
X41456530Y-16311865D01*
X41467989Y-16308944D01*
X41480796Y-16307372D01*
X41490082Y-16307072D01*
X41891862Y-16307072D01*
X41891862Y-16094581D01*
X41433662Y-16094581D01*
X41415144Y-16094851D01*
X41397263Y-16095661D01*
X41380019Y-16097011D01*
X41363412Y-16098901D01*
X41347443Y-16101331D01*
X41332111Y-16104301D01*
X41317416Y-16107811D01*
X41303359Y-16111861D01*
X41289939Y-16116451D01*
X41277156Y-16121581D01*
X41265011Y-16127251D01*
X41253503Y-16133461D01*
X41242632Y-16140211D01*
X41232399Y-16147501D01*
X41222803Y-16155331D01*
X41213844Y-16163702D01*
X41205444Y-16172661D01*
X41197586Y-16182260D01*
X41190271Y-16192498D01*
X41183497Y-16203376D01*
X41177265Y-16214892D01*
X41171575Y-16227048D01*
X41166426Y-16239843D01*
X41161820Y-16253278D01*
X41157756Y-16267351D01*
X41154233Y-16282064D01*
X41151253Y-16297416D01*
X41148814Y-16313407D01*
X41146917Y-16330038D01*
X41145563Y-16347307D01*
X41144750Y-16365216D01*
X41144479Y-16383764D01*
X41144479Y-16411852D01*
G37*
G36*
X42977766Y-4380101D02*
G01*
X42997728Y-4381889D01*
X43017468Y-4383620D01*
X43036984Y-4385295D01*
X43056278Y-4386913D01*
X43075350Y-4388474D01*
X43094198Y-4389978D01*
X43112824Y-4391426D01*
X43131227Y-4392817D01*
X43149407Y-4394151D01*
X43167364Y-4395428D01*
X43185099Y-4396648D01*
X43202610Y-4397812D01*
X43219899Y-4398919D01*
X43236966Y-4399969D01*
X43253809Y-4400963D01*
X43270430Y-4401899D01*
X43286828Y-4402779D01*
X43303003Y-4403602D01*
X43318955Y-4404369D01*
X43334685Y-4405078D01*
X43350191Y-4405731D01*
X43365475Y-4406327D01*
X43380537Y-4406867D01*
X43395375Y-4407349D01*
X43409991Y-4407775D01*
X43424384Y-4408144D01*
X43438554Y-4408456D01*
X43452501Y-4408711D01*
X43466226Y-4408910D01*
X43479728Y-4409052D01*
X43493007Y-4409137D01*
X43506063Y-4409166D01*
X43523420Y-4408904D01*
X43540200Y-4408120D01*
X43556401Y-4406813D01*
X43572024Y-4404983D01*
X43587069Y-4402630D01*
X43601535Y-4399755D01*
X43615424Y-4396356D01*
X43628734Y-4392435D01*
X43641466Y-4387991D01*
X43653620Y-4383024D01*
X43665196Y-4377534D01*
X43676193Y-4371522D01*
X43686613Y-4364986D01*
X43696454Y-4357928D01*
X43705717Y-4350347D01*
X43714402Y-4342243D01*
X43722506Y-4333558D01*
X43730087Y-4324295D01*
X43737145Y-4314454D01*
X43743681Y-4304034D01*
X43749693Y-4293037D01*
X43755183Y-4281461D01*
X43760150Y-4269307D01*
X43764594Y-4256575D01*
X43768515Y-4243265D01*
X43771914Y-4229376D01*
X43774789Y-4214910D01*
X43777142Y-4199865D01*
X43778972Y-4184242D01*
X43780279Y-4168041D01*
X43781063Y-4151261D01*
X43781325Y-4133904D01*
X43781325Y-3683764D01*
X43781055Y-3665216D01*
X43780245Y-3647307D01*
X43778895Y-3630038D01*
X43777005Y-3613407D01*
X43774575Y-3597416D01*
X43771605Y-3582064D01*
X43768095Y-3567351D01*
X43764044Y-3553278D01*
X43759454Y-3539843D01*
X43754324Y-3527048D01*
X43748654Y-3514892D01*
X43742444Y-3503376D01*
X43735694Y-3492498D01*
X43728404Y-3482260D01*
X43720574Y-3472661D01*
X43712204Y-3463702D01*
X43703216Y-3455331D01*
X43693592Y-3447501D01*
X43683333Y-3440211D01*
X43672438Y-3433461D01*
X43660908Y-3427251D01*
X43648743Y-3421581D01*
X43635942Y-3416451D01*
X43622506Y-3411861D01*
X43608434Y-3407811D01*
X43593727Y-3404301D01*
X43578385Y-3401331D01*
X43562407Y-3398901D01*
X43545793Y-3397011D01*
X43528545Y-3395661D01*
X43510661Y-3394851D01*
X43492141Y-3394581D01*
X42977766Y-3394581D01*
X42977766Y-3607072D01*
X43435721Y-3607072D01*
X43449427Y-3607746D01*
X43461784Y-3609768D01*
X43472794Y-3613139D01*
X43482455Y-3617857D01*
X43490769Y-3623923D01*
X43497734Y-3631338D01*
X43503351Y-3640101D01*
X43507620Y-3650211D01*
X43510541Y-3661670D01*
X43512114Y-3674477D01*
X43512413Y-3683764D01*
X43512413Y-4133904D01*
X43511829Y-4144448D01*
X43510078Y-4154100D01*
X43506558Y-4164231D01*
X43501449Y-4173147D01*
X43495805Y-4179822D01*
X43487906Y-4186293D01*
X43478955Y-4191175D01*
X43468952Y-4194468D01*
X43457898Y-4196171D01*
X43451108Y-4196430D01*
X43440335Y-4196404D01*
X43429081Y-4196327D01*
X43417346Y-4196198D01*
X43407199Y-4196052D01*
X43396718Y-4195869D01*
X43388094Y-4195697D01*
X43377037Y-4195456D01*
X43365849Y-4195192D01*
X43354531Y-4194903D01*
X43343080Y-4194591D01*
X43331499Y-4194254D01*
X43319787Y-4193894D01*
X43315065Y-4193743D01*
X43303152Y-4193285D01*
X43291228Y-4192827D01*
X43279291Y-4192370D01*
X43267342Y-4191912D01*
X43255382Y-4191454D01*
X43243409Y-4190996D01*
X43238617Y-4190812D01*
X43228615Y-4190404D01*
X43217902Y-4189912D01*
X43206480Y-4189336D01*
X43194348Y-4188675D01*
X43181506Y-4187931D01*
X43171409Y-4187318D01*
X43160913Y-4186657D01*
X43150017Y-4185950D01*
X43138722Y-4185195D01*
X43126890Y-4184399D01*
X43114384Y-4183569D01*
X43101204Y-4182705D01*
X43087351Y-4181806D01*
X43072823Y-4180873D01*
X43062763Y-4180232D01*
X43052404Y-4179575D01*
X43041745Y-4178904D01*
X43030786Y-4178217D01*
X43019528Y-4177515D01*
X43007970Y-4176797D01*
X42996113Y-4176064D01*
X42983956Y-4175316D01*
X42977766Y-4174937D01*
X42977766Y-4380101D01*
G37*
G36*
X42011785Y-4395000D02*
G01*
X42280697Y-4395000D01*
X42280697Y-3993953D01*
X42616775Y-3993953D01*
X42616775Y-4395000D01*
X42885442Y-4395000D01*
X42885442Y-3394581D01*
X42616775Y-3394581D01*
X42616775Y-3781461D01*
X42280697Y-3781461D01*
X42280697Y-3394581D01*
X42011785Y-3394581D01*
X42011785Y-4395000D01*
G37*
G36*
X41933872Y-3394581D02*
G01*
X41158645Y-3394581D01*
X41158645Y-3600722D01*
X41484953Y-4395000D01*
X41783418Y-4395000D01*
X41445630Y-3607072D01*
X41933872Y-3607072D01*
X41933872Y-3394581D01*
G37*
D13*
%TO.C,HOLE2*%
X40335000Y-2865000D02*
G75*
G03*
X40335000Y-2865000I-1800000J0D01*
G01*
%TO.C,HOLE4*%
X2655000Y-2865000D02*
G75*
G03*
X2655000Y-2865000I-1800000J0D01*
G01*
%TO.C,HOLE3*%
X2655000Y-22865000D02*
G75*
G03*
X2655000Y-22865000I-1800000J0D01*
G01*
%TO.C,HOLE1*%
X40335000Y-22865000D02*
G75*
G03*
X40335000Y-22865000I-1800000J0D01*
G01*
%TD*%
%LPC*%
D14*
%TO.C,HOLE2*%
X38535000Y-2865000D03*
%TD*%
%TO.C,HOLE4*%
X855000Y-2865000D03*
%TD*%
D15*
%TO.C,USB1*%
X3634000Y-9910000D03*
X3634000Y-15690000D03*
D16*
X4134000Y-8475000D03*
X4134000Y-17125000D03*
D17*
X-66000Y-8475000D03*
X-66000Y-17125000D03*
%TD*%
D14*
%TO.C,HOLE3*%
X855000Y-22865000D03*
%TD*%
D18*
%TO.C,J1*%
X45440000Y-1370000D03*
D19*
X45440000Y-3910000D03*
X45440000Y-6450000D03*
X45440000Y-8990000D03*
X45440000Y-11530000D03*
X45440000Y-14070000D03*
X45440000Y-16610000D03*
X45440000Y-19150000D03*
X45440000Y-21690000D03*
X45440000Y-24230000D03*
%TD*%
D14*
%TO.C,HOLE1*%
X38535000Y-22865000D03*
%TD*%
%LPD*%
M02*
