%TF.GenerationSoftware,KiCad,Pcbnew,8.0.6*%
%TF.CreationDate,2024-11-28T18:21:41+08:00*%
%TF.ProjectId,UINIO-Logic-24MHz,55494e49-4f2d-44c6-9f67-69632d32344d,Version 5.0.0*%
%TF.SameCoordinates,PX78f6cc0PY58928f8*%
%TF.FileFunction,Soldermask,Top*%
%TF.FilePolarity,Negative*%
%FSLAX46Y46*%
G04 Gerber Fmt 4.6, Leading zero omitted, Abs format (unit mm)*
G04 Created by KiCad (PCBNEW 8.0.6) date 2024-11-28 18:21:41*
%MOMM*%
%LPD*%
G01*
G04 APERTURE LIST*
G04 Aperture macros list*
%AMRoundRect*
0 Rectangle with rounded corners*
0 $1 Rounding radius*
0 $2 $3 $4 $5 $6 $7 $8 $9 X,Y pos of 4 corners*
0 Add a 4 corners polygon primitive as box body*
4,1,4,$2,$3,$4,$5,$6,$7,$8,$9,$2,$3,0*
0 Add four circle primitives for the rounded corners*
1,1,$1+$1,$2,$3*
1,1,$1+$1,$4,$5*
1,1,$1+$1,$6,$7*
1,1,$1+$1,$8,$9*
0 Add four rect primitives between the rounded corners*
20,1,$1+$1,$2,$3,$4,$5,0*
20,1,$1+$1,$4,$5,$6,$7,0*
20,1,$1+$1,$6,$7,$8,$9,0*
20,1,$1+$1,$8,$9,$2,$3,0*%
%AMFreePoly0*
4,1,17,0.300000,0.502500,0.435000,0.367500,0.500000,0.367500,0.500000,-0.367500,0.435000,-0.367500,0.300000,-0.502500,0.300000,-0.587500,-0.300000,-0.587500,-0.300000,-0.502500,-0.435000,-0.367500,-0.750000,-0.367500,-0.750000,0.367500,-0.435000,0.367500,-0.300000,0.502500,-0.300000,0.837549,0.300000,0.837549,0.300000,0.502500,0.300000,0.502500,$1*%
%AMFreePoly1*
4,1,17,0.300000,0.502500,0.435000,0.367500,0.500000,0.367500,0.500000,-0.367500,0.435000,-0.367500,0.300000,-0.502500,0.300000,-0.587500,-0.300000,-0.587500,-0.300000,-0.502500,-0.435000,-0.367500,-0.750000,-0.367500,-0.750000,0.367500,-0.435000,0.367500,-0.300000,0.502500,-0.300000,0.587500,0.300000,0.587500,0.300000,0.502500,0.300000,0.502500,$1*%
%AMFreePoly2*
4,1,17,0.300000,0.502500,0.435000,0.367500,0.500000,0.367500,0.500000,-0.367500,0.435000,-0.367500,0.300000,-0.502500,0.300000,-0.837549,-0.300000,-0.837549,-0.300000,-0.502500,-0.435000,-0.367500,-0.750000,-0.367500,-0.750000,0.367500,-0.435000,0.367500,-0.300000,0.502500,-0.300000,0.587500,0.300000,0.587500,0.300000,0.502500,0.300000,0.502500,$1*%
%AMFreePoly3*
4,1,17,0.300000,0.502500,0.435000,0.367500,0.500000,0.367500,0.500000,-0.367500,0.435000,-0.367500,0.300000,-0.502500,0.300000,-0.587500,-0.300000,-0.587500,-0.300000,-0.502500,-0.435000,-0.367500,-0.500000,-0.367500,-0.500000,0.367500,-0.435000,0.367500,-0.300000,0.502500,-0.300000,0.837549,0.300000,0.837549,0.300000,0.502500,0.300000,0.502500,$1*%
%AMFreePoly4*
4,1,17,0.300000,0.502500,0.435000,0.367500,0.500000,0.367500,0.500000,-0.367500,0.435000,-0.367500,0.300000,-0.502500,0.300000,-0.587500,-0.300000,-0.587500,-0.300000,-0.502500,-0.435000,-0.367500,-0.500000,-0.367500,-0.500000,0.367500,-0.435000,0.367500,-0.300000,0.502500,-0.300000,0.587500,0.300000,0.587500,0.300000,0.502500,0.300000,0.502500,$1*%
%AMFreePoly5*
4,1,17,0.300000,0.502500,0.435000,0.367500,0.500000,0.367500,0.500000,-0.367500,0.435000,-0.367500,0.300000,-0.502500,0.300000,-0.837549,-0.300000,-0.837549,-0.300000,-0.502500,-0.435000,-0.367500,-0.500000,-0.367500,-0.500000,0.367500,-0.435000,0.367500,-0.300000,0.502500,-0.300000,0.587500,0.300000,0.587500,0.300000,0.502500,0.300000,0.502500,$1*%
%AMFreePoly6*
4,1,17,0.300000,0.502500,0.435000,0.367500,0.750000,0.367500,0.750000,-0.367500,0.435000,-0.367500,0.300000,-0.502500,0.300000,-0.587500,-0.300000,-0.587500,-0.300000,-0.502500,-0.435000,-0.367500,-0.500000,-0.367500,-0.500000,0.367500,-0.435000,0.367500,-0.300000,0.502500,-0.300000,0.837549,0.300000,0.837549,0.300000,0.502500,0.300000,0.502500,$1*%
%AMFreePoly7*
4,1,17,0.300000,0.502500,0.435000,0.367500,0.750000,0.367500,0.750000,-0.367500,0.435000,-0.367500,0.300000,-0.502500,0.300000,-0.587500,-0.300000,-0.587500,-0.300000,-0.502500,-0.435000,-0.367500,-0.500000,-0.367500,-0.500000,0.367500,-0.435000,0.367500,-0.300000,0.502500,-0.300000,0.587500,0.300000,0.587500,0.300000,0.502500,0.300000,0.502500,$1*%
%AMFreePoly8*
4,1,17,0.300000,0.502500,0.435000,0.367500,0.750000,0.367500,0.750000,-0.367500,0.435000,-0.367500,0.300000,-0.502500,0.300000,-0.837549,-0.300000,-0.837549,-0.300000,-0.502500,-0.435000,-0.367500,-0.500000,-0.367500,-0.500000,0.367500,-0.435000,0.367500,-0.300000,0.502500,-0.300000,0.587500,0.300000,0.587500,0.300000,0.502500,0.300000,0.502500,$1*%
G04 Aperture macros list end*
%ADD10C,2.200000*%
%ADD11RoundRect,0.100000X0.637500X0.100000X-0.637500X0.100000X-0.637500X-0.100000X0.637500X-0.100000X0*%
%ADD12R,1.200000X1.200000*%
%ADD13RoundRect,0.225000X-0.250000X0.225000X-0.250000X-0.225000X0.250000X-0.225000X0.250000X0.225000X0*%
%ADD14RoundRect,0.150000X-0.200000X0.150000X-0.200000X-0.150000X0.200000X-0.150000X0.200000X0.150000X0*%
%ADD15RoundRect,0.135000X0.185000X-0.135000X0.185000X0.135000X-0.185000X0.135000X-0.185000X-0.135000X0*%
%ADD16RoundRect,0.140000X-0.140000X-0.170000X0.140000X-0.170000X0.140000X0.170000X-0.140000X0.170000X0*%
%ADD17RoundRect,0.200000X-0.200000X-0.275000X0.200000X-0.275000X0.200000X0.275000X-0.200000X0.275000X0*%
%ADD18RoundRect,0.140000X0.140000X0.170000X-0.140000X0.170000X-0.140000X-0.170000X0.140000X-0.170000X0*%
%ADD19RoundRect,0.135000X-0.185000X0.135000X-0.185000X-0.135000X0.185000X-0.135000X0.185000X0.135000X0*%
%ADD20FreePoly0,90.000000*%
%ADD21FreePoly1,90.000000*%
%ADD22FreePoly2,90.000000*%
%ADD23FreePoly3,90.000000*%
%ADD24FreePoly4,90.000000*%
%ADD25FreePoly5,90.000000*%
%ADD26FreePoly6,90.000000*%
%ADD27FreePoly7,90.000000*%
%ADD28FreePoly8,90.000000*%
%ADD29RoundRect,0.062500X0.062500X-0.375000X0.062500X0.375000X-0.062500X0.375000X-0.062500X-0.375000X0*%
%ADD30RoundRect,0.062500X0.375000X-0.062500X0.375000X0.062500X-0.375000X0.062500X-0.375000X-0.062500X0*%
%ADD31C,0.650000*%
%ADD32O,2.100000X1.000000*%
%ADD33O,1.900000X1.000000*%
%ADD34R,1.150000X0.600000*%
%ADD35R,1.150000X0.300000*%
%ADD36RoundRect,0.225000X0.250000X-0.225000X0.250000X0.225000X-0.250000X0.225000X-0.250000X-0.225000X0*%
%ADD37RoundRect,0.250000X-0.375000X-0.625000X0.375000X-0.625000X0.375000X0.625000X-0.375000X0.625000X0*%
%ADD38RoundRect,0.218750X0.218750X0.256250X-0.218750X0.256250X-0.218750X-0.256250X0.218750X-0.256250X0*%
%ADD39RoundRect,0.135000X-0.135000X-0.185000X0.135000X-0.185000X0.135000X0.185000X-0.135000X0.185000X0*%
%ADD40RoundRect,0.218750X0.256250X-0.218750X0.256250X0.218750X-0.256250X0.218750X-0.256250X-0.218750X0*%
%ADD41RoundRect,0.150000X0.200000X-0.150000X0.200000X0.150000X-0.200000X0.150000X-0.200000X-0.150000X0*%
%ADD42RoundRect,0.140000X0.170000X-0.140000X0.170000X0.140000X-0.170000X0.140000X-0.170000X-0.140000X0*%
%ADD43R,1.200000X1.400000*%
%ADD44RoundRect,0.140000X-0.170000X0.140000X-0.170000X-0.140000X0.170000X-0.140000X0.170000X0.140000X0*%
%ADD45O,1.742000X0.364000*%
%ADD46O,1.700000X1.700000*%
%ADD47R,1.000000X0.600000*%
G04 APERTURE END LIST*
D10*
%TO.C,HOLE2*%
X40540000Y-3305000D03*
%TD*%
D11*
%TO.C,U1*%
X35732500Y-19210000D03*
X35732500Y-18560000D03*
X35732500Y-17910000D03*
X35732500Y-17260000D03*
X30007500Y-17260000D03*
X30007500Y-17910000D03*
X30007500Y-18560000D03*
X30007500Y-19210000D03*
%TD*%
D12*
%TO.C,D4*%
X26102500Y-22595000D03*
X28902500Y-22595000D03*
%TD*%
D13*
%TO.C,C1*%
X10500000Y-21685000D03*
X10500000Y-23235000D03*
%TD*%
D14*
%TO.C,D5*%
X7110000Y-14670000D03*
X7110000Y-13270000D03*
%TD*%
D10*
%TO.C,HOLE4*%
X300000Y-3305000D03*
%TD*%
D15*
%TO.C,R16*%
X36964290Y-23510000D03*
X36964290Y-22490000D03*
%TD*%
%TO.C,R20*%
X12570000Y-10465000D03*
X12570000Y-9445000D03*
%TD*%
D16*
%TO.C,C5*%
X24970000Y-9935000D03*
X25930000Y-9935000D03*
%TD*%
D17*
%TO.C,R24*%
X7065000Y-8380000D03*
X8715000Y-8380000D03*
%TD*%
D18*
%TO.C,C12*%
X13530000Y-17925000D03*
X12570000Y-17925000D03*
%TD*%
D19*
%TO.C,R11*%
X33900000Y-1880000D03*
X33900000Y-2900000D03*
%TD*%
D20*
%TO.C,U4*%
X16707500Y-14200000D03*
D21*
X17882500Y-14200000D03*
X19057500Y-14200000D03*
D22*
X20232500Y-14200000D03*
D23*
X16707500Y-13200000D03*
D24*
X17882500Y-13200000D03*
X19057500Y-13200000D03*
D25*
X20232500Y-13200000D03*
D23*
X16707500Y-12200000D03*
D24*
X17882500Y-12200000D03*
X19057500Y-12200000D03*
D25*
X20232500Y-12200000D03*
D26*
X16707500Y-11200000D03*
D27*
X17882500Y-11200000D03*
X19057500Y-11200000D03*
D28*
X20232500Y-11200000D03*
D29*
X15220000Y-16637500D03*
X15720000Y-16637500D03*
X16220000Y-16637500D03*
X16720000Y-16637500D03*
X17220000Y-16637500D03*
X17720000Y-16637500D03*
X18220000Y-16637500D03*
X18720000Y-16637500D03*
X19220000Y-16637500D03*
X19720000Y-16637500D03*
X20220000Y-16637500D03*
X20720000Y-16637500D03*
X21220000Y-16637500D03*
X21720000Y-16637500D03*
D30*
X22407500Y-15950000D03*
X22407500Y-15450000D03*
X22407500Y-14950000D03*
X22407500Y-14450000D03*
X22407500Y-13950000D03*
X22407500Y-13450000D03*
X22407500Y-12950000D03*
X22407500Y-12450000D03*
X22407500Y-11950000D03*
X22407500Y-11450000D03*
X22407500Y-10950000D03*
X22407500Y-10450000D03*
X22407500Y-9950000D03*
X22407500Y-9450000D03*
D29*
X21720000Y-8762500D03*
X21220000Y-8762500D03*
X20720000Y-8762500D03*
X20220000Y-8762500D03*
X19720000Y-8762500D03*
X19220000Y-8762500D03*
X18720000Y-8762500D03*
X18220000Y-8762500D03*
X17720000Y-8762500D03*
X17220000Y-8762500D03*
X16720000Y-8762500D03*
X16220000Y-8762500D03*
X15720000Y-8762500D03*
X15220000Y-8762500D03*
D30*
X14532500Y-9450000D03*
X14532500Y-9950000D03*
X14532500Y-10450000D03*
X14532500Y-10950000D03*
X14532500Y-11450000D03*
X14532500Y-11950000D03*
X14532500Y-12450000D03*
X14532500Y-12950000D03*
X14532500Y-13450000D03*
X14532500Y-13950000D03*
X14532500Y-14450000D03*
X14532500Y-14950000D03*
X14532500Y-15450000D03*
X14532500Y-15950000D03*
%TD*%
D19*
%TO.C,R19*%
X20950000Y-2142500D03*
X20950000Y-3162500D03*
%TD*%
D31*
%TO.C,USB1*%
X2377000Y-9810000D03*
X2377000Y-15590000D03*
D32*
X2877000Y-8375000D03*
X2877000Y-17025000D03*
D33*
X-1323000Y-8375000D03*
X-1323000Y-17025000D03*
D34*
X3639000Y-9500000D03*
X3639000Y-10300000D03*
D35*
X3639000Y-11450000D03*
X3639000Y-12450000D03*
X3639000Y-12950000D03*
X3639000Y-13950000D03*
D34*
X3639000Y-15900000D03*
X3639000Y-15100000D03*
D35*
X3639000Y-14450000D03*
X3639000Y-13450000D03*
X3639000Y-11950000D03*
X3639000Y-10950000D03*
%TD*%
D36*
%TO.C,C2*%
X16130000Y-23235000D03*
X16130000Y-21685000D03*
%TD*%
D37*
%TO.C,F1*%
X19180000Y-22620000D03*
X21980000Y-22620000D03*
%TD*%
D38*
%TO.C,D1*%
X6445000Y-21350000D03*
X4870000Y-21350000D03*
%TD*%
D39*
%TO.C,R3*%
X40050000Y-14899286D03*
X41070000Y-14899286D03*
%TD*%
D40*
%TO.C,D3*%
X22485000Y-3717500D03*
X22485000Y-2142500D03*
%TD*%
D41*
%TO.C,D6*%
X7110000Y-10770000D03*
X7110000Y-12170000D03*
%TD*%
D40*
%TO.C,D2*%
X29045000Y-3710000D03*
X29045000Y-2135000D03*
%TD*%
D42*
%TO.C,C4*%
X20380000Y-7345000D03*
X20380000Y-6385000D03*
%TD*%
D39*
%TO.C,R8*%
X40050000Y-7485000D03*
X41070000Y-7485000D03*
%TD*%
D19*
%TO.C,R18*%
X27500000Y-2135000D03*
X27500000Y-3155000D03*
%TD*%
D39*
%TO.C,R5*%
X40050000Y-11933572D03*
X41070000Y-11933572D03*
%TD*%
%TO.C,R4*%
X40050000Y-13416429D03*
X41070000Y-13416429D03*
%TD*%
D15*
%TO.C,R13*%
X32367858Y-23510000D03*
X32367858Y-22490000D03*
%TD*%
D43*
%TO.C,Y1*%
X10650000Y-2590000D03*
X10650000Y-4790000D03*
X12350000Y-4790000D03*
X12350000Y-2590000D03*
%TD*%
D18*
%TO.C,C11*%
X18210000Y-18675000D03*
X17250000Y-18675000D03*
%TD*%
D44*
%TO.C,C10*%
X15220000Y-5310000D03*
X15220000Y-6270000D03*
%TD*%
D39*
%TO.C,R17*%
X4870000Y-23060000D03*
X5890000Y-23060000D03*
%TD*%
%TO.C,R2*%
X40050000Y-16382143D03*
X41070000Y-16382143D03*
%TD*%
D16*
%TO.C,C3*%
X20350000Y-18675000D03*
X21310000Y-18675000D03*
%TD*%
%TO.C,C9*%
X10010000Y-6240000D03*
X10970000Y-6240000D03*
%TD*%
D10*
%TO.C,HOLE3*%
X300000Y-22105000D03*
%TD*%
D19*
%TO.C,R9*%
X36964290Y-1880000D03*
X36964290Y-2900000D03*
%TD*%
D39*
%TO.C,R1*%
X40050000Y-17865000D03*
X41070000Y-17865000D03*
%TD*%
D15*
%TO.C,R22*%
X25010000Y-19025000D03*
X25010000Y-18005000D03*
%TD*%
D39*
%TO.C,R7*%
X40050000Y-8967858D03*
X41070000Y-8967858D03*
%TD*%
D42*
%TO.C,C7*%
X12570000Y-15435000D03*
X12570000Y-14475000D03*
%TD*%
D19*
%TO.C,R21*%
X25010000Y-16145000D03*
X25010000Y-17165000D03*
%TD*%
D16*
%TO.C,C6*%
X24970000Y-15115000D03*
X25930000Y-15115000D03*
%TD*%
D45*
%TO.C,U2*%
X29993000Y-9630000D03*
X29993000Y-10280000D03*
X29993000Y-10930000D03*
X29993000Y-11580000D03*
X29993000Y-12230000D03*
X29993000Y-12880000D03*
X29993000Y-13530000D03*
X29993000Y-14180000D03*
X29993000Y-14830000D03*
X29993000Y-15480000D03*
X35735000Y-15480000D03*
X35735000Y-14830000D03*
X35735000Y-14180000D03*
X35735000Y-13530000D03*
X35735000Y-12880000D03*
X35735000Y-12230000D03*
X35735000Y-11580000D03*
X35735000Y-10930000D03*
X35735000Y-10280000D03*
X35735000Y-9630000D03*
%TD*%
D15*
%TO.C,R15*%
X35432142Y-23510000D03*
X35432142Y-22490000D03*
%TD*%
D46*
%TO.C,J1*%
X47400000Y-1270000D03*
X47400000Y-3810000D03*
X47400000Y-6350000D03*
X47400000Y-8890000D03*
X47400000Y-11430000D03*
X47400000Y-13970000D03*
X47400000Y-16510000D03*
X47400000Y-19050000D03*
X47400000Y-21590000D03*
X47400000Y-24130000D03*
%TD*%
D19*
%TO.C,R12*%
X32367858Y-1880000D03*
X32367858Y-2900000D03*
%TD*%
%TO.C,R10*%
X35432142Y-1880000D03*
X35432142Y-2900000D03*
%TD*%
D15*
%TO.C,R14*%
X33900000Y-23510000D03*
X33900000Y-22490000D03*
%TD*%
D17*
%TO.C,R25*%
X7065000Y-17010000D03*
X8715000Y-17010000D03*
%TD*%
D15*
%TO.C,R23*%
X16790000Y-6280000D03*
X16790000Y-5260000D03*
%TD*%
D10*
%TO.C,HOLE1*%
X40540000Y-22105000D03*
%TD*%
D18*
%TO.C,C8*%
X12990000Y-6240000D03*
X12030000Y-6240000D03*
%TD*%
D47*
%TO.C,U3*%
X12015000Y-21190000D03*
X12015000Y-22140000D03*
X12015000Y-23090000D03*
X14615000Y-23090000D03*
X14615000Y-21190000D03*
%TD*%
D39*
%TO.C,R6*%
X40050000Y-10450715D03*
X41070000Y-10450715D03*
%TD*%
M02*
