%TF.GenerationSoftware,KiCad,Pcbnew,(6.0.10)*%
%TF.CreationDate,2022-12-30T18:11:38+08:00*%
%TF.ProjectId,UINIO-Logic-24MHz,55494e49-4f2d-44c6-9f67-69632d32344d,Version 1.0.0*%
%TF.SameCoordinates,Original*%
%TF.FileFunction,Legend,Bot*%
%TF.FilePolarity,Positive*%
%FSLAX46Y46*%
G04 Gerber Fmt 4.6, Leading zero omitted, Abs format (unit mm)*
G04 Created by KiCad (PCBNEW (6.0.10)) date 2022-12-30 18:11:38*
%MOMM*%
%LPD*%
G01*
G04 APERTURE LIST*
G04 Aperture macros list*
%AMRoundRect*
0 Rectangle with rounded corners*
0 $1 Rounding radius*
0 $2 $3 $4 $5 $6 $7 $8 $9 X,Y pos of 4 corners*
0 Add a 4 corners polygon primitive as box body*
4,1,4,$2,$3,$4,$5,$6,$7,$8,$9,$2,$3,0*
0 Add four circle primitives for the rounded corners*
1,1,$1+$1,$2,$3*
1,1,$1+$1,$4,$5*
1,1,$1+$1,$6,$7*
1,1,$1+$1,$8,$9*
0 Add four rect primitives between the rounded corners*
20,1,$1+$1,$2,$3,$4,$5,0*
20,1,$1+$1,$4,$5,$6,$7,0*
20,1,$1+$1,$6,$7,$8,$9,0*
20,1,$1+$1,$8,$9,$2,$3,0*%
%AMFreePoly0*
4,1,22,0.500000,-0.750000,0.000000,-0.750000,0.000000,-0.745033,-0.079941,-0.743568,-0.215256,-0.701293,-0.333266,-0.622738,-0.424486,-0.514219,-0.481581,-0.384460,-0.499164,-0.250000,-0.500000,-0.250000,-0.500000,0.250000,-0.499164,0.250000,-0.499963,0.256109,-0.478152,0.396186,-0.417904,0.524511,-0.324060,0.630769,-0.204165,0.706417,-0.067858,0.745374,0.000000,0.744959,0.000000,0.750000,
0.500000,0.750000,0.500000,-0.750000,0.500000,-0.750000,$1*%
%AMFreePoly1*
4,1,20,0.000000,0.744959,0.073905,0.744508,0.209726,0.703889,0.328688,0.626782,0.421226,0.519385,0.479903,0.390333,0.500000,0.250000,0.500000,-0.250000,0.499851,-0.262216,0.476331,-0.402017,0.414519,-0.529596,0.319384,-0.634700,0.198574,-0.708877,0.061801,-0.746166,0.000000,-0.745033,0.000000,-0.750000,-0.500000,-0.750000,-0.500000,0.750000,0.000000,0.750000,0.000000,0.744959,
0.000000,0.744959,$1*%
G04 Aperture macros list end*
%ADD10C,0.100000*%
%ADD11C,0.200000*%
%ADD12C,0.300000*%
%ADD13C,0.120000*%
%ADD14C,2.200000*%
%ADD15C,1.200000*%
%ADD16RoundRect,0.250000X0.600000X0.600000X-0.600000X0.600000X-0.600000X-0.600000X0.600000X-0.600000X0*%
%ADD17C,1.700000*%
%ADD18C,0.650000*%
%ADD19O,2.100000X1.000000*%
%ADD20O,1.900000X1.000000*%
%ADD21FreePoly0,270.000000*%
%ADD22FreePoly1,270.000000*%
G04 APERTURE END LIST*
D10*
X126020000Y-106840000D02*
X127440000Y-106840000D01*
X127440000Y-106840000D02*
X127440000Y-110960000D01*
X127440000Y-110960000D02*
X126020000Y-110960000D01*
X126020000Y-110960000D02*
X126020000Y-106840000D01*
G36*
X126020000Y-106840000D02*
G01*
X127440000Y-106840000D01*
X127440000Y-110960000D01*
X126020000Y-110960000D01*
X126020000Y-106840000D01*
G37*
X132495000Y-106903333D02*
X127445000Y-106903333D01*
X132485000Y-114970000D02*
X127435000Y-114970000D01*
X132495000Y-110936666D02*
X127445000Y-110936666D01*
X129960000Y-118510000D02*
X129960000Y-99310000D01*
X132490000Y-102870000D02*
X127440000Y-102870000D01*
X132500000Y-118500000D02*
X127440000Y-118500000D01*
X127440000Y-118500000D02*
X127440000Y-99300000D01*
X127440000Y-99300000D02*
X132500000Y-99300000D01*
X132500000Y-99300000D02*
X132500000Y-118500000D01*
X154230000Y-100480476D02*
X154191904Y-100404285D01*
X154191904Y-100290000D01*
X154230000Y-100175714D01*
X154306190Y-100099523D01*
X154382380Y-100061428D01*
X154534761Y-100023333D01*
X154649047Y-100023333D01*
X154801428Y-100061428D01*
X154877619Y-100099523D01*
X154953809Y-100175714D01*
X154991904Y-100290000D01*
X154991904Y-100366190D01*
X154953809Y-100480476D01*
X154915714Y-100518571D01*
X154649047Y-100518571D01*
X154649047Y-100366190D01*
X154991904Y-100861428D02*
X154191904Y-100861428D01*
X154991904Y-101318571D01*
X154191904Y-101318571D01*
X154991904Y-101699523D02*
X154191904Y-101699523D01*
X154191904Y-101890000D01*
X154230000Y-102004285D01*
X154306190Y-102080476D01*
X154382380Y-102118571D01*
X154534761Y-102156666D01*
X154649047Y-102156666D01*
X154801428Y-102118571D01*
X154877619Y-102080476D01*
X154953809Y-102004285D01*
X154991904Y-101890000D01*
X154991904Y-101699523D01*
D11*
X130780000Y-115998095D02*
X130732380Y-115902857D01*
X130732380Y-115760000D01*
X130780000Y-115617142D01*
X130875238Y-115521904D01*
X130970476Y-115474285D01*
X131160952Y-115426666D01*
X131303809Y-115426666D01*
X131494285Y-115474285D01*
X131589523Y-115521904D01*
X131684761Y-115617142D01*
X131732380Y-115760000D01*
X131732380Y-115855238D01*
X131684761Y-115998095D01*
X131637142Y-116045714D01*
X131303809Y-116045714D01*
X131303809Y-115855238D01*
X131732380Y-116474285D02*
X130732380Y-116474285D01*
X131732380Y-117045714D01*
X130732380Y-117045714D01*
X131732380Y-117521904D02*
X130732380Y-117521904D01*
X130732380Y-117760000D01*
X130780000Y-117902857D01*
X130875238Y-117998095D01*
X130970476Y-118045714D01*
X131160952Y-118093333D01*
X131303809Y-118093333D01*
X131494285Y-118045714D01*
X131589523Y-117998095D01*
X131684761Y-117902857D01*
X131732380Y-117760000D01*
X131732380Y-117521904D01*
X131732380Y-107671904D02*
X130732380Y-107671904D01*
X130732380Y-108052857D01*
X130780000Y-108148095D01*
X130827619Y-108195714D01*
X130922857Y-108243333D01*
X131065714Y-108243333D01*
X131160952Y-108195714D01*
X131208571Y-108148095D01*
X131256190Y-108052857D01*
X131256190Y-107671904D01*
X131208571Y-109005238D02*
X131256190Y-109148095D01*
X131303809Y-109195714D01*
X131399047Y-109243333D01*
X131541904Y-109243333D01*
X131637142Y-109195714D01*
X131684761Y-109148095D01*
X131732380Y-109052857D01*
X131732380Y-108671904D01*
X130732380Y-108671904D01*
X130732380Y-109005238D01*
X130780000Y-109100476D01*
X130827619Y-109148095D01*
X130922857Y-109195714D01*
X131018095Y-109195714D01*
X131113333Y-109148095D01*
X131160952Y-109100476D01*
X131208571Y-109005238D01*
X131208571Y-108671904D01*
X130732380Y-110100476D02*
X130732380Y-109910000D01*
X130780000Y-109814761D01*
X130827619Y-109767142D01*
X130970476Y-109671904D01*
X131160952Y-109624285D01*
X131541904Y-109624285D01*
X131637142Y-109671904D01*
X131684761Y-109719523D01*
X131732380Y-109814761D01*
X131732380Y-110005238D01*
X131684761Y-110100476D01*
X131637142Y-110148095D01*
X131541904Y-110195714D01*
X131303809Y-110195714D01*
X131208571Y-110148095D01*
X131160952Y-110100476D01*
X131113333Y-110005238D01*
X131113333Y-109814761D01*
X131160952Y-109719523D01*
X131208571Y-109671904D01*
X131303809Y-109624285D01*
X131732380Y-99801904D02*
X130732380Y-99801904D01*
X130732380Y-100182857D01*
X130780000Y-100278095D01*
X130827619Y-100325714D01*
X130922857Y-100373333D01*
X131065714Y-100373333D01*
X131160952Y-100325714D01*
X131208571Y-100278095D01*
X131256190Y-100182857D01*
X131256190Y-99801904D01*
X131208571Y-101135238D02*
X131256190Y-101278095D01*
X131303809Y-101325714D01*
X131399047Y-101373333D01*
X131541904Y-101373333D01*
X131637142Y-101325714D01*
X131684761Y-101278095D01*
X131732380Y-101182857D01*
X131732380Y-100801904D01*
X130732380Y-100801904D01*
X130732380Y-101135238D01*
X130780000Y-101230476D01*
X130827619Y-101278095D01*
X130922857Y-101325714D01*
X131018095Y-101325714D01*
X131113333Y-101278095D01*
X131160952Y-101230476D01*
X131208571Y-101135238D01*
X131208571Y-100801904D01*
X131065714Y-102230476D02*
X131732380Y-102230476D01*
X130684761Y-101992380D02*
X131399047Y-101754285D01*
X131399047Y-102373333D01*
X165232857Y-116406190D02*
X164504285Y-116406190D01*
X164418571Y-116358571D01*
X164375714Y-116310952D01*
X164332857Y-116215714D01*
X164332857Y-116025238D01*
X164375714Y-115930000D01*
X164418571Y-115882380D01*
X164504285Y-115834761D01*
X165232857Y-115834761D01*
X164332857Y-115358571D02*
X165232857Y-115358571D01*
X164332857Y-114882380D02*
X165232857Y-114882380D01*
X164332857Y-114310952D01*
X165232857Y-114310952D01*
X164332857Y-113834761D02*
X165232857Y-113834761D01*
X165232857Y-113168095D02*
X165232857Y-112977619D01*
X165190000Y-112882380D01*
X165104285Y-112787142D01*
X164932857Y-112739523D01*
X164632857Y-112739523D01*
X164461428Y-112787142D01*
X164375714Y-112882380D01*
X164332857Y-112977619D01*
X164332857Y-113168095D01*
X164375714Y-113263333D01*
X164461428Y-113358571D01*
X164632857Y-113406190D01*
X164932857Y-113406190D01*
X165104285Y-113358571D01*
X165190000Y-113263333D01*
X165232857Y-113168095D01*
X164675714Y-112310952D02*
X164675714Y-111549047D01*
X164332857Y-110596666D02*
X164332857Y-111072857D01*
X165232857Y-111072857D01*
X164332857Y-110120476D02*
X164375714Y-110215714D01*
X164418571Y-110263333D01*
X164504285Y-110310952D01*
X164761428Y-110310952D01*
X164847142Y-110263333D01*
X164890000Y-110215714D01*
X164932857Y-110120476D01*
X164932857Y-109977619D01*
X164890000Y-109882380D01*
X164847142Y-109834761D01*
X164761428Y-109787142D01*
X164504285Y-109787142D01*
X164418571Y-109834761D01*
X164375714Y-109882380D01*
X164332857Y-109977619D01*
X164332857Y-110120476D01*
X164932857Y-108930000D02*
X164204285Y-108930000D01*
X164118571Y-108977619D01*
X164075714Y-109025238D01*
X164032857Y-109120476D01*
X164032857Y-109263333D01*
X164075714Y-109358571D01*
X164375714Y-108930000D02*
X164332857Y-109025238D01*
X164332857Y-109215714D01*
X164375714Y-109310952D01*
X164418571Y-109358571D01*
X164504285Y-109406190D01*
X164761428Y-109406190D01*
X164847142Y-109358571D01*
X164890000Y-109310952D01*
X164932857Y-109215714D01*
X164932857Y-109025238D01*
X164890000Y-108930000D01*
X164332857Y-108453809D02*
X164932857Y-108453809D01*
X165232857Y-108453809D02*
X165190000Y-108501428D01*
X165147142Y-108453809D01*
X165190000Y-108406190D01*
X165232857Y-108453809D01*
X165147142Y-108453809D01*
X164375714Y-107549047D02*
X164332857Y-107644285D01*
X164332857Y-107834761D01*
X164375714Y-107930000D01*
X164418571Y-107977619D01*
X164504285Y-108025238D01*
X164761428Y-108025238D01*
X164847142Y-107977619D01*
X164890000Y-107930000D01*
X164932857Y-107834761D01*
X164932857Y-107644285D01*
X164890000Y-107549047D01*
X164675714Y-107120476D02*
X164675714Y-106358571D01*
X165147142Y-105930000D02*
X165190000Y-105882380D01*
X165232857Y-105787142D01*
X165232857Y-105549047D01*
X165190000Y-105453809D01*
X165147142Y-105406190D01*
X165061428Y-105358571D01*
X164975714Y-105358571D01*
X164847142Y-105406190D01*
X164332857Y-105977619D01*
X164332857Y-105358571D01*
X164932857Y-104501428D02*
X164332857Y-104501428D01*
X165275714Y-104739523D02*
X164632857Y-104977619D01*
X164632857Y-104358571D01*
X164332857Y-103977619D02*
X165232857Y-103977619D01*
X164590000Y-103644285D01*
X165232857Y-103310952D01*
X164332857Y-103310952D01*
X164332857Y-102834761D02*
X165232857Y-102834761D01*
X164804285Y-102834761D02*
X164804285Y-102263333D01*
X164332857Y-102263333D02*
X165232857Y-102263333D01*
X164932857Y-101882380D02*
X164932857Y-101358571D01*
X164332857Y-101882380D01*
X164332857Y-101358571D01*
D10*
X167243333Y-112533333D02*
X166543333Y-112300000D01*
X167243333Y-112066666D01*
X166576666Y-111566666D02*
X166543333Y-111633333D01*
X166543333Y-111766666D01*
X166576666Y-111833333D01*
X166643333Y-111866666D01*
X166910000Y-111866666D01*
X166976666Y-111833333D01*
X167010000Y-111766666D01*
X167010000Y-111633333D01*
X166976666Y-111566666D01*
X166910000Y-111533333D01*
X166843333Y-111533333D01*
X166776666Y-111866666D01*
X166543333Y-111233333D02*
X167010000Y-111233333D01*
X166876666Y-111233333D02*
X166943333Y-111200000D01*
X166976666Y-111166666D01*
X167010000Y-111100000D01*
X167010000Y-111033333D01*
X166576666Y-110833333D02*
X166543333Y-110766666D01*
X166543333Y-110633333D01*
X166576666Y-110566666D01*
X166643333Y-110533333D01*
X166676666Y-110533333D01*
X166743333Y-110566666D01*
X166776666Y-110633333D01*
X166776666Y-110733333D01*
X166810000Y-110800000D01*
X166876666Y-110833333D01*
X166910000Y-110833333D01*
X166976666Y-110800000D01*
X167010000Y-110733333D01*
X167010000Y-110633333D01*
X166976666Y-110566666D01*
X166543333Y-110233333D02*
X167010000Y-110233333D01*
X167243333Y-110233333D02*
X167210000Y-110266666D01*
X167176666Y-110233333D01*
X167210000Y-110200000D01*
X167243333Y-110233333D01*
X167176666Y-110233333D01*
X166543333Y-109800000D02*
X166576666Y-109866666D01*
X166610000Y-109900000D01*
X166676666Y-109933333D01*
X166876666Y-109933333D01*
X166943333Y-109900000D01*
X166976666Y-109866666D01*
X167010000Y-109800000D01*
X167010000Y-109700000D01*
X166976666Y-109633333D01*
X166943333Y-109600000D01*
X166876666Y-109566666D01*
X166676666Y-109566666D01*
X166610000Y-109600000D01*
X166576666Y-109633333D01*
X166543333Y-109700000D01*
X166543333Y-109800000D01*
X167010000Y-109266666D02*
X166543333Y-109266666D01*
X166943333Y-109266666D02*
X166976666Y-109233333D01*
X167010000Y-109166666D01*
X167010000Y-109066666D01*
X166976666Y-109000000D01*
X166910000Y-108966666D01*
X166543333Y-108966666D01*
X166543333Y-107733333D02*
X166543333Y-108133333D01*
X166543333Y-107933333D02*
X167243333Y-107933333D01*
X167143333Y-108000000D01*
X167076666Y-108066666D01*
X167043333Y-108133333D01*
X166610000Y-107433333D02*
X166576666Y-107400000D01*
X166543333Y-107433333D01*
X166576666Y-107466666D01*
X166610000Y-107433333D01*
X166543333Y-107433333D01*
X167243333Y-106966666D02*
X167243333Y-106900000D01*
X167210000Y-106833333D01*
X167176666Y-106800000D01*
X167110000Y-106766666D01*
X166976666Y-106733333D01*
X166810000Y-106733333D01*
X166676666Y-106766666D01*
X166610000Y-106800000D01*
X166576666Y-106833333D01*
X166543333Y-106900000D01*
X166543333Y-106966666D01*
X166576666Y-107033333D01*
X166610000Y-107066666D01*
X166676666Y-107100000D01*
X166810000Y-107133333D01*
X166976666Y-107133333D01*
X167110000Y-107100000D01*
X167176666Y-107066666D01*
X167210000Y-107033333D01*
X167243333Y-106966666D01*
X166610000Y-106433333D02*
X166576666Y-106400000D01*
X166543333Y-106433333D01*
X166576666Y-106466666D01*
X166610000Y-106433333D01*
X166543333Y-106433333D01*
X167243333Y-105966666D02*
X167243333Y-105900000D01*
X167210000Y-105833333D01*
X167176666Y-105800000D01*
X167110000Y-105766666D01*
X166976666Y-105733333D01*
X166810000Y-105733333D01*
X166676666Y-105766666D01*
X166610000Y-105800000D01*
X166576666Y-105833333D01*
X166543333Y-105900000D01*
X166543333Y-105966666D01*
X166576666Y-106033333D01*
X166610000Y-106066666D01*
X166676666Y-106100000D01*
X166810000Y-106133333D01*
X166976666Y-106133333D01*
X167110000Y-106100000D01*
X167176666Y-106066666D01*
X167210000Y-106033333D01*
X167243333Y-105966666D01*
D11*
X129212380Y-103641904D02*
X128212380Y-103641904D01*
X128212380Y-104022857D01*
X128260000Y-104118095D01*
X128307619Y-104165714D01*
X128402857Y-104213333D01*
X128545714Y-104213333D01*
X128640952Y-104165714D01*
X128688571Y-104118095D01*
X128736190Y-104022857D01*
X128736190Y-103641904D01*
X128688571Y-104975238D02*
X128736190Y-105118095D01*
X128783809Y-105165714D01*
X128879047Y-105213333D01*
X129021904Y-105213333D01*
X129117142Y-105165714D01*
X129164761Y-105118095D01*
X129212380Y-105022857D01*
X129212380Y-104641904D01*
X128212380Y-104641904D01*
X128212380Y-104975238D01*
X128260000Y-105070476D01*
X128307619Y-105118095D01*
X128402857Y-105165714D01*
X128498095Y-105165714D01*
X128593333Y-105118095D01*
X128640952Y-105070476D01*
X128688571Y-104975238D01*
X128688571Y-104641904D01*
X129212380Y-106165714D02*
X129212380Y-105594285D01*
X129212380Y-105880000D02*
X128212380Y-105880000D01*
X128355238Y-105784761D01*
X128450476Y-105689523D01*
X128498095Y-105594285D01*
X128260000Y-115998095D02*
X128212380Y-115902857D01*
X128212380Y-115760000D01*
X128260000Y-115617142D01*
X128355238Y-115521904D01*
X128450476Y-115474285D01*
X128640952Y-115426666D01*
X128783809Y-115426666D01*
X128974285Y-115474285D01*
X129069523Y-115521904D01*
X129164761Y-115617142D01*
X129212380Y-115760000D01*
X129212380Y-115855238D01*
X129164761Y-115998095D01*
X129117142Y-116045714D01*
X128783809Y-116045714D01*
X128783809Y-115855238D01*
X129212380Y-116474285D02*
X128212380Y-116474285D01*
X129212380Y-117045714D01*
X128212380Y-117045714D01*
X129212380Y-117521904D02*
X128212380Y-117521904D01*
X128212380Y-117760000D01*
X128260000Y-117902857D01*
X128355238Y-117998095D01*
X128450476Y-118045714D01*
X128640952Y-118093333D01*
X128783809Y-118093333D01*
X128974285Y-118045714D01*
X129069523Y-117998095D01*
X129164761Y-117902857D01*
X129212380Y-117760000D01*
X129212380Y-117521904D01*
X129212380Y-107671904D02*
X128212380Y-107671904D01*
X128212380Y-108052857D01*
X128260000Y-108148095D01*
X128307619Y-108195714D01*
X128402857Y-108243333D01*
X128545714Y-108243333D01*
X128640952Y-108195714D01*
X128688571Y-108148095D01*
X128736190Y-108052857D01*
X128736190Y-107671904D01*
X128688571Y-109005238D02*
X128736190Y-109148095D01*
X128783809Y-109195714D01*
X128879047Y-109243333D01*
X129021904Y-109243333D01*
X129117142Y-109195714D01*
X129164761Y-109148095D01*
X129212380Y-109052857D01*
X129212380Y-108671904D01*
X128212380Y-108671904D01*
X128212380Y-109005238D01*
X128260000Y-109100476D01*
X128307619Y-109148095D01*
X128402857Y-109195714D01*
X128498095Y-109195714D01*
X128593333Y-109148095D01*
X128640952Y-109100476D01*
X128688571Y-109005238D01*
X128688571Y-108671904D01*
X128307619Y-109624285D02*
X128260000Y-109671904D01*
X128212380Y-109767142D01*
X128212380Y-110005238D01*
X128260000Y-110100476D01*
X128307619Y-110148095D01*
X128402857Y-110195714D01*
X128498095Y-110195714D01*
X128640952Y-110148095D01*
X129212380Y-109576666D01*
X129212380Y-110195714D01*
X129212380Y-111701904D02*
X128212380Y-111701904D01*
X128212380Y-112082857D01*
X128260000Y-112178095D01*
X128307619Y-112225714D01*
X128402857Y-112273333D01*
X128545714Y-112273333D01*
X128640952Y-112225714D01*
X128688571Y-112178095D01*
X128736190Y-112082857D01*
X128736190Y-111701904D01*
X128688571Y-113035238D02*
X128736190Y-113178095D01*
X128783809Y-113225714D01*
X128879047Y-113273333D01*
X129021904Y-113273333D01*
X129117142Y-113225714D01*
X129164761Y-113178095D01*
X129212380Y-113082857D01*
X129212380Y-112701904D01*
X128212380Y-112701904D01*
X128212380Y-113035238D01*
X128260000Y-113130476D01*
X128307619Y-113178095D01*
X128402857Y-113225714D01*
X128498095Y-113225714D01*
X128593333Y-113178095D01*
X128640952Y-113130476D01*
X128688571Y-113035238D01*
X128688571Y-112701904D01*
X128212380Y-113606666D02*
X128212380Y-114225714D01*
X128593333Y-113892380D01*
X128593333Y-114035238D01*
X128640952Y-114130476D01*
X128688571Y-114178095D01*
X128783809Y-114225714D01*
X129021904Y-114225714D01*
X129117142Y-114178095D01*
X129164761Y-114130476D01*
X129212380Y-114035238D01*
X129212380Y-113749523D01*
X129164761Y-113654285D01*
X129117142Y-113606666D01*
X131732380Y-111711904D02*
X130732380Y-111711904D01*
X130732380Y-112092857D01*
X130780000Y-112188095D01*
X130827619Y-112235714D01*
X130922857Y-112283333D01*
X131065714Y-112283333D01*
X131160952Y-112235714D01*
X131208571Y-112188095D01*
X131256190Y-112092857D01*
X131256190Y-111711904D01*
X131208571Y-113045238D02*
X131256190Y-113188095D01*
X131303809Y-113235714D01*
X131399047Y-113283333D01*
X131541904Y-113283333D01*
X131637142Y-113235714D01*
X131684761Y-113188095D01*
X131732380Y-113092857D01*
X131732380Y-112711904D01*
X130732380Y-112711904D01*
X130732380Y-113045238D01*
X130780000Y-113140476D01*
X130827619Y-113188095D01*
X130922857Y-113235714D01*
X131018095Y-113235714D01*
X131113333Y-113188095D01*
X131160952Y-113140476D01*
X131208571Y-113045238D01*
X131208571Y-112711904D01*
X130732380Y-113616666D02*
X130732380Y-114283333D01*
X131732380Y-113854761D01*
D10*
X147121904Y-99919047D02*
X147121904Y-100414285D01*
X147426666Y-100147619D01*
X147426666Y-100261904D01*
X147464761Y-100338095D01*
X147502857Y-100376190D01*
X147579047Y-100414285D01*
X147769523Y-100414285D01*
X147845714Y-100376190D01*
X147883809Y-100338095D01*
X147921904Y-100261904D01*
X147921904Y-100033333D01*
X147883809Y-99957142D01*
X147845714Y-99919047D01*
X147845714Y-100757142D02*
X147883809Y-100795238D01*
X147921904Y-100757142D01*
X147883809Y-100719047D01*
X147845714Y-100757142D01*
X147921904Y-100757142D01*
X147121904Y-101061904D02*
X147121904Y-101557142D01*
X147426666Y-101290476D01*
X147426666Y-101404761D01*
X147464761Y-101480952D01*
X147502857Y-101519047D01*
X147579047Y-101557142D01*
X147769523Y-101557142D01*
X147845714Y-101519047D01*
X147883809Y-101480952D01*
X147921904Y-101404761D01*
X147921904Y-101176190D01*
X147883809Y-101100000D01*
X147845714Y-101061904D01*
X147121904Y-101785714D02*
X147921904Y-102052380D01*
X147121904Y-102319047D01*
D11*
X129212380Y-99811904D02*
X128212380Y-99811904D01*
X128212380Y-100192857D01*
X128260000Y-100288095D01*
X128307619Y-100335714D01*
X128402857Y-100383333D01*
X128545714Y-100383333D01*
X128640952Y-100335714D01*
X128688571Y-100288095D01*
X128736190Y-100192857D01*
X128736190Y-99811904D01*
X128688571Y-101145238D02*
X128736190Y-101288095D01*
X128783809Y-101335714D01*
X128879047Y-101383333D01*
X129021904Y-101383333D01*
X129117142Y-101335714D01*
X129164761Y-101288095D01*
X129212380Y-101192857D01*
X129212380Y-100811904D01*
X128212380Y-100811904D01*
X128212380Y-101145238D01*
X128260000Y-101240476D01*
X128307619Y-101288095D01*
X128402857Y-101335714D01*
X128498095Y-101335714D01*
X128593333Y-101288095D01*
X128640952Y-101240476D01*
X128688571Y-101145238D01*
X128688571Y-100811904D01*
X128212380Y-102002380D02*
X128212380Y-102097619D01*
X128260000Y-102192857D01*
X128307619Y-102240476D01*
X128402857Y-102288095D01*
X128593333Y-102335714D01*
X128831428Y-102335714D01*
X129021904Y-102288095D01*
X129117142Y-102240476D01*
X129164761Y-102192857D01*
X129212380Y-102097619D01*
X129212380Y-102002380D01*
X129164761Y-101907142D01*
X129117142Y-101859523D01*
X129021904Y-101811904D01*
X128831428Y-101764285D01*
X128593333Y-101764285D01*
X128402857Y-101811904D01*
X128307619Y-101859523D01*
X128260000Y-101907142D01*
X128212380Y-102002380D01*
X131732380Y-103621904D02*
X130732380Y-103621904D01*
X130732380Y-104002857D01*
X130780000Y-104098095D01*
X130827619Y-104145714D01*
X130922857Y-104193333D01*
X131065714Y-104193333D01*
X131160952Y-104145714D01*
X131208571Y-104098095D01*
X131256190Y-104002857D01*
X131256190Y-103621904D01*
X131208571Y-104955238D02*
X131256190Y-105098095D01*
X131303809Y-105145714D01*
X131399047Y-105193333D01*
X131541904Y-105193333D01*
X131637142Y-105145714D01*
X131684761Y-105098095D01*
X131732380Y-105002857D01*
X131732380Y-104621904D01*
X130732380Y-104621904D01*
X130732380Y-104955238D01*
X130780000Y-105050476D01*
X130827619Y-105098095D01*
X130922857Y-105145714D01*
X131018095Y-105145714D01*
X131113333Y-105098095D01*
X131160952Y-105050476D01*
X131208571Y-104955238D01*
X131208571Y-104621904D01*
X130732380Y-106098095D02*
X130732380Y-105621904D01*
X131208571Y-105574285D01*
X131160952Y-105621904D01*
X131113333Y-105717142D01*
X131113333Y-105955238D01*
X131160952Y-106050476D01*
X131208571Y-106098095D01*
X131303809Y-106145714D01*
X131541904Y-106145714D01*
X131637142Y-106098095D01*
X131684761Y-106050476D01*
X131732380Y-105955238D01*
X131732380Y-105717142D01*
X131684761Y-105621904D01*
X131637142Y-105574285D01*
D12*
%TO.C,*%
D10*
%TO.C,HOLE1*%
X138170000Y-100920000D02*
G75*
G03*
X138170000Y-100920000I-1800000J0D01*
G01*
%TO.C,HOLE4*%
X168320000Y-117490000D02*
G75*
G03*
X168320000Y-117490000I-900000J0D01*
G01*
%TO.C,HOLE2*%
X137960000Y-116880000D02*
G75*
G03*
X137960000Y-116880000I-1800000J0D01*
G01*
%TO.C,HOLE3*%
X168320000Y-100270000D02*
G75*
G03*
X168320000Y-100270000I-900000J0D01*
G01*
D13*
%TO.C,JP1*%
X151870000Y-100370000D02*
X151870000Y-101770000D01*
X153170000Y-99670000D02*
X152570000Y-99670000D01*
X153870000Y-101770000D02*
X153870000Y-100370000D01*
X152570000Y-102470000D02*
X153170000Y-102470000D01*
X153170000Y-102470000D02*
G75*
G03*
X153870000Y-101770000I0J700000D01*
G01*
X151870000Y-101770000D02*
G75*
G03*
X152570000Y-102470000I700000J0D01*
G01*
X153870000Y-100370000D02*
G75*
G03*
X153170000Y-99670000I-699999J1D01*
G01*
X152570000Y-99670000D02*
G75*
G03*
X151870000Y-100370000I-1J-699999D01*
G01*
%TO.C,*%
G36*
X158600099Y-111242757D02*
G01*
X158599193Y-111249404D01*
X158591729Y-111251128D01*
X158590226Y-111249287D01*
X158591729Y-111234387D01*
X158595505Y-111232423D01*
X158600099Y-111242757D01*
G37*
G36*
X158248542Y-111211368D02*
G01*
X158242264Y-111217646D01*
X158235987Y-111211368D01*
X158242264Y-111205090D01*
X158248542Y-111211368D01*
G37*
G36*
X158505744Y-109592181D02*
G01*
X158512892Y-109605126D01*
X158518097Y-109630666D01*
X158522175Y-109672972D01*
X158525939Y-109736215D01*
X158529429Y-109786973D01*
X158535544Y-109844949D01*
X158542818Y-109891742D01*
X158550330Y-109920394D01*
X158554643Y-109931992D01*
X158557769Y-109976793D01*
X158536628Y-110015394D01*
X158491150Y-110047951D01*
X158479944Y-110053318D01*
X158448298Y-110064523D01*
X158427842Y-110066012D01*
X158422501Y-110063056D01*
X158412439Y-110043625D01*
X158416564Y-110019841D01*
X158433737Y-110003727D01*
X158449059Y-109996590D01*
X158476740Y-109977917D01*
X158481723Y-109973451D01*
X158490743Y-109960021D01*
X158489534Y-109940999D01*
X158478290Y-109907631D01*
X158474928Y-109897174D01*
X158465732Y-109849310D01*
X158459900Y-109788412D01*
X158457812Y-109723639D01*
X158459846Y-109664151D01*
X158466378Y-109619110D01*
X158477511Y-109594382D01*
X158496964Y-109587852D01*
X158505744Y-109592181D01*
G37*
G36*
X152887297Y-107099406D02*
G01*
X152096293Y-107099406D01*
X152064976Y-107099413D01*
X151928126Y-107099621D01*
X151799444Y-107100098D01*
X151681050Y-107100817D01*
X151575061Y-107101754D01*
X151483594Y-107102884D01*
X151408767Y-107104181D01*
X151352698Y-107105619D01*
X151317504Y-107107175D01*
X151305304Y-107108823D01*
X151312121Y-107115643D01*
X151337059Y-107135911D01*
X151378092Y-107167699D01*
X151432903Y-107209254D01*
X151499179Y-107258825D01*
X151574604Y-107314658D01*
X151656862Y-107374999D01*
X152008404Y-107631759D01*
X152008404Y-107890409D01*
X153150964Y-107890409D01*
X153150964Y-108066188D01*
X152008404Y-108066188D01*
X152008404Y-108468591D01*
X152008406Y-108490073D01*
X152008591Y-108605341D01*
X152009373Y-108698560D01*
X152011167Y-108772355D01*
X152014387Y-108829349D01*
X152019447Y-108872170D01*
X152026763Y-108903441D01*
X152036748Y-108925787D01*
X152049816Y-108941834D01*
X152066384Y-108954207D01*
X152086863Y-108965531D01*
X152098766Y-108970997D01*
X152120094Y-108977264D01*
X152148622Y-108980953D01*
X152188817Y-108982322D01*
X152245144Y-108981630D01*
X152322069Y-108979136D01*
X152358914Y-108977640D01*
X152423970Y-108974379D01*
X152478490Y-108970847D01*
X152517621Y-108967382D01*
X152536507Y-108964318D01*
X152542669Y-108962706D01*
X152548780Y-108966685D01*
X152550341Y-108982535D01*
X152547517Y-109014561D01*
X152540473Y-109067064D01*
X152537207Y-109090069D01*
X152530703Y-109135650D01*
X152526023Y-109168125D01*
X152524011Y-109181614D01*
X152523311Y-109181906D01*
X152505941Y-109182876D01*
X152468068Y-109183331D01*
X152413442Y-109183273D01*
X152345813Y-109182700D01*
X152268933Y-109181614D01*
X152251967Y-109181327D01*
X152168775Y-109179682D01*
X152105923Y-109177717D01*
X152059352Y-109174997D01*
X152025004Y-109171084D01*
X151998819Y-109165542D01*
X151976738Y-109157934D01*
X151954701Y-109147824D01*
X151915731Y-109124638D01*
X151859228Y-109069268D01*
X151819251Y-108995303D01*
X151819020Y-108994688D01*
X151814114Y-108974395D01*
X151809982Y-108941087D01*
X151806535Y-108892749D01*
X151803685Y-108827364D01*
X151801341Y-108742918D01*
X151799417Y-108637392D01*
X151797822Y-108508773D01*
X151793236Y-108066188D01*
X150715176Y-108066188D01*
X150715176Y-107890409D01*
X151794958Y-107890409D01*
X151794958Y-107717360D01*
X151386901Y-107417936D01*
X150978844Y-107118513D01*
X150978844Y-106923627D01*
X152887297Y-106923627D01*
X152887297Y-107099406D01*
G37*
G36*
X149541539Y-107980654D02*
G01*
X149517412Y-108052727D01*
X149486067Y-108135536D01*
X149451057Y-108220367D01*
X149415935Y-108298508D01*
X149384253Y-108361245D01*
X149358145Y-108406117D01*
X149306828Y-108486451D01*
X149246787Y-108573256D01*
X149182996Y-108659169D01*
X149156582Y-108693425D01*
X149261015Y-108761272D01*
X149299092Y-108785240D01*
X149408174Y-108847808D01*
X149528729Y-108909837D01*
X149651499Y-108966709D01*
X149767227Y-109013806D01*
X149808220Y-109029199D01*
X149852837Y-109046271D01*
X149883942Y-109058561D01*
X149896511Y-109064115D01*
X149896426Y-109065446D01*
X149887441Y-109081225D01*
X149867526Y-109110554D01*
X149840011Y-109148460D01*
X149779783Y-109229291D01*
X149682001Y-109187903D01*
X149606767Y-109154610D01*
X149455846Y-109080369D01*
X149305979Y-108997728D01*
X149169010Y-108913034D01*
X149154954Y-108903767D01*
X149104385Y-108870724D01*
X149062742Y-108843974D01*
X149034018Y-108826061D01*
X149022203Y-108819524D01*
X149020412Y-108820248D01*
X149003295Y-108831142D01*
X148972730Y-108852401D01*
X148933815Y-108880507D01*
X148907414Y-108899607D01*
X148756930Y-108998786D01*
X148594020Y-109089828D01*
X148412350Y-109176328D01*
X148345500Y-109205892D01*
X148270266Y-109115739D01*
X148195032Y-109025587D01*
X148315682Y-108984385D01*
X148335994Y-108977288D01*
X148406067Y-108951057D01*
X148477561Y-108922179D01*
X148537783Y-108895723D01*
X148572221Y-108878782D01*
X148628422Y-108848717D01*
X148687802Y-108814769D01*
X148745272Y-108780038D01*
X148795747Y-108747626D01*
X148834137Y-108720634D01*
X148855355Y-108702163D01*
X148857787Y-108692012D01*
X148849063Y-108671527D01*
X148825821Y-108639404D01*
X148786254Y-108592778D01*
X148766314Y-108569706D01*
X148691277Y-108474858D01*
X148620069Y-108372803D01*
X148554594Y-108267191D01*
X148496755Y-108161670D01*
X148448457Y-108059891D01*
X148411601Y-107965503D01*
X148393962Y-107902965D01*
X148591586Y-107902965D01*
X148599936Y-107931215D01*
X148603736Y-107943308D01*
X148626906Y-108003772D01*
X148659464Y-108075943D01*
X148697755Y-108152433D01*
X148738122Y-108225855D01*
X148776910Y-108288821D01*
X148791304Y-108309851D01*
X148837203Y-108371924D01*
X148887143Y-108433990D01*
X148932612Y-108485306D01*
X149015211Y-108571925D01*
X149078343Y-108491696D01*
X149081564Y-108487595D01*
X149176305Y-108357386D01*
X149252637Y-108230445D01*
X149314596Y-108099261D01*
X149366222Y-107956326D01*
X149383080Y-107902965D01*
X148591586Y-107902965D01*
X148393962Y-107902965D01*
X148388092Y-107882155D01*
X148379832Y-107813498D01*
X148379832Y-107739742D01*
X148907168Y-107739742D01*
X148907168Y-107363074D01*
X148241721Y-107363074D01*
X148241721Y-107187295D01*
X148907168Y-107187295D01*
X148907168Y-106785516D01*
X149095502Y-106785516D01*
X149095502Y-107187295D01*
X149735838Y-107187295D01*
X149735838Y-107363074D01*
X149095502Y-107363074D01*
X149095502Y-107739742D01*
X149735838Y-107739742D01*
X149735838Y-107902965D01*
X149563323Y-107902965D01*
X149546790Y-107962604D01*
X149541539Y-107980654D01*
G37*
G36*
X157382205Y-111933316D02*
G01*
X157381299Y-111939963D01*
X157373835Y-111941686D01*
X157372332Y-111939846D01*
X157373835Y-111924945D01*
X157377611Y-111922981D01*
X157382205Y-111933316D01*
G37*
G36*
X157557069Y-109004448D02*
G01*
X157650938Y-109012755D01*
X157734641Y-109028350D01*
X157815321Y-109052553D01*
X157900124Y-109086681D01*
X157902202Y-109087606D01*
X157952162Y-109113090D01*
X157979275Y-109134469D01*
X157983027Y-109151122D01*
X157962902Y-109162427D01*
X157953937Y-109164503D01*
X157891803Y-109169423D01*
X157820685Y-109162711D01*
X157751422Y-109145247D01*
X157698956Y-109128112D01*
X157618601Y-109104772D01*
X157532744Y-109082393D01*
X157448704Y-109062760D01*
X157373797Y-109047657D01*
X157315341Y-109038869D01*
X157307679Y-109038039D01*
X157264227Y-109031709D01*
X157243459Y-109024670D01*
X157243234Y-109016251D01*
X157261314Y-109010572D01*
X157302141Y-109006162D01*
X157363166Y-109003287D01*
X157441932Y-109002121D01*
X157445891Y-109002112D01*
X157557069Y-109004448D01*
G37*
G36*
X158598074Y-111172097D02*
G01*
X158600099Y-111192535D01*
X158597969Y-111207120D01*
X158588719Y-111217646D01*
X158583202Y-111212556D01*
X158583906Y-111192535D01*
X158588691Y-111177776D01*
X158595286Y-111167424D01*
X158598074Y-111172097D01*
G37*
G36*
X153427188Y-111983538D02*
G01*
X152975186Y-111983538D01*
X152975186Y-110577310D01*
X153427188Y-110577310D01*
X153427188Y-111983538D01*
G37*
G36*
X158876323Y-111060701D02*
G01*
X158870045Y-111066979D01*
X158863767Y-111060701D01*
X158870045Y-111054423D01*
X158876323Y-111060701D01*
G37*
G36*
X142727620Y-107734699D02*
G01*
X142800846Y-107792508D01*
X142928384Y-107887354D01*
X142869470Y-107945382D01*
X142839313Y-107973777D01*
X142813831Y-107995212D01*
X142800237Y-108003410D01*
X142794885Y-108001411D01*
X142771949Y-107986763D01*
X142736027Y-107960579D01*
X142691165Y-107926058D01*
X142641407Y-107886398D01*
X142590800Y-107844797D01*
X142543388Y-107804455D01*
X142503216Y-107768569D01*
X142427553Y-107698519D01*
X142324429Y-107798818D01*
X142294287Y-107827138D01*
X142236695Y-107877443D01*
X142178682Y-107924225D01*
X142129117Y-107960155D01*
X142036929Y-108021192D01*
X142104006Y-108044133D01*
X142145311Y-108057513D01*
X142248108Y-108086487D01*
X142368066Y-108115668D01*
X142499841Y-108143946D01*
X142638089Y-108170208D01*
X142777468Y-108193345D01*
X142912634Y-108212246D01*
X143089182Y-108234318D01*
X143038190Y-108318861D01*
X143019977Y-108348136D01*
X142996455Y-108380641D01*
X142978299Y-108396246D01*
X142962086Y-108398531D01*
X142946088Y-108395788D01*
X142908514Y-108389848D01*
X142857349Y-108382037D01*
X142798864Y-108373323D01*
X142603329Y-108340640D01*
X142281055Y-108268807D01*
X141972473Y-108176756D01*
X141824085Y-108126487D01*
X141688362Y-108171573D01*
X141634732Y-108188818D01*
X141406053Y-108250623D01*
X141159268Y-108299262D01*
X140892513Y-108335118D01*
X140836824Y-108341284D01*
X140788783Y-108345573D01*
X140755558Y-108344236D01*
X140731561Y-108334863D01*
X140711205Y-108315043D01*
X140688903Y-108282367D01*
X140659066Y-108234424D01*
X140610879Y-108157825D01*
X140813423Y-108150350D01*
X140893870Y-108146589D01*
X141165595Y-108121243D01*
X141423167Y-108076783D01*
X141430847Y-108075131D01*
X141502088Y-108059694D01*
X141550090Y-108047562D01*
X141575931Y-108036373D01*
X141580687Y-108023765D01*
X141565434Y-108007374D01*
X141531248Y-107984840D01*
X141479207Y-107953800D01*
X141397631Y-107902084D01*
X141311884Y-107841776D01*
X141230803Y-107779184D01*
X141160290Y-107718871D01*
X141106246Y-107665400D01*
X141085025Y-107640709D01*
X141068712Y-107614186D01*
X141318653Y-107614186D01*
X141361922Y-107659178D01*
X141370362Y-107667569D01*
X141417636Y-107707549D01*
X141480776Y-107753393D01*
X141554182Y-107801396D01*
X141632252Y-107847853D01*
X141709386Y-107889057D01*
X141732344Y-107900320D01*
X141776917Y-107920992D01*
X141811196Y-107935291D01*
X141829179Y-107940632D01*
X141849656Y-107934682D01*
X141886993Y-107916433D01*
X141935408Y-107888772D01*
X141990194Y-107854640D01*
X142046644Y-107816981D01*
X142100052Y-107778733D01*
X142145710Y-107742840D01*
X142175359Y-107718248D01*
X142209016Y-107690293D01*
X142233870Y-107667818D01*
X142248290Y-107650230D01*
X142250647Y-107636934D01*
X142239308Y-107627337D01*
X142212645Y-107620845D01*
X142169027Y-107616864D01*
X142106823Y-107614802D01*
X142024403Y-107614064D01*
X141920136Y-107614056D01*
X141792393Y-107614186D01*
X141318653Y-107614186D01*
X141068712Y-107614186D01*
X141068425Y-107613720D01*
X141061378Y-107583372D01*
X141059911Y-107538816D01*
X141059911Y-107463519D01*
X141624914Y-107463519D01*
X141669925Y-107463507D01*
X141801871Y-107463278D01*
X141911034Y-107462681D01*
X141999199Y-107461615D01*
X142068151Y-107459981D01*
X142119672Y-107457681D01*
X142155548Y-107454614D01*
X142177562Y-107450682D01*
X142187499Y-107445784D01*
X142187143Y-107439822D01*
X142178278Y-107432696D01*
X142172486Y-107427798D01*
X142153056Y-107406916D01*
X142128371Y-107377185D01*
X142090102Y-107328867D01*
X142175833Y-107291001D01*
X142261565Y-107253134D01*
X142325039Y-107336354D01*
X142351764Y-107369572D01*
X142411824Y-107437011D01*
X142484362Y-107511963D01*
X142564456Y-107589707D01*
X142615985Y-107636934D01*
X142647182Y-107665526D01*
X142727620Y-107734699D01*
G37*
G36*
X158022541Y-111041868D02*
G01*
X158021635Y-111048514D01*
X158014171Y-111050238D01*
X158012668Y-111048398D01*
X158014171Y-111033497D01*
X158017947Y-111031533D01*
X158022541Y-111041868D01*
G37*
G36*
X158194135Y-111133942D02*
G01*
X158196099Y-111137719D01*
X158185764Y-111142312D01*
X158179117Y-111141406D01*
X158177394Y-111133942D01*
X158179234Y-111132439D01*
X158194135Y-111133942D01*
G37*
G36*
X157432428Y-111782649D02*
G01*
X157431521Y-111789295D01*
X157424057Y-111791019D01*
X157422554Y-111789179D01*
X157424057Y-111774278D01*
X157427834Y-111772314D01*
X157432428Y-111782649D01*
G37*
G36*
X150765398Y-110451754D02*
G01*
X150464064Y-110451754D01*
X150464064Y-111644537D01*
X150765398Y-111644537D01*
X150765398Y-111983538D01*
X149685616Y-111983538D01*
X149685616Y-111644537D01*
X149986951Y-111644537D01*
X149986951Y-110451754D01*
X149685616Y-110451754D01*
X149685616Y-110112752D01*
X150765398Y-110112752D01*
X150765398Y-110451754D01*
G37*
G36*
X151777407Y-110553618D02*
G01*
X151896435Y-110599793D01*
X152015771Y-110670847D01*
X152096293Y-110727136D01*
X152096293Y-110577310D01*
X152548295Y-110577310D01*
X152548295Y-111983538D01*
X152096293Y-111983538D01*
X152096293Y-110969963D01*
X152017821Y-110934093D01*
X152017310Y-110933859D01*
X151961411Y-110911993D01*
X151906190Y-110899686D01*
X151838903Y-110894089D01*
X151791173Y-110893465D01*
X151729677Y-110899997D01*
X151683907Y-110917980D01*
X151648772Y-110949820D01*
X151619180Y-110997923D01*
X151587791Y-111060701D01*
X151583587Y-111522120D01*
X151579384Y-111983538D01*
X151127599Y-111983538D01*
X151132804Y-111453064D01*
X151133391Y-111394559D01*
X151134885Y-111265396D01*
X151136644Y-111157760D01*
X151138942Y-111069094D01*
X151142052Y-110996840D01*
X151146248Y-110938441D01*
X151151804Y-110891340D01*
X151158993Y-110852980D01*
X151168088Y-110820803D01*
X151179364Y-110792253D01*
X151193095Y-110764771D01*
X151209553Y-110735801D01*
X151260895Y-110666123D01*
X151330468Y-110608068D01*
X151417006Y-110566163D01*
X151522609Y-110539088D01*
X151541265Y-110536171D01*
X151658936Y-110532389D01*
X151777407Y-110553618D01*
G37*
G36*
X146478699Y-106888580D02*
G01*
X146505191Y-106917918D01*
X146526133Y-106943923D01*
X146534158Y-106957907D01*
X146533816Y-106958954D01*
X146521226Y-106972830D01*
X146493182Y-106998280D01*
X146453366Y-107032069D01*
X146405463Y-107070963D01*
X146352293Y-107113773D01*
X146297224Y-107159022D01*
X146248963Y-107199560D01*
X146213990Y-107230001D01*
X146181407Y-107258377D01*
X146155478Y-107279071D01*
X146142298Y-107287177D01*
X146140153Y-107286567D01*
X146123882Y-107273963D01*
X146098433Y-107249467D01*
X146069218Y-107218884D01*
X146041650Y-107188017D01*
X146021139Y-107162669D01*
X146013100Y-107148643D01*
X146021061Y-107138196D01*
X146045735Y-107115185D01*
X146083467Y-107082976D01*
X146130528Y-107044560D01*
X146183187Y-107002927D01*
X146237713Y-106961068D01*
X146290377Y-106921973D01*
X146337448Y-106888631D01*
X146423240Y-106829883D01*
X146478699Y-106888580D01*
G37*
G36*
X157772592Y-110244592D02*
G01*
X157797304Y-110251539D01*
X157807160Y-110275975D01*
X157812393Y-110298597D01*
X157823072Y-110321468D01*
X157832207Y-110328697D01*
X157867773Y-110342029D01*
X157923789Y-110353701D01*
X157997171Y-110363585D01*
X158084837Y-110371556D01*
X158183705Y-110377487D01*
X158290692Y-110381251D01*
X158402717Y-110382723D01*
X158516696Y-110381776D01*
X158629548Y-110378283D01*
X158738190Y-110372119D01*
X158839540Y-110363155D01*
X158904881Y-110355037D01*
X158961352Y-110344399D01*
X158999140Y-110331380D01*
X159021717Y-110314723D01*
X159032558Y-110293168D01*
X159032635Y-110292862D01*
X159044875Y-110269479D01*
X159068240Y-110265743D01*
X159079651Y-110268467D01*
X159092707Y-110281904D01*
X159096046Y-110312287D01*
X159095740Y-110321285D01*
X159089144Y-110349149D01*
X159072091Y-110371825D01*
X159042139Y-110390185D01*
X158996845Y-110405102D01*
X158933767Y-110417449D01*
X158850462Y-110428099D01*
X158744489Y-110437925D01*
X158709563Y-110440533D01*
X158590035Y-110446322D01*
X158460278Y-110448581D01*
X158326160Y-110447479D01*
X158193551Y-110443181D01*
X158068319Y-110435856D01*
X157956333Y-110425671D01*
X157863462Y-110412794D01*
X157808012Y-110398639D01*
X157763941Y-110373523D01*
X157740601Y-110337594D01*
X157736290Y-110289200D01*
X157739776Y-110264342D01*
X157749853Y-110248315D01*
X157771429Y-110244586D01*
X157772592Y-110244592D01*
G37*
G36*
X143721701Y-108467967D02*
G01*
X144989818Y-108467967D01*
X144989818Y-108618635D01*
X143721701Y-108618635D01*
X143721701Y-108934457D01*
X143759480Y-108972236D01*
X143797260Y-109010015D01*
X144004901Y-109005798D01*
X144072288Y-109004506D01*
X144129827Y-109003865D01*
X144168698Y-109004482D01*
X144192356Y-109006716D01*
X144204252Y-109010923D01*
X144207842Y-109017463D01*
X144206579Y-109026692D01*
X144204594Y-109035965D01*
X144198447Y-109070168D01*
X144192012Y-109111442D01*
X144183407Y-109171082D01*
X143960266Y-109171082D01*
X143947021Y-109171080D01*
X143870185Y-109170898D01*
X143813307Y-109170025D01*
X143771892Y-109167927D01*
X143741447Y-109164065D01*
X143717479Y-109157904D01*
X143695492Y-109148906D01*
X143670995Y-109136535D01*
X143636283Y-109116650D01*
X143604972Y-109091970D01*
X143582285Y-109062007D01*
X143566732Y-109022799D01*
X143556817Y-108970386D01*
X143551049Y-108900809D01*
X143547934Y-108810108D01*
X143543669Y-108618635D01*
X143144143Y-108618635D01*
X143144143Y-108467967D01*
X143545922Y-108467967D01*
X143545922Y-108317300D01*
X143721701Y-108317300D01*
X143721701Y-108467967D01*
G37*
G36*
X146986160Y-107388185D02*
G01*
X148053387Y-107388185D01*
X148053387Y-107563963D01*
X147568652Y-107563963D01*
X147552821Y-107563964D01*
X147432507Y-107564035D01*
X147334759Y-107564299D01*
X147257300Y-107564860D01*
X147197856Y-107565824D01*
X147154149Y-107567295D01*
X147123905Y-107569379D01*
X147104846Y-107572180D01*
X147094697Y-107575803D01*
X147091182Y-107580353D01*
X147092024Y-107585936D01*
X147096411Y-107596359D01*
X147116768Y-107635433D01*
X147148106Y-107688988D01*
X147187724Y-107752818D01*
X147232922Y-107822714D01*
X147280998Y-107894471D01*
X147329253Y-107963881D01*
X147374985Y-108026737D01*
X147415187Y-108078504D01*
X147494627Y-108173477D01*
X147584989Y-108274418D01*
X147681198Y-108376027D01*
X147778181Y-108473001D01*
X147870863Y-108560040D01*
X147954170Y-108631843D01*
X147996758Y-108666430D01*
X148042144Y-108703361D01*
X148078655Y-108733147D01*
X148100974Y-108751457D01*
X148132524Y-108777556D01*
X148066698Y-108861318D01*
X148054946Y-108876135D01*
X148025990Y-108911373D01*
X148004345Y-108935887D01*
X147993999Y-108945081D01*
X147981178Y-108939455D01*
X147951765Y-108917972D01*
X147909993Y-108882853D01*
X147858550Y-108836695D01*
X147800120Y-108782093D01*
X147737390Y-108721643D01*
X147673045Y-108657939D01*
X147609771Y-108593578D01*
X147550253Y-108531155D01*
X147497179Y-108473264D01*
X147453233Y-108422503D01*
X147373769Y-108322100D01*
X147257885Y-108159189D01*
X147149152Y-107987062D01*
X147053722Y-107815076D01*
X146992437Y-107695797D01*
X146989201Y-108458551D01*
X146985965Y-109221304D01*
X146798020Y-109221304D01*
X146794784Y-108458551D01*
X146791548Y-107695797D01*
X146707428Y-107856020D01*
X146627768Y-107999610D01*
X146481957Y-108227386D01*
X146322350Y-108436635D01*
X146150448Y-108625284D01*
X146113822Y-108660867D01*
X146061896Y-108708779D01*
X146006861Y-108757366D01*
X145952299Y-108803664D01*
X145901790Y-108844709D01*
X145858918Y-108877538D01*
X145827262Y-108899185D01*
X145810406Y-108906687D01*
X145806238Y-108904294D01*
X145788201Y-108886779D01*
X145760862Y-108856038D01*
X145728303Y-108816553D01*
X145656952Y-108727144D01*
X145728303Y-108683198D01*
X145862683Y-108592943D01*
X146038113Y-108451590D01*
X146204727Y-108289894D01*
X146359994Y-108110366D01*
X146501383Y-107915521D01*
X146504079Y-107911443D01*
X146540938Y-107854155D01*
X146578723Y-107792991D01*
X146615029Y-107732127D01*
X146647451Y-107675738D01*
X146673587Y-107627998D01*
X146691032Y-107593082D01*
X146697381Y-107575165D01*
X146697252Y-107574893D01*
X146682684Y-107572323D01*
X146645654Y-107569998D01*
X146588566Y-107567972D01*
X146513823Y-107566301D01*
X146423831Y-107565039D01*
X146320992Y-107564241D01*
X146207712Y-107563963D01*
X145718043Y-107563963D01*
X145718043Y-107388185D01*
X146797825Y-107388185D01*
X146797825Y-106785516D01*
X146986160Y-106785516D01*
X146986160Y-107388185D01*
G37*
G36*
X145341375Y-107476074D02*
G01*
X145592487Y-107476074D01*
X145592487Y-107651853D01*
X145341375Y-107651853D01*
X145341375Y-109208748D01*
X145165596Y-109208748D01*
X145165596Y-107651853D01*
X144927040Y-107651853D01*
X144927040Y-107476074D01*
X145165596Y-107476074D01*
X145165596Y-106785516D01*
X145341375Y-106785516D01*
X145341375Y-107476074D01*
G37*
G36*
X159444632Y-111841978D02*
G01*
X159443447Y-111862456D01*
X159440277Y-111873472D01*
X159435562Y-111881061D01*
X159431145Y-111865577D01*
X159430655Y-111863284D01*
X159424482Y-111849741D01*
X159413987Y-111859299D01*
X159413224Y-111860387D01*
X159404745Y-111870434D01*
X159406522Y-111859079D01*
X159410832Y-111850742D01*
X159431065Y-111838442D01*
X159444632Y-111841978D01*
G37*
G36*
X143733026Y-106801294D02*
G01*
X143751735Y-106820562D01*
X143773240Y-106851433D01*
X143805662Y-106904794D01*
X143666375Y-106975224D01*
X143663185Y-106976835D01*
X143608981Y-107003770D01*
X143562587Y-107026026D01*
X143528843Y-107041333D01*
X143512587Y-107047419D01*
X143505706Y-107045006D01*
X143488368Y-107027194D01*
X143468804Y-106998534D01*
X143451446Y-106966675D01*
X143440727Y-106939269D01*
X143441077Y-106923967D01*
X143454613Y-106915749D01*
X143486429Y-106899829D01*
X143530183Y-106879362D01*
X143580103Y-106856898D01*
X143630418Y-106834986D01*
X143675356Y-106816178D01*
X143709144Y-106803023D01*
X143726012Y-106798071D01*
X143733026Y-106801294D01*
G37*
G36*
X142083717Y-110538445D02*
G01*
X142093172Y-110540313D01*
X142165652Y-110561854D01*
X142246043Y-110595800D01*
X142325334Y-110637930D01*
X142394512Y-110684022D01*
X142453584Y-110729128D01*
X142453584Y-110577310D01*
X142905586Y-110577310D01*
X142905586Y-111983538D01*
X142453584Y-111983538D01*
X142453584Y-110970251D01*
X142367832Y-110930726D01*
X142327604Y-110914193D01*
X142245016Y-110892925D01*
X142168594Y-110889901D01*
X142101578Y-110904629D01*
X142047207Y-110936615D01*
X142008722Y-110985367D01*
X142008206Y-110986369D01*
X142001605Y-111000390D01*
X141996217Y-111015933D01*
X141991891Y-111035617D01*
X141988478Y-111062066D01*
X141985829Y-111097898D01*
X141983793Y-111145736D01*
X141982221Y-111208200D01*
X141980964Y-111287913D01*
X141979872Y-111387493D01*
X141978795Y-111509564D01*
X141974841Y-111983538D01*
X141524469Y-111983538D01*
X141524469Y-110968381D01*
X141452274Y-110932960D01*
X141404185Y-110912536D01*
X141350966Y-110899448D01*
X141285912Y-110893732D01*
X141278248Y-110893460D01*
X141204797Y-110896375D01*
X141149811Y-110911448D01*
X141109168Y-110940505D01*
X141078745Y-110985367D01*
X141072763Y-110998373D01*
X141067365Y-111014120D01*
X141063011Y-111034016D01*
X141059558Y-111060682D01*
X141056858Y-111096737D01*
X141054766Y-111144802D01*
X141053137Y-111207497D01*
X141051824Y-111287442D01*
X141050681Y-111387258D01*
X141049563Y-111509564D01*
X141045492Y-111983538D01*
X140592702Y-111983538D01*
X140598758Y-111453064D01*
X140599218Y-111413252D01*
X140600882Y-111282484D01*
X140602706Y-111173513D01*
X140604950Y-111083735D01*
X140607869Y-111010546D01*
X140611722Y-110951342D01*
X140616766Y-110903520D01*
X140623258Y-110864476D01*
X140631456Y-110831606D01*
X140641617Y-110802307D01*
X140653998Y-110773974D01*
X140668858Y-110744005D01*
X140701553Y-110692078D01*
X140765905Y-110626456D01*
X140845536Y-110576658D01*
X140936782Y-110544286D01*
X141035980Y-110530942D01*
X141139468Y-110538227D01*
X141174500Y-110546215D01*
X141251674Y-110573048D01*
X141336145Y-110612145D01*
X141420865Y-110660071D01*
X141498791Y-110713391D01*
X141579836Y-110775004D01*
X141613137Y-110722494D01*
X141636093Y-110690436D01*
X141703538Y-110625065D01*
X141786197Y-110575548D01*
X141879896Y-110543517D01*
X141980460Y-110530605D01*
X142083717Y-110538445D01*
G37*
G36*
X142466140Y-109208748D02*
G01*
X142466140Y-109095513D01*
X141841498Y-109098770D01*
X141216857Y-109102026D01*
X141209135Y-109208748D01*
X141034800Y-109208748D01*
X141034800Y-108945081D01*
X141209908Y-108945081D01*
X142466140Y-108945081D01*
X142466140Y-108568178D01*
X141841498Y-108571434D01*
X141216857Y-108574690D01*
X141213382Y-108759885D01*
X141209908Y-108945081D01*
X141034800Y-108945081D01*
X141034800Y-108417745D01*
X142641918Y-108417745D01*
X142641918Y-109208748D01*
X142466140Y-109208748D01*
G37*
G36*
X158238341Y-111133736D02*
G01*
X158244152Y-111138255D01*
X158230755Y-111141321D01*
X158218020Y-111140433D01*
X158214276Y-111134727D01*
X158218718Y-111132239D01*
X158238341Y-111133736D01*
G37*
G36*
X141927307Y-106788430D02*
G01*
X141965219Y-106810814D01*
X141999208Y-106833059D01*
X142014788Y-106851401D01*
X142013402Y-106871576D01*
X141996490Y-106899321D01*
X141965496Y-106940372D01*
X141950484Y-106959753D01*
X141926780Y-106989273D01*
X141908181Y-107013306D01*
X141896505Y-107032408D01*
X141893569Y-107047136D01*
X141901193Y-107058047D01*
X141921193Y-107065697D01*
X141955388Y-107070644D01*
X142005596Y-107073442D01*
X142073636Y-107074650D01*
X142161324Y-107074824D01*
X142270479Y-107074520D01*
X142402920Y-107074295D01*
X142930697Y-107074295D01*
X142930697Y-107538852D01*
X142754919Y-107538852D01*
X142754919Y-107237518D01*
X140909244Y-107237518D01*
X140909244Y-107538852D01*
X140733466Y-107538852D01*
X140733466Y-107074295D01*
X141781410Y-107074295D01*
X141731412Y-107040970D01*
X141715111Y-107030065D01*
X141688980Y-107012379D01*
X141676502Y-107003623D01*
X141680355Y-106993673D01*
X141697003Y-106968584D01*
X141723281Y-106932943D01*
X141755788Y-106891220D01*
X141791120Y-106847884D01*
X141825875Y-106807405D01*
X141871866Y-106755580D01*
X141927307Y-106788430D01*
G37*
G36*
X144594781Y-108661022D02*
G01*
X144617232Y-108680165D01*
X144645285Y-108709003D01*
X144692898Y-108761705D01*
X144657503Y-108787476D01*
X144636740Y-108802766D01*
X144599376Y-108830516D01*
X144552443Y-108865519D01*
X144501490Y-108903642D01*
X144501067Y-108903959D01*
X144453837Y-108938998D01*
X144414157Y-108967775D01*
X144386183Y-108987322D01*
X144374068Y-108994671D01*
X144363977Y-108987989D01*
X144341190Y-108967589D01*
X144311290Y-108938165D01*
X144255314Y-108881027D01*
X144286703Y-108856780D01*
X144310129Y-108839199D01*
X144352462Y-108808789D01*
X144401295Y-108774774D01*
X144452129Y-108740174D01*
X144500465Y-108708008D01*
X144541804Y-108681295D01*
X144571645Y-108663053D01*
X144585491Y-108656302D01*
X144594781Y-108661022D01*
G37*
G36*
X159347901Y-111149250D02*
G01*
X159396911Y-111249427D01*
X159447821Y-111366078D01*
X159499491Y-111496609D01*
X159550783Y-111638423D01*
X159600559Y-111788926D01*
X159608898Y-111815316D01*
X159628151Y-111876152D01*
X159644342Y-111927194D01*
X159655974Y-111963723D01*
X159661549Y-111981021D01*
X159658505Y-111990392D01*
X159638455Y-111994334D01*
X159597497Y-111993577D01*
X159527978Y-111989816D01*
X159497334Y-111901927D01*
X159495944Y-111897944D01*
X159479857Y-111852672D01*
X159466314Y-111815881D01*
X159458120Y-111795204D01*
X159452438Y-111778509D01*
X159446078Y-111746669D01*
X159442480Y-111726744D01*
X159436039Y-111710399D01*
X159431306Y-111709646D01*
X159422077Y-111723027D01*
X159413980Y-111748008D01*
X159409460Y-111776005D01*
X159410962Y-111798435D01*
X159413609Y-111815084D01*
X159403548Y-111813970D01*
X159398628Y-111812704D01*
X159393173Y-111822538D01*
X159391443Y-111850616D01*
X159393031Y-111900287D01*
X159397869Y-111996094D01*
X157444983Y-111996094D01*
X157444983Y-111970242D01*
X157446942Y-111955715D01*
X157454400Y-111950203D01*
X157459715Y-111950202D01*
X157465527Y-111934233D01*
X157466943Y-111902961D01*
X157464208Y-111862359D01*
X157457568Y-111818403D01*
X157447271Y-111777068D01*
X157423822Y-111703030D01*
X157409821Y-111743193D01*
X157409311Y-111744687D01*
X157402176Y-111778330D01*
X157403702Y-111803895D01*
X157406203Y-111814713D01*
X157399134Y-111816740D01*
X157397519Y-111816433D01*
X157386811Y-111828413D01*
X157372236Y-111858709D01*
X157356194Y-111902531D01*
X157325705Y-111996016D01*
X157277775Y-111996055D01*
X157251267Y-111994907D01*
X157236223Y-111988587D01*
X157236192Y-111974122D01*
X157237134Y-111970796D01*
X157244201Y-111945158D01*
X157256016Y-111901838D01*
X157271182Y-111845961D01*
X157288306Y-111782649D01*
X157333211Y-111623022D01*
X157379835Y-111473019D01*
X157425193Y-111344493D01*
X157469977Y-111235629D01*
X157514882Y-111144609D01*
X157560601Y-111069616D01*
X157591771Y-111032861D01*
X157624397Y-111004856D01*
X157952186Y-111004856D01*
X157952682Y-111020860D01*
X157953252Y-111024676D01*
X157962639Y-111056055D01*
X157978484Y-111092007D01*
X157980802Y-111096453D01*
X157994828Y-111120435D01*
X158003189Y-111124392D01*
X158010111Y-111110840D01*
X158015583Y-111098428D01*
X158021144Y-111100782D01*
X158027809Y-111125569D01*
X158028066Y-111126698D01*
X158039599Y-111156119D01*
X158054697Y-111172258D01*
X158062309Y-111173955D01*
X158071374Y-111166863D01*
X158074573Y-111143009D01*
X158072896Y-111098368D01*
X158072778Y-111096479D01*
X158073492Y-111073521D01*
X158078172Y-111068354D01*
X158080915Y-111074366D01*
X158085676Y-111100171D01*
X158088787Y-111137410D01*
X158090071Y-111159726D01*
X158094640Y-111186207D01*
X158105395Y-111198245D01*
X158126338Y-111202806D01*
X158148608Y-111208909D01*
X158153967Y-111218307D01*
X158155160Y-111226989D01*
X158171840Y-111243540D01*
X158199354Y-111260968D01*
X158230210Y-111274753D01*
X158256913Y-111280377D01*
X158274089Y-111283240D01*
X158288869Y-111294682D01*
X158292174Y-111296594D01*
X158300292Y-111283892D01*
X158310035Y-111258636D01*
X158319074Y-111228070D01*
X158325083Y-111199436D01*
X158325418Y-111189396D01*
X158412210Y-111189396D01*
X158419756Y-111199744D01*
X158443154Y-111205090D01*
X158454285Y-111204702D01*
X158470593Y-111198632D01*
X158472297Y-111180956D01*
X158461042Y-111146269D01*
X158447540Y-111110923D01*
X158537321Y-111110923D01*
X158539107Y-111119644D01*
X158553016Y-111129949D01*
X158560442Y-111132049D01*
X158550457Y-111141688D01*
X158547633Y-111143591D01*
X158538673Y-111158047D01*
X158546093Y-111180956D01*
X158546529Y-111182302D01*
X158556564Y-111205001D01*
X158568399Y-111238458D01*
X158572670Y-111250225D01*
X158593466Y-111270694D01*
X158628349Y-111270908D01*
X158638810Y-111265708D01*
X158645996Y-111250983D01*
X158649438Y-111221772D01*
X158650322Y-111172781D01*
X158650289Y-111157262D01*
X158649231Y-111115415D01*
X158646616Y-111098368D01*
X158662877Y-111098368D01*
X158666778Y-111119068D01*
X158678572Y-111129949D01*
X158687263Y-111131821D01*
X158677757Y-111140610D01*
X158677448Y-111140812D01*
X158666558Y-111162123D01*
X158666199Y-111172781D01*
X158665202Y-111202405D01*
X158665479Y-111205915D01*
X158669478Y-111235881D01*
X158676937Y-111246052D01*
X158691127Y-111241343D01*
X158704117Y-111229038D01*
X158714556Y-111201328D01*
X158714770Y-111197670D01*
X158717155Y-111184419D01*
X158721674Y-111195256D01*
X158723065Y-111200000D01*
X158732143Y-111210098D01*
X158751607Y-111201652D01*
X158765317Y-111188507D01*
X158773595Y-111163301D01*
X158775878Y-111120459D01*
X158775922Y-111117201D01*
X158790582Y-111117201D01*
X158791716Y-111134113D01*
X158798274Y-111161394D01*
X158809725Y-111164504D01*
X158825659Y-111143138D01*
X158828962Y-111136559D01*
X158838739Y-111101770D01*
X158833324Y-111076643D01*
X158813635Y-111066979D01*
X158798699Y-111070001D01*
X158791240Y-111084513D01*
X158790582Y-111117201D01*
X158775922Y-111117201D01*
X158776284Y-111090372D01*
X158779652Y-111066217D01*
X158788986Y-111056326D01*
X158807267Y-111054423D01*
X158851212Y-111054423D01*
X158851452Y-111077005D01*
X158852560Y-111101770D01*
X158852745Y-111105899D01*
X158854782Y-111117201D01*
X158855220Y-111117036D01*
X158864441Y-111105308D01*
X158879893Y-111080736D01*
X158889541Y-111062536D01*
X158900834Y-111025859D01*
X158896374Y-111000875D01*
X158876323Y-110991645D01*
X158870515Y-110991914D01*
X158858145Y-110997989D01*
X158857161Y-111001282D01*
X158852534Y-111016769D01*
X158851873Y-111035590D01*
X158851212Y-111054423D01*
X158807267Y-111054423D01*
X158827741Y-111050737D01*
X158838656Y-111035590D01*
X158837133Y-111025848D01*
X158822194Y-111017435D01*
X158791402Y-111028395D01*
X158778434Y-111034715D01*
X158746269Y-111047356D01*
X158737830Y-111051018D01*
X158727567Y-111066665D01*
X158728053Y-111098495D01*
X158728254Y-111100282D01*
X158727908Y-111131078D01*
X158719031Y-111142312D01*
X158710406Y-111132659D01*
X158710422Y-111104646D01*
X158712202Y-111087752D01*
X158707638Y-111070961D01*
X158689414Y-111066979D01*
X158688791Y-111066981D01*
X158668540Y-111073986D01*
X158662877Y-111098368D01*
X158646616Y-111098368D01*
X158645638Y-111091996D01*
X158638100Y-111081779D01*
X158625211Y-111079534D01*
X158609336Y-111083448D01*
X158600099Y-111103905D01*
X158598261Y-111118277D01*
X158588715Y-111135311D01*
X158583074Y-111134211D01*
X158583901Y-111117219D01*
X158583927Y-111117118D01*
X158583425Y-111097401D01*
X158563897Y-111092090D01*
X158547924Y-111095621D01*
X158537321Y-111110923D01*
X158447540Y-111110923D01*
X158446471Y-111112846D01*
X158430097Y-111142312D01*
X158418286Y-111167436D01*
X158412210Y-111189396D01*
X158325418Y-111189396D01*
X158325732Y-111179979D01*
X158324905Y-111171514D01*
X158330863Y-111170373D01*
X158330972Y-111170477D01*
X158342557Y-111167213D01*
X158357168Y-111146965D01*
X158362692Y-111136163D01*
X158372410Y-111112846D01*
X158368172Y-111105115D01*
X158348987Y-111108284D01*
X158333911Y-111110219D01*
X158323876Y-111104896D01*
X158321690Y-111101783D01*
X158302294Y-111093740D01*
X158269356Y-111086765D01*
X158258590Y-111085132D01*
X158215573Y-111078324D01*
X158181466Y-111072539D01*
X158176334Y-111071688D01*
X158153852Y-111073071D01*
X158146846Y-111088706D01*
X158146764Y-111089969D01*
X158143510Y-111096953D01*
X158136863Y-111079534D01*
X158126918Y-111059555D01*
X158103587Y-111048145D01*
X158089027Y-111046517D01*
X158071638Y-111038106D01*
X158066501Y-111034137D01*
X158042281Y-111022983D01*
X158006932Y-111010821D01*
X157980643Y-111003141D01*
X157970551Y-111001315D01*
X158191249Y-111001315D01*
X158192404Y-111001874D01*
X158210574Y-111006574D01*
X158245747Y-111014162D01*
X158291752Y-111023287D01*
X158295323Y-111023963D01*
X158350344Y-111032861D01*
X158402563Y-111038923D01*
X158441120Y-111040869D01*
X158471096Y-111038487D01*
X158520863Y-111031577D01*
X158576462Y-111021916D01*
X158627821Y-111011281D01*
X158664870Y-111001444D01*
X158665099Y-111001282D01*
X158653202Y-111000217D01*
X158620311Y-110999295D01*
X158570022Y-110998569D01*
X158505935Y-110998093D01*
X158431645Y-110997923D01*
X158421674Y-110997926D01*
X158347833Y-110998132D01*
X158284125Y-110998627D01*
X158234296Y-110999357D01*
X158202089Y-111000271D01*
X158191249Y-111001315D01*
X157970551Y-111001315D01*
X157959514Y-110999318D01*
X157952186Y-111004856D01*
X157624397Y-111004856D01*
X157646593Y-110985804D01*
X157710063Y-110944531D01*
X157773314Y-110915469D01*
X157819144Y-110899618D01*
X157723092Y-110850504D01*
X157674347Y-110825181D01*
X157578721Y-110772026D01*
X157498218Y-110720933D01*
X157426880Y-110667614D01*
X157358753Y-110607782D01*
X157287880Y-110537146D01*
X157244667Y-110491252D01*
X157195278Y-110435084D01*
X157155911Y-110383937D01*
X157121412Y-110330953D01*
X157086628Y-110269273D01*
X157059053Y-110218223D01*
X157036769Y-110179379D01*
X157020022Y-110155621D01*
X157005515Y-110143227D01*
X156989951Y-110138475D01*
X156970033Y-110137646D01*
X156938371Y-110135413D01*
X156889685Y-110128765D01*
X156838274Y-110119279D01*
X156776915Y-110102634D01*
X156680729Y-110057842D01*
X156598490Y-109992480D01*
X156528801Y-109905585D01*
X156480245Y-109820143D01*
X156446791Y-109728422D01*
X156434122Y-109635426D01*
X156435813Y-109610528D01*
X156547983Y-109610528D01*
X156548305Y-109651118D01*
X156550568Y-109697464D01*
X156556366Y-109731904D01*
X156567278Y-109762412D01*
X156584882Y-109796958D01*
X156606863Y-109832348D01*
X156666099Y-109901978D01*
X156736922Y-109959728D01*
X156812003Y-109999077D01*
X156840509Y-110008443D01*
X156890389Y-110020248D01*
X156931520Y-110024863D01*
X156931837Y-110024863D01*
X156963638Y-110023265D01*
X156976057Y-110016478D01*
X156974693Y-110001470D01*
X156964695Y-109964010D01*
X156950722Y-109892008D01*
X156937550Y-109801616D01*
X156925731Y-109696778D01*
X156915819Y-109581442D01*
X156910056Y-109503105D01*
X157020513Y-109503105D01*
X157022747Y-109544068D01*
X157027147Y-109597799D01*
X157033191Y-109659228D01*
X157040359Y-109723282D01*
X157048131Y-109784889D01*
X157055985Y-109838977D01*
X157063402Y-109880474D01*
X157097967Y-110016478D01*
X157099007Y-110020570D01*
X157148906Y-110154321D01*
X157213404Y-110274717D01*
X157295327Y-110386967D01*
X157397501Y-110496282D01*
X157484147Y-110572712D01*
X157629677Y-110675163D01*
X157789682Y-110760516D01*
X157960247Y-110826786D01*
X158137457Y-110871983D01*
X158158759Y-110875600D01*
X158213632Y-110882745D01*
X158278560Y-110889188D01*
X158347710Y-110894563D01*
X158415250Y-110898501D01*
X158475346Y-110900633D01*
X158522166Y-110900593D01*
X158549877Y-110898011D01*
X158555914Y-110896778D01*
X158584815Y-110891997D01*
X158628837Y-110885410D01*
X158681127Y-110878060D01*
X158787732Y-110857897D01*
X158927986Y-110817151D01*
X159069063Y-110762034D01*
X159203052Y-110695713D01*
X159322047Y-110621356D01*
X159331770Y-110614294D01*
X159399611Y-110558210D01*
X159472515Y-110488241D01*
X159544073Y-110411226D01*
X159607873Y-110334006D01*
X159657506Y-110263420D01*
X159668861Y-110244609D01*
X159732045Y-110114475D01*
X159761271Y-110024863D01*
X159884823Y-110024863D01*
X159936159Y-110024853D01*
X159957719Y-110023182D01*
X160016221Y-110007900D01*
X160080323Y-109979826D01*
X160141975Y-109942844D01*
X160193129Y-109900839D01*
X160206577Y-109887035D01*
X160250996Y-109832525D01*
X160280190Y-109776060D01*
X160297223Y-109710167D01*
X160305156Y-109627373D01*
X160306421Y-109597155D01*
X160306812Y-109548262D01*
X160303149Y-109511916D01*
X160294229Y-109479680D01*
X160278846Y-109443118D01*
X160253832Y-109397489D01*
X160219658Y-109348444D01*
X160182236Y-109303939D01*
X160146545Y-109269870D01*
X160117563Y-109252133D01*
X160102514Y-109251474D01*
X160075253Y-109264419D01*
X160037390Y-109295599D01*
X160011408Y-109318315D01*
X159995316Y-109330590D01*
X159984400Y-109338917D01*
X159968941Y-109346860D01*
X159968332Y-109346945D01*
X159961910Y-109360646D01*
X159957649Y-109394794D01*
X159956105Y-109445124D01*
X159955532Y-109471449D01*
X159954715Y-109508955D01*
X159948238Y-109614033D01*
X159937420Y-109724566D01*
X159923313Y-109830374D01*
X159906967Y-109921279D01*
X159884823Y-110024863D01*
X159761271Y-110024863D01*
X159781234Y-109963652D01*
X159816383Y-109792313D01*
X159837445Y-109600628D01*
X159846408Y-109471449D01*
X159814992Y-109485763D01*
X159811415Y-109487468D01*
X159793337Y-109501386D01*
X159787782Y-109514119D01*
X159782994Y-109525096D01*
X159776746Y-109566256D01*
X159775308Y-109578237D01*
X159755239Y-109655759D01*
X159719355Y-109720206D01*
X159670217Y-109766756D01*
X159644542Y-109781292D01*
X159602193Y-109797685D01*
X159549031Y-109810291D01*
X159482213Y-109819469D01*
X159398895Y-109825581D01*
X159296231Y-109828987D01*
X159171380Y-109830049D01*
X159106142Y-109830002D01*
X159030388Y-109829588D01*
X158973177Y-109828464D01*
X158930626Y-109826293D01*
X158898850Y-109822738D01*
X158873967Y-109817464D01*
X158852093Y-109810133D01*
X158829344Y-109800409D01*
X158805284Y-109788001D01*
X158758280Y-109756762D01*
X158720999Y-109723670D01*
X158702067Y-109699033D01*
X158674297Y-109651965D01*
X158649629Y-109599204D01*
X158631966Y-109549408D01*
X158625211Y-109511234D01*
X158624483Y-109504711D01*
X158615401Y-109493426D01*
X158591728Y-109485746D01*
X158548209Y-109479504D01*
X158540868Y-109478758D01*
X158487325Y-109476138D01*
X158423267Y-109476355D01*
X158360985Y-109479415D01*
X158250762Y-109488037D01*
X158250555Y-109489149D01*
X158242289Y-109533588D01*
X158222701Y-109605675D01*
X158179983Y-109687317D01*
X158117981Y-109752954D01*
X158036389Y-109802989D01*
X158027552Y-109806971D01*
X158007016Y-109814842D01*
X157984175Y-109820666D01*
X157955229Y-109824748D01*
X157916377Y-109827392D01*
X157863818Y-109828903D01*
X157793750Y-109829584D01*
X157702373Y-109829742D01*
X157649035Y-109829598D01*
X157536012Y-109827929D01*
X157443814Y-109824042D01*
X157369443Y-109817508D01*
X157309899Y-109807898D01*
X157262184Y-109794779D01*
X157223299Y-109777724D01*
X157190245Y-109756302D01*
X157187927Y-109754508D01*
X157138193Y-109700158D01*
X157106087Y-109631192D01*
X157094109Y-109552904D01*
X157092067Y-109523515D01*
X157082407Y-109500979D01*
X157060415Y-109486517D01*
X157035938Y-109477599D01*
X157021974Y-109476905D01*
X157020965Y-109479984D01*
X157020513Y-109503105D01*
X156910056Y-109503105D01*
X156907423Y-109467312D01*
X157133852Y-109467312D01*
X157134100Y-109536496D01*
X157136013Y-109557475D01*
X157151638Y-109629854D01*
X157181754Y-109685298D01*
X157228676Y-109726005D01*
X157294721Y-109754174D01*
X157382205Y-109772003D01*
X157405826Y-109774940D01*
X157483630Y-109782164D01*
X157572148Y-109787624D01*
X157664247Y-109791103D01*
X157752795Y-109792385D01*
X157830660Y-109791251D01*
X157890707Y-109787486D01*
X157935704Y-109781015D01*
X158024609Y-109754728D01*
X158094758Y-109712103D01*
X158146701Y-109652738D01*
X158180989Y-109576234D01*
X158186740Y-109556032D01*
X158198707Y-109489149D01*
X158195815Y-109463456D01*
X158676215Y-109463456D01*
X158678676Y-109525058D01*
X158700673Y-109601711D01*
X158721774Y-109647512D01*
X158764574Y-109703218D01*
X158822732Y-109744002D01*
X158898789Y-109771466D01*
X158995286Y-109787209D01*
X159031028Y-109790444D01*
X159106414Y-109795185D01*
X159179183Y-109796092D01*
X159258477Y-109793143D01*
X159353436Y-109786314D01*
X159461056Y-109775518D01*
X159547382Y-109761608D01*
X159613587Y-109742891D01*
X159662165Y-109717565D01*
X159695610Y-109683827D01*
X159716415Y-109639874D01*
X159727076Y-109583906D01*
X159730085Y-109514119D01*
X159729109Y-109465035D01*
X159723596Y-109421620D01*
X159710716Y-109393465D01*
X159687693Y-109375146D01*
X159651746Y-109361241D01*
X159609087Y-109350747D01*
X159532733Y-109339118D01*
X159440397Y-109330689D01*
X159337190Y-109325458D01*
X159228223Y-109323426D01*
X159118607Y-109324593D01*
X159013453Y-109328959D01*
X158917873Y-109336523D01*
X158836978Y-109347287D01*
X158775878Y-109361249D01*
X158731357Y-109380734D01*
X158693653Y-109415738D01*
X158676215Y-109463456D01*
X158195815Y-109463456D01*
X158192980Y-109438274D01*
X158167885Y-109400480D01*
X158121747Y-109372840D01*
X158052891Y-109352427D01*
X158049990Y-109351798D01*
X157976657Y-109340036D01*
X157886191Y-109331659D01*
X157783850Y-109326604D01*
X157674896Y-109324808D01*
X157564587Y-109326208D01*
X157458184Y-109330740D01*
X157360946Y-109338341D01*
X157278135Y-109348948D01*
X157215009Y-109362498D01*
X157211174Y-109363658D01*
X157170849Y-109384204D01*
X157145588Y-109417652D01*
X157133852Y-109467312D01*
X156907423Y-109467312D01*
X156900285Y-109370300D01*
X156861883Y-109354247D01*
X156829914Y-109336841D01*
X156826675Y-109334147D01*
X157018092Y-109334147D01*
X157018543Y-109364284D01*
X157022217Y-109395805D01*
X157031796Y-109415068D01*
X157049873Y-109429883D01*
X157050444Y-109430256D01*
X157073441Y-109443262D01*
X157084774Y-109445867D01*
X157085961Y-109443694D01*
X157095040Y-109424837D01*
X157109019Y-109394511D01*
X157114619Y-109383160D01*
X157138652Y-109350917D01*
X157173543Y-109327666D01*
X157224026Y-109310958D01*
X157294834Y-109298344D01*
X157366054Y-109289779D01*
X157486410Y-109280224D01*
X157609470Y-109275832D01*
X157731299Y-109276390D01*
X157847963Y-109281689D01*
X157955526Y-109291516D01*
X158050055Y-109305661D01*
X158127613Y-109323912D01*
X158184267Y-109346059D01*
X158184636Y-109346259D01*
X158209630Y-109368843D01*
X158229607Y-109401232D01*
X158246212Y-109441027D01*
X158625216Y-109433491D01*
X158644177Y-109396826D01*
X158652544Y-109382918D01*
X158677516Y-109356757D01*
X158714051Y-109335411D01*
X158764856Y-109318077D01*
X158832638Y-109303947D01*
X158920105Y-109292218D01*
X159029964Y-109282084D01*
X159036525Y-109281582D01*
X159126037Y-109277128D01*
X159224226Y-109275969D01*
X159325471Y-109277844D01*
X159424150Y-109282497D01*
X159514642Y-109289668D01*
X159591326Y-109299100D01*
X159648580Y-109310533D01*
X159663720Y-109315361D01*
X159713150Y-109341541D01*
X159752081Y-109377585D01*
X159773272Y-109417292D01*
X159773314Y-109417459D01*
X159783978Y-109442123D01*
X159799773Y-109443750D01*
X159823838Y-109422673D01*
X159824330Y-109422125D01*
X159832625Y-109410258D01*
X159838279Y-109393776D01*
X159841601Y-109368585D01*
X159842900Y-109330590D01*
X159842485Y-109275697D01*
X159840666Y-109199811D01*
X159839666Y-109164701D01*
X159837286Y-109098101D01*
X159834228Y-109049401D01*
X159829719Y-109013546D01*
X159822985Y-108985484D01*
X159813253Y-108960161D01*
X159799749Y-108932525D01*
X159758242Y-108857010D01*
X159684884Y-108748348D01*
X159605439Y-108661630D01*
X159517663Y-108594947D01*
X159419314Y-108546390D01*
X159308149Y-108514049D01*
X159307573Y-108513928D01*
X159261620Y-108504965D01*
X159233919Y-108502091D01*
X159218415Y-108505351D01*
X159209046Y-108514791D01*
X159188820Y-108543586D01*
X159162557Y-108570912D01*
X159132205Y-108585906D01*
X159088670Y-108594596D01*
X159084095Y-108595221D01*
X159021286Y-108600790D01*
X158940481Y-108603962D01*
X158848090Y-108604821D01*
X158750524Y-108603450D01*
X158654193Y-108599933D01*
X158565508Y-108594354D01*
X158490881Y-108586796D01*
X158381512Y-108569390D01*
X158230855Y-108536976D01*
X158076150Y-108495364D01*
X157924685Y-108446745D01*
X157783750Y-108393311D01*
X157660633Y-108337251D01*
X157639745Y-108326713D01*
X157607636Y-108311492D01*
X157590746Y-108306697D01*
X157584194Y-108311581D01*
X157583095Y-108325399D01*
X157576648Y-108352858D01*
X157559092Y-108395203D01*
X157533662Y-108446115D01*
X157503591Y-108499519D01*
X157472117Y-108549338D01*
X157442473Y-108589496D01*
X157440602Y-108591728D01*
X157401857Y-108632840D01*
X157353088Y-108678102D01*
X157304387Y-108718117D01*
X157293574Y-108726428D01*
X157227762Y-108784850D01*
X157173822Y-108849608D01*
X157128902Y-108925394D01*
X157090150Y-109016901D01*
X157054712Y-109128822D01*
X157051804Y-109139360D01*
X157034090Y-109213510D01*
X157022345Y-109281283D01*
X157018092Y-109334147D01*
X156826675Y-109334147D01*
X156805561Y-109316588D01*
X156783877Y-109296973D01*
X156752413Y-109276764D01*
X156732049Y-109267652D01*
X156715482Y-109267801D01*
X156696329Y-109280513D01*
X156667177Y-109308552D01*
X156648459Y-109329101D01*
X156612058Y-109376929D01*
X156582511Y-109424904D01*
X156572963Y-109443822D01*
X156559731Y-109476029D01*
X156552155Y-109509185D01*
X156548738Y-109551337D01*
X156547983Y-109610528D01*
X156435813Y-109610528D01*
X156440906Y-109535545D01*
X156453978Y-109478445D01*
X156479744Y-109406424D01*
X156513219Y-109336325D01*
X156550679Y-109275798D01*
X156588401Y-109232491D01*
X156597707Y-109224201D01*
X156618921Y-109201851D01*
X156624496Y-109184224D01*
X156617877Y-109163223D01*
X156608018Y-109129329D01*
X156603757Y-109089350D01*
X156602251Y-109070169D01*
X156593651Y-109026119D01*
X156579968Y-108980080D01*
X156576157Y-108969237D01*
X156544003Y-108859982D01*
X156515656Y-108732182D01*
X156491849Y-108591577D01*
X156473317Y-108443911D01*
X156460795Y-108294925D01*
X156455015Y-108150363D01*
X156456712Y-108015965D01*
X156457867Y-107993207D01*
X156472497Y-107841806D01*
X156498264Y-107694869D01*
X156533913Y-107557368D01*
X156578187Y-107434276D01*
X156629832Y-107330567D01*
X156645689Y-107305757D01*
X156699366Y-107236034D01*
X156766532Y-107162831D01*
X156840969Y-107092204D01*
X156916457Y-107030211D01*
X156986779Y-106982908D01*
X157029887Y-106956379D01*
X157081831Y-106917295D01*
X157111633Y-106883424D01*
X157120421Y-106869183D01*
X157180313Y-106793502D01*
X157259807Y-106718880D01*
X157354391Y-106648402D01*
X157459551Y-106585152D01*
X157570772Y-106532215D01*
X157683540Y-106492675D01*
X157757311Y-106475227D01*
X157866168Y-106457504D01*
X157989654Y-106444160D01*
X158122155Y-106435439D01*
X158258057Y-106431582D01*
X158391747Y-106432835D01*
X158517612Y-106439439D01*
X158630038Y-106451640D01*
X158707621Y-106464078D01*
X158948534Y-106518617D01*
X159179258Y-106595953D01*
X159400887Y-106696495D01*
X159614514Y-106820654D01*
X159615202Y-106821100D01*
X159691635Y-106872623D01*
X159759694Y-106923392D01*
X159824053Y-106977585D01*
X159889387Y-107039382D01*
X159960371Y-107112961D01*
X160041679Y-107202501D01*
X160045859Y-107207195D01*
X160122549Y-107291809D01*
X160186674Y-107359083D01*
X160240880Y-107411437D01*
X160287812Y-107451290D01*
X160330117Y-107481062D01*
X160370440Y-107503172D01*
X160387767Y-107512091D01*
X160424244Y-107535152D01*
X160448634Y-107556392D01*
X160467298Y-107594616D01*
X160467112Y-107640173D01*
X160447533Y-107683729D01*
X160410176Y-107718481D01*
X160382834Y-107735520D01*
X160361568Y-107749210D01*
X160357104Y-107755134D01*
X160353695Y-107773252D01*
X160353748Y-107805887D01*
X160357317Y-107856482D01*
X160364457Y-107928481D01*
X160364655Y-107930339D01*
X160371627Y-108010777D01*
X160377395Y-108104516D01*
X160381365Y-108200060D01*
X160382943Y-108285911D01*
X160383293Y-108326167D01*
X160386443Y-108419538D01*
X160392624Y-108495226D01*
X160401578Y-108549579D01*
X160409382Y-108584531D01*
X160417066Y-108626288D01*
X160420216Y-108654128D01*
X160420115Y-108657330D01*
X160408101Y-108688980D01*
X160381675Y-108721364D01*
X160348760Y-108746585D01*
X160317277Y-108756746D01*
X160311798Y-108756955D01*
X160301177Y-108760206D01*
X160291907Y-108770188D01*
X160282554Y-108790442D01*
X160271683Y-108824505D01*
X160257860Y-108875918D01*
X160239649Y-108948219D01*
X160229982Y-108986918D01*
X160214274Y-109049128D01*
X160201110Y-109100419D01*
X160191646Y-109136303D01*
X160187040Y-109152294D01*
X160189922Y-109161457D01*
X160207730Y-109182723D01*
X160236879Y-109208778D01*
X160290729Y-109260667D01*
X160351062Y-109346896D01*
X160396566Y-109449736D01*
X160415254Y-109528899D01*
X160416141Y-109548262D01*
X160419992Y-109632371D01*
X160405305Y-109735350D01*
X160371736Y-109829522D01*
X160325696Y-109909436D01*
X160254349Y-109994859D01*
X160169390Y-110059415D01*
X160069795Y-110103841D01*
X159954536Y-110128873D01*
X159917841Y-110133715D01*
X159876108Y-110140717D01*
X159850888Y-110148393D01*
X159836950Y-110158590D01*
X159829067Y-110173151D01*
X159826013Y-110180751D01*
X159802465Y-110228576D01*
X159768115Y-110288071D01*
X159727093Y-110352675D01*
X159683533Y-110415824D01*
X159641565Y-110470957D01*
X159619420Y-110497621D01*
X159554482Y-110568630D01*
X159485605Y-110632078D01*
X159407834Y-110691891D01*
X159316218Y-110751996D01*
X159205801Y-110816319D01*
X159076999Y-110888149D01*
X159145838Y-110921829D01*
X159174192Y-110937705D01*
X159220498Y-110970592D01*
X159256255Y-111004083D01*
X159260132Y-111008701D01*
X159272196Y-111025859D01*
X159301928Y-111068143D01*
X159347901Y-111149250D01*
G37*
G36*
X158148097Y-111173701D02*
G01*
X158141820Y-111179979D01*
X158135542Y-111173701D01*
X158141820Y-111167424D01*
X158148097Y-111173701D01*
G37*
G36*
X159441325Y-111807760D02*
G01*
X159440419Y-111814407D01*
X159432955Y-111816130D01*
X159431452Y-111814290D01*
X159432955Y-111799389D01*
X159436731Y-111797425D01*
X159441325Y-111807760D01*
G37*
G36*
X144625705Y-108367523D02*
G01*
X144625705Y-108166633D01*
X144173703Y-108166633D01*
X144173703Y-108329856D01*
X143999123Y-108329856D01*
X143995385Y-108251383D01*
X143991647Y-108172911D01*
X143762507Y-108169488D01*
X143533367Y-108166066D01*
X143533367Y-108317300D01*
X143357588Y-108317300D01*
X143357588Y-108028521D01*
X143533367Y-108028521D01*
X144625705Y-108028521D01*
X144625705Y-107852742D01*
X144173703Y-107852742D01*
X144173703Y-108028521D01*
X143999072Y-108028521D01*
X143995359Y-107943771D01*
X143991647Y-107859020D01*
X143533367Y-107852176D01*
X143533367Y-108028521D01*
X143357588Y-108028521D01*
X143357588Y-107714631D01*
X143533367Y-107714631D01*
X144625705Y-107714631D01*
X144625705Y-107538852D01*
X144173703Y-107538852D01*
X144173703Y-107714631D01*
X143997924Y-107714631D01*
X143997924Y-107538852D01*
X143533367Y-107538852D01*
X143533367Y-107714631D01*
X143357588Y-107714631D01*
X143357588Y-107388185D01*
X143997924Y-107388185D01*
X143997924Y-107224962D01*
X143206921Y-107224962D01*
X143206921Y-107074295D01*
X143997924Y-107074295D01*
X143997924Y-106785516D01*
X144173703Y-106785516D01*
X144173703Y-107074295D01*
X144927040Y-107074295D01*
X144927040Y-107224962D01*
X144173703Y-107224962D01*
X144173703Y-107388185D01*
X144801483Y-107388185D01*
X144801483Y-108367523D01*
X144625705Y-108367523D01*
G37*
G36*
X158022541Y-111073257D02*
G01*
X158016263Y-111079534D01*
X158009986Y-111073257D01*
X158016263Y-111066979D01*
X158022541Y-111073257D01*
G37*
G36*
X158122986Y-111136035D02*
G01*
X158116708Y-111142312D01*
X158110431Y-111136035D01*
X158116708Y-111129757D01*
X158122986Y-111136035D01*
G37*
G36*
X157419872Y-111839149D02*
G01*
X157413594Y-111845427D01*
X157407316Y-111839149D01*
X157413594Y-111832871D01*
X157419872Y-111839149D01*
G37*
G36*
X159491548Y-111939594D02*
G01*
X159485270Y-111945871D01*
X159478992Y-111939594D01*
X159485270Y-111933316D01*
X159491548Y-111939594D01*
G37*
G36*
X159400055Y-108997271D02*
G01*
X159459672Y-108999267D01*
X159515180Y-109002864D01*
X159561329Y-109007726D01*
X159592868Y-109013516D01*
X159604548Y-109019899D01*
X159601759Y-109022424D01*
X159580178Y-109029099D01*
X159541895Y-109036711D01*
X159492487Y-109044056D01*
X159483635Y-109045279D01*
X159425392Y-109055877D01*
X159353249Y-109072071D01*
X159275532Y-109091885D01*
X159200569Y-109113342D01*
X159125456Y-109135274D01*
X159041805Y-109156041D01*
X158975089Y-109167242D01*
X158921930Y-109169399D01*
X158878948Y-109163034D01*
X158858195Y-109153213D01*
X158857894Y-109138599D01*
X158880657Y-109118904D01*
X158927052Y-109093309D01*
X158977941Y-109070970D01*
X159076482Y-109038249D01*
X159183057Y-109013547D01*
X159287156Y-108999597D01*
X159289496Y-108999421D01*
X159341580Y-108997210D01*
X159400055Y-108997271D01*
G37*
G36*
X158060208Y-111136035D02*
G01*
X158053930Y-111142312D01*
X158047652Y-111136035D01*
X158053930Y-111129757D01*
X158060208Y-111136035D01*
G37*
G36*
X158591931Y-110574177D02*
G01*
X158609516Y-110575514D01*
X158617765Y-110581284D01*
X158625211Y-110602718D01*
X158622937Y-110615403D01*
X158609516Y-110631940D01*
X158605469Y-110632836D01*
X158579536Y-110634772D01*
X158535318Y-110636035D01*
X158477749Y-110636521D01*
X158411765Y-110636125D01*
X158379640Y-110635701D01*
X158317916Y-110634553D01*
X158275809Y-110632732D01*
X158249431Y-110629613D01*
X158234892Y-110624571D01*
X158228305Y-110616979D01*
X158225782Y-110606214D01*
X158225029Y-110599665D01*
X158226498Y-110590851D01*
X158234654Y-110584753D01*
X158253183Y-110580737D01*
X158285767Y-110578167D01*
X158336091Y-110576408D01*
X158407839Y-110574825D01*
X158437262Y-110574285D01*
X158500935Y-110573546D01*
X158554114Y-110573515D01*
X158591931Y-110574177D01*
G37*
G36*
X147099160Y-111983538D02*
G01*
X146647158Y-111983538D01*
X146647158Y-111493870D01*
X147099160Y-111493870D01*
X147099160Y-111983538D01*
G37*
G36*
X159236777Y-109375016D02*
G01*
X159324437Y-109377356D01*
X159421587Y-109381197D01*
X159494550Y-109385847D01*
X159543853Y-109391341D01*
X159570020Y-109397716D01*
X159590943Y-109411636D01*
X159604151Y-109440192D01*
X159594422Y-109476032D01*
X159561859Y-109517616D01*
X159538758Y-109539603D01*
X159514213Y-109556571D01*
X159496037Y-109556550D01*
X159478687Y-109541104D01*
X159472192Y-109531204D01*
X159473286Y-109514496D01*
X159491893Y-109490882D01*
X159521036Y-109459861D01*
X159478042Y-109459722D01*
X159434328Y-109457409D01*
X159389235Y-109452008D01*
X159380674Y-109450650D01*
X159353980Y-109449651D01*
X159337678Y-109460857D01*
X159321887Y-109489813D01*
X159317094Y-109499829D01*
X159304516Y-109525149D01*
X159298644Y-109535383D01*
X159296492Y-109536048D01*
X159277849Y-109542539D01*
X159246713Y-109553666D01*
X159243948Y-109554662D01*
X159208387Y-109566863D01*
X159185205Y-109570866D01*
X159163719Y-109566762D01*
X159133249Y-109554643D01*
X159132934Y-109554511D01*
X159094415Y-109528791D01*
X159063356Y-109491865D01*
X159049856Y-109471344D01*
X159027661Y-109452277D01*
X158998309Y-109447305D01*
X158967343Y-109453103D01*
X158930861Y-109474259D01*
X158918764Y-109484864D01*
X158900026Y-109493521D01*
X158882969Y-109485277D01*
X158877514Y-109480413D01*
X158865321Y-109459514D01*
X158872771Y-109435584D01*
X158900914Y-109403858D01*
X158938062Y-109368269D01*
X159236777Y-109375016D01*
G37*
G36*
X158219246Y-111209276D02*
G01*
X158221210Y-111213052D01*
X158210875Y-111217646D01*
X158204228Y-111216740D01*
X158202505Y-111209276D01*
X158204345Y-111207773D01*
X158219246Y-111209276D01*
G37*
G36*
X150288285Y-107287740D02*
G01*
X150614731Y-107287740D01*
X150614731Y-107450963D01*
X150288285Y-107450963D01*
X150288285Y-107987424D01*
X150448369Y-108033739D01*
X150459827Y-108037056D01*
X150519629Y-108054436D01*
X150570549Y-108069344D01*
X150607504Y-108080286D01*
X150625413Y-108085768D01*
X150630362Y-108088747D01*
X150636340Y-108103176D01*
X150637229Y-108132811D01*
X150633422Y-108182419D01*
X150632891Y-108187738D01*
X150627798Y-108231962D01*
X150622876Y-108264652D01*
X150619121Y-108279067D01*
X150615625Y-108279032D01*
X150593259Y-108273862D01*
X150554809Y-108263143D01*
X150505494Y-108248478D01*
X150450534Y-108231468D01*
X150395149Y-108213715D01*
X150344557Y-108196818D01*
X150303980Y-108182381D01*
X150303024Y-108182193D01*
X150298569Y-108187563D01*
X150295049Y-108205202D01*
X150292372Y-108237250D01*
X150290448Y-108285846D01*
X150289186Y-108353130D01*
X150288495Y-108441243D01*
X150288285Y-108552325D01*
X150288285Y-108928148D01*
X150318931Y-108956938D01*
X150320765Y-108958648D01*
X150336310Y-108971094D01*
X150353975Y-108978654D01*
X150379495Y-108982187D01*
X150418609Y-108982552D01*
X150477055Y-108980608D01*
X150604534Y-108975487D01*
X150595843Y-109056639D01*
X150591002Y-109096760D01*
X150585365Y-109133854D01*
X150580765Y-109154436D01*
X150579893Y-109156099D01*
X150567623Y-109163178D01*
X150540029Y-109167802D01*
X150493861Y-109170320D01*
X150425871Y-109171082D01*
X150408588Y-109171039D01*
X150334143Y-109169244D01*
X150278763Y-109164016D01*
X150237470Y-109154271D01*
X150205285Y-109138921D01*
X150177231Y-109116884D01*
X150163441Y-109103854D01*
X150148099Y-109087554D01*
X150135739Y-109069911D01*
X150125992Y-109048283D01*
X150118490Y-109020030D01*
X150112862Y-108982512D01*
X150108742Y-108933087D01*
X150105759Y-108869116D01*
X150103546Y-108787958D01*
X150101733Y-108686972D01*
X150099951Y-108563517D01*
X150093673Y-108112898D01*
X149958700Y-108070310D01*
X149823728Y-108027721D01*
X149823728Y-107842221D01*
X149926418Y-107873757D01*
X149941125Y-107878296D01*
X149991372Y-107894111D01*
X150033308Y-107907756D01*
X150059069Y-107916685D01*
X150079922Y-107924109D01*
X150094491Y-107928076D01*
X150094605Y-107928024D01*
X150096294Y-107914621D01*
X150097762Y-107880213D01*
X150098919Y-107828656D01*
X150099678Y-107763806D01*
X150099951Y-107689520D01*
X150099951Y-107450963D01*
X149811172Y-107450963D01*
X149811172Y-107287740D01*
X150099951Y-107287740D01*
X150099951Y-106798071D01*
X150288285Y-106798071D01*
X150288285Y-107287740D01*
G37*
G36*
X144763326Y-111436856D02*
G01*
X144730668Y-111568699D01*
X144678291Y-111686103D01*
X144607021Y-111788088D01*
X144517685Y-111873676D01*
X144411109Y-111941887D01*
X144288118Y-111991742D01*
X144149538Y-112022262D01*
X144147869Y-112022493D01*
X144081278Y-112027407D01*
X143999847Y-112027272D01*
X143912942Y-112022585D01*
X143829931Y-112013844D01*
X143760179Y-112001548D01*
X143661354Y-111971101D01*
X143548677Y-111914234D01*
X143451199Y-111838050D01*
X143370116Y-111743741D01*
X143306626Y-111632499D01*
X143261929Y-111505518D01*
X143254523Y-111470512D01*
X143245098Y-111391787D01*
X143241384Y-111307414D01*
X143703799Y-111307414D01*
X143704970Y-111380175D01*
X143708565Y-111435059D01*
X143715080Y-111477542D01*
X143725014Y-111513101D01*
X143730886Y-111528737D01*
X143769116Y-111599545D01*
X143819739Y-111657330D01*
X143877758Y-111696105D01*
X143901244Y-111705431D01*
X143976966Y-111720408D01*
X144054498Y-111716311D01*
X144128046Y-111694607D01*
X144191817Y-111656765D01*
X144240020Y-111604254D01*
X144255063Y-111579791D01*
X144276192Y-111537072D01*
X144290692Y-111491255D01*
X144299674Y-111436861D01*
X144304243Y-111368410D01*
X144305509Y-111280424D01*
X144305120Y-111236116D01*
X144300769Y-111147224D01*
X144290603Y-111076401D01*
X144273393Y-111018937D01*
X144247912Y-110970120D01*
X144212932Y-110925239D01*
X144185248Y-110897403D01*
X144136459Y-110863911D01*
X144079863Y-110846247D01*
X144007744Y-110841254D01*
X143959601Y-110843921D01*
X143884005Y-110862383D01*
X143822611Y-110899843D01*
X143773062Y-110957995D01*
X143732999Y-111038533D01*
X143731309Y-111042897D01*
X143719798Y-111076770D01*
X143712031Y-111111365D01*
X143707274Y-111152777D01*
X143704791Y-111207098D01*
X143703850Y-111280424D01*
X143703799Y-111307414D01*
X143241384Y-111307414D01*
X143241151Y-111302116D01*
X143242678Y-111210289D01*
X143249675Y-111125097D01*
X143262138Y-111055330D01*
X143295119Y-110954673D01*
X143354398Y-110839713D01*
X143431948Y-110741700D01*
X143526992Y-110661398D01*
X143638754Y-110599578D01*
X143766457Y-110557005D01*
X143804961Y-110549361D01*
X143888833Y-110539739D01*
X143983158Y-110535644D01*
X144079201Y-110537083D01*
X144168226Y-110544064D01*
X144241498Y-110556596D01*
X144299704Y-110573102D01*
X144421263Y-110624580D01*
X144526256Y-110694340D01*
X144613906Y-110781326D01*
X144683434Y-110884483D01*
X144734060Y-111002755D01*
X144765007Y-111135087D01*
X144775496Y-111280424D01*
X144775439Y-111291552D01*
X144763326Y-111436856D01*
G37*
G36*
X149381766Y-111112642D02*
G01*
X149375046Y-111214205D01*
X149363433Y-111306045D01*
X149347170Y-111380664D01*
X149343779Y-111392036D01*
X149289159Y-111530182D01*
X149214814Y-111653883D01*
X149122418Y-111761726D01*
X149013647Y-111852297D01*
X148890176Y-111924182D01*
X148753680Y-111975968D01*
X148605833Y-112006240D01*
X148518844Y-112015389D01*
X148439740Y-112018919D01*
X148361787Y-112016224D01*
X148273110Y-112007344D01*
X148197332Y-111995696D01*
X148047590Y-111956516D01*
X147913639Y-111898083D01*
X147795991Y-111820842D01*
X147695156Y-111725240D01*
X147611647Y-111611721D01*
X147545974Y-111480731D01*
X147498649Y-111332716D01*
X147494407Y-111314047D01*
X147478674Y-111210931D01*
X147471308Y-111095018D01*
X147471392Y-111084807D01*
X147966376Y-111084807D01*
X147969266Y-111167580D01*
X147977238Y-111237823D01*
X147979187Y-111248578D01*
X148009461Y-111356167D01*
X148056143Y-111452620D01*
X148116876Y-111534690D01*
X148189306Y-111599131D01*
X148271077Y-111642698D01*
X148330295Y-111659666D01*
X148425229Y-111669171D01*
X148520787Y-111659996D01*
X148610342Y-111632995D01*
X148687268Y-111589023D01*
X148724106Y-111557141D01*
X148788371Y-111477638D01*
X148837859Y-111380044D01*
X148871897Y-111266304D01*
X148889817Y-111138364D01*
X148890946Y-110998169D01*
X148889065Y-110968059D01*
X148870687Y-110831267D01*
X148837267Y-110714159D01*
X148788929Y-110616895D01*
X148725797Y-110539637D01*
X148647997Y-110482542D01*
X148555653Y-110445773D01*
X148448888Y-110429488D01*
X148416950Y-110428196D01*
X148364970Y-110429391D01*
X148321087Y-110436918D01*
X148274129Y-110452232D01*
X148272518Y-110452843D01*
X148185225Y-110498706D01*
X148111404Y-110564816D01*
X148050483Y-110651822D01*
X148001890Y-110760370D01*
X147998227Y-110771539D01*
X147984491Y-110832869D01*
X147974358Y-110910295D01*
X147968196Y-110996660D01*
X147966376Y-111084807D01*
X147471392Y-111084807D01*
X147472298Y-110975340D01*
X147481634Y-110860928D01*
X147499305Y-110760812D01*
X147505311Y-110737224D01*
X147555229Y-110593792D01*
X147623882Y-110466013D01*
X147710345Y-110354909D01*
X147813693Y-110261506D01*
X147933002Y-110186826D01*
X148067347Y-110131893D01*
X148146524Y-110110381D01*
X148290776Y-110086718D01*
X148439279Y-110080083D01*
X148587125Y-110090031D01*
X148729404Y-110116113D01*
X148861208Y-110157881D01*
X148977628Y-110214889D01*
X148991049Y-110223171D01*
X149097795Y-110305222D01*
X149190176Y-110406398D01*
X149266682Y-110524419D01*
X149325802Y-110657003D01*
X149366028Y-110801869D01*
X149370119Y-110824618D01*
X149379547Y-110910349D01*
X149382936Y-110998169D01*
X149383348Y-111008857D01*
X149381766Y-111112642D01*
G37*
G36*
X153439743Y-110363865D02*
G01*
X152962630Y-110363865D01*
X152962630Y-110024863D01*
X153439743Y-110024863D01*
X153439743Y-110363865D01*
G37*
G36*
X158763322Y-111136035D02*
G01*
X158757044Y-111142312D01*
X158750767Y-111136035D01*
X158757044Y-111129757D01*
X158763322Y-111136035D01*
G37*
G36*
X154333809Y-110775061D02*
G01*
X154337470Y-111437369D01*
X154370884Y-111508649D01*
X154402291Y-111561856D01*
X154454116Y-111613388D01*
X154520860Y-111647550D01*
X154604298Y-111665182D01*
X154706209Y-111667124D01*
X154751320Y-111663446D01*
X154838547Y-111644978D01*
X154907135Y-111611073D01*
X154959038Y-111560070D01*
X154996211Y-111490312D01*
X155020607Y-111400137D01*
X155023967Y-111369605D01*
X155027026Y-111314177D01*
X155029582Y-111235977D01*
X155031613Y-111136202D01*
X155033093Y-111016049D01*
X155033999Y-110876714D01*
X155034306Y-110719394D01*
X155034306Y-110112752D01*
X155511419Y-110112752D01*
X155510981Y-110743672D01*
X155510814Y-110858691D01*
X155510287Y-110996658D01*
X155509371Y-111113069D01*
X155508014Y-111209979D01*
X155506165Y-111289447D01*
X155503772Y-111353528D01*
X155500786Y-111404279D01*
X155497154Y-111443758D01*
X155492825Y-111474022D01*
X155492634Y-111475089D01*
X155459007Y-111597928D01*
X155405280Y-111706094D01*
X155332120Y-111799026D01*
X155240197Y-111876160D01*
X155130178Y-111936936D01*
X155002732Y-111980791D01*
X154858527Y-112007165D01*
X154845699Y-112008587D01*
X154660745Y-112017855D01*
X154487237Y-112004820D01*
X154325231Y-111969487D01*
X154267453Y-111950741D01*
X154185609Y-111915853D01*
X154114746Y-111872355D01*
X154046028Y-111815369D01*
X154007644Y-111777037D01*
X153952100Y-111705061D01*
X153910585Y-111623209D01*
X153878915Y-111524186D01*
X153875458Y-111510239D01*
X153870475Y-111487290D01*
X153866328Y-111462430D01*
X153862942Y-111433340D01*
X153860241Y-111397699D01*
X153858148Y-111353188D01*
X153856586Y-111297486D01*
X153855480Y-111228274D01*
X153854752Y-111143230D01*
X153854327Y-111040035D01*
X153854128Y-110916370D01*
X153854079Y-110769913D01*
X153854079Y-110112752D01*
X154330149Y-110112752D01*
X154333809Y-110775061D01*
G37*
G36*
X158637766Y-111136035D02*
G01*
X158631488Y-111142312D01*
X158625211Y-111136035D01*
X158631488Y-111129757D01*
X158637766Y-111136035D01*
G37*
G36*
X158288563Y-111133736D02*
G01*
X158294375Y-111138255D01*
X158280978Y-111141321D01*
X158268243Y-111140433D01*
X158264498Y-111134727D01*
X158268940Y-111132239D01*
X158288563Y-111133736D01*
G37*
G36*
X158286209Y-111211368D02*
G01*
X158279931Y-111217646D01*
X158273653Y-111211368D01*
X158279931Y-111205090D01*
X158286209Y-111211368D01*
G37*
G36*
X158153380Y-111130743D02*
G01*
X158154375Y-111142312D01*
X158151798Y-111146070D01*
X158141079Y-111154868D01*
X158139826Y-111154542D01*
X158135542Y-111142312D01*
X158136053Y-111138871D01*
X158148838Y-111129757D01*
X158153380Y-111130743D01*
G37*
G36*
X158339728Y-111131675D02*
G01*
X158342709Y-111142312D01*
X158340136Y-111146111D01*
X158330154Y-111154868D01*
X158328338Y-111154277D01*
X158317598Y-111142312D01*
X158316593Y-111135662D01*
X158330154Y-111129757D01*
X158339728Y-111131675D01*
G37*
G36*
X157952258Y-109400991D02*
G01*
X157976151Y-109430304D01*
X157983461Y-109459326D01*
X157967816Y-109483499D01*
X157963665Y-109486505D01*
X157945077Y-109488575D01*
X157918752Y-109472481D01*
X157900341Y-109459977D01*
X157858080Y-109446680D01*
X157820985Y-109456641D01*
X157792110Y-109489449D01*
X157790664Y-109492037D01*
X157763131Y-109526410D01*
X157729616Y-109551847D01*
X157706125Y-109561083D01*
X157652343Y-109566249D01*
X157600054Y-109553261D01*
X157556304Y-109524545D01*
X157528139Y-109482523D01*
X157514039Y-109445075D01*
X157432428Y-109453706D01*
X157391952Y-109458552D01*
X157359862Y-109463538D01*
X157345662Y-109467300D01*
X157347389Y-109476170D01*
X157361356Y-109495300D01*
X157374995Y-109513113D01*
X157380400Y-109537149D01*
X157362462Y-109552639D01*
X157339601Y-109554464D01*
X157305217Y-109537192D01*
X157270078Y-109498754D01*
X157263871Y-109489706D01*
X157246686Y-109453555D01*
X157250532Y-109425918D01*
X157275681Y-109402076D01*
X157288058Y-109395866D01*
X157307930Y-109390377D01*
X157337413Y-109386016D01*
X157379607Y-109382536D01*
X157437612Y-109379685D01*
X157514528Y-109377216D01*
X157613454Y-109374877D01*
X157919641Y-109368375D01*
X157952258Y-109400991D01*
G37*
G36*
X158725655Y-111161146D02*
G01*
X158719378Y-111167424D01*
X158713100Y-111161146D01*
X158719378Y-111154868D01*
X158725655Y-111161146D01*
G37*
G36*
X155360752Y-108656302D02*
G01*
X155360752Y-108480523D01*
X154661388Y-108480523D01*
X154653808Y-108678274D01*
X154652240Y-108713772D01*
X154647957Y-108783792D01*
X154642662Y-108845722D01*
X154636882Y-108893889D01*
X154631142Y-108922622D01*
X154607810Y-108974819D01*
X154558097Y-109035172D01*
X154489504Y-109079922D01*
X154403170Y-109108140D01*
X154393953Y-109109436D01*
X154357735Y-109111891D01*
X154301600Y-109113925D01*
X154229065Y-109115474D01*
X154143649Y-109116472D01*
X154048870Y-109116855D01*
X153948246Y-109116557D01*
X153915280Y-109116340D01*
X153801910Y-109115389D01*
X153709999Y-109113895D01*
X153636640Y-109111364D01*
X153578929Y-109107303D01*
X153533959Y-109101217D01*
X153498825Y-109092612D01*
X153470621Y-109080996D01*
X153446441Y-109065873D01*
X153423381Y-109046751D01*
X153398533Y-109023136D01*
X153372479Y-108992722D01*
X153346155Y-108946901D01*
X153323326Y-108886867D01*
X153302654Y-108808987D01*
X153282797Y-108709633D01*
X153279246Y-108689847D01*
X153269930Y-108638714D01*
X153262198Y-108597306D01*
X153257443Y-108573124D01*
X153256758Y-108569300D01*
X153258626Y-108555748D01*
X153271361Y-108543760D01*
X153299348Y-108530376D01*
X153346972Y-108512632D01*
X153360569Y-108507859D01*
X153402861Y-108493781D01*
X153433268Y-108484844D01*
X153445949Y-108482809D01*
X153448851Y-108494820D01*
X153454487Y-108526960D01*
X153461946Y-108574106D01*
X153470391Y-108631190D01*
X153484188Y-108713104D01*
X153503257Y-108789179D01*
X153526493Y-108845524D01*
X153555132Y-108885016D01*
X153590411Y-108910533D01*
X153590558Y-108910607D01*
X153606007Y-108917088D01*
X153625313Y-108922164D01*
X153651514Y-108925999D01*
X153687645Y-108928757D01*
X153736742Y-108930604D01*
X153801842Y-108931704D01*
X153885979Y-108932221D01*
X153992190Y-108932320D01*
X154058508Y-108932255D01*
X154157068Y-108931784D01*
X154234909Y-108930453D01*
X154294832Y-108927785D01*
X154339639Y-108923303D01*
X154372129Y-108916531D01*
X154395105Y-108906992D01*
X154411365Y-108894212D01*
X154423712Y-108877712D01*
X154434946Y-108857017D01*
X154443622Y-108836412D01*
X154450033Y-108809300D01*
X154453549Y-108772649D01*
X154454641Y-108721282D01*
X154453779Y-108650024D01*
X154450470Y-108486801D01*
X153995329Y-108483505D01*
X153540188Y-108480210D01*
X153540188Y-108304744D01*
X153741078Y-108304744D01*
X155360752Y-108304744D01*
X155360752Y-107890409D01*
X154657638Y-107890409D01*
X154657638Y-108304744D01*
X154456748Y-108304744D01*
X154456748Y-107890409D01*
X153741078Y-107890409D01*
X153741078Y-108304744D01*
X153540188Y-108304744D01*
X153540188Y-107714631D01*
X153741078Y-107714631D01*
X155360752Y-107714631D01*
X155360752Y-107287740D01*
X154657638Y-107287740D01*
X154657638Y-107714631D01*
X154457355Y-107714631D01*
X154453913Y-107504324D01*
X154450470Y-107294018D01*
X154095774Y-107290683D01*
X153741078Y-107287349D01*
X153741078Y-107714631D01*
X153540188Y-107714631D01*
X153540188Y-107111961D01*
X154456748Y-107111961D01*
X154456748Y-106798071D01*
X154657638Y-106798071D01*
X154657638Y-107111961D01*
X155561642Y-107111961D01*
X155561642Y-108656302D01*
X155360752Y-108656302D01*
G37*
G36*
X158759137Y-111058608D02*
G01*
X158761101Y-111062385D01*
X158750767Y-111066979D01*
X158744120Y-111066073D01*
X158742396Y-111058608D01*
X158744236Y-111057106D01*
X158759137Y-111058608D01*
G37*
G36*
X145520976Y-110536493D02*
G01*
X145633242Y-110543601D01*
X145731656Y-110560199D01*
X145823319Y-110587739D01*
X145915329Y-110627672D01*
X146001998Y-110677562D01*
X146099201Y-110756981D01*
X146176680Y-110851835D01*
X146234510Y-110962244D01*
X146272764Y-111088327D01*
X146291517Y-111230202D01*
X146293078Y-111321447D01*
X146278296Y-111460796D01*
X146242539Y-111586834D01*
X146186458Y-111698794D01*
X146110700Y-111795907D01*
X146015915Y-111877408D01*
X145902750Y-111942526D01*
X145771854Y-111990496D01*
X145623876Y-112020548D01*
X145517779Y-112028419D01*
X145390707Y-112024855D01*
X145262347Y-112009290D01*
X145140956Y-111982762D01*
X145034794Y-111946314D01*
X144977262Y-111921653D01*
X144977262Y-111732872D01*
X144977296Y-111680849D01*
X144977737Y-111623484D01*
X144979147Y-111584933D01*
X144982089Y-111561457D01*
X144987129Y-111549317D01*
X144994831Y-111544775D01*
X145005759Y-111544092D01*
X145007285Y-111544163D01*
X145032403Y-111552782D01*
X145068868Y-111572974D01*
X145109343Y-111600726D01*
X145120545Y-111608922D01*
X145205801Y-111657683D01*
X145298587Y-111690358D01*
X145394492Y-111706881D01*
X145489104Y-111707182D01*
X145578013Y-111691196D01*
X145656807Y-111658855D01*
X145721074Y-111610090D01*
X145726011Y-111604968D01*
X145766409Y-111556496D01*
X145794666Y-111506079D01*
X145812600Y-111448046D01*
X145822027Y-111376723D01*
X145824766Y-111286438D01*
X145824622Y-111237973D01*
X145823360Y-111186909D01*
X145819788Y-111149444D01*
X145812725Y-111118860D01*
X145800988Y-111088441D01*
X145783393Y-111051467D01*
X145751191Y-110995213D01*
X145695866Y-110930989D01*
X145628551Y-110886963D01*
X145546715Y-110861642D01*
X145447826Y-110853533D01*
X145386034Y-110857858D01*
X145295428Y-110877489D01*
X145207989Y-110910362D01*
X145130889Y-110953605D01*
X145071299Y-111004344D01*
X145047891Y-111020635D01*
X145012983Y-111029312D01*
X144977262Y-111029312D01*
X144977262Y-110641892D01*
X145049457Y-110614716D01*
X145086327Y-110601181D01*
X145183301Y-110570156D01*
X145272455Y-110550195D01*
X145363696Y-110539430D01*
X145466931Y-110535992D01*
X145520976Y-110536493D01*
G37*
%TO.C,JP2*%
X149560000Y-99640000D02*
X148960000Y-99640000D01*
X148960000Y-102440000D02*
X149560000Y-102440000D01*
X148260000Y-100340000D02*
X148260000Y-101740000D01*
X150260000Y-101740000D02*
X150260000Y-100340000D01*
X148260000Y-101740000D02*
G75*
G03*
X148960000Y-102440000I700000J0D01*
G01*
X149560000Y-102440000D02*
G75*
G03*
X150260000Y-101740000I0J700000D01*
G01*
X148960000Y-99640000D02*
G75*
G03*
X148260000Y-100340000I-1J-699999D01*
G01*
X150260000Y-100340000D02*
G75*
G03*
X149560000Y-99640000I-699999J1D01*
G01*
%TD*%
%LPC*%
D14*
%TO.C,HOLE1*%
X136370000Y-100920000D03*
%TD*%
D15*
%TO.C,HOLE4*%
X167420000Y-117490000D03*
%TD*%
D16*
%TO.C,J1*%
X137647500Y-113980000D03*
D17*
X135107500Y-113980000D03*
X137647500Y-111440000D03*
X135107500Y-111440000D03*
X137647500Y-108900000D03*
X135107500Y-108900000D03*
X137647500Y-106360000D03*
X135107500Y-106360000D03*
X137647500Y-103820000D03*
X135107500Y-103820000D03*
%TD*%
D18*
%TO.C,USB1*%
X163165000Y-106240000D03*
X163165000Y-112020000D03*
D19*
X162665000Y-113455000D03*
X162665000Y-104805000D03*
D20*
X166865000Y-113455000D03*
X166865000Y-104805000D03*
%TD*%
D14*
%TO.C,HOLE2*%
X136160000Y-116880000D03*
%TD*%
D15*
%TO.C,HOLE3*%
X167420000Y-100270000D03*
%TD*%
D21*
%TO.C,JP1*%
X152870000Y-100420000D03*
D22*
X152870000Y-101720000D03*
%TD*%
D21*
%TO.C,JP2*%
X149260000Y-100390000D03*
D22*
X149260000Y-101690000D03*
%TD*%
M02*
