%TF.GenerationSoftware,KiCad,Pcbnew,7.0.5*%
%TF.CreationDate,2023-07-03T12:06:52+08:00*%
%TF.ProjectId,UINIO-Logic-24MHz,55494e49-4f2d-44c6-9f67-69632d32344d,Version 3.1.0*%
%TF.SameCoordinates,PX9259d20PY589b1b0*%
%TF.FileFunction,Soldermask,Top*%
%TF.FilePolarity,Negative*%
%FSLAX46Y46*%
G04 Gerber Fmt 4.6, Leading zero omitted, Abs format (unit mm)*
G04 Created by KiCad (PCBNEW 7.0.5) date 2023-07-03 12:06:52*
%MOMM*%
%LPD*%
G01*
G04 APERTURE LIST*
G04 Aperture macros list*
%AMRoundRect*
0 Rectangle with rounded corners*
0 $1 Rounding radius*
0 $2 $3 $4 $5 $6 $7 $8 $9 X,Y pos of 4 corners*
0 Add a 4 corners polygon primitive as box body*
4,1,4,$2,$3,$4,$5,$6,$7,$8,$9,$2,$3,0*
0 Add four circle primitives for the rounded corners*
1,1,$1+$1,$2,$3*
1,1,$1+$1,$4,$5*
1,1,$1+$1,$6,$7*
1,1,$1+$1,$8,$9*
0 Add four rect primitives between the rounded corners*
20,1,$1+$1,$2,$3,$4,$5,0*
20,1,$1+$1,$4,$5,$6,$7,0*
20,1,$1+$1,$6,$7,$8,$9,0*
20,1,$1+$1,$8,$9,$2,$3,0*%
%AMFreePoly0*
4,1,17,0.300000,0.502500,0.435000,0.367500,0.500000,0.367500,0.500000,-0.367500,0.435000,-0.367500,0.300000,-0.502500,0.300000,-0.587500,-0.300000,-0.587500,-0.300000,-0.502500,-0.435000,-0.367500,-0.750000,-0.367500,-0.750000,0.367500,-0.435000,0.367500,-0.300000,0.502500,-0.300000,0.837549,0.300000,0.837549,0.300000,0.502500,0.300000,0.502500,$1*%
%AMFreePoly1*
4,1,17,0.300000,0.502500,0.435000,0.367500,0.500000,0.367500,0.500000,-0.367500,0.435000,-0.367500,0.300000,-0.502500,0.300000,-0.587500,-0.300000,-0.587500,-0.300000,-0.502500,-0.435000,-0.367500,-0.750000,-0.367500,-0.750000,0.367500,-0.435000,0.367500,-0.300000,0.502500,-0.300000,0.587500,0.300000,0.587500,0.300000,0.502500,0.300000,0.502500,$1*%
%AMFreePoly2*
4,1,17,0.300000,0.502500,0.435000,0.367500,0.500000,0.367500,0.500000,-0.367500,0.435000,-0.367500,0.300000,-0.502500,0.300000,-0.837549,-0.300000,-0.837549,-0.300000,-0.502500,-0.435000,-0.367500,-0.750000,-0.367500,-0.750000,0.367500,-0.435000,0.367500,-0.300000,0.502500,-0.300000,0.587500,0.300000,0.587500,0.300000,0.502500,0.300000,0.502500,$1*%
%AMFreePoly3*
4,1,17,0.300000,0.502500,0.435000,0.367500,0.500000,0.367500,0.500000,-0.367500,0.435000,-0.367500,0.300000,-0.502500,0.300000,-0.587500,-0.300000,-0.587500,-0.300000,-0.502500,-0.435000,-0.367500,-0.500000,-0.367500,-0.500000,0.367500,-0.435000,0.367500,-0.300000,0.502500,-0.300000,0.837549,0.300000,0.837549,0.300000,0.502500,0.300000,0.502500,$1*%
%AMFreePoly4*
4,1,17,0.300000,0.502500,0.435000,0.367500,0.500000,0.367500,0.500000,-0.367500,0.435000,-0.367500,0.300000,-0.502500,0.300000,-0.587500,-0.300000,-0.587500,-0.300000,-0.502500,-0.435000,-0.367500,-0.500000,-0.367500,-0.500000,0.367500,-0.435000,0.367500,-0.300000,0.502500,-0.300000,0.587500,0.300000,0.587500,0.300000,0.502500,0.300000,0.502500,$1*%
%AMFreePoly5*
4,1,17,0.300000,0.502500,0.435000,0.367500,0.500000,0.367500,0.500000,-0.367500,0.435000,-0.367500,0.300000,-0.502500,0.300000,-0.837549,-0.300000,-0.837549,-0.300000,-0.502500,-0.435000,-0.367500,-0.500000,-0.367500,-0.500000,0.367500,-0.435000,0.367500,-0.300000,0.502500,-0.300000,0.587500,0.300000,0.587500,0.300000,0.502500,0.300000,0.502500,$1*%
%AMFreePoly6*
4,1,17,0.300000,0.502500,0.435000,0.367500,0.750000,0.367500,0.750000,-0.367500,0.435000,-0.367500,0.300000,-0.502500,0.300000,-0.587500,-0.300000,-0.587500,-0.300000,-0.502500,-0.435000,-0.367500,-0.500000,-0.367500,-0.500000,0.367500,-0.435000,0.367500,-0.300000,0.502500,-0.300000,0.837549,0.300000,0.837549,0.300000,0.502500,0.300000,0.502500,$1*%
%AMFreePoly7*
4,1,17,0.300000,0.502500,0.435000,0.367500,0.750000,0.367500,0.750000,-0.367500,0.435000,-0.367500,0.300000,-0.502500,0.300000,-0.587500,-0.300000,-0.587500,-0.300000,-0.502500,-0.435000,-0.367500,-0.500000,-0.367500,-0.500000,0.367500,-0.435000,0.367500,-0.300000,0.502500,-0.300000,0.587500,0.300000,0.587500,0.300000,0.502500,0.300000,0.502500,$1*%
%AMFreePoly8*
4,1,17,0.300000,0.502500,0.435000,0.367500,0.750000,0.367500,0.750000,-0.367500,0.435000,-0.367500,0.300000,-0.502500,0.300000,-0.837549,-0.300000,-0.837549,-0.300000,-0.502500,-0.435000,-0.367500,-0.500000,-0.367500,-0.500000,0.367500,-0.435000,0.367500,-0.300000,0.502500,-0.300000,0.587500,0.300000,0.587500,0.300000,0.502500,0.300000,0.502500,$1*%
G04 Aperture macros list end*
%ADD10C,2.200000*%
%ADD11RoundRect,0.100000X-0.637500X-0.100000X0.637500X-0.100000X0.637500X0.100000X-0.637500X0.100000X0*%
%ADD12RoundRect,0.140000X-0.170000X0.140000X-0.170000X-0.140000X0.170000X-0.140000X0.170000X0.140000X0*%
%ADD13RoundRect,0.135000X-0.185000X0.135000X-0.185000X-0.135000X0.185000X-0.135000X0.185000X0.135000X0*%
%ADD14RoundRect,0.140000X0.140000X0.170000X-0.140000X0.170000X-0.140000X-0.170000X0.140000X-0.170000X0*%
%ADD15RoundRect,0.135000X0.185000X-0.135000X0.185000X0.135000X-0.185000X0.135000X-0.185000X-0.135000X0*%
%ADD16FreePoly0,270.000000*%
%ADD17FreePoly1,270.000000*%
%ADD18FreePoly2,270.000000*%
%ADD19FreePoly3,270.000000*%
%ADD20FreePoly4,270.000000*%
%ADD21FreePoly5,270.000000*%
%ADD22FreePoly6,270.000000*%
%ADD23FreePoly7,270.000000*%
%ADD24FreePoly8,270.000000*%
%ADD25RoundRect,0.062500X-0.062500X0.375000X-0.062500X-0.375000X0.062500X-0.375000X0.062500X0.375000X0*%
%ADD26RoundRect,0.062500X-0.375000X0.062500X-0.375000X-0.062500X0.375000X-0.062500X0.375000X0.062500X0*%
%ADD27C,0.650000*%
%ADD28O,2.100000X1.000000*%
%ADD29O,1.900000X1.000000*%
%ADD30R,1.150000X0.600000*%
%ADD31R,1.150000X0.300000*%
%ADD32RoundRect,0.218750X-0.256250X0.218750X-0.256250X-0.218750X0.256250X-0.218750X0.256250X0.218750X0*%
%ADD33RoundRect,0.135000X0.135000X0.185000X-0.135000X0.185000X-0.135000X-0.185000X0.135000X-0.185000X0*%
%ADD34R,1.200000X1.400000*%
%ADD35RoundRect,0.140000X0.170000X-0.140000X0.170000X0.140000X-0.170000X0.140000X-0.170000X-0.140000X0*%
%ADD36RoundRect,0.135000X-0.135000X-0.185000X0.135000X-0.185000X0.135000X0.185000X-0.135000X0.185000X0*%
%ADD37O,1.742000X0.364000*%
%ADD38R,1.700000X1.700000*%
%ADD39O,1.700000X1.700000*%
%ADD40R,1.000000X0.600000*%
G04 APERTURE END LIST*
D10*
%TO.C,HOLE2*%
X-17735000Y-22705000D03*
%TD*%
D11*
%TO.C,U1*%
X-6437500Y-2640000D03*
X-6437500Y-3290000D03*
X-6437500Y-3940000D03*
X-6437500Y-4590000D03*
X-712500Y-4590000D03*
X-712500Y-3940000D03*
X-712500Y-3290000D03*
X-712500Y-2640000D03*
%TD*%
D12*
%TO.C,C1*%
X11565000Y-3785000D03*
X11565000Y-4745000D03*
%TD*%
D10*
%TO.C,HOLE4*%
X19945000Y-22705000D03*
%TD*%
D13*
%TO.C,R16*%
X-13925000Y-2385000D03*
X-13925000Y-3405000D03*
%TD*%
%TO.C,R20*%
X10105000Y-15235000D03*
X10105000Y-16255000D03*
%TD*%
D14*
%TO.C,C5*%
X-2915000Y-15525000D03*
X-3875000Y-15525000D03*
%TD*%
D13*
%TO.C,R24*%
X16505000Y-22015000D03*
X16505000Y-23035000D03*
%TD*%
D15*
%TO.C,R11*%
X-10860716Y-23055000D03*
X-10860716Y-22035000D03*
%TD*%
D16*
%TO.C,U4*%
X5567500Y-11275000D03*
D17*
X4392500Y-11275000D03*
X3217500Y-11275000D03*
D18*
X2042500Y-11275000D03*
D19*
X5567500Y-12275000D03*
D20*
X4392500Y-12275000D03*
X3217500Y-12275000D03*
D21*
X2042500Y-12275000D03*
D19*
X5567500Y-13275000D03*
D20*
X4392500Y-13275000D03*
X3217500Y-13275000D03*
D21*
X2042500Y-13275000D03*
D22*
X5567500Y-14275000D03*
D23*
X4392500Y-14275000D03*
X3217500Y-14275000D03*
D24*
X2042500Y-14275000D03*
D25*
X7055000Y-8837500D03*
X6555000Y-8837500D03*
X6055000Y-8837500D03*
X5555000Y-8837500D03*
X5055000Y-8837500D03*
X4555000Y-8837500D03*
X4055000Y-8837500D03*
X3555000Y-8837500D03*
X3055000Y-8837500D03*
X2555000Y-8837500D03*
X2055000Y-8837500D03*
X1555000Y-8837500D03*
X1055000Y-8837500D03*
X555000Y-8837500D03*
D26*
X-132500Y-9525000D03*
X-132500Y-10025000D03*
X-132500Y-10525000D03*
X-132500Y-11025000D03*
X-132500Y-11525000D03*
X-132500Y-12025000D03*
X-132500Y-12525000D03*
X-132500Y-13025000D03*
X-132500Y-13525000D03*
X-132500Y-14025000D03*
X-132500Y-14525000D03*
X-132500Y-15025000D03*
X-132500Y-15525000D03*
X-132500Y-16025000D03*
D25*
X555000Y-16712500D03*
X1055000Y-16712500D03*
X1555000Y-16712500D03*
X2055000Y-16712500D03*
X2555000Y-16712500D03*
X3055000Y-16712500D03*
X3555000Y-16712500D03*
X4055000Y-16712500D03*
X4555000Y-16712500D03*
X5055000Y-16712500D03*
X5555000Y-16712500D03*
X6055000Y-16712500D03*
X6555000Y-16712500D03*
X7055000Y-16712500D03*
D26*
X7742500Y-16025000D03*
X7742500Y-15525000D03*
X7742500Y-15025000D03*
X7742500Y-14525000D03*
X7742500Y-14025000D03*
X7742500Y-13525000D03*
X7742500Y-13025000D03*
X7742500Y-12525000D03*
X7742500Y-12025000D03*
X7742500Y-11525000D03*
X7742500Y-11025000D03*
X7742500Y-10525000D03*
X7742500Y-10025000D03*
X7742500Y-9525000D03*
%TD*%
D15*
%TO.C,R19*%
X1225000Y-22775000D03*
X1225000Y-21755000D03*
%TD*%
D27*
%TO.C,USB1*%
X17166000Y-15660000D03*
X17166000Y-9880000D03*
D28*
X16666000Y-17095000D03*
X16666000Y-8445000D03*
D29*
X20866000Y-17095000D03*
X20866000Y-8445000D03*
D30*
X15904000Y-15970000D03*
X15904000Y-15170000D03*
D31*
X15904000Y-14020000D03*
X15904000Y-13020000D03*
X15904000Y-12520000D03*
X15904000Y-11520000D03*
D30*
X15904000Y-9570000D03*
X15904000Y-10370000D03*
D31*
X15904000Y-11020000D03*
X15904000Y-12020000D03*
X15904000Y-13520000D03*
X15904000Y-14520000D03*
%TD*%
D12*
%TO.C,C2*%
X6235000Y-3785000D03*
X6235000Y-4745000D03*
%TD*%
D32*
%TO.C,D1*%
X16215000Y-2897500D03*
X16215000Y-4472500D03*
%TD*%
D33*
%TO.C,R3*%
X-17475000Y-10520714D03*
X-18495000Y-10520714D03*
%TD*%
D32*
%TO.C,D3*%
X2850000Y-21157500D03*
X2850000Y-22732500D03*
%TD*%
%TO.C,D2*%
X-4015000Y-21157500D03*
X-4015000Y-22732500D03*
%TD*%
D14*
%TO.C,C4*%
X-2915000Y-17455000D03*
X-3875000Y-17455000D03*
%TD*%
D33*
%TO.C,R8*%
X-17475000Y-17935000D03*
X-18495000Y-17935000D03*
%TD*%
D15*
%TO.C,R18*%
X-2475000Y-22775000D03*
X-2475000Y-21755000D03*
%TD*%
D33*
%TO.C,R5*%
X-17475000Y-13486428D03*
X-18495000Y-13486428D03*
%TD*%
%TO.C,R4*%
X-17475000Y-12003571D03*
X-18495000Y-12003571D03*
%TD*%
D13*
%TO.C,R13*%
X-9328568Y-2385000D03*
X-9328568Y-3405000D03*
%TD*%
D34*
%TO.C,Y1*%
X13165000Y-22445000D03*
X13165000Y-20245000D03*
X11465000Y-20245000D03*
X11465000Y-22445000D03*
%TD*%
D12*
%TO.C,C10*%
X8135000Y-22055000D03*
X8135000Y-23015000D03*
%TD*%
D15*
%TO.C,R17*%
X14645000Y-2595000D03*
X14645000Y-3615000D03*
%TD*%
D33*
%TO.C,R2*%
X-17475000Y-9037857D03*
X-18495000Y-9037857D03*
%TD*%
D35*
%TO.C,C3*%
X2055000Y-4735000D03*
X2055000Y-3775000D03*
%TD*%
D12*
%TO.C,C9*%
X14895000Y-22055000D03*
X14895000Y-23015000D03*
%TD*%
D10*
%TO.C,HOLE3*%
X19945000Y-2705000D03*
%TD*%
D15*
%TO.C,R9*%
X-13925000Y-23055000D03*
X-13925000Y-22035000D03*
%TD*%
D33*
%TO.C,R1*%
X-17475000Y-7555000D03*
X-18495000Y-7555000D03*
%TD*%
D36*
%TO.C,R22*%
X-1245000Y-6375000D03*
X-225000Y-6375000D03*
%TD*%
D33*
%TO.C,R7*%
X-17475000Y-16452142D03*
X-18495000Y-16452142D03*
%TD*%
D12*
%TO.C,C7*%
X10105000Y-11175000D03*
X10105000Y-12135000D03*
%TD*%
D36*
%TO.C,R21*%
X-3265000Y-6375000D03*
X-2245000Y-6375000D03*
%TD*%
D14*
%TO.C,C6*%
X-2905000Y-10515000D03*
X-3865000Y-10515000D03*
%TD*%
D37*
%TO.C,U2*%
X-6874000Y-15700000D03*
X-6874000Y-15050000D03*
X-6874000Y-14400000D03*
X-6874000Y-13750000D03*
X-6874000Y-13100000D03*
X-6874000Y-12450000D03*
X-6874000Y-11800000D03*
X-6874000Y-11150000D03*
X-6874000Y-10500000D03*
X-6874000Y-9850000D03*
X-12616000Y-9850000D03*
X-12616000Y-10500000D03*
X-12616000Y-11150000D03*
X-12616000Y-11800000D03*
X-12616000Y-12450000D03*
X-12616000Y-13100000D03*
X-12616000Y-13750000D03*
X-12616000Y-14400000D03*
X-12616000Y-15050000D03*
X-12616000Y-15700000D03*
%TD*%
D13*
%TO.C,R15*%
X-12392852Y-2385000D03*
X-12392852Y-3405000D03*
%TD*%
D38*
%TO.C,J1*%
X-24640000Y-24200000D03*
D39*
X-24640000Y-21660000D03*
X-24640000Y-19120000D03*
X-24640000Y-16580000D03*
X-24640000Y-14040000D03*
X-24640000Y-11500000D03*
X-24640000Y-8960000D03*
X-24640000Y-6420000D03*
X-24640000Y-3880000D03*
X-24640000Y-1340000D03*
%TD*%
D15*
%TO.C,R12*%
X-9328574Y-23055000D03*
X-9328574Y-22035000D03*
%TD*%
%TO.C,R10*%
X-12392858Y-23055000D03*
X-12392858Y-22035000D03*
%TD*%
D13*
%TO.C,R14*%
X-10860710Y-2385000D03*
X-10860710Y-3405000D03*
%TD*%
D15*
%TO.C,R25*%
X13425000Y-3615000D03*
X13425000Y-2595000D03*
%TD*%
%TO.C,R23*%
X6845000Y-23025000D03*
X6845000Y-22005000D03*
%TD*%
D10*
%TO.C,HOLE1*%
X-17735000Y-2705000D03*
%TD*%
D35*
%TO.C,C8*%
X9755000Y-23005000D03*
X9755000Y-22045000D03*
%TD*%
D40*
%TO.C,U3*%
X10200000Y-4757000D03*
X10200000Y-3807000D03*
X10200000Y-2857000D03*
X7600000Y-2857000D03*
X7600000Y-4757000D03*
%TD*%
D33*
%TO.C,R6*%
X-17475000Y-14969285D03*
X-18495000Y-14969285D03*
%TD*%
M02*
