%TF.GenerationSoftware,KiCad,Pcbnew,8.0.6*%
%TF.CreationDate,2024-11-28T18:21:41+08:00*%
%TF.ProjectId,UINIO-Logic-24MHz,55494e49-4f2d-44c6-9f67-69632d32344d,Version 5.0.0*%
%TF.SameCoordinates,PX78f6cc0PY58928f8*%
%TF.FileFunction,Copper,L2,Bot*%
%TF.FilePolarity,Positive*%
%FSLAX46Y46*%
G04 Gerber Fmt 4.6, Leading zero omitted, Abs format (unit mm)*
G04 Created by KiCad (PCBNEW 8.0.6) date 2024-11-28 18:21:41*
%MOMM*%
%LPD*%
G01*
G04 APERTURE LIST*
G04 Aperture macros list*
%AMRoundRect*
0 Rectangle with rounded corners*
0 $1 Rounding radius*
0 $2 $3 $4 $5 $6 $7 $8 $9 X,Y pos of 4 corners*
0 Add a 4 corners polygon primitive as box body*
4,1,4,$2,$3,$4,$5,$6,$7,$8,$9,$2,$3,0*
0 Add four circle primitives for the rounded corners*
1,1,$1+$1,$2,$3*
1,1,$1+$1,$4,$5*
1,1,$1+$1,$6,$7*
1,1,$1+$1,$8,$9*
0 Add four rect primitives between the rounded corners*
20,1,$1+$1,$2,$3,$4,$5,0*
20,1,$1+$1,$4,$5,$6,$7,0*
20,1,$1+$1,$6,$7,$8,$9,0*
20,1,$1+$1,$8,$9,$2,$3,0*%
G04 Aperture macros list end*
%TA.AperFunction,ComponentPad*%
%ADD10C,0.500000*%
%TD*%
%TA.AperFunction,SMDPad,CuDef*%
%ADD11RoundRect,0.250002X2.349998X-1.999998X2.349998X1.999998X-2.349998X1.999998X-2.349998X-1.999998X0*%
%TD*%
%TA.AperFunction,ComponentPad*%
%ADD12O,2.100000X1.000000*%
%TD*%
%TA.AperFunction,ComponentPad*%
%ADD13O,1.900000X1.000000*%
%TD*%
%TA.AperFunction,ComponentPad*%
%ADD14O,1.700000X1.700000*%
%TD*%
%TA.AperFunction,ViaPad*%
%ADD15C,0.500000*%
%TD*%
%TA.AperFunction,ViaPad*%
%ADD16C,0.700000*%
%TD*%
%TA.AperFunction,Conductor*%
%ADD17C,0.500000*%
%TD*%
%TA.AperFunction,Conductor*%
%ADD18C,0.300000*%
%TD*%
%TA.AperFunction,Conductor*%
%ADD19C,0.200000*%
%TD*%
G04 APERTURE END LIST*
D10*
%TO.P,U4,57,EP*%
%TO.N,GND*%
X16120000Y-14700000D03*
X17295000Y-14700000D03*
X18470000Y-14700000D03*
X19645000Y-14700000D03*
X20820000Y-14700000D03*
X16120000Y-13700000D03*
X17295000Y-13700000D03*
X18470000Y-13700000D03*
X19645000Y-13700000D03*
X20820000Y-13700000D03*
X16120000Y-12700000D03*
X17295000Y-12700000D03*
X18470000Y-12700000D03*
D11*
X18470000Y-12700000D03*
D10*
X19645000Y-12700000D03*
X20820000Y-12700000D03*
X16120000Y-11700000D03*
X17295000Y-11700000D03*
X18470000Y-11700000D03*
X19645000Y-11700000D03*
X20820000Y-11700000D03*
X16120000Y-10700000D03*
X17295000Y-10700000D03*
X18470000Y-10700000D03*
X19645000Y-10700000D03*
X20820000Y-10700000D03*
%TD*%
D12*
%TO.P,USB1,13,GND*%
%TO.N,GND*%
X2877000Y-8375000D03*
%TO.P,USB1,14,GND*%
X2877000Y-17025000D03*
D13*
%TO.P,USB1,15,GND*%
X-1323000Y-8375000D03*
%TO.P,USB1,16,GND*%
X-1323000Y-17025000D03*
%TD*%
D14*
%TO.P,J1,1,Pin_1*%
%TO.N,GND*%
X47400000Y-1270000D03*
%TO.P,J1,2,Pin_2*%
%TO.N,Net-(J1-Pin_2)*%
X47400000Y-3810000D03*
%TO.P,J1,3,Pin_3*%
%TO.N,Net-(J1-Pin_3)*%
X47400000Y-6350000D03*
%TO.P,J1,4,Pin_4*%
%TO.N,Net-(J1-Pin_4)*%
X47400000Y-8890000D03*
%TO.P,J1,5,Pin_5*%
%TO.N,Net-(J1-Pin_5)*%
X47400000Y-11430000D03*
%TO.P,J1,6,Pin_6*%
%TO.N,Net-(J1-Pin_6)*%
X47400000Y-13970000D03*
%TO.P,J1,7,Pin_7*%
%TO.N,Net-(J1-Pin_7)*%
X47400000Y-16510000D03*
%TO.P,J1,8,Pin_8*%
%TO.N,Net-(J1-Pin_8)*%
X47400000Y-19050000D03*
%TO.P,J1,9,Pin_9*%
%TO.N,Net-(J1-Pin_9)*%
X47400000Y-21590000D03*
%TO.P,J1,10,Pin_10*%
%TO.N,GND*%
X47400000Y-24130000D03*
%TD*%
D15*
%TO.N,GND*%
X42360000Y-12680000D03*
X10720000Y-7080000D03*
X11640000Y-19370000D03*
X9160000Y-1250000D03*
X42360000Y-14160000D03*
X9170000Y-7080000D03*
X13820000Y-5136664D03*
X10720000Y-8103336D03*
X9945000Y-7080000D03*
X9170000Y-6108330D03*
X9860000Y-10152498D03*
X9860000Y-8104166D03*
X10720000Y-19369170D03*
X19510000Y-20360000D03*
X9860000Y-12200830D03*
X13820000Y-4164998D03*
X42360000Y-15660000D03*
X9160000Y-2221666D03*
X42360000Y-9690000D03*
X24100000Y-15525000D03*
X9170000Y-5136664D03*
X10720000Y-18344996D03*
X13810000Y-1250000D03*
X8710000Y-16090000D03*
X9860000Y-11176664D03*
X10720000Y-10151668D03*
X15640000Y-19370000D03*
X10720000Y-12200000D03*
X12640000Y-19370000D03*
X10720000Y-17320830D03*
X42360000Y-11180000D03*
X13820000Y-7080000D03*
X9170000Y-3193332D03*
X10090000Y-1250000D03*
X9860000Y-9128332D03*
X42360000Y-8250000D03*
X13820000Y-3193332D03*
X11950000Y-1250000D03*
X10720000Y-13224166D03*
X12270000Y-7080000D03*
X10720000Y-9127502D03*
X13810000Y-2221666D03*
X12560000Y-17260000D03*
X14640000Y-19370000D03*
X10720000Y-15272498D03*
X9170000Y-4164998D03*
X42360000Y-17150000D03*
X13045000Y-7080000D03*
X11020000Y-1250000D03*
X10720000Y-14248332D03*
X12880000Y-1250000D03*
X16640000Y-19370000D03*
X10720000Y-11175834D03*
X8710000Y-15300000D03*
D16*
X17180000Y-23350000D03*
D15*
X13820000Y-6108330D03*
X10720000Y-16296664D03*
X8710000Y-14510000D03*
X13640000Y-19370000D03*
D16*
%TO.N,+5V*%
X9610000Y-23350000D03*
X8620000Y-23350000D03*
X7630000Y-23350000D03*
X4900000Y-10295000D03*
X4900000Y-15105000D03*
%TO.N,+3.3V*%
X34670000Y-23525000D03*
X16790000Y-1845000D03*
X12580000Y-8660000D03*
D15*
X18210000Y-19385000D03*
D16*
X25980000Y-16145000D03*
X24990000Y-9105000D03*
X22480000Y-21255000D03*
X24815000Y-23505000D03*
X24980000Y-7345000D03*
X12570000Y-16370000D03*
X24815000Y-22595000D03*
X34670000Y-1845000D03*
D15*
%TO.N,/USB_Data+*%
X2800000Y-12455000D03*
X2800000Y-13455000D03*
%TO.N,/INPUT1*%
X36970000Y-3545000D03*
X37410000Y-10925000D03*
%TO.N,/INPUT2*%
X35430000Y-3545000D03*
X37410000Y-11580000D03*
%TO.N,/INPUT3*%
X37410000Y-12230000D03*
X33900000Y-3545000D03*
%TO.N,/INPUT4*%
X37410000Y-12880000D03*
X32370000Y-3545000D03*
%TO.N,/INPUT5*%
X32360000Y-21845000D03*
X37410000Y-13530000D03*
%TO.N,/INPUT6*%
X37410000Y-14187143D03*
X33890000Y-21845000D03*
%TO.N,/INPUT7*%
X35430000Y-21845000D03*
X37410000Y-14830000D03*
%TO.N,/INPUT8*%
X37410000Y-15480000D03*
X36970000Y-21845000D03*
%TD*%
D17*
%TO.N,+3.3V*%
X25980000Y-21235000D02*
X25980000Y-16145000D01*
X24990000Y-1835000D02*
X34660000Y-1835000D01*
X22400000Y-19385000D02*
X22480000Y-19305000D01*
X22480000Y-19305000D02*
X22480000Y-21255000D01*
X25960000Y-21255000D02*
X25980000Y-21235000D01*
X16800000Y-1835000D02*
X24990000Y-1835000D01*
X12570000Y-16370000D02*
X12589239Y-16370000D01*
X13749239Y-17530000D02*
X21330000Y-17530000D01*
X22480000Y-21255000D02*
X25960000Y-21255000D01*
X12580000Y-8660000D02*
X12570000Y-8670000D01*
X12589239Y-16370000D02*
X13749239Y-17530000D01*
X16790000Y-1845000D02*
X16790000Y-6020000D01*
X24980000Y-7345000D02*
X24990000Y-7335000D01*
X16790000Y-6020000D02*
X14150000Y-8660000D01*
X18210000Y-19385000D02*
X22400000Y-19385000D01*
X24980000Y-7345000D02*
X24990000Y-7355000D01*
X21330000Y-17530000D02*
X22480000Y-18680000D01*
D18*
X34650000Y-23505000D02*
X34670000Y-23525000D01*
D17*
X12570000Y-8670000D02*
X12570000Y-16370000D01*
D18*
X24815000Y-23505000D02*
X34650000Y-23505000D01*
D17*
X22480000Y-18680000D02*
X22480000Y-19305000D01*
X24990000Y-7335000D02*
X24990000Y-1835000D01*
X24990000Y-7355000D02*
X24990000Y-9105000D01*
X34660000Y-1835000D02*
X34670000Y-1845000D01*
X14150000Y-8660000D02*
X12580000Y-8660000D01*
X16790000Y-1845000D02*
X16800000Y-1835000D01*
D19*
%TO.N,/USB_Data+*%
X2800000Y-12455000D02*
X2800000Y-13455000D01*
%TO.N,/INPUT1*%
X36970000Y-10485000D02*
X36970000Y-3545000D01*
X37410000Y-10925000D02*
X36970000Y-10485000D01*
%TO.N,/INPUT2*%
X35430000Y-9655000D02*
X35430000Y-3545000D01*
X37437858Y-11580000D02*
X37355000Y-11580000D01*
X37355000Y-11580000D02*
X35430000Y-9655000D01*
%TO.N,/INPUT3*%
X37405000Y-12230000D02*
X37410000Y-12230000D01*
X33900000Y-3545000D02*
X33900000Y-8725000D01*
X33900000Y-8725000D02*
X37405000Y-12230000D01*
%TO.N,/INPUT4*%
X32370000Y-7845000D02*
X37405000Y-12880000D01*
X32370000Y-3545000D02*
X32370000Y-7845000D01*
%TO.N,/INPUT5*%
X32360000Y-21845000D02*
X32360000Y-18573500D01*
X32360000Y-18573500D02*
X37403500Y-13530000D01*
%TO.N,/INPUT6*%
X33890000Y-21845000D02*
X33890000Y-17700643D01*
X33890000Y-17700643D02*
X37403500Y-14187143D01*
%TO.N,/INPUT7*%
X35430000Y-16803500D02*
X37403500Y-14830000D01*
X35430000Y-21845000D02*
X35430000Y-16803500D01*
%TO.N,/INPUT8*%
X37403500Y-15480000D02*
X36970000Y-15913500D01*
X36970000Y-15913500D02*
X36970000Y-21845000D01*
%TD*%
%TA.AperFunction,Conductor*%
%TO.N,GND*%
G36*
X47004418Y-250816D02*
G01*
X47240140Y-267674D01*
X47257641Y-270191D01*
X47484229Y-319482D01*
X47501188Y-324461D01*
X47638672Y-375740D01*
X47718462Y-405501D01*
X47734555Y-412851D01*
X47938068Y-523977D01*
X47952951Y-533542D01*
X48138579Y-672501D01*
X48151950Y-684087D01*
X48315912Y-848049D01*
X48327498Y-861420D01*
X48466457Y-1047048D01*
X48476022Y-1061931D01*
X48587148Y-1265444D01*
X48594498Y-1281537D01*
X48675535Y-1498803D01*
X48680519Y-1515779D01*
X48729807Y-1742352D01*
X48732325Y-1759864D01*
X48749184Y-1995581D01*
X48749500Y-2004427D01*
X48749500Y-3764175D01*
X48735943Y-3810343D01*
X48747193Y-3832016D01*
X48749500Y-3855824D01*
X48749500Y-6304175D01*
X48735943Y-6350343D01*
X48747193Y-6372016D01*
X48749500Y-6395824D01*
X48749500Y-8844175D01*
X48735943Y-8890343D01*
X48747193Y-8912016D01*
X48749500Y-8935824D01*
X48749500Y-11384175D01*
X48735943Y-11430343D01*
X48747193Y-11452016D01*
X48749500Y-11475824D01*
X48749500Y-13924175D01*
X48735943Y-13970343D01*
X48747193Y-13992016D01*
X48749500Y-14015824D01*
X48749500Y-16464175D01*
X48735943Y-16510343D01*
X48747193Y-16532016D01*
X48749500Y-16555824D01*
X48749500Y-19004175D01*
X48735943Y-19050343D01*
X48747193Y-19072016D01*
X48749500Y-19095824D01*
X48749500Y-21544175D01*
X48735943Y-21590343D01*
X48747193Y-21612016D01*
X48749500Y-21635824D01*
X48749500Y-23395572D01*
X48749184Y-23404418D01*
X48732325Y-23640135D01*
X48729807Y-23657647D01*
X48680519Y-23884220D01*
X48675535Y-23901196D01*
X48594498Y-24118462D01*
X48587148Y-24134555D01*
X48476022Y-24338068D01*
X48466457Y-24352951D01*
X48327498Y-24538579D01*
X48315912Y-24551950D01*
X48151950Y-24715912D01*
X48138579Y-24727498D01*
X47952951Y-24866457D01*
X47938068Y-24876022D01*
X47734555Y-24987148D01*
X47718462Y-24994498D01*
X47501196Y-25075535D01*
X47484220Y-25080519D01*
X47257647Y-25129807D01*
X47240135Y-25132325D01*
X47004418Y-25149184D01*
X46995572Y-25149500D01*
X-995572Y-25149500D01*
X-1004418Y-25149184D01*
X-1240136Y-25132325D01*
X-1257648Y-25129807D01*
X-1484221Y-25080519D01*
X-1501197Y-25075535D01*
X-1718463Y-24994498D01*
X-1734556Y-24987148D01*
X-1938069Y-24876022D01*
X-1952952Y-24866457D01*
X-2138580Y-24727498D01*
X-2151951Y-24715912D01*
X-2315913Y-24551950D01*
X-2327499Y-24538579D01*
X-2466458Y-24352951D01*
X-2476023Y-24338068D01*
X-2487991Y-24316151D01*
X-2526331Y-24245935D01*
X-2587149Y-24134555D01*
X-2594499Y-24118462D01*
X-2624260Y-24038672D01*
X-2675539Y-23901188D01*
X-2680518Y-23884229D01*
X-2729809Y-23657641D01*
X-2732326Y-23640135D01*
X-2749184Y-23404418D01*
X-2749500Y-23395572D01*
X-2749500Y-22105000D01*
X-1805408Y-22105000D01*
X-1785799Y-22391680D01*
X-1727334Y-22673034D01*
X-1727333Y-22673037D01*
X-1631106Y-22943793D01*
X-1631107Y-22943793D01*
X-1498902Y-23198935D01*
X-1333188Y-23433700D01*
X-1248077Y-23524831D01*
X-1137053Y-23643708D01*
X-914147Y-23825055D01*
X-688194Y-23962461D01*
X-668618Y-23974365D01*
X-495554Y-24049536D01*
X-405058Y-24088844D01*
X-128358Y-24166371D01*
X121920Y-24200771D01*
X156321Y-24205500D01*
X156322Y-24205500D01*
X443679Y-24205500D01*
X474370Y-24201281D01*
X728358Y-24166371D01*
X1005058Y-24088844D01*
X1141682Y-24029500D01*
X1268617Y-23974365D01*
X1268620Y-23974363D01*
X1268625Y-23974361D01*
X1514147Y-23825055D01*
X1737053Y-23643708D01*
X1933189Y-23433698D01*
X2098901Y-23198936D01*
X2231104Y-22943797D01*
X2327334Y-22673032D01*
X2385798Y-22391686D01*
X2405408Y-22105000D01*
X2385798Y-21818314D01*
X2327334Y-21536968D01*
X2231105Y-21266206D01*
X2231106Y-21266206D01*
X2098901Y-21011064D01*
X1933187Y-20776299D01*
X1848544Y-20685670D01*
X1737053Y-20566292D01*
X1514147Y-20384945D01*
X1514146Y-20384944D01*
X1268617Y-20235634D01*
X1005063Y-20121158D01*
X1005061Y-20121157D01*
X1005058Y-20121156D01*
X875578Y-20084877D01*
X728364Y-20043630D01*
X728359Y-20043629D01*
X728358Y-20043629D01*
X586018Y-20024064D01*
X443679Y-20004500D01*
X443678Y-20004500D01*
X156322Y-20004500D01*
X156321Y-20004500D01*
X-128358Y-20043629D01*
X-128365Y-20043630D01*
X-336139Y-20101845D01*
X-405058Y-20121156D01*
X-405061Y-20121156D01*
X-405064Y-20121158D01*
X-405065Y-20121158D01*
X-668618Y-20235634D01*
X-914147Y-20384944D01*
X-1137050Y-20566289D01*
X-1333188Y-20776299D01*
X-1498902Y-21011064D01*
X-1631106Y-21266206D01*
X-1727333Y-21536962D01*
X-1727334Y-21536965D01*
X-1785799Y-21818319D01*
X-1805408Y-22105000D01*
X-2749500Y-22105000D01*
X-2749500Y-9740817D01*
X1851500Y-9740817D01*
X1851500Y-9879183D01*
X1884959Y-10004052D01*
X1887312Y-10012835D01*
X1887313Y-10012838D01*
X1956492Y-10132661D01*
X1956494Y-10132664D01*
X1956495Y-10132665D01*
X2054335Y-10230505D01*
X2054336Y-10230506D01*
X2054338Y-10230507D01*
X2079498Y-10245033D01*
X2174164Y-10299688D01*
X2307817Y-10335500D01*
X2307819Y-10335500D01*
X2446180Y-10335500D01*
X2446183Y-10335500D01*
X2518409Y-10316147D01*
X2588256Y-10317810D01*
X2646119Y-10356972D01*
X2673623Y-10421200D01*
X2674500Y-10435922D01*
X2674500Y-11850844D01*
X2674549Y-11856322D01*
X2674627Y-11860721D01*
X2675069Y-11865418D01*
X2672688Y-11865641D01*
X2665841Y-11925332D01*
X2621614Y-11979422D01*
X2597731Y-11990746D01*
X2598013Y-11991364D01*
X2589945Y-11995048D01*
X2468873Y-12072856D01*
X2374623Y-12181626D01*
X2374622Y-12181628D01*
X2314834Y-12312543D01*
X2294353Y-12455000D01*
X2314834Y-12597455D01*
X2319525Y-12607727D01*
X2326865Y-12633938D01*
X2327981Y-12633695D01*
X2329280Y-12639641D01*
X2329281Y-12639646D01*
X2366709Y-12755193D01*
X2419052Y-12916788D01*
X2420984Y-12986631D01*
X2419052Y-12993210D01*
X2329278Y-13270360D01*
X2328063Y-13275661D01*
X2327358Y-13275499D01*
X2319642Y-13302014D01*
X2314835Y-13312539D01*
X2314835Y-13312542D01*
X2294353Y-13455000D01*
X2314834Y-13597456D01*
X2354427Y-13684150D01*
X2374623Y-13728373D01*
X2468872Y-13837143D01*
X2589947Y-13914953D01*
X2589950Y-13914954D01*
X2589952Y-13914955D01*
X2598019Y-13918640D01*
X2597233Y-13920360D01*
X2646645Y-13952112D01*
X2675675Y-14015665D01*
X2675677Y-14050960D01*
X2674500Y-14059146D01*
X2674500Y-14964077D01*
X2654815Y-15031116D01*
X2602011Y-15076871D01*
X2532853Y-15086815D01*
X2518408Y-15083852D01*
X2446184Y-15064500D01*
X2446183Y-15064500D01*
X2307817Y-15064500D01*
X2174164Y-15100312D01*
X2174161Y-15100313D01*
X2054338Y-15169492D01*
X2054333Y-15169496D01*
X1956496Y-15267333D01*
X1956492Y-15267338D01*
X1887313Y-15387161D01*
X1887312Y-15387164D01*
X1851500Y-15520817D01*
X1851500Y-15659183D01*
X1879966Y-15765418D01*
X1887312Y-15792835D01*
X1887313Y-15792838D01*
X1956492Y-15912661D01*
X1956494Y-15912664D01*
X1956495Y-15912665D01*
X2054335Y-16010505D01*
X2174164Y-16079688D01*
X2307817Y-16115500D01*
X2307819Y-16115500D01*
X2446180Y-16115500D01*
X2446183Y-16115500D01*
X2532643Y-16092333D01*
X2602489Y-16093996D01*
X2660351Y-16133158D01*
X2685898Y-16185746D01*
X2692686Y-16216947D01*
X2703644Y-16255154D01*
X2703646Y-16255158D01*
X2750185Y-16334734D01*
X2760325Y-16352071D01*
X2775861Y-16370001D01*
X2806081Y-16404876D01*
X2806091Y-16404887D01*
X2850807Y-16447048D01*
X2850809Y-16447049D01*
X2850813Y-16447053D01*
X2950889Y-16497939D01*
X3017928Y-16517624D01*
X3104000Y-16530000D01*
X3463543Y-16530000D01*
X3487725Y-16532381D01*
X3559421Y-16546642D01*
X3582668Y-16553695D01*
X3650187Y-16581662D01*
X3671626Y-16593121D01*
X3732392Y-16633724D01*
X3751182Y-16649145D01*
X3802852Y-16700815D01*
X3818273Y-16719605D01*
X3858877Y-16780373D01*
X3870336Y-16801812D01*
X3898303Y-16869331D01*
X3905359Y-16892591D01*
X3906309Y-16897363D01*
X3909779Y-16914810D01*
X3909791Y-16914878D01*
X3919617Y-16964268D01*
X3922000Y-16988461D01*
X3922000Y-17061539D01*
X3919617Y-17085731D01*
X3905359Y-17157407D01*
X3898303Y-17180668D01*
X3870336Y-17248186D01*
X3858877Y-17269623D01*
X3818274Y-17330390D01*
X3802853Y-17349181D01*
X3751180Y-17400854D01*
X3732389Y-17416275D01*
X3671625Y-17456876D01*
X3650187Y-17468335D01*
X3582668Y-17496302D01*
X3559410Y-17503358D01*
X3532274Y-17508756D01*
X3487728Y-17517617D01*
X3463539Y-17520000D01*
X3104000Y-17520000D01*
X3103991Y-17520000D01*
X3103990Y-17520001D01*
X3039064Y-17526981D01*
X3039052Y-17526983D01*
X2987546Y-17538188D01*
X2949345Y-17549144D01*
X2949341Y-17549146D01*
X2852431Y-17605823D01*
X2852428Y-17605825D01*
X2799623Y-17651581D01*
X2799612Y-17651591D01*
X2757451Y-17696307D01*
X2757445Y-17696316D01*
X2706560Y-17796390D01*
X2686877Y-17863421D01*
X2686876Y-17863428D01*
X2674500Y-17949500D01*
X2674500Y-24199485D01*
X2679505Y-24245947D01*
X2681510Y-24264557D01*
X2681510Y-24264558D01*
X2692756Y-24316151D01*
X2698363Y-24335654D01*
X2703773Y-24354473D01*
X2760532Y-24451340D01*
X2806330Y-24504106D01*
X2806336Y-24504112D01*
X2806341Y-24504117D01*
X2851101Y-24546249D01*
X2851105Y-24546252D01*
X2951219Y-24597051D01*
X2951229Y-24597055D01*
X3018266Y-24616678D01*
X3018268Y-24616678D01*
X3018277Y-24616681D01*
X3018286Y-24616682D01*
X3018294Y-24616684D01*
X3075647Y-24624881D01*
X3104357Y-24628985D01*
X3104359Y-24628984D01*
X3104360Y-24628985D01*
X3129568Y-24628964D01*
X13176357Y-24620603D01*
X13241169Y-24613594D01*
X13292577Y-24602388D01*
X13330658Y-24591457D01*
X13427571Y-24534778D01*
X13480375Y-24489023D01*
X13480382Y-24489015D01*
X13480387Y-24489011D01*
X13522548Y-24444295D01*
X13522553Y-24444290D01*
X13573439Y-24344214D01*
X13593124Y-24277175D01*
X13605500Y-24191103D01*
X13605500Y-20939000D01*
X13598518Y-20874059D01*
X13587312Y-20822548D01*
X13576354Y-20784342D01*
X13519675Y-20687429D01*
X13473920Y-20634625D01*
X13473918Y-20634623D01*
X13473908Y-20634612D01*
X13429192Y-20592451D01*
X13429189Y-20592449D01*
X13429187Y-20592447D01*
X13329111Y-20541561D01*
X13329110Y-20541560D01*
X13329109Y-20541560D01*
X13262078Y-20521877D01*
X13262072Y-20521876D01*
X13176000Y-20509500D01*
X11629979Y-20509500D01*
X11624840Y-20510051D01*
X11565111Y-20516466D01*
X11565108Y-20516467D01*
X11513660Y-20527647D01*
X11513651Y-20527649D01*
X11513639Y-20527652D01*
X11481920Y-20536738D01*
X11475483Y-20538582D01*
X11378549Y-20595219D01*
X11325729Y-20640950D01*
X11325724Y-20640954D01*
X11283529Y-20685670D01*
X11232600Y-20785729D01*
X11212890Y-20852749D01*
X11212889Y-20852753D01*
X11200479Y-20938809D01*
X11200479Y-20938815D01*
X11199981Y-22133903D01*
X11180268Y-22200934D01*
X11127445Y-22246667D01*
X11076015Y-22257851D01*
X5729534Y-22259333D01*
X5662489Y-22239667D01*
X5616720Y-22186876D01*
X5605500Y-22135333D01*
X5605500Y-16369997D01*
X11964318Y-16369997D01*
X11964318Y-16370001D01*
X11984955Y-16526760D01*
X11984956Y-16526762D01*
X12032071Y-16640509D01*
X12045464Y-16672841D01*
X12141718Y-16798282D01*
X12141719Y-16798283D01*
X12141721Y-16798285D01*
X12170155Y-16820103D01*
X12179798Y-16828861D01*
X12179815Y-16828843D01*
X12184384Y-16832868D01*
X12221756Y-16859768D01*
X12224729Y-16861977D01*
X12267159Y-16894536D01*
X12267163Y-16894537D01*
X12274201Y-16898602D01*
X12273858Y-16899195D01*
X12285672Y-16905776D01*
X12526161Y-17078883D01*
X12526169Y-17078888D01*
X12526171Y-17078889D01*
X12578156Y-17107779D01*
X12580864Y-17108894D01*
X12586496Y-17111214D01*
X12595558Y-17115380D01*
X12628794Y-17132315D01*
X12660177Y-17155117D01*
X12707313Y-17202254D01*
X12707318Y-17202258D01*
X12716344Y-17208289D01*
X12735136Y-17223711D01*
X13441925Y-17930500D01*
X13556053Y-17996392D01*
X13683347Y-18030500D01*
X13815132Y-18030500D01*
X21071324Y-18030500D01*
X21138363Y-18050185D01*
X21159005Y-18066819D01*
X21765005Y-18672819D01*
X21798490Y-18734142D01*
X21793506Y-18803834D01*
X21751634Y-18859767D01*
X21686170Y-18884184D01*
X21677324Y-18884500D01*
X18138039Y-18884500D01*
X18076145Y-18902673D01*
X18073307Y-18903469D01*
X18016817Y-18918606D01*
X18010609Y-18921177D01*
X18000985Y-18924572D01*
X17999949Y-18925045D01*
X17951915Y-18955914D01*
X17946880Y-18958983D01*
X17902689Y-18984497D01*
X17898266Y-18987892D01*
X17882945Y-19000238D01*
X17878877Y-19002852D01*
X17878868Y-19002860D01*
X17846355Y-19040383D01*
X17840324Y-19046860D01*
X17809498Y-19077686D01*
X17806364Y-19083115D01*
X17792701Y-19102303D01*
X17784623Y-19111626D01*
X17784623Y-19111627D01*
X17767088Y-19150019D01*
X17761687Y-19160495D01*
X17743607Y-19191813D01*
X17743606Y-19191816D01*
X17740046Y-19205103D01*
X17733069Y-19224511D01*
X17724835Y-19242541D01*
X17719886Y-19276956D01*
X17716925Y-19291394D01*
X17709500Y-19319105D01*
X17709500Y-19340331D01*
X17708238Y-19357977D01*
X17704353Y-19384999D01*
X17708238Y-19412020D01*
X17709500Y-19429667D01*
X17709500Y-19450894D01*
X17716923Y-19478596D01*
X17719885Y-19493037D01*
X17724835Y-19527456D01*
X17724837Y-19527464D01*
X17733069Y-19545489D01*
X17740050Y-19564907D01*
X17743607Y-19578183D01*
X17743610Y-19578190D01*
X17761681Y-19609491D01*
X17767086Y-19619974D01*
X17784623Y-19658373D01*
X17792694Y-19667687D01*
X17806368Y-19686890D01*
X17809497Y-19692310D01*
X17809501Y-19692315D01*
X17840322Y-19723136D01*
X17846354Y-19729615D01*
X17878870Y-19767141D01*
X17878874Y-19767145D01*
X17882928Y-19769750D01*
X17898211Y-19782066D01*
X17902684Y-19785498D01*
X17902686Y-19785500D01*
X17946887Y-19811019D01*
X17951871Y-19814056D01*
X17999947Y-19844953D01*
X17999950Y-19844954D01*
X17999952Y-19844955D01*
X18000994Y-19845431D01*
X18010621Y-19848827D01*
X18016811Y-19851390D01*
X18016814Y-19851392D01*
X18073261Y-19866516D01*
X18076098Y-19867312D01*
X18138039Y-19885500D01*
X18144108Y-19885500D01*
X21855500Y-19885500D01*
X21922539Y-19905185D01*
X21968294Y-19957989D01*
X21979500Y-20009500D01*
X21979500Y-20475500D01*
X21959815Y-20542539D01*
X21907011Y-20588294D01*
X21855500Y-20599500D01*
X20204000Y-20599500D01*
X20203991Y-20599500D01*
X20203990Y-20599501D01*
X20139064Y-20606481D01*
X20139052Y-20606483D01*
X20087546Y-20617688D01*
X20049345Y-20628644D01*
X20049341Y-20628646D01*
X19952431Y-20685323D01*
X19952428Y-20685325D01*
X19899623Y-20731081D01*
X19899612Y-20731091D01*
X19857451Y-20775807D01*
X19857445Y-20775816D01*
X19806560Y-20875890D01*
X19786877Y-20942921D01*
X19786876Y-20942928D01*
X19774500Y-21029000D01*
X19774500Y-24181000D01*
X19774501Y-24181009D01*
X19781481Y-24245935D01*
X19781483Y-24245947D01*
X19792688Y-24297453D01*
X19803644Y-24335654D01*
X19803646Y-24335658D01*
X19860325Y-24432571D01*
X19876588Y-24451340D01*
X19906081Y-24485376D01*
X19906091Y-24485387D01*
X19950807Y-24527548D01*
X19950809Y-24527549D01*
X19950813Y-24527553D01*
X20050889Y-24578439D01*
X20117928Y-24598124D01*
X20204000Y-24610500D01*
X20204003Y-24610500D01*
X26585990Y-24610500D01*
X26586000Y-24610500D01*
X26650941Y-24603518D01*
X26702452Y-24592312D01*
X26740658Y-24581354D01*
X26837571Y-24524675D01*
X26890375Y-24478920D01*
X26890382Y-24478912D01*
X26890387Y-24478908D01*
X26932548Y-24434192D01*
X26932553Y-24434187D01*
X26983439Y-24334111D01*
X27003124Y-24267072D01*
X27015500Y-24181000D01*
X27015500Y-24029500D01*
X27035185Y-23962461D01*
X27087989Y-23916706D01*
X27139500Y-23905500D01*
X33895994Y-23905500D01*
X33936330Y-23912244D01*
X34082309Y-23962461D01*
X34442570Y-24086392D01*
X34449114Y-24087387D01*
X34477918Y-24095414D01*
X34513238Y-24110044D01*
X34591619Y-24120363D01*
X34669999Y-24130682D01*
X34670000Y-24130682D01*
X34670001Y-24130682D01*
X34722254Y-24123802D01*
X34826762Y-24110044D01*
X34972841Y-24049536D01*
X35098282Y-23953282D01*
X35194536Y-23827841D01*
X35255044Y-23681762D01*
X35275682Y-23525000D01*
X35255044Y-23368238D01*
X35194536Y-23222159D01*
X35098282Y-23096718D01*
X34972841Y-23000464D01*
X34856367Y-22952219D01*
X34826762Y-22939956D01*
X34826760Y-22939955D01*
X34670001Y-22919318D01*
X34669999Y-22919318D01*
X34513234Y-22939956D01*
X34513232Y-22939957D01*
X34490658Y-22949307D01*
X34463981Y-22956993D01*
X34458891Y-22957857D01*
X33993572Y-23084815D01*
X33949037Y-23096966D01*
X33937451Y-23100127D01*
X33904812Y-23104500D01*
X27139500Y-23104500D01*
X27072461Y-23084815D01*
X27026706Y-23032011D01*
X27015500Y-22980500D01*
X27015500Y-21845000D01*
X31854353Y-21845000D01*
X31874834Y-21987456D01*
X31928516Y-22105000D01*
X31934623Y-22118373D01*
X32028872Y-22227143D01*
X32149947Y-22304953D01*
X32149950Y-22304954D01*
X32149949Y-22304954D01*
X32288036Y-22345499D01*
X32288038Y-22345500D01*
X32288039Y-22345500D01*
X32431962Y-22345500D01*
X32431962Y-22345499D01*
X32570053Y-22304953D01*
X32691128Y-22227143D01*
X32785377Y-22118373D01*
X32845165Y-21987457D01*
X32865647Y-21845000D01*
X32845165Y-21702543D01*
X32840476Y-21692277D01*
X32833156Y-21666061D01*
X32832019Y-21666310D01*
X32830718Y-21660356D01*
X32830718Y-21660353D01*
X32716534Y-21307844D01*
X32710500Y-21269633D01*
X32710500Y-18770044D01*
X32730185Y-18703005D01*
X32746819Y-18682363D01*
X33327819Y-18101363D01*
X33389142Y-18067878D01*
X33458834Y-18072862D01*
X33514767Y-18114734D01*
X33539184Y-18180198D01*
X33539500Y-18189044D01*
X33539500Y-21269633D01*
X33533466Y-21307844D01*
X33419278Y-21660360D01*
X33418063Y-21665661D01*
X33417358Y-21665499D01*
X33409642Y-21692014D01*
X33404835Y-21702539D01*
X33404835Y-21702542D01*
X33384353Y-21845000D01*
X33404834Y-21987456D01*
X33458516Y-22105000D01*
X33464623Y-22118373D01*
X33558872Y-22227143D01*
X33679947Y-22304953D01*
X33679950Y-22304954D01*
X33679949Y-22304954D01*
X33818036Y-22345499D01*
X33818038Y-22345500D01*
X33818039Y-22345500D01*
X33961962Y-22345500D01*
X33961962Y-22345499D01*
X34100053Y-22304953D01*
X34221128Y-22227143D01*
X34315377Y-22118373D01*
X34375165Y-21987457D01*
X34395647Y-21845000D01*
X34375165Y-21702543D01*
X34370476Y-21692277D01*
X34363156Y-21666061D01*
X34362019Y-21666310D01*
X34360718Y-21660356D01*
X34360718Y-21660353D01*
X34246534Y-21307844D01*
X34240500Y-21269633D01*
X34240500Y-17897186D01*
X34260185Y-17830147D01*
X34276819Y-17809505D01*
X34867819Y-17218505D01*
X34929142Y-17185020D01*
X34998834Y-17190004D01*
X35054767Y-17231876D01*
X35079184Y-17297340D01*
X35079500Y-17306186D01*
X35079500Y-21269633D01*
X35073466Y-21307844D01*
X34959278Y-21660360D01*
X34958063Y-21665661D01*
X34957358Y-21665499D01*
X34949642Y-21692014D01*
X34944835Y-21702539D01*
X34944835Y-21702542D01*
X34924353Y-21845000D01*
X34944834Y-21987456D01*
X34998516Y-22105000D01*
X35004623Y-22118373D01*
X35098872Y-22227143D01*
X35219947Y-22304953D01*
X35219950Y-22304954D01*
X35219949Y-22304954D01*
X35358036Y-22345499D01*
X35358038Y-22345500D01*
X35358039Y-22345500D01*
X35501962Y-22345500D01*
X35501962Y-22345499D01*
X35640053Y-22304953D01*
X35761128Y-22227143D01*
X35855377Y-22118373D01*
X35915165Y-21987457D01*
X35935647Y-21845000D01*
X35915165Y-21702543D01*
X35910476Y-21692277D01*
X35903156Y-21666061D01*
X35902019Y-21666310D01*
X35900718Y-21660356D01*
X35900718Y-21660353D01*
X35786534Y-21307844D01*
X35780500Y-21269633D01*
X35780500Y-17000044D01*
X35800185Y-16933005D01*
X35816819Y-16912363D01*
X36407819Y-16321363D01*
X36469142Y-16287878D01*
X36538834Y-16292862D01*
X36594767Y-16334734D01*
X36619184Y-16400198D01*
X36619500Y-16409044D01*
X36619500Y-21269633D01*
X36613466Y-21307844D01*
X36499278Y-21660360D01*
X36498063Y-21665661D01*
X36497358Y-21665499D01*
X36489642Y-21692014D01*
X36484835Y-21702539D01*
X36484835Y-21702542D01*
X36464353Y-21845000D01*
X36484834Y-21987456D01*
X36538516Y-22105000D01*
X36544623Y-22118373D01*
X36638872Y-22227143D01*
X36759947Y-22304953D01*
X36759950Y-22304954D01*
X36759949Y-22304954D01*
X36898036Y-22345499D01*
X36898038Y-22345500D01*
X36898039Y-22345500D01*
X37041962Y-22345500D01*
X37041962Y-22345499D01*
X37180053Y-22304953D01*
X37301128Y-22227143D01*
X37395377Y-22118373D01*
X37401484Y-22105000D01*
X38434592Y-22105000D01*
X38454201Y-22391680D01*
X38512666Y-22673034D01*
X38512667Y-22673037D01*
X38608894Y-22943793D01*
X38608893Y-22943793D01*
X38741098Y-23198935D01*
X38906812Y-23433700D01*
X38991923Y-23524831D01*
X39102947Y-23643708D01*
X39325853Y-23825055D01*
X39551806Y-23962461D01*
X39571382Y-23974365D01*
X39744446Y-24049536D01*
X39834942Y-24088844D01*
X40111642Y-24166371D01*
X40361920Y-24200771D01*
X40396321Y-24205500D01*
X40396322Y-24205500D01*
X40683679Y-24205500D01*
X40714370Y-24201281D01*
X40968358Y-24166371D01*
X41245058Y-24088844D01*
X41381682Y-24029500D01*
X41508617Y-23974365D01*
X41508620Y-23974363D01*
X41508625Y-23974361D01*
X41754147Y-23825055D01*
X41977053Y-23643708D01*
X42173189Y-23433698D01*
X42338901Y-23198936D01*
X42471104Y-22943797D01*
X42567334Y-22673032D01*
X42625798Y-22391686D01*
X42645408Y-22105000D01*
X42625798Y-21818314D01*
X42578354Y-21589999D01*
X46294785Y-21589999D01*
X46294785Y-21590000D01*
X46313602Y-21793082D01*
X46369417Y-21989247D01*
X46369422Y-21989260D01*
X46460327Y-22171821D01*
X46583237Y-22334581D01*
X46733958Y-22471980D01*
X46733960Y-22471982D01*
X46833141Y-22533392D01*
X46907363Y-22579348D01*
X47097544Y-22653024D01*
X47298024Y-22690500D01*
X47298026Y-22690500D01*
X47501974Y-22690500D01*
X47501976Y-22690500D01*
X47702456Y-22653024D01*
X47892637Y-22579348D01*
X48066041Y-22471981D01*
X48194122Y-22355219D01*
X48216762Y-22334581D01*
X48216764Y-22334579D01*
X48339673Y-22171821D01*
X48430582Y-21989250D01*
X48486397Y-21793083D01*
X48502029Y-21624382D01*
X48514857Y-21592078D01*
X48506523Y-21579110D01*
X48502029Y-21555616D01*
X48486397Y-21386917D01*
X48430582Y-21190750D01*
X48339673Y-21008179D01*
X48239773Y-20875890D01*
X48216762Y-20845418D01*
X48066041Y-20708019D01*
X48066039Y-20708017D01*
X47892642Y-20600655D01*
X47892635Y-20600651D01*
X47740102Y-20541560D01*
X47702456Y-20526976D01*
X47501976Y-20489500D01*
X47298024Y-20489500D01*
X47097544Y-20526976D01*
X47097541Y-20526976D01*
X47097541Y-20526977D01*
X46907364Y-20600651D01*
X46907357Y-20600655D01*
X46733960Y-20708017D01*
X46733958Y-20708019D01*
X46583237Y-20845418D01*
X46460327Y-21008178D01*
X46369422Y-21190739D01*
X46369417Y-21190752D01*
X46313602Y-21386917D01*
X46294785Y-21589999D01*
X42578354Y-21589999D01*
X42567334Y-21536968D01*
X42471105Y-21266206D01*
X42471106Y-21266206D01*
X42338901Y-21011064D01*
X42173187Y-20776299D01*
X42088544Y-20685670D01*
X41977053Y-20566292D01*
X41754147Y-20384945D01*
X41754146Y-20384944D01*
X41508617Y-20235634D01*
X41245063Y-20121158D01*
X41245061Y-20121157D01*
X41245058Y-20121156D01*
X41115578Y-20084877D01*
X40968364Y-20043630D01*
X40968359Y-20043629D01*
X40968358Y-20043629D01*
X40826018Y-20024064D01*
X40683679Y-20004500D01*
X40683678Y-20004500D01*
X40396322Y-20004500D01*
X40396321Y-20004500D01*
X40111642Y-20043629D01*
X40111635Y-20043630D01*
X39903861Y-20101845D01*
X39834942Y-20121156D01*
X39834939Y-20121156D01*
X39834936Y-20121158D01*
X39834935Y-20121158D01*
X39571382Y-20235634D01*
X39325853Y-20384944D01*
X39102950Y-20566289D01*
X38906812Y-20776299D01*
X38741098Y-21011064D01*
X38608894Y-21266206D01*
X38512667Y-21536962D01*
X38512666Y-21536965D01*
X38454201Y-21818319D01*
X38434592Y-22105000D01*
X37401484Y-22105000D01*
X37455165Y-21987457D01*
X37475647Y-21845000D01*
X37455165Y-21702543D01*
X37450476Y-21692277D01*
X37443156Y-21666061D01*
X37442019Y-21666310D01*
X37440718Y-21660356D01*
X37440718Y-21660353D01*
X37326534Y-21307844D01*
X37320500Y-21269633D01*
X37320500Y-19049999D01*
X46294785Y-19049999D01*
X46294785Y-19050000D01*
X46313602Y-19253082D01*
X46369417Y-19449247D01*
X46369422Y-19449260D01*
X46460327Y-19631821D01*
X46583237Y-19794581D01*
X46733958Y-19931980D01*
X46733960Y-19931982D01*
X46775963Y-19957989D01*
X46907363Y-20039348D01*
X47097544Y-20113024D01*
X47298024Y-20150500D01*
X47298026Y-20150500D01*
X47501974Y-20150500D01*
X47501976Y-20150500D01*
X47702456Y-20113024D01*
X47892637Y-20039348D01*
X48066041Y-19931981D01*
X48216764Y-19794579D01*
X48339673Y-19631821D01*
X48430582Y-19449250D01*
X48486397Y-19253083D01*
X48502029Y-19084382D01*
X48514857Y-19052078D01*
X48506523Y-19039110D01*
X48502029Y-19015616D01*
X48486397Y-18846917D01*
X48454309Y-18734142D01*
X48430582Y-18650750D01*
X48339673Y-18468179D01*
X48216764Y-18305421D01*
X48216762Y-18305418D01*
X48066041Y-18168019D01*
X48066039Y-18168017D01*
X47892642Y-18060655D01*
X47892635Y-18060651D01*
X47797546Y-18023814D01*
X47702456Y-17986976D01*
X47501976Y-17949500D01*
X47298024Y-17949500D01*
X47097544Y-17986976D01*
X47097541Y-17986976D01*
X47097541Y-17986977D01*
X46907364Y-18060651D01*
X46907357Y-18060655D01*
X46733960Y-18168017D01*
X46733958Y-18168019D01*
X46583237Y-18305418D01*
X46460327Y-18468178D01*
X46369422Y-18650739D01*
X46369417Y-18650752D01*
X46313602Y-18846917D01*
X46294785Y-19049999D01*
X37320500Y-19049999D01*
X37320500Y-16509999D01*
X46294785Y-16509999D01*
X46294785Y-16510000D01*
X46313602Y-16713082D01*
X46369417Y-16909247D01*
X46369422Y-16909260D01*
X46460327Y-17091821D01*
X46583237Y-17254581D01*
X46733958Y-17391980D01*
X46733960Y-17391982D01*
X46748289Y-17400854D01*
X46907363Y-17499348D01*
X47097544Y-17573024D01*
X47298024Y-17610500D01*
X47298026Y-17610500D01*
X47501974Y-17610500D01*
X47501976Y-17610500D01*
X47702456Y-17573024D01*
X47892637Y-17499348D01*
X48066041Y-17391981D01*
X48194122Y-17275219D01*
X48216762Y-17254581D01*
X48216764Y-17254579D01*
X48339673Y-17091821D01*
X48430582Y-16909250D01*
X48486397Y-16713083D01*
X48502029Y-16544382D01*
X48514857Y-16512078D01*
X48506523Y-16499110D01*
X48502029Y-16475616D01*
X48486397Y-16306917D01*
X48460798Y-16216947D01*
X48430582Y-16110750D01*
X48430050Y-16109682D01*
X48369579Y-15988239D01*
X48339673Y-15928179D01*
X48274714Y-15842159D01*
X48216762Y-15765418D01*
X48066041Y-15628019D01*
X48066039Y-15628017D01*
X47892642Y-15520655D01*
X47892635Y-15520651D01*
X47787701Y-15480000D01*
X47702456Y-15446976D01*
X47501976Y-15409500D01*
X47298024Y-15409500D01*
X47097544Y-15446976D01*
X47097541Y-15446976D01*
X47097541Y-15446977D01*
X46907364Y-15520651D01*
X46907357Y-15520655D01*
X46733960Y-15628017D01*
X46733958Y-15628019D01*
X46583237Y-15765418D01*
X46460327Y-15928178D01*
X46369422Y-16110739D01*
X46369417Y-16110752D01*
X46313602Y-16306917D01*
X46294785Y-16509999D01*
X37320500Y-16509999D01*
X37320500Y-16165145D01*
X37340185Y-16098106D01*
X37389314Y-16054102D01*
X37607737Y-15945556D01*
X37612082Y-15943856D01*
X37611983Y-15943638D01*
X37620050Y-15939953D01*
X37620053Y-15939953D01*
X37741128Y-15862143D01*
X37835377Y-15753373D01*
X37895165Y-15622457D01*
X37915647Y-15480000D01*
X37895165Y-15337543D01*
X37835377Y-15206627D01*
X37835375Y-15206625D01*
X37835324Y-15206512D01*
X37825380Y-15137354D01*
X37835324Y-15103488D01*
X37836775Y-15100312D01*
X37895165Y-14972457D01*
X37915647Y-14830000D01*
X37895165Y-14687543D01*
X37836954Y-14560081D01*
X37827011Y-14490925D01*
X37836953Y-14457063D01*
X37895165Y-14329600D01*
X37915647Y-14187143D01*
X37895165Y-14044686D01*
X37861056Y-13969999D01*
X46294785Y-13969999D01*
X46294785Y-13970000D01*
X46313602Y-14173082D01*
X46369417Y-14369247D01*
X46369422Y-14369260D01*
X46460327Y-14551821D01*
X46583237Y-14714581D01*
X46733958Y-14851980D01*
X46733960Y-14851982D01*
X46833141Y-14913392D01*
X46907363Y-14959348D01*
X47097544Y-15033024D01*
X47298024Y-15070500D01*
X47298026Y-15070500D01*
X47501974Y-15070500D01*
X47501976Y-15070500D01*
X47702456Y-15033024D01*
X47892637Y-14959348D01*
X48066041Y-14851981D01*
X48216764Y-14714579D01*
X48339673Y-14551821D01*
X48430582Y-14369250D01*
X48486397Y-14173083D01*
X48502029Y-14004382D01*
X48514857Y-13972078D01*
X48506523Y-13959110D01*
X48502029Y-13935616D01*
X48486397Y-13766917D01*
X48475430Y-13728373D01*
X48430582Y-13570750D01*
X48339673Y-13388179D01*
X48262140Y-13285508D01*
X48216762Y-13225418D01*
X48066041Y-13088019D01*
X48066039Y-13088017D01*
X47892642Y-12980655D01*
X47892635Y-12980651D01*
X47797546Y-12943814D01*
X47702456Y-12906976D01*
X47501976Y-12869500D01*
X47298024Y-12869500D01*
X47097544Y-12906976D01*
X47097541Y-12906976D01*
X47097541Y-12906977D01*
X46907364Y-12980651D01*
X46907357Y-12980655D01*
X46733960Y-13088017D01*
X46733958Y-13088019D01*
X46583237Y-13225418D01*
X46460327Y-13388178D01*
X46369422Y-13570739D01*
X46369417Y-13570752D01*
X46313602Y-13766917D01*
X46294785Y-13969999D01*
X37861056Y-13969999D01*
X37835377Y-13913770D01*
X37835376Y-13913769D01*
X37833693Y-13910083D01*
X37823749Y-13840925D01*
X37833693Y-13807059D01*
X37835375Y-13803374D01*
X37835377Y-13803373D01*
X37895165Y-13672457D01*
X37915647Y-13530000D01*
X37895165Y-13387543D01*
X37835377Y-13256627D01*
X37835375Y-13256625D01*
X37835324Y-13256512D01*
X37825380Y-13187354D01*
X37835324Y-13153488D01*
X37852987Y-13114813D01*
X37895165Y-13022457D01*
X37915647Y-12880000D01*
X37895165Y-12737543D01*
X37835377Y-12606627D01*
X37835375Y-12606625D01*
X37835324Y-12606512D01*
X37825380Y-12537354D01*
X37835324Y-12503488D01*
X37895165Y-12372456D01*
X37903779Y-12312543D01*
X37915647Y-12230000D01*
X37895165Y-12087543D01*
X37835377Y-11956627D01*
X37835375Y-11956625D01*
X37835324Y-11956512D01*
X37825380Y-11887354D01*
X37835324Y-11853488D01*
X37836531Y-11850847D01*
X37895165Y-11722457D01*
X37915647Y-11580000D01*
X37895165Y-11437543D01*
X37891720Y-11429999D01*
X46294785Y-11429999D01*
X46294785Y-11430000D01*
X46313602Y-11633082D01*
X46369417Y-11829247D01*
X46369422Y-11829260D01*
X46460327Y-12011821D01*
X46583237Y-12174581D01*
X46733958Y-12311980D01*
X46733960Y-12311982D01*
X46831630Y-12372456D01*
X46907363Y-12419348D01*
X47097544Y-12493024D01*
X47298024Y-12530500D01*
X47298026Y-12530500D01*
X47501974Y-12530500D01*
X47501976Y-12530500D01*
X47702456Y-12493024D01*
X47892637Y-12419348D01*
X48066041Y-12311981D01*
X48216764Y-12174579D01*
X48339673Y-12011821D01*
X48430582Y-11829250D01*
X48486397Y-11633083D01*
X48502029Y-11464382D01*
X48514857Y-11432078D01*
X48506523Y-11419110D01*
X48502029Y-11395616D01*
X48486397Y-11226917D01*
X48441026Y-11067457D01*
X48430582Y-11030750D01*
X48339673Y-10848179D01*
X48216764Y-10685421D01*
X48216762Y-10685418D01*
X48066041Y-10548019D01*
X48066039Y-10548017D01*
X47892642Y-10440655D01*
X47892635Y-10440651D01*
X47797546Y-10403814D01*
X47702456Y-10366976D01*
X47501976Y-10329500D01*
X47298024Y-10329500D01*
X47097544Y-10366976D01*
X47097541Y-10366976D01*
X47097541Y-10366977D01*
X46907364Y-10440651D01*
X46907357Y-10440655D01*
X46733960Y-10548017D01*
X46733958Y-10548019D01*
X46583237Y-10685418D01*
X46460327Y-10848178D01*
X46369422Y-11030739D01*
X46369417Y-11030752D01*
X46313602Y-11226917D01*
X46294785Y-11429999D01*
X37891720Y-11429999D01*
X37835377Y-11306627D01*
X37835375Y-11306625D01*
X37834182Y-11304012D01*
X37824238Y-11234854D01*
X37834182Y-11200988D01*
X37835375Y-11198374D01*
X37835377Y-11198373D01*
X37895165Y-11067457D01*
X37915647Y-10925000D01*
X37895165Y-10782543D01*
X37835377Y-10651627D01*
X37741128Y-10542857D01*
X37687373Y-10508311D01*
X37620052Y-10465046D01*
X37613122Y-10461882D01*
X37608236Y-10459520D01*
X37388104Y-10347104D01*
X37337352Y-10299084D01*
X37320500Y-10236671D01*
X37320500Y-8889999D01*
X46294785Y-8889999D01*
X46294785Y-8890000D01*
X46313602Y-9093082D01*
X46369417Y-9289247D01*
X46369422Y-9289260D01*
X46460327Y-9471821D01*
X46583237Y-9634581D01*
X46733958Y-9771980D01*
X46733960Y-9771982D01*
X46807360Y-9817429D01*
X46907363Y-9879348D01*
X47097544Y-9953024D01*
X47298024Y-9990500D01*
X47298026Y-9990500D01*
X47501974Y-9990500D01*
X47501976Y-9990500D01*
X47702456Y-9953024D01*
X47892637Y-9879348D01*
X48066041Y-9771981D01*
X48216764Y-9634579D01*
X48339673Y-9471821D01*
X48430582Y-9289250D01*
X48486397Y-9093083D01*
X48502029Y-8924382D01*
X48514857Y-8892078D01*
X48506523Y-8879110D01*
X48502029Y-8855616D01*
X48486397Y-8686917D01*
X48434135Y-8503238D01*
X48430582Y-8490750D01*
X48339673Y-8308179D01*
X48225256Y-8156666D01*
X48216762Y-8145418D01*
X48066041Y-8008019D01*
X48066039Y-8008017D01*
X47892642Y-7900655D01*
X47892635Y-7900651D01*
X47797546Y-7863814D01*
X47702456Y-7826976D01*
X47501976Y-7789500D01*
X47298024Y-7789500D01*
X47097544Y-7826976D01*
X47097541Y-7826976D01*
X47097541Y-7826977D01*
X46907364Y-7900651D01*
X46907357Y-7900655D01*
X46733960Y-8008017D01*
X46733958Y-8008019D01*
X46583237Y-8145418D01*
X46460327Y-8308178D01*
X46369422Y-8490739D01*
X46369417Y-8490752D01*
X46313602Y-8686917D01*
X46294785Y-8889999D01*
X37320500Y-8889999D01*
X37320500Y-6349999D01*
X46294785Y-6349999D01*
X46294785Y-6350000D01*
X46313602Y-6553082D01*
X46369417Y-6749247D01*
X46369422Y-6749260D01*
X46460327Y-6931821D01*
X46583237Y-7094581D01*
X46733958Y-7231980D01*
X46733960Y-7231982D01*
X46734025Y-7232022D01*
X46907363Y-7339348D01*
X47097544Y-7413024D01*
X47298024Y-7450500D01*
X47298026Y-7450500D01*
X47501974Y-7450500D01*
X47501976Y-7450500D01*
X47702456Y-7413024D01*
X47892637Y-7339348D01*
X48066041Y-7231981D01*
X48216764Y-7094579D01*
X48339673Y-6931821D01*
X48430582Y-6749250D01*
X48486397Y-6553083D01*
X48502029Y-6384382D01*
X48514857Y-6352078D01*
X48506523Y-6339110D01*
X48502029Y-6315616D01*
X48486397Y-6146917D01*
X48431537Y-5954107D01*
X48430582Y-5950750D01*
X48339673Y-5768179D01*
X48216764Y-5605421D01*
X48216762Y-5605418D01*
X48066041Y-5468019D01*
X48066039Y-5468017D01*
X47892642Y-5360655D01*
X47892635Y-5360651D01*
X47797546Y-5323814D01*
X47702456Y-5286976D01*
X47501976Y-5249500D01*
X47298024Y-5249500D01*
X47097544Y-5286976D01*
X47097541Y-5286976D01*
X47097541Y-5286977D01*
X46907364Y-5360651D01*
X46907357Y-5360655D01*
X46733960Y-5468017D01*
X46733958Y-5468019D01*
X46583237Y-5605418D01*
X46460327Y-5768178D01*
X46369422Y-5950739D01*
X46369417Y-5950752D01*
X46313602Y-6146917D01*
X46294785Y-6349999D01*
X37320500Y-6349999D01*
X37320500Y-4120365D01*
X37326534Y-4082154D01*
X37440718Y-3729646D01*
X37440719Y-3729636D01*
X37441938Y-3724329D01*
X37442650Y-3724492D01*
X37450359Y-3697978D01*
X37455165Y-3687457D01*
X37475647Y-3545000D01*
X37455165Y-3402543D01*
X37410618Y-3305000D01*
X38434592Y-3305000D01*
X38454201Y-3591680D01*
X38512666Y-3873034D01*
X38512667Y-3873037D01*
X38608894Y-4143793D01*
X38608893Y-4143793D01*
X38741098Y-4398935D01*
X38906812Y-4633700D01*
X38991923Y-4724831D01*
X39102947Y-4843708D01*
X39185046Y-4910500D01*
X39325853Y-5025055D01*
X39571382Y-5174365D01*
X39744363Y-5249500D01*
X39834942Y-5288844D01*
X40111642Y-5366371D01*
X40361920Y-5400771D01*
X40396321Y-5405500D01*
X40396322Y-5405500D01*
X40683679Y-5405500D01*
X40714370Y-5401281D01*
X40968358Y-5366371D01*
X41245058Y-5288844D01*
X41358015Y-5239779D01*
X41508617Y-5174365D01*
X41508620Y-5174363D01*
X41508625Y-5174361D01*
X41754147Y-5025055D01*
X41977053Y-4843708D01*
X42173189Y-4633698D01*
X42338901Y-4398936D01*
X42471104Y-4143797D01*
X42567334Y-3873032D01*
X42580432Y-3809999D01*
X46294785Y-3809999D01*
X46294785Y-3810000D01*
X46313602Y-4013082D01*
X46369417Y-4209247D01*
X46369422Y-4209260D01*
X46460327Y-4391821D01*
X46583237Y-4554581D01*
X46733958Y-4691980D01*
X46733960Y-4691982D01*
X46833141Y-4753392D01*
X46907363Y-4799348D01*
X47097544Y-4873024D01*
X47298024Y-4910500D01*
X47298026Y-4910500D01*
X47501974Y-4910500D01*
X47501976Y-4910500D01*
X47702456Y-4873024D01*
X47892637Y-4799348D01*
X48066041Y-4691981D01*
X48216764Y-4554579D01*
X48339673Y-4391821D01*
X48430582Y-4209250D01*
X48486397Y-4013083D01*
X48502029Y-3844382D01*
X48514857Y-3812078D01*
X48506523Y-3799110D01*
X48502029Y-3775616D01*
X48486397Y-3606917D01*
X48482062Y-3591680D01*
X48430582Y-3410750D01*
X48426495Y-3402543D01*
X48361307Y-3271626D01*
X48339673Y-3228179D01*
X48231585Y-3085047D01*
X48216762Y-3065418D01*
X48066041Y-2928019D01*
X48066039Y-2928017D01*
X47892642Y-2820655D01*
X47892635Y-2820651D01*
X47797546Y-2783814D01*
X47702456Y-2746976D01*
X47501976Y-2709500D01*
X47298024Y-2709500D01*
X47097544Y-2746976D01*
X47097541Y-2746976D01*
X47097541Y-2746977D01*
X46907364Y-2820651D01*
X46907357Y-2820655D01*
X46733960Y-2928017D01*
X46733958Y-2928019D01*
X46583237Y-3065418D01*
X46460327Y-3228178D01*
X46369422Y-3410739D01*
X46369417Y-3410752D01*
X46313602Y-3606917D01*
X46294785Y-3809999D01*
X42580432Y-3809999D01*
X42625798Y-3591686D01*
X42645408Y-3305000D01*
X42625798Y-3018314D01*
X42567334Y-2736968D01*
X42471105Y-2466206D01*
X42471106Y-2466206D01*
X42338901Y-2211064D01*
X42173187Y-1976299D01*
X42087420Y-1884466D01*
X41977053Y-1766292D01*
X41848452Y-1661667D01*
X41754146Y-1584944D01*
X41508617Y-1435634D01*
X41245063Y-1321158D01*
X41245061Y-1321157D01*
X41245058Y-1321156D01*
X41103655Y-1281537D01*
X40968364Y-1243630D01*
X40968359Y-1243629D01*
X40968358Y-1243629D01*
X40826018Y-1224064D01*
X40683679Y-1204500D01*
X40683678Y-1204500D01*
X40396322Y-1204500D01*
X40396321Y-1204500D01*
X40111642Y-1243629D01*
X40111635Y-1243630D01*
X39903861Y-1301845D01*
X39834942Y-1321156D01*
X39834939Y-1321156D01*
X39834936Y-1321158D01*
X39834935Y-1321158D01*
X39571382Y-1435634D01*
X39325853Y-1584944D01*
X39102950Y-1766289D01*
X38906812Y-1976299D01*
X38741098Y-2211064D01*
X38608894Y-2466206D01*
X38512667Y-2736962D01*
X38512666Y-2736965D01*
X38454201Y-3018319D01*
X38434592Y-3305000D01*
X37410618Y-3305000D01*
X37395377Y-3271627D01*
X37301128Y-3162857D01*
X37180053Y-3085047D01*
X37180051Y-3085046D01*
X37180049Y-3085045D01*
X37180050Y-3085045D01*
X37041963Y-3044500D01*
X37041961Y-3044500D01*
X36898039Y-3044500D01*
X36898036Y-3044500D01*
X36759949Y-3085045D01*
X36638873Y-3162856D01*
X36544623Y-3271626D01*
X36544622Y-3271628D01*
X36484834Y-3402543D01*
X36464353Y-3545000D01*
X36484834Y-3687455D01*
X36489525Y-3697727D01*
X36496865Y-3723938D01*
X36497981Y-3723695D01*
X36499280Y-3729638D01*
X36499281Y-3729646D01*
X36582517Y-3986610D01*
X36613466Y-4082155D01*
X36619500Y-4120366D01*
X36619500Y-10049456D01*
X36599815Y-10116495D01*
X36547011Y-10162250D01*
X36477853Y-10172194D01*
X36414297Y-10143169D01*
X36407819Y-10137137D01*
X35816819Y-9546137D01*
X35783334Y-9484814D01*
X35780500Y-9458456D01*
X35780500Y-4120365D01*
X35786534Y-4082154D01*
X35900718Y-3729646D01*
X35900719Y-3729636D01*
X35901938Y-3724329D01*
X35902650Y-3724492D01*
X35910359Y-3697978D01*
X35915165Y-3687457D01*
X35935647Y-3545000D01*
X35915165Y-3402543D01*
X35855377Y-3271627D01*
X35761128Y-3162857D01*
X35640053Y-3085047D01*
X35640051Y-3085046D01*
X35640049Y-3085045D01*
X35640050Y-3085045D01*
X35501963Y-3044500D01*
X35501961Y-3044500D01*
X35358039Y-3044500D01*
X35358036Y-3044500D01*
X35219949Y-3085045D01*
X35098873Y-3162856D01*
X35004623Y-3271626D01*
X35004622Y-3271628D01*
X34944834Y-3402543D01*
X34924353Y-3545000D01*
X34944834Y-3687455D01*
X34949525Y-3697727D01*
X34956865Y-3723938D01*
X34957981Y-3723695D01*
X34959280Y-3729638D01*
X34959281Y-3729646D01*
X35042517Y-3986610D01*
X35073466Y-4082155D01*
X35079500Y-4120366D01*
X35079500Y-9109456D01*
X35059815Y-9176495D01*
X35007011Y-9222250D01*
X34937853Y-9232194D01*
X34874297Y-9203169D01*
X34867819Y-9197137D01*
X34286819Y-8616137D01*
X34253334Y-8554814D01*
X34250500Y-8528456D01*
X34250500Y-4120365D01*
X34256534Y-4082154D01*
X34370718Y-3729646D01*
X34370719Y-3729636D01*
X34371938Y-3724329D01*
X34372650Y-3724492D01*
X34380359Y-3697978D01*
X34385165Y-3687457D01*
X34405647Y-3545000D01*
X34385165Y-3402543D01*
X34325377Y-3271627D01*
X34231128Y-3162857D01*
X34110053Y-3085047D01*
X34110051Y-3085046D01*
X34110049Y-3085045D01*
X34110050Y-3085045D01*
X33971963Y-3044500D01*
X33971961Y-3044500D01*
X33828039Y-3044500D01*
X33828036Y-3044500D01*
X33689949Y-3085045D01*
X33568873Y-3162856D01*
X33474623Y-3271626D01*
X33474622Y-3271628D01*
X33414834Y-3402543D01*
X33394353Y-3545000D01*
X33414834Y-3687455D01*
X33419525Y-3697727D01*
X33426865Y-3723938D01*
X33427981Y-3723695D01*
X33429280Y-3729638D01*
X33429281Y-3729646D01*
X33512517Y-3986610D01*
X33543466Y-4082155D01*
X33549500Y-4120366D01*
X33549500Y-8229456D01*
X33529815Y-8296495D01*
X33477011Y-8342250D01*
X33407853Y-8352194D01*
X33344297Y-8323169D01*
X33337819Y-8317137D01*
X32756819Y-7736137D01*
X32723334Y-7674814D01*
X32720500Y-7648456D01*
X32720500Y-4120365D01*
X32726534Y-4082154D01*
X32840718Y-3729646D01*
X32840719Y-3729636D01*
X32841938Y-3724329D01*
X32842650Y-3724492D01*
X32850359Y-3697978D01*
X32855165Y-3687457D01*
X32875647Y-3545000D01*
X32855165Y-3402543D01*
X32795377Y-3271627D01*
X32701128Y-3162857D01*
X32580053Y-3085047D01*
X32580051Y-3085046D01*
X32580049Y-3085045D01*
X32580050Y-3085045D01*
X32441963Y-3044500D01*
X32441961Y-3044500D01*
X32298039Y-3044500D01*
X32298036Y-3044500D01*
X32159949Y-3085045D01*
X32038873Y-3162856D01*
X31944623Y-3271626D01*
X31944622Y-3271628D01*
X31884834Y-3402543D01*
X31864353Y-3545000D01*
X31884834Y-3687455D01*
X31889525Y-3697727D01*
X31896865Y-3723938D01*
X31897981Y-3723695D01*
X31899280Y-3729638D01*
X31899281Y-3729646D01*
X31982517Y-3986610D01*
X32013466Y-4082155D01*
X32019500Y-4120366D01*
X32019500Y-7891145D01*
X32035452Y-7950680D01*
X32043385Y-7980285D01*
X32043387Y-7980290D01*
X32089527Y-8060208D01*
X32089531Y-8060213D01*
X36754046Y-12724727D01*
X36776375Y-12755192D01*
X36903913Y-13000420D01*
X36944189Y-13077864D01*
X36947424Y-13084083D01*
X36952688Y-13090960D01*
X36967013Y-13114813D01*
X36984675Y-13153487D01*
X36994619Y-13222646D01*
X36984674Y-13256513D01*
X36966950Y-13295321D01*
X36950727Y-13321591D01*
X36947678Y-13325375D01*
X36922070Y-13374346D01*
X36914838Y-13388179D01*
X36900590Y-13415426D01*
X36900589Y-13415427D01*
X36775868Y-13653930D01*
X36753666Y-13684150D01*
X32079531Y-18358286D01*
X32079527Y-18358291D01*
X32033387Y-18438209D01*
X32033386Y-18438212D01*
X32009500Y-18527356D01*
X32009500Y-21269633D01*
X32003466Y-21307844D01*
X31889278Y-21660360D01*
X31888063Y-21665661D01*
X31887358Y-21665499D01*
X31879642Y-21692014D01*
X31874835Y-21702539D01*
X31874835Y-21702542D01*
X31854353Y-21845000D01*
X27015500Y-21845000D01*
X27015500Y-21029010D01*
X27015500Y-21029000D01*
X27008518Y-20964059D01*
X26997312Y-20912548D01*
X26986354Y-20874342D01*
X26929675Y-20777429D01*
X26883920Y-20724625D01*
X26883918Y-20724623D01*
X26883908Y-20724612D01*
X26839192Y-20682451D01*
X26839189Y-20682449D01*
X26839187Y-20682447D01*
X26739111Y-20631561D01*
X26739110Y-20631560D01*
X26739109Y-20631560D01*
X26672073Y-20611876D01*
X26586850Y-20599621D01*
X26523295Y-20570595D01*
X26485522Y-20511816D01*
X26480500Y-20476884D01*
X26480500Y-16901840D01*
X26484057Y-16872354D01*
X26484366Y-16871091D01*
X26484366Y-16871090D01*
X26484367Y-16871088D01*
X26581029Y-16194449D01*
X26582924Y-16176855D01*
X26583042Y-16175233D01*
X26583362Y-16166739D01*
X26584335Y-16155227D01*
X26585682Y-16145000D01*
X26585682Y-16144998D01*
X26565044Y-15988239D01*
X26565044Y-15988238D01*
X26504536Y-15842159D01*
X26408282Y-15716718D01*
X26282841Y-15620464D01*
X26264734Y-15612964D01*
X26136762Y-15559956D01*
X26136760Y-15559955D01*
X25980001Y-15539318D01*
X25979999Y-15539318D01*
X25823239Y-15559955D01*
X25823237Y-15559956D01*
X25677160Y-15620463D01*
X25551718Y-15716718D01*
X25455463Y-15842160D01*
X25394956Y-15988237D01*
X25394955Y-15988239D01*
X25374318Y-16144996D01*
X25374318Y-16144998D01*
X25374318Y-16145000D01*
X25378010Y-16173049D01*
X25378597Y-16188370D01*
X25378703Y-16188366D01*
X25378969Y-16194444D01*
X25417502Y-16464175D01*
X25468349Y-16820103D01*
X25475634Y-16871093D01*
X25476447Y-16874689D01*
X25479500Y-16902034D01*
X25479500Y-20475500D01*
X25459815Y-20542539D01*
X25407011Y-20588294D01*
X25355500Y-20599500D01*
X23104500Y-20599500D01*
X23037461Y-20579815D01*
X22991706Y-20527011D01*
X22980500Y-20475500D01*
X22980500Y-18614110D01*
X22980500Y-18614108D01*
X22946392Y-18486814D01*
X22880500Y-18372686D01*
X22787314Y-18279500D01*
X21637314Y-17129500D01*
X21561504Y-17085731D01*
X21523187Y-17063608D01*
X21459539Y-17046554D01*
X21395892Y-17029500D01*
X21395891Y-17029500D01*
X14007915Y-17029500D01*
X13940876Y-17009815D01*
X13920234Y-16993181D01*
X13464905Y-16537852D01*
X13447785Y-16516449D01*
X13444609Y-16511427D01*
X13215056Y-16216947D01*
X13163316Y-16150573D01*
X13138361Y-16091877D01*
X13074367Y-15643912D01*
X13074365Y-15643908D01*
X13074365Y-15643902D01*
X13073551Y-15640300D01*
X13070500Y-15612964D01*
X13070500Y-9417001D01*
X13073443Y-9393994D01*
X13072994Y-9393924D01*
X13090373Y-9283641D01*
X13120253Y-9220483D01*
X13179536Y-9183505D01*
X13195318Y-9180190D01*
X13306088Y-9164367D01*
X13306103Y-9164362D01*
X13309685Y-9163553D01*
X13337033Y-9160500D01*
X14215890Y-9160500D01*
X14215892Y-9160500D01*
X14343186Y-9126392D01*
X14457314Y-9060500D01*
X17190500Y-6327314D01*
X17256392Y-6213186D01*
X17290500Y-6085892D01*
X17290500Y-5954107D01*
X17290500Y-2601840D01*
X17294057Y-2572354D01*
X17294366Y-2571091D01*
X17294366Y-2571090D01*
X17294367Y-2571088D01*
X17310190Y-2460323D01*
X17339158Y-2396742D01*
X17397902Y-2358914D01*
X17413641Y-2355372D01*
X17414828Y-2355185D01*
X17517906Y-2338941D01*
X17517911Y-2338939D01*
X17518050Y-2338907D01*
X17518342Y-2338872D01*
X17522724Y-2338182D01*
X17522750Y-2338352D01*
X17546915Y-2335500D01*
X24365500Y-2335500D01*
X24432539Y-2355185D01*
X24478294Y-2407989D01*
X24489500Y-2459500D01*
X24489500Y-6587997D01*
X24486557Y-6611005D01*
X24487006Y-6611076D01*
X24398633Y-7171848D01*
X24395924Y-7184623D01*
X24394957Y-7188231D01*
X24389601Y-7228909D01*
X24389151Y-7232022D01*
X24379737Y-7291757D01*
X24377433Y-7311190D01*
X24377291Y-7312975D01*
X24376952Y-7321177D01*
X24375998Y-7332227D01*
X24374318Y-7344995D01*
X24374318Y-7345003D01*
X24378723Y-7378467D01*
X24379347Y-7392178D01*
X24379385Y-7392176D01*
X24379738Y-7398251D01*
X24389155Y-7458013D01*
X24389605Y-7461124D01*
X24394956Y-7501762D01*
X24394957Y-7501765D01*
X24395920Y-7505358D01*
X24398633Y-7518149D01*
X24486007Y-8072581D01*
X24486033Y-8072745D01*
X24486117Y-8073097D01*
X24486205Y-8073847D01*
X24486792Y-8077606D01*
X24486649Y-8077628D01*
X24489500Y-8101865D01*
X24489500Y-8348158D01*
X24485946Y-8377633D01*
X24485634Y-8378906D01*
X24485633Y-8378911D01*
X24485633Y-8378912D01*
X24407709Y-8924383D01*
X24388970Y-9055553D01*
X24387074Y-9073149D01*
X24386967Y-9074626D01*
X24386957Y-9074766D01*
X24386636Y-9083274D01*
X24385664Y-9094769D01*
X24384318Y-9104997D01*
X24384318Y-9105001D01*
X24404955Y-9261760D01*
X24404956Y-9261762D01*
X24457863Y-9389492D01*
X24465464Y-9407841D01*
X24561718Y-9533282D01*
X24687159Y-9629536D01*
X24833238Y-9690044D01*
X24911619Y-9700363D01*
X24989999Y-9710682D01*
X24990000Y-9710682D01*
X24990001Y-9710682D01*
X25055134Y-9702107D01*
X25146762Y-9690044D01*
X25292841Y-9629536D01*
X25418282Y-9533282D01*
X25514536Y-9407841D01*
X25575044Y-9261762D01*
X25595682Y-9105000D01*
X25591988Y-9076947D01*
X25591404Y-9061637D01*
X25591296Y-9061642D01*
X25591029Y-9055553D01*
X25562467Y-8855616D01*
X25494367Y-8378912D01*
X25494365Y-8378908D01*
X25494365Y-8378902D01*
X25493551Y-8375300D01*
X25490500Y-8347964D01*
X25490500Y-8097889D01*
X25493664Y-8070054D01*
X25494715Y-8065488D01*
X25494718Y-8065480D01*
X25581705Y-7390831D01*
X25583255Y-7374888D01*
X25583351Y-7373425D01*
X25583640Y-7364939D01*
X25584628Y-7352999D01*
X25585682Y-7345000D01*
X25582618Y-7321737D01*
X25582103Y-7305255D01*
X25581888Y-7305262D01*
X25581705Y-7299170D01*
X25566852Y-7183971D01*
X25494718Y-6624520D01*
X25494716Y-6624513D01*
X25493653Y-6619533D01*
X25494492Y-6619353D01*
X25490500Y-6592247D01*
X25490500Y-2459500D01*
X25510185Y-2392461D01*
X25562989Y-2346706D01*
X25614500Y-2335500D01*
X33913003Y-2335500D01*
X33936006Y-2338442D01*
X33936077Y-2337993D01*
X34136852Y-2369633D01*
X34496842Y-2426364D01*
X34509642Y-2429080D01*
X34513232Y-2430041D01*
X34513238Y-2430044D01*
X34553914Y-2435399D01*
X34557009Y-2435846D01*
X34616743Y-2445260D01*
X34636148Y-2447562D01*
X34637936Y-2447705D01*
X34646160Y-2448044D01*
X34657225Y-2449000D01*
X34669997Y-2450682D01*
X34670000Y-2450682D01*
X34670001Y-2450682D01*
X34722254Y-2443802D01*
X34826762Y-2430044D01*
X34972841Y-2369536D01*
X35098282Y-2273282D01*
X35194536Y-2147841D01*
X35255044Y-2001762D01*
X35275682Y-1845000D01*
X35275681Y-1844996D01*
X35255044Y-1688239D01*
X35255044Y-1688238D01*
X35194536Y-1542159D01*
X35098282Y-1416718D01*
X34972841Y-1320464D01*
X34826762Y-1259956D01*
X34826760Y-1259955D01*
X34670002Y-1239318D01*
X34669997Y-1239318D01*
X34646735Y-1242380D01*
X34630247Y-1242899D01*
X34630254Y-1243111D01*
X34624168Y-1243293D01*
X33949514Y-1330282D01*
X33944536Y-1331346D01*
X33944356Y-1330505D01*
X33917247Y-1334500D01*
X17542888Y-1334500D01*
X17515053Y-1331336D01*
X17510483Y-1330283D01*
X17510480Y-1330282D01*
X17510476Y-1330281D01*
X17510474Y-1330281D01*
X16835807Y-1243290D01*
X16819808Y-1241738D01*
X16818379Y-1241645D01*
X16818356Y-1241644D01*
X16818353Y-1241644D01*
X16816398Y-1241577D01*
X16809924Y-1241356D01*
X16797990Y-1240369D01*
X16790001Y-1239318D01*
X16789998Y-1239318D01*
X16633238Y-1259956D01*
X16633237Y-1259956D01*
X16487160Y-1320463D01*
X16361718Y-1416718D01*
X16265463Y-1542160D01*
X16204956Y-1688237D01*
X16204955Y-1688239D01*
X16184318Y-1844996D01*
X16184318Y-1844998D01*
X16184318Y-1845000D01*
X16188010Y-1873049D01*
X16188597Y-1888370D01*
X16188703Y-1888366D01*
X16188969Y-1894444D01*
X16209266Y-2036523D01*
X16270649Y-2466203D01*
X16285634Y-2571093D01*
X16286447Y-2574689D01*
X16289500Y-2602034D01*
X16289500Y-5761324D01*
X16269815Y-5828363D01*
X16253181Y-5849005D01*
X13979005Y-8123181D01*
X13917682Y-8156666D01*
X13891324Y-8159500D01*
X13336841Y-8159500D01*
X13307362Y-8155945D01*
X13306091Y-8155634D01*
X13306090Y-8155633D01*
X13306088Y-8155633D01*
X12629444Y-8058969D01*
X12611750Y-8057067D01*
X12611747Y-8057066D01*
X12611740Y-8057066D01*
X12610116Y-8056948D01*
X12601720Y-8056633D01*
X12590196Y-8055660D01*
X12580002Y-8054318D01*
X12579998Y-8054318D01*
X12423239Y-8074955D01*
X12423237Y-8074956D01*
X12277160Y-8135463D01*
X12151718Y-8231718D01*
X12055463Y-8357160D01*
X11994956Y-8503237D01*
X11994955Y-8503239D01*
X11974318Y-8659998D01*
X11974318Y-8660001D01*
X11977376Y-8683230D01*
X11977893Y-8699721D01*
X11978107Y-8699715D01*
X11978289Y-8705791D01*
X11978290Y-8705800D01*
X11978290Y-8705803D01*
X11978332Y-8706129D01*
X11978336Y-8706155D01*
X12065283Y-9380488D01*
X12066347Y-9385471D01*
X12065505Y-9385650D01*
X12069500Y-9412754D01*
X12069500Y-15613158D01*
X12065946Y-15642633D01*
X12065634Y-15643906D01*
X12065633Y-15643911D01*
X12065633Y-15643912D01*
X12044358Y-15792835D01*
X11968969Y-16320554D01*
X11967074Y-16338149D01*
X11966967Y-16339626D01*
X11966957Y-16339766D01*
X11966636Y-16348274D01*
X11965664Y-16359769D01*
X11964318Y-16369997D01*
X5605500Y-16369997D01*
X5605500Y-10069010D01*
X5605500Y-10069000D01*
X5598518Y-10004059D01*
X5587312Y-9952548D01*
X5576354Y-9914342D01*
X5519675Y-9817429D01*
X5473920Y-9764625D01*
X5473918Y-9764623D01*
X5473908Y-9764612D01*
X5429192Y-9722451D01*
X5429189Y-9722449D01*
X5429187Y-9722447D01*
X5329111Y-9671561D01*
X5329110Y-9671560D01*
X5329109Y-9671560D01*
X5262078Y-9651877D01*
X5262072Y-9651876D01*
X5176000Y-9639500D01*
X3104000Y-9639500D01*
X3103991Y-9639500D01*
X3103990Y-9639501D01*
X3039064Y-9646481D01*
X3039043Y-9646484D01*
X2994561Y-9656161D01*
X2924869Y-9651176D01*
X2868936Y-9609305D01*
X2860817Y-9596995D01*
X2797507Y-9487338D01*
X2797503Y-9487333D01*
X2699666Y-9389496D01*
X2699661Y-9389492D01*
X2579838Y-9320313D01*
X2579837Y-9320312D01*
X2579836Y-9320312D01*
X2446183Y-9284500D01*
X2307817Y-9284500D01*
X2174164Y-9320312D01*
X2174161Y-9320313D01*
X2054338Y-9389492D01*
X2054333Y-9389496D01*
X1956496Y-9487333D01*
X1956492Y-9487338D01*
X1887313Y-9607161D01*
X1887312Y-9607164D01*
X1851500Y-9740817D01*
X-2749500Y-9740817D01*
X-2749500Y-3305000D01*
X-1805408Y-3305000D01*
X-1785799Y-3591680D01*
X-1727334Y-3873034D01*
X-1727333Y-3873037D01*
X-1631106Y-4143793D01*
X-1631107Y-4143793D01*
X-1498902Y-4398935D01*
X-1333188Y-4633700D01*
X-1248077Y-4724831D01*
X-1137053Y-4843708D01*
X-1054954Y-4910500D01*
X-914147Y-5025055D01*
X-668618Y-5174365D01*
X-495637Y-5249500D01*
X-405058Y-5288844D01*
X-128358Y-5366371D01*
X121920Y-5400771D01*
X156321Y-5405500D01*
X156322Y-5405500D01*
X443679Y-5405500D01*
X474370Y-5401281D01*
X728358Y-5366371D01*
X1005058Y-5288844D01*
X1118015Y-5239779D01*
X1268617Y-5174365D01*
X1268620Y-5174363D01*
X1268625Y-5174361D01*
X1514147Y-5025055D01*
X1737053Y-4843708D01*
X1933189Y-4633698D01*
X2098901Y-4398936D01*
X2231104Y-4143797D01*
X2327334Y-3873032D01*
X2385798Y-3591686D01*
X2405408Y-3305000D01*
X2385798Y-3018314D01*
X2327334Y-2736968D01*
X2231105Y-2466206D01*
X2231106Y-2466206D01*
X2098901Y-2211064D01*
X1933187Y-1976299D01*
X1847420Y-1884466D01*
X1737053Y-1766292D01*
X1608452Y-1661667D01*
X1514146Y-1584944D01*
X1268617Y-1435634D01*
X1005063Y-1321158D01*
X1005061Y-1321157D01*
X1005058Y-1321156D01*
X863655Y-1281537D01*
X728364Y-1243630D01*
X728359Y-1243629D01*
X728358Y-1243629D01*
X586018Y-1224064D01*
X443679Y-1204500D01*
X443678Y-1204500D01*
X156322Y-1204500D01*
X156321Y-1204500D01*
X-128358Y-1243629D01*
X-128365Y-1243630D01*
X-336139Y-1301845D01*
X-405058Y-1321156D01*
X-405061Y-1321156D01*
X-405064Y-1321158D01*
X-405065Y-1321158D01*
X-668618Y-1435634D01*
X-914147Y-1584944D01*
X-1137050Y-1766289D01*
X-1333188Y-1976299D01*
X-1498902Y-2211064D01*
X-1631106Y-2466206D01*
X-1727333Y-2736962D01*
X-1727334Y-2736965D01*
X-1785799Y-3018319D01*
X-1805408Y-3305000D01*
X-2749500Y-3305000D01*
X-2749500Y-2004427D01*
X-2749184Y-1995581D01*
X-2738415Y-1845001D01*
X-2732326Y-1759857D01*
X-2729810Y-1742360D01*
X-2680517Y-1515766D01*
X-2675540Y-1498815D01*
X-2594499Y-1281536D01*
X-2587149Y-1265444D01*
X-2584152Y-1259955D01*
X-2476019Y-1061923D01*
X-2466463Y-1047054D01*
X-2327494Y-861413D01*
X-2315920Y-848056D01*
X-2151944Y-684080D01*
X-2138587Y-672506D01*
X-1952946Y-533537D01*
X-1938077Y-523981D01*
X-1734556Y-412850D01*
X-1718463Y-405501D01*
X-1501185Y-324460D01*
X-1484234Y-319483D01*
X-1257640Y-270190D01*
X-1240143Y-267674D01*
X-1004418Y-250816D01*
X-995572Y-250500D01*
X-955830Y-250500D01*
X46955830Y-250500D01*
X46995572Y-250500D01*
X47004418Y-250816D01*
G37*
%TD.AperFunction*%
%TD*%
%TA.AperFunction,Conductor*%
%TO.N,+5V*%
G36*
X5243039Y-9964685D02*
G01*
X5288794Y-10017489D01*
X5300000Y-10069000D01*
X5300000Y-19715000D01*
X5300000Y-22564953D01*
X11505303Y-22563233D01*
X11505979Y-20938946D01*
X11525691Y-20871917D01*
X11578514Y-20826184D01*
X11629979Y-20815000D01*
X13176000Y-20815000D01*
X13243039Y-20834685D01*
X13288794Y-20887489D01*
X13300000Y-20939000D01*
X13300000Y-24191103D01*
X13280315Y-24258142D01*
X13227511Y-24303897D01*
X13176103Y-24315103D01*
X3104103Y-24323485D01*
X3037047Y-24303856D01*
X2991249Y-24251090D01*
X2980000Y-24199485D01*
X2980000Y-17949500D01*
X2999685Y-17882461D01*
X3052489Y-17836706D01*
X3104000Y-17825500D01*
X3505844Y-17825500D01*
X3505845Y-17825499D01*
X3660497Y-17794737D01*
X3773166Y-17748067D01*
X3806172Y-17734397D01*
X3806172Y-17734396D01*
X3806179Y-17734394D01*
X3937289Y-17646789D01*
X4048789Y-17535289D01*
X4136394Y-17404179D01*
X4196737Y-17258497D01*
X4227500Y-17103842D01*
X4227500Y-16946158D01*
X4227500Y-16946155D01*
X4227499Y-16946153D01*
X4210599Y-16861193D01*
X4196737Y-16791503D01*
X4190947Y-16777525D01*
X4136397Y-16645827D01*
X4136390Y-16645814D01*
X4048789Y-16514711D01*
X4048786Y-16514707D01*
X3937292Y-16403213D01*
X3937288Y-16403210D01*
X3806185Y-16315609D01*
X3806172Y-16315602D01*
X3660501Y-16255264D01*
X3660489Y-16255261D01*
X3505845Y-16224500D01*
X3505842Y-16224500D01*
X3104000Y-16224500D01*
X3036961Y-16204815D01*
X2991206Y-16152011D01*
X2980000Y-16100500D01*
X2980000Y-14059152D01*
X2999685Y-13992113D01*
X3052489Y-13946358D01*
X3056536Y-13944596D01*
X3077625Y-13935861D01*
X3192621Y-13847621D01*
X3280861Y-13732625D01*
X3336330Y-13598709D01*
X3355250Y-13455000D01*
X3336330Y-13311291D01*
X3326989Y-13288741D01*
X3318571Y-13257162D01*
X3318285Y-13254947D01*
X3318285Y-13254946D01*
X3233502Y-12993208D01*
X3231571Y-12923368D01*
X3233496Y-12916809D01*
X3318285Y-12655053D01*
X3318762Y-12651603D01*
X3327029Y-12621161D01*
X3336330Y-12598709D01*
X3355250Y-12455000D01*
X3336330Y-12311291D01*
X3290576Y-12200830D01*
X3280862Y-12177377D01*
X3280861Y-12177376D01*
X3280861Y-12177375D01*
X3192621Y-12062379D01*
X3077625Y-11974139D01*
X3056545Y-11965407D01*
X3002143Y-11921566D01*
X2980079Y-11855272D01*
X2980000Y-11850847D01*
X2980000Y-10069000D01*
X2999685Y-10001961D01*
X3052489Y-9956206D01*
X3104000Y-9945000D01*
X5176000Y-9945000D01*
X5243039Y-9964685D01*
G37*
%TD.AperFunction*%
%TD*%
%TA.AperFunction,Conductor*%
%TO.N,+3.3V*%
G36*
X26653039Y-20924685D02*
G01*
X26698794Y-20977489D01*
X26710000Y-21029000D01*
X26710000Y-24181000D01*
X26690315Y-24248039D01*
X26637511Y-24293794D01*
X26586000Y-24305000D01*
X20204000Y-24305000D01*
X20136961Y-24285315D01*
X20091206Y-24232511D01*
X20080000Y-24181000D01*
X20080000Y-21029000D01*
X20099685Y-20961961D01*
X20152489Y-20916206D01*
X20204000Y-20905000D01*
X26586000Y-20905000D01*
X26653039Y-20924685D01*
G37*
%TD.AperFunction*%
%TD*%
%TA.AperFunction,Conductor*%
%TO.N,+3.3V*%
G36*
X26316549Y-16144961D02*
G01*
X26324812Y-16148412D01*
X26328215Y-16156694D01*
X26328097Y-16158316D01*
X26231435Y-16834955D01*
X26226873Y-16842660D01*
X26219853Y-16845000D01*
X25740147Y-16845000D01*
X25731874Y-16841573D01*
X25728565Y-16834955D01*
X25631902Y-16158316D01*
X25634124Y-16149641D01*
X25641829Y-16145079D01*
X25643442Y-16144961D01*
X25980000Y-16144000D01*
X26316549Y-16144961D01*
G37*
%TD.AperFunction*%
%TD*%
%TA.AperFunction,Conductor*%
%TO.N,+3.3V*%
G36*
X34665484Y-1499037D02*
G01*
X34669941Y-1506804D01*
X34670037Y-1508267D01*
X34671000Y-1845000D01*
X34671000Y-1845066D01*
X34670038Y-2181351D01*
X34666587Y-2189615D01*
X34658305Y-2193018D01*
X34656517Y-2192875D01*
X33981868Y-2086556D01*
X33974229Y-2081883D01*
X33971989Y-2074999D01*
X33971989Y-1595288D01*
X33975416Y-1587015D01*
X33982192Y-1583684D01*
X34656842Y-1496696D01*
X34665484Y-1499037D01*
G37*
%TD.AperFunction*%
%TD*%
%TA.AperFunction,Conductor*%
%TO.N,+3.3V*%
G36*
X22728126Y-20558427D02*
G01*
X22731435Y-20565045D01*
X22779999Y-20904999D01*
X22780000Y-20905000D01*
X22830000Y-21255000D01*
X22480000Y-21256000D01*
X22130000Y-21255000D01*
X22228565Y-20565045D01*
X22233127Y-20557340D01*
X22240147Y-20555000D01*
X22719853Y-20555000D01*
X22728126Y-20558427D01*
G37*
%TD.AperFunction*%
%TD*%
%TA.AperFunction,Conductor*%
%TO.N,+3.3V*%
G36*
X16803149Y-1496695D02*
G01*
X17477807Y-1583684D01*
X17485574Y-1588141D01*
X17488011Y-1595288D01*
X17488011Y-2074999D01*
X17484584Y-2083272D01*
X17478132Y-2086556D01*
X16803482Y-2192875D01*
X16794777Y-2190778D01*
X16790104Y-2183139D01*
X16789961Y-2181351D01*
X16789000Y-1845066D01*
X16789000Y-1845000D01*
X16789962Y-1508267D01*
X16793413Y-1500003D01*
X16801695Y-1496600D01*
X16803149Y-1496695D01*
G37*
%TD.AperFunction*%
%TD*%
%TA.AperFunction,Conductor*%
%TO.N,+3.3V*%
G36*
X23180000Y-21005000D02*
G01*
X23180000Y-21505000D01*
X22480000Y-21605000D01*
X22479000Y-21255000D01*
X22480000Y-20905000D01*
X23180000Y-21005000D01*
G37*
%TD.AperFunction*%
%TD*%
%TA.AperFunction,Conductor*%
%TO.N,+3.3V*%
G36*
X12824672Y-16131868D02*
G01*
X12825603Y-16132924D01*
X13243100Y-16668509D01*
X13245483Y-16677141D01*
X13242145Y-16683975D01*
X12904529Y-17021591D01*
X12896256Y-17025018D01*
X12887983Y-17021591D01*
X12798342Y-16931950D01*
X12685303Y-16874353D01*
X12680438Y-16873583D01*
X12675435Y-16871523D01*
X12333648Y-16625502D01*
X12328935Y-16617887D01*
X12330987Y-16609171D01*
X12332171Y-16607773D01*
X12569293Y-16369293D01*
X12808127Y-16131819D01*
X12816408Y-16128417D01*
X12824672Y-16131868D01*
G37*
%TD.AperFunction*%
%TD*%
%TA.AperFunction,Conductor*%
%TO.N,+3.3V*%
G36*
X17126549Y-1844961D02*
G01*
X17134812Y-1848412D01*
X17138215Y-1856694D01*
X17138097Y-1858316D01*
X17041435Y-2534955D01*
X17036873Y-2542660D01*
X17029853Y-2545000D01*
X16550147Y-2545000D01*
X16541874Y-2541573D01*
X16538565Y-2534955D01*
X16441902Y-1858316D01*
X16444124Y-1849641D01*
X16451829Y-1845079D01*
X16453442Y-1844961D01*
X16790000Y-1844000D01*
X17126549Y-1844961D01*
G37*
%TD.AperFunction*%
%TD*%
%TA.AperFunction,Conductor*%
%TO.N,+3.3V*%
G36*
X12916351Y-8659961D02*
G01*
X12924615Y-8663412D01*
X12928018Y-8671694D01*
X12927875Y-8673482D01*
X12821557Y-9348132D01*
X12816884Y-9355771D01*
X12810000Y-9358011D01*
X12330288Y-9358011D01*
X12322015Y-9354584D01*
X12318684Y-9347807D01*
X12231738Y-8673482D01*
X12231696Y-8673156D01*
X12234037Y-8664515D01*
X12241804Y-8660058D01*
X12243265Y-8659962D01*
X12580000Y-8659000D01*
X12916351Y-8659961D01*
G37*
%TD.AperFunction*%
%TD*%
%TA.AperFunction,Conductor*%
%TO.N,+3.3V*%
G36*
X12818126Y-15673427D02*
G01*
X12821435Y-15680045D01*
X12918097Y-16356683D01*
X12915875Y-16365358D01*
X12908170Y-16369920D01*
X12906548Y-16370038D01*
X12570033Y-16370999D01*
X12569967Y-16370999D01*
X12233451Y-16370038D01*
X12225187Y-16366587D01*
X12221784Y-16358305D01*
X12221902Y-16356683D01*
X12318565Y-15680045D01*
X12323127Y-15672340D01*
X12330147Y-15670000D01*
X12809853Y-15670000D01*
X12818126Y-15673427D01*
G37*
%TD.AperFunction*%
%TD*%
%TA.AperFunction,Conductor*%
%TO.N,+3.3V*%
G36*
X34535026Y-23205476D02*
G01*
X34540020Y-23211129D01*
X34669119Y-23520494D01*
X34669142Y-23529449D01*
X34669119Y-23529506D01*
X34540287Y-23838230D01*
X34533938Y-23844545D01*
X34525683Y-23844788D01*
X33981872Y-23657715D01*
X33975164Y-23651783D01*
X33973978Y-23646651D01*
X33973978Y-23363935D01*
X33977405Y-23355662D01*
X33982598Y-23352648D01*
X34526142Y-23204348D01*
X34535026Y-23205476D01*
G37*
%TD.AperFunction*%
%TD*%
%TA.AperFunction,Conductor*%
%TO.N,+3.3V*%
G36*
X25515000Y-23355000D02*
G01*
X25515000Y-23655000D01*
X24948939Y-23828358D01*
X24814000Y-23505000D01*
X24948939Y-23181642D01*
X25515000Y-23355000D01*
G37*
%TD.AperFunction*%
%TD*%
%TA.AperFunction,Conductor*%
%TO.N,+3.3V*%
G36*
X25237985Y-6650416D02*
G01*
X25241316Y-6657193D01*
X25328303Y-7331841D01*
X25325962Y-7340484D01*
X25318195Y-7344941D01*
X25316732Y-7345037D01*
X24980033Y-7345999D01*
X24979967Y-7345999D01*
X24643648Y-7345038D01*
X24635384Y-7341587D01*
X24631981Y-7333305D01*
X24632123Y-7331527D01*
X24738443Y-6656867D01*
X24743116Y-6649229D01*
X24750000Y-6646989D01*
X25229712Y-6646989D01*
X25237985Y-6650416D01*
G37*
%TD.AperFunction*%
%TD*%
%TA.AperFunction,Conductor*%
%TO.N,+3.3V*%
G36*
X25316732Y-7344962D02*
G01*
X25324996Y-7348413D01*
X25328399Y-7356695D01*
X25328303Y-7358158D01*
X25241316Y-8032807D01*
X25236859Y-8040574D01*
X25229712Y-8043011D01*
X24750000Y-8043011D01*
X24741727Y-8039584D01*
X24738443Y-8033132D01*
X24738392Y-8032807D01*
X24632124Y-7358480D01*
X24634221Y-7349777D01*
X24641860Y-7345104D01*
X24643647Y-7344961D01*
X24980000Y-7344000D01*
X25316732Y-7344962D01*
G37*
%TD.AperFunction*%
%TD*%
%TA.AperFunction,Conductor*%
%TO.N,+3.3V*%
G36*
X25238126Y-8408427D02*
G01*
X25241435Y-8415045D01*
X25338097Y-9091683D01*
X25335875Y-9100358D01*
X25328170Y-9104920D01*
X25326548Y-9105038D01*
X24990033Y-9105999D01*
X24989967Y-9105999D01*
X24653451Y-9105038D01*
X24645187Y-9101587D01*
X24641784Y-9093305D01*
X24641902Y-9091683D01*
X24738565Y-8415045D01*
X24743127Y-8407340D01*
X24750147Y-8405000D01*
X25229853Y-8405000D01*
X25238126Y-8408427D01*
G37*
%TD.AperFunction*%
%TD*%
%TA.AperFunction,Conductor*%
%TO.N,+3.3V*%
G36*
X12593311Y-8311901D02*
G01*
X13269955Y-8408565D01*
X13277660Y-8413127D01*
X13280000Y-8420147D01*
X13280000Y-8899853D01*
X13276573Y-8908126D01*
X13269955Y-8911435D01*
X12593316Y-9008097D01*
X12584641Y-9005875D01*
X12580079Y-8998170D01*
X12579961Y-8996556D01*
X12579000Y-8660000D01*
X12579961Y-8323449D01*
X12583412Y-8315187D01*
X12591694Y-8311784D01*
X12593311Y-8311901D01*
G37*
%TD.AperFunction*%
%TD*%
%TA.AperFunction,Conductor*%
%TO.N,/USB_Data+*%
G36*
X2899764Y-12958427D02*
G01*
X2902622Y-12963095D01*
X3027652Y-13349087D01*
X3026941Y-13358013D01*
X3021038Y-13363485D01*
X2804517Y-13454109D01*
X2795563Y-13454142D01*
X2795483Y-13454109D01*
X2578961Y-13363485D01*
X2572652Y-13357129D01*
X2572347Y-13349088D01*
X2697378Y-12963095D01*
X2703188Y-12956280D01*
X2708509Y-12955000D01*
X2891491Y-12955000D01*
X2899764Y-12958427D01*
G37*
%TD.AperFunction*%
%TD*%
%TA.AperFunction,Conductor*%
%TO.N,/USB_Data+*%
G36*
X3021038Y-12546514D02*
G01*
X3027347Y-12552870D01*
X3027652Y-12560912D01*
X2902622Y-12946905D01*
X2896812Y-12953720D01*
X2891491Y-12955000D01*
X2708509Y-12955000D01*
X2700236Y-12951573D01*
X2697378Y-12946905D01*
X2572347Y-12560912D01*
X2573058Y-12551986D01*
X2578960Y-12546514D01*
X2795484Y-12455889D01*
X2804437Y-12455857D01*
X3021038Y-12546514D01*
G37*
%TD.AperFunction*%
%TD*%
%TA.AperFunction,Conductor*%
%TO.N,/INPUT1*%
G36*
X37191038Y-3636514D02*
G01*
X37197347Y-3642870D01*
X37197652Y-3650912D01*
X37072622Y-4036905D01*
X37066812Y-4043720D01*
X37061491Y-4045000D01*
X36878509Y-4045000D01*
X36870236Y-4041573D01*
X36867378Y-4036905D01*
X36742347Y-3650912D01*
X36743058Y-3641986D01*
X36748960Y-3636514D01*
X36965484Y-3545889D01*
X36974437Y-3545857D01*
X37191038Y-3636514D01*
G37*
%TD.AperFunction*%
%TD*%
%TA.AperFunction,Conductor*%
%TO.N,/INPUT1*%
G36*
X37134732Y-10504604D02*
G01*
X37496084Y-10689134D01*
X37501893Y-10695948D01*
X37501588Y-10703991D01*
X37412564Y-10921176D01*
X37406255Y-10927531D01*
X37406176Y-10927564D01*
X37188991Y-11016588D01*
X37180036Y-11016555D01*
X37174134Y-11011084D01*
X36989604Y-10649733D01*
X36988894Y-10640808D01*
X36991750Y-10636142D01*
X37121141Y-10506751D01*
X37129413Y-10503325D01*
X37134732Y-10504604D01*
G37*
%TD.AperFunction*%
%TD*%
%TA.AperFunction,Conductor*%
%TO.N,/INPUT2*%
G36*
X35651038Y-3636514D02*
G01*
X35657347Y-3642870D01*
X35657652Y-3650912D01*
X35532622Y-4036905D01*
X35526812Y-4043720D01*
X35521491Y-4045000D01*
X35338509Y-4045000D01*
X35330236Y-4041573D01*
X35327378Y-4036905D01*
X35202347Y-3650912D01*
X35203058Y-3641986D01*
X35208960Y-3636514D01*
X35425484Y-3545889D01*
X35434437Y-3545857D01*
X35651038Y-3636514D01*
G37*
%TD.AperFunction*%
%TD*%
%TA.AperFunction,Conductor*%
%TO.N,/INPUT2*%
G36*
X37112288Y-11191572D02*
G01*
X37426332Y-11317273D01*
X37494718Y-11344646D01*
X37501125Y-11350902D01*
X37501232Y-11359856D01*
X37501196Y-11359945D01*
X37412564Y-11576175D01*
X37406255Y-11582531D01*
X37406175Y-11582564D01*
X37188171Y-11671923D01*
X37179217Y-11671890D01*
X37173804Y-11667285D01*
X37120990Y-11582531D01*
X36968620Y-11338014D01*
X36967154Y-11329181D01*
X36970276Y-11323556D01*
X37099671Y-11194161D01*
X37107943Y-11190735D01*
X37112288Y-11191572D01*
G37*
%TD.AperFunction*%
%TD*%
%TA.AperFunction,Conductor*%
%TO.N,/INPUT3*%
G36*
X34121038Y-3636514D02*
G01*
X34127347Y-3642870D01*
X34127652Y-3650912D01*
X34002622Y-4036905D01*
X33996812Y-4043720D01*
X33991491Y-4045000D01*
X33808509Y-4045000D01*
X33800236Y-4041573D01*
X33797378Y-4036905D01*
X33672347Y-3650912D01*
X33673058Y-3641986D01*
X33678960Y-3636514D01*
X33895484Y-3545889D01*
X33904437Y-3545857D01*
X34121038Y-3636514D01*
G37*
%TD.AperFunction*%
%TD*%
%TA.AperFunction,Conductor*%
%TO.N,/INPUT3*%
G36*
X37132696Y-11812505D02*
G01*
X37141851Y-11817083D01*
X37159258Y-11825788D01*
X37162296Y-11827978D01*
X37201413Y-11867095D01*
X37300339Y-11917500D01*
X37360470Y-11927024D01*
X37363869Y-11928114D01*
X37495960Y-11994173D01*
X37501827Y-12000938D01*
X37501553Y-12009074D01*
X37412564Y-12226175D01*
X37406255Y-12232531D01*
X37406175Y-12232564D01*
X37188916Y-12321618D01*
X37179962Y-12321585D01*
X37174099Y-12316190D01*
X37130590Y-12232531D01*
X36987688Y-11957760D01*
X36986912Y-11948840D01*
X36989794Y-11944092D01*
X37119191Y-11814695D01*
X37127463Y-11811269D01*
X37132696Y-11812505D01*
G37*
%TD.AperFunction*%
%TD*%
%TA.AperFunction,Conductor*%
%TO.N,/INPUT4*%
G36*
X37132696Y-12462505D02*
G01*
X37141851Y-12467083D01*
X37159258Y-12475788D01*
X37162296Y-12477978D01*
X37201413Y-12517095D01*
X37300339Y-12567500D01*
X37360470Y-12577024D01*
X37363869Y-12578114D01*
X37495960Y-12644173D01*
X37501827Y-12650938D01*
X37501553Y-12659074D01*
X37412564Y-12876175D01*
X37406255Y-12882531D01*
X37406175Y-12882564D01*
X37188916Y-12971618D01*
X37179962Y-12971585D01*
X37174099Y-12966190D01*
X37130590Y-12882531D01*
X36987688Y-12607760D01*
X36986912Y-12598840D01*
X36989794Y-12594092D01*
X37119191Y-12464695D01*
X37127463Y-12461269D01*
X37132696Y-12462505D01*
G37*
%TD.AperFunction*%
%TD*%
%TA.AperFunction,Conductor*%
%TO.N,/INPUT4*%
G36*
X32591038Y-3636514D02*
G01*
X32597347Y-3642870D01*
X32597652Y-3650912D01*
X32472622Y-4036905D01*
X32466812Y-4043720D01*
X32461491Y-4045000D01*
X32278509Y-4045000D01*
X32270236Y-4041573D01*
X32267378Y-4036905D01*
X32142347Y-3650912D01*
X32143058Y-3641986D01*
X32148960Y-3636514D01*
X32365484Y-3545889D01*
X32374437Y-3545857D01*
X32591038Y-3636514D01*
G37*
%TD.AperFunction*%
%TD*%
%TA.AperFunction,Conductor*%
%TO.N,/INPUT5*%
G36*
X32459764Y-21348427D02*
G01*
X32462622Y-21353095D01*
X32587652Y-21739087D01*
X32586941Y-21748013D01*
X32581038Y-21753485D01*
X32364517Y-21844109D01*
X32355563Y-21844142D01*
X32355483Y-21844109D01*
X32138961Y-21753485D01*
X32132652Y-21747129D01*
X32132347Y-21739088D01*
X32257378Y-21353095D01*
X32263188Y-21346280D01*
X32268509Y-21345000D01*
X32451491Y-21345000D01*
X32459764Y-21348427D01*
G37*
%TD.AperFunction*%
%TD*%
%TA.AperFunction,Conductor*%
%TO.N,/INPUT5*%
G36*
X37188893Y-13438371D02*
G01*
X37406175Y-13527435D01*
X37412531Y-13533744D01*
X37412564Y-13533824D01*
X37501542Y-13750898D01*
X37501509Y-13759852D01*
X37495923Y-13765813D01*
X37341425Y-13842591D01*
X37338049Y-13843669D01*
X37300339Y-13849642D01*
X37201414Y-13900047D01*
X37178663Y-13922797D01*
X37175597Y-13925000D01*
X37132085Y-13946624D01*
X37123151Y-13947238D01*
X37118605Y-13944420D01*
X36989210Y-13815025D01*
X36985783Y-13806752D01*
X36987115Y-13801330D01*
X37127001Y-13533824D01*
X37174090Y-13443774D01*
X37180959Y-13438033D01*
X37188893Y-13438371D01*
G37*
%TD.AperFunction*%
%TD*%
%TA.AperFunction,Conductor*%
%TO.N,/INPUT6*%
G36*
X33989764Y-21348427D02*
G01*
X33992622Y-21353095D01*
X34117652Y-21739087D01*
X34116941Y-21748013D01*
X34111038Y-21753485D01*
X33894517Y-21844109D01*
X33885563Y-21844142D01*
X33885483Y-21844109D01*
X33668961Y-21753485D01*
X33662652Y-21747129D01*
X33662347Y-21739088D01*
X33787378Y-21353095D01*
X33793188Y-21346280D01*
X33798509Y-21345000D01*
X33981491Y-21345000D01*
X33989764Y-21348427D01*
G37*
%TD.AperFunction*%
%TD*%
%TA.AperFunction,Conductor*%
%TO.N,/INPUT6*%
G36*
X37188893Y-14095514D02*
G01*
X37406175Y-14184578D01*
X37412531Y-14190887D01*
X37412564Y-14190967D01*
X37501542Y-14408041D01*
X37501509Y-14416995D01*
X37495923Y-14422956D01*
X37383621Y-14478765D01*
X37380244Y-14479843D01*
X37300340Y-14492499D01*
X37201412Y-14542905D01*
X37150264Y-14594052D01*
X37147198Y-14596256D01*
X37132085Y-14603767D01*
X37123151Y-14604381D01*
X37118605Y-14601563D01*
X36989210Y-14472168D01*
X36985783Y-14463895D01*
X36987115Y-14458473D01*
X37127001Y-14190967D01*
X37174090Y-14100917D01*
X37180959Y-14095176D01*
X37188893Y-14095514D01*
G37*
%TD.AperFunction*%
%TD*%
%TA.AperFunction,Conductor*%
%TO.N,/INPUT7*%
G36*
X37188893Y-14738371D02*
G01*
X37406175Y-14827435D01*
X37412531Y-14833744D01*
X37412564Y-14833824D01*
X37501542Y-15050898D01*
X37501509Y-15059852D01*
X37495923Y-15065813D01*
X37362523Y-15132106D01*
X37359147Y-15133184D01*
X37300339Y-15142499D01*
X37201412Y-15192905D01*
X37164464Y-15229852D01*
X37161398Y-15232056D01*
X37132085Y-15246624D01*
X37123151Y-15247238D01*
X37118605Y-15244420D01*
X36989210Y-15115025D01*
X36985783Y-15106752D01*
X36987115Y-15101330D01*
X37127001Y-14833824D01*
X37174090Y-14743774D01*
X37180959Y-14738033D01*
X37188893Y-14738371D01*
G37*
%TD.AperFunction*%
%TD*%
%TA.AperFunction,Conductor*%
%TO.N,/INPUT7*%
G36*
X35529764Y-21348427D02*
G01*
X35532622Y-21353095D01*
X35657652Y-21739087D01*
X35656941Y-21748013D01*
X35651038Y-21753485D01*
X35434517Y-21844109D01*
X35425563Y-21844142D01*
X35425483Y-21844109D01*
X35208961Y-21753485D01*
X35202652Y-21747129D01*
X35202347Y-21739088D01*
X35327378Y-21353095D01*
X35333188Y-21346280D01*
X35338509Y-21345000D01*
X35521491Y-21345000D01*
X35529764Y-21348427D01*
G37*
%TD.AperFunction*%
%TD*%
%TA.AperFunction,Conductor*%
%TO.N,/INPUT8*%
G36*
X37188893Y-15388371D02*
G01*
X37406175Y-15477435D01*
X37412531Y-15483744D01*
X37412564Y-15483824D01*
X37501542Y-15700898D01*
X37501509Y-15709852D01*
X37495923Y-15715813D01*
X37132084Y-15896624D01*
X37123150Y-15897237D01*
X37118604Y-15894419D01*
X36989210Y-15765025D01*
X36985783Y-15756752D01*
X36987115Y-15751330D01*
X37127001Y-15483824D01*
X37174090Y-15393774D01*
X37180959Y-15388033D01*
X37188893Y-15388371D01*
G37*
%TD.AperFunction*%
%TD*%
%TA.AperFunction,Conductor*%
%TO.N,/INPUT8*%
G36*
X37069764Y-21348427D02*
G01*
X37072622Y-21353095D01*
X37197652Y-21739087D01*
X37196941Y-21748013D01*
X37191038Y-21753485D01*
X36974517Y-21844109D01*
X36965563Y-21844142D01*
X36965483Y-21844109D01*
X36748961Y-21753485D01*
X36742652Y-21747129D01*
X36742347Y-21739088D01*
X36867378Y-21353095D01*
X36873188Y-21346280D01*
X36878509Y-21345000D01*
X37061491Y-21345000D01*
X37069764Y-21348427D01*
G37*
%TD.AperFunction*%
%TD*%
M02*
