%TF.GenerationSoftware,KiCad,Pcbnew,(6.0.11)*%
%TF.CreationDate,2023-02-04T21:15:47+08:00*%
%TF.ProjectId,UINIO-Logic-24MHz,55494e49-4f2d-44c6-9f67-69632d32344d,Version 3.0.0*%
%TF.SameCoordinates,PX91e9840PY6514770*%
%TF.FileFunction,Copper,L2,Bot*%
%TF.FilePolarity,Positive*%
%FSLAX46Y46*%
G04 Gerber Fmt 4.6, Leading zero omitted, Abs format (unit mm)*
G04 Created by KiCad (PCBNEW (6.0.11)) date 2023-02-04 21:15:47*
%MOMM*%
%LPD*%
G01*
G04 APERTURE LIST*
G04 Aperture macros list*
%AMRoundRect*
0 Rectangle with rounded corners*
0 $1 Rounding radius*
0 $2 $3 $4 $5 $6 $7 $8 $9 X,Y pos of 4 corners*
0 Add a 4 corners polygon primitive as box body*
4,1,4,$2,$3,$4,$5,$6,$7,$8,$9,$2,$3,0*
0 Add four circle primitives for the rounded corners*
1,1,$1+$1,$2,$3*
1,1,$1+$1,$4,$5*
1,1,$1+$1,$6,$7*
1,1,$1+$1,$8,$9*
0 Add four rect primitives between the rounded corners*
20,1,$1+$1,$2,$3,$4,$5,0*
20,1,$1+$1,$4,$5,$6,$7,0*
20,1,$1+$1,$6,$7,$8,$9,0*
20,1,$1+$1,$8,$9,$2,$3,0*%
G04 Aperture macros list end*
%TA.AperFunction,ComponentPad*%
%ADD10C,2.200000*%
%TD*%
%TA.AperFunction,ComponentPad*%
%ADD11C,0.500000*%
%TD*%
%TA.AperFunction,SMDPad,CuDef*%
%ADD12RoundRect,0.250002X-2.349998X1.999998X-2.349998X-1.999998X2.349998X-1.999998X2.349998X1.999998X0*%
%TD*%
%TA.AperFunction,ComponentPad*%
%ADD13O,2.100000X1.000000*%
%TD*%
%TA.AperFunction,ComponentPad*%
%ADD14O,1.900000X1.000000*%
%TD*%
%TA.AperFunction,ComponentPad*%
%ADD15R,1.700000X1.700000*%
%TD*%
%TA.AperFunction,ComponentPad*%
%ADD16O,1.700000X1.700000*%
%TD*%
%TA.AperFunction,ViaPad*%
%ADD17C,0.500000*%
%TD*%
%TA.AperFunction,ViaPad*%
%ADD18C,0.900000*%
%TD*%
%TA.AperFunction,ViaPad*%
%ADD19C,0.700000*%
%TD*%
%TA.AperFunction,ViaPad*%
%ADD20C,1.100000*%
%TD*%
%TA.AperFunction,Conductor*%
%ADD21C,0.200000*%
%TD*%
%TA.AperFunction,Conductor*%
%ADD22C,0.700000*%
%TD*%
%TA.AperFunction,Conductor*%
%ADD23C,0.500000*%
%TD*%
%TA.AperFunction,Conductor*%
%ADD24C,0.300000*%
%TD*%
G04 APERTURE END LIST*
D10*
%TO.P,HOLE2,*%
%TO.N,*%
X-38890000Y-22710000D03*
%TD*%
%TO.P,HOLE4,*%
%TO.N,*%
X-800000Y-22710000D03*
%TD*%
D11*
%TO.P,U4,57,EP*%
%TO.N,GND*%
X-16940000Y-10780000D03*
X-15765000Y-10780000D03*
X-16940000Y-14780000D03*
X-19290000Y-10780000D03*
X-16940000Y-13780000D03*
X-15765000Y-11780000D03*
X-19290000Y-14780000D03*
X-19290000Y-13780000D03*
X-14590000Y-11780000D03*
X-15765000Y-14780000D03*
X-18115000Y-14780000D03*
X-14590000Y-14780000D03*
X-16940000Y-12780000D03*
X-19290000Y-12780000D03*
X-18115000Y-11780000D03*
X-14590000Y-13780000D03*
X-18115000Y-12780000D03*
X-18115000Y-13780000D03*
X-19290000Y-11780000D03*
X-15765000Y-13780000D03*
X-18115000Y-10780000D03*
X-15765000Y-12780000D03*
X-14590000Y-10780000D03*
X-14590000Y-12780000D03*
X-16940000Y-11780000D03*
D12*
X-16940000Y-12780000D03*
%TD*%
D13*
%TO.P,USB1,13,GND*%
%TO.N,GND*%
X-4259000Y-17085000D03*
%TO.P,USB1,14,GND*%
X-4259000Y-8435000D03*
D14*
%TO.P,USB1,15,GND*%
X-59000Y-17085000D03*
%TO.P,USB1,16,GND*%
X-59000Y-8435000D03*
%TD*%
D10*
%TO.P,HOLE3,*%
%TO.N,*%
X-800000Y-2710000D03*
%TD*%
D15*
%TO.P,J1,1,Pin_1*%
%TO.N,GND*%
X-45385000Y-24205000D03*
D16*
%TO.P,J1,2,Pin_2*%
%TO.N,Net-(J1-Pad2)*%
X-45385000Y-21665000D03*
%TO.P,J1,3,Pin_3*%
%TO.N,Net-(J1-Pad3)*%
X-45385000Y-19125000D03*
%TO.P,J1,4,Pin_4*%
%TO.N,Net-(J1-Pad4)*%
X-45385000Y-16585000D03*
%TO.P,J1,5,Pin_5*%
%TO.N,Net-(J1-Pad5)*%
X-45385000Y-14045000D03*
%TO.P,J1,6,Pin_6*%
%TO.N,Net-(J1-Pad6)*%
X-45385000Y-11505000D03*
%TO.P,J1,7,Pin_7*%
%TO.N,Net-(J1-Pad7)*%
X-45385000Y-8965000D03*
%TO.P,J1,8,Pin_8*%
%TO.N,Net-(J1-Pad8)*%
X-45385000Y-6425000D03*
%TO.P,J1,9,Pin_9*%
%TO.N,Net-(J1-Pad9)*%
X-45385000Y-3885000D03*
%TO.P,J1,10,Pin_10*%
%TO.N,GND*%
X-45385000Y-1345000D03*
%TD*%
D10*
%TO.P,HOLE1,*%
%TO.N,*%
X-38890000Y-2710000D03*
%TD*%
D17*
%TO.N,GND*%
X-39970000Y-12690000D03*
X-43770000Y-12690000D03*
D18*
X-6800000Y-8000000D03*
X-8270000Y-2880000D03*
D17*
X-5060000Y-24020000D03*
X-5060000Y-20950000D03*
X-11800000Y-24020000D03*
X-11800000Y-20950000D03*
D19*
X-9670000Y-17340000D03*
D17*
X-6850000Y-13370000D03*
X-41020000Y-11250000D03*
X-41020000Y-15740000D03*
X-18190500Y-5610000D03*
D19*
X-7650000Y-17330000D03*
D17*
X-6100000Y-4730000D03*
X-11890000Y-8980000D03*
D19*
X-20190000Y-7460000D03*
D17*
X-41020000Y-17280000D03*
X-22780000Y-16450000D03*
X-41020000Y-9860000D03*
D20*
X-15350000Y-2820000D03*
D17*
X-41020000Y-8310000D03*
X-41020000Y-14190000D03*
D18*
%TO.N,+5V*%
X-6855000Y-14585000D03*
X-9180000Y-6070000D03*
D19*
%TO.N,+3.3V*%
X-20250000Y-18090000D03*
X-21990000Y-10520000D03*
D18*
X-27440000Y-23060000D03*
D19*
X-16333556Y-7136444D03*
D18*
X-9880000Y-13770000D03*
D20*
X-16340000Y-4750000D03*
D19*
X-21990000Y-7710000D03*
D17*
%TO.N,/USB_Data-*%
X-4119500Y-12510000D03*
X-4110000Y-13520000D03*
%TO.N,Net-(R24-Pad1)*%
X-4210000Y-19600000D03*
X-5960000Y-14010000D03*
%TO.N,Net-(R25-Pad1)*%
X-5960000Y-11510000D03*
X-7300000Y-6440000D03*
%TO.N,/INPUT1*%
X-37550000Y-17200000D03*
X-34670000Y-21340000D03*
%TO.N,/INPUT2*%
X-37530000Y-15730000D03*
X-33140000Y-21340000D03*
%TO.N,/INPUT3*%
X-37560000Y-14280000D03*
X-31600000Y-21340000D03*
%TO.N,/INPUT4*%
X-37565000Y-12805000D03*
X-30080000Y-21340000D03*
%TO.N,/INPUT5*%
X-30060000Y-4110000D03*
X-35835000Y-11805000D03*
%TO.N,/INPUT6*%
X-31600000Y-4110000D03*
X-37620000Y-11155000D03*
%TO.N,/INPUT7*%
X-37525000Y-9745000D03*
X-33130000Y-4100000D03*
%TO.N,/INPUT8*%
X-37580000Y-8230000D03*
X-34660000Y-4100000D03*
%TD*%
D21*
%TO.N,Net-(R25-Pad1)*%
X-7300000Y-6440000D02*
X-5960000Y-7780000D01*
X-5960000Y-7780000D02*
X-5960000Y-11510000D01*
%TO.N,Net-(R24-Pad1)*%
X-4210000Y-19600000D02*
X-5960000Y-17850000D01*
X-5960000Y-17850000D02*
X-5960000Y-14010000D01*
D22*
%TO.N,GND*%
X-9670000Y-17340000D02*
X-7660000Y-17340000D01*
X-7660000Y-17340000D02*
X-7650000Y-17330000D01*
D23*
%TO.N,+5V*%
X-6855000Y-14585000D02*
X-9180000Y-12260000D01*
X-9180000Y-12260000D02*
X-9180000Y-6070000D01*
D24*
%TO.N,+3.3V*%
X-21990000Y-7710000D02*
X-21990000Y-7100000D01*
X-9880000Y-8130000D02*
X-13260000Y-4750000D01*
X-16340000Y-4750000D02*
X-16340000Y-4830000D01*
X-21990000Y-7100000D02*
X-19650000Y-4760000D01*
D23*
X-16340000Y-7130000D02*
X-16333556Y-7136444D01*
D24*
X-16340000Y-4750000D02*
X-16340000Y-7130000D01*
X-27420000Y-23080000D02*
X-27440000Y-23060000D01*
X-20250000Y-8740000D02*
X-20250000Y-18090000D01*
X-25240000Y-23080000D02*
X-27420000Y-23080000D01*
X-16350000Y-4760000D02*
X-16340000Y-4750000D01*
X-19650000Y-4760000D02*
X-16350000Y-4760000D01*
X-13260000Y-4750000D02*
X-16340000Y-4750000D01*
X-20250000Y-18090000D02*
X-25240000Y-23080000D01*
X-16340000Y-4830000D02*
X-20250000Y-8740000D01*
X-21990000Y-10520000D02*
X-21990000Y-7710000D01*
X-9880000Y-13770000D02*
X-9880000Y-8130000D01*
D21*
%TO.N,/USB_Data-*%
X-4119500Y-12510000D02*
X-4119500Y-13510500D01*
X-4119500Y-13510500D02*
X-4110000Y-13520000D01*
%TO.N,/INPUT1*%
X-34670000Y-21340000D02*
X-34670000Y-20080000D01*
X-34670000Y-20080000D02*
X-37550000Y-17200000D01*
%TO.N,/INPUT2*%
X-33140000Y-20120000D02*
X-37530000Y-15730000D01*
X-33140000Y-21340000D02*
X-33140000Y-20120000D01*
%TO.N,/INPUT3*%
X-31600000Y-20240000D02*
X-37560000Y-14280000D01*
X-31600000Y-21340000D02*
X-31600000Y-20240000D01*
%TO.N,/INPUT4*%
X-30080000Y-20290000D02*
X-37565000Y-12805000D01*
X-30080000Y-21340000D02*
X-30080000Y-20290000D01*
%TO.N,/INPUT5*%
X-30060000Y-6020000D02*
X-30060000Y-4110000D01*
X-35835000Y-11795000D02*
X-30060000Y-6020000D01*
X-35835000Y-11805000D02*
X-35835000Y-11795000D01*
%TO.N,/INPUT6*%
X-31600000Y-4110000D02*
X-31600000Y-5976397D01*
X-36778603Y-11155000D02*
X-37620000Y-11155000D01*
X-31600000Y-5976397D02*
X-36778603Y-11155000D01*
%TO.N,/INPUT7*%
X-37525000Y-9745000D02*
X-36635000Y-9745000D01*
X-33130000Y-6240000D02*
X-33130000Y-4100000D01*
X-36635000Y-9745000D02*
X-33130000Y-6240000D01*
%TO.N,/INPUT8*%
X-34660000Y-6590000D02*
X-36300000Y-8230000D01*
X-36300000Y-8230000D02*
X-37580000Y-8230000D01*
X-34660000Y-4100000D02*
X-34660000Y-6590000D01*
%TD*%
%TA.AperFunction,Conductor*%
%TO.N,Net-(R25-Pad1)*%
G36*
X-7342889Y-6358796D02*
G01*
X-7060691Y-6403354D01*
X-7053054Y-6408029D01*
X-7051010Y-6412788D01*
X-7043889Y-6451375D01*
X-7043886Y-6451389D01*
X-7043837Y-6451653D01*
X-7031755Y-6494428D01*
X-7015968Y-6534116D01*
X-6996180Y-6571865D01*
X-6972092Y-6608820D01*
X-6943407Y-6646129D01*
X-6909827Y-6684939D01*
X-6871055Y-6726395D01*
X-6853862Y-6743972D01*
X-6826793Y-6771646D01*
X-6784992Y-6813564D01*
X-6781577Y-6821842D01*
X-6785004Y-6830099D01*
X-6909901Y-6954996D01*
X-6918174Y-6958423D01*
X-6926436Y-6955008D01*
X-6968354Y-6913207D01*
X-7013605Y-6868945D01*
X-7055061Y-6830173D01*
X-7093871Y-6796593D01*
X-7094011Y-6796485D01*
X-7094020Y-6796478D01*
X-7130990Y-6768054D01*
X-7130991Y-6768053D01*
X-7131180Y-6767908D01*
X-7168135Y-6743820D01*
X-7191492Y-6731576D01*
X-7205624Y-6724168D01*
X-7205628Y-6724166D01*
X-7205884Y-6724032D01*
X-7206161Y-6723922D01*
X-7206165Y-6723920D01*
X-7224801Y-6716507D01*
X-7245572Y-6708245D01*
X-7245867Y-6708162D01*
X-7245872Y-6708160D01*
X-7270118Y-6701312D01*
X-7288347Y-6696163D01*
X-7288611Y-6696114D01*
X-7288625Y-6696111D01*
X-7322650Y-6689832D01*
X-7327212Y-6688990D01*
X-7334726Y-6684118D01*
X-7336646Y-6679309D01*
X-7385879Y-6367503D01*
X-7383784Y-6358796D01*
X-7376147Y-6354121D01*
X-7372498Y-6354121D01*
X-7342889Y-6358796D01*
G37*
%TD.AperFunction*%
%TD*%
%TA.AperFunction,Conductor*%
%TO.N,Net-(R25-Pad1)*%
G36*
X-5863411Y-10873427D02*
G01*
X-5859984Y-10881683D01*
X-5859901Y-10940881D01*
X-5859202Y-11004176D01*
X-5857304Y-11060907D01*
X-5853606Y-11112093D01*
X-5847508Y-11158758D01*
X-5838409Y-11201922D01*
X-5825709Y-11242607D01*
X-5825591Y-11242881D01*
X-5825588Y-11242889D01*
X-5808929Y-11281554D01*
X-5808808Y-11281834D01*
X-5787105Y-11320624D01*
X-5775765Y-11337097D01*
X-5764695Y-11353180D01*
X-5762826Y-11361938D01*
X-5764870Y-11366696D01*
X-5950538Y-11621990D01*
X-5958175Y-11626665D01*
X-5966882Y-11624570D01*
X-5969462Y-11621990D01*
X-6155130Y-11366696D01*
X-6157225Y-11357989D01*
X-6155305Y-11353180D01*
X-6133056Y-11320857D01*
X-6133052Y-11320851D01*
X-6132896Y-11320624D01*
X-6111193Y-11281834D01*
X-6111072Y-11281554D01*
X-6094413Y-11242889D01*
X-6094410Y-11242881D01*
X-6094292Y-11242607D01*
X-6081592Y-11201922D01*
X-6072493Y-11158758D01*
X-6066395Y-11112093D01*
X-6062697Y-11060907D01*
X-6060799Y-11004176D01*
X-6060100Y-10940881D01*
X-6060016Y-10881683D01*
X-6056577Y-10873415D01*
X-6048316Y-10870000D01*
X-5871684Y-10870000D01*
X-5863411Y-10873427D01*
G37*
%TD.AperFunction*%
%TD*%
%TA.AperFunction,Conductor*%
%TO.N,Net-(R24-Pad1)*%
G36*
X-4583564Y-19084992D02*
G01*
X-4541661Y-19126779D01*
X-4541659Y-19126780D01*
X-4541647Y-19126792D01*
X-4496396Y-19171054D01*
X-4454940Y-19209826D01*
X-4416130Y-19243406D01*
X-4415990Y-19243514D01*
X-4415981Y-19243521D01*
X-4383683Y-19268353D01*
X-4378821Y-19272091D01*
X-4341866Y-19296179D01*
X-4318509Y-19308423D01*
X-4304377Y-19315831D01*
X-4304373Y-19315833D01*
X-4304117Y-19315967D01*
X-4303840Y-19316077D01*
X-4303836Y-19316079D01*
X-4285200Y-19323492D01*
X-4264429Y-19331754D01*
X-4264134Y-19331837D01*
X-4264129Y-19331839D01*
X-4239883Y-19338687D01*
X-4221654Y-19343836D01*
X-4221384Y-19343886D01*
X-4221379Y-19343887D01*
X-4196744Y-19348434D01*
X-4182787Y-19351010D01*
X-4175274Y-19355882D01*
X-4173354Y-19360691D01*
X-4124121Y-19672497D01*
X-4126216Y-19681204D01*
X-4133853Y-19685879D01*
X-4137502Y-19685879D01*
X-4228933Y-19671442D01*
X-4449309Y-19636646D01*
X-4456946Y-19631971D01*
X-4458990Y-19627213D01*
X-4466113Y-19588621D01*
X-4466114Y-19588616D01*
X-4466164Y-19588346D01*
X-4478246Y-19545571D01*
X-4494033Y-19505883D01*
X-4513821Y-19468134D01*
X-4537909Y-19431179D01*
X-4566594Y-19393870D01*
X-4600174Y-19355060D01*
X-4638946Y-19313604D01*
X-4683208Y-19268353D01*
X-4683220Y-19268341D01*
X-4683221Y-19268339D01*
X-4725008Y-19226436D01*
X-4728423Y-19218158D01*
X-4724996Y-19209901D01*
X-4600099Y-19085004D01*
X-4591826Y-19081577D01*
X-4583564Y-19084992D01*
G37*
%TD.AperFunction*%
%TD*%
%TA.AperFunction,Conductor*%
%TO.N,Net-(R24-Pad1)*%
G36*
X-5953118Y-13895430D02*
G01*
X-5950538Y-13898010D01*
X-5764870Y-14153304D01*
X-5762775Y-14162011D01*
X-5764695Y-14166820D01*
X-5787105Y-14199375D01*
X-5808808Y-14238165D01*
X-5808926Y-14238439D01*
X-5808929Y-14238445D01*
X-5825588Y-14277110D01*
X-5825591Y-14277118D01*
X-5825709Y-14277392D01*
X-5838409Y-14318077D01*
X-5847508Y-14361241D01*
X-5853606Y-14407906D01*
X-5857304Y-14459092D01*
X-5859202Y-14515823D01*
X-5859901Y-14579118D01*
X-5859901Y-14579206D01*
X-5859984Y-14638316D01*
X-5863422Y-14646585D01*
X-5871684Y-14650000D01*
X-6048316Y-14650000D01*
X-6056589Y-14646573D01*
X-6060016Y-14638317D01*
X-6060100Y-14579205D01*
X-6060100Y-14579093D01*
X-6060797Y-14515962D01*
X-6060798Y-14515923D01*
X-6060799Y-14515823D01*
X-6062697Y-14459092D01*
X-6066395Y-14407906D01*
X-6072493Y-14361241D01*
X-6081592Y-14318077D01*
X-6094292Y-14277392D01*
X-6094410Y-14277118D01*
X-6094413Y-14277110D01*
X-6111072Y-14238445D01*
X-6111075Y-14238439D01*
X-6111193Y-14238165D01*
X-6132896Y-14199375D01*
X-6155305Y-14166820D01*
X-6157174Y-14158062D01*
X-6155130Y-14153304D01*
X-5969462Y-13898010D01*
X-5961825Y-13893335D01*
X-5953118Y-13895430D01*
G37*
%TD.AperFunction*%
%TD*%
%TA.AperFunction,Conductor*%
%TO.N,+5V*%
G36*
X-7490194Y-13596372D02*
G01*
X-7408215Y-13679527D01*
X-7326615Y-13763742D01*
X-7252051Y-13840344D01*
X-7182908Y-13909047D01*
X-7182858Y-13909093D01*
X-7182849Y-13909102D01*
X-7117683Y-13969463D01*
X-7117673Y-13969472D01*
X-7117568Y-13969569D01*
X-7117453Y-13969664D01*
X-7117439Y-13969676D01*
X-7054601Y-14021473D01*
X-7054594Y-14021478D01*
X-7054416Y-14021625D01*
X-6991835Y-14064933D01*
X-6928210Y-14099207D01*
X-6927851Y-14099342D01*
X-6927847Y-14099344D01*
X-6890555Y-14113385D01*
X-6861924Y-14124165D01*
X-6861520Y-14124253D01*
X-6861513Y-14124255D01*
X-6799182Y-14137821D01*
X-6791827Y-14142929D01*
X-6790113Y-14147428D01*
X-6698410Y-14728208D01*
X-6700505Y-14736915D01*
X-6708142Y-14741590D01*
X-6711791Y-14741590D01*
X-6957528Y-14702789D01*
X-7292572Y-14649887D01*
X-7300209Y-14645212D01*
X-7302179Y-14640818D01*
X-7315745Y-14578487D01*
X-7315747Y-14578480D01*
X-7315835Y-14578076D01*
X-7340793Y-14511790D01*
X-7375067Y-14448165D01*
X-7418375Y-14385584D01*
X-7418527Y-14385399D01*
X-7470324Y-14322561D01*
X-7470336Y-14322547D01*
X-7470431Y-14322432D01*
X-7470528Y-14322327D01*
X-7470537Y-14322317D01*
X-7530898Y-14257151D01*
X-7530907Y-14257142D01*
X-7530953Y-14257092D01*
X-7599656Y-14187949D01*
X-7676258Y-14113385D01*
X-7760473Y-14031785D01*
X-7843629Y-13949806D01*
X-7847114Y-13941558D01*
X-7843687Y-13933202D01*
X-7506798Y-13596313D01*
X-7498525Y-13592886D01*
X-7490194Y-13596372D01*
G37*
%TD.AperFunction*%
%TD*%
%TA.AperFunction,Conductor*%
%TO.N,+5V*%
G36*
X-9173118Y-5855430D02*
G01*
X-9170538Y-5858010D01*
X-8824708Y-6333527D01*
X-8822613Y-6342234D01*
X-8824327Y-6346734D01*
X-8859037Y-6400755D01*
X-8888260Y-6465274D01*
X-8909014Y-6534499D01*
X-8922642Y-6609374D01*
X-8930488Y-6690838D01*
X-8933895Y-6779836D01*
X-8933895Y-6779932D01*
X-8934206Y-6877309D01*
X-8932765Y-6984199D01*
X-8930916Y-7101449D01*
X-8930915Y-7101550D01*
X-8930084Y-7218217D01*
X-8933452Y-7226514D01*
X-8941784Y-7230000D01*
X-9418216Y-7230000D01*
X-9426489Y-7226573D01*
X-9429916Y-7218217D01*
X-9429086Y-7101550D01*
X-9429085Y-7101449D01*
X-9427236Y-6984199D01*
X-9425795Y-6877309D01*
X-9425795Y-6877212D01*
X-9426106Y-6779932D01*
X-9426106Y-6779836D01*
X-9429513Y-6690838D01*
X-9437359Y-6609374D01*
X-9450987Y-6534499D01*
X-9471741Y-6465274D01*
X-9500964Y-6400755D01*
X-9535674Y-6346733D01*
X-9537263Y-6337921D01*
X-9535294Y-6333529D01*
X-9189462Y-5858010D01*
X-9181825Y-5853335D01*
X-9173118Y-5855430D01*
G37*
%TD.AperFunction*%
%TD*%
%TA.AperFunction,Conductor*%
%TO.N,+3.3V*%
G36*
X-21875247Y-6790489D02*
G01*
X-21679535Y-6986201D01*
X-21676108Y-6994474D01*
X-21678996Y-7002170D01*
X-21698492Y-7024493D01*
X-21719146Y-7048142D01*
X-21754177Y-7102798D01*
X-21777886Y-7157434D01*
X-21791264Y-7211581D01*
X-21791301Y-7212065D01*
X-21791301Y-7212067D01*
X-21795264Y-7264303D01*
X-21795264Y-7264309D01*
X-21795299Y-7264771D01*
X-21790983Y-7316537D01*
X-21779305Y-7366411D01*
X-21761255Y-7413925D01*
X-21737824Y-7458610D01*
X-21737649Y-7458870D01*
X-21737648Y-7458872D01*
X-21714565Y-7493209D01*
X-21712793Y-7501986D01*
X-21714813Y-7506618D01*
X-21990000Y-7885000D01*
X-22265257Y-7506521D01*
X-22267352Y-7497815D01*
X-22265594Y-7493248D01*
X-22228337Y-7436157D01*
X-22228181Y-7435840D01*
X-22228176Y-7435832D01*
X-22196582Y-7371803D01*
X-22196469Y-7371574D01*
X-22170977Y-7305862D01*
X-22148443Y-7238635D01*
X-22125514Y-7169705D01*
X-22125362Y-7169278D01*
X-22100348Y-7102798D01*
X-22098729Y-7098495D01*
X-22098405Y-7097718D01*
X-22064635Y-7024493D01*
X-22064123Y-7023510D01*
X-22019833Y-6947378D01*
X-22019160Y-6946349D01*
X-21960864Y-6866731D01*
X-21960104Y-6865798D01*
X-21892185Y-6790901D01*
X-21884091Y-6787076D01*
X-21875247Y-6790489D01*
G37*
%TD.AperFunction*%
%TD*%
%TA.AperFunction,Conductor*%
%TO.N,+3.3V*%
G36*
X-16193437Y-6233427D02*
G01*
X-16190010Y-6241709D01*
X-16190088Y-6330002D01*
X-16189722Y-6419712D01*
X-16187962Y-6500416D01*
X-16187958Y-6500489D01*
X-16187957Y-6500513D01*
X-16184508Y-6561964D01*
X-16183866Y-6573400D01*
X-16183851Y-6573531D01*
X-16183850Y-6573549D01*
X-16183463Y-6577038D01*
X-16176492Y-6639953D01*
X-16164900Y-6701360D01*
X-16148147Y-6758908D01*
X-16125292Y-6813885D01*
X-16095394Y-6867578D01*
X-16095216Y-6867830D01*
X-16062248Y-6914559D01*
X-16060279Y-6923295D01*
X-16062219Y-6928008D01*
X-16321083Y-7298228D01*
X-16328633Y-7303045D01*
X-16337376Y-7301113D01*
X-16340005Y-7298580D01*
X-16612440Y-6938264D01*
X-16614696Y-6929598D01*
X-16612892Y-6924793D01*
X-16611909Y-6923295D01*
X-16580896Y-6875990D01*
X-16576640Y-6867830D01*
X-16552234Y-6821030D01*
X-16552232Y-6821026D01*
X-16552094Y-6820761D01*
X-16549399Y-6813885D01*
X-16530203Y-6764894D01*
X-16530095Y-6764619D01*
X-16513987Y-6706183D01*
X-16502859Y-6644070D01*
X-16502403Y-6639736D01*
X-16495812Y-6577038D01*
X-16495811Y-6577019D01*
X-16495798Y-6576900D01*
X-16491894Y-6503289D01*
X-16490234Y-6421856D01*
X-16489907Y-6331221D01*
X-16489989Y-6241710D01*
X-16486570Y-6233434D01*
X-16478289Y-6230000D01*
X-16201710Y-6230000D01*
X-16193437Y-6233427D01*
G37*
%TD.AperFunction*%
%TD*%
%TA.AperFunction,Conductor*%
%TO.N,+3.3V*%
G36*
X-16333118Y-4485430D02*
G01*
X-16330539Y-4488009D01*
X-15900000Y-5080000D01*
X-15945847Y-5144151D01*
X-15945848Y-5144152D01*
X-15946409Y-5144937D01*
X-15967634Y-5174636D01*
X-15967646Y-5174653D01*
X-15967734Y-5174777D01*
X-15967818Y-5174911D01*
X-15967827Y-5174924D01*
X-15976735Y-5189089D01*
X-16024364Y-5264824D01*
X-16070828Y-5353101D01*
X-16070927Y-5353338D01*
X-16070929Y-5353343D01*
X-16097860Y-5418056D01*
X-16108060Y-5442565D01*
X-16136996Y-5536176D01*
X-16158573Y-5636893D01*
X-16173726Y-5747675D01*
X-16183391Y-5871480D01*
X-16188504Y-6011269D01*
X-16188505Y-6011362D01*
X-16188505Y-6011367D01*
X-16189891Y-6158410D01*
X-16193395Y-6166651D01*
X-16201590Y-6170000D01*
X-16478410Y-6170000D01*
X-16486683Y-6166573D01*
X-16490109Y-6158410D01*
X-16491496Y-6011367D01*
X-16491496Y-6011362D01*
X-16491497Y-6011269D01*
X-16496610Y-5871480D01*
X-16506275Y-5747675D01*
X-16521428Y-5636893D01*
X-16543005Y-5536176D01*
X-16571941Y-5442565D01*
X-16609173Y-5353101D01*
X-16655637Y-5264824D01*
X-16712267Y-5174777D01*
X-16780000Y-5080000D01*
X-16377390Y-4526411D01*
X-16349462Y-4488010D01*
X-16341825Y-4483335D01*
X-16333118Y-4485430D01*
G37*
%TD.AperFunction*%
%TD*%
%TA.AperFunction,Conductor*%
%TO.N,+3.3V*%
G36*
X-20103434Y-17193427D02*
G01*
X-20100007Y-17201707D01*
X-20100057Y-17289700D01*
X-20099625Y-17379045D01*
X-20097798Y-17459358D01*
X-20093673Y-17531965D01*
X-20086344Y-17598192D01*
X-20074909Y-17659363D01*
X-20074835Y-17659622D01*
X-20074832Y-17659634D01*
X-20064390Y-17696099D01*
X-20058461Y-17716804D01*
X-20036097Y-17771841D01*
X-20006911Y-17825797D01*
X-20006740Y-17826048D01*
X-19974635Y-17873194D01*
X-19972811Y-17881961D01*
X-19974843Y-17886660D01*
X-20250000Y-18265000D01*
X-20463691Y-17971175D01*
X-20525156Y-17886660D01*
X-20527251Y-17877953D01*
X-20525365Y-17873193D01*
X-20493261Y-17826049D01*
X-20493256Y-17826041D01*
X-20493090Y-17825797D01*
X-20463904Y-17771841D01*
X-20441540Y-17716804D01*
X-20435611Y-17696099D01*
X-20425169Y-17659634D01*
X-20425166Y-17659622D01*
X-20425092Y-17659363D01*
X-20413657Y-17598192D01*
X-20406328Y-17531965D01*
X-20402203Y-17459358D01*
X-20400376Y-17379045D01*
X-20399944Y-17289700D01*
X-20399993Y-17201707D01*
X-20396571Y-17193431D01*
X-20388293Y-17190000D01*
X-20111707Y-17190000D01*
X-20103434Y-17193427D01*
G37*
%TD.AperFunction*%
%TD*%
%TA.AperFunction,Conductor*%
%TO.N,+3.3V*%
G36*
X-27147667Y-22717401D02*
G01*
X-27081980Y-22767615D01*
X-27011472Y-22812691D01*
X-26940743Y-22848604D01*
X-26940448Y-22848716D01*
X-26940442Y-22848719D01*
X-26868051Y-22876279D01*
X-26867775Y-22876384D01*
X-26790551Y-22897062D01*
X-26790302Y-22897106D01*
X-26790291Y-22897108D01*
X-26747581Y-22904579D01*
X-26707055Y-22911668D01*
X-26615269Y-22921235D01*
X-26555035Y-22924513D01*
X-26513273Y-22926786D01*
X-26513259Y-22926786D01*
X-26513176Y-22926791D01*
X-26398759Y-22929369D01*
X-26299445Y-22929856D01*
X-26281643Y-22929943D01*
X-26273386Y-22933410D01*
X-26270000Y-22941643D01*
X-26270000Y-23218357D01*
X-26273427Y-23226630D01*
X-26281643Y-23230057D01*
X-26402322Y-23230646D01*
X-26505309Y-23232888D01*
X-26519297Y-23233192D01*
X-26519300Y-23233192D01*
X-26519387Y-23233194D01*
X-26576582Y-23236139D01*
X-26623398Y-23238550D01*
X-26623413Y-23238551D01*
X-26623526Y-23238557D01*
X-26717067Y-23247649D01*
X-26757762Y-23254203D01*
X-26802109Y-23261344D01*
X-26802120Y-23261346D01*
X-26802342Y-23261382D01*
X-26881680Y-23280669D01*
X-26881924Y-23280752D01*
X-26881931Y-23280754D01*
X-26957164Y-23306341D01*
X-26957170Y-23306343D01*
X-26957410Y-23306425D01*
X-27031862Y-23339562D01*
X-27032088Y-23339686D01*
X-27032094Y-23339689D01*
X-27107194Y-23380898D01*
X-27107208Y-23380906D01*
X-27107366Y-23380993D01*
X-27107519Y-23381091D01*
X-27107522Y-23381093D01*
X-27179193Y-23427102D01*
X-27188007Y-23428687D01*
X-27192809Y-23426403D01*
X-27652201Y-23060040D01*
X-27656532Y-23052203D01*
X-27654053Y-23043598D01*
X-27651362Y-23041136D01*
X-27161228Y-22716938D01*
X-27152438Y-22715232D01*
X-27147667Y-22717401D01*
G37*
%TD.AperFunction*%
%TD*%
%TA.AperFunction,Conductor*%
%TO.N,+3.3V*%
G36*
X-16671048Y-4320898D02*
G01*
X-16065046Y-4745001D01*
X-16661946Y-5195926D01*
X-16759252Y-5128914D01*
X-16851406Y-5072946D01*
X-16935067Y-5030340D01*
X-16941467Y-5027081D01*
X-17032490Y-4990381D01*
X-17032742Y-4990305D01*
X-17032752Y-4990302D01*
X-17127294Y-4961975D01*
X-17127301Y-4961973D01*
X-17127532Y-4961904D01*
X-17136246Y-4960096D01*
X-17229444Y-4940755D01*
X-17229457Y-4940753D01*
X-17229649Y-4940713D01*
X-17316766Y-4929190D01*
X-17341723Y-4925889D01*
X-17341728Y-4925888D01*
X-17341898Y-4925866D01*
X-17467335Y-4916425D01*
X-17467444Y-4916421D01*
X-17467447Y-4916421D01*
X-17608957Y-4911451D01*
X-17608963Y-4911451D01*
X-17609017Y-4911449D01*
X-17693571Y-4910688D01*
X-17758405Y-4910104D01*
X-17766647Y-4906602D01*
X-17770000Y-4898404D01*
X-17770000Y-4621596D01*
X-17766573Y-4613323D01*
X-17758405Y-4609896D01*
X-17744469Y-4609771D01*
X-17610749Y-4608571D01*
X-17470340Y-4603613D01*
X-17453269Y-4602311D01*
X-17346057Y-4594133D01*
X-17346043Y-4594131D01*
X-17345879Y-4594119D01*
X-17345714Y-4594097D01*
X-17345707Y-4594096D01*
X-17234688Y-4579113D01*
X-17234677Y-4579111D01*
X-17234469Y-4579083D01*
X-17234259Y-4579038D01*
X-17234252Y-4579037D01*
X-17133471Y-4557552D01*
X-17133462Y-4557550D01*
X-17133215Y-4557497D01*
X-17039222Y-4528353D01*
X-16949594Y-4490646D01*
X-16949355Y-4490518D01*
X-16861645Y-4443481D01*
X-16861638Y-4443477D01*
X-16861435Y-4443368D01*
X-16771851Y-4385512D01*
X-16684713Y-4321077D01*
X-16676023Y-4318913D01*
X-16671048Y-4320898D01*
G37*
%TD.AperFunction*%
%TD*%
%TA.AperFunction,Conductor*%
%TO.N,+3.3V*%
G36*
X-16003136Y-4314905D02*
G01*
X-15915223Y-4377733D01*
X-15915089Y-4377817D01*
X-15915076Y-4377826D01*
X-15825370Y-4434241D01*
X-15825176Y-4434363D01*
X-15736899Y-4480827D01*
X-15736662Y-4480926D01*
X-15736657Y-4480928D01*
X-15647693Y-4517952D01*
X-15647686Y-4517954D01*
X-15647435Y-4518059D01*
X-15553824Y-4546995D01*
X-15514600Y-4555398D01*
X-15453318Y-4568527D01*
X-15453313Y-4568528D01*
X-15453107Y-4568572D01*
X-15452908Y-4568599D01*
X-15452898Y-4568601D01*
X-15396029Y-4576379D01*
X-15342325Y-4583725D01*
X-15342181Y-4583736D01*
X-15342174Y-4583737D01*
X-15218636Y-4593381D01*
X-15218633Y-4593381D01*
X-15218520Y-4593390D01*
X-15218394Y-4593395D01*
X-15218387Y-4593395D01*
X-15078816Y-4598500D01*
X-15078809Y-4598500D01*
X-15078731Y-4598503D01*
X-15078639Y-4598504D01*
X-15078633Y-4598504D01*
X-14931590Y-4599891D01*
X-14923349Y-4603395D01*
X-14920000Y-4611590D01*
X-14920000Y-4888410D01*
X-14923427Y-4896683D01*
X-14931590Y-4900109D01*
X-15078633Y-4901495D01*
X-15078639Y-4901495D01*
X-15078731Y-4901496D01*
X-15078809Y-4901499D01*
X-15078816Y-4901499D01*
X-15218387Y-4906604D01*
X-15218394Y-4906604D01*
X-15218520Y-4906609D01*
X-15218633Y-4906618D01*
X-15218636Y-4906618D01*
X-15342174Y-4916262D01*
X-15342181Y-4916263D01*
X-15342325Y-4916274D01*
X-15396029Y-4923620D01*
X-15452898Y-4931398D01*
X-15452908Y-4931400D01*
X-15453107Y-4931427D01*
X-15453313Y-4931471D01*
X-15453318Y-4931472D01*
X-15514600Y-4944601D01*
X-15553824Y-4953004D01*
X-15647435Y-4981940D01*
X-15647686Y-4982045D01*
X-15647693Y-4982047D01*
X-15736657Y-5019071D01*
X-15736662Y-5019073D01*
X-15736899Y-5019172D01*
X-15825176Y-5065636D01*
X-15825370Y-5065758D01*
X-15915076Y-5122173D01*
X-15915089Y-5122182D01*
X-15915223Y-5122266D01*
X-15915347Y-5122354D01*
X-15915364Y-5122366D01*
X-15945063Y-5143591D01*
X-15945848Y-5144152D01*
X-15945849Y-5144153D01*
X-16010000Y-5190000D01*
X-16615000Y-4750000D01*
X-16304324Y-4524054D01*
X-16302443Y-4522686D01*
X-16302442Y-4522686D01*
X-16016822Y-4314962D01*
X-16008115Y-4312867D01*
X-16003136Y-4314905D01*
G37*
%TD.AperFunction*%
%TD*%
%TA.AperFunction,Conductor*%
%TO.N,+3.3V*%
G36*
X-20166119Y-18218719D02*
G01*
X-20199219Y-18428348D01*
X-20203894Y-18435985D01*
X-20208593Y-18438017D01*
X-20264930Y-18448708D01*
X-20265208Y-18448791D01*
X-20265217Y-18448793D01*
X-20308837Y-18461790D01*
X-20323720Y-18466224D01*
X-20378450Y-18489327D01*
X-20430697Y-18518313D01*
X-20482038Y-18553482D01*
X-20534049Y-18595129D01*
X-20534143Y-18595213D01*
X-20534155Y-18595223D01*
X-20588259Y-18643510D01*
X-20588307Y-18643553D01*
X-20646389Y-18699051D01*
X-20646443Y-18699105D01*
X-20646461Y-18699122D01*
X-20709871Y-18761921D01*
X-20709876Y-18761926D01*
X-20772056Y-18824178D01*
X-20780327Y-18827610D01*
X-20788607Y-18824183D01*
X-20984183Y-18628607D01*
X-20987610Y-18620334D01*
X-20984178Y-18612056D01*
X-20921922Y-18549870D01*
X-20921882Y-18549830D01*
X-20890669Y-18518313D01*
X-20859052Y-18486388D01*
X-20839904Y-18466349D01*
X-20803594Y-18428348D01*
X-20803590Y-18428344D01*
X-20803554Y-18428306D01*
X-20803511Y-18428258D01*
X-20755224Y-18374154D01*
X-20755214Y-18374142D01*
X-20755130Y-18374048D01*
X-20713483Y-18322037D01*
X-20678314Y-18270696D01*
X-20649328Y-18218449D01*
X-20626225Y-18163719D01*
X-20608709Y-18104929D01*
X-20608655Y-18104647D01*
X-20598017Y-18048594D01*
X-20593107Y-18041105D01*
X-20588347Y-18039219D01*
X-20434441Y-18014918D01*
X-20432142Y-18014555D01*
X-20126257Y-17966257D01*
X-20166119Y-18218719D01*
G37*
%TD.AperFunction*%
%TD*%
%TA.AperFunction,Conductor*%
%TO.N,+3.3V*%
G36*
X-16207562Y-5283816D02*
G01*
X-16325450Y-5315198D01*
X-16431436Y-5348634D01*
X-16528510Y-5385972D01*
X-16584482Y-5412431D01*
X-16619664Y-5429062D01*
X-16707889Y-5479750D01*
X-16708056Y-5479864D01*
X-16708066Y-5479870D01*
X-16718116Y-5486716D01*
X-16796174Y-5539886D01*
X-16887511Y-5611318D01*
X-16984891Y-5695894D01*
X-17091304Y-5795462D01*
X-17150039Y-5853192D01*
X-17201468Y-5903741D01*
X-17209770Y-5907097D01*
X-17217942Y-5903670D01*
X-17413671Y-5707941D01*
X-17417098Y-5699668D01*
X-17413743Y-5691469D01*
X-17312192Y-5588144D01*
X-17217611Y-5486716D01*
X-17137173Y-5392842D01*
X-17137061Y-5392694D01*
X-17137053Y-5392684D01*
X-17070056Y-5304092D01*
X-17070054Y-5304090D01*
X-17069917Y-5303908D01*
X-17014887Y-5217300D01*
X-16995042Y-5177899D01*
X-16971267Y-5130694D01*
X-16971263Y-5130686D01*
X-16971122Y-5130405D01*
X-16937664Y-5040608D01*
X-16913555Y-4945296D01*
X-16897835Y-4841856D01*
X-16889546Y-4727673D01*
X-16166205Y-4536880D01*
X-16207562Y-5283816D01*
G37*
%TD.AperFunction*%
%TD*%
%TA.AperFunction,Conductor*%
%TO.N,+3.3V*%
G36*
X-21843434Y-9623427D02*
G01*
X-21840007Y-9631707D01*
X-21840057Y-9719700D01*
X-21839625Y-9809045D01*
X-21837798Y-9889358D01*
X-21833673Y-9961965D01*
X-21826344Y-10028192D01*
X-21814909Y-10089363D01*
X-21814835Y-10089622D01*
X-21814832Y-10089634D01*
X-21804390Y-10126099D01*
X-21798461Y-10146804D01*
X-21776097Y-10201841D01*
X-21746911Y-10255797D01*
X-21746740Y-10256048D01*
X-21714635Y-10303194D01*
X-21712811Y-10311961D01*
X-21714844Y-10316661D01*
X-21980538Y-10681990D01*
X-21988175Y-10686665D01*
X-21996882Y-10684570D01*
X-21999462Y-10681990D01*
X-22265156Y-10316660D01*
X-22267251Y-10307953D01*
X-22265365Y-10303193D01*
X-22233261Y-10256049D01*
X-22233256Y-10256041D01*
X-22233090Y-10255797D01*
X-22203904Y-10201841D01*
X-22181540Y-10146804D01*
X-22175611Y-10126099D01*
X-22165169Y-10089634D01*
X-22165166Y-10089622D01*
X-22165092Y-10089363D01*
X-22153657Y-10028192D01*
X-22146328Y-9961965D01*
X-22142203Y-9889358D01*
X-22140376Y-9809045D01*
X-22139944Y-9719700D01*
X-22139993Y-9631707D01*
X-22136571Y-9623431D01*
X-22128293Y-9620000D01*
X-21851707Y-9620000D01*
X-21843434Y-9623427D01*
G37*
%TD.AperFunction*%
%TD*%
%TA.AperFunction,Conductor*%
%TO.N,+3.3V*%
G36*
X-21861358Y-7711882D02*
G01*
X-21714844Y-7913339D01*
X-21712749Y-7922046D01*
X-21714634Y-7926805D01*
X-21746911Y-7974202D01*
X-21776097Y-8028158D01*
X-21798461Y-8083195D01*
X-21798548Y-8083500D01*
X-21814832Y-8140365D01*
X-21814835Y-8140377D01*
X-21814909Y-8140636D01*
X-21826344Y-8201807D01*
X-21833673Y-8268034D01*
X-21837798Y-8340641D01*
X-21839625Y-8420954D01*
X-21839625Y-8421016D01*
X-21839626Y-8421065D01*
X-21840057Y-8510299D01*
X-21840057Y-8510306D01*
X-21840007Y-8598293D01*
X-21843429Y-8606568D01*
X-21851707Y-8610000D01*
X-22128293Y-8610000D01*
X-22136566Y-8606573D01*
X-22139993Y-8598293D01*
X-22139944Y-8510299D01*
X-22139944Y-8510242D01*
X-22140375Y-8421065D01*
X-22140376Y-8421016D01*
X-22140376Y-8420954D01*
X-22142203Y-8340641D01*
X-22146328Y-8268034D01*
X-22153657Y-8201807D01*
X-22165092Y-8140636D01*
X-22165166Y-8140377D01*
X-22165169Y-8140365D01*
X-22181453Y-8083500D01*
X-22181540Y-8083195D01*
X-22203904Y-8028158D01*
X-22233090Y-7974202D01*
X-22233256Y-7973958D01*
X-22233261Y-7973950D01*
X-22265365Y-7926806D01*
X-22267189Y-7918039D01*
X-22265156Y-7913339D01*
X-22118641Y-7711882D01*
X-22118641Y-7711881D01*
X-21990000Y-7535000D01*
X-21861358Y-7711882D01*
G37*
%TD.AperFunction*%
%TD*%
%TA.AperFunction,Conductor*%
%TO.N,+3.3V*%
G36*
X-9733364Y-12613427D02*
G01*
X-9729937Y-12621636D01*
X-9729305Y-12739111D01*
X-9726596Y-12853552D01*
X-9720935Y-12955481D01*
X-9711386Y-13047058D01*
X-9697013Y-13130441D01*
X-9676878Y-13207788D01*
X-9650047Y-13281259D01*
X-9615581Y-13353012D01*
X-9572544Y-13425206D01*
X-9572429Y-13425369D01*
X-9524808Y-13493157D01*
X-9522857Y-13501897D01*
X-9524920Y-13506765D01*
X-9870538Y-13981990D01*
X-9878175Y-13986665D01*
X-9886882Y-13984570D01*
X-9889462Y-13981990D01*
X-10235080Y-13506764D01*
X-10237175Y-13498057D01*
X-10235192Y-13493156D01*
X-10187572Y-13425369D01*
X-10187457Y-13425206D01*
X-10144420Y-13353012D01*
X-10109954Y-13281259D01*
X-10083123Y-13207788D01*
X-10062988Y-13130441D01*
X-10048615Y-13047058D01*
X-10039066Y-12955481D01*
X-10033405Y-12853552D01*
X-10030696Y-12739111D01*
X-10030063Y-12621636D01*
X-10026591Y-12613382D01*
X-10018363Y-12610000D01*
X-9741637Y-12610000D01*
X-9733364Y-12613427D01*
G37*
%TD.AperFunction*%
%TD*%
%TA.AperFunction,Conductor*%
%TO.N,/USB_Data-*%
G36*
X-4112618Y-12395430D02*
G01*
X-4110038Y-12398010D01*
X-3924370Y-12653304D01*
X-3922275Y-12662011D01*
X-3924195Y-12666820D01*
X-3946605Y-12699375D01*
X-3968308Y-12738165D01*
X-3968426Y-12738439D01*
X-3968429Y-12738445D01*
X-3985088Y-12777110D01*
X-3985091Y-12777118D01*
X-3985209Y-12777392D01*
X-3997909Y-12818077D01*
X-4007008Y-12861241D01*
X-4013106Y-12907906D01*
X-4016804Y-12959092D01*
X-4018702Y-13015823D01*
X-4019401Y-13079118D01*
X-4019500Y-13150000D01*
X-4219500Y-13150000D01*
X-4219600Y-13079118D01*
X-4220299Y-13015823D01*
X-4222197Y-12959092D01*
X-4225895Y-12907906D01*
X-4231993Y-12861241D01*
X-4241092Y-12818077D01*
X-4253792Y-12777392D01*
X-4253910Y-12777118D01*
X-4253913Y-12777110D01*
X-4270572Y-12738445D01*
X-4270575Y-12738439D01*
X-4270693Y-12738165D01*
X-4292396Y-12699375D01*
X-4314805Y-12666820D01*
X-4316674Y-12658062D01*
X-4314630Y-12653304D01*
X-4128962Y-12398010D01*
X-4121325Y-12393335D01*
X-4112618Y-12395430D01*
G37*
%TD.AperFunction*%
%TD*%
%TA.AperFunction,Conductor*%
%TO.N,/USB_Data-*%
G36*
X-4019449Y-12941851D02*
G01*
X-4018858Y-13005710D01*
X-4017069Y-13063039D01*
X-4013426Y-13114803D01*
X-4007273Y-13161965D01*
X-3997951Y-13205491D01*
X-3984806Y-13246342D01*
X-3967179Y-13285485D01*
X-3967017Y-13285759D01*
X-3967015Y-13285762D01*
X-3961139Y-13295672D01*
X-3944414Y-13323882D01*
X-3944235Y-13324124D01*
X-3944231Y-13324130D01*
X-3920755Y-13355872D01*
X-3918591Y-13364561D01*
X-3920445Y-13369346D01*
X-4096284Y-13631548D01*
X-4103738Y-13636510D01*
X-4112518Y-13634748D01*
X-4115193Y-13632270D01*
X-4310431Y-13384237D01*
X-4312855Y-13375617D01*
X-4311107Y-13370719D01*
X-4307187Y-13364561D01*
X-4289075Y-13336103D01*
X-4267965Y-13295414D01*
X-4264105Y-13285762D01*
X-4251732Y-13254816D01*
X-4251624Y-13254546D01*
X-4239441Y-13212391D01*
X-4238103Y-13205491D01*
X-4230849Y-13168066D01*
X-4230849Y-13168065D01*
X-4230806Y-13167844D01*
X-4225109Y-13119798D01*
X-4221740Y-13067147D01*
X-4221623Y-13063039D01*
X-4220300Y-13016253D01*
X-4220300Y-13016240D01*
X-4220089Y-13008784D01*
X-4219546Y-12943604D01*
X-4219500Y-12870500D01*
X-4019500Y-12870500D01*
X-4019449Y-12941851D01*
G37*
%TD.AperFunction*%
%TD*%
%TA.AperFunction,Conductor*%
%TO.N,/INPUT1*%
G36*
X-34573411Y-20703427D02*
G01*
X-34569984Y-20711683D01*
X-34569901Y-20770881D01*
X-34569202Y-20834176D01*
X-34567304Y-20890907D01*
X-34563606Y-20942093D01*
X-34557508Y-20988758D01*
X-34548409Y-21031922D01*
X-34535709Y-21072607D01*
X-34535591Y-21072881D01*
X-34535588Y-21072889D01*
X-34518929Y-21111554D01*
X-34518808Y-21111834D01*
X-34497105Y-21150624D01*
X-34485765Y-21167097D01*
X-34474695Y-21183180D01*
X-34472826Y-21191938D01*
X-34474870Y-21196696D01*
X-34660538Y-21451990D01*
X-34668175Y-21456665D01*
X-34676882Y-21454570D01*
X-34679462Y-21451990D01*
X-34865130Y-21196696D01*
X-34867225Y-21187989D01*
X-34865305Y-21183180D01*
X-34843056Y-21150857D01*
X-34843052Y-21150851D01*
X-34842896Y-21150624D01*
X-34821193Y-21111834D01*
X-34821072Y-21111554D01*
X-34804413Y-21072889D01*
X-34804410Y-21072881D01*
X-34804292Y-21072607D01*
X-34791592Y-21031922D01*
X-34782493Y-20988758D01*
X-34776395Y-20942093D01*
X-34772697Y-20890907D01*
X-34770799Y-20834176D01*
X-34770100Y-20770881D01*
X-34770016Y-20711683D01*
X-34766577Y-20703415D01*
X-34758316Y-20700000D01*
X-34581684Y-20700000D01*
X-34573411Y-20703427D01*
G37*
%TD.AperFunction*%
%TD*%
%TA.AperFunction,Conductor*%
%TO.N,/INPUT1*%
G36*
X-37592889Y-17118796D02*
G01*
X-37310691Y-17163354D01*
X-37303054Y-17168029D01*
X-37301010Y-17172788D01*
X-37293889Y-17211375D01*
X-37293886Y-17211389D01*
X-37293837Y-17211653D01*
X-37281755Y-17254428D01*
X-37265968Y-17294116D01*
X-37246180Y-17331865D01*
X-37222092Y-17368820D01*
X-37193407Y-17406129D01*
X-37159827Y-17444939D01*
X-37121055Y-17486395D01*
X-37103862Y-17503972D01*
X-37076793Y-17531646D01*
X-37034992Y-17573564D01*
X-37031577Y-17581842D01*
X-37035004Y-17590099D01*
X-37159901Y-17714996D01*
X-37168174Y-17718423D01*
X-37176436Y-17715008D01*
X-37218354Y-17673207D01*
X-37263605Y-17628945D01*
X-37305061Y-17590173D01*
X-37343871Y-17556593D01*
X-37344011Y-17556485D01*
X-37344020Y-17556478D01*
X-37380990Y-17528054D01*
X-37380991Y-17528053D01*
X-37381180Y-17527908D01*
X-37418135Y-17503820D01*
X-37441492Y-17491576D01*
X-37455624Y-17484168D01*
X-37455628Y-17484166D01*
X-37455884Y-17484032D01*
X-37456161Y-17483922D01*
X-37456165Y-17483920D01*
X-37474801Y-17476507D01*
X-37495572Y-17468245D01*
X-37495867Y-17468162D01*
X-37495872Y-17468160D01*
X-37520118Y-17461312D01*
X-37538347Y-17456163D01*
X-37538611Y-17456114D01*
X-37538625Y-17456111D01*
X-37572650Y-17449832D01*
X-37577212Y-17448990D01*
X-37584726Y-17444118D01*
X-37586646Y-17439309D01*
X-37635879Y-17127503D01*
X-37633784Y-17118796D01*
X-37626147Y-17114121D01*
X-37622498Y-17114121D01*
X-37592889Y-17118796D01*
G37*
%TD.AperFunction*%
%TD*%
%TA.AperFunction,Conductor*%
%TO.N,/INPUT2*%
G36*
X-37572889Y-15648796D02*
G01*
X-37290691Y-15693354D01*
X-37283054Y-15698029D01*
X-37281010Y-15702788D01*
X-37273889Y-15741375D01*
X-37273886Y-15741389D01*
X-37273837Y-15741653D01*
X-37261755Y-15784428D01*
X-37245968Y-15824116D01*
X-37226180Y-15861865D01*
X-37202092Y-15898820D01*
X-37173407Y-15936129D01*
X-37139827Y-15974939D01*
X-37101055Y-16016395D01*
X-37083862Y-16033972D01*
X-37056793Y-16061646D01*
X-37014992Y-16103564D01*
X-37011577Y-16111842D01*
X-37015004Y-16120099D01*
X-37139901Y-16244996D01*
X-37148174Y-16248423D01*
X-37156436Y-16245008D01*
X-37198354Y-16203207D01*
X-37243605Y-16158945D01*
X-37285061Y-16120173D01*
X-37323871Y-16086593D01*
X-37324011Y-16086485D01*
X-37324020Y-16086478D01*
X-37360990Y-16058054D01*
X-37360991Y-16058053D01*
X-37361180Y-16057908D01*
X-37398135Y-16033820D01*
X-37421492Y-16021576D01*
X-37435624Y-16014168D01*
X-37435628Y-16014166D01*
X-37435884Y-16014032D01*
X-37436161Y-16013922D01*
X-37436165Y-16013920D01*
X-37454801Y-16006507D01*
X-37475572Y-15998245D01*
X-37475867Y-15998162D01*
X-37475872Y-15998160D01*
X-37500118Y-15991312D01*
X-37518347Y-15986163D01*
X-37518611Y-15986114D01*
X-37518625Y-15986111D01*
X-37552650Y-15979832D01*
X-37557212Y-15978990D01*
X-37564726Y-15974118D01*
X-37566646Y-15969309D01*
X-37615879Y-15657503D01*
X-37613784Y-15648796D01*
X-37606147Y-15644121D01*
X-37602498Y-15644121D01*
X-37572889Y-15648796D01*
G37*
%TD.AperFunction*%
%TD*%
%TA.AperFunction,Conductor*%
%TO.N,/INPUT2*%
G36*
X-33043411Y-20703427D02*
G01*
X-33039984Y-20711683D01*
X-33039901Y-20770881D01*
X-33039202Y-20834176D01*
X-33037304Y-20890907D01*
X-33033606Y-20942093D01*
X-33027508Y-20988758D01*
X-33018409Y-21031922D01*
X-33005709Y-21072607D01*
X-33005591Y-21072881D01*
X-33005588Y-21072889D01*
X-32988929Y-21111554D01*
X-32988808Y-21111834D01*
X-32967105Y-21150624D01*
X-32955765Y-21167097D01*
X-32944695Y-21183180D01*
X-32942826Y-21191938D01*
X-32944870Y-21196696D01*
X-33130538Y-21451990D01*
X-33138175Y-21456665D01*
X-33146882Y-21454570D01*
X-33149462Y-21451990D01*
X-33335130Y-21196696D01*
X-33337225Y-21187989D01*
X-33335305Y-21183180D01*
X-33313056Y-21150857D01*
X-33313052Y-21150851D01*
X-33312896Y-21150624D01*
X-33291193Y-21111834D01*
X-33291072Y-21111554D01*
X-33274413Y-21072889D01*
X-33274410Y-21072881D01*
X-33274292Y-21072607D01*
X-33261592Y-21031922D01*
X-33252493Y-20988758D01*
X-33246395Y-20942093D01*
X-33242697Y-20890907D01*
X-33240799Y-20834176D01*
X-33240100Y-20770881D01*
X-33240016Y-20711683D01*
X-33236577Y-20703415D01*
X-33228316Y-20700000D01*
X-33051684Y-20700000D01*
X-33043411Y-20703427D01*
G37*
%TD.AperFunction*%
%TD*%
%TA.AperFunction,Conductor*%
%TO.N,/INPUT3*%
G36*
X-37602889Y-14198796D02*
G01*
X-37320691Y-14243354D01*
X-37313054Y-14248029D01*
X-37311010Y-14252788D01*
X-37303889Y-14291375D01*
X-37303886Y-14291389D01*
X-37303837Y-14291653D01*
X-37291755Y-14334428D01*
X-37275968Y-14374116D01*
X-37256180Y-14411865D01*
X-37232092Y-14448820D01*
X-37203407Y-14486129D01*
X-37169827Y-14524939D01*
X-37131055Y-14566395D01*
X-37113862Y-14583972D01*
X-37086793Y-14611646D01*
X-37044992Y-14653564D01*
X-37041577Y-14661842D01*
X-37045004Y-14670099D01*
X-37169901Y-14794996D01*
X-37178174Y-14798423D01*
X-37186436Y-14795008D01*
X-37228354Y-14753207D01*
X-37273605Y-14708945D01*
X-37315061Y-14670173D01*
X-37353871Y-14636593D01*
X-37354011Y-14636485D01*
X-37354020Y-14636478D01*
X-37390990Y-14608054D01*
X-37390991Y-14608053D01*
X-37391180Y-14607908D01*
X-37428135Y-14583820D01*
X-37451492Y-14571576D01*
X-37465624Y-14564168D01*
X-37465628Y-14564166D01*
X-37465884Y-14564032D01*
X-37466161Y-14563922D01*
X-37466165Y-14563920D01*
X-37484801Y-14556507D01*
X-37505572Y-14548245D01*
X-37505867Y-14548162D01*
X-37505872Y-14548160D01*
X-37530118Y-14541312D01*
X-37548347Y-14536163D01*
X-37548611Y-14536114D01*
X-37548625Y-14536111D01*
X-37582650Y-14529832D01*
X-37587212Y-14528990D01*
X-37594726Y-14524118D01*
X-37596646Y-14519309D01*
X-37645879Y-14207503D01*
X-37643784Y-14198796D01*
X-37636147Y-14194121D01*
X-37632498Y-14194121D01*
X-37602889Y-14198796D01*
G37*
%TD.AperFunction*%
%TD*%
%TA.AperFunction,Conductor*%
%TO.N,/INPUT3*%
G36*
X-31503411Y-20703427D02*
G01*
X-31499984Y-20711683D01*
X-31499901Y-20770881D01*
X-31499202Y-20834176D01*
X-31497304Y-20890907D01*
X-31493606Y-20942093D01*
X-31487508Y-20988758D01*
X-31478409Y-21031922D01*
X-31465709Y-21072607D01*
X-31465591Y-21072881D01*
X-31465588Y-21072889D01*
X-31448929Y-21111554D01*
X-31448808Y-21111834D01*
X-31427105Y-21150624D01*
X-31415765Y-21167097D01*
X-31404695Y-21183180D01*
X-31402826Y-21191938D01*
X-31404870Y-21196696D01*
X-31590538Y-21451990D01*
X-31598175Y-21456665D01*
X-31606882Y-21454570D01*
X-31609462Y-21451990D01*
X-31795130Y-21196696D01*
X-31797225Y-21187989D01*
X-31795305Y-21183180D01*
X-31773056Y-21150857D01*
X-31773052Y-21150851D01*
X-31772896Y-21150624D01*
X-31751193Y-21111834D01*
X-31751072Y-21111554D01*
X-31734413Y-21072889D01*
X-31734410Y-21072881D01*
X-31734292Y-21072607D01*
X-31721592Y-21031922D01*
X-31712493Y-20988758D01*
X-31706395Y-20942093D01*
X-31702697Y-20890907D01*
X-31700799Y-20834176D01*
X-31700100Y-20770881D01*
X-31700016Y-20711683D01*
X-31696577Y-20703415D01*
X-31688316Y-20700000D01*
X-31511684Y-20700000D01*
X-31503411Y-20703427D01*
G37*
%TD.AperFunction*%
%TD*%
%TA.AperFunction,Conductor*%
%TO.N,/INPUT4*%
G36*
X-37607889Y-12723796D02*
G01*
X-37325691Y-12768354D01*
X-37318054Y-12773029D01*
X-37316010Y-12777788D01*
X-37308889Y-12816375D01*
X-37308886Y-12816389D01*
X-37308837Y-12816653D01*
X-37296755Y-12859428D01*
X-37280968Y-12899116D01*
X-37261180Y-12936865D01*
X-37237092Y-12973820D01*
X-37208407Y-13011129D01*
X-37174827Y-13049939D01*
X-37136055Y-13091395D01*
X-37118862Y-13108972D01*
X-37091793Y-13136646D01*
X-37049992Y-13178564D01*
X-37046577Y-13186842D01*
X-37050004Y-13195099D01*
X-37174901Y-13319996D01*
X-37183174Y-13323423D01*
X-37191436Y-13320008D01*
X-37233354Y-13278207D01*
X-37278605Y-13233945D01*
X-37320061Y-13195173D01*
X-37358871Y-13161593D01*
X-37359011Y-13161485D01*
X-37359020Y-13161478D01*
X-37395990Y-13133054D01*
X-37395991Y-13133053D01*
X-37396180Y-13132908D01*
X-37433135Y-13108820D01*
X-37456492Y-13096576D01*
X-37470624Y-13089168D01*
X-37470628Y-13089166D01*
X-37470884Y-13089032D01*
X-37471161Y-13088922D01*
X-37471165Y-13088920D01*
X-37489801Y-13081507D01*
X-37510572Y-13073245D01*
X-37510867Y-13073162D01*
X-37510872Y-13073160D01*
X-37535118Y-13066312D01*
X-37553347Y-13061163D01*
X-37553611Y-13061114D01*
X-37553625Y-13061111D01*
X-37587650Y-13054832D01*
X-37592212Y-13053990D01*
X-37599726Y-13049118D01*
X-37601646Y-13044309D01*
X-37650879Y-12732503D01*
X-37648784Y-12723796D01*
X-37641147Y-12719121D01*
X-37637498Y-12719121D01*
X-37607889Y-12723796D01*
G37*
%TD.AperFunction*%
%TD*%
%TA.AperFunction,Conductor*%
%TO.N,/INPUT4*%
G36*
X-29983411Y-20703427D02*
G01*
X-29979984Y-20711683D01*
X-29979901Y-20770881D01*
X-29979202Y-20834176D01*
X-29977304Y-20890907D01*
X-29973606Y-20942093D01*
X-29967508Y-20988758D01*
X-29958409Y-21031922D01*
X-29945709Y-21072607D01*
X-29945591Y-21072881D01*
X-29945588Y-21072889D01*
X-29928929Y-21111554D01*
X-29928808Y-21111834D01*
X-29907105Y-21150624D01*
X-29895765Y-21167097D01*
X-29884695Y-21183180D01*
X-29882826Y-21191938D01*
X-29884870Y-21196696D01*
X-30070538Y-21451990D01*
X-30078175Y-21456665D01*
X-30086882Y-21454570D01*
X-30089462Y-21451990D01*
X-30275130Y-21196696D01*
X-30277225Y-21187989D01*
X-30275305Y-21183180D01*
X-30253056Y-21150857D01*
X-30253052Y-21150851D01*
X-30252896Y-21150624D01*
X-30231193Y-21111834D01*
X-30231072Y-21111554D01*
X-30214413Y-21072889D01*
X-30214410Y-21072881D01*
X-30214292Y-21072607D01*
X-30201592Y-21031922D01*
X-30192493Y-20988758D01*
X-30186395Y-20942093D01*
X-30182697Y-20890907D01*
X-30180799Y-20834176D01*
X-30180100Y-20770881D01*
X-30180016Y-20711683D01*
X-30176577Y-20703415D01*
X-30168316Y-20700000D01*
X-29991684Y-20700000D01*
X-29983411Y-20703427D01*
G37*
%TD.AperFunction*%
%TD*%
%TA.AperFunction,Conductor*%
%TO.N,/INPUT5*%
G36*
X-30053118Y-3995430D02*
G01*
X-30050538Y-3998010D01*
X-29864870Y-4253304D01*
X-29862775Y-4262011D01*
X-29864695Y-4266820D01*
X-29887105Y-4299375D01*
X-29908808Y-4338165D01*
X-29908926Y-4338439D01*
X-29908929Y-4338445D01*
X-29925588Y-4377110D01*
X-29925591Y-4377118D01*
X-29925709Y-4377392D01*
X-29938409Y-4418077D01*
X-29947508Y-4461241D01*
X-29953606Y-4507906D01*
X-29957304Y-4559092D01*
X-29959202Y-4615823D01*
X-29959901Y-4679118D01*
X-29959901Y-4679206D01*
X-29959984Y-4738316D01*
X-29963422Y-4746585D01*
X-29971684Y-4750000D01*
X-30148316Y-4750000D01*
X-30156589Y-4746573D01*
X-30160016Y-4738317D01*
X-30160100Y-4679205D01*
X-30160100Y-4679093D01*
X-30160797Y-4615962D01*
X-30160798Y-4615923D01*
X-30160799Y-4615823D01*
X-30162697Y-4559092D01*
X-30166395Y-4507906D01*
X-30172493Y-4461241D01*
X-30181592Y-4418077D01*
X-30194292Y-4377392D01*
X-30194410Y-4377118D01*
X-30194413Y-4377110D01*
X-30211072Y-4338445D01*
X-30211075Y-4338439D01*
X-30211193Y-4338165D01*
X-30232896Y-4299375D01*
X-30255305Y-4266820D01*
X-30257174Y-4258062D01*
X-30255130Y-4253304D01*
X-30069462Y-3998010D01*
X-30061825Y-3993335D01*
X-30053118Y-3995430D01*
G37*
%TD.AperFunction*%
%TD*%
%TA.AperFunction,Conductor*%
%TO.N,/INPUT5*%
G36*
X-35444897Y-11280008D02*
G01*
X-35320008Y-11404897D01*
X-35316581Y-11413170D01*
X-35320001Y-11421436D01*
X-35362059Y-11463567D01*
X-35406669Y-11509048D01*
X-35445812Y-11550753D01*
X-35445863Y-11550812D01*
X-35445875Y-11550825D01*
X-35466875Y-11575023D01*
X-35479723Y-11589828D01*
X-35508639Y-11627420D01*
X-35508770Y-11627622D01*
X-35532635Y-11664421D01*
X-35532641Y-11664431D01*
X-35532799Y-11664675D01*
X-35552438Y-11702740D01*
X-35567793Y-11742761D01*
X-35579103Y-11785886D01*
X-35579150Y-11786183D01*
X-35585313Y-11825110D01*
X-35589991Y-11832745D01*
X-35594713Y-11834779D01*
X-35723276Y-11858867D01*
X-35905011Y-11892917D01*
X-35913774Y-11891072D01*
X-35918666Y-11883572D01*
X-35918770Y-11879924D01*
X-35912764Y-11833260D01*
X-35878479Y-11566851D01*
X-35874024Y-11559084D01*
X-35869309Y-11556901D01*
X-35829805Y-11548498D01*
X-35829798Y-11548496D01*
X-35829548Y-11548443D01*
X-35829299Y-11548366D01*
X-35829294Y-11548365D01*
X-35808262Y-11541885D01*
X-35786076Y-11535049D01*
X-35769491Y-11528071D01*
X-35746073Y-11518218D01*
X-35746067Y-11518215D01*
X-35745810Y-11518107D01*
X-35707551Y-11497277D01*
X-35670104Y-11472223D01*
X-35669938Y-11472093D01*
X-35669931Y-11472088D01*
X-35632380Y-11442690D01*
X-35632370Y-11442682D01*
X-35632272Y-11442605D01*
X-35592858Y-11408086D01*
X-35584902Y-11400589D01*
X-35550716Y-11368375D01*
X-35550628Y-11368290D01*
X-35504501Y-11322993D01*
X-35461436Y-11280001D01*
X-35453160Y-11276581D01*
X-35444897Y-11280008D01*
G37*
%TD.AperFunction*%
%TD*%
%TA.AperFunction,Conductor*%
%TO.N,/INPUT6*%
G36*
X-31593118Y-3995430D02*
G01*
X-31590538Y-3998010D01*
X-31404870Y-4253304D01*
X-31402775Y-4262011D01*
X-31404695Y-4266820D01*
X-31427105Y-4299375D01*
X-31448808Y-4338165D01*
X-31448926Y-4338439D01*
X-31448929Y-4338445D01*
X-31465588Y-4377110D01*
X-31465591Y-4377118D01*
X-31465709Y-4377392D01*
X-31478409Y-4418077D01*
X-31487508Y-4461241D01*
X-31493606Y-4507906D01*
X-31497304Y-4559092D01*
X-31499202Y-4615823D01*
X-31499901Y-4679118D01*
X-31499901Y-4679206D01*
X-31499984Y-4738316D01*
X-31503422Y-4746585D01*
X-31511684Y-4750000D01*
X-31688316Y-4750000D01*
X-31696589Y-4746573D01*
X-31700016Y-4738317D01*
X-31700100Y-4679205D01*
X-31700100Y-4679093D01*
X-31700797Y-4615962D01*
X-31700798Y-4615923D01*
X-31700799Y-4615823D01*
X-31702697Y-4559092D01*
X-31706395Y-4507906D01*
X-31712493Y-4461241D01*
X-31721592Y-4418077D01*
X-31734292Y-4377392D01*
X-31734410Y-4377118D01*
X-31734413Y-4377110D01*
X-31751072Y-4338445D01*
X-31751075Y-4338439D01*
X-31751193Y-4338165D01*
X-31772896Y-4299375D01*
X-31795305Y-4266820D01*
X-31797174Y-4258062D01*
X-31795130Y-4253304D01*
X-31609462Y-3998010D01*
X-31601825Y-3993335D01*
X-31593118Y-3995430D01*
G37*
%TD.AperFunction*%
%TD*%
%TA.AperFunction,Conductor*%
%TO.N,/INPUT6*%
G36*
X-37463180Y-10959695D02*
G01*
X-37446013Y-10971511D01*
X-37430625Y-10982104D01*
X-37391835Y-11003807D01*
X-37391561Y-11003925D01*
X-37391555Y-11003928D01*
X-37352890Y-11020587D01*
X-37352882Y-11020590D01*
X-37352608Y-11020708D01*
X-37352326Y-11020796D01*
X-37352318Y-11020799D01*
X-37312174Y-11033330D01*
X-37312167Y-11033332D01*
X-37311923Y-11033408D01*
X-37268759Y-11042507D01*
X-37222094Y-11048605D01*
X-37221944Y-11048616D01*
X-37221933Y-11048617D01*
X-37171019Y-11052295D01*
X-37170908Y-11052303D01*
X-37170793Y-11052307D01*
X-37170771Y-11052308D01*
X-37135628Y-11053483D01*
X-37114177Y-11054201D01*
X-37096750Y-11054393D01*
X-37050907Y-11054900D01*
X-37050882Y-11054900D01*
X-37038804Y-11054917D01*
X-36991683Y-11054984D01*
X-36983415Y-11058423D01*
X-36980000Y-11066684D01*
X-36980000Y-11243316D01*
X-36983427Y-11251589D01*
X-36991684Y-11255016D01*
X-37034350Y-11255076D01*
X-37050882Y-11255099D01*
X-37050907Y-11255099D01*
X-37096750Y-11255606D01*
X-37114177Y-11255798D01*
X-37135628Y-11256516D01*
X-37170771Y-11257691D01*
X-37170793Y-11257692D01*
X-37170908Y-11257696D01*
X-37171018Y-11257704D01*
X-37171019Y-11257704D01*
X-37221933Y-11261382D01*
X-37221944Y-11261383D01*
X-37222094Y-11261394D01*
X-37268759Y-11267492D01*
X-37311923Y-11276591D01*
X-37312167Y-11276667D01*
X-37312174Y-11276669D01*
X-37352318Y-11289200D01*
X-37352326Y-11289203D01*
X-37352608Y-11289291D01*
X-37352882Y-11289409D01*
X-37352890Y-11289412D01*
X-37391555Y-11306071D01*
X-37391561Y-11306074D01*
X-37391835Y-11306192D01*
X-37430625Y-11327895D01*
X-37450205Y-11341373D01*
X-37463180Y-11350305D01*
X-37471938Y-11352174D01*
X-37476696Y-11350130D01*
X-37731990Y-11164462D01*
X-37736665Y-11156825D01*
X-37734570Y-11148118D01*
X-37731990Y-11145538D01*
X-37623565Y-11066684D01*
X-37537276Y-11003928D01*
X-37476696Y-10959870D01*
X-37467989Y-10957775D01*
X-37463180Y-10959695D01*
G37*
%TD.AperFunction*%
%TD*%
%TA.AperFunction,Conductor*%
%TO.N,/INPUT7*%
G36*
X-37368180Y-9549695D02*
G01*
X-37351013Y-9561511D01*
X-37335625Y-9572104D01*
X-37296835Y-9593807D01*
X-37296561Y-9593925D01*
X-37296555Y-9593928D01*
X-37257890Y-9610587D01*
X-37257882Y-9610590D01*
X-37257608Y-9610708D01*
X-37257326Y-9610796D01*
X-37257318Y-9610799D01*
X-37217174Y-9623330D01*
X-37217167Y-9623332D01*
X-37216923Y-9623408D01*
X-37173759Y-9632507D01*
X-37127094Y-9638605D01*
X-37126944Y-9638616D01*
X-37126933Y-9638617D01*
X-37076019Y-9642295D01*
X-37075908Y-9642303D01*
X-37075793Y-9642307D01*
X-37075771Y-9642308D01*
X-37040628Y-9643483D01*
X-37019177Y-9644201D01*
X-37001750Y-9644393D01*
X-36955907Y-9644900D01*
X-36955882Y-9644900D01*
X-36943804Y-9644917D01*
X-36896683Y-9644984D01*
X-36888415Y-9648423D01*
X-36885000Y-9656684D01*
X-36885000Y-9833316D01*
X-36888427Y-9841589D01*
X-36896684Y-9845016D01*
X-36939350Y-9845076D01*
X-36955882Y-9845099D01*
X-36955907Y-9845099D01*
X-37001750Y-9845606D01*
X-37019177Y-9845798D01*
X-37040628Y-9846516D01*
X-37075771Y-9847691D01*
X-37075793Y-9847692D01*
X-37075908Y-9847696D01*
X-37076018Y-9847704D01*
X-37076019Y-9847704D01*
X-37126933Y-9851382D01*
X-37126944Y-9851383D01*
X-37127094Y-9851394D01*
X-37173759Y-9857492D01*
X-37216923Y-9866591D01*
X-37217167Y-9866667D01*
X-37217174Y-9866669D01*
X-37257318Y-9879200D01*
X-37257326Y-9879203D01*
X-37257608Y-9879291D01*
X-37257882Y-9879409D01*
X-37257890Y-9879412D01*
X-37296555Y-9896071D01*
X-37296561Y-9896074D01*
X-37296835Y-9896192D01*
X-37335625Y-9917895D01*
X-37355205Y-9931373D01*
X-37368180Y-9940305D01*
X-37376938Y-9942174D01*
X-37381696Y-9940130D01*
X-37636990Y-9754462D01*
X-37641665Y-9746825D01*
X-37639570Y-9738118D01*
X-37636990Y-9735538D01*
X-37528565Y-9656684D01*
X-37442276Y-9593928D01*
X-37381696Y-9549870D01*
X-37372989Y-9547775D01*
X-37368180Y-9549695D01*
G37*
%TD.AperFunction*%
%TD*%
%TA.AperFunction,Conductor*%
%TO.N,/INPUT7*%
G36*
X-33123118Y-3985430D02*
G01*
X-33120538Y-3988010D01*
X-32934870Y-4243304D01*
X-32932775Y-4252011D01*
X-32934695Y-4256820D01*
X-32957105Y-4289375D01*
X-32978808Y-4328165D01*
X-32978926Y-4328439D01*
X-32978929Y-4328445D01*
X-32995588Y-4367110D01*
X-32995591Y-4367118D01*
X-32995709Y-4367392D01*
X-33008409Y-4408077D01*
X-33017508Y-4451241D01*
X-33023606Y-4497906D01*
X-33027304Y-4549092D01*
X-33029202Y-4605823D01*
X-33029901Y-4669118D01*
X-33029901Y-4669206D01*
X-33029984Y-4728316D01*
X-33033422Y-4736585D01*
X-33041684Y-4740000D01*
X-33218316Y-4740000D01*
X-33226589Y-4736573D01*
X-33230016Y-4728317D01*
X-33230100Y-4669205D01*
X-33230100Y-4669093D01*
X-33230797Y-4605962D01*
X-33230798Y-4605923D01*
X-33230799Y-4605823D01*
X-33232697Y-4549092D01*
X-33236395Y-4497906D01*
X-33242493Y-4451241D01*
X-33251592Y-4408077D01*
X-33264292Y-4367392D01*
X-33264410Y-4367118D01*
X-33264413Y-4367110D01*
X-33281072Y-4328445D01*
X-33281075Y-4328439D01*
X-33281193Y-4328165D01*
X-33302896Y-4289375D01*
X-33325305Y-4256820D01*
X-33327174Y-4248062D01*
X-33325130Y-4243304D01*
X-33139462Y-3988010D01*
X-33131825Y-3983335D01*
X-33123118Y-3985430D01*
G37*
%TD.AperFunction*%
%TD*%
%TA.AperFunction,Conductor*%
%TO.N,/INPUT8*%
G36*
X-37423180Y-8034695D02*
G01*
X-37406013Y-8046511D01*
X-37390625Y-8057104D01*
X-37351835Y-8078807D01*
X-37351561Y-8078925D01*
X-37351555Y-8078928D01*
X-37312890Y-8095587D01*
X-37312882Y-8095590D01*
X-37312608Y-8095708D01*
X-37312326Y-8095796D01*
X-37312318Y-8095799D01*
X-37272174Y-8108330D01*
X-37272167Y-8108332D01*
X-37271923Y-8108408D01*
X-37228759Y-8117507D01*
X-37182094Y-8123605D01*
X-37181944Y-8123616D01*
X-37181933Y-8123617D01*
X-37131019Y-8127295D01*
X-37130908Y-8127303D01*
X-37130793Y-8127307D01*
X-37130771Y-8127308D01*
X-37095628Y-8128483D01*
X-37074177Y-8129201D01*
X-37056750Y-8129393D01*
X-37010907Y-8129900D01*
X-37010882Y-8129900D01*
X-36998804Y-8129917D01*
X-36951683Y-8129984D01*
X-36943415Y-8133423D01*
X-36940000Y-8141684D01*
X-36940000Y-8318316D01*
X-36943427Y-8326589D01*
X-36951684Y-8330016D01*
X-36994350Y-8330076D01*
X-37010882Y-8330099D01*
X-37010907Y-8330099D01*
X-37056750Y-8330606D01*
X-37074177Y-8330798D01*
X-37095628Y-8331516D01*
X-37130771Y-8332691D01*
X-37130793Y-8332692D01*
X-37130908Y-8332696D01*
X-37131018Y-8332704D01*
X-37131019Y-8332704D01*
X-37181933Y-8336382D01*
X-37181944Y-8336383D01*
X-37182094Y-8336394D01*
X-37228759Y-8342492D01*
X-37271923Y-8351591D01*
X-37272167Y-8351667D01*
X-37272174Y-8351669D01*
X-37312318Y-8364200D01*
X-37312326Y-8364203D01*
X-37312608Y-8364291D01*
X-37312882Y-8364409D01*
X-37312890Y-8364412D01*
X-37351555Y-8381071D01*
X-37351561Y-8381074D01*
X-37351835Y-8381192D01*
X-37390625Y-8402895D01*
X-37410205Y-8416373D01*
X-37423180Y-8425305D01*
X-37431938Y-8427174D01*
X-37436696Y-8425130D01*
X-37691990Y-8239462D01*
X-37696665Y-8231825D01*
X-37694570Y-8223118D01*
X-37691990Y-8220538D01*
X-37583565Y-8141684D01*
X-37497276Y-8078928D01*
X-37436696Y-8034870D01*
X-37427989Y-8032775D01*
X-37423180Y-8034695D01*
G37*
%TD.AperFunction*%
%TD*%
%TA.AperFunction,Conductor*%
%TO.N,/INPUT8*%
G36*
X-34653118Y-3985430D02*
G01*
X-34650538Y-3988010D01*
X-34464870Y-4243304D01*
X-34462775Y-4252011D01*
X-34464695Y-4256820D01*
X-34487105Y-4289375D01*
X-34508808Y-4328165D01*
X-34508926Y-4328439D01*
X-34508929Y-4328445D01*
X-34525588Y-4367110D01*
X-34525591Y-4367118D01*
X-34525709Y-4367392D01*
X-34538409Y-4408077D01*
X-34547508Y-4451241D01*
X-34553606Y-4497906D01*
X-34557304Y-4549092D01*
X-34559202Y-4605823D01*
X-34559901Y-4669118D01*
X-34559901Y-4669206D01*
X-34559984Y-4728316D01*
X-34563422Y-4736585D01*
X-34571684Y-4740000D01*
X-34748316Y-4740000D01*
X-34756589Y-4736573D01*
X-34760016Y-4728317D01*
X-34760100Y-4669205D01*
X-34760100Y-4669093D01*
X-34760797Y-4605962D01*
X-34760798Y-4605923D01*
X-34760799Y-4605823D01*
X-34762697Y-4549092D01*
X-34766395Y-4497906D01*
X-34772493Y-4451241D01*
X-34781592Y-4408077D01*
X-34794292Y-4367392D01*
X-34794410Y-4367118D01*
X-34794413Y-4367110D01*
X-34811072Y-4328445D01*
X-34811075Y-4328439D01*
X-34811193Y-4328165D01*
X-34832896Y-4289375D01*
X-34855305Y-4256820D01*
X-34857174Y-4248062D01*
X-34855130Y-4243304D01*
X-34669462Y-3988010D01*
X-34661825Y-3983335D01*
X-34653118Y-3985430D01*
G37*
%TD.AperFunction*%
%TD*%
%TA.AperFunction,Conductor*%
%TO.N,GND*%
G36*
X-35672Y-510623D02*
G01*
X-21353Y-513285D01*
X-12422Y-512383D01*
X-5849Y-511719D01*
X19342Y-511706D01*
X201683Y-529930D01*
X219111Y-532918D01*
X320530Y-557749D01*
X421946Y-582579D01*
X438780Y-587977D01*
X632675Y-665557D01*
X648583Y-673259D01*
X759010Y-736647D01*
X829689Y-777219D01*
X844373Y-787080D01*
X1009139Y-915380D01*
X1022295Y-927197D01*
X1097592Y-1005053D01*
X1167469Y-1077305D01*
X1178842Y-1090851D01*
X1301558Y-1259799D01*
X1310924Y-1274805D01*
X1408778Y-1459287D01*
X1415948Y-1475455D01*
X1487003Y-1671816D01*
X1491840Y-1688830D01*
X1525902Y-1851267D01*
X1534696Y-1893206D01*
X1537102Y-1910731D01*
X1548752Y-2086476D01*
X1547875Y-2105471D01*
X1547756Y-2112780D01*
X1546339Y-2121642D01*
X1547466Y-2130541D01*
X1547466Y-2130543D01*
X1550502Y-2154513D01*
X1551500Y-2170344D01*
X1551500Y-7966045D01*
X1531498Y-8034166D01*
X1477842Y-8080659D01*
X1407568Y-8090763D01*
X1342988Y-8061269D01*
X1313838Y-8024420D01*
X1241393Y-7885846D01*
X1234679Y-7875585D01*
X1118532Y-7731127D01*
X1109954Y-7722368D01*
X967961Y-7603222D01*
X957841Y-7596292D01*
X795415Y-7506998D01*
X784142Y-7502166D01*
X607462Y-7446120D01*
X595468Y-7443570D01*
X451239Y-7427393D01*
X444215Y-7427000D01*
X213115Y-7427000D01*
X197876Y-7431475D01*
X196671Y-7432865D01*
X195000Y-7440548D01*
X195000Y-9424885D01*
X199475Y-9440124D01*
X200865Y-9441329D01*
X208548Y-9443000D01*
X437657Y-9443000D01*
X443805Y-9442699D01*
X581603Y-9429188D01*
X593638Y-9426805D01*
X771076Y-9373233D01*
X782416Y-9368559D01*
X946077Y-9281540D01*
X956294Y-9274751D01*
X1099933Y-9157603D01*
X1108637Y-9148959D01*
X1226784Y-9006144D01*
X1233644Y-8995973D01*
X1314664Y-8846130D01*
X1364659Y-8795721D01*
X1433970Y-8780344D01*
X1500592Y-8804880D01*
X1543373Y-8861540D01*
X1551500Y-8906059D01*
X1551500Y-16616045D01*
X1531498Y-16684166D01*
X1477842Y-16730659D01*
X1407568Y-16740763D01*
X1342988Y-16711269D01*
X1313838Y-16674420D01*
X1241393Y-16535846D01*
X1234679Y-16525585D01*
X1118532Y-16381127D01*
X1109954Y-16372368D01*
X967961Y-16253222D01*
X957841Y-16246292D01*
X795415Y-16156998D01*
X784142Y-16152166D01*
X607462Y-16096120D01*
X595468Y-16093570D01*
X451239Y-16077393D01*
X444215Y-16077000D01*
X213115Y-16077000D01*
X197876Y-16081475D01*
X196671Y-16082865D01*
X195000Y-16090548D01*
X195000Y-18074885D01*
X199475Y-18090124D01*
X200865Y-18091329D01*
X208548Y-18093000D01*
X437657Y-18093000D01*
X443805Y-18092699D01*
X581603Y-18079188D01*
X593638Y-18076805D01*
X771076Y-18023233D01*
X782416Y-18018559D01*
X946077Y-17931540D01*
X956294Y-17924751D01*
X1099933Y-17807603D01*
X1108637Y-17798959D01*
X1226784Y-17656144D01*
X1233644Y-17645973D01*
X1314664Y-17496130D01*
X1364659Y-17445721D01*
X1433970Y-17430344D01*
X1500592Y-17454880D01*
X1543373Y-17511540D01*
X1551500Y-17556059D01*
X1551500Y-23538959D01*
X1551009Y-23548154D01*
X1549189Y-23555315D01*
X1549508Y-23564283D01*
X1549508Y-23564287D01*
X1549732Y-23570571D01*
X1548069Y-23595938D01*
X1516232Y-23785351D01*
X1511942Y-23802988D01*
X1446478Y-24006848D01*
X1445496Y-24009905D01*
X1438716Y-24026744D01*
X1343221Y-24221977D01*
X1334091Y-24237666D01*
X1211540Y-24417144D01*
X1200252Y-24431357D01*
X1174843Y-24459000D01*
X1053182Y-24591361D01*
X1039968Y-24603805D01*
X871426Y-24741024D01*
X856566Y-24751437D01*
X670052Y-24863014D01*
X653850Y-24871182D01*
X453246Y-24954798D01*
X436033Y-24960556D01*
X225502Y-25014476D01*
X207640Y-25017702D01*
X129057Y-25026106D01*
X23628Y-25037381D01*
X6471Y-25037265D01*
X6471Y-25037273D01*
X-2501Y-25037472D01*
X-11415Y-25036397D01*
X-31919Y-25039800D01*
X-52549Y-25041500D01*
X-43901000Y-25041500D01*
X-43969121Y-25021498D01*
X-44015614Y-24967842D01*
X-44027000Y-24915500D01*
X-44027000Y-24477115D01*
X-44031475Y-24461876D01*
X-44032865Y-24460671D01*
X-44040548Y-24459000D01*
X-45513000Y-24459000D01*
X-45581121Y-24438998D01*
X-45627614Y-24385342D01*
X-45639000Y-24333000D01*
X-45639000Y-24077000D01*
X-45618998Y-24008879D01*
X-45565342Y-23962386D01*
X-45513000Y-23951000D01*
X-44045116Y-23951000D01*
X-44029877Y-23946525D01*
X-44028672Y-23945135D01*
X-44027001Y-23937452D01*
X-44027001Y-23310331D01*
X-44027371Y-23303510D01*
X-44032895Y-23252648D01*
X-44036521Y-23237396D01*
X-44081676Y-23116946D01*
X-44090214Y-23101351D01*
X-44166715Y-22999276D01*
X-44179276Y-22986715D01*
X-44281351Y-22910214D01*
X-44296946Y-22901676D01*
X-44407187Y-22860348D01*
X-44463951Y-22817706D01*
X-44488651Y-22751145D01*
X-44479628Y-22710000D01*
X-40503474Y-22710000D01*
X-40483609Y-22962403D01*
X-40482455Y-22967210D01*
X-40482454Y-22967216D01*
X-40463407Y-23046552D01*
X-40424505Y-23208591D01*
X-40422612Y-23213162D01*
X-40422611Y-23213164D01*
X-40385188Y-23303510D01*
X-40327616Y-23442502D01*
X-40195328Y-23658376D01*
X-40030898Y-23850898D01*
X-39838376Y-24015328D01*
X-39622502Y-24147616D01*
X-39617932Y-24149509D01*
X-39617928Y-24149511D01*
X-39414112Y-24233934D01*
X-39388591Y-24244505D01*
X-39303968Y-24264821D01*
X-39147216Y-24302454D01*
X-39147210Y-24302455D01*
X-39142403Y-24303609D01*
X-38890000Y-24323474D01*
X-38637597Y-24303609D01*
X-38632790Y-24302455D01*
X-38632784Y-24302454D01*
X-38476032Y-24264821D01*
X-38391409Y-24244505D01*
X-38365888Y-24233934D01*
X-38162072Y-24149511D01*
X-38162068Y-24149509D01*
X-38157498Y-24147616D01*
X-37941624Y-24015328D01*
X-37749102Y-23850898D01*
X-37584672Y-23658376D01*
X-37452384Y-23442502D01*
X-37394811Y-23303510D01*
X-37357389Y-23213164D01*
X-37357388Y-23213162D01*
X-37355495Y-23208591D01*
X-37316593Y-23046552D01*
X-28403044Y-23046552D01*
X-28402528Y-23052696D01*
X-28389053Y-23213164D01*
X-28387315Y-23233865D01*
X-28335503Y-23414555D01*
X-28332688Y-23420032D01*
X-28332687Y-23420035D01*
X-28258781Y-23563841D01*
X-28249582Y-23581740D01*
X-28245759Y-23586564D01*
X-28245756Y-23586568D01*
X-28180002Y-23669528D01*
X-28132823Y-23729052D01*
X-28128129Y-23733047D01*
X-28045946Y-23802990D01*
X-27989676Y-23850880D01*
X-27984298Y-23853886D01*
X-27984296Y-23853887D01*
X-27907634Y-23896732D01*
X-27825591Y-23942584D01*
X-27646820Y-24000670D01*
X-27460170Y-24022927D01*
X-27454035Y-24022455D01*
X-27454033Y-24022455D01*
X-27278895Y-24008979D01*
X-27278891Y-24008978D01*
X-27272753Y-24008506D01*
X-27187622Y-23984737D01*
X-27097650Y-23959616D01*
X-27097647Y-23959615D01*
X-27091706Y-23957956D01*
X-27086202Y-23955176D01*
X-27086200Y-23955175D01*
X-26929426Y-23875983D01*
X-26929424Y-23875982D01*
X-26923925Y-23873204D01*
X-26919070Y-23869411D01*
X-26913864Y-23866107D01*
X-26913728Y-23866322D01*
X-26905505Y-23860919D01*
X-26901793Y-23859226D01*
X-26898015Y-23856801D01*
X-26897999Y-23856792D01*
X-26848496Y-23825013D01*
X-26841060Y-23820592D01*
X-26808982Y-23802990D01*
X-26808147Y-23802532D01*
X-26798773Y-23797885D01*
X-26775186Y-23787386D01*
X-26764542Y-23783216D01*
X-26743382Y-23776019D01*
X-26732604Y-23772884D01*
X-26705527Y-23766302D01*
X-26695821Y-23764344D01*
X-26655230Y-23757806D01*
X-26647400Y-23756797D01*
X-26634284Y-23755522D01*
X-26588307Y-23751054D01*
X-26582602Y-23750630D01*
X-26543289Y-23748605D01*
X-26502439Y-23746501D01*
X-26498742Y-23746366D01*
X-26447565Y-23745252D01*
X-26396555Y-23744142D01*
X-26394429Y-23744114D01*
X-26322474Y-23743763D01*
X-26279137Y-23743551D01*
X-26260135Y-23742463D01*
X-26231631Y-23740830D01*
X-26231629Y-23740830D01*
X-26225490Y-23740478D01*
X-26222504Y-23739708D01*
X-26206930Y-23738500D01*
X-25322056Y-23738500D01*
X-25310200Y-23739059D01*
X-25310197Y-23739059D01*
X-25302463Y-23740788D01*
X-25231631Y-23738562D01*
X-25227673Y-23738500D01*
X-25198568Y-23738500D01*
X-25194168Y-23737944D01*
X-25182336Y-23737012D01*
X-25136169Y-23735562D01*
X-25115579Y-23729580D01*
X-25096218Y-23725570D01*
X-25089230Y-23724688D01*
X-25082796Y-23723875D01*
X-25082795Y-23723875D01*
X-25074936Y-23722882D01*
X-25067571Y-23719966D01*
X-25067567Y-23719965D01*
X-25031979Y-23705874D01*
X-25020769Y-23702035D01*
X-24976400Y-23689145D01*
X-24957935Y-23678225D01*
X-24940195Y-23669534D01*
X-24920244Y-23661635D01*
X-24882871Y-23634482D01*
X-24872952Y-23627967D01*
X-24840023Y-23608493D01*
X-24840019Y-23608490D01*
X-24833193Y-23604453D01*
X-24818029Y-23589289D01*
X-24802995Y-23576448D01*
X-24792057Y-23568501D01*
X-24785643Y-23563841D01*
X-24756197Y-23528247D01*
X-24748208Y-23519468D01*
X-23938740Y-22710000D01*
X-2413474Y-22710000D01*
X-2393609Y-22962403D01*
X-2392455Y-22967210D01*
X-2392454Y-22967216D01*
X-2373407Y-23046552D01*
X-2334505Y-23208591D01*
X-2332612Y-23213162D01*
X-2332611Y-23213164D01*
X-2295188Y-23303510D01*
X-2237616Y-23442502D01*
X-2105328Y-23658376D01*
X-1940898Y-23850898D01*
X-1748376Y-24015328D01*
X-1532502Y-24147616D01*
X-1527932Y-24149509D01*
X-1527928Y-24149511D01*
X-1324112Y-24233934D01*
X-1298591Y-24244505D01*
X-1213968Y-24264821D01*
X-1057216Y-24302454D01*
X-1057210Y-24302455D01*
X-1052403Y-24303609D01*
X-800000Y-24323474D01*
X-547597Y-24303609D01*
X-542790Y-24302455D01*
X-542784Y-24302454D01*
X-386032Y-24264821D01*
X-301409Y-24244505D01*
X-275888Y-24233934D01*
X-72072Y-24149511D01*
X-72068Y-24149509D01*
X-67498Y-24147616D01*
X148376Y-24015328D01*
X340898Y-23850898D01*
X505328Y-23658376D01*
X637616Y-23442502D01*
X695189Y-23303510D01*
X732611Y-23213164D01*
X732612Y-23213162D01*
X734505Y-23208591D01*
X773407Y-23046552D01*
X792454Y-22967216D01*
X792455Y-22967210D01*
X793609Y-22962403D01*
X813474Y-22710000D01*
X793609Y-22457597D01*
X783731Y-22416449D01*
X735660Y-22216221D01*
X734505Y-22211409D01*
X716032Y-22166811D01*
X639511Y-21982072D01*
X639509Y-21982068D01*
X637616Y-21977498D01*
X505328Y-21761624D01*
X340898Y-21569102D01*
X148376Y-21404672D01*
X-67498Y-21272384D01*
X-72068Y-21270491D01*
X-72072Y-21270489D01*
X-296836Y-21177389D01*
X-296838Y-21177388D01*
X-301409Y-21175495D01*
X-391372Y-21153897D01*
X-542784Y-21117546D01*
X-542790Y-21117545D01*
X-547597Y-21116391D01*
X-800000Y-21096526D01*
X-1052403Y-21116391D01*
X-1057210Y-21117545D01*
X-1057216Y-21117546D01*
X-1208628Y-21153897D01*
X-1298591Y-21175495D01*
X-1303162Y-21177388D01*
X-1303164Y-21177389D01*
X-1527928Y-21270489D01*
X-1527932Y-21270491D01*
X-1532502Y-21272384D01*
X-1748376Y-21404672D01*
X-1940898Y-21569102D01*
X-2105328Y-21761624D01*
X-2237616Y-21977498D01*
X-2239509Y-21982068D01*
X-2239511Y-21982072D01*
X-2316032Y-22166811D01*
X-2334505Y-22211409D01*
X-2335660Y-22216221D01*
X-2383730Y-22416449D01*
X-2393609Y-22457597D01*
X-2413474Y-22710000D01*
X-23938740Y-22710000D01*
X-20443280Y-19214540D01*
X-20429753Y-19202811D01*
X-20414782Y-19191590D01*
X-20408747Y-19187067D01*
X-20347779Y-19126028D01*
X-20347349Y-19125600D01*
X-20289184Y-19067996D01*
X-20287569Y-19066425D01*
X-20241418Y-19022325D01*
X-20238267Y-19019415D01*
X-20204886Y-18989624D01*
X-20199747Y-18985279D01*
X-20181210Y-18970435D01*
X-20125946Y-18944997D01*
X-20112855Y-18942513D01*
X-20094991Y-18937029D01*
X-20075985Y-18931195D01*
X-20065208Y-18928401D01*
X-19997226Y-18913951D01*
X-19983248Y-18910980D01*
X-19952617Y-18897342D01*
X-19824415Y-18840263D01*
X-19824413Y-18840262D01*
X-19818385Y-18837578D01*
X-19813043Y-18833697D01*
X-19677731Y-18735387D01*
X-19677729Y-18735385D01*
X-19672387Y-18731504D01*
X-19667965Y-18726593D01*
X-19556052Y-18602301D01*
X-19556051Y-18602300D01*
X-19551633Y-18597393D01*
X-19461401Y-18441107D01*
X-19438825Y-18371625D01*
X-19407675Y-18275754D01*
X-19407675Y-18275753D01*
X-19405635Y-18269475D01*
X-19403805Y-18252069D01*
X-19387461Y-18096565D01*
X-19386771Y-18090000D01*
X-19394356Y-18017834D01*
X-19404945Y-17917089D01*
X-19404945Y-17917088D01*
X-19405635Y-17910525D01*
X-19412341Y-17889884D01*
X-19447877Y-17780516D01*
X-19461401Y-17738893D01*
X-19482913Y-17701632D01*
X-19545079Y-17593958D01*
X-19547257Y-17589870D01*
X-19548218Y-17588216D01*
X-19550200Y-17584166D01*
X-19552734Y-17580445D01*
X-19552738Y-17580438D01*
X-19557708Y-17573139D01*
X-19578796Y-17516084D01*
X-19579299Y-17511540D01*
X-19581410Y-17492460D01*
X-19581970Y-17485771D01*
X-19582744Y-17472137D01*
X-19584509Y-17441082D01*
X-19584679Y-17436799D01*
X-19586126Y-17373153D01*
X-19586158Y-17370899D01*
X-19586555Y-17288876D01*
X-19586556Y-17288194D01*
X-19586508Y-17203678D01*
X-19586507Y-17201999D01*
X-19586744Y-17197531D01*
X-19589105Y-17153141D01*
X-19589105Y-17153139D01*
X-19589434Y-17146958D01*
X-19590316Y-17143498D01*
X-19591500Y-17127889D01*
X-19591500Y-15650954D01*
X-19571498Y-15582833D01*
X-19517842Y-15536340D01*
X-19447568Y-15526236D01*
X-19439079Y-15527755D01*
X-19437910Y-15528006D01*
X-19343577Y-15537671D01*
X-19339757Y-15538122D01*
X-19312957Y-15541697D01*
X-19298960Y-15541991D01*
X-19260815Y-15538519D01*
X-19249395Y-15538000D01*
X-18174036Y-15538000D01*
X-18157373Y-15539107D01*
X-18137957Y-15541697D01*
X-18123959Y-15541991D01*
X-18085812Y-15538519D01*
X-18074393Y-15538000D01*
X-17212115Y-15538000D01*
X-17196876Y-15533525D01*
X-17195671Y-15532135D01*
X-17194000Y-15524452D01*
X-17194000Y-15519884D01*
X-16686000Y-15519884D01*
X-16681525Y-15535123D01*
X-16680135Y-15536328D01*
X-16672452Y-15537999D01*
X-15824042Y-15537999D01*
X-15807377Y-15539106D01*
X-15787955Y-15541698D01*
X-15773960Y-15541991D01*
X-15735806Y-15538518D01*
X-15724385Y-15537999D01*
X-14649042Y-15537999D01*
X-14632377Y-15539106D01*
X-14612955Y-15541698D01*
X-14598960Y-15541991D01*
X-14560804Y-15538518D01*
X-14549384Y-15537999D01*
X-14542907Y-15537999D01*
X-14536388Y-15537662D01*
X-14440798Y-15527744D01*
X-14427397Y-15524850D01*
X-14355477Y-15500856D01*
X-14354538Y-15500547D01*
X-14281008Y-15476656D01*
X-14275654Y-15474555D01*
X-14270097Y-15471951D01*
X-14263728Y-15464850D01*
X-14267616Y-15455937D01*
X-14942421Y-14781132D01*
X-14231249Y-14781132D01*
X-14231118Y-14782965D01*
X-14226867Y-14789580D01*
X-13917096Y-15099351D01*
X-13904716Y-15106111D01*
X-13898931Y-15101780D01*
X-13896036Y-15095572D01*
X-13876590Y-15036945D01*
X-13874785Y-15031868D01*
X-13853672Y-14976288D01*
X-13848438Y-14955903D01*
X-13848410Y-14955910D01*
X-13845287Y-14942570D01*
X-13844860Y-14941281D01*
X-13841995Y-14927919D01*
X-13833357Y-14843602D01*
X-13832786Y-14838905D01*
X-13828053Y-14805232D01*
X-13827446Y-14797340D01*
X-13827259Y-14783962D01*
X-13827646Y-14776062D01*
X-13831215Y-14744241D01*
X-13832000Y-14730196D01*
X-13832000Y-13842123D01*
X-13830774Y-13824587D01*
X-13828052Y-13805221D01*
X-13827446Y-13797338D01*
X-13827259Y-13783947D01*
X-13827644Y-13776076D01*
X-13831215Y-13744239D01*
X-13832000Y-13730195D01*
X-13832000Y-13052115D01*
X-13836475Y-13036876D01*
X-13837865Y-13035671D01*
X-13845548Y-13034000D01*
X-13964332Y-13034000D01*
X-13975357Y-13037237D01*
X-13972119Y-13044328D01*
X-13938048Y-13078399D01*
X-13904022Y-13140711D01*
X-13909087Y-13211526D01*
X-13938048Y-13256589D01*
X-13948648Y-13267189D01*
X-13956260Y-13281130D01*
X-13956129Y-13282966D01*
X-13951877Y-13289582D01*
X-13938048Y-13303411D01*
X-13904022Y-13365723D01*
X-13909087Y-13436538D01*
X-13938048Y-13481601D01*
X-14223635Y-13767188D01*
X-14231249Y-13781132D01*
X-14231118Y-13782965D01*
X-14226867Y-13789580D01*
X-13938048Y-14078399D01*
X-13904022Y-14140711D01*
X-13909087Y-14211526D01*
X-13938048Y-14256589D01*
X-13948648Y-14267189D01*
X-13956260Y-14281130D01*
X-13956129Y-14282966D01*
X-13951877Y-14289582D01*
X-13938048Y-14303411D01*
X-13904022Y-14365723D01*
X-13909087Y-14436538D01*
X-13938048Y-14481601D01*
X-14223635Y-14767188D01*
X-14231249Y-14781132D01*
X-14942421Y-14781132D01*
X-15164688Y-14558865D01*
X-15178632Y-14551251D01*
X-15180465Y-14551382D01*
X-15187080Y-14555633D01*
X-15675905Y-15044458D01*
X-15738217Y-15078484D01*
X-15809032Y-15073419D01*
X-15854095Y-15044458D01*
X-16339688Y-14558865D01*
X-16353632Y-14551251D01*
X-16355465Y-14551382D01*
X-16362080Y-14555633D01*
X-16673188Y-14866741D01*
X-16686000Y-14890203D01*
X-16686000Y-15519884D01*
X-17194000Y-15519884D01*
X-17194000Y-14897668D01*
X-17201530Y-14872023D01*
X-17514688Y-14558865D01*
X-17528632Y-14551251D01*
X-17530465Y-14551382D01*
X-17537080Y-14555633D01*
X-18025905Y-15044458D01*
X-18088217Y-15078484D01*
X-18159032Y-15073419D01*
X-18204095Y-15044458D01*
X-18689688Y-14558865D01*
X-18703632Y-14551251D01*
X-18705465Y-14551382D01*
X-18712080Y-14555633D01*
X-19200905Y-15044458D01*
X-19263217Y-15078484D01*
X-19334032Y-15073419D01*
X-19379095Y-15044458D01*
X-19554595Y-14868958D01*
X-19588621Y-14806646D01*
X-19591500Y-14779863D01*
X-19591500Y-14429137D01*
X-19571498Y-14361016D01*
X-19517842Y-14314523D01*
X-19447568Y-14304419D01*
X-19382988Y-14333913D01*
X-19376405Y-14340042D01*
X-19302812Y-14413635D01*
X-19288868Y-14421249D01*
X-19287035Y-14421118D01*
X-19280420Y-14416867D01*
X-19156365Y-14292812D01*
X-19149987Y-14281132D01*
X-18256249Y-14281132D01*
X-18256118Y-14282965D01*
X-18251867Y-14289580D01*
X-18127812Y-14413635D01*
X-18113868Y-14421249D01*
X-18112035Y-14421118D01*
X-18105420Y-14416867D01*
X-17981365Y-14292812D01*
X-17974987Y-14281132D01*
X-15906249Y-14281132D01*
X-15906118Y-14282965D01*
X-15901867Y-14289580D01*
X-15777812Y-14413635D01*
X-15763868Y-14421249D01*
X-15762035Y-14421118D01*
X-15755420Y-14416867D01*
X-15631365Y-14292812D01*
X-15624987Y-14281132D01*
X-14731249Y-14281132D01*
X-14731118Y-14282965D01*
X-14726867Y-14289580D01*
X-14602812Y-14413635D01*
X-14588868Y-14421249D01*
X-14587035Y-14421118D01*
X-14580420Y-14416867D01*
X-14456365Y-14292812D01*
X-14448751Y-14278868D01*
X-14448882Y-14277035D01*
X-14453133Y-14270420D01*
X-14577188Y-14146365D01*
X-14591132Y-14138751D01*
X-14592965Y-14138882D01*
X-14599580Y-14143133D01*
X-14723635Y-14267188D01*
X-14731249Y-14281132D01*
X-15624987Y-14281132D01*
X-15623751Y-14278868D01*
X-15623882Y-14277035D01*
X-15628133Y-14270420D01*
X-15752188Y-14146365D01*
X-15766132Y-14138751D01*
X-15767965Y-14138882D01*
X-15774580Y-14143133D01*
X-15898635Y-14267188D01*
X-15906249Y-14281132D01*
X-17974987Y-14281132D01*
X-17973751Y-14278868D01*
X-17973882Y-14277035D01*
X-17978133Y-14270420D01*
X-18102188Y-14146365D01*
X-18116132Y-14138751D01*
X-18117965Y-14138882D01*
X-18124580Y-14143133D01*
X-18248635Y-14267188D01*
X-18256249Y-14281132D01*
X-19149987Y-14281132D01*
X-19148751Y-14278868D01*
X-19148882Y-14277035D01*
X-19153133Y-14270420D01*
X-19277188Y-14146365D01*
X-19291132Y-14138751D01*
X-19292965Y-14138882D01*
X-19299580Y-14143133D01*
X-19376405Y-14219958D01*
X-19438717Y-14253984D01*
X-19509532Y-14248919D01*
X-19566368Y-14206372D01*
X-19591179Y-14139852D01*
X-19591500Y-14130863D01*
X-19591500Y-13781132D01*
X-18931249Y-13781132D01*
X-18931118Y-13782965D01*
X-18926867Y-13789580D01*
X-18715312Y-14001135D01*
X-18701368Y-14008749D01*
X-18699535Y-14008618D01*
X-18692920Y-14004367D01*
X-18481365Y-13792812D01*
X-18474987Y-13781132D01*
X-17756249Y-13781132D01*
X-17756118Y-13782965D01*
X-17751867Y-13789580D01*
X-17540312Y-14001135D01*
X-17526368Y-14008749D01*
X-17524535Y-14008618D01*
X-17517920Y-14004367D01*
X-17306365Y-13792812D01*
X-17299987Y-13781132D01*
X-16581249Y-13781132D01*
X-16581118Y-13782965D01*
X-16576867Y-13789580D01*
X-16365312Y-14001135D01*
X-16351368Y-14008749D01*
X-16349535Y-14008618D01*
X-16342920Y-14004367D01*
X-16131365Y-13792812D01*
X-16124987Y-13781132D01*
X-15406249Y-13781132D01*
X-15406118Y-13782965D01*
X-15401867Y-13789580D01*
X-15190312Y-14001135D01*
X-15176368Y-14008749D01*
X-15174535Y-14008618D01*
X-15167920Y-14004367D01*
X-14956365Y-13792812D01*
X-14948751Y-13778868D01*
X-14948882Y-13777035D01*
X-14953133Y-13770420D01*
X-15164688Y-13558865D01*
X-15178632Y-13551251D01*
X-15180465Y-13551382D01*
X-15187080Y-13555633D01*
X-15398635Y-13767188D01*
X-15406249Y-13781132D01*
X-16124987Y-13781132D01*
X-16123751Y-13778868D01*
X-16123882Y-13777035D01*
X-16128133Y-13770420D01*
X-16339688Y-13558865D01*
X-16353632Y-13551251D01*
X-16355465Y-13551382D01*
X-16362080Y-13555633D01*
X-16573635Y-13767188D01*
X-16581249Y-13781132D01*
X-17299987Y-13781132D01*
X-17298751Y-13778868D01*
X-17298882Y-13777035D01*
X-17303133Y-13770420D01*
X-17514688Y-13558865D01*
X-17528632Y-13551251D01*
X-17530465Y-13551382D01*
X-17537080Y-13555633D01*
X-17748635Y-13767188D01*
X-17756249Y-13781132D01*
X-18474987Y-13781132D01*
X-18473751Y-13778868D01*
X-18473882Y-13777035D01*
X-18478133Y-13770420D01*
X-18689688Y-13558865D01*
X-18703632Y-13551251D01*
X-18705465Y-13551382D01*
X-18712080Y-13555633D01*
X-18923635Y-13767188D01*
X-18931249Y-13781132D01*
X-19591500Y-13781132D01*
X-19591500Y-13429137D01*
X-19571498Y-13361016D01*
X-19517842Y-13314523D01*
X-19447568Y-13304419D01*
X-19382988Y-13333913D01*
X-19376405Y-13340042D01*
X-19302812Y-13413635D01*
X-19288868Y-13421249D01*
X-19287035Y-13421118D01*
X-19280420Y-13416867D01*
X-19156365Y-13292812D01*
X-19149987Y-13281132D01*
X-18256249Y-13281132D01*
X-18256118Y-13282965D01*
X-18251867Y-13289580D01*
X-18127812Y-13413635D01*
X-18113868Y-13421249D01*
X-18112035Y-13421118D01*
X-18105420Y-13416867D01*
X-17981365Y-13292812D01*
X-17974987Y-13281132D01*
X-15906249Y-13281132D01*
X-15906118Y-13282965D01*
X-15901867Y-13289580D01*
X-15777812Y-13413635D01*
X-15763868Y-13421249D01*
X-15762035Y-13421118D01*
X-15755420Y-13416867D01*
X-15631365Y-13292812D01*
X-15624987Y-13281132D01*
X-14731249Y-13281132D01*
X-14731118Y-13282965D01*
X-14726867Y-13289580D01*
X-14602812Y-13413635D01*
X-14588868Y-13421249D01*
X-14587035Y-13421118D01*
X-14580420Y-13416867D01*
X-14456365Y-13292812D01*
X-14448751Y-13278868D01*
X-14448882Y-13277035D01*
X-14453133Y-13270420D01*
X-14577188Y-13146365D01*
X-14591132Y-13138751D01*
X-14592965Y-13138882D01*
X-14599580Y-13143133D01*
X-14723635Y-13267188D01*
X-14731249Y-13281132D01*
X-15624987Y-13281132D01*
X-15623751Y-13278868D01*
X-15623882Y-13277035D01*
X-15628133Y-13270420D01*
X-15752188Y-13146365D01*
X-15766132Y-13138751D01*
X-15767965Y-13138882D01*
X-15774580Y-13143133D01*
X-15898635Y-13267188D01*
X-15906249Y-13281132D01*
X-17974987Y-13281132D01*
X-17973751Y-13278868D01*
X-17973882Y-13277035D01*
X-17978133Y-13270420D01*
X-18102188Y-13146365D01*
X-18116132Y-13138751D01*
X-18117965Y-13138882D01*
X-18124580Y-13143133D01*
X-18248635Y-13267188D01*
X-18256249Y-13281132D01*
X-19149987Y-13281132D01*
X-19148751Y-13278868D01*
X-19148882Y-13277035D01*
X-19153133Y-13270420D01*
X-19277188Y-13146365D01*
X-19291132Y-13138751D01*
X-19292965Y-13138882D01*
X-19299580Y-13143133D01*
X-19376405Y-13219958D01*
X-19438717Y-13253984D01*
X-19509532Y-13248919D01*
X-19566368Y-13206372D01*
X-19591179Y-13139852D01*
X-19591500Y-13130863D01*
X-19591500Y-12781132D01*
X-18931249Y-12781132D01*
X-18931118Y-12782965D01*
X-18926867Y-12789580D01*
X-18715312Y-13001135D01*
X-18701368Y-13008749D01*
X-18699535Y-13008618D01*
X-18692920Y-13004367D01*
X-18481365Y-12792812D01*
X-18474987Y-12781132D01*
X-17756249Y-12781132D01*
X-17756118Y-12782965D01*
X-17751867Y-12789580D01*
X-17540312Y-13001135D01*
X-17526368Y-13008749D01*
X-17524535Y-13008618D01*
X-17517920Y-13004367D01*
X-17306365Y-12792812D01*
X-17298751Y-12778868D01*
X-17298882Y-12777035D01*
X-17303133Y-12770420D01*
X-17514688Y-12558865D01*
X-17528632Y-12551251D01*
X-17530465Y-12551382D01*
X-17537080Y-12555633D01*
X-17748635Y-12767188D01*
X-17756249Y-12781132D01*
X-18474987Y-12781132D01*
X-18473751Y-12778868D01*
X-18473882Y-12777035D01*
X-18478133Y-12770420D01*
X-18689688Y-12558865D01*
X-18703632Y-12551251D01*
X-18705465Y-12551382D01*
X-18712080Y-12555633D01*
X-18923635Y-12767188D01*
X-18931249Y-12781132D01*
X-19591500Y-12781132D01*
X-19591500Y-12429137D01*
X-19571498Y-12361016D01*
X-19517842Y-12314523D01*
X-19447568Y-12304419D01*
X-19382988Y-12333913D01*
X-19376405Y-12340042D01*
X-19302812Y-12413635D01*
X-19288868Y-12421249D01*
X-19287035Y-12421118D01*
X-19280420Y-12416867D01*
X-19156365Y-12292812D01*
X-19149987Y-12281132D01*
X-18256249Y-12281132D01*
X-18256118Y-12282965D01*
X-18251867Y-12289580D01*
X-18127812Y-12413635D01*
X-18113868Y-12421249D01*
X-18112035Y-12421118D01*
X-18105420Y-12416867D01*
X-17981365Y-12292812D01*
X-17974987Y-12281132D01*
X-15906249Y-12281132D01*
X-15906118Y-12282965D01*
X-15901867Y-12289580D01*
X-15777812Y-12413635D01*
X-15763868Y-12421249D01*
X-15762035Y-12421118D01*
X-15755420Y-12416867D01*
X-15631365Y-12292812D01*
X-15624987Y-12281132D01*
X-14731249Y-12281132D01*
X-14731118Y-12282965D01*
X-14726867Y-12289580D01*
X-14602812Y-12413635D01*
X-14588868Y-12421249D01*
X-14587035Y-12421118D01*
X-14580420Y-12416867D01*
X-14456365Y-12292812D01*
X-14448751Y-12278868D01*
X-14448882Y-12277035D01*
X-14453133Y-12270420D01*
X-14577188Y-12146365D01*
X-14591132Y-12138751D01*
X-14592965Y-12138882D01*
X-14599580Y-12143133D01*
X-14723635Y-12267188D01*
X-14731249Y-12281132D01*
X-15624987Y-12281132D01*
X-15623751Y-12278868D01*
X-15623882Y-12277035D01*
X-15628133Y-12270420D01*
X-15752188Y-12146365D01*
X-15766132Y-12138751D01*
X-15767965Y-12138882D01*
X-15774580Y-12143133D01*
X-15898635Y-12267188D01*
X-15906249Y-12281132D01*
X-17974987Y-12281132D01*
X-17973751Y-12278868D01*
X-17973882Y-12277035D01*
X-17978133Y-12270420D01*
X-18102188Y-12146365D01*
X-18116132Y-12138751D01*
X-18117965Y-12138882D01*
X-18124580Y-12143133D01*
X-18248635Y-12267188D01*
X-18256249Y-12281132D01*
X-19149987Y-12281132D01*
X-19148751Y-12278868D01*
X-19148882Y-12277035D01*
X-19153133Y-12270420D01*
X-19277188Y-12146365D01*
X-19291132Y-12138751D01*
X-19292965Y-12138882D01*
X-19299580Y-12143133D01*
X-19376405Y-12219958D01*
X-19438717Y-12253984D01*
X-19509532Y-12248919D01*
X-19566368Y-12206372D01*
X-19591179Y-12139852D01*
X-19591500Y-12130863D01*
X-19591500Y-11781132D01*
X-18931249Y-11781132D01*
X-18931118Y-11782965D01*
X-18926867Y-11789580D01*
X-18715312Y-12001135D01*
X-18701368Y-12008749D01*
X-18699535Y-12008618D01*
X-18692920Y-12004367D01*
X-18481365Y-11792812D01*
X-18474987Y-11781132D01*
X-17756249Y-11781132D01*
X-17756118Y-11782965D01*
X-17751867Y-11789580D01*
X-17540312Y-12001135D01*
X-17526368Y-12008749D01*
X-17524535Y-12008618D01*
X-17517920Y-12004367D01*
X-17306365Y-11792812D01*
X-17299987Y-11781132D01*
X-16581249Y-11781132D01*
X-16581118Y-11782965D01*
X-16576867Y-11789580D01*
X-16365312Y-12001135D01*
X-16351368Y-12008749D01*
X-16349535Y-12008618D01*
X-16342920Y-12004367D01*
X-16131365Y-11792812D01*
X-16124987Y-11781132D01*
X-15406249Y-11781132D01*
X-15406118Y-11782965D01*
X-15401867Y-11789580D01*
X-15190312Y-12001135D01*
X-15176368Y-12008749D01*
X-15174535Y-12008618D01*
X-15167920Y-12004367D01*
X-14956365Y-11792812D01*
X-14949987Y-11781132D01*
X-14231249Y-11781132D01*
X-14231118Y-11782965D01*
X-14226867Y-11789580D01*
X-13938048Y-12078399D01*
X-13904022Y-12140711D01*
X-13909087Y-12211526D01*
X-13938048Y-12256589D01*
X-13948648Y-12267189D01*
X-13956260Y-12281130D01*
X-13956129Y-12282966D01*
X-13951877Y-12289582D01*
X-13938048Y-12303411D01*
X-13904022Y-12365723D01*
X-13909087Y-12436538D01*
X-13938048Y-12481601D01*
X-13969635Y-12513188D01*
X-13975144Y-12523277D01*
X-13967843Y-12526000D01*
X-13850116Y-12526000D01*
X-13834877Y-12521525D01*
X-13833672Y-12520135D01*
X-13832001Y-12512452D01*
X-13832001Y-11842130D01*
X-13830774Y-11824592D01*
X-13828053Y-11805232D01*
X-13827446Y-11797341D01*
X-13827259Y-11783962D01*
X-13827646Y-11776063D01*
X-13831216Y-11744234D01*
X-13832001Y-11730188D01*
X-13832001Y-10842130D01*
X-13830775Y-10824594D01*
X-13828052Y-10805221D01*
X-13827446Y-10797338D01*
X-13827259Y-10783962D01*
X-13827646Y-10776062D01*
X-13831216Y-10744232D01*
X-13831668Y-10736144D01*
X-13831833Y-10736153D01*
X-13832338Y-10726388D01*
X-13842257Y-10630793D01*
X-13845602Y-10615300D01*
X-13847665Y-10607926D01*
X-13848478Y-10604348D01*
X-13872634Y-10534982D01*
X-13873167Y-10533419D01*
X-13896587Y-10463219D01*
X-13898514Y-10459105D01*
X-13904859Y-10453467D01*
X-13913912Y-10457465D01*
X-14223635Y-10767188D01*
X-14231249Y-10781132D01*
X-14231118Y-10782965D01*
X-14226867Y-10789580D01*
X-13938048Y-11078399D01*
X-13904022Y-11140711D01*
X-13909087Y-11211526D01*
X-13938048Y-11256589D01*
X-13948648Y-11267189D01*
X-13956260Y-11281130D01*
X-13956129Y-11282966D01*
X-13951877Y-11289582D01*
X-13938048Y-11303411D01*
X-13904022Y-11365723D01*
X-13909087Y-11436538D01*
X-13938048Y-11481601D01*
X-14223635Y-11767188D01*
X-14231249Y-11781132D01*
X-14949987Y-11781132D01*
X-14948751Y-11778868D01*
X-14948882Y-11777035D01*
X-14953133Y-11770420D01*
X-15164688Y-11558865D01*
X-15178632Y-11551251D01*
X-15180465Y-11551382D01*
X-15187080Y-11555633D01*
X-15398635Y-11767188D01*
X-15406249Y-11781132D01*
X-16124987Y-11781132D01*
X-16123751Y-11778868D01*
X-16123882Y-11777035D01*
X-16128133Y-11770420D01*
X-16339688Y-11558865D01*
X-16353632Y-11551251D01*
X-16355465Y-11551382D01*
X-16362080Y-11555633D01*
X-16573635Y-11767188D01*
X-16581249Y-11781132D01*
X-17299987Y-11781132D01*
X-17298751Y-11778868D01*
X-17298882Y-11777035D01*
X-17303133Y-11770420D01*
X-17514688Y-11558865D01*
X-17528632Y-11551251D01*
X-17530465Y-11551382D01*
X-17537080Y-11555633D01*
X-17748635Y-11767188D01*
X-17756249Y-11781132D01*
X-18474987Y-11781132D01*
X-18473751Y-11778868D01*
X-18473882Y-11777035D01*
X-18478133Y-11770420D01*
X-18689688Y-11558865D01*
X-18703632Y-11551251D01*
X-18705465Y-11551382D01*
X-18712080Y-11555633D01*
X-18923635Y-11767188D01*
X-18931249Y-11781132D01*
X-19591500Y-11781132D01*
X-19591500Y-11429137D01*
X-19571498Y-11361016D01*
X-19517842Y-11314523D01*
X-19447568Y-11304419D01*
X-19382988Y-11333913D01*
X-19376405Y-11340042D01*
X-19302812Y-11413635D01*
X-19288868Y-11421249D01*
X-19287035Y-11421118D01*
X-19280420Y-11416867D01*
X-19156365Y-11292812D01*
X-19149987Y-11281132D01*
X-18256249Y-11281132D01*
X-18256118Y-11282965D01*
X-18251867Y-11289580D01*
X-18127812Y-11413635D01*
X-18113868Y-11421249D01*
X-18112035Y-11421118D01*
X-18105420Y-11416867D01*
X-17981365Y-11292812D01*
X-17974987Y-11281132D01*
X-15906249Y-11281132D01*
X-15906118Y-11282965D01*
X-15901867Y-11289580D01*
X-15777812Y-11413635D01*
X-15763868Y-11421249D01*
X-15762035Y-11421118D01*
X-15755420Y-11416867D01*
X-15631365Y-11292812D01*
X-15624987Y-11281132D01*
X-14731249Y-11281132D01*
X-14731118Y-11282965D01*
X-14726867Y-11289580D01*
X-14602812Y-11413635D01*
X-14588868Y-11421249D01*
X-14587035Y-11421118D01*
X-14580420Y-11416867D01*
X-14456365Y-11292812D01*
X-14448751Y-11278868D01*
X-14448882Y-11277035D01*
X-14453133Y-11270420D01*
X-14577188Y-11146365D01*
X-14591132Y-11138751D01*
X-14592965Y-11138882D01*
X-14599580Y-11143133D01*
X-14723635Y-11267188D01*
X-14731249Y-11281132D01*
X-15624987Y-11281132D01*
X-15623751Y-11278868D01*
X-15623882Y-11277035D01*
X-15628133Y-11270420D01*
X-15752188Y-11146365D01*
X-15766132Y-11138751D01*
X-15767965Y-11138882D01*
X-15774580Y-11143133D01*
X-15898635Y-11267188D01*
X-15906249Y-11281132D01*
X-17974987Y-11281132D01*
X-17973751Y-11278868D01*
X-17973882Y-11277035D01*
X-17978133Y-11270420D01*
X-18102188Y-11146365D01*
X-18116132Y-11138751D01*
X-18117965Y-11138882D01*
X-18124580Y-11143133D01*
X-18248635Y-11267188D01*
X-18256249Y-11281132D01*
X-19149987Y-11281132D01*
X-19148751Y-11278868D01*
X-19148882Y-11277035D01*
X-19153133Y-11270420D01*
X-19277188Y-11146365D01*
X-19291132Y-11138751D01*
X-19292965Y-11138882D01*
X-19299580Y-11143133D01*
X-19376405Y-11219958D01*
X-19438717Y-11253984D01*
X-19509532Y-11248919D01*
X-19566368Y-11206372D01*
X-19591179Y-11139852D01*
X-19591500Y-11130863D01*
X-19591500Y-10780137D01*
X-19571498Y-10712016D01*
X-19554595Y-10691042D01*
X-19379095Y-10515542D01*
X-19316783Y-10481516D01*
X-19245968Y-10486581D01*
X-19200905Y-10515542D01*
X-18715312Y-11001135D01*
X-18701368Y-11008749D01*
X-18699535Y-11008618D01*
X-18692920Y-11004367D01*
X-18204095Y-10515542D01*
X-18141783Y-10481516D01*
X-18070968Y-10486581D01*
X-18025905Y-10515542D01*
X-17540312Y-11001135D01*
X-17526368Y-11008749D01*
X-17524535Y-11008618D01*
X-17517920Y-11004367D01*
X-17206812Y-10693259D01*
X-17194000Y-10669797D01*
X-17194000Y-10662332D01*
X-16686000Y-10662332D01*
X-16678470Y-10687977D01*
X-16365312Y-11001135D01*
X-16351368Y-11008749D01*
X-16349535Y-11008618D01*
X-16342920Y-11004367D01*
X-15854095Y-10515542D01*
X-15791783Y-10481516D01*
X-15720968Y-10486581D01*
X-15675905Y-10515542D01*
X-15190312Y-11001135D01*
X-15176368Y-11008749D01*
X-15174535Y-11008618D01*
X-15167920Y-11004367D01*
X-14270152Y-10106599D01*
X-14263392Y-10094219D01*
X-14266886Y-10089552D01*
X-14274429Y-10086035D01*
X-14341453Y-10063803D01*
X-14344049Y-10062911D01*
X-14409175Y-10039722D01*
X-14420342Y-10037103D01*
X-14426890Y-10035253D01*
X-14442086Y-10031995D01*
X-14536442Y-10022328D01*
X-14541664Y-10022061D01*
X-14550160Y-10021339D01*
X-14577684Y-10018057D01*
X-14591679Y-10017959D01*
X-14623562Y-10021310D01*
X-14636732Y-10022000D01*
X-15712124Y-10022000D01*
X-15727042Y-10021114D01*
X-15752682Y-10018057D01*
X-15766680Y-10017959D01*
X-15798564Y-10021310D01*
X-15811733Y-10022000D01*
X-16667885Y-10022000D01*
X-16683124Y-10026475D01*
X-16684329Y-10027865D01*
X-16686000Y-10035548D01*
X-16686000Y-10662332D01*
X-17194000Y-10662332D01*
X-17194000Y-10040116D01*
X-17198475Y-10024877D01*
X-17199865Y-10023672D01*
X-17207548Y-10022001D01*
X-18062118Y-10022001D01*
X-18077037Y-10021115D01*
X-18102683Y-10018057D01*
X-18116679Y-10017959D01*
X-18148569Y-10021311D01*
X-18161740Y-10022001D01*
X-19237116Y-10022001D01*
X-19252035Y-10021115D01*
X-19277682Y-10018057D01*
X-19291679Y-10017959D01*
X-19323571Y-10021311D01*
X-19336741Y-10022001D01*
X-19337093Y-10022001D01*
X-19343612Y-10022338D01*
X-19446062Y-10032968D01*
X-19446198Y-10031660D01*
X-19509723Y-10027015D01*
X-19566490Y-9984376D01*
X-19591193Y-9917816D01*
X-19591500Y-9909030D01*
X-19591500Y-9064950D01*
X-19571498Y-8996829D01*
X-19554595Y-8975855D01*
X-17376824Y-6798084D01*
X-17314512Y-6764058D01*
X-17243697Y-6769123D01*
X-17186861Y-6811670D01*
X-17162050Y-6878190D01*
X-17167896Y-6926115D01*
X-17177921Y-6956969D01*
X-17178611Y-6963532D01*
X-17178611Y-6963533D01*
X-17188537Y-7057969D01*
X-17196785Y-7136444D01*
X-17196095Y-7143009D01*
X-17184799Y-7250476D01*
X-17177921Y-7315919D01*
X-17175881Y-7322197D01*
X-17175881Y-7322198D01*
X-17163958Y-7358893D01*
X-17122155Y-7487551D01*
X-17031923Y-7643837D01*
X-17027505Y-7648744D01*
X-17027504Y-7648745D01*
X-16953327Y-7731127D01*
X-16911169Y-7777948D01*
X-16905827Y-7781829D01*
X-16905825Y-7781831D01*
X-16843512Y-7827104D01*
X-16765171Y-7884022D01*
X-16759143Y-7886706D01*
X-16759141Y-7886707D01*
X-16606339Y-7954739D01*
X-16600308Y-7957424D01*
X-16512048Y-7976184D01*
X-16430245Y-7993572D01*
X-16430241Y-7993572D01*
X-16423788Y-7994944D01*
X-16243324Y-7994944D01*
X-16236871Y-7993572D01*
X-16236867Y-7993572D01*
X-16155064Y-7976184D01*
X-16066804Y-7957424D01*
X-16060773Y-7954739D01*
X-15907971Y-7886707D01*
X-15907969Y-7886706D01*
X-15901941Y-7884022D01*
X-15823600Y-7827104D01*
X-15761287Y-7781831D01*
X-15761285Y-7781829D01*
X-15755943Y-7777948D01*
X-15713785Y-7731127D01*
X-15639608Y-7648745D01*
X-15639607Y-7648744D01*
X-15635189Y-7643837D01*
X-15544957Y-7487551D01*
X-15503154Y-7358893D01*
X-15491231Y-7322198D01*
X-15491231Y-7322197D01*
X-15489191Y-7315919D01*
X-15482312Y-7250476D01*
X-15471017Y-7143009D01*
X-15470327Y-7136444D01*
X-15478575Y-7057969D01*
X-15488501Y-6963533D01*
X-15488501Y-6963532D01*
X-15489191Y-6956969D01*
X-15497481Y-6931453D01*
X-15536401Y-6811670D01*
X-15544957Y-6785337D01*
X-15635189Y-6629051D01*
X-15638653Y-6625204D01*
X-15641285Y-6621236D01*
X-15642663Y-6618534D01*
X-15647160Y-6612160D01*
X-15669440Y-6553399D01*
X-15671579Y-6534090D01*
X-15672146Y-6527292D01*
X-15674655Y-6482591D01*
X-15674823Y-6478278D01*
X-15675340Y-6454580D01*
X-15676222Y-6414145D01*
X-15676250Y-6411966D01*
X-15676252Y-6411255D01*
X-15676586Y-6329369D01*
X-15676587Y-6328854D01*
X-15676562Y-6300951D01*
X-15676510Y-6242163D01*
X-15678907Y-6196917D01*
X-15677625Y-6171143D01*
X-15677097Y-6167699D01*
X-15676414Y-6163250D01*
X-15675622Y-6079264D01*
X-15675109Y-6024820D01*
X-15675031Y-6021403D01*
X-15670717Y-5903452D01*
X-15670419Y-5898251D01*
X-15663230Y-5806162D01*
X-15662450Y-5798893D01*
X-15653064Y-5730272D01*
X-15651433Y-5720969D01*
X-15640839Y-5671515D01*
X-15638015Y-5660702D01*
X-15626399Y-5623123D01*
X-15622347Y-5611922D01*
X-15607825Y-5577027D01*
X-15602994Y-5566749D01*
X-15593705Y-5549102D01*
X-15540898Y-5496295D01*
X-15523251Y-5487006D01*
X-15512973Y-5482175D01*
X-15478078Y-5467653D01*
X-15466877Y-5463601D01*
X-15429298Y-5451985D01*
X-15418483Y-5449161D01*
X-15369031Y-5438567D01*
X-15359731Y-5436937D01*
X-15324116Y-5432065D01*
X-15291107Y-5427550D01*
X-15283838Y-5426770D01*
X-15191749Y-5419581D01*
X-15186548Y-5419283D01*
X-15068597Y-5414969D01*
X-15065180Y-5414891D01*
X-14980381Y-5414091D01*
X-14926750Y-5413586D01*
X-14874314Y-5410405D01*
X-14871715Y-5409729D01*
X-14856150Y-5408500D01*
X-13584950Y-5408500D01*
X-13516829Y-5428502D01*
X-13495855Y-5445405D01*
X-10575405Y-8365855D01*
X-10541379Y-8428167D01*
X-10538500Y-8454950D01*
X-10538500Y-12575648D01*
X-10539881Y-12594251D01*
X-10543556Y-12618869D01*
X-10543580Y-12623374D01*
X-10544158Y-12730511D01*
X-10544191Y-12732813D01*
X-10546520Y-12831230D01*
X-10546679Y-12835237D01*
X-10547520Y-12850379D01*
X-10549804Y-12891507D01*
X-10550917Y-12911539D01*
X-10551401Y-12917602D01*
X-10552976Y-12932713D01*
X-10557131Y-12972560D01*
X-10558283Y-12980893D01*
X-10564460Y-13016732D01*
X-10566691Y-13027065D01*
X-10572366Y-13048866D01*
X-10575944Y-13060332D01*
X-10581581Y-13075768D01*
X-10586362Y-13087108D01*
X-10594857Y-13104791D01*
X-10600202Y-13114747D01*
X-10615679Y-13140711D01*
X-10616269Y-13141700D01*
X-10621395Y-13149610D01*
X-10655373Y-13197978D01*
X-10657091Y-13201134D01*
X-10658983Y-13204183D01*
X-10659155Y-13204076D01*
X-10667299Y-13216024D01*
X-10667256Y-13216054D01*
X-10670740Y-13221142D01*
X-10674698Y-13225859D01*
X-10677662Y-13231251D01*
X-10677665Y-13231255D01*
X-10730702Y-13327730D01*
X-10765254Y-13390580D01*
X-10767115Y-13396447D01*
X-10767116Y-13396449D01*
X-10793112Y-13478399D01*
X-10822091Y-13569752D01*
X-10843044Y-13756552D01*
X-10841324Y-13777035D01*
X-10835858Y-13842123D01*
X-10827315Y-13943865D01*
X-10813860Y-13990787D01*
X-10778269Y-14114908D01*
X-10775503Y-14124555D01*
X-10772688Y-14130032D01*
X-10772687Y-14130035D01*
X-10695325Y-14280565D01*
X-10689582Y-14291740D01*
X-10685759Y-14296564D01*
X-10685756Y-14296568D01*
X-10603328Y-14400565D01*
X-10572823Y-14439052D01*
X-10568129Y-14443047D01*
X-10439831Y-14552237D01*
X-10429676Y-14560880D01*
X-10424298Y-14563886D01*
X-10424296Y-14563887D01*
X-10371338Y-14593484D01*
X-10265591Y-14652584D01*
X-10086820Y-14710670D01*
X-9900170Y-14732927D01*
X-9894035Y-14732455D01*
X-9894033Y-14732455D01*
X-9718895Y-14718979D01*
X-9718891Y-14718978D01*
X-9712753Y-14718506D01*
X-9615894Y-14691462D01*
X-9537650Y-14669616D01*
X-9537647Y-14669615D01*
X-9531706Y-14667956D01*
X-9526202Y-14665176D01*
X-9526200Y-14665175D01*
X-9369426Y-14585983D01*
X-9369424Y-14585982D01*
X-9363925Y-14583204D01*
X-9215801Y-14467477D01*
X-9196732Y-14445385D01*
X-9097006Y-14329852D01*
X-9097005Y-14329850D01*
X-9092977Y-14325184D01*
X-9000130Y-14161744D01*
X-8940797Y-13983382D01*
X-8926878Y-13873203D01*
X-8898498Y-13808130D01*
X-8839438Y-13768728D01*
X-8768452Y-13767511D01*
X-8712778Y-13799903D01*
X-8232116Y-14280565D01*
X-8220885Y-14293433D01*
X-8204131Y-14315484D01*
X-8120975Y-14397463D01*
X-8117802Y-14400565D01*
X-8044830Y-14471271D01*
X-8034147Y-14481622D01*
X-8033941Y-14481822D01*
X-7961601Y-14552237D01*
X-7960107Y-14553716D01*
X-7903118Y-14611071D01*
X-7900060Y-14614259D01*
X-7859712Y-14657819D01*
X-7854928Y-14663292D01*
X-7849715Y-14669616D01*
X-7831708Y-14691462D01*
X-7825354Y-14699863D01*
X-7824259Y-14701444D01*
X-7805856Y-14743788D01*
X-7805485Y-14743687D01*
X-7804786Y-14746251D01*
X-7804721Y-14746401D01*
X-7803932Y-14750026D01*
X-7803410Y-14751613D01*
X-7802639Y-14754996D01*
X-7802315Y-14758865D01*
X-7793508Y-14789580D01*
X-7759435Y-14908404D01*
X-7750503Y-14939555D01*
X-7747688Y-14945032D01*
X-7747687Y-14945035D01*
X-7667397Y-15101263D01*
X-7664582Y-15106740D01*
X-7660759Y-15111564D01*
X-7660756Y-15111568D01*
X-7653069Y-15121266D01*
X-7547823Y-15254052D01*
X-7543129Y-15258047D01*
X-7477215Y-15314144D01*
X-7404676Y-15375880D01*
X-7240591Y-15467584D01*
X-7061820Y-15525670D01*
X-6875170Y-15547927D01*
X-6869035Y-15547455D01*
X-6869033Y-15547455D01*
X-6704167Y-15534769D01*
X-6634712Y-15549486D01*
X-6584240Y-15599417D01*
X-6568500Y-15660398D01*
X-6568500Y-17801864D01*
X-6569578Y-17818307D01*
X-6573750Y-17850000D01*
X-6568500Y-17889880D01*
X-6568500Y-17889885D01*
X-6555391Y-17989457D01*
X-6552838Y-18008851D01*
X-6491524Y-18156876D01*
X-6486497Y-18163427D01*
X-6486496Y-18163429D01*
X-6418480Y-18252069D01*
X-6418474Y-18252075D01*
X-6393987Y-18283987D01*
X-6387432Y-18289017D01*
X-6368621Y-18303452D01*
X-6356230Y-18314319D01*
X-5115927Y-19554622D01*
X-5104049Y-19568348D01*
X-5088610Y-19589032D01*
X-5085436Y-19592215D01*
X-5085435Y-19592216D01*
X-5078786Y-19598884D01*
X-5048944Y-19628808D01*
X-5048262Y-19629498D01*
X-5011031Y-19667562D01*
X-5009083Y-19669599D01*
X-4988594Y-19691507D01*
X-4957372Y-19751376D01*
X-4957307Y-19751680D01*
X-4956619Y-19758699D01*
X-4902906Y-19920167D01*
X-4899259Y-19926189D01*
X-4899258Y-19926191D01*
X-4849416Y-20008489D01*
X-4814754Y-20065723D01*
X-4696545Y-20188132D01*
X-4673616Y-20203136D01*
X-4619542Y-20238521D01*
X-4554154Y-20281310D01*
X-4547550Y-20283766D01*
X-4547548Y-20283767D01*
X-4516956Y-20295144D01*
X-4394659Y-20340626D01*
X-4225985Y-20363132D01*
X-4218974Y-20362494D01*
X-4218970Y-20362494D01*
X-4063538Y-20348348D01*
X-4056517Y-20347709D01*
X-4049815Y-20345531D01*
X-4049813Y-20345531D01*
X-3901377Y-20297301D01*
X-3901374Y-20297300D01*
X-3894678Y-20295124D01*
X-3748510Y-20207990D01*
X-3743416Y-20203139D01*
X-3743412Y-20203136D01*
X-3655985Y-20119880D01*
X-3625279Y-20090639D01*
X-3531109Y-19948902D01*
X-3470681Y-19789825D01*
X-3446999Y-19621313D01*
X-3446701Y-19600000D01*
X-3465669Y-19430892D01*
X-3521632Y-19270189D01*
X-3611808Y-19125879D01*
X-3731714Y-19005132D01*
X-3756150Y-18989624D01*
X-3792910Y-18966296D01*
X-3875392Y-18913951D01*
X-4035700Y-18856868D01*
X-4042699Y-18856034D01*
X-4042705Y-18856032D01*
X-4046143Y-18855622D01*
X-4048194Y-18854745D01*
X-4049556Y-18854425D01*
X-4049500Y-18854186D01*
X-4111415Y-18827694D01*
X-4117286Y-18822535D01*
X-4140399Y-18800919D01*
X-4142440Y-18798967D01*
X-4180391Y-18761845D01*
X-4181256Y-18760991D01*
X-4210826Y-18731504D01*
X-4220972Y-18721386D01*
X-4261658Y-18684919D01*
X-4264575Y-18683191D01*
X-4276441Y-18673010D01*
X-4641356Y-18308095D01*
X-4675382Y-18245783D01*
X-4670317Y-18174968D01*
X-4627770Y-18118132D01*
X-4561250Y-18093321D01*
X-4552261Y-18093000D01*
X-4531115Y-18093000D01*
X-4515876Y-18088525D01*
X-4514671Y-18087135D01*
X-4513000Y-18079452D01*
X-4513000Y-18074885D01*
X-4005000Y-18074885D01*
X-4000525Y-18090124D01*
X-3999135Y-18091329D01*
X-3991452Y-18093000D01*
X-3662343Y-18093000D01*
X-3656195Y-18092699D01*
X-3518397Y-18079188D01*
X-3506362Y-18076805D01*
X-3328924Y-18023233D01*
X-3317584Y-18018559D01*
X-3153923Y-17931540D01*
X-3143706Y-17924751D01*
X-3000067Y-17807603D01*
X-2991363Y-17798959D01*
X-2873216Y-17656144D01*
X-2866356Y-17645973D01*
X-2778196Y-17482924D01*
X-2773444Y-17471619D01*
X-2737750Y-17356308D01*
X-2737669Y-17350768D01*
X-1481575Y-17350768D01*
X-1449862Y-17458521D01*
X-1445269Y-17469889D01*
X-1359393Y-17634154D01*
X-1352679Y-17644415D01*
X-1236532Y-17788873D01*
X-1227954Y-17797632D01*
X-1085961Y-17916778D01*
X-1075841Y-17923708D01*
X-913415Y-18013002D01*
X-902142Y-18017834D01*
X-725462Y-18073880D01*
X-713468Y-18076430D01*
X-569239Y-18092607D01*
X-562215Y-18093000D01*
X-331115Y-18093000D01*
X-315876Y-18088525D01*
X-314671Y-18087135D01*
X-313000Y-18079452D01*
X-313000Y-17357115D01*
X-317475Y-17341876D01*
X-318865Y-17340671D01*
X-326548Y-17339000D01*
X-1466924Y-17339000D01*
X-1480455Y-17342973D01*
X-1481575Y-17350768D01*
X-2737669Y-17350768D01*
X-2737544Y-17342205D01*
X-2744299Y-17339000D01*
X-3986885Y-17339000D01*
X-4002124Y-17343475D01*
X-4003329Y-17344865D01*
X-4005000Y-17352548D01*
X-4005000Y-18074885D01*
X-4513000Y-18074885D01*
X-4513000Y-16957000D01*
X-4492998Y-16888879D01*
X-4439342Y-16842386D01*
X-4387000Y-16831000D01*
X-2751076Y-16831000D01*
X-2740161Y-16827795D01*
X-1480456Y-16827795D01*
X-1473701Y-16831000D01*
X-331115Y-16831000D01*
X-315876Y-16826525D01*
X-314671Y-16825135D01*
X-313000Y-16817452D01*
X-313000Y-16095115D01*
X-317475Y-16079876D01*
X-318865Y-16078671D01*
X-326548Y-16077000D01*
X-555657Y-16077000D01*
X-561805Y-16077301D01*
X-699603Y-16090812D01*
X-711638Y-16093195D01*
X-889076Y-16146767D01*
X-900416Y-16151441D01*
X-1064077Y-16238460D01*
X-1074294Y-16245249D01*
X-1217933Y-16362397D01*
X-1226637Y-16371041D01*
X-1344784Y-16513856D01*
X-1351644Y-16524027D01*
X-1439804Y-16687076D01*
X-1444556Y-16698381D01*
X-1480250Y-16813692D01*
X-1480456Y-16827795D01*
X-2740161Y-16827795D01*
X-2737545Y-16827027D01*
X-2736425Y-16819232D01*
X-2768138Y-16711479D01*
X-2772731Y-16700111D01*
X-2858607Y-16535846D01*
X-2865321Y-16525585D01*
X-2981468Y-16381127D01*
X-2990046Y-16372368D01*
X-3063379Y-16310834D01*
X-3102706Y-16251724D01*
X-3103832Y-16180737D01*
X-3086600Y-16143489D01*
X-3022558Y-16049255D01*
X-3018723Y-16043612D01*
X-2951470Y-15875466D01*
X-2950356Y-15868738D01*
X-2950355Y-15868734D01*
X-2923007Y-15703539D01*
X-2923007Y-15703536D01*
X-2921892Y-15696802D01*
X-2923799Y-15660398D01*
X-2930738Y-15528006D01*
X-2931370Y-15515953D01*
X-2935613Y-15500547D01*
X-2977648Y-15347941D01*
X-2979461Y-15341359D01*
X-3063922Y-15181164D01*
X-3068327Y-15175951D01*
X-3068330Y-15175947D01*
X-3176406Y-15048057D01*
X-3176410Y-15048053D01*
X-3180813Y-15042843D01*
X-3193954Y-15032796D01*
X-3319257Y-14936994D01*
X-3319261Y-14936991D01*
X-3324678Y-14932850D01*
X-3455122Y-14872023D01*
X-3482631Y-14859195D01*
X-3482634Y-14859194D01*
X-3488808Y-14856315D01*
X-3495456Y-14854829D01*
X-3495459Y-14854828D01*
X-3660506Y-14817936D01*
X-3660505Y-14817936D01*
X-3665543Y-14816810D01*
X-3671088Y-14816500D01*
X-3804244Y-14816500D01*
X-3939037Y-14831143D01*
X-4048947Y-14868132D01*
X-4104204Y-14886728D01*
X-4104206Y-14886729D01*
X-4110675Y-14888906D01*
X-4265905Y-14982177D01*
X-4270862Y-14986865D01*
X-4270865Y-14986867D01*
X-4389812Y-15099351D01*
X-4397485Y-15106607D01*
X-4401317Y-15112245D01*
X-4401320Y-15112249D01*
X-4488490Y-15240516D01*
X-4499277Y-15256388D01*
X-4566530Y-15424534D01*
X-4567644Y-15431262D01*
X-4567645Y-15431266D01*
X-4594233Y-15591870D01*
X-4596108Y-15603198D01*
X-4595751Y-15610015D01*
X-4595751Y-15610019D01*
X-4590849Y-15703539D01*
X-4586630Y-15784047D01*
X-4584819Y-15790620D01*
X-4584819Y-15790623D01*
X-4549860Y-15917540D01*
X-4551054Y-15988527D01*
X-4590437Y-16047599D01*
X-4655504Y-16076001D01*
X-4671336Y-16077000D01*
X-4855657Y-16077000D01*
X-4861805Y-16077301D01*
X-4999603Y-16090812D01*
X-5011638Y-16093195D01*
X-5189082Y-16146769D01*
X-5260076Y-16147310D01*
X-5320093Y-16109383D01*
X-5350077Y-16045028D01*
X-5351500Y-16026147D01*
X-5351500Y-14682672D01*
X-5350192Y-14664565D01*
X-5347132Y-14643491D01*
X-5346485Y-14639037D01*
X-5346407Y-14582995D01*
X-5346399Y-14581819D01*
X-5346123Y-14556887D01*
X-5345812Y-14528670D01*
X-5345750Y-14525860D01*
X-5344579Y-14490837D01*
X-5329743Y-14435598D01*
X-5322944Y-14422894D01*
X-5316815Y-14412644D01*
X-5281109Y-14358902D01*
X-5220681Y-14199825D01*
X-5196999Y-14031313D01*
X-5196701Y-14010000D01*
X-5215669Y-13840892D01*
X-5230991Y-13796892D01*
X-5269314Y-13686846D01*
X-5271632Y-13680189D01*
X-5361808Y-13535879D01*
X-5481714Y-13415132D01*
X-5496010Y-13406059D01*
X-5566987Y-13361016D01*
X-5625392Y-13323951D01*
X-5785700Y-13266868D01*
X-5954671Y-13246720D01*
X-5961674Y-13247456D01*
X-5961675Y-13247456D01*
X-6116899Y-13263770D01*
X-6116903Y-13263771D01*
X-6123907Y-13264507D01*
X-6130578Y-13266778D01*
X-6278327Y-13317075D01*
X-6278330Y-13317076D01*
X-6284997Y-13319346D01*
X-6290995Y-13323036D01*
X-6290997Y-13323037D01*
X-6423935Y-13404821D01*
X-6423937Y-13404823D01*
X-6429934Y-13408512D01*
X-6500490Y-13477607D01*
X-6539759Y-13516062D01*
X-6551514Y-13527573D01*
X-6555325Y-13533487D01*
X-6555327Y-13533489D01*
X-6577100Y-13567274D01*
X-6630815Y-13613698D01*
X-6701102Y-13623712D01*
X-6763156Y-13596243D01*
X-6776704Y-13585075D01*
X-6782181Y-13580288D01*
X-6825741Y-13539940D01*
X-6828929Y-13536882D01*
X-6886284Y-13479893D01*
X-6887763Y-13478399D01*
X-6958178Y-13406059D01*
X-6958378Y-13405853D01*
X-7039435Y-13322198D01*
X-7042539Y-13319023D01*
X-7068379Y-13292812D01*
X-7123304Y-13237099D01*
X-7123312Y-13237092D01*
X-7124518Y-13235868D01*
X-7166551Y-13197702D01*
X-7170113Y-13195571D01*
X-7182018Y-13185301D01*
X-7867976Y-12499343D01*
X-4882725Y-12499343D01*
X-4866119Y-12668699D01*
X-4812406Y-12830167D01*
X-4808759Y-12836189D01*
X-4808758Y-12836191D01*
X-4753135Y-12928036D01*
X-4734982Y-12989091D01*
X-4734167Y-13013433D01*
X-4734147Y-13021217D01*
X-4734715Y-13041268D01*
X-4734921Y-13045745D01*
X-4735541Y-13055435D01*
X-4748092Y-13102739D01*
X-4759237Y-13125531D01*
X-4766518Y-13138437D01*
X-4789876Y-13174682D01*
X-4793696Y-13180610D01*
X-4807165Y-13217617D01*
X-4844093Y-13319076D01*
X-4851897Y-13340516D01*
X-4873225Y-13509343D01*
X-4856619Y-13678699D01*
X-4802906Y-13840167D01*
X-4799259Y-13846189D01*
X-4799258Y-13846191D01*
X-4736516Y-13949789D01*
X-4714754Y-13985723D01*
X-4596545Y-14108132D01*
X-4454154Y-14201310D01*
X-4447550Y-14203766D01*
X-4447548Y-14203767D01*
X-4374406Y-14230968D01*
X-4294659Y-14260626D01*
X-4125985Y-14283132D01*
X-4118974Y-14282494D01*
X-4118970Y-14282494D01*
X-3963538Y-14268348D01*
X-3956517Y-14267709D01*
X-3949815Y-14265531D01*
X-3949813Y-14265531D01*
X-3801377Y-14217301D01*
X-3801374Y-14217300D01*
X-3794678Y-14215124D01*
X-3648510Y-14127990D01*
X-3643416Y-14123139D01*
X-3643412Y-14123136D01*
X-3546989Y-14031313D01*
X-3525279Y-14010639D01*
X-3518964Y-14001135D01*
X-3435010Y-13874773D01*
X-3431109Y-13868902D01*
X-3370681Y-13709825D01*
X-3346999Y-13541313D01*
X-3346701Y-13520000D01*
X-3365669Y-13350892D01*
X-3376654Y-13319346D01*
X-3401655Y-13247554D01*
X-3421632Y-13190189D01*
X-3425366Y-13184213D01*
X-3485412Y-13088120D01*
X-3504497Y-13025284D01*
X-3504724Y-13018018D01*
X-3504715Y-13009877D01*
X-3504079Y-12990840D01*
X-3489243Y-12935598D01*
X-3482444Y-12922894D01*
X-3476315Y-12912644D01*
X-3440609Y-12858902D01*
X-3380181Y-12699825D01*
X-3356499Y-12531313D01*
X-3356201Y-12510000D01*
X-3375169Y-12340892D01*
X-3431132Y-12180189D01*
X-3437117Y-12170610D01*
X-3473695Y-12112075D01*
X-3521308Y-12035879D01*
X-3550173Y-12006811D01*
X-3592985Y-11963699D01*
X-3641214Y-11915132D01*
X-3657461Y-11904821D01*
X-3720567Y-11864773D01*
X-3784892Y-11823951D01*
X-3945200Y-11766868D01*
X-4114171Y-11746720D01*
X-4121174Y-11747456D01*
X-4121175Y-11747456D01*
X-4276399Y-11763770D01*
X-4276403Y-11763771D01*
X-4283407Y-11764507D01*
X-4295186Y-11768517D01*
X-4437827Y-11817075D01*
X-4437830Y-11817076D01*
X-4444497Y-11819346D01*
X-4450495Y-11823036D01*
X-4450497Y-11823037D01*
X-4583435Y-11904821D01*
X-4583437Y-11904823D01*
X-4589434Y-11908512D01*
X-4638631Y-11956690D01*
X-4684297Y-12001410D01*
X-4711014Y-12027573D01*
X-4714825Y-12033487D01*
X-4714827Y-12033489D01*
X-4783374Y-12139852D01*
X-4803196Y-12170610D01*
X-4838348Y-12267189D01*
X-4856713Y-12317648D01*
X-4861397Y-12330516D01*
X-4882725Y-12499343D01*
X-7867976Y-12499343D01*
X-8384595Y-11982724D01*
X-8418621Y-11920412D01*
X-8421500Y-11893629D01*
X-8421500Y-7259036D01*
X-8420342Y-7241993D01*
X-8417206Y-7219023D01*
X-8417206Y-7219019D01*
X-8416597Y-7214560D01*
X-8417428Y-7097893D01*
X-8417479Y-7093456D01*
X-8417580Y-7087050D01*
X-8419317Y-6976867D01*
X-8419322Y-6976579D01*
X-8419322Y-6976577D01*
X-8420682Y-6875609D01*
X-8420692Y-6873565D01*
X-8420612Y-6848716D01*
X-8420434Y-6792713D01*
X-8420343Y-6788295D01*
X-8418071Y-6728949D01*
X-8417583Y-6721691D01*
X-8414084Y-6685356D01*
X-8412619Y-6674825D01*
X-8412275Y-6672939D01*
X-8395374Y-6630095D01*
X-8395708Y-6629904D01*
X-8394387Y-6627593D01*
X-8394328Y-6627443D01*
X-8394088Y-6627070D01*
X-8394079Y-6627054D01*
X-8392317Y-6624312D01*
X-8391003Y-6621708D01*
X-8389673Y-6619368D01*
X-8303176Y-6467106D01*
X-8303176Y-6467105D01*
X-8300130Y-6461744D01*
X-8298183Y-6455892D01*
X-8297466Y-6454281D01*
X-8251485Y-6400185D01*
X-8183558Y-6379536D01*
X-8115250Y-6398889D01*
X-8068249Y-6452099D01*
X-8056960Y-6493233D01*
X-8046619Y-6598699D01*
X-8044395Y-6605384D01*
X-8044395Y-6605385D01*
X-8041978Y-6612651D01*
X-7992906Y-6760167D01*
X-7989259Y-6766189D01*
X-7989258Y-6766191D01*
X-7916676Y-6886037D01*
X-7904754Y-6905723D01*
X-7786545Y-7028132D01*
X-7740949Y-7057969D01*
X-7686343Y-7093702D01*
X-7644154Y-7121310D01*
X-7637550Y-7123766D01*
X-7637548Y-7123767D01*
X-7491269Y-7178168D01*
X-7491267Y-7178169D01*
X-7484659Y-7180626D01*
X-7463794Y-7183410D01*
X-7463315Y-7183474D01*
X-7393916Y-7216341D01*
X-7369602Y-7239080D01*
X-7367561Y-7241032D01*
X-7329610Y-7278154D01*
X-7328745Y-7279008D01*
X-7289028Y-7318614D01*
X-7248342Y-7355081D01*
X-7245425Y-7356809D01*
X-7233559Y-7366990D01*
X-6605405Y-7995144D01*
X-6571379Y-8057456D01*
X-6568500Y-8084239D01*
X-6568500Y-10837320D01*
X-6569808Y-10855428D01*
X-6573515Y-10880954D01*
X-6573521Y-10885451D01*
X-6573594Y-10937033D01*
X-6573602Y-10938203D01*
X-6574189Y-10991323D01*
X-6574251Y-10994133D01*
X-6574739Y-11008749D01*
X-6575422Y-11029162D01*
X-6590258Y-11084399D01*
X-6598229Y-11099295D01*
X-6603412Y-11108103D01*
X-6637827Y-11161504D01*
X-6643696Y-11170610D01*
X-6678848Y-11267189D01*
X-6692398Y-11304419D01*
X-6701897Y-11330516D01*
X-6723225Y-11499343D01*
X-6706619Y-11668699D01*
X-6652906Y-11830167D01*
X-6649259Y-11836189D01*
X-6649258Y-11836191D01*
X-6599632Y-11918132D01*
X-6564754Y-11975723D01*
X-6446545Y-12098132D01*
X-6384473Y-12138751D01*
X-6325667Y-12177232D01*
X-6304154Y-12191310D01*
X-6297550Y-12193766D01*
X-6297548Y-12193767D01*
X-6250465Y-12211277D01*
X-6144659Y-12250626D01*
X-5975985Y-12273132D01*
X-5968974Y-12272494D01*
X-5968970Y-12272494D01*
X-5813538Y-12258348D01*
X-5806517Y-12257709D01*
X-5799815Y-12255531D01*
X-5799813Y-12255531D01*
X-5651377Y-12207301D01*
X-5651374Y-12207300D01*
X-5644678Y-12205124D01*
X-5498510Y-12117990D01*
X-5493416Y-12113139D01*
X-5493412Y-12113136D01*
X-5386635Y-12011453D01*
X-5375279Y-12000639D01*
X-5366780Y-11987848D01*
X-5310214Y-11902709D01*
X-5281109Y-11858902D01*
X-5220681Y-11699825D01*
X-5196999Y-11531313D01*
X-5196701Y-11510000D01*
X-5215669Y-11340892D01*
X-5271632Y-11180189D01*
X-5324058Y-11096290D01*
X-5330110Y-11085449D01*
X-5331503Y-11082636D01*
X-5344519Y-11030934D01*
X-5345750Y-10994142D01*
X-5345812Y-10991323D01*
X-5346399Y-10938206D01*
X-5346407Y-10937036D01*
X-5346483Y-10882621D01*
X-5346485Y-10880963D01*
X-5349467Y-10826410D01*
X-5350308Y-10823124D01*
X-5351500Y-10807540D01*
X-5351500Y-9492612D01*
X-5331498Y-9424491D01*
X-5277842Y-9377998D01*
X-5207568Y-9367894D01*
X-5187402Y-9372510D01*
X-5025462Y-9423880D01*
X-5013468Y-9426430D01*
X-4869239Y-9442607D01*
X-4862215Y-9443000D01*
X-4672023Y-9443000D01*
X-4603902Y-9463002D01*
X-4557409Y-9516658D01*
X-4547305Y-9586932D01*
X-4555034Y-9615792D01*
X-4563996Y-9638197D01*
X-4563997Y-9638202D01*
X-4566530Y-9644534D01*
X-4567644Y-9651262D01*
X-4567645Y-9651266D01*
X-4592595Y-9801975D01*
X-4596108Y-9823198D01*
X-4595751Y-9830015D01*
X-4595751Y-9830019D01*
X-4590849Y-9923539D01*
X-4586630Y-10004047D01*
X-4584819Y-10010620D01*
X-4584819Y-10010623D01*
X-4563078Y-10089552D01*
X-4538539Y-10178641D01*
X-4454078Y-10338836D01*
X-4449673Y-10344049D01*
X-4449670Y-10344053D01*
X-4341594Y-10471943D01*
X-4341590Y-10471947D01*
X-4337187Y-10477157D01*
X-4331763Y-10481304D01*
X-4331762Y-10481305D01*
X-4198743Y-10583006D01*
X-4198739Y-10583009D01*
X-4193322Y-10587150D01*
X-4106628Y-10627576D01*
X-4035369Y-10660805D01*
X-4035366Y-10660806D01*
X-4029192Y-10663685D01*
X-4022544Y-10665171D01*
X-4022541Y-10665172D01*
X-3920516Y-10687977D01*
X-3852457Y-10703190D01*
X-3846912Y-10703500D01*
X-3713756Y-10703500D01*
X-3578963Y-10688857D01*
X-3433794Y-10640002D01*
X-3413796Y-10633272D01*
X-3413794Y-10633271D01*
X-3407325Y-10631094D01*
X-3252095Y-10537823D01*
X-3247138Y-10533135D01*
X-3247135Y-10533133D01*
X-3125473Y-10418082D01*
X-3125471Y-10418080D01*
X-3120515Y-10413393D01*
X-3116683Y-10407755D01*
X-3116680Y-10407751D01*
X-3022558Y-10269255D01*
X-3018723Y-10263612D01*
X-2951470Y-10095466D01*
X-2950356Y-10088738D01*
X-2950355Y-10088734D01*
X-2923007Y-9923539D01*
X-2923007Y-9923536D01*
X-2921892Y-9916802D01*
X-2922578Y-9903699D01*
X-2931013Y-9742766D01*
X-2931370Y-9735953D01*
X-2936073Y-9718876D01*
X-2977648Y-9567941D01*
X-2979461Y-9561359D01*
X-3063922Y-9401164D01*
X-3076954Y-9385743D01*
X-3105647Y-9320803D01*
X-3094675Y-9250659D01*
X-3060353Y-9206771D01*
X-3000068Y-9157603D01*
X-2991363Y-9148959D01*
X-2873216Y-9006144D01*
X-2866356Y-8995973D01*
X-2778196Y-8832924D01*
X-2773444Y-8821619D01*
X-2737750Y-8706308D01*
X-2737669Y-8700768D01*
X-1481575Y-8700768D01*
X-1449862Y-8808521D01*
X-1445269Y-8819889D01*
X-1359393Y-8984154D01*
X-1352679Y-8994415D01*
X-1236532Y-9138873D01*
X-1227954Y-9147632D01*
X-1085961Y-9266778D01*
X-1075841Y-9273708D01*
X-913415Y-9363002D01*
X-902142Y-9367834D01*
X-725462Y-9423880D01*
X-713468Y-9426430D01*
X-569239Y-9442607D01*
X-562215Y-9443000D01*
X-331115Y-9443000D01*
X-315876Y-9438525D01*
X-314671Y-9437135D01*
X-313000Y-9429452D01*
X-313000Y-8707115D01*
X-317475Y-8691876D01*
X-318865Y-8690671D01*
X-326548Y-8689000D01*
X-1466924Y-8689000D01*
X-1480455Y-8692973D01*
X-1481575Y-8700768D01*
X-2737669Y-8700768D01*
X-2737544Y-8692205D01*
X-2744299Y-8689000D01*
X-4387000Y-8689000D01*
X-4455121Y-8668998D01*
X-4501614Y-8615342D01*
X-4513000Y-8563000D01*
X-4513000Y-8162885D01*
X-4005000Y-8162885D01*
X-4000525Y-8178124D01*
X-3999135Y-8179329D01*
X-3991452Y-8181000D01*
X-2751076Y-8181000D01*
X-2740161Y-8177795D01*
X-1480456Y-8177795D01*
X-1473701Y-8181000D01*
X-331115Y-8181000D01*
X-315876Y-8176525D01*
X-314671Y-8175135D01*
X-313000Y-8167452D01*
X-313000Y-7445115D01*
X-317475Y-7429876D01*
X-318865Y-7428671D01*
X-326548Y-7427000D01*
X-555657Y-7427000D01*
X-561805Y-7427301D01*
X-699603Y-7440812D01*
X-711638Y-7443195D01*
X-889076Y-7496767D01*
X-900416Y-7501441D01*
X-1064077Y-7588460D01*
X-1074294Y-7595249D01*
X-1217933Y-7712397D01*
X-1226637Y-7721041D01*
X-1344784Y-7863856D01*
X-1351644Y-7874027D01*
X-1439804Y-8037076D01*
X-1444556Y-8048381D01*
X-1480250Y-8163692D01*
X-1480456Y-8177795D01*
X-2740161Y-8177795D01*
X-2737545Y-8177027D01*
X-2736425Y-8169232D01*
X-2768138Y-8061479D01*
X-2772731Y-8050111D01*
X-2858607Y-7885846D01*
X-2865321Y-7875585D01*
X-2981468Y-7731127D01*
X-2990046Y-7722368D01*
X-3132039Y-7603222D01*
X-3142159Y-7596292D01*
X-3304585Y-7506998D01*
X-3315858Y-7502166D01*
X-3492538Y-7446120D01*
X-3504532Y-7443570D01*
X-3648761Y-7427393D01*
X-3655785Y-7427000D01*
X-3986885Y-7427000D01*
X-4002124Y-7431475D01*
X-4003329Y-7432865D01*
X-4005000Y-7440548D01*
X-4005000Y-8162885D01*
X-4513000Y-8162885D01*
X-4513000Y-7445115D01*
X-4517475Y-7429876D01*
X-4518865Y-7428671D01*
X-4526548Y-7427000D01*
X-4855657Y-7427000D01*
X-4861805Y-7427301D01*
X-4999603Y-7440812D01*
X-5011638Y-7443195D01*
X-5189076Y-7496767D01*
X-5200424Y-7501444D01*
X-5255920Y-7530952D01*
X-5325457Y-7545272D01*
X-5391698Y-7519724D01*
X-5424193Y-7482700D01*
X-5425313Y-7480760D01*
X-5428476Y-7473124D01*
X-5501523Y-7377928D01*
X-5501526Y-7377925D01*
X-5526013Y-7346013D01*
X-5532568Y-7340983D01*
X-5551379Y-7326548D01*
X-5563770Y-7315681D01*
X-6394072Y-6485379D01*
X-6405945Y-6471658D01*
X-6421386Y-6450972D01*
X-6429246Y-6443090D01*
X-6460992Y-6411255D01*
X-6461846Y-6410390D01*
X-6498968Y-6372439D01*
X-6500920Y-6370398D01*
X-6521915Y-6347949D01*
X-6553836Y-6284534D01*
X-6554686Y-6278767D01*
X-6554883Y-6277900D01*
X-6555669Y-6270892D01*
X-6611632Y-6110189D01*
X-6617617Y-6100610D01*
X-6666059Y-6023089D01*
X-6701808Y-5965879D01*
X-6821714Y-5845132D01*
X-6837961Y-5834821D01*
X-6894575Y-5798893D01*
X-6965392Y-5753951D01*
X-7125700Y-5696868D01*
X-7294671Y-5676720D01*
X-7301674Y-5677456D01*
X-7301675Y-5677456D01*
X-7456899Y-5693770D01*
X-7456903Y-5693771D01*
X-7463907Y-5694507D01*
X-7470578Y-5696778D01*
X-7618327Y-5747075D01*
X-7618330Y-5747076D01*
X-7624997Y-5749346D01*
X-7630995Y-5753036D01*
X-7630997Y-5753037D01*
X-7763935Y-5834821D01*
X-7763937Y-5834823D01*
X-7769934Y-5838512D01*
X-7891514Y-5957573D01*
X-7895325Y-5963487D01*
X-7895327Y-5963489D01*
X-7922562Y-6005750D01*
X-7983696Y-6100610D01*
X-7984471Y-6100110D01*
X-8028569Y-6147800D01*
X-8097299Y-6165592D01*
X-8164739Y-6143402D01*
X-8209476Y-6088273D01*
X-8218631Y-6051954D01*
X-8227306Y-5963489D01*
X-8235205Y-5882926D01*
X-8237339Y-5875856D01*
X-8266027Y-5780840D01*
X-8289535Y-5702977D01*
X-8377782Y-5537008D01*
X-8496585Y-5391340D01*
X-8615699Y-5292800D01*
X-8636671Y-5275450D01*
X-8636676Y-5275447D01*
X-8641420Y-5271522D01*
X-8646839Y-5268592D01*
X-8646842Y-5268590D01*
X-8743434Y-5216364D01*
X-8806769Y-5182119D01*
X-8986334Y-5126534D01*
X-8992459Y-5125890D01*
X-8992460Y-5125890D01*
X-9167148Y-5107529D01*
X-9167149Y-5107529D01*
X-9173276Y-5106885D01*
X-9250327Y-5113897D01*
X-9354335Y-5123363D01*
X-9354338Y-5123364D01*
X-9360474Y-5123922D01*
X-9366380Y-5125660D01*
X-9366384Y-5125661D01*
X-9463160Y-5154144D01*
X-9540798Y-5176994D01*
X-9707379Y-5264080D01*
X-9853872Y-5381864D01*
X-9857830Y-5386582D01*
X-9857833Y-5386584D01*
X-9938043Y-5482175D01*
X-9974698Y-5525859D01*
X-9977662Y-5531251D01*
X-9977665Y-5531255D01*
X-10025037Y-5617425D01*
X-10065254Y-5690580D01*
X-10122091Y-5869752D01*
X-10143044Y-6056552D01*
X-10142528Y-6062696D01*
X-10132774Y-6178850D01*
X-10127315Y-6243865D01*
X-10105258Y-6320788D01*
X-10079435Y-6410841D01*
X-10075503Y-6424555D01*
X-10072688Y-6430032D01*
X-10072687Y-6430035D01*
X-10044244Y-6485379D01*
X-9989582Y-6591740D01*
X-9985756Y-6596567D01*
X-9981866Y-6601475D01*
X-9970017Y-6619368D01*
X-9969555Y-6620215D01*
X-9967686Y-6624308D01*
X-9965255Y-6628092D01*
X-9963097Y-6632045D01*
X-9963723Y-6632387D01*
X-9947722Y-6672960D01*
X-9947378Y-6674848D01*
X-9945917Y-6685356D01*
X-9942418Y-6721691D01*
X-9941930Y-6728949D01*
X-9939658Y-6788295D01*
X-9939567Y-6792713D01*
X-9939433Y-6834716D01*
X-9959217Y-6902900D01*
X-10012724Y-6949564D01*
X-10082966Y-6959892D01*
X-10147640Y-6930605D01*
X-10154527Y-6924213D01*
X-12736345Y-4342395D01*
X-12744335Y-4333615D01*
X-12744337Y-4333613D01*
X-12748584Y-4326920D01*
X-12755386Y-4320532D01*
X-12800257Y-4278396D01*
X-12803099Y-4275641D01*
X-12823667Y-4255073D01*
X-12827174Y-4252353D01*
X-12836196Y-4244647D01*
X-12839911Y-4241158D01*
X-12869867Y-4213028D01*
X-12876819Y-4209206D01*
X-12888658Y-4202697D01*
X-12905182Y-4191843D01*
X-12915868Y-4183555D01*
X-12922132Y-4178696D01*
X-12929404Y-4175549D01*
X-12929406Y-4175548D01*
X-12964535Y-4160346D01*
X-12975195Y-4155124D01*
X-13008716Y-4136695D01*
X-13008718Y-4136694D01*
X-13015663Y-4132876D01*
X-13036441Y-4127541D01*
X-13055131Y-4121142D01*
X-13074824Y-4112620D01*
X-13120448Y-4105394D01*
X-13132071Y-4102987D01*
X-13162810Y-4095095D01*
X-13176812Y-4091500D01*
X-13198259Y-4091500D01*
X-13217969Y-4089949D01*
X-13231323Y-4087834D01*
X-13239152Y-4086594D01*
X-13285141Y-4090941D01*
X-13296996Y-4091500D01*
X-14883985Y-4091500D01*
X-14903092Y-4090043D01*
X-14907655Y-4089343D01*
X-14926746Y-4086414D01*
X-15012580Y-4085604D01*
X-15065181Y-4085108D01*
X-15068597Y-4085030D01*
X-15186548Y-4080716D01*
X-15191749Y-4080418D01*
X-15283838Y-4073229D01*
X-15291107Y-4072449D01*
X-15324116Y-4067934D01*
X-15359731Y-4063062D01*
X-15369031Y-4061432D01*
X-15418485Y-4050838D01*
X-15429298Y-4048014D01*
X-15466877Y-4036398D01*
X-15478078Y-4032346D01*
X-15512973Y-4017824D01*
X-15523249Y-4012994D01*
X-15564240Y-3991418D01*
X-15572616Y-3986590D01*
X-15625871Y-3953098D01*
X-15632030Y-3948966D01*
X-15643327Y-3940892D01*
X-15704566Y-3897127D01*
X-15707764Y-3895361D01*
X-15707769Y-3895358D01*
X-15711437Y-3893333D01*
X-15730844Y-3880118D01*
X-15740482Y-3872145D01*
X-15745230Y-3868217D01*
X-15750649Y-3865287D01*
X-15750652Y-3865285D01*
X-15922410Y-3772416D01*
X-15922415Y-3772414D01*
X-15927830Y-3769486D01*
X-16126129Y-3708102D01*
X-16132254Y-3707458D01*
X-16132255Y-3707458D01*
X-16326446Y-3687048D01*
X-16326448Y-3687048D01*
X-16332575Y-3686404D01*
X-16418485Y-3694223D01*
X-16533164Y-3704659D01*
X-16533167Y-3704660D01*
X-16539303Y-3705218D01*
X-16545209Y-3706956D01*
X-16545213Y-3706957D01*
X-16659997Y-3740740D01*
X-16738440Y-3763827D01*
X-16922400Y-3859999D01*
X-16927201Y-3863859D01*
X-16927207Y-3863863D01*
X-16957765Y-3888432D01*
X-16976979Y-3901174D01*
X-16986061Y-3906064D01*
X-16986069Y-3906069D01*
X-16990021Y-3908197D01*
X-16993634Y-3910869D01*
X-17060888Y-3960600D01*
X-17067445Y-3965135D01*
X-17118206Y-3997918D01*
X-17127014Y-4003112D01*
X-17165763Y-4023893D01*
X-17176452Y-4028994D01*
X-17209570Y-4042927D01*
X-17221118Y-4047135D01*
X-17257600Y-4058446D01*
X-17268642Y-4061329D01*
X-17317791Y-4071807D01*
X-17327209Y-4073444D01*
X-17396157Y-4082749D01*
X-17403423Y-4083516D01*
X-17496380Y-4090607D01*
X-17501517Y-4090894D01*
X-17620478Y-4095095D01*
X-17623795Y-4095168D01*
X-17631022Y-4095233D01*
X-17763013Y-4096417D01*
X-17764598Y-4096513D01*
X-17764606Y-4096513D01*
X-17809514Y-4099225D01*
X-17809515Y-4099225D01*
X-17815622Y-4099594D01*
X-17818237Y-4100274D01*
X-17833785Y-4101500D01*
X-19567941Y-4101500D01*
X-19579797Y-4100941D01*
X-19587537Y-4099211D01*
X-19595463Y-4099460D01*
X-19595464Y-4099460D01*
X-19658389Y-4101438D01*
X-19662347Y-4101500D01*
X-19691432Y-4101500D01*
X-19695363Y-4101997D01*
X-19695370Y-4101997D01*
X-19695821Y-4102054D01*
X-19707657Y-4102986D01*
X-19753831Y-4104438D01*
X-19774421Y-4110420D01*
X-19793782Y-4114430D01*
X-19800770Y-4115312D01*
X-19807204Y-4116125D01*
X-19807205Y-4116125D01*
X-19815064Y-4117118D01*
X-19822429Y-4120034D01*
X-19822433Y-4120035D01*
X-19858021Y-4134126D01*
X-19869231Y-4137965D01*
X-19913600Y-4150855D01*
X-19932065Y-4161775D01*
X-19949805Y-4170466D01*
X-19969756Y-4178365D01*
X-19996671Y-4197920D01*
X-20007126Y-4205516D01*
X-20017048Y-4212033D01*
X-20049977Y-4231507D01*
X-20049981Y-4231510D01*
X-20056807Y-4235547D01*
X-20071971Y-4250711D01*
X-20087004Y-4263551D01*
X-20104357Y-4276159D01*
X-20129386Y-4306414D01*
X-20133802Y-4311752D01*
X-20141792Y-4320532D01*
X-22237279Y-6416019D01*
X-22246023Y-6423979D01*
X-22272572Y-6445954D01*
X-22275591Y-6449284D01*
X-22275596Y-6449288D01*
X-22322660Y-6501188D01*
X-22326902Y-6505642D01*
X-22397605Y-6576345D01*
X-22406385Y-6584335D01*
X-22406387Y-6584337D01*
X-22413080Y-6588584D01*
X-22418506Y-6594362D01*
X-22418507Y-6594363D01*
X-22461604Y-6640257D01*
X-22464359Y-6643099D01*
X-22484927Y-6663667D01*
X-22487644Y-6667170D01*
X-22495352Y-6676195D01*
X-22526972Y-6709867D01*
X-22530793Y-6716818D01*
X-22530794Y-6716819D01*
X-22537303Y-6728658D01*
X-22548157Y-6745182D01*
X-22554596Y-6753484D01*
X-22561304Y-6762132D01*
X-22564451Y-6769404D01*
X-22564452Y-6769406D01*
X-22579654Y-6804535D01*
X-22584876Y-6815195D01*
X-22607124Y-6855663D01*
X-22612459Y-6876441D01*
X-22618858Y-6895131D01*
X-22627380Y-6914824D01*
X-22634055Y-6956969D01*
X-22634606Y-6960448D01*
X-22637013Y-6972071D01*
X-22638244Y-6976867D01*
X-22648500Y-7016812D01*
X-22648500Y-7038259D01*
X-22650051Y-7057969D01*
X-22653406Y-7079152D01*
X-22652660Y-7087046D01*
X-22652660Y-7087050D01*
X-22652371Y-7090112D01*
X-22652869Y-7093702D01*
X-22652909Y-7094966D01*
X-22653044Y-7094962D01*
X-22660340Y-7147530D01*
X-22664989Y-7159513D01*
X-22669458Y-7169678D01*
X-22671858Y-7174542D01*
X-22679327Y-7187639D01*
X-22695625Y-7212614D01*
X-22705681Y-7232273D01*
X-22708726Y-7237870D01*
X-22778599Y-7358893D01*
X-22784783Y-7377925D01*
X-22823396Y-7496767D01*
X-22834365Y-7530525D01*
X-22835055Y-7537088D01*
X-22835055Y-7537089D01*
X-22843790Y-7620192D01*
X-22853229Y-7710000D01*
X-22852539Y-7716565D01*
X-22840658Y-7829598D01*
X-22834365Y-7889475D01*
X-22832325Y-7895753D01*
X-22832325Y-7895754D01*
X-22809875Y-7964848D01*
X-22778599Y-8061107D01*
X-22712764Y-8175135D01*
X-22694923Y-8206037D01*
X-22692744Y-8210130D01*
X-22691775Y-8211797D01*
X-22689801Y-8215832D01*
X-22687271Y-8219547D01*
X-22682294Y-8226856D01*
X-22661205Y-8283914D01*
X-22658591Y-8307533D01*
X-22658032Y-8314219D01*
X-22656335Y-8344087D01*
X-22655492Y-8358917D01*
X-22655322Y-8363200D01*
X-22653875Y-8426847D01*
X-22653843Y-8429101D01*
X-22653768Y-8444535D01*
X-22653483Y-8503340D01*
X-22653446Y-8511073D01*
X-22653445Y-8511637D01*
X-22653493Y-8598007D01*
X-22653404Y-8599674D01*
X-22653404Y-8599687D01*
X-22650895Y-8646860D01*
X-22650566Y-8653042D01*
X-22649684Y-8656502D01*
X-22648500Y-8672112D01*
X-22648500Y-9588155D01*
X-22649773Y-9606018D01*
X-22653493Y-9631993D01*
X-22653471Y-9671277D01*
X-22653445Y-9718192D01*
X-22653446Y-9718872D01*
X-22653843Y-9800899D01*
X-22653875Y-9803153D01*
X-22655322Y-9866799D01*
X-22655492Y-9871082D01*
X-22658031Y-9915771D01*
X-22658591Y-9922466D01*
X-22658710Y-9923539D01*
X-22661205Y-9946084D01*
X-22682294Y-10003143D01*
X-22689801Y-10014167D01*
X-22694756Y-10023513D01*
X-22696933Y-10027444D01*
X-22778599Y-10168893D01*
X-22780641Y-10175178D01*
X-22831853Y-10332795D01*
X-22834365Y-10340525D01*
X-22835055Y-10347088D01*
X-22835055Y-10347089D01*
X-22852539Y-10513435D01*
X-22853229Y-10520000D01*
X-22852539Y-10526565D01*
X-22837970Y-10665172D01*
X-22834365Y-10699475D01*
X-22778599Y-10871107D01*
X-22775296Y-10876829D01*
X-22775295Y-10876830D01*
X-22743311Y-10932227D01*
X-22688367Y-11027393D01*
X-22683949Y-11032300D01*
X-22683948Y-11032301D01*
X-22595202Y-11130863D01*
X-22567613Y-11161504D01*
X-22562271Y-11165385D01*
X-22562269Y-11165387D01*
X-22436740Y-11256589D01*
X-22421615Y-11267578D01*
X-22415587Y-11270262D01*
X-22415585Y-11270263D01*
X-22272625Y-11333913D01*
X-22256752Y-11340980D01*
X-22168492Y-11359740D01*
X-22086689Y-11377128D01*
X-22086685Y-11377128D01*
X-22080232Y-11378500D01*
X-21899768Y-11378500D01*
X-21893315Y-11377128D01*
X-21893311Y-11377128D01*
X-21811508Y-11359740D01*
X-21723248Y-11340980D01*
X-21707375Y-11333913D01*
X-21564415Y-11270263D01*
X-21564413Y-11270262D01*
X-21558385Y-11267578D01*
X-21543260Y-11256589D01*
X-21417731Y-11165387D01*
X-21417729Y-11165385D01*
X-21412387Y-11161504D01*
X-21384798Y-11130863D01*
X-21296052Y-11032301D01*
X-21296051Y-11032300D01*
X-21291633Y-11027393D01*
X-21236689Y-10932227D01*
X-21204705Y-10876830D01*
X-21204704Y-10876829D01*
X-21201401Y-10871107D01*
X-21154333Y-10726245D01*
X-21114260Y-10667639D01*
X-21048863Y-10640002D01*
X-20978907Y-10652109D01*
X-20926600Y-10700115D01*
X-20908500Y-10765181D01*
X-20908500Y-17158155D01*
X-20909773Y-17176018D01*
X-20913493Y-17201993D01*
X-20913448Y-17282438D01*
X-20913445Y-17288192D01*
X-20913446Y-17288872D01*
X-20913843Y-17370899D01*
X-20913875Y-17373153D01*
X-20915322Y-17436799D01*
X-20915492Y-17441082D01*
X-20917256Y-17472137D01*
X-20918031Y-17485771D01*
X-20918591Y-17492466D01*
X-20920702Y-17511540D01*
X-20921205Y-17516084D01*
X-20942294Y-17573143D01*
X-20949801Y-17584167D01*
X-20954756Y-17593513D01*
X-20956934Y-17597446D01*
X-20994293Y-17662154D01*
X-21038599Y-17738893D01*
X-21094365Y-17910525D01*
X-21095055Y-17917088D01*
X-21095057Y-17917098D01*
X-21095688Y-17923102D01*
X-21100333Y-17944125D01*
X-21099900Y-17944240D01*
X-21101053Y-17948592D01*
X-21102511Y-17952844D01*
X-21103348Y-17957255D01*
X-21104998Y-17965948D01*
X-21130434Y-18021206D01*
X-21145286Y-18039754D01*
X-21149613Y-18044872D01*
X-21179419Y-18078269D01*
X-21182309Y-18081399D01*
X-21225871Y-18126990D01*
X-21226371Y-18127513D01*
X-21227929Y-18129115D01*
X-21261912Y-18163429D01*
X-21285564Y-18187311D01*
X-21285992Y-18187741D01*
X-21347073Y-18248753D01*
X-21348213Y-18250021D01*
X-21379763Y-18285112D01*
X-21379767Y-18285117D01*
X-21383906Y-18289721D01*
X-21385736Y-18292802D01*
X-21395941Y-18304681D01*
X-25475855Y-22384595D01*
X-25538167Y-22418621D01*
X-25564950Y-22421500D01*
X-26235857Y-22421500D01*
X-26254397Y-22420128D01*
X-26279126Y-22416449D01*
X-26390623Y-22415902D01*
X-26392744Y-22415874D01*
X-26452569Y-22414526D01*
X-26491442Y-22413650D01*
X-26495450Y-22413496D01*
X-26571563Y-22409354D01*
X-26577778Y-22408861D01*
X-26608356Y-22405674D01*
X-26631770Y-22403234D01*
X-26640414Y-22402028D01*
X-26674184Y-22396121D01*
X-26685062Y-22393718D01*
X-26703396Y-22388808D01*
X-26715626Y-22384854D01*
X-26718675Y-22383693D01*
X-26726308Y-22380788D01*
X-26738526Y-22375379D01*
X-26750754Y-22369170D01*
X-26761563Y-22362990D01*
X-26782792Y-22349419D01*
X-26791433Y-22343370D01*
X-26832988Y-22311603D01*
X-26832994Y-22311599D01*
X-26835809Y-22309447D01*
X-26838855Y-22307622D01*
X-26838860Y-22307619D01*
X-26855442Y-22297686D01*
X-26871009Y-22286680D01*
X-26896671Y-22265451D01*
X-26901420Y-22261522D01*
X-26906839Y-22258592D01*
X-26906842Y-22258590D01*
X-27002561Y-22206836D01*
X-27066769Y-22172119D01*
X-27246334Y-22116534D01*
X-27252459Y-22115890D01*
X-27252460Y-22115890D01*
X-27427148Y-22097529D01*
X-27427149Y-22097529D01*
X-27433276Y-22096885D01*
X-27494906Y-22102494D01*
X-27614335Y-22113363D01*
X-27614338Y-22113364D01*
X-27620474Y-22113922D01*
X-27626380Y-22115660D01*
X-27626384Y-22115661D01*
X-27759722Y-22154905D01*
X-27800798Y-22166994D01*
X-27967379Y-22254080D01*
X-28113872Y-22371864D01*
X-28117830Y-22376582D01*
X-28117833Y-22376584D01*
X-28189951Y-22462531D01*
X-28234698Y-22515859D01*
X-28237662Y-22521251D01*
X-28237665Y-22521255D01*
X-28254646Y-22552144D01*
X-28325254Y-22680580D01*
X-28382091Y-22859752D01*
X-28403044Y-23046552D01*
X-37316593Y-23046552D01*
X-37297546Y-22967216D01*
X-37297545Y-22967210D01*
X-37296391Y-22962403D01*
X-37276526Y-22710000D01*
X-37296391Y-22457597D01*
X-37306269Y-22416449D01*
X-37354340Y-22216221D01*
X-37355495Y-22211409D01*
X-37373968Y-22166811D01*
X-37450489Y-21982072D01*
X-37450491Y-21982068D01*
X-37452384Y-21977498D01*
X-37584672Y-21761624D01*
X-37749102Y-21569102D01*
X-37941624Y-21404672D01*
X-38157498Y-21272384D01*
X-38162068Y-21270491D01*
X-38162072Y-21270489D01*
X-38386836Y-21177389D01*
X-38386838Y-21177388D01*
X-38391409Y-21175495D01*
X-38481372Y-21153897D01*
X-38632784Y-21117546D01*
X-38632790Y-21117545D01*
X-38637597Y-21116391D01*
X-38890000Y-21096526D01*
X-39142403Y-21116391D01*
X-39147210Y-21117545D01*
X-39147216Y-21117546D01*
X-39298628Y-21153897D01*
X-39388591Y-21175495D01*
X-39393162Y-21177388D01*
X-39393164Y-21177389D01*
X-39617928Y-21270489D01*
X-39617932Y-21270491D01*
X-39622502Y-21272384D01*
X-39838376Y-21404672D01*
X-40030898Y-21569102D01*
X-40195328Y-21761624D01*
X-40327616Y-21977498D01*
X-40329509Y-21982068D01*
X-40329511Y-21982072D01*
X-40406032Y-22166811D01*
X-40424505Y-22211409D01*
X-40425660Y-22216221D01*
X-40473730Y-22416449D01*
X-40483609Y-22457597D01*
X-40503474Y-22710000D01*
X-44479628Y-22710000D01*
X-44473443Y-22681796D01*
X-44451896Y-22653115D01*
X-44350570Y-22552144D01*
X-44350560Y-22552132D01*
X-44346904Y-22548489D01*
X-44251627Y-22415897D01*
X-44219565Y-22371277D01*
X-44216547Y-22367077D01*
X-44188064Y-22309447D01*
X-44119864Y-22171453D01*
X-44119863Y-22171451D01*
X-44117570Y-22166811D01*
X-44052630Y-21953069D01*
X-44023471Y-21731590D01*
X-44023389Y-21728240D01*
X-44021926Y-21668365D01*
X-44021926Y-21668361D01*
X-44021844Y-21665000D01*
X-44040148Y-21442361D01*
X-44094569Y-21225702D01*
X-44183646Y-21020840D01*
X-44244803Y-20926305D01*
X-44302178Y-20837617D01*
X-44302180Y-20837614D01*
X-44304986Y-20833277D01*
X-44455330Y-20668051D01*
X-44459381Y-20664852D01*
X-44459385Y-20664848D01*
X-44626586Y-20532800D01*
X-44626590Y-20532798D01*
X-44630641Y-20529598D01*
X-44671947Y-20506796D01*
X-44721916Y-20456364D01*
X-44736688Y-20386921D01*
X-44711572Y-20320516D01*
X-44684220Y-20293909D01*
X-44606569Y-20238521D01*
X-44505140Y-20166173D01*
X-44346904Y-20008489D01*
X-44328677Y-19983124D01*
X-44219565Y-19831277D01*
X-44216547Y-19827077D01*
X-44182752Y-19758699D01*
X-44119864Y-19631453D01*
X-44119863Y-19631451D01*
X-44117570Y-19626811D01*
X-44085100Y-19519940D01*
X-44054135Y-19418023D01*
X-44054135Y-19418021D01*
X-44052630Y-19413069D01*
X-44023471Y-19191590D01*
X-44021844Y-19125000D01*
X-44040148Y-18902361D01*
X-44094569Y-18685702D01*
X-44183646Y-18480840D01*
X-44304986Y-18293277D01*
X-44455330Y-18128051D01*
X-44459381Y-18124852D01*
X-44459385Y-18124848D01*
X-44626586Y-17992800D01*
X-44626590Y-17992798D01*
X-44630641Y-17989598D01*
X-44671947Y-17966796D01*
X-44721916Y-17916364D01*
X-44736688Y-17846921D01*
X-44711572Y-17780516D01*
X-44684220Y-17753909D01*
X-44567687Y-17670787D01*
X-44505140Y-17626173D01*
X-44474346Y-17595487D01*
X-44367615Y-17489128D01*
X-44346904Y-17468489D01*
X-44330543Y-17445721D01*
X-44219565Y-17291277D01*
X-44216547Y-17287077D01*
X-44176722Y-17206498D01*
X-44119864Y-17091453D01*
X-44119863Y-17091451D01*
X-44117570Y-17086811D01*
X-44052630Y-16873069D01*
X-44023471Y-16651590D01*
X-44023389Y-16648240D01*
X-44021926Y-16588365D01*
X-44021926Y-16588361D01*
X-44021844Y-16585000D01*
X-44040148Y-16362361D01*
X-44094569Y-16145702D01*
X-44183646Y-15940840D01*
X-44285080Y-15784047D01*
X-44302178Y-15757617D01*
X-44302180Y-15757614D01*
X-44304986Y-15753277D01*
X-44455330Y-15588051D01*
X-44459381Y-15584852D01*
X-44459385Y-15584848D01*
X-44626586Y-15452800D01*
X-44626590Y-15452798D01*
X-44630641Y-15449598D01*
X-44671947Y-15426796D01*
X-44721916Y-15376364D01*
X-44736688Y-15306921D01*
X-44711572Y-15240516D01*
X-44684220Y-15213909D01*
X-44571408Y-15133441D01*
X-44505140Y-15086173D01*
X-44466890Y-15048057D01*
X-44350565Y-14932137D01*
X-44346904Y-14928489D01*
X-44332471Y-14908404D01*
X-44219565Y-14751277D01*
X-44216547Y-14747077D01*
X-44209553Y-14732927D01*
X-44119864Y-14551453D01*
X-44119863Y-14551451D01*
X-44117570Y-14546811D01*
X-44058477Y-14352314D01*
X-44054135Y-14338023D01*
X-44054135Y-14338021D01*
X-44052630Y-14333069D01*
X-44023471Y-14111590D01*
X-44023389Y-14108240D01*
X-44021926Y-14048365D01*
X-44021926Y-14048361D01*
X-44021844Y-14045000D01*
X-44040148Y-13822361D01*
X-44094569Y-13605702D01*
X-44183646Y-13400840D01*
X-44236367Y-13319346D01*
X-44302178Y-13217617D01*
X-44302180Y-13217614D01*
X-44304986Y-13213277D01*
X-44455330Y-13048051D01*
X-44459381Y-13044852D01*
X-44459385Y-13044848D01*
X-44626586Y-12912800D01*
X-44626590Y-12912798D01*
X-44630641Y-12909598D01*
X-44671947Y-12886796D01*
X-44721916Y-12836364D01*
X-44736688Y-12766921D01*
X-44711572Y-12700516D01*
X-44684220Y-12673909D01*
X-44621587Y-12629233D01*
X-44505140Y-12546173D01*
X-44494151Y-12535223D01*
X-44375381Y-12416867D01*
X-44346904Y-12388489D01*
X-44317731Y-12347891D01*
X-44219565Y-12211277D01*
X-44216547Y-12207077D01*
X-44213799Y-12201518D01*
X-44119864Y-12011453D01*
X-44119863Y-12011451D01*
X-44117570Y-12006811D01*
X-44065768Y-11836310D01*
X-44054135Y-11798023D01*
X-44054135Y-11798021D01*
X-44052630Y-11793069D01*
X-44023471Y-11571590D01*
X-44021844Y-11505000D01*
X-44040148Y-11282361D01*
X-44074816Y-11144343D01*
X-38383225Y-11144343D01*
X-38366619Y-11313699D01*
X-38364395Y-11320384D01*
X-38364395Y-11320385D01*
X-38355245Y-11347891D01*
X-38312906Y-11475167D01*
X-38309259Y-11481189D01*
X-38309258Y-11481191D01*
X-38266748Y-11551382D01*
X-38224754Y-11620723D01*
X-38106545Y-11743132D01*
X-38060477Y-11773278D01*
X-37973541Y-11830167D01*
X-37964154Y-11836310D01*
X-37870044Y-11871310D01*
X-37813171Y-11913800D01*
X-37788297Y-11980297D01*
X-37803322Y-12049685D01*
X-37853476Y-12099935D01*
X-37873362Y-12108683D01*
X-37883327Y-12112075D01*
X-37883330Y-12112076D01*
X-37889997Y-12114346D01*
X-37895995Y-12118036D01*
X-37895997Y-12118037D01*
X-38028935Y-12199821D01*
X-38028937Y-12199823D01*
X-38034934Y-12203512D01*
X-38156514Y-12322573D01*
X-38160325Y-12328487D01*
X-38160327Y-12328489D01*
X-38215200Y-12413635D01*
X-38248696Y-12465610D01*
X-38306897Y-12625516D01*
X-38328225Y-12794343D01*
X-38311619Y-12963699D01*
X-38309395Y-12970384D01*
X-38309395Y-12970385D01*
X-38290537Y-13027075D01*
X-38257906Y-13125167D01*
X-38254259Y-13131189D01*
X-38254258Y-13131191D01*
X-38190117Y-13237099D01*
X-38169754Y-13270723D01*
X-38051545Y-13393132D01*
X-37982426Y-13438362D01*
X-37936378Y-13492399D01*
X-37926854Y-13562754D01*
X-37956878Y-13627089D01*
X-37985396Y-13651111D01*
X-38023932Y-13674819D01*
X-38023935Y-13674822D01*
X-38029934Y-13678512D01*
X-38034967Y-13683441D01*
X-38130541Y-13777035D01*
X-38151514Y-13797573D01*
X-38155325Y-13803487D01*
X-38155327Y-13803489D01*
X-38201267Y-13874773D01*
X-38243696Y-13940610D01*
X-38301897Y-14100516D01*
X-38323225Y-14269343D01*
X-38306619Y-14438699D01*
X-38304395Y-14445384D01*
X-38304395Y-14445385D01*
X-38292274Y-14481822D01*
X-38252906Y-14600167D01*
X-38249259Y-14606189D01*
X-38249258Y-14606191D01*
X-38172789Y-14732455D01*
X-38164754Y-14745723D01*
X-38046545Y-14868132D01*
X-38040653Y-14871987D01*
X-38040649Y-14871991D01*
X-37985003Y-14908404D01*
X-37938954Y-14962441D01*
X-37929431Y-15032796D01*
X-37959456Y-15097131D01*
X-37987973Y-15121153D01*
X-37993932Y-15124819D01*
X-37993935Y-15124822D01*
X-37999934Y-15128512D01*
X-38121514Y-15247573D01*
X-38125325Y-15253487D01*
X-38125327Y-15253489D01*
X-38201630Y-15371887D01*
X-38213696Y-15390610D01*
X-38228581Y-15431507D01*
X-38267744Y-15539107D01*
X-38271897Y-15550516D01*
X-38293225Y-15719343D01*
X-38276619Y-15888699D01*
X-38274395Y-15895384D01*
X-38274395Y-15895385D01*
X-38259274Y-15940840D01*
X-38222906Y-16050167D01*
X-38219259Y-16056189D01*
X-38219258Y-16056191D01*
X-38167923Y-16140954D01*
X-38134754Y-16195723D01*
X-38016545Y-16318132D01*
X-38010649Y-16321990D01*
X-37963478Y-16352858D01*
X-37917429Y-16406895D01*
X-37907906Y-16477250D01*
X-37937930Y-16541585D01*
X-37966448Y-16565607D01*
X-38019934Y-16598512D01*
X-38141514Y-16717573D01*
X-38145325Y-16723487D01*
X-38145327Y-16723489D01*
X-38221951Y-16842386D01*
X-38233696Y-16860610D01*
X-38291897Y-17020516D01*
X-38313225Y-17189343D01*
X-38296619Y-17358699D01*
X-38242906Y-17520167D01*
X-38239259Y-17526189D01*
X-38239258Y-17526191D01*
X-38160555Y-17656144D01*
X-38154754Y-17665723D01*
X-38036545Y-17788132D01*
X-38015560Y-17801864D01*
X-37913948Y-17868357D01*
X-37894154Y-17881310D01*
X-37887550Y-17883766D01*
X-37887548Y-17883767D01*
X-37741269Y-17938168D01*
X-37741267Y-17938169D01*
X-37734659Y-17940626D01*
X-37713794Y-17943410D01*
X-37713315Y-17943474D01*
X-37643916Y-17976341D01*
X-37619602Y-17999080D01*
X-37617561Y-18001032D01*
X-37579610Y-18038154D01*
X-37578745Y-18039008D01*
X-37572841Y-18044895D01*
X-37539028Y-18078614D01*
X-37498342Y-18115081D01*
X-37495425Y-18116809D01*
X-37483559Y-18126990D01*
X-35315405Y-20295144D01*
X-35281379Y-20357456D01*
X-35278500Y-20384239D01*
X-35278500Y-20667320D01*
X-35279808Y-20685428D01*
X-35283515Y-20710954D01*
X-35283521Y-20715451D01*
X-35283594Y-20767033D01*
X-35283602Y-20768250D01*
X-35284189Y-20821323D01*
X-35284251Y-20824140D01*
X-35285422Y-20859162D01*
X-35300258Y-20914399D01*
X-35308229Y-20929295D01*
X-35313410Y-20938099D01*
X-35353696Y-21000610D01*
X-35411897Y-21160516D01*
X-35433225Y-21329343D01*
X-35416619Y-21498699D01*
X-35362906Y-21660167D01*
X-35359259Y-21666189D01*
X-35359258Y-21666191D01*
X-35298909Y-21765838D01*
X-35274754Y-21805723D01*
X-35156545Y-21928132D01*
X-35014154Y-22021310D01*
X-35007550Y-22023766D01*
X-35007548Y-22023767D01*
X-34971156Y-22037301D01*
X-34854659Y-22080626D01*
X-34685985Y-22103132D01*
X-34678974Y-22102494D01*
X-34678970Y-22102494D01*
X-34523538Y-22088348D01*
X-34516517Y-22087709D01*
X-34509815Y-22085531D01*
X-34509813Y-22085531D01*
X-34361377Y-22037301D01*
X-34361374Y-22037300D01*
X-34354678Y-22035124D01*
X-34208510Y-21947990D01*
X-34203416Y-21943139D01*
X-34203412Y-21943136D01*
X-34136167Y-21879099D01*
X-34085279Y-21830639D01*
X-34009115Y-21716003D01*
X-33954757Y-21670333D01*
X-33884337Y-21661301D01*
X-33820213Y-21691775D01*
X-33796392Y-21720459D01*
X-33744754Y-21805723D01*
X-33626545Y-21928132D01*
X-33484154Y-22021310D01*
X-33477550Y-22023766D01*
X-33477548Y-22023767D01*
X-33441156Y-22037301D01*
X-33324659Y-22080626D01*
X-33155985Y-22103132D01*
X-33148974Y-22102494D01*
X-33148970Y-22102494D01*
X-32993538Y-22088348D01*
X-32986517Y-22087709D01*
X-32979815Y-22085531D01*
X-32979813Y-22085531D01*
X-32831377Y-22037301D01*
X-32831374Y-22037300D01*
X-32824678Y-22035124D01*
X-32678510Y-21947990D01*
X-32673416Y-21943139D01*
X-32673412Y-21943136D01*
X-32606167Y-21879099D01*
X-32555279Y-21830639D01*
X-32473884Y-21708130D01*
X-32419526Y-21662459D01*
X-32349107Y-21653427D01*
X-32284983Y-21683900D01*
X-32261162Y-21712583D01*
X-32204754Y-21805723D01*
X-32086545Y-21928132D01*
X-31944154Y-22021310D01*
X-31937550Y-22023766D01*
X-31937548Y-22023767D01*
X-31901156Y-22037301D01*
X-31784659Y-22080626D01*
X-31615985Y-22103132D01*
X-31608974Y-22102494D01*
X-31608970Y-22102494D01*
X-31453538Y-22088348D01*
X-31446517Y-22087709D01*
X-31439815Y-22085531D01*
X-31439813Y-22085531D01*
X-31291377Y-22037301D01*
X-31291374Y-22037300D01*
X-31284678Y-22035124D01*
X-31138510Y-21947990D01*
X-31133416Y-21943139D01*
X-31133412Y-21943136D01*
X-31066167Y-21879099D01*
X-31015279Y-21830639D01*
X-30944347Y-21723878D01*
X-30889989Y-21678207D01*
X-30819570Y-21669175D01*
X-30755446Y-21699648D01*
X-30731623Y-21728332D01*
X-30684754Y-21805723D01*
X-30566545Y-21928132D01*
X-30424154Y-22021310D01*
X-30417550Y-22023766D01*
X-30417548Y-22023767D01*
X-30381156Y-22037301D01*
X-30264659Y-22080626D01*
X-30095985Y-22103132D01*
X-30088974Y-22102494D01*
X-30088970Y-22102494D01*
X-29933538Y-22088348D01*
X-29926517Y-22087709D01*
X-29919815Y-22085531D01*
X-29919813Y-22085531D01*
X-29771377Y-22037301D01*
X-29771374Y-22037300D01*
X-29764678Y-22035124D01*
X-29618510Y-21947990D01*
X-29613416Y-21943139D01*
X-29613412Y-21943136D01*
X-29546167Y-21879099D01*
X-29495279Y-21830639D01*
X-29401109Y-21688902D01*
X-29340681Y-21529825D01*
X-29316999Y-21361313D01*
X-29316701Y-21340000D01*
X-29335669Y-21170892D01*
X-29391632Y-21010189D01*
X-29444058Y-20926290D01*
X-29450110Y-20915449D01*
X-29451503Y-20912636D01*
X-29464519Y-20860934D01*
X-29465750Y-20824142D01*
X-29465812Y-20821323D01*
X-29466399Y-20768255D01*
X-29466407Y-20767036D01*
X-29466483Y-20712621D01*
X-29466485Y-20710963D01*
X-29469467Y-20656410D01*
X-29470308Y-20653124D01*
X-29471500Y-20637540D01*
X-29471500Y-20338144D01*
X-29470422Y-20321698D01*
X-29467327Y-20298188D01*
X-29466249Y-20290000D01*
X-29482156Y-20169171D01*
X-29486084Y-20139338D01*
X-29487162Y-20131150D01*
X-29548476Y-19983124D01*
X-29621522Y-19887929D01*
X-29621526Y-19887925D01*
X-29621529Y-19887921D01*
X-29640984Y-19862566D01*
X-29640987Y-19862563D01*
X-29646013Y-19856013D01*
X-29652568Y-19850983D01*
X-29671379Y-19836548D01*
X-29683770Y-19825681D01*
X-36659072Y-12850379D01*
X-36670945Y-12836658D01*
X-36686386Y-12815972D01*
X-36725992Y-12776255D01*
X-36726846Y-12775390D01*
X-36763968Y-12737439D01*
X-36765920Y-12735398D01*
X-36786915Y-12712949D01*
X-36818836Y-12649534D01*
X-36819686Y-12643767D01*
X-36819883Y-12642900D01*
X-36820669Y-12635892D01*
X-36876632Y-12475189D01*
X-36882617Y-12465610D01*
X-36927908Y-12393132D01*
X-36966808Y-12330879D01*
X-37001802Y-12295639D01*
X-37048942Y-12248169D01*
X-37086714Y-12210132D01*
X-37098837Y-12202438D01*
X-37175318Y-12153902D01*
X-37230392Y-12118951D01*
X-37311911Y-12089924D01*
X-37369374Y-12048230D01*
X-37395174Y-11982087D01*
X-37381119Y-11912496D01*
X-37331671Y-11861551D01*
X-37317705Y-11855405D01*
X-37317793Y-11855211D01*
X-37311377Y-11852301D01*
X-37304678Y-11850124D01*
X-37291268Y-11842130D01*
X-37200740Y-11788165D01*
X-37140435Y-11770464D01*
X-37120891Y-11769810D01*
X-37104132Y-11769250D01*
X-37101331Y-11769188D01*
X-37048229Y-11768601D01*
X-37047098Y-11768593D01*
X-36990964Y-11768515D01*
X-36987960Y-11768351D01*
X-36942611Y-11765873D01*
X-36942607Y-11765872D01*
X-36936433Y-11765535D01*
X-36933138Y-11764691D01*
X-36917549Y-11763500D01*
X-36826739Y-11763500D01*
X-36810296Y-11764578D01*
X-36778603Y-11768750D01*
X-36770414Y-11767672D01*
X-36738729Y-11763501D01*
X-36738718Y-11763500D01*
X-36732143Y-11762634D01*
X-36661995Y-11773569D01*
X-36608894Y-11820693D01*
X-36590291Y-11875259D01*
X-36588294Y-11895626D01*
X-36581619Y-11963699D01*
X-36527906Y-12125167D01*
X-36524259Y-12131189D01*
X-36524258Y-12131191D01*
X-36451925Y-12250626D01*
X-36439754Y-12270723D01*
X-36321545Y-12393132D01*
X-36255214Y-12436538D01*
X-36200667Y-12472232D01*
X-36179154Y-12486310D01*
X-36172550Y-12488766D01*
X-36172548Y-12488767D01*
X-36136156Y-12502301D01*
X-36019659Y-12545626D01*
X-35850985Y-12568132D01*
X-35843974Y-12567494D01*
X-35843970Y-12567494D01*
X-35688538Y-12553348D01*
X-35681517Y-12552709D01*
X-35674815Y-12550531D01*
X-35674813Y-12550531D01*
X-35526377Y-12502301D01*
X-35526374Y-12502300D01*
X-35519678Y-12500124D01*
X-35373510Y-12412990D01*
X-35368416Y-12408139D01*
X-35368412Y-12408136D01*
X-35273391Y-12317648D01*
X-35250279Y-12295639D01*
X-35246254Y-12289582D01*
X-35191587Y-12207301D01*
X-35156109Y-12153902D01*
X-35095681Y-11994825D01*
X-35090204Y-11955850D01*
X-35057302Y-11887155D01*
X-35037056Y-11865584D01*
X-35035181Y-11863628D01*
X-34997244Y-11824951D01*
X-34996757Y-11824460D01*
X-34956587Y-11784220D01*
X-34920039Y-11743481D01*
X-34918277Y-11740509D01*
X-34908081Y-11728630D01*
X-29663766Y-6484315D01*
X-29651375Y-6473448D01*
X-29632563Y-6459013D01*
X-29626013Y-6453987D01*
X-29601526Y-6422075D01*
X-29601523Y-6422072D01*
X-29528477Y-6326876D01*
X-29528476Y-6326875D01*
X-29510460Y-6283382D01*
X-29470322Y-6186479D01*
X-29467162Y-6178850D01*
X-29451500Y-6059885D01*
X-29451500Y-6059878D01*
X-29446250Y-6020000D01*
X-29450422Y-5988307D01*
X-29451500Y-5971864D01*
X-29451500Y-4782672D01*
X-29450192Y-4764565D01*
X-29447132Y-4743491D01*
X-29446485Y-4739037D01*
X-29446407Y-4682995D01*
X-29446399Y-4681819D01*
X-29446288Y-4671819D01*
X-29445812Y-4628670D01*
X-29445750Y-4625860D01*
X-29445416Y-4615860D01*
X-29444579Y-4590836D01*
X-29429743Y-4535598D01*
X-29422944Y-4522894D01*
X-29416815Y-4512644D01*
X-29381109Y-4458902D01*
X-29320681Y-4299825D01*
X-29296999Y-4131313D01*
X-29296841Y-4120035D01*
X-29296756Y-4113961D01*
X-29296756Y-4113955D01*
X-29296701Y-4110000D01*
X-29315669Y-3940892D01*
X-29320330Y-3927506D01*
X-29348316Y-3847142D01*
X-29371632Y-3780189D01*
X-29377617Y-3770610D01*
X-29442035Y-3667522D01*
X-29461808Y-3635879D01*
X-29476702Y-3620880D01*
X-29576752Y-3520129D01*
X-29581714Y-3515132D01*
X-29597961Y-3504821D01*
X-29691118Y-3445702D01*
X-29725392Y-3423951D01*
X-29885700Y-3366868D01*
X-30054671Y-3346720D01*
X-30061674Y-3347456D01*
X-30061675Y-3347456D01*
X-30216899Y-3363770D01*
X-30216903Y-3363771D01*
X-30223907Y-3364507D01*
X-30230578Y-3366778D01*
X-30378327Y-3417075D01*
X-30378330Y-3417076D01*
X-30384997Y-3419346D01*
X-30390995Y-3423036D01*
X-30390997Y-3423037D01*
X-30523935Y-3504821D01*
X-30523937Y-3504823D01*
X-30529934Y-3508512D01*
X-30534967Y-3513441D01*
X-30644679Y-3620880D01*
X-30651514Y-3627573D01*
X-30655325Y-3633487D01*
X-30655327Y-3633489D01*
X-30724446Y-3740740D01*
X-30778161Y-3787164D01*
X-30848448Y-3797179D01*
X-30912991Y-3767603D01*
X-30937211Y-3739255D01*
X-30947454Y-3722862D01*
X-31001808Y-3635879D01*
X-31016702Y-3620880D01*
X-31116752Y-3520129D01*
X-31121714Y-3515132D01*
X-31137961Y-3504821D01*
X-31231118Y-3445702D01*
X-31265392Y-3423951D01*
X-31425700Y-3366868D01*
X-31594671Y-3346720D01*
X-31601674Y-3347456D01*
X-31601675Y-3347456D01*
X-31756899Y-3363770D01*
X-31756903Y-3363771D01*
X-31763907Y-3364507D01*
X-31770578Y-3366778D01*
X-31918327Y-3417075D01*
X-31918330Y-3417076D01*
X-31924997Y-3419346D01*
X-31930995Y-3423036D01*
X-31930997Y-3423037D01*
X-32063935Y-3504821D01*
X-32063937Y-3504823D01*
X-32069934Y-3508512D01*
X-32074967Y-3513441D01*
X-32184679Y-3620880D01*
X-32191514Y-3627573D01*
X-32195325Y-3633487D01*
X-32195327Y-3633489D01*
X-32256196Y-3727939D01*
X-32309911Y-3774363D01*
X-32380197Y-3784378D01*
X-32444741Y-3754802D01*
X-32468960Y-3726454D01*
X-32528073Y-3631856D01*
X-32528074Y-3631855D01*
X-32531808Y-3625879D01*
X-32651714Y-3505132D01*
X-32667961Y-3494821D01*
X-32706594Y-3470304D01*
X-32795392Y-3413951D01*
X-32955700Y-3356868D01*
X-33124671Y-3336720D01*
X-33131674Y-3337456D01*
X-33131675Y-3337456D01*
X-33286899Y-3353770D01*
X-33286903Y-3353771D01*
X-33293907Y-3354507D01*
X-33300578Y-3356778D01*
X-33448327Y-3407075D01*
X-33448330Y-3407076D01*
X-33454997Y-3409346D01*
X-33460995Y-3413036D01*
X-33460997Y-3413037D01*
X-33593935Y-3494821D01*
X-33593937Y-3494823D01*
X-33599934Y-3498512D01*
X-33721514Y-3617573D01*
X-33725325Y-3623487D01*
X-33725327Y-3623489D01*
X-33789369Y-3722862D01*
X-33843084Y-3769286D01*
X-33913371Y-3779301D01*
X-33977914Y-3749725D01*
X-34002132Y-3721379D01*
X-34061808Y-3625879D01*
X-34181714Y-3505132D01*
X-34197961Y-3494821D01*
X-34236594Y-3470304D01*
X-34325392Y-3413951D01*
X-34485700Y-3356868D01*
X-34654671Y-3336720D01*
X-34661674Y-3337456D01*
X-34661675Y-3337456D01*
X-34816899Y-3353770D01*
X-34816903Y-3353771D01*
X-34823907Y-3354507D01*
X-34830578Y-3356778D01*
X-34978327Y-3407075D01*
X-34978330Y-3407076D01*
X-34984997Y-3409346D01*
X-34990995Y-3413036D01*
X-34990997Y-3413037D01*
X-35123935Y-3494821D01*
X-35123937Y-3494823D01*
X-35129934Y-3498512D01*
X-35251514Y-3617573D01*
X-35255325Y-3623487D01*
X-35255327Y-3623489D01*
X-35296288Y-3687048D01*
X-35343696Y-3760610D01*
X-35350499Y-3779301D01*
X-35387749Y-3881646D01*
X-35401897Y-3920516D01*
X-35423225Y-4089343D01*
X-35406619Y-4258699D01*
X-35404395Y-4265384D01*
X-35404395Y-4265385D01*
X-35402361Y-4271499D01*
X-35352906Y-4420167D01*
X-35349259Y-4426189D01*
X-35349258Y-4426191D01*
X-35293635Y-4518036D01*
X-35275481Y-4579094D01*
X-35274251Y-4615857D01*
X-35274189Y-4618676D01*
X-35273602Y-4671728D01*
X-35273594Y-4672906D01*
X-35273515Y-4729045D01*
X-35270533Y-4783590D01*
X-35269692Y-4786875D01*
X-35268500Y-4802461D01*
X-35268500Y-6285761D01*
X-35288502Y-6353882D01*
X-35305405Y-6374856D01*
X-36515144Y-7584595D01*
X-36577456Y-7618621D01*
X-36604239Y-7621500D01*
X-36907320Y-7621500D01*
X-36925428Y-7620192D01*
X-36950954Y-7616485D01*
X-37007073Y-7616406D01*
X-37008204Y-7616398D01*
X-37061332Y-7615811D01*
X-37064136Y-7615749D01*
X-37099164Y-7614578D01*
X-37154403Y-7599741D01*
X-37169935Y-7591429D01*
X-37177981Y-7586732D01*
X-37245392Y-7543951D01*
X-37405700Y-7486868D01*
X-37574671Y-7466720D01*
X-37581674Y-7467456D01*
X-37581675Y-7467456D01*
X-37736899Y-7483770D01*
X-37736903Y-7483771D01*
X-37743907Y-7484507D01*
X-37750578Y-7486778D01*
X-37898327Y-7537075D01*
X-37898330Y-7537076D01*
X-37904997Y-7539346D01*
X-37910995Y-7543036D01*
X-37910997Y-7543037D01*
X-38043935Y-7624821D01*
X-38043937Y-7624823D01*
X-38049934Y-7628512D01*
X-38054967Y-7633441D01*
X-38163905Y-7740122D01*
X-38171514Y-7747573D01*
X-38175325Y-7753487D01*
X-38175327Y-7753489D01*
X-38187925Y-7773037D01*
X-38263696Y-7890610D01*
X-38321897Y-8050516D01*
X-38343225Y-8219343D01*
X-38326619Y-8388699D01*
X-38324395Y-8395384D01*
X-38324395Y-8395385D01*
X-38321942Y-8402760D01*
X-38272906Y-8550167D01*
X-38269259Y-8556189D01*
X-38269258Y-8556191D01*
X-38199053Y-8672112D01*
X-38184754Y-8695723D01*
X-38066545Y-8818132D01*
X-37957743Y-8889330D01*
X-37941691Y-8899834D01*
X-37895642Y-8953871D01*
X-37886119Y-9024226D01*
X-37916143Y-9088561D01*
X-37944661Y-9112583D01*
X-37988932Y-9139819D01*
X-37988935Y-9139822D01*
X-37994934Y-9143512D01*
X-38009323Y-9157603D01*
X-38101570Y-9247939D01*
X-38116514Y-9262573D01*
X-38120325Y-9268487D01*
X-38120327Y-9268489D01*
X-38202469Y-9395947D01*
X-38208696Y-9405610D01*
X-38266897Y-9565516D01*
X-38288225Y-9734343D01*
X-38271619Y-9903699D01*
X-38269395Y-9910384D01*
X-38269395Y-9910385D01*
X-38255329Y-9952670D01*
X-38217906Y-10065167D01*
X-38214259Y-10071189D01*
X-38214258Y-10071191D01*
X-38145526Y-10184680D01*
X-38129754Y-10210723D01*
X-38073230Y-10269255D01*
X-38016117Y-10328398D01*
X-37983185Y-10391295D01*
X-37989485Y-10462011D01*
X-38033017Y-10518096D01*
X-38040726Y-10523239D01*
X-38089934Y-10553512D01*
X-38145499Y-10607926D01*
X-38203956Y-10665172D01*
X-38211514Y-10672573D01*
X-38215325Y-10678487D01*
X-38215327Y-10678489D01*
X-38297001Y-10805221D01*
X-38303696Y-10815610D01*
X-38361897Y-10975516D01*
X-38383225Y-11144343D01*
X-44074816Y-11144343D01*
X-44094569Y-11065702D01*
X-44183646Y-10860840D01*
X-44270719Y-10726245D01*
X-44302178Y-10677617D01*
X-44302180Y-10677614D01*
X-44304986Y-10673277D01*
X-44455330Y-10508051D01*
X-44459381Y-10504852D01*
X-44459385Y-10504848D01*
X-44626586Y-10372800D01*
X-44626590Y-10372798D01*
X-44630641Y-10369598D01*
X-44671947Y-10346796D01*
X-44721916Y-10296364D01*
X-44736688Y-10226921D01*
X-44711572Y-10160516D01*
X-44684220Y-10133909D01*
X-44610930Y-10081632D01*
X-44505140Y-10006173D01*
X-44496169Y-9997234D01*
X-44350565Y-9852137D01*
X-44346904Y-9848489D01*
X-44216547Y-9667077D01*
X-44208732Y-9651266D01*
X-44119864Y-9471453D01*
X-44119863Y-9471451D01*
X-44117570Y-9466811D01*
X-44061280Y-9281540D01*
X-44054135Y-9258023D01*
X-44054135Y-9258021D01*
X-44052630Y-9253069D01*
X-44023471Y-9031590D01*
X-44022687Y-8999507D01*
X-44021926Y-8968365D01*
X-44021926Y-8968361D01*
X-44021844Y-8965000D01*
X-44040148Y-8742361D01*
X-44094569Y-8525702D01*
X-44183646Y-8320840D01*
X-44234931Y-8241566D01*
X-44302178Y-8137617D01*
X-44302180Y-8137614D01*
X-44304986Y-8133277D01*
X-44455330Y-7968051D01*
X-44459381Y-7964852D01*
X-44459385Y-7964848D01*
X-44626586Y-7832800D01*
X-44626590Y-7832798D01*
X-44630641Y-7829598D01*
X-44671947Y-7806796D01*
X-44721916Y-7756364D01*
X-44736688Y-7686921D01*
X-44711572Y-7620516D01*
X-44684220Y-7593909D01*
X-44619475Y-7547727D01*
X-44505140Y-7466173D01*
X-44482081Y-7443195D01*
X-44405610Y-7366990D01*
X-44346904Y-7308489D01*
X-44311368Y-7259036D01*
X-44219565Y-7131277D01*
X-44216547Y-7127077D01*
X-44199930Y-7093456D01*
X-44119864Y-6931453D01*
X-44119863Y-6931451D01*
X-44117570Y-6926811D01*
X-44072848Y-6779614D01*
X-44054135Y-6718023D01*
X-44054135Y-6718021D01*
X-44052630Y-6713069D01*
X-44023471Y-6491590D01*
X-44023319Y-6485379D01*
X-44021926Y-6428365D01*
X-44021926Y-6428361D01*
X-44021844Y-6425000D01*
X-44040148Y-6202361D01*
X-44094569Y-5985702D01*
X-44183646Y-5780840D01*
X-44251004Y-5676720D01*
X-44302178Y-5597617D01*
X-44302180Y-5597614D01*
X-44304986Y-5593277D01*
X-44455330Y-5428051D01*
X-44459381Y-5424852D01*
X-44459385Y-5424848D01*
X-44626586Y-5292800D01*
X-44626590Y-5292798D01*
X-44630641Y-5289598D01*
X-44671947Y-5266796D01*
X-44721916Y-5216364D01*
X-44736688Y-5146921D01*
X-44711572Y-5080516D01*
X-44684220Y-5053909D01*
X-44549358Y-4957713D01*
X-44505140Y-4926173D01*
X-44346904Y-4768489D01*
X-44343371Y-4763573D01*
X-44219565Y-4591277D01*
X-44216547Y-4587077D01*
X-44212601Y-4579094D01*
X-44119864Y-4391453D01*
X-44119863Y-4391451D01*
X-44117570Y-4386811D01*
X-44076517Y-4251690D01*
X-44054135Y-4178023D01*
X-44054135Y-4178021D01*
X-44052630Y-4173069D01*
X-44023471Y-3951590D01*
X-44023389Y-3948240D01*
X-44021926Y-3888365D01*
X-44021926Y-3888361D01*
X-44021844Y-3885000D01*
X-44040148Y-3662361D01*
X-44094569Y-3445702D01*
X-44183646Y-3240840D01*
X-44304986Y-3053277D01*
X-44455330Y-2888051D01*
X-44459381Y-2884852D01*
X-44459385Y-2884848D01*
X-44626586Y-2752800D01*
X-44626590Y-2752798D01*
X-44630641Y-2749598D01*
X-44672431Y-2726529D01*
X-44688809Y-2710000D01*
X-40503474Y-2710000D01*
X-40483609Y-2962403D01*
X-40482455Y-2967210D01*
X-40482454Y-2967216D01*
X-40444821Y-3123968D01*
X-40424505Y-3208591D01*
X-40422612Y-3213162D01*
X-40422611Y-3213164D01*
X-40338148Y-3417075D01*
X-40327616Y-3442502D01*
X-40195328Y-3658376D01*
X-40030898Y-3850898D01*
X-39838376Y-4015328D01*
X-39622502Y-4147616D01*
X-39617932Y-4149509D01*
X-39617928Y-4149511D01*
X-39393164Y-4242611D01*
X-39388591Y-4244505D01*
X-39333525Y-4257725D01*
X-39147216Y-4302454D01*
X-39147210Y-4302455D01*
X-39142403Y-4303609D01*
X-38890000Y-4323474D01*
X-38637597Y-4303609D01*
X-38632790Y-4302455D01*
X-38632784Y-4302454D01*
X-38446475Y-4257725D01*
X-38391409Y-4244505D01*
X-38386836Y-4242611D01*
X-38162072Y-4149511D01*
X-38162068Y-4149509D01*
X-38157498Y-4147616D01*
X-37941624Y-4015328D01*
X-37749102Y-3850898D01*
X-37584672Y-3658376D01*
X-37452384Y-3442502D01*
X-37441851Y-3417075D01*
X-37357389Y-3213164D01*
X-37357388Y-3213162D01*
X-37355495Y-3208591D01*
X-37335179Y-3123968D01*
X-37297546Y-2967216D01*
X-37297545Y-2967210D01*
X-37296391Y-2962403D01*
X-37276526Y-2710000D01*
X-2413474Y-2710000D01*
X-2393609Y-2962403D01*
X-2392455Y-2967210D01*
X-2392454Y-2967216D01*
X-2354821Y-3123968D01*
X-2334505Y-3208591D01*
X-2332612Y-3213162D01*
X-2332611Y-3213164D01*
X-2248148Y-3417075D01*
X-2237616Y-3442502D01*
X-2105328Y-3658376D01*
X-1940898Y-3850898D01*
X-1748376Y-4015328D01*
X-1532502Y-4147616D01*
X-1527932Y-4149509D01*
X-1527928Y-4149511D01*
X-1303164Y-4242611D01*
X-1298591Y-4244505D01*
X-1243525Y-4257725D01*
X-1057216Y-4302454D01*
X-1057210Y-4302455D01*
X-1052403Y-4303609D01*
X-800000Y-4323474D01*
X-547597Y-4303609D01*
X-542790Y-4302455D01*
X-542784Y-4302454D01*
X-356475Y-4257725D01*
X-301409Y-4244505D01*
X-296836Y-4242611D01*
X-72072Y-4149511D01*
X-72068Y-4149509D01*
X-67498Y-4147616D01*
X148376Y-4015328D01*
X340898Y-3850898D01*
X505328Y-3658376D01*
X637616Y-3442502D01*
X648149Y-3417075D01*
X732611Y-3213164D01*
X732612Y-3213162D01*
X734505Y-3208591D01*
X754821Y-3123968D01*
X792454Y-2967216D01*
X792455Y-2967210D01*
X793609Y-2962403D01*
X813474Y-2710000D01*
X793609Y-2457597D01*
X775494Y-2382139D01*
X735660Y-2216221D01*
X734505Y-2211409D01*
X718908Y-2173755D01*
X639511Y-1982072D01*
X639509Y-1982068D01*
X637616Y-1977498D01*
X505328Y-1761624D01*
X340898Y-1569102D01*
X148376Y-1404672D01*
X-67498Y-1272384D01*
X-72068Y-1270491D01*
X-72072Y-1270489D01*
X-296836Y-1177389D01*
X-296838Y-1177388D01*
X-301409Y-1175495D01*
X-386032Y-1155179D01*
X-542784Y-1117546D01*
X-542790Y-1117545D01*
X-547597Y-1116391D01*
X-800000Y-1096526D01*
X-1052403Y-1116391D01*
X-1057210Y-1117545D01*
X-1057216Y-1117546D01*
X-1213968Y-1155179D01*
X-1298591Y-1175495D01*
X-1303162Y-1177388D01*
X-1303164Y-1177389D01*
X-1527928Y-1270489D01*
X-1527932Y-1270491D01*
X-1532502Y-1272384D01*
X-1748376Y-1404672D01*
X-1940898Y-1569102D01*
X-2105328Y-1761624D01*
X-2237616Y-1977498D01*
X-2239509Y-1982068D01*
X-2239511Y-1982072D01*
X-2318908Y-2173755D01*
X-2334505Y-2211409D01*
X-2335660Y-2216221D01*
X-2375493Y-2382139D01*
X-2393609Y-2457597D01*
X-2413474Y-2710000D01*
X-37276526Y-2710000D01*
X-37296391Y-2457597D01*
X-37314506Y-2382139D01*
X-37354340Y-2216221D01*
X-37355495Y-2211409D01*
X-37371092Y-2173755D01*
X-37450489Y-1982072D01*
X-37450491Y-1982068D01*
X-37452384Y-1977498D01*
X-37584672Y-1761624D01*
X-37749102Y-1569102D01*
X-37941624Y-1404672D01*
X-38157498Y-1272384D01*
X-38162068Y-1270491D01*
X-38162072Y-1270489D01*
X-38386836Y-1177389D01*
X-38386838Y-1177388D01*
X-38391409Y-1175495D01*
X-38476032Y-1155179D01*
X-38632784Y-1117546D01*
X-38632790Y-1117545D01*
X-38637597Y-1116391D01*
X-38890000Y-1096526D01*
X-39142403Y-1116391D01*
X-39147210Y-1117545D01*
X-39147216Y-1117546D01*
X-39303968Y-1155179D01*
X-39388591Y-1175495D01*
X-39393162Y-1177388D01*
X-39393164Y-1177389D01*
X-39617928Y-1270489D01*
X-39617932Y-1270491D01*
X-39622502Y-1272384D01*
X-39838376Y-1404672D01*
X-40030898Y-1569102D01*
X-40195328Y-1761624D01*
X-40327616Y-1977498D01*
X-40329509Y-1982068D01*
X-40329511Y-1982072D01*
X-40408908Y-2173755D01*
X-40424505Y-2211409D01*
X-40425660Y-2216221D01*
X-40465493Y-2382139D01*
X-40483609Y-2457597D01*
X-40503474Y-2710000D01*
X-44688809Y-2710000D01*
X-44722402Y-2676097D01*
X-44737174Y-2606654D01*
X-44712058Y-2540248D01*
X-44684706Y-2513641D01*
X-44509672Y-2388792D01*
X-44501800Y-2382139D01*
X-44350948Y-2231812D01*
X-44344270Y-2223965D01*
X-44219997Y-2051020D01*
X-44214687Y-2042183D01*
X-44120330Y-1851267D01*
X-44116531Y-1841672D01*
X-44054623Y-1637910D01*
X-44052445Y-1627837D01*
X-44051014Y-1616962D01*
X-44053225Y-1602778D01*
X-44066383Y-1599000D01*
X-45513000Y-1599000D01*
X-45581121Y-1578998D01*
X-45627614Y-1525342D01*
X-45639000Y-1473000D01*
X-45639000Y-1217000D01*
X-45618998Y-1148879D01*
X-45565342Y-1102386D01*
X-45513000Y-1091000D01*
X-44066656Y-1091000D01*
X-44053125Y-1087027D01*
X-44051820Y-1077947D01*
X-44093786Y-910875D01*
X-44097106Y-901124D01*
X-44182024Y-705823D01*
X-44188341Y-694043D01*
X-44202904Y-624556D01*
X-44177588Y-558226D01*
X-44120431Y-516113D01*
X-44077297Y-508500D01*
X-58702Y-508500D01*
X-35672Y-510623D01*
G37*
%TD.AperFunction*%
%TA.AperFunction,Conductor*%
G36*
X-18095829Y-5438502D02*
G01*
X-18049336Y-5492158D01*
X-18039232Y-5562432D01*
X-18068726Y-5627012D01*
X-18074855Y-5633595D01*
X-20657605Y-8216345D01*
X-20666385Y-8224335D01*
X-20666387Y-8224337D01*
X-20673080Y-8228584D01*
X-20678506Y-8234362D01*
X-20678507Y-8234363D01*
X-20721604Y-8280257D01*
X-20724359Y-8283099D01*
X-20744927Y-8303667D01*
X-20747644Y-8307170D01*
X-20755352Y-8316195D01*
X-20786972Y-8349867D01*
X-20790793Y-8356818D01*
X-20790794Y-8356819D01*
X-20797303Y-8368658D01*
X-20808157Y-8385182D01*
X-20815982Y-8395271D01*
X-20821304Y-8402132D01*
X-20824451Y-8409404D01*
X-20824452Y-8409406D01*
X-20839654Y-8444535D01*
X-20844876Y-8455195D01*
X-20867124Y-8495663D01*
X-20872459Y-8516441D01*
X-20878858Y-8535131D01*
X-20887380Y-8554824D01*
X-20893953Y-8596328D01*
X-20894606Y-8600448D01*
X-20897013Y-8612071D01*
X-20900072Y-8623986D01*
X-20908500Y-8656812D01*
X-20908500Y-8678259D01*
X-20910051Y-8697969D01*
X-20913406Y-8719152D01*
X-20911686Y-8737342D01*
X-20909059Y-8765138D01*
X-20908500Y-8776996D01*
X-20908500Y-10274819D01*
X-20928502Y-10342940D01*
X-20982158Y-10389433D01*
X-21052432Y-10399537D01*
X-21117012Y-10370043D01*
X-21154333Y-10313755D01*
X-21199359Y-10175178D01*
X-21201401Y-10168893D01*
X-21262589Y-10062911D01*
X-21285079Y-10023958D01*
X-21287257Y-10019870D01*
X-21288218Y-10018216D01*
X-21290200Y-10014166D01*
X-21292734Y-10010445D01*
X-21292738Y-10010438D01*
X-21297708Y-10003139D01*
X-21318796Y-9946084D01*
X-21321410Y-9922460D01*
X-21321970Y-9915771D01*
X-21324509Y-9871082D01*
X-21324679Y-9866799D01*
X-21326126Y-9803153D01*
X-21326158Y-9800899D01*
X-21326555Y-9718876D01*
X-21326556Y-9718194D01*
X-21326508Y-9633678D01*
X-21326507Y-9631999D01*
X-21326744Y-9627531D01*
X-21329105Y-9583141D01*
X-21329105Y-9583139D01*
X-21329434Y-9576958D01*
X-21330316Y-9573498D01*
X-21331500Y-9557889D01*
X-21331500Y-8641847D01*
X-21330228Y-8623986D01*
X-21327144Y-8602449D01*
X-21326507Y-8598001D01*
X-21326556Y-8511688D01*
X-21326555Y-8511125D01*
X-21326159Y-8429191D01*
X-21326127Y-8426938D01*
X-21324679Y-8363203D01*
X-21324509Y-8358918D01*
X-21323666Y-8344087D01*
X-21321969Y-8314218D01*
X-21321410Y-8307539D01*
X-21318796Y-8283915D01*
X-21297708Y-8226860D01*
X-21292153Y-8218702D01*
X-21290203Y-8215839D01*
X-21285277Y-8206547D01*
X-21283074Y-8202568D01*
X-21204705Y-8066830D01*
X-21204704Y-8066829D01*
X-21201401Y-8061107D01*
X-21170125Y-7964848D01*
X-21147675Y-7895754D01*
X-21147675Y-7895753D01*
X-21145635Y-7889475D01*
X-21139341Y-7829598D01*
X-21127461Y-7716565D01*
X-21126771Y-7710000D01*
X-21136210Y-7620192D01*
X-21144945Y-7537089D01*
X-21144945Y-7537088D01*
X-21145635Y-7530525D01*
X-21156007Y-7498602D01*
X-21199360Y-7365174D01*
X-21199361Y-7365172D01*
X-21201401Y-7358893D01*
X-21202704Y-7356636D01*
X-21211945Y-7287741D01*
X-21181841Y-7223442D01*
X-21176498Y-7217758D01*
X-19414145Y-5455405D01*
X-19351833Y-5421379D01*
X-19325050Y-5418500D01*
X-18163950Y-5418500D01*
X-18095829Y-5438502D01*
G37*
%TD.AperFunction*%
%TD*%
M02*
