%TF.GenerationSoftware,KiCad,Pcbnew,8.0.6*%
%TF.CreationDate,2024-11-25T15:40:36+08:00*%
%TF.ProjectId,UINIO-Logic-24MHz,55494e49-4f2d-44c6-9f67-69632d32344d,Version 5.0.0*%
%TF.SameCoordinates,PX78f6cc0PY58928f8*%
%TF.FileFunction,Legend,Bot*%
%TF.FilePolarity,Positive*%
%FSLAX46Y46*%
G04 Gerber Fmt 4.6, Leading zero omitted, Abs format (unit mm)*
G04 Created by KiCad (PCBNEW 8.0.6) date 2024-11-25 15:40:36*
%MOMM*%
%LPD*%
G01*
G04 APERTURE LIST*
%ADD10C,0.200000*%
%ADD11C,0.325000*%
%ADD12C,0.300000*%
%ADD13C,0.100000*%
%ADD14C,2.200000*%
%ADD15C,0.650000*%
%ADD16O,2.100000X1.000000*%
%ADD17O,1.900000X1.000000*%
%ADD18O,1.700000X1.700000*%
G04 APERTURE END LIST*
D10*
G36*
X43936387Y-18549898D02*
G01*
X43877169Y-18544704D01*
X43819955Y-18540021D01*
X43764746Y-18535848D01*
X43711543Y-18532187D01*
X43660344Y-18529036D01*
X43611150Y-18526397D01*
X43548678Y-18523672D01*
X43489769Y-18521855D01*
X43434425Y-18520947D01*
X43408090Y-18520833D01*
X43357752Y-18523186D01*
X43305601Y-18531878D01*
X43254673Y-18549655D01*
X43212995Y-18575796D01*
X43199751Y-18587756D01*
X43167401Y-18631391D01*
X43147533Y-18680007D01*
X43137011Y-18730134D01*
X43132894Y-18787344D01*
X43132828Y-18796095D01*
X43132828Y-19246235D01*
X43135258Y-19299961D01*
X43144236Y-19355371D01*
X43159829Y-19402951D01*
X43185749Y-19447739D01*
X43201949Y-19466297D01*
X43241715Y-19496538D01*
X43291647Y-19518138D01*
X43343678Y-19529951D01*
X43394471Y-19534811D01*
X43422012Y-19535418D01*
X43936387Y-19535418D01*
X43936387Y-19322927D01*
X43478432Y-19322927D01*
X43428777Y-19310270D01*
X43403612Y-19268329D01*
X43401740Y-19246235D01*
X43401740Y-18796095D01*
X43418348Y-18750177D01*
X43463045Y-18733569D01*
X43513202Y-18734053D01*
X43526059Y-18734302D01*
X43575689Y-18735540D01*
X43599088Y-18736256D01*
X43649202Y-18738179D01*
X43675536Y-18739187D01*
X43726137Y-18741685D01*
X43775431Y-18744804D01*
X43826802Y-18748193D01*
X43877850Y-18751437D01*
X43930197Y-18754683D01*
X43936387Y-18755062D01*
X43936387Y-18549898D01*
G37*
G36*
X44902368Y-18535000D02*
G01*
X44633456Y-18535000D01*
X44633456Y-18936046D01*
X44297378Y-18936046D01*
X44297378Y-18535000D01*
X44028711Y-18535000D01*
X44028711Y-19535418D01*
X44297378Y-19535418D01*
X44297378Y-19148538D01*
X44633456Y-19148538D01*
X44633456Y-19535418D01*
X44902368Y-19535418D01*
X44902368Y-18535000D01*
G37*
G36*
X45198146Y-18535000D02*
G01*
X45198146Y-19298503D01*
X45039877Y-19243548D01*
X44963673Y-19419159D01*
X45232584Y-19535418D01*
X45467057Y-19535418D01*
X45467057Y-18535000D01*
X45198146Y-18535000D01*
G37*
G36*
X43880700Y-5864898D02*
G01*
X43821482Y-5859704D01*
X43764268Y-5855021D01*
X43709059Y-5850848D01*
X43655856Y-5847187D01*
X43604657Y-5844036D01*
X43555463Y-5841397D01*
X43492991Y-5838672D01*
X43434082Y-5836855D01*
X43378738Y-5835947D01*
X43352403Y-5835833D01*
X43302065Y-5838186D01*
X43249914Y-5846878D01*
X43198986Y-5864655D01*
X43157308Y-5890796D01*
X43144064Y-5902756D01*
X43111714Y-5946391D01*
X43091846Y-5995007D01*
X43081324Y-6045134D01*
X43077207Y-6102344D01*
X43077141Y-6111095D01*
X43077141Y-6561235D01*
X43079571Y-6614961D01*
X43088549Y-6670371D01*
X43104142Y-6717951D01*
X43130062Y-6762739D01*
X43146262Y-6781297D01*
X43186028Y-6811538D01*
X43235960Y-6833138D01*
X43287991Y-6844951D01*
X43338784Y-6849811D01*
X43366325Y-6850418D01*
X43880700Y-6850418D01*
X43880700Y-6637927D01*
X43422745Y-6637927D01*
X43373090Y-6625270D01*
X43347925Y-6583329D01*
X43346053Y-6561235D01*
X43346053Y-6111095D01*
X43362661Y-6065177D01*
X43407358Y-6048569D01*
X43457515Y-6049053D01*
X43470372Y-6049302D01*
X43520002Y-6050540D01*
X43543401Y-6051256D01*
X43593515Y-6053179D01*
X43619849Y-6054187D01*
X43670450Y-6056685D01*
X43719744Y-6059804D01*
X43771115Y-6063193D01*
X43822163Y-6066437D01*
X43874510Y-6069683D01*
X43880700Y-6070062D01*
X43880700Y-5864898D01*
G37*
G36*
X44846681Y-5850000D02*
G01*
X44577769Y-5850000D01*
X44577769Y-6251046D01*
X44241691Y-6251046D01*
X44241691Y-5850000D01*
X43973024Y-5850000D01*
X43973024Y-6850418D01*
X44241691Y-6850418D01*
X44241691Y-6463538D01*
X44577769Y-6463538D01*
X44577769Y-6850418D01*
X44846681Y-6850418D01*
X44846681Y-5850000D01*
G37*
G36*
X45517818Y-5835897D02*
G01*
X45575013Y-5839879D01*
X45625102Y-5850055D01*
X45673645Y-5869270D01*
X45717162Y-5900558D01*
X45721295Y-5904683D01*
X45752582Y-5947651D01*
X45771473Y-5994668D01*
X45781115Y-6042619D01*
X45784329Y-6096929D01*
X45784329Y-6279867D01*
X45783801Y-6298071D01*
X45775880Y-6348560D01*
X45755930Y-6397409D01*
X45724245Y-6438625D01*
X45712640Y-6449362D01*
X45669058Y-6477527D01*
X45617939Y-6493956D01*
X45565487Y-6498709D01*
X45466813Y-6498709D01*
X45447225Y-6498477D01*
X45392870Y-6495592D01*
X45342779Y-6490362D01*
X45290328Y-6482609D01*
X45235515Y-6472330D01*
X45235515Y-6589323D01*
X45236202Y-6600497D01*
X45263069Y-6641530D01*
X45313673Y-6651849D01*
X45316643Y-6651846D01*
X45366499Y-6651091D01*
X45417232Y-6649162D01*
X45436249Y-6647571D01*
X45485376Y-6644033D01*
X45524760Y-6641652D01*
X45574036Y-6638415D01*
X45611002Y-6636159D01*
X45663483Y-6633137D01*
X45713987Y-6630355D01*
X45713987Y-6835519D01*
X45679456Y-6839039D01*
X45628916Y-6843893D01*
X45579883Y-6848235D01*
X45516849Y-6853231D01*
X45456494Y-6857318D01*
X45398818Y-6860497D01*
X45343822Y-6862768D01*
X45291504Y-6864130D01*
X45241866Y-6864584D01*
X45233115Y-6864519D01*
X45175905Y-6860386D01*
X45125778Y-6849826D01*
X45077162Y-6829886D01*
X45033527Y-6797418D01*
X45021567Y-6784217D01*
X44995425Y-6742635D01*
X44977649Y-6691771D01*
X44968957Y-6639652D01*
X44966604Y-6589323D01*
X44966604Y-6125017D01*
X45235515Y-6125017D01*
X45235515Y-6272784D01*
X45250370Y-6274492D01*
X45299507Y-6280600D01*
X45345852Y-6284813D01*
X45396471Y-6286217D01*
X45473896Y-6286217D01*
X45503694Y-6274249D01*
X45515418Y-6244696D01*
X45515418Y-6125017D01*
X45514219Y-6107099D01*
X45488381Y-6061186D01*
X45438725Y-6048569D01*
X45312208Y-6048569D01*
X45290114Y-6050435D01*
X45248173Y-6075520D01*
X45235515Y-6125017D01*
X44966604Y-6125017D01*
X44966604Y-6096929D01*
X44969806Y-6042619D01*
X44981309Y-5988336D01*
X45001176Y-5942358D01*
X45033527Y-5900558D01*
X45042211Y-5892720D01*
X45088449Y-5863708D01*
X45139377Y-5846515D01*
X45191528Y-5838109D01*
X45241866Y-5835833D01*
X45509067Y-5835833D01*
X45517818Y-5835897D01*
G37*
D11*
G36*
X15409214Y-6578300D02*
G01*
X15767885Y-7612180D01*
X16179312Y-7612180D01*
X15620240Y-6135000D01*
X15198189Y-6135000D01*
X14638750Y-7612180D01*
X15050544Y-7612180D01*
X15409214Y-6578300D01*
G37*
G36*
X16529897Y-6113916D02*
G01*
X16615145Y-6115244D01*
X16702752Y-6117901D01*
X16792718Y-6121885D01*
X16885041Y-6127197D01*
X16979724Y-6133837D01*
X17076764Y-6141806D01*
X17151093Y-6148654D01*
X17226748Y-6156249D01*
X17226748Y-6420031D01*
X17129031Y-6412561D01*
X17037383Y-6406086D01*
X16951803Y-6400608D01*
X16872290Y-6396126D01*
X16781433Y-6391924D01*
X16700056Y-6389278D01*
X16614919Y-6388157D01*
X16562163Y-6409040D01*
X16540914Y-6462163D01*
X16540914Y-6546427D01*
X17269246Y-6546427D01*
X17269246Y-6936971D01*
X17268457Y-6966041D01*
X17256623Y-7045987D01*
X17226821Y-7122036D01*
X17179487Y-7184633D01*
X17149764Y-7210492D01*
X17080284Y-7249060D01*
X17006311Y-7268782D01*
X16931458Y-7274392D01*
X16509406Y-7274392D01*
X16470909Y-7272990D01*
X16392119Y-7259579D01*
X16324168Y-7231967D01*
X16261378Y-7184633D01*
X16235519Y-7155016D01*
X16196951Y-7085693D01*
X16177228Y-7011801D01*
X16171618Y-6936971D01*
X16171618Y-6926346D01*
X16540914Y-6926346D01*
X16557112Y-6983949D01*
X16625544Y-7010610D01*
X16815321Y-7010610D01*
X16870115Y-6996703D01*
X16899951Y-6926346D01*
X16899951Y-6810209D01*
X16540914Y-6810209D01*
X16540914Y-6926346D01*
X16171618Y-6926346D01*
X16171618Y-6430289D01*
X16172378Y-6403926D01*
X16183777Y-6330787D01*
X16212485Y-6259990D01*
X16258080Y-6200212D01*
X16274857Y-6184761D01*
X16337940Y-6144232D01*
X16412043Y-6120590D01*
X16488157Y-6113750D01*
X16529897Y-6113916D01*
G37*
G36*
X18095397Y-6947595D02*
G01*
X18019924Y-6942582D01*
X17943117Y-6927541D01*
X17864977Y-6902474D01*
X17820990Y-6884214D01*
X17820990Y-6135000D01*
X17451695Y-6135000D01*
X17451695Y-7253510D01*
X17778859Y-7253510D01*
X17799741Y-7116123D01*
X17868465Y-7169910D01*
X17938347Y-7212568D01*
X18009389Y-7244099D01*
X18081590Y-7264501D01*
X18154950Y-7273774D01*
X18179661Y-7274392D01*
X18274549Y-7274392D01*
X18274549Y-6947595D01*
X18095397Y-6947595D01*
G37*
G36*
X18375300Y-6430289D02*
G01*
X18454008Y-6424658D01*
X18529529Y-6419582D01*
X18625264Y-6413674D01*
X18715333Y-6408751D01*
X18799734Y-6404812D01*
X18878468Y-6401859D01*
X18968916Y-6399551D01*
X19050509Y-6398782D01*
X19103265Y-6419665D01*
X19124515Y-6472787D01*
X19124515Y-6546427D01*
X18670589Y-6546427D01*
X18594475Y-6553266D01*
X18520372Y-6576908D01*
X18457289Y-6617437D01*
X18440512Y-6632889D01*
X18394917Y-6692666D01*
X18366209Y-6763463D01*
X18354810Y-6836602D01*
X18354050Y-6862965D01*
X18354050Y-6936971D01*
X18360890Y-7013056D01*
X18384532Y-7087059D01*
X18425061Y-7149971D01*
X18440512Y-7166681D01*
X18500290Y-7212470D01*
X18571087Y-7241299D01*
X18644226Y-7252746D01*
X18670589Y-7253510D01*
X19388297Y-7253510D01*
X19388297Y-6979103D01*
X18797351Y-6979103D01*
X18744228Y-6957854D01*
X18723346Y-6905097D01*
X18744228Y-6852341D01*
X18797351Y-6831458D01*
X19177271Y-6831458D01*
X19253356Y-6824590D01*
X19327359Y-6800848D01*
X19390271Y-6760147D01*
X19406981Y-6744630D01*
X19452770Y-6685045D01*
X19481599Y-6614370D01*
X19493047Y-6541279D01*
X19493810Y-6514919D01*
X19493810Y-6430289D01*
X19486941Y-6354175D01*
X19463199Y-6280072D01*
X19422499Y-6216989D01*
X19406981Y-6200212D01*
X19347397Y-6154617D01*
X19276722Y-6125909D01*
X19203631Y-6114510D01*
X19177271Y-6113750D01*
X19082995Y-6114414D01*
X18987013Y-6116407D01*
X18889326Y-6119727D01*
X18814941Y-6123088D01*
X18739596Y-6127197D01*
X18663292Y-6132053D01*
X18586028Y-6137656D01*
X18507804Y-6144005D01*
X18428621Y-6151102D01*
X18375300Y-6156249D01*
X18375300Y-6430289D01*
G37*
G36*
X20078893Y-7211378D02*
G01*
X20078893Y-6135000D01*
X19709598Y-6135000D01*
X19709598Y-6926346D01*
X19551329Y-6926346D01*
X19551329Y-7211378D01*
X20078893Y-7211378D01*
G37*
G36*
X19709598Y-7633429D02*
G01*
X20078893Y-7633429D01*
X20078893Y-7337773D01*
X19709598Y-7337773D01*
X19709598Y-7633429D01*
G37*
G36*
X21116931Y-6114539D02*
G01*
X21196877Y-6126373D01*
X21272926Y-6156176D01*
X21335523Y-6203510D01*
X21361381Y-6233232D01*
X21399950Y-6302712D01*
X21419672Y-6376685D01*
X21425282Y-6451538D01*
X21425282Y-6936971D01*
X21424493Y-6966041D01*
X21412660Y-7045987D01*
X21382857Y-7122036D01*
X21335523Y-7184633D01*
X21305906Y-7210492D01*
X21236583Y-7249060D01*
X21162691Y-7268782D01*
X21087861Y-7274392D01*
X20602428Y-7274392D01*
X20563931Y-7272990D01*
X20485141Y-7259579D01*
X20417189Y-7231967D01*
X20354399Y-7184633D01*
X20328541Y-7155016D01*
X20289973Y-7085693D01*
X20270250Y-7011801D01*
X20264640Y-6936971D01*
X20264640Y-6483046D01*
X20633935Y-6483046D01*
X20633935Y-6905097D01*
X20650134Y-6962950D01*
X20718565Y-6989727D01*
X20971723Y-6989727D01*
X21029325Y-6973529D01*
X21055987Y-6905097D01*
X21055987Y-6483046D01*
X21042080Y-6428488D01*
X20971723Y-6398782D01*
X20718565Y-6398782D01*
X20663771Y-6412689D01*
X20633935Y-6483046D01*
X20264640Y-6483046D01*
X20264640Y-6451538D01*
X20266043Y-6413041D01*
X20279454Y-6334251D01*
X20307065Y-6266300D01*
X20354399Y-6203510D01*
X20384122Y-6177651D01*
X20453602Y-6139083D01*
X20527575Y-6119360D01*
X20602428Y-6113750D01*
X21087861Y-6113750D01*
X21116931Y-6114539D01*
G37*
G36*
X22230184Y-6968478D02*
G01*
X22149856Y-6963500D01*
X22070744Y-6950334D01*
X21994588Y-6931448D01*
X21977027Y-6926346D01*
X21977027Y-6135000D01*
X21607732Y-6135000D01*
X21607732Y-7253510D01*
X21934895Y-7253510D01*
X21955778Y-7147997D01*
X22024642Y-7188718D01*
X22094718Y-7221214D01*
X22159476Y-7243618D01*
X22233201Y-7262371D01*
X22307623Y-7273310D01*
X22335697Y-7274392D01*
X22430586Y-7274392D01*
X22506848Y-7267553D01*
X22580980Y-7243911D01*
X22643949Y-7203382D01*
X22660662Y-7187930D01*
X22706258Y-7128310D01*
X22734966Y-7057528D01*
X22746364Y-6984279D01*
X22747124Y-6957854D01*
X22747124Y-6135000D01*
X22377829Y-6135000D01*
X22377829Y-6894839D01*
X22356580Y-6947229D01*
X22304190Y-6968478D01*
X22230184Y-6968478D01*
G37*
G36*
X24277062Y-6113750D02*
G01*
X24187766Y-6114414D01*
X24096101Y-6116407D01*
X24002065Y-6119727D01*
X23905660Y-6124375D01*
X23831801Y-6128733D01*
X23756608Y-6133837D01*
X23680083Y-6139689D01*
X23602224Y-6146288D01*
X23523033Y-6153634D01*
X23496339Y-6156249D01*
X23496339Y-6440914D01*
X23581709Y-6435283D01*
X23662925Y-6430206D01*
X23739987Y-6425683D01*
X23836275Y-6420514D01*
X23925178Y-6416329D01*
X24006697Y-6413129D01*
X24080832Y-6410914D01*
X24163115Y-6409529D01*
X24192798Y-6409406D01*
X24264202Y-6432575D01*
X24269734Y-6437616D01*
X24298060Y-6505960D01*
X24298311Y-6514919D01*
X24298311Y-6620432D01*
X24283332Y-6692394D01*
X24220941Y-6740780D01*
X24171549Y-6746828D01*
X23559720Y-6746828D01*
X23559720Y-7612180D01*
X24572718Y-7612180D01*
X24572718Y-7316891D01*
X23939640Y-7316891D01*
X23939640Y-7042484D01*
X24277062Y-7042484D01*
X24350821Y-7039174D01*
X24427106Y-7026944D01*
X24501410Y-7001934D01*
X24568579Y-6959730D01*
X24581144Y-6948328D01*
X24628075Y-6887805D01*
X24659648Y-6811749D01*
X24674817Y-6731103D01*
X24678230Y-6662564D01*
X24678230Y-6514919D01*
X24674817Y-6441160D01*
X24662207Y-6364874D01*
X24636419Y-6290571D01*
X24592901Y-6223402D01*
X24581144Y-6210837D01*
X24517839Y-6163905D01*
X24446970Y-6135083D01*
X24373690Y-6119818D01*
X24289892Y-6113845D01*
X24277062Y-6113750D01*
G37*
G36*
X24776416Y-6451538D02*
G01*
X25156336Y-6451538D01*
X25156336Y-6135000D01*
X24776416Y-6135000D01*
X24776416Y-6451538D01*
G37*
G36*
X26151868Y-6114142D02*
G01*
X26227860Y-6120024D01*
X26305708Y-6135807D01*
X26380423Y-6165609D01*
X26446304Y-6214134D01*
X26464244Y-6234019D01*
X26503457Y-6297434D01*
X26530121Y-6375962D01*
X26543159Y-6457071D01*
X26546688Y-6535802D01*
X26546688Y-7211378D01*
X26546296Y-7238566D01*
X26540414Y-7314463D01*
X26524631Y-7392267D01*
X26494830Y-7467016D01*
X26446304Y-7533046D01*
X26426482Y-7550985D01*
X26363170Y-7590198D01*
X26284653Y-7616862D01*
X26203479Y-7629900D01*
X26124637Y-7633429D01*
X25723468Y-7633429D01*
X25696280Y-7633037D01*
X25620382Y-7627155D01*
X25542579Y-7611372D01*
X25467829Y-7581571D01*
X25401800Y-7533046D01*
X25383860Y-7513161D01*
X25344648Y-7449746D01*
X25317983Y-7371218D01*
X25304945Y-7290109D01*
X25301416Y-7211378D01*
X25301416Y-6535802D01*
X25681336Y-6535802D01*
X25681336Y-7211378D01*
X25687402Y-7260628D01*
X25735928Y-7322838D01*
X25808098Y-7337773D01*
X26040006Y-7337773D01*
X26089399Y-7331725D01*
X26151790Y-7283339D01*
X26166769Y-7211378D01*
X26166769Y-6535802D01*
X26160703Y-6486552D01*
X26112177Y-6424342D01*
X26040006Y-6409406D01*
X25808098Y-6409406D01*
X25758705Y-6415455D01*
X25696315Y-6463840D01*
X25681336Y-6535802D01*
X25301416Y-6535802D01*
X25301808Y-6508614D01*
X25307690Y-6432716D01*
X25323473Y-6354913D01*
X25353275Y-6280163D01*
X25401800Y-6214134D01*
X25421684Y-6196194D01*
X25485100Y-6156982D01*
X25563628Y-6130318D01*
X25644737Y-6117279D01*
X25723468Y-6113750D01*
X26124637Y-6113750D01*
X26151868Y-6114142D01*
G37*
G36*
X26687372Y-6451538D02*
G01*
X27067292Y-6451538D01*
X27067292Y-6135000D01*
X26687372Y-6135000D01*
X26687372Y-6451538D01*
G37*
G36*
X28062824Y-6114142D02*
G01*
X28138816Y-6120024D01*
X28216664Y-6135807D01*
X28291379Y-6165609D01*
X28357260Y-6214134D01*
X28375200Y-6234019D01*
X28414413Y-6297434D01*
X28441077Y-6375962D01*
X28454115Y-6457071D01*
X28457644Y-6535802D01*
X28457644Y-7211378D01*
X28457252Y-7238566D01*
X28451370Y-7314463D01*
X28435587Y-7392267D01*
X28405786Y-7467016D01*
X28357260Y-7533046D01*
X28337438Y-7550985D01*
X28274126Y-7590198D01*
X28195609Y-7616862D01*
X28114435Y-7629900D01*
X28035593Y-7633429D01*
X27634424Y-7633429D01*
X27607236Y-7633037D01*
X27531338Y-7627155D01*
X27453535Y-7611372D01*
X27378785Y-7581571D01*
X27312756Y-7533046D01*
X27294816Y-7513161D01*
X27255604Y-7449746D01*
X27228939Y-7371218D01*
X27215901Y-7290109D01*
X27212372Y-7211378D01*
X27212372Y-6535802D01*
X27592292Y-6535802D01*
X27592292Y-7211378D01*
X27598358Y-7260628D01*
X27646884Y-7322838D01*
X27719054Y-7337773D01*
X27950963Y-7337773D01*
X28000355Y-7331725D01*
X28062746Y-7283339D01*
X28077725Y-7211378D01*
X28077725Y-6535802D01*
X28071659Y-6486552D01*
X28023133Y-6424342D01*
X27950963Y-6409406D01*
X27719054Y-6409406D01*
X27669661Y-6415455D01*
X27607271Y-6463840D01*
X27592292Y-6535802D01*
X27212372Y-6535802D01*
X27212764Y-6508614D01*
X27218646Y-6432716D01*
X27234429Y-6354913D01*
X27264231Y-6280163D01*
X27312756Y-6214134D01*
X27332641Y-6196194D01*
X27396056Y-6156982D01*
X27474584Y-6130318D01*
X27555693Y-6117279D01*
X27634424Y-6113750D01*
X28035593Y-6113750D01*
X28062824Y-6114142D01*
G37*
D10*
G36*
X43824036Y-21084898D02*
G01*
X43764818Y-21079704D01*
X43707604Y-21075021D01*
X43652395Y-21070848D01*
X43599192Y-21067187D01*
X43547993Y-21064036D01*
X43498799Y-21061397D01*
X43436327Y-21058672D01*
X43377418Y-21056855D01*
X43322074Y-21055947D01*
X43295739Y-21055833D01*
X43245401Y-21058186D01*
X43193250Y-21066878D01*
X43142322Y-21084655D01*
X43100644Y-21110796D01*
X43087400Y-21122756D01*
X43055050Y-21166391D01*
X43035182Y-21215007D01*
X43024660Y-21265134D01*
X43020543Y-21322344D01*
X43020477Y-21331095D01*
X43020477Y-21781235D01*
X43022907Y-21834961D01*
X43031885Y-21890371D01*
X43047478Y-21937951D01*
X43073398Y-21982739D01*
X43089598Y-22001297D01*
X43129364Y-22031538D01*
X43179296Y-22053138D01*
X43231327Y-22064951D01*
X43282120Y-22069811D01*
X43309661Y-22070418D01*
X43824036Y-22070418D01*
X43824036Y-21857927D01*
X43366081Y-21857927D01*
X43316426Y-21845270D01*
X43291261Y-21803329D01*
X43289389Y-21781235D01*
X43289389Y-21331095D01*
X43305997Y-21285177D01*
X43350694Y-21268569D01*
X43400851Y-21269053D01*
X43413708Y-21269302D01*
X43463338Y-21270540D01*
X43486737Y-21271256D01*
X43536851Y-21273179D01*
X43563185Y-21274187D01*
X43613786Y-21276685D01*
X43663080Y-21279804D01*
X43714451Y-21283193D01*
X43765499Y-21286437D01*
X43817846Y-21289683D01*
X43824036Y-21290062D01*
X43824036Y-21084898D01*
G37*
G36*
X44790017Y-21070000D02*
G01*
X44521105Y-21070000D01*
X44521105Y-21471046D01*
X44185027Y-21471046D01*
X44185027Y-21070000D01*
X43916360Y-21070000D01*
X43916360Y-22070418D01*
X44185027Y-22070418D01*
X44185027Y-21683538D01*
X44521105Y-21683538D01*
X44521105Y-22070418D01*
X44790017Y-22070418D01*
X44790017Y-21070000D01*
G37*
G36*
X45494152Y-21056441D02*
G01*
X45545002Y-21061301D01*
X45597056Y-21073114D01*
X45646958Y-21094714D01*
X45686632Y-21124954D01*
X45702832Y-21143566D01*
X45728753Y-21188415D01*
X45744345Y-21235998D01*
X45753323Y-21291365D01*
X45755753Y-21345017D01*
X45755753Y-21795401D01*
X45755145Y-21822940D01*
X45750285Y-21873715D01*
X45738473Y-21925704D01*
X45716873Y-21975560D01*
X45686632Y-22015219D01*
X45668074Y-22031477D01*
X45623286Y-22057489D01*
X45575706Y-22073136D01*
X45520296Y-22082146D01*
X45466569Y-22084584D01*
X45199124Y-22084584D01*
X45171583Y-22083975D01*
X45120790Y-22079097D01*
X45068759Y-22067243D01*
X45018827Y-22045566D01*
X44979061Y-22015219D01*
X44962861Y-21996664D01*
X44936940Y-21951907D01*
X44921348Y-21904379D01*
X44912370Y-21849044D01*
X44909940Y-21795401D01*
X44909940Y-21345017D01*
X45178851Y-21345017D01*
X45178851Y-21795401D01*
X45180050Y-21813318D01*
X45205888Y-21859232D01*
X45255544Y-21871849D01*
X45410149Y-21871849D01*
X45432243Y-21869982D01*
X45474184Y-21844898D01*
X45486842Y-21795401D01*
X45486842Y-21345017D01*
X45485643Y-21327099D01*
X45459805Y-21281186D01*
X45410149Y-21268569D01*
X45255544Y-21268569D01*
X45233450Y-21270435D01*
X45191509Y-21295520D01*
X45178851Y-21345017D01*
X44909940Y-21345017D01*
X44910548Y-21317476D01*
X44915408Y-21266683D01*
X44927220Y-21214652D01*
X44948820Y-21164720D01*
X44979061Y-21124954D01*
X44997673Y-21108754D01*
X45042522Y-21082834D01*
X45090105Y-21067241D01*
X45145471Y-21058263D01*
X45199124Y-21055833D01*
X45466569Y-21055833D01*
X45494152Y-21056441D01*
G37*
G36*
X43852368Y-10944898D02*
G01*
X43793150Y-10939704D01*
X43735936Y-10935021D01*
X43680727Y-10930848D01*
X43627524Y-10927187D01*
X43576325Y-10924036D01*
X43527131Y-10921397D01*
X43464659Y-10918672D01*
X43405750Y-10916855D01*
X43350406Y-10915947D01*
X43324071Y-10915833D01*
X43273733Y-10918186D01*
X43221582Y-10926878D01*
X43170654Y-10944655D01*
X43128976Y-10970796D01*
X43115732Y-10982756D01*
X43083382Y-11026391D01*
X43063514Y-11075007D01*
X43052992Y-11125134D01*
X43048875Y-11182344D01*
X43048809Y-11191095D01*
X43048809Y-11641235D01*
X43051239Y-11694961D01*
X43060217Y-11750371D01*
X43075810Y-11797951D01*
X43101730Y-11842739D01*
X43117930Y-11861297D01*
X43157696Y-11891538D01*
X43207628Y-11913138D01*
X43259659Y-11924951D01*
X43310452Y-11929811D01*
X43337993Y-11930418D01*
X43852368Y-11930418D01*
X43852368Y-11717927D01*
X43394413Y-11717927D01*
X43344758Y-11705270D01*
X43319593Y-11663329D01*
X43317721Y-11641235D01*
X43317721Y-11191095D01*
X43334329Y-11145177D01*
X43379026Y-11128569D01*
X43429183Y-11129053D01*
X43442040Y-11129302D01*
X43491670Y-11130540D01*
X43515069Y-11131256D01*
X43565183Y-11133179D01*
X43591517Y-11134187D01*
X43642118Y-11136685D01*
X43691412Y-11139804D01*
X43742783Y-11143193D01*
X43793831Y-11146437D01*
X43846178Y-11149683D01*
X43852368Y-11150062D01*
X43852368Y-10944898D01*
G37*
G36*
X44818349Y-10930000D02*
G01*
X44549437Y-10930000D01*
X44549437Y-11331046D01*
X44213359Y-11331046D01*
X44213359Y-10930000D01*
X43944692Y-10930000D01*
X43944692Y-11930418D01*
X44213359Y-11930418D01*
X44213359Y-11543538D01*
X44549437Y-11543538D01*
X44549437Y-11930418D01*
X44818349Y-11930418D01*
X44818349Y-10930000D01*
G37*
G36*
X45430666Y-11126859D02*
G01*
X44910184Y-11126859D01*
X44910184Y-11333977D01*
X45251147Y-11930418D01*
X45550589Y-11930418D01*
X45212801Y-11339595D01*
X45430666Y-11339595D01*
X45430666Y-11550621D01*
X45699577Y-11550621D01*
X45699577Y-11339595D01*
X45798007Y-11339595D01*
X45798007Y-11126859D01*
X45699577Y-11126859D01*
X45699577Y-10930000D01*
X45430666Y-10930000D01*
X45430666Y-11126859D01*
G37*
G36*
X43726828Y-23651737D02*
G01*
X43664252Y-23645321D01*
X43602737Y-23639535D01*
X43542282Y-23634381D01*
X43482887Y-23629858D01*
X43424553Y-23625966D01*
X43367279Y-23622706D01*
X43311066Y-23620076D01*
X43255913Y-23618077D01*
X43201820Y-23616710D01*
X43148789Y-23615974D01*
X43114023Y-23615833D01*
X43063685Y-23618186D01*
X43011534Y-23626878D01*
X42960606Y-23644655D01*
X42918928Y-23670796D01*
X42905684Y-23682756D01*
X42873334Y-23726391D01*
X42853466Y-23775007D01*
X42842944Y-23825134D01*
X42838827Y-23882344D01*
X42838761Y-23891095D01*
X42838761Y-24341235D01*
X42841191Y-24394961D01*
X42850169Y-24450371D01*
X42865762Y-24497951D01*
X42891682Y-24542739D01*
X42907882Y-24561297D01*
X42947648Y-24591538D01*
X42997580Y-24613138D01*
X43049611Y-24624951D01*
X43100404Y-24629811D01*
X43127945Y-24630418D01*
X43642320Y-24630418D01*
X43642320Y-24417927D01*
X43184365Y-24417927D01*
X43134710Y-24405270D01*
X43109545Y-24363329D01*
X43107673Y-24341235D01*
X43107673Y-23891095D01*
X43124281Y-23845177D01*
X43170199Y-23828569D01*
X43219856Y-23828730D01*
X43277146Y-23829348D01*
X43331929Y-23830430D01*
X43384205Y-23831976D01*
X43433973Y-23833985D01*
X43457917Y-23835163D01*
X43457917Y-24023963D01*
X43274979Y-24023963D01*
X43274979Y-24208367D01*
X43726828Y-24208367D01*
X43726828Y-23651737D01*
G37*
G36*
X44720652Y-23630000D02*
G01*
X44440994Y-23630000D01*
X44115663Y-24199330D01*
X44115663Y-23630000D01*
X43846996Y-23630000D01*
X43846996Y-24630418D01*
X44126654Y-24630418D01*
X44451741Y-24061332D01*
X44451741Y-24630418D01*
X44720652Y-24630418D01*
X44720652Y-23630000D01*
G37*
G36*
X45483379Y-23632970D02*
G01*
X45536004Y-23641883D01*
X45583167Y-23656738D01*
X45631290Y-23681579D01*
X45671978Y-23714508D01*
X45705002Y-23755292D01*
X45729915Y-23803485D01*
X45744812Y-23850692D01*
X45753751Y-23903343D01*
X45756731Y-23961437D01*
X45756731Y-24298981D01*
X45753751Y-24357067D01*
X45744812Y-24409691D01*
X45729915Y-24456855D01*
X45705002Y-24504977D01*
X45671978Y-24545666D01*
X45631290Y-24578690D01*
X45583167Y-24603602D01*
X45536004Y-24618500D01*
X45483379Y-24627439D01*
X45425293Y-24630418D01*
X44868908Y-24630418D01*
X44868908Y-24417927D01*
X45137575Y-24417927D01*
X45369117Y-24417927D01*
X45403314Y-24415023D01*
X45450261Y-24395160D01*
X45480400Y-24351020D01*
X45487819Y-24298981D01*
X45487819Y-23961437D01*
X45484921Y-23927170D01*
X45465099Y-23880126D01*
X45421049Y-23849925D01*
X45369117Y-23842491D01*
X45137575Y-23842491D01*
X45137575Y-24417927D01*
X44868908Y-24417927D01*
X44868908Y-23630000D01*
X45425293Y-23630000D01*
X45483379Y-23632970D01*
G37*
D12*
G36*
X21609492Y-14824745D02*
G01*
X21712847Y-15008399D01*
X21717640Y-15080069D01*
X21717640Y-16881605D01*
X21667011Y-17079593D01*
X21499247Y-17179931D01*
X21410871Y-17187397D01*
X20454416Y-17187397D01*
X20255795Y-17136929D01*
X20152440Y-16953275D01*
X20147647Y-16881605D01*
X20147647Y-15080069D01*
X20198276Y-14882081D01*
X20366040Y-14781743D01*
X20454416Y-14774277D01*
X21410871Y-14774277D01*
X21609492Y-14824745D01*
G37*
G36*
X29674744Y-14837376D02*
G01*
X29693635Y-14939385D01*
X29693635Y-16064856D01*
X29602204Y-16240288D01*
X29500194Y-16259274D01*
X28825107Y-16259274D01*
X28649676Y-16167381D01*
X28630690Y-16064856D01*
X28630690Y-14939385D01*
X28722582Y-14764836D01*
X28825107Y-14745945D01*
X29500194Y-14745945D01*
X29674744Y-14837376D01*
G37*
G36*
X36371156Y-18482783D02*
G01*
X6880454Y-18482783D01*
X6880454Y-18038339D01*
X11718338Y-18038339D01*
X12765651Y-18038339D01*
X12765651Y-17187397D01*
X11718338Y-17187397D01*
X11718338Y-18038339D01*
X6880454Y-18038339D01*
X6880454Y-15080069D01*
X7324898Y-15080069D01*
X7324898Y-17981674D01*
X8399566Y-17981674D01*
X8399566Y-15080069D01*
X8450195Y-14882081D01*
X8617959Y-14781743D01*
X8706335Y-14774277D01*
X9550438Y-14774277D01*
X9749059Y-14824745D01*
X9852414Y-15008399D01*
X9857207Y-15080069D01*
X9857207Y-17981674D01*
X10931876Y-17981674D01*
X10931876Y-17025219D01*
X13255114Y-17025219D01*
X14184214Y-17025219D01*
X14235993Y-16764368D01*
X14415603Y-16867728D01*
X14610051Y-16952130D01*
X14747926Y-16997864D01*
X14948190Y-17048468D01*
X15150923Y-17077987D01*
X15227619Y-17080907D01*
X15480655Y-17080907D01*
X15690856Y-17061896D01*
X15895410Y-16996179D01*
X16069433Y-16883522D01*
X16115686Y-16840572D01*
X16242425Y-16675708D01*
X16322224Y-16480314D01*
X16353909Y-16278355D01*
X16356021Y-16205540D01*
X16356021Y-14829965D01*
X16667675Y-14829965D01*
X17173746Y-14829965D01*
X17173746Y-17131709D01*
X16667675Y-17131709D01*
X16667675Y-17981674D01*
X18755463Y-17981674D01*
X18755463Y-17131709D01*
X18249392Y-17131709D01*
X18249392Y-15080069D01*
X19072002Y-15080069D01*
X19072002Y-16881605D01*
X19081722Y-17096179D01*
X19117632Y-17317519D01*
X19180003Y-17507629D01*
X19283684Y-17686659D01*
X19348484Y-17760879D01*
X19507548Y-17882267D01*
X19707277Y-17968974D01*
X19915400Y-18016391D01*
X20118572Y-18035900D01*
X20228736Y-18038339D01*
X21635575Y-18038339D01*
X21850481Y-18028584D01*
X22072121Y-17992547D01*
X22262439Y-17929956D01*
X22441591Y-17825908D01*
X22515826Y-17760879D01*
X22636787Y-17602243D01*
X22723188Y-17402819D01*
X22770438Y-17194863D01*
X22789879Y-16991760D01*
X22792309Y-16881605D01*
X22792309Y-15080069D01*
X22783548Y-14886629D01*
X23103962Y-14886629D01*
X24179608Y-14886629D01*
X24179608Y-14798702D01*
X24503962Y-14798702D01*
X24503962Y-16093189D01*
X24519472Y-16298902D01*
X24573997Y-16502449D01*
X24667781Y-16676475D01*
X24752113Y-16776092D01*
X24906931Y-16896520D01*
X25091115Y-16977535D01*
X25304665Y-17019137D01*
X25435993Y-17025219D01*
X27267815Y-17025219D01*
X27267815Y-16202609D01*
X25745693Y-16202609D01*
X25570262Y-16111179D01*
X25551276Y-16009169D01*
X25551276Y-14912030D01*
X25573570Y-14855366D01*
X27583376Y-14855366D01*
X27583376Y-14939385D01*
X27583376Y-16149853D01*
X27598886Y-16355566D01*
X27653411Y-16559113D01*
X27747195Y-16733139D01*
X27831527Y-16832756D01*
X27986345Y-16952712D01*
X28170528Y-17033409D01*
X28384079Y-17074848D01*
X28515407Y-17080907D01*
X29809894Y-17080907D01*
X30015608Y-17065397D01*
X30165596Y-17025219D01*
X31164953Y-17025219D01*
X32094053Y-17025219D01*
X32145833Y-16764368D01*
X32325443Y-16867728D01*
X32519891Y-16952130D01*
X32657766Y-16997864D01*
X32858030Y-17048468D01*
X33060763Y-17077987D01*
X33137459Y-17080907D01*
X33194123Y-17080907D01*
X33389109Y-17065339D01*
X33584931Y-17009423D01*
X33770780Y-16897908D01*
X33905358Y-16755575D01*
X34077095Y-16856493D01*
X34264533Y-16938941D01*
X34448554Y-16997864D01*
X34651052Y-17045143D01*
X34854315Y-17074338D01*
X34994681Y-17080907D01*
X35051346Y-17080907D01*
X35261152Y-17061896D01*
X35465629Y-16996179D01*
X35639958Y-16883522D01*
X35686377Y-16840572D01*
X35813116Y-16675708D01*
X35892915Y-16480314D01*
X35924600Y-16278355D01*
X35926712Y-16205540D01*
X35926712Y-13980000D01*
X34879399Y-13980000D01*
X34879399Y-16037501D01*
X34831527Y-16155715D01*
X34713314Y-16202609D01*
X34684981Y-16202609D01*
X34481649Y-16187909D01*
X34287018Y-16153200D01*
X34092273Y-16104505D01*
X34069489Y-16098073D01*
X34069489Y-13980000D01*
X33022176Y-13980000D01*
X33022176Y-16037501D01*
X32975281Y-16155715D01*
X32856091Y-16202609D01*
X32827759Y-16202609D01*
X32624427Y-16187909D01*
X32429796Y-16153200D01*
X32235050Y-16104505D01*
X32212267Y-16098073D01*
X32212267Y-13980000D01*
X31164953Y-13980000D01*
X31164953Y-17025219D01*
X30165596Y-17025219D01*
X30219154Y-17010872D01*
X30393180Y-16917088D01*
X30492797Y-16832756D01*
X30612753Y-16678411D01*
X30693450Y-16494544D01*
X30734889Y-16281157D01*
X30740948Y-16149853D01*
X30740948Y-14855366D01*
X30725438Y-14649591D01*
X30670913Y-14445830D01*
X30577130Y-14271435D01*
X30492797Y-14171486D01*
X30338452Y-14051530D01*
X30154586Y-13970833D01*
X29941198Y-13929394D01*
X29809894Y-13923335D01*
X28515407Y-13923335D01*
X28309632Y-13938845D01*
X28105871Y-13993370D01*
X27931476Y-14087153D01*
X27831527Y-14171486D01*
X27711571Y-14326303D01*
X27630874Y-14510487D01*
X27589435Y-14724038D01*
X27583376Y-14855366D01*
X25573570Y-14855366D01*
X25598170Y-14792840D01*
X25717361Y-14745945D01*
X25925765Y-14749002D01*
X26128453Y-14756219D01*
X26357521Y-14767683D01*
X26559770Y-14779910D01*
X26778901Y-14794855D01*
X27014916Y-14812517D01*
X27267815Y-14832896D01*
X27267815Y-14039595D01*
X27067445Y-14018818D01*
X26871901Y-14000085D01*
X26618682Y-13978286D01*
X26374042Y-13960120D01*
X26137981Y-13945588D01*
X25910500Y-13934689D01*
X25691597Y-13927422D01*
X25481274Y-13923789D01*
X25379329Y-13923335D01*
X25169522Y-13942346D01*
X24965045Y-14008063D01*
X24790717Y-14120720D01*
X24744297Y-14163670D01*
X24617558Y-14328954D01*
X24537760Y-14524386D01*
X24506075Y-14726053D01*
X24503962Y-14798702D01*
X24179608Y-14798702D01*
X24179608Y-13980000D01*
X23103962Y-13980000D01*
X23103962Y-14886629D01*
X22783548Y-14886629D01*
X22782589Y-14865460D01*
X22746678Y-14643994D01*
X22684307Y-14453663D01*
X22580626Y-14274266D01*
X22515826Y-14199818D01*
X22357129Y-14078857D01*
X22157521Y-13992456D01*
X21949305Y-13945205D01*
X21745905Y-13925765D01*
X21635575Y-13923335D01*
X20228736Y-13923335D01*
X20014126Y-13933055D01*
X19792660Y-13968966D01*
X19602329Y-14031336D01*
X19422933Y-14135017D01*
X19348484Y-14199818D01*
X19227523Y-14358881D01*
X19141122Y-14558611D01*
X19093872Y-14766733D01*
X19074432Y-14969905D01*
X19072002Y-15080069D01*
X18249392Y-15080069D01*
X18249392Y-14829965D01*
X18755463Y-14829965D01*
X18755463Y-13980000D01*
X16667675Y-13980000D01*
X16667675Y-14829965D01*
X16356021Y-14829965D01*
X16356021Y-13980000D01*
X15308708Y-13980000D01*
X15308708Y-16037501D01*
X15261813Y-16155715D01*
X15143600Y-16202609D01*
X14946251Y-16202609D01*
X14737940Y-16190257D01*
X14536745Y-16157590D01*
X14346044Y-16110732D01*
X14302427Y-16098073D01*
X14302427Y-13980000D01*
X13255114Y-13980000D01*
X13255114Y-17025219D01*
X10931876Y-17025219D01*
X10931876Y-16090258D01*
X11296286Y-16090258D01*
X11296286Y-16912868D01*
X12765651Y-16912868D01*
X12765651Y-13980000D01*
X11718338Y-13980000D01*
X11718338Y-16090258D01*
X11296286Y-16090258D01*
X10931876Y-16090258D01*
X10931876Y-15080069D01*
X10922156Y-14865460D01*
X10886245Y-14643994D01*
X10823875Y-14453663D01*
X10720194Y-14274266D01*
X10655393Y-14199818D01*
X10496696Y-14078857D01*
X10297089Y-13992456D01*
X10088873Y-13945205D01*
X9885472Y-13925765D01*
X9775142Y-13923335D01*
X8481632Y-13923335D01*
X8266725Y-13933055D01*
X8045085Y-13968966D01*
X7854767Y-14031336D01*
X7675615Y-14135017D01*
X7601381Y-14199818D01*
X7480419Y-14358881D01*
X7394018Y-14558611D01*
X7346768Y-14766733D01*
X7327328Y-14969905D01*
X7324898Y-15080069D01*
X6880454Y-15080069D01*
X6880454Y-13478891D01*
X36371156Y-13478891D01*
X36371156Y-18482783D01*
G37*
D10*
G36*
X43922710Y-8404898D02*
G01*
X43863492Y-8399704D01*
X43806278Y-8395021D01*
X43751069Y-8390848D01*
X43697866Y-8387187D01*
X43646667Y-8384036D01*
X43597473Y-8381397D01*
X43535001Y-8378672D01*
X43476092Y-8376855D01*
X43420748Y-8375947D01*
X43394413Y-8375833D01*
X43344075Y-8378186D01*
X43291924Y-8386878D01*
X43240996Y-8404655D01*
X43199318Y-8430796D01*
X43186074Y-8442756D01*
X43153724Y-8486391D01*
X43133856Y-8535007D01*
X43123334Y-8585134D01*
X43119217Y-8642344D01*
X43119151Y-8651095D01*
X43119151Y-9101235D01*
X43121581Y-9154961D01*
X43130559Y-9210371D01*
X43146152Y-9257951D01*
X43172072Y-9302739D01*
X43188272Y-9321297D01*
X43228038Y-9351538D01*
X43277970Y-9373138D01*
X43330001Y-9384951D01*
X43380794Y-9389811D01*
X43408335Y-9390418D01*
X43922710Y-9390418D01*
X43922710Y-9177927D01*
X43464755Y-9177927D01*
X43415100Y-9165270D01*
X43389935Y-9123329D01*
X43388063Y-9101235D01*
X43388063Y-8651095D01*
X43404671Y-8605177D01*
X43449368Y-8588569D01*
X43499525Y-8589053D01*
X43512382Y-8589302D01*
X43562012Y-8590540D01*
X43585411Y-8591256D01*
X43635525Y-8593179D01*
X43661859Y-8594187D01*
X43712460Y-8596685D01*
X43761754Y-8599804D01*
X43813125Y-8603193D01*
X43864173Y-8606437D01*
X43916520Y-8609683D01*
X43922710Y-8610062D01*
X43922710Y-8404898D01*
G37*
G36*
X44888691Y-8390000D02*
G01*
X44619779Y-8390000D01*
X44619779Y-8791046D01*
X44283701Y-8791046D01*
X44283701Y-8390000D01*
X44015034Y-8390000D01*
X44015034Y-9390418D01*
X44283701Y-9390418D01*
X44283701Y-9003538D01*
X44619779Y-9003538D01*
X44619779Y-9390418D01*
X44888691Y-9390418D01*
X44888691Y-8390000D01*
G37*
G36*
X45508823Y-8375833D02*
G01*
X45449064Y-8376288D01*
X45387511Y-8377650D01*
X45324164Y-8379921D01*
X45259024Y-8383100D01*
X45208992Y-8386080D01*
X45157950Y-8389571D01*
X45105900Y-8393573D01*
X45052841Y-8398086D01*
X44998773Y-8403110D01*
X44980526Y-8404898D01*
X44980526Y-8610062D01*
X45038877Y-8606221D01*
X45094314Y-8602758D01*
X45146835Y-8599672D01*
X45196441Y-8596965D01*
X45258047Y-8593942D01*
X45314471Y-8591591D01*
X45365712Y-8589912D01*
X45422476Y-8588758D01*
X45452648Y-8588569D01*
X45498321Y-8605177D01*
X45515174Y-8651095D01*
X45515174Y-8721437D01*
X45502516Y-8770934D01*
X45460575Y-8796019D01*
X45438481Y-8797885D01*
X45022780Y-8797885D01*
X45022780Y-9390418D01*
X45713743Y-9390418D01*
X45713743Y-9177927D01*
X45291691Y-9177927D01*
X45291691Y-9010621D01*
X45508823Y-9010621D01*
X45559153Y-9008337D01*
X45611272Y-8999898D01*
X45662135Y-8982641D01*
X45708263Y-8953519D01*
X45716918Y-8945652D01*
X45749387Y-8903970D01*
X45769327Y-8858064D01*
X45780871Y-8803823D01*
X45784085Y-8749525D01*
X45784085Y-8651095D01*
X45781724Y-8600757D01*
X45773000Y-8548606D01*
X45755159Y-8497678D01*
X45728922Y-8456000D01*
X45716918Y-8442756D01*
X45673401Y-8410406D01*
X45624858Y-8390538D01*
X45574769Y-8380016D01*
X45517574Y-8375899D01*
X45508823Y-8375833D01*
G37*
G36*
X43908056Y-13484898D02*
G01*
X43848838Y-13479704D01*
X43791624Y-13475021D01*
X43736415Y-13470848D01*
X43683212Y-13467187D01*
X43632013Y-13464036D01*
X43582819Y-13461397D01*
X43520347Y-13458672D01*
X43461438Y-13456855D01*
X43406094Y-13455947D01*
X43379759Y-13455833D01*
X43329421Y-13458186D01*
X43277270Y-13466878D01*
X43226342Y-13484655D01*
X43184664Y-13510796D01*
X43171420Y-13522756D01*
X43139070Y-13566391D01*
X43119202Y-13615007D01*
X43108680Y-13665134D01*
X43104563Y-13722344D01*
X43104497Y-13731095D01*
X43104497Y-14181235D01*
X43106927Y-14234961D01*
X43115905Y-14290371D01*
X43131498Y-14337951D01*
X43157418Y-14382739D01*
X43173618Y-14401297D01*
X43213384Y-14431538D01*
X43263316Y-14453138D01*
X43315347Y-14464951D01*
X43366140Y-14469811D01*
X43393681Y-14470418D01*
X43908056Y-14470418D01*
X43908056Y-14257927D01*
X43450101Y-14257927D01*
X43400446Y-14245270D01*
X43375281Y-14203329D01*
X43373409Y-14181235D01*
X43373409Y-13731095D01*
X43390017Y-13685177D01*
X43434714Y-13668569D01*
X43484871Y-13669053D01*
X43497728Y-13669302D01*
X43547358Y-13670540D01*
X43570757Y-13671256D01*
X43620871Y-13673179D01*
X43647205Y-13674187D01*
X43697806Y-13676685D01*
X43747100Y-13679804D01*
X43798471Y-13683193D01*
X43849519Y-13686437D01*
X43901866Y-13689683D01*
X43908056Y-13690062D01*
X43908056Y-13484898D01*
G37*
G36*
X44874037Y-13470000D02*
G01*
X44605125Y-13470000D01*
X44605125Y-13871046D01*
X44269047Y-13871046D01*
X44269047Y-13470000D01*
X44000380Y-13470000D01*
X44000380Y-14470418D01*
X44269047Y-14470418D01*
X44269047Y-14083538D01*
X44605125Y-14083538D01*
X44605125Y-14470418D01*
X44874037Y-14470418D01*
X44874037Y-13470000D01*
G37*
G36*
X45494169Y-13455833D02*
G01*
X45434410Y-13456288D01*
X45372857Y-13457650D01*
X45309510Y-13459921D01*
X45244370Y-13463100D01*
X45194338Y-13466080D01*
X45143296Y-13469571D01*
X45091246Y-13473573D01*
X45038187Y-13478086D01*
X44984119Y-13483110D01*
X44965872Y-13484898D01*
X44965872Y-13690062D01*
X45024223Y-13686221D01*
X45079660Y-13682758D01*
X45132181Y-13679672D01*
X45181787Y-13676965D01*
X45243393Y-13673942D01*
X45299817Y-13671591D01*
X45351058Y-13669912D01*
X45407822Y-13668758D01*
X45437994Y-13668569D01*
X45483667Y-13685177D01*
X45500520Y-13731095D01*
X45500520Y-13787271D01*
X45487862Y-13836926D01*
X45445921Y-13862091D01*
X45423827Y-13863963D01*
X45120722Y-13863963D01*
X45120722Y-14076454D01*
X45395740Y-14076454D01*
X45445395Y-14089112D01*
X45470559Y-14131053D01*
X45472432Y-14153147D01*
X45472432Y-14181235D01*
X45459775Y-14230890D01*
X45417833Y-14256055D01*
X45395740Y-14257927D01*
X44980038Y-14257927D01*
X44980038Y-14470418D01*
X45466081Y-14470418D01*
X45516411Y-14468134D01*
X45568530Y-14459696D01*
X45619393Y-14442439D01*
X45665521Y-14413317D01*
X45674176Y-14405450D01*
X45706645Y-14363768D01*
X45726585Y-14317862D01*
X45738129Y-14263621D01*
X45741343Y-14209323D01*
X45737408Y-14158232D01*
X45723987Y-14109195D01*
X45701043Y-14067662D01*
X45668296Y-14029941D01*
X45627439Y-14001998D01*
X45619710Y-13999030D01*
X45668017Y-13976878D01*
X45704176Y-13943985D01*
X45733955Y-13898667D01*
X45754776Y-13848820D01*
X45765767Y-13800521D01*
X45769417Y-13748697D01*
X45769431Y-13745017D01*
X45769431Y-13731095D01*
X45767070Y-13680757D01*
X45758346Y-13628606D01*
X45740505Y-13577678D01*
X45714268Y-13536000D01*
X45702264Y-13522756D01*
X45658747Y-13490406D01*
X45610204Y-13470538D01*
X45560115Y-13460016D01*
X45502920Y-13455899D01*
X45494169Y-13455833D01*
G37*
G36*
X43726828Y-781737D02*
G01*
X43664252Y-775321D01*
X43602737Y-769535D01*
X43542282Y-764381D01*
X43482887Y-759858D01*
X43424553Y-755966D01*
X43367279Y-752706D01*
X43311066Y-750076D01*
X43255913Y-748077D01*
X43201820Y-746710D01*
X43148789Y-745974D01*
X43114023Y-745833D01*
X43063685Y-748186D01*
X43011534Y-756878D01*
X42960606Y-774655D01*
X42918928Y-800796D01*
X42905684Y-812756D01*
X42873334Y-856391D01*
X42853466Y-905007D01*
X42842944Y-955134D01*
X42838827Y-1012344D01*
X42838761Y-1021095D01*
X42838761Y-1471235D01*
X42841191Y-1524961D01*
X42850169Y-1580371D01*
X42865762Y-1627951D01*
X42891682Y-1672739D01*
X42907882Y-1691297D01*
X42947648Y-1721538D01*
X42997580Y-1743138D01*
X43049611Y-1754951D01*
X43100404Y-1759811D01*
X43127945Y-1760418D01*
X43642320Y-1760418D01*
X43642320Y-1547927D01*
X43184365Y-1547927D01*
X43134710Y-1535270D01*
X43109545Y-1493329D01*
X43107673Y-1471235D01*
X43107673Y-1021095D01*
X43124281Y-975177D01*
X43170199Y-958569D01*
X43219856Y-958730D01*
X43277146Y-959348D01*
X43331929Y-960430D01*
X43384205Y-961976D01*
X43433973Y-963985D01*
X43457917Y-965163D01*
X43457917Y-1153963D01*
X43274979Y-1153963D01*
X43274979Y-1338367D01*
X43726828Y-1338367D01*
X43726828Y-781737D01*
G37*
G36*
X44720652Y-760000D02*
G01*
X44440994Y-760000D01*
X44115663Y-1329330D01*
X44115663Y-760000D01*
X43846996Y-760000D01*
X43846996Y-1760418D01*
X44126654Y-1760418D01*
X44451741Y-1191332D01*
X44451741Y-1760418D01*
X44720652Y-1760418D01*
X44720652Y-760000D01*
G37*
G36*
X45483379Y-762970D02*
G01*
X45536004Y-771883D01*
X45583167Y-786738D01*
X45631290Y-811579D01*
X45671978Y-844508D01*
X45705002Y-885292D01*
X45729915Y-933485D01*
X45744812Y-980692D01*
X45753751Y-1033343D01*
X45756731Y-1091437D01*
X45756731Y-1428981D01*
X45753751Y-1487067D01*
X45744812Y-1539691D01*
X45729915Y-1586855D01*
X45705002Y-1634977D01*
X45671978Y-1675666D01*
X45631290Y-1708690D01*
X45583167Y-1733602D01*
X45536004Y-1748500D01*
X45483379Y-1757439D01*
X45425293Y-1760418D01*
X44868908Y-1760418D01*
X44868908Y-1547927D01*
X45137575Y-1547927D01*
X45369117Y-1547927D01*
X45403314Y-1545023D01*
X45450261Y-1525160D01*
X45480400Y-1481020D01*
X45487819Y-1428981D01*
X45487819Y-1091437D01*
X45484921Y-1057170D01*
X45465099Y-1010126D01*
X45421049Y-979925D01*
X45369117Y-972491D01*
X45137575Y-972491D01*
X45137575Y-1547927D01*
X44868908Y-1547927D01*
X44868908Y-760000D01*
X45425293Y-760000D01*
X45483379Y-762970D01*
G37*
D12*
G36*
X8251116Y-11657879D02*
G01*
X8815317Y-11657879D01*
X8815317Y-10134536D01*
X8810214Y-10021866D01*
X8791361Y-9905596D01*
X8758616Y-9805673D01*
X8704184Y-9711490D01*
X8670163Y-9672404D01*
X8586848Y-9608900D01*
X8482054Y-9563539D01*
X8372740Y-9538733D01*
X8265955Y-9528526D01*
X8208032Y-9527251D01*
X7528939Y-9527251D01*
X7416113Y-9532354D01*
X7299752Y-9551207D01*
X7199835Y-9583951D01*
X7105780Y-9638384D01*
X7066807Y-9672404D01*
X7003302Y-9755912D01*
X6957942Y-9860770D01*
X6933135Y-9970035D01*
X6922929Y-10076700D01*
X6921653Y-10134536D01*
X6921653Y-11657879D01*
X7485854Y-11657879D01*
X7485854Y-10134536D01*
X7512434Y-10030592D01*
X7600511Y-9977915D01*
X7646908Y-9973995D01*
X8090062Y-9973995D01*
X8194338Y-10000491D01*
X8248600Y-10096909D01*
X8251116Y-10134536D01*
X8251116Y-11657879D01*
G37*
G36*
X10132470Y-9557000D02*
G01*
X9036381Y-9557000D01*
X9036381Y-10003231D01*
X9302069Y-10003231D01*
X9302069Y-11211647D01*
X9036381Y-11211647D01*
X9036381Y-11657879D01*
X10132470Y-11657879D01*
X10132470Y-11211647D01*
X9866782Y-11211647D01*
X9866782Y-10003231D01*
X10132470Y-10003231D01*
X10132470Y-9557000D01*
G37*
G36*
X12192829Y-9557000D02*
G01*
X11605547Y-9557000D01*
X10922351Y-10752593D01*
X10922351Y-9557000D01*
X10358150Y-9557000D01*
X10358150Y-11657879D01*
X10945432Y-11657879D01*
X11628115Y-10462799D01*
X11628115Y-11657879D01*
X12192829Y-11657879D01*
X12192829Y-9557000D01*
G37*
G36*
X13511521Y-9557000D02*
G01*
X12415432Y-9557000D01*
X12415432Y-10003231D01*
X12681120Y-10003231D01*
X12681120Y-11211647D01*
X12415432Y-11211647D01*
X12415432Y-11657879D01*
X13511521Y-11657879D01*
X13511521Y-11211647D01*
X13245833Y-11211647D01*
X13245833Y-10003231D01*
X13511521Y-10003231D01*
X13511521Y-9557000D01*
G37*
G36*
X15081503Y-9528526D02*
G01*
X15188288Y-9538733D01*
X15297602Y-9563539D01*
X15402395Y-9608900D01*
X15485711Y-9672404D01*
X15519732Y-9711490D01*
X15574164Y-9805673D01*
X15606909Y-9905596D01*
X15625762Y-10021866D01*
X15630865Y-10134536D01*
X15630865Y-11080342D01*
X15629589Y-11138174D01*
X15619383Y-11244803D01*
X15594576Y-11353980D01*
X15549216Y-11458677D01*
X15485711Y-11541961D01*
X15446738Y-11576102D01*
X15352683Y-11630727D01*
X15252766Y-11663587D01*
X15136406Y-11682506D01*
X15023579Y-11687628D01*
X14284989Y-11687628D01*
X14227153Y-11686347D01*
X14120488Y-11676105D01*
X14011223Y-11651211D01*
X13906365Y-11605690D01*
X13822857Y-11541961D01*
X13788837Y-11502996D01*
X13734404Y-11409005D01*
X13701660Y-11309197D01*
X13682807Y-11192994D01*
X13677704Y-11080342D01*
X13677704Y-10134536D01*
X14242417Y-10134536D01*
X14242417Y-11080342D01*
X14244934Y-11117969D01*
X14299195Y-11214387D01*
X14403471Y-11240883D01*
X14905610Y-11240883D01*
X14952007Y-11236964D01*
X15040084Y-11184286D01*
X15066664Y-11080342D01*
X15066664Y-10134536D01*
X15064147Y-10096909D01*
X15009886Y-10000491D01*
X14905610Y-9973995D01*
X14403471Y-9973995D01*
X14357074Y-9977915D01*
X14268998Y-10030592D01*
X14242417Y-10134536D01*
X13677704Y-10134536D01*
X13678979Y-10076700D01*
X13689185Y-9970035D01*
X13713992Y-9860770D01*
X13759352Y-9755912D01*
X13822857Y-9672404D01*
X13861942Y-9638384D01*
X13956126Y-9583951D01*
X14056049Y-9551207D01*
X14172319Y-9532354D01*
X14284989Y-9527251D01*
X15023579Y-9527251D01*
X15081503Y-9528526D01*
G37*
G36*
X15794483Y-10384323D02*
G01*
X15794483Y-10830555D01*
X17038290Y-10830555D01*
X17038290Y-10384323D01*
X15794483Y-10384323D01*
G37*
G36*
X17828171Y-10003231D02*
G01*
X18906821Y-10003231D01*
X18906821Y-9557000D01*
X17263970Y-9557000D01*
X17263970Y-11657879D01*
X17828171Y-11657879D01*
X17828171Y-10003231D01*
G37*
G36*
X20249824Y-9530431D02*
G01*
X20361852Y-9552187D01*
X20458382Y-9594553D01*
X20539413Y-9657530D01*
X20583688Y-9710003D01*
X20632924Y-9801560D01*
X20661550Y-9908535D01*
X20669692Y-10016567D01*
X20669692Y-10696173D01*
X20666512Y-10765107D01*
X20644756Y-10877136D01*
X20602390Y-10973665D01*
X20539413Y-11054697D01*
X20487115Y-11098971D01*
X20395751Y-11148208D01*
X20288889Y-11176833D01*
X20180889Y-11184976D01*
X19501283Y-11184976D01*
X19432336Y-11181795D01*
X19320222Y-11160040D01*
X19223526Y-11117673D01*
X19142247Y-11054697D01*
X19097972Y-11002398D01*
X19048736Y-10911034D01*
X19020110Y-10804172D01*
X19011967Y-10696173D01*
X19011967Y-10060677D01*
X19561807Y-10060677D01*
X19561807Y-10651549D01*
X19571775Y-10705375D01*
X19663876Y-10753618D01*
X20018297Y-10753618D01*
X20071852Y-10743651D01*
X20119853Y-10651549D01*
X20119853Y-10060677D01*
X20109935Y-10007122D01*
X20018297Y-9959121D01*
X19663876Y-9959121D01*
X19610050Y-9969039D01*
X19561807Y-10060677D01*
X19011967Y-10060677D01*
X19011967Y-10016567D01*
X19015148Y-9947620D01*
X19036904Y-9835506D01*
X19079270Y-9738809D01*
X19142247Y-9657530D01*
X19194720Y-9613255D01*
X19286277Y-9564019D01*
X19393252Y-9535393D01*
X19501283Y-9527251D01*
X20180889Y-9527251D01*
X20249824Y-9530431D01*
G37*
G36*
X22039947Y-9026221D02*
G01*
X22145976Y-9042855D01*
X22248558Y-9084750D01*
X22335111Y-9151288D01*
X22357660Y-9175658D01*
X22416805Y-9267180D01*
X22451306Y-9374531D01*
X22461287Y-9484679D01*
X22461287Y-11155740D01*
X21351863Y-11155740D01*
X21282915Y-11152547D01*
X21170801Y-11130705D01*
X21074105Y-11088173D01*
X20992826Y-11024948D01*
X20948551Y-10972649D01*
X20899315Y-10881285D01*
X20870689Y-10774423D01*
X20862547Y-10666424D01*
X20862547Y-10134536D01*
X21412386Y-10134536D01*
X21412386Y-10622314D01*
X21422354Y-10675869D01*
X21514455Y-10723870D01*
X21911447Y-10723870D01*
X21911447Y-10074526D01*
X21901832Y-10072885D01*
X21792028Y-10058273D01*
X21685789Y-10050459D01*
X21573440Y-10047854D01*
X21499581Y-10047854D01*
X21437006Y-10072474D01*
X21412386Y-10134536D01*
X20862547Y-10134536D01*
X20862547Y-10075551D01*
X20863656Y-10037411D01*
X20880290Y-9931536D01*
X20922184Y-9828934D01*
X20988722Y-9742160D01*
X21013093Y-9719611D01*
X21104615Y-9660466D01*
X21211966Y-9625965D01*
X21322114Y-9615984D01*
X21425722Y-9615984D01*
X21466857Y-9616471D01*
X21581004Y-9622530D01*
X21686194Y-9633511D01*
X21796342Y-9649794D01*
X21911447Y-9671378D01*
X21911447Y-9543664D01*
X21886828Y-9481602D01*
X21824766Y-9456982D01*
X21767410Y-9457383D01*
X21660538Y-9459835D01*
X21539566Y-9464516D01*
X21432637Y-9469865D01*
X21316683Y-9476641D01*
X21191705Y-9484844D01*
X21057703Y-9494473D01*
X20951280Y-9502631D01*
X20951280Y-9085635D01*
X21060043Y-9074819D01*
X21166678Y-9065067D01*
X21271186Y-9056378D01*
X21373565Y-9048754D01*
X21506762Y-9040243D01*
X21636175Y-9033623D01*
X21761806Y-9028895D01*
X21883654Y-9026058D01*
X22001720Y-9025112D01*
X22039947Y-9026221D01*
G37*
G36*
X23396835Y-11096755D02*
G01*
X23396835Y-9557000D01*
X22846995Y-9557000D01*
X22846995Y-10664885D01*
X22625418Y-10664885D01*
X22625418Y-11096755D01*
X23396835Y-11096755D01*
G37*
G36*
X22846995Y-11687628D02*
G01*
X23396835Y-11687628D01*
X23396835Y-11240883D01*
X22846995Y-11240883D01*
X22846995Y-11687628D01*
G37*
G36*
X25075076Y-9588287D02*
G01*
X24969882Y-9577379D01*
X24867221Y-9567544D01*
X24734282Y-9556100D01*
X24605846Y-9546563D01*
X24481914Y-9538933D01*
X24362486Y-9533211D01*
X24247562Y-9529397D01*
X24137142Y-9527489D01*
X24083621Y-9527251D01*
X23973473Y-9537231D01*
X23866122Y-9571733D01*
X23774600Y-9630878D01*
X23750230Y-9653427D01*
X23683692Y-9740201D01*
X23641797Y-9842803D01*
X23625163Y-9948677D01*
X23624054Y-9986818D01*
X23624054Y-10666424D01*
X23632196Y-10774423D01*
X23660822Y-10881285D01*
X23710058Y-10972649D01*
X23754333Y-11024948D01*
X23835612Y-11088173D01*
X23932309Y-11130705D01*
X24044423Y-11152547D01*
X24113370Y-11155740D01*
X25075076Y-11155740D01*
X25075076Y-10723870D01*
X24275962Y-10723870D01*
X24183861Y-10675869D01*
X24173893Y-10622314D01*
X24173893Y-10046316D01*
X24198513Y-9983741D01*
X24261088Y-9959121D01*
X24370500Y-9960726D01*
X24476912Y-9964515D01*
X24597172Y-9970533D01*
X24703353Y-9976953D01*
X24818397Y-9984798D01*
X24942305Y-9994071D01*
X25075076Y-10004770D01*
X25075076Y-9588287D01*
G37*
G36*
X25211510Y-10384323D02*
G01*
X25211510Y-10830555D01*
X26455317Y-10830555D01*
X26455317Y-10384323D01*
X25211510Y-10384323D01*
G37*
G36*
X28102784Y-10991609D02*
G01*
X28092328Y-10881699D01*
X28060962Y-10778613D01*
X28008684Y-10682350D01*
X27935495Y-10592909D01*
X27884284Y-10544864D01*
X27802163Y-10477684D01*
X27741182Y-10431511D01*
X27147233Y-10003231D01*
X28102784Y-10003231D01*
X28102784Y-9557000D01*
X26474295Y-9557000D01*
X26474295Y-10142743D01*
X27538070Y-10911082D01*
X27538070Y-11050593D01*
X27511490Y-11154869D01*
X27423414Y-11207715D01*
X27377016Y-11211647D01*
X26533279Y-11211647D01*
X26533279Y-11657879D01*
X27495498Y-11657879D01*
X27608150Y-11652776D01*
X27724353Y-11633923D01*
X27824162Y-11601178D01*
X27918152Y-11546746D01*
X27957117Y-11512725D01*
X28020846Y-11429409D01*
X28066367Y-11324616D01*
X28091261Y-11215302D01*
X28101504Y-11108517D01*
X28102784Y-11050593D01*
X28102784Y-10991609D01*
G37*
G36*
X29183998Y-9970405D02*
G01*
X28090987Y-9970405D01*
X28090987Y-10405353D01*
X28807009Y-11657879D01*
X29435837Y-11657879D01*
X28726482Y-10417150D01*
X29183998Y-10417150D01*
X29183998Y-10860304D01*
X29748712Y-10860304D01*
X29748712Y-10417150D01*
X29955415Y-10417150D01*
X29955415Y-9970405D01*
X29748712Y-9970405D01*
X29748712Y-9557000D01*
X29183998Y-9557000D01*
X29183998Y-9970405D01*
G37*
G36*
X31892163Y-10662321D02*
G01*
X31504403Y-9970405D01*
X31071507Y-9970405D01*
X30683747Y-10662321D01*
X30683747Y-9557000D01*
X30119546Y-9557000D01*
X30119546Y-11657879D01*
X30706828Y-11657879D01*
X31287955Y-10582819D01*
X31869082Y-11657879D01*
X32456364Y-11657879D01*
X32456364Y-9557000D01*
X31892163Y-9557000D01*
X31892163Y-10662321D01*
G37*
G36*
X34598789Y-9557000D02*
G01*
X34034075Y-9557000D01*
X34034075Y-10399198D01*
X33328311Y-10399198D01*
X33328311Y-9557000D01*
X32764110Y-9557000D01*
X32764110Y-11657879D01*
X33328311Y-11657879D01*
X33328311Y-10845429D01*
X34034075Y-10845429D01*
X34034075Y-11657879D01*
X34598789Y-11657879D01*
X34598789Y-9557000D01*
G37*
G36*
X36286775Y-10733102D02*
G01*
X35498946Y-9988870D01*
X36286775Y-9988870D01*
X36286775Y-9557000D01*
X34791643Y-9557000D01*
X34791643Y-9979637D01*
X35579473Y-10723870D01*
X34791643Y-10723870D01*
X34791643Y-11155740D01*
X36286775Y-11155740D01*
X36286775Y-10733102D01*
G37*
D10*
G36*
X43936388Y-16014898D02*
G01*
X43877170Y-16009704D01*
X43819956Y-16005021D01*
X43764747Y-16000848D01*
X43711544Y-15997187D01*
X43660345Y-15994036D01*
X43611151Y-15991397D01*
X43548679Y-15988672D01*
X43489770Y-15986855D01*
X43434426Y-15985947D01*
X43408091Y-15985833D01*
X43357753Y-15988186D01*
X43305602Y-15996878D01*
X43254674Y-16014655D01*
X43212996Y-16040796D01*
X43199752Y-16052756D01*
X43167402Y-16096391D01*
X43147534Y-16145007D01*
X43137012Y-16195134D01*
X43132895Y-16252344D01*
X43132829Y-16261095D01*
X43132829Y-16711235D01*
X43135259Y-16764961D01*
X43144237Y-16820371D01*
X43159830Y-16867951D01*
X43185750Y-16912739D01*
X43201950Y-16931297D01*
X43241716Y-16961538D01*
X43291648Y-16983138D01*
X43343679Y-16994951D01*
X43394472Y-16999811D01*
X43422013Y-17000418D01*
X43936388Y-17000418D01*
X43936388Y-16787927D01*
X43478433Y-16787927D01*
X43428778Y-16775270D01*
X43403613Y-16733329D01*
X43401741Y-16711235D01*
X43401741Y-16261095D01*
X43418349Y-16215177D01*
X43463046Y-16198569D01*
X43513203Y-16199053D01*
X43526060Y-16199302D01*
X43575690Y-16200540D01*
X43599089Y-16201256D01*
X43649203Y-16203179D01*
X43675537Y-16204187D01*
X43726138Y-16206685D01*
X43775432Y-16209804D01*
X43826803Y-16213193D01*
X43877851Y-16216437D01*
X43930198Y-16219683D01*
X43936388Y-16220062D01*
X43936388Y-16014898D01*
G37*
G36*
X44902369Y-16000000D02*
G01*
X44633457Y-16000000D01*
X44633457Y-16401046D01*
X44297379Y-16401046D01*
X44297379Y-16000000D01*
X44028712Y-16000000D01*
X44028712Y-17000418D01*
X44297379Y-17000418D01*
X44297379Y-16613538D01*
X44633457Y-16613538D01*
X44633457Y-17000418D01*
X44902369Y-17000418D01*
X44902369Y-16000000D01*
G37*
G36*
X45769675Y-16683147D02*
G01*
X45764696Y-16630809D01*
X45749760Y-16581720D01*
X45724866Y-16535880D01*
X45690014Y-16493290D01*
X45665628Y-16470411D01*
X45626522Y-16438421D01*
X45597484Y-16416434D01*
X45314651Y-16212491D01*
X45769675Y-16212491D01*
X45769675Y-16000000D01*
X44994204Y-16000000D01*
X44994204Y-16278925D01*
X45500764Y-16644801D01*
X45500764Y-16711235D01*
X45488107Y-16760890D01*
X45446165Y-16786055D01*
X45424072Y-16787927D01*
X45022292Y-16787927D01*
X45022292Y-17000418D01*
X45480492Y-17000418D01*
X45534135Y-16997988D01*
X45589470Y-16989011D01*
X45636998Y-16973418D01*
X45681755Y-16947498D01*
X45700310Y-16931297D01*
X45730657Y-16891623D01*
X45752334Y-16841721D01*
X45764188Y-16789667D01*
X45769065Y-16738817D01*
X45769675Y-16711235D01*
X45769675Y-16683147D01*
G37*
G36*
X43978398Y-3309898D02*
G01*
X43919180Y-3304704D01*
X43861966Y-3300021D01*
X43806757Y-3295848D01*
X43753554Y-3292187D01*
X43702355Y-3289036D01*
X43653161Y-3286397D01*
X43590689Y-3283672D01*
X43531780Y-3281855D01*
X43476436Y-3280947D01*
X43450101Y-3280833D01*
X43399763Y-3283186D01*
X43347612Y-3291878D01*
X43296684Y-3309655D01*
X43255006Y-3335796D01*
X43241762Y-3347756D01*
X43209412Y-3391391D01*
X43189544Y-3440007D01*
X43179022Y-3490134D01*
X43174905Y-3547344D01*
X43174839Y-3556095D01*
X43174839Y-4006235D01*
X43177269Y-4059961D01*
X43186247Y-4115371D01*
X43201840Y-4162951D01*
X43227760Y-4207739D01*
X43243960Y-4226297D01*
X43283726Y-4256538D01*
X43333658Y-4278138D01*
X43385689Y-4289951D01*
X43436482Y-4294811D01*
X43464023Y-4295418D01*
X43978398Y-4295418D01*
X43978398Y-4082927D01*
X43520443Y-4082927D01*
X43470788Y-4070270D01*
X43445623Y-4028329D01*
X43443751Y-4006235D01*
X43443751Y-3556095D01*
X43460359Y-3510177D01*
X43505056Y-3493569D01*
X43555213Y-3494053D01*
X43568070Y-3494302D01*
X43617700Y-3495540D01*
X43641099Y-3496256D01*
X43691213Y-3498179D01*
X43717547Y-3499187D01*
X43768148Y-3501685D01*
X43817442Y-3504804D01*
X43868813Y-3508193D01*
X43919861Y-3511437D01*
X43972208Y-3514683D01*
X43978398Y-3515062D01*
X43978398Y-3309898D01*
G37*
G36*
X44944379Y-3295000D02*
G01*
X44675467Y-3295000D01*
X44675467Y-3696046D01*
X44339389Y-3696046D01*
X44339389Y-3295000D01*
X44070722Y-3295000D01*
X44070722Y-4295418D01*
X44339389Y-4295418D01*
X44339389Y-3908538D01*
X44675467Y-3908538D01*
X44675467Y-4295418D01*
X44944379Y-4295418D01*
X44944379Y-3295000D01*
G37*
G36*
X45022292Y-4295418D02*
G01*
X45797519Y-4295418D01*
X45797519Y-4089277D01*
X45471211Y-3295000D01*
X45172746Y-3295000D01*
X45510534Y-4082927D01*
X45022292Y-4082927D01*
X45022292Y-4295418D01*
G37*
D13*
%TO.C,HOLE2*%
X42340000Y-3305000D02*
G75*
G02*
X38740000Y-3305000I-1800000J0D01*
G01*
X38740000Y-3305000D02*
G75*
G02*
X42340000Y-3305000I1800000J0D01*
G01*
%TO.C,HOLE4*%
X2100000Y-3305000D02*
G75*
G02*
X-1500000Y-3305000I-1800000J0D01*
G01*
X-1500000Y-3305000D02*
G75*
G02*
X2100000Y-3305000I1800000J0D01*
G01*
%TO.C,HOLE3*%
X2100000Y-22105000D02*
G75*
G02*
X-1500000Y-22105000I-1800000J0D01*
G01*
X-1500000Y-22105000D02*
G75*
G02*
X2100000Y-22105000I1800000J0D01*
G01*
%TO.C,HOLE1*%
X42340000Y-22105000D02*
G75*
G02*
X38740000Y-22105000I-1800000J0D01*
G01*
X38740000Y-22105000D02*
G75*
G02*
X42340000Y-22105000I1800000J0D01*
G01*
%TD*%
%LPC*%
D14*
%TO.C,HOLE2*%
X40540000Y-3305000D03*
%TD*%
%TO.C,HOLE4*%
X300000Y-3305000D03*
%TD*%
D15*
%TO.C,USB1*%
X2377000Y-9810000D03*
X2377000Y-15590000D03*
D16*
X2877000Y-8375000D03*
X2877000Y-17025000D03*
D17*
X-1323000Y-8375000D03*
X-1323000Y-17025000D03*
%TD*%
D14*
%TO.C,HOLE3*%
X300000Y-22105000D03*
%TD*%
D18*
%TO.C,J1*%
X47400000Y-1270000D03*
X47400000Y-3810000D03*
X47400000Y-6350000D03*
X47400000Y-8890000D03*
X47400000Y-11430000D03*
X47400000Y-13970000D03*
X47400000Y-16510000D03*
X47400000Y-19050000D03*
X47400000Y-21590000D03*
X47400000Y-24130000D03*
%TD*%
D14*
%TO.C,HOLE1*%
X40540000Y-22105000D03*
%TD*%
%LPD*%
M02*
