%TF.GenerationSoftware,KiCad,Pcbnew,7.0.11*%
%TF.CreationDate,2024-04-19T17:04:30+08:00*%
%TF.ProjectId,UINIO-Logic-24MHz,55494e49-4f2d-44c6-9f67-69632d32344d,Version 3.2.0*%
%TF.SameCoordinates,PX7aa95e0PY587b5e0*%
%TF.FileFunction,Legend,Bot*%
%TF.FilePolarity,Positive*%
%FSLAX46Y46*%
G04 Gerber Fmt 4.6, Leading zero omitted, Abs format (unit mm)*
G04 Created by KiCad (PCBNEW 7.0.11) date 2024-04-19 17:04:30*
%MOMM*%
%LPD*%
G01*
G04 APERTURE LIST*
%ADD10C,0.200000*%
%ADD11C,0.325000*%
%ADD12C,0.300000*%
%ADD13C,0.100000*%
%ADD14C,2.200000*%
%ADD15C,0.650000*%
%ADD16O,2.100000X1.000000*%
%ADD17O,1.900000X1.000000*%
%ADD18R,1.700000X1.700000*%
%ADD19O,1.700000X1.700000*%
G04 APERTURE END LIST*
D10*
G36*
X42198160Y-18659898D02*
G01*
X42178198Y-18658110D01*
X42158458Y-18656379D01*
X42138942Y-18654704D01*
X42119648Y-18653086D01*
X42100576Y-18651525D01*
X42081728Y-18650021D01*
X42063102Y-18648573D01*
X42044699Y-18647182D01*
X42026519Y-18645848D01*
X42008562Y-18644571D01*
X41990827Y-18643351D01*
X41973316Y-18642187D01*
X41956027Y-18641080D01*
X41938960Y-18640030D01*
X41922117Y-18639036D01*
X41905496Y-18638100D01*
X41889098Y-18637220D01*
X41872923Y-18636397D01*
X41856971Y-18635630D01*
X41841241Y-18634921D01*
X41825735Y-18634268D01*
X41810451Y-18633672D01*
X41795389Y-18633132D01*
X41780551Y-18632650D01*
X41765935Y-18632224D01*
X41751542Y-18631855D01*
X41737372Y-18631543D01*
X41723425Y-18631288D01*
X41709700Y-18631089D01*
X41696198Y-18630947D01*
X41682919Y-18630862D01*
X41669863Y-18630833D01*
X41652506Y-18631095D01*
X41635726Y-18631879D01*
X41619525Y-18633186D01*
X41603902Y-18635016D01*
X41588857Y-18637369D01*
X41574391Y-18640244D01*
X41560502Y-18643643D01*
X41547192Y-18647564D01*
X41534460Y-18652008D01*
X41522306Y-18656975D01*
X41510730Y-18662465D01*
X41499733Y-18668477D01*
X41489313Y-18675013D01*
X41479472Y-18682071D01*
X41470209Y-18689652D01*
X41461524Y-18697756D01*
X41453420Y-18706441D01*
X41445839Y-18715704D01*
X41438781Y-18725545D01*
X41432245Y-18735965D01*
X41426233Y-18746962D01*
X41420743Y-18758538D01*
X41415776Y-18770692D01*
X41411332Y-18783424D01*
X41407411Y-18796734D01*
X41404012Y-18810623D01*
X41401137Y-18825089D01*
X41398784Y-18840134D01*
X41396954Y-18855757D01*
X41395647Y-18871958D01*
X41394863Y-18888738D01*
X41394601Y-18906095D01*
X41394601Y-19356235D01*
X41394871Y-19374783D01*
X41395681Y-19392692D01*
X41397031Y-19409961D01*
X41398921Y-19426592D01*
X41401351Y-19442583D01*
X41404321Y-19457935D01*
X41407831Y-19472648D01*
X41411882Y-19486721D01*
X41416472Y-19500156D01*
X41421602Y-19512951D01*
X41427272Y-19525107D01*
X41433482Y-19536623D01*
X41440232Y-19547501D01*
X41447522Y-19557739D01*
X41455352Y-19567338D01*
X41463722Y-19576297D01*
X41472710Y-19584668D01*
X41482334Y-19592498D01*
X41492593Y-19599788D01*
X41503488Y-19606538D01*
X41515018Y-19612748D01*
X41527183Y-19618418D01*
X41539984Y-19623548D01*
X41553420Y-19628138D01*
X41567492Y-19632188D01*
X41582199Y-19635698D01*
X41597541Y-19638668D01*
X41613519Y-19641098D01*
X41630133Y-19642988D01*
X41647381Y-19644338D01*
X41665265Y-19645148D01*
X41683785Y-19645418D01*
X42198160Y-19645418D01*
X42198160Y-19432927D01*
X41740205Y-19432927D01*
X41726499Y-19432253D01*
X41714142Y-19430231D01*
X41703132Y-19426860D01*
X41693471Y-19422142D01*
X41685157Y-19416076D01*
X41678192Y-19408661D01*
X41672575Y-19399898D01*
X41668306Y-19389788D01*
X41665385Y-19378329D01*
X41663812Y-19365522D01*
X41663513Y-19356235D01*
X41663513Y-18906095D01*
X41664097Y-18895551D01*
X41665848Y-18885899D01*
X41669368Y-18875768D01*
X41674477Y-18866852D01*
X41680121Y-18860177D01*
X41688020Y-18853706D01*
X41696971Y-18848824D01*
X41706974Y-18845531D01*
X41718028Y-18843828D01*
X41724818Y-18843569D01*
X41735591Y-18843595D01*
X41746845Y-18843672D01*
X41758580Y-18843801D01*
X41768727Y-18843947D01*
X41779208Y-18844130D01*
X41787832Y-18844302D01*
X41798889Y-18844543D01*
X41810077Y-18844807D01*
X41821395Y-18845096D01*
X41832846Y-18845408D01*
X41844427Y-18845745D01*
X41856139Y-18846105D01*
X41860861Y-18846256D01*
X41872774Y-18846714D01*
X41884698Y-18847172D01*
X41896635Y-18847629D01*
X41908584Y-18848087D01*
X41920544Y-18848545D01*
X41932517Y-18849003D01*
X41937309Y-18849187D01*
X41947311Y-18849595D01*
X41958024Y-18850087D01*
X41969446Y-18850663D01*
X41981578Y-18851324D01*
X41994420Y-18852068D01*
X42004517Y-18852681D01*
X42015013Y-18853342D01*
X42025909Y-18854049D01*
X42037204Y-18854804D01*
X42049036Y-18855600D01*
X42061542Y-18856430D01*
X42074722Y-18857294D01*
X42088575Y-18858193D01*
X42103103Y-18859126D01*
X42113163Y-18859767D01*
X42123522Y-18860424D01*
X42134181Y-18861095D01*
X42145140Y-18861782D01*
X42156398Y-18862484D01*
X42167956Y-18863202D01*
X42179813Y-18863935D01*
X42191970Y-18864683D01*
X42198160Y-18865062D01*
X42198160Y-18659898D01*
G37*
G36*
X43164141Y-18645000D02*
G01*
X42895229Y-18645000D01*
X42895229Y-19046046D01*
X42559151Y-19046046D01*
X42559151Y-18645000D01*
X42290484Y-18645000D01*
X42290484Y-19645418D01*
X42559151Y-19645418D01*
X42559151Y-19258538D01*
X42895229Y-19258538D01*
X42895229Y-19645418D01*
X43164141Y-19645418D01*
X43164141Y-18645000D01*
G37*
G36*
X43459919Y-18645000D02*
G01*
X43459919Y-19408503D01*
X43301650Y-19353548D01*
X43225446Y-19529159D01*
X43494357Y-19645418D01*
X43728830Y-19645418D01*
X43728830Y-18645000D01*
X43459919Y-18645000D01*
G37*
G36*
X41887268Y-5959898D02*
G01*
X41867306Y-5958110D01*
X41847566Y-5956379D01*
X41828050Y-5954704D01*
X41808756Y-5953086D01*
X41789684Y-5951525D01*
X41770836Y-5950021D01*
X41752210Y-5948573D01*
X41733807Y-5947182D01*
X41715627Y-5945848D01*
X41697670Y-5944571D01*
X41679935Y-5943351D01*
X41662424Y-5942187D01*
X41645135Y-5941080D01*
X41628068Y-5940030D01*
X41611225Y-5939036D01*
X41594604Y-5938100D01*
X41578206Y-5937220D01*
X41562031Y-5936397D01*
X41546079Y-5935630D01*
X41530349Y-5934921D01*
X41514843Y-5934268D01*
X41499559Y-5933672D01*
X41484497Y-5933132D01*
X41469659Y-5932650D01*
X41455043Y-5932224D01*
X41440650Y-5931855D01*
X41426480Y-5931543D01*
X41412533Y-5931288D01*
X41398808Y-5931089D01*
X41385306Y-5930947D01*
X41372027Y-5930862D01*
X41358971Y-5930833D01*
X41341614Y-5931095D01*
X41324834Y-5931879D01*
X41308633Y-5933186D01*
X41293010Y-5935016D01*
X41277965Y-5937369D01*
X41263499Y-5940244D01*
X41249610Y-5943643D01*
X41236300Y-5947564D01*
X41223568Y-5952008D01*
X41211414Y-5956975D01*
X41199838Y-5962465D01*
X41188841Y-5968477D01*
X41178421Y-5975013D01*
X41168580Y-5982071D01*
X41159317Y-5989652D01*
X41150632Y-5997756D01*
X41142528Y-6006441D01*
X41134947Y-6015704D01*
X41127889Y-6025545D01*
X41121353Y-6035965D01*
X41115341Y-6046962D01*
X41109851Y-6058538D01*
X41104884Y-6070692D01*
X41100440Y-6083424D01*
X41096519Y-6096734D01*
X41093120Y-6110623D01*
X41090245Y-6125089D01*
X41087892Y-6140134D01*
X41086062Y-6155757D01*
X41084755Y-6171958D01*
X41083971Y-6188738D01*
X41083709Y-6206095D01*
X41083709Y-6656235D01*
X41083979Y-6674783D01*
X41084789Y-6692692D01*
X41086139Y-6709961D01*
X41088029Y-6726592D01*
X41090459Y-6742583D01*
X41093429Y-6757935D01*
X41096939Y-6772648D01*
X41100990Y-6786721D01*
X41105580Y-6800156D01*
X41110710Y-6812951D01*
X41116380Y-6825107D01*
X41122590Y-6836623D01*
X41129340Y-6847501D01*
X41136630Y-6857739D01*
X41144460Y-6867338D01*
X41152830Y-6876297D01*
X41161818Y-6884668D01*
X41171442Y-6892498D01*
X41181701Y-6899788D01*
X41192596Y-6906538D01*
X41204126Y-6912748D01*
X41216291Y-6918418D01*
X41229092Y-6923548D01*
X41242528Y-6928138D01*
X41256600Y-6932188D01*
X41271307Y-6935698D01*
X41286649Y-6938668D01*
X41302627Y-6941098D01*
X41319241Y-6942988D01*
X41336489Y-6944338D01*
X41354373Y-6945148D01*
X41372893Y-6945418D01*
X41887268Y-6945418D01*
X41887268Y-6732927D01*
X41429313Y-6732927D01*
X41415607Y-6732253D01*
X41403250Y-6730231D01*
X41392240Y-6726860D01*
X41382579Y-6722142D01*
X41374265Y-6716076D01*
X41367300Y-6708661D01*
X41361683Y-6699898D01*
X41357414Y-6689788D01*
X41354493Y-6678329D01*
X41352920Y-6665522D01*
X41352621Y-6656235D01*
X41352621Y-6206095D01*
X41353205Y-6195551D01*
X41354956Y-6185899D01*
X41358476Y-6175768D01*
X41363585Y-6166852D01*
X41369229Y-6160177D01*
X41377128Y-6153706D01*
X41386079Y-6148824D01*
X41396082Y-6145531D01*
X41407136Y-6143828D01*
X41413926Y-6143569D01*
X41424699Y-6143595D01*
X41435953Y-6143672D01*
X41447688Y-6143801D01*
X41457835Y-6143947D01*
X41468316Y-6144130D01*
X41476940Y-6144302D01*
X41487997Y-6144543D01*
X41499185Y-6144807D01*
X41510503Y-6145096D01*
X41521954Y-6145408D01*
X41533535Y-6145745D01*
X41545247Y-6146105D01*
X41549969Y-6146256D01*
X41561882Y-6146714D01*
X41573806Y-6147172D01*
X41585743Y-6147629D01*
X41597692Y-6148087D01*
X41609652Y-6148545D01*
X41621625Y-6149003D01*
X41626417Y-6149187D01*
X41636419Y-6149595D01*
X41647132Y-6150087D01*
X41658554Y-6150663D01*
X41670686Y-6151324D01*
X41683528Y-6152068D01*
X41693625Y-6152681D01*
X41704121Y-6153342D01*
X41715017Y-6154049D01*
X41726312Y-6154804D01*
X41738144Y-6155600D01*
X41750650Y-6156430D01*
X41763830Y-6157294D01*
X41777683Y-6158193D01*
X41792211Y-6159126D01*
X41802271Y-6159767D01*
X41812630Y-6160424D01*
X41823289Y-6161095D01*
X41834248Y-6161782D01*
X41845506Y-6162484D01*
X41857064Y-6163202D01*
X41868921Y-6163935D01*
X41881078Y-6164683D01*
X41887268Y-6165062D01*
X41887268Y-5959898D01*
G37*
G36*
X42853249Y-5945000D02*
G01*
X42584337Y-5945000D01*
X42584337Y-6346046D01*
X42248259Y-6346046D01*
X42248259Y-5945000D01*
X41979592Y-5945000D01*
X41979592Y-6945418D01*
X42248259Y-6945418D01*
X42248259Y-6558538D01*
X42584337Y-6558538D01*
X42584337Y-6945418D01*
X42853249Y-6945418D01*
X42853249Y-5945000D01*
G37*
G36*
X43532992Y-5931086D02*
G01*
X43549768Y-5931845D01*
X43565965Y-5933109D01*
X43581581Y-5934879D01*
X43596617Y-5937154D01*
X43611073Y-5939935D01*
X43624949Y-5943222D01*
X43638245Y-5947015D01*
X43650961Y-5951313D01*
X43663097Y-5956116D01*
X43674653Y-5961426D01*
X43685628Y-5967241D01*
X43696024Y-5973562D01*
X43705840Y-5980388D01*
X43715075Y-5987720D01*
X43723730Y-5995558D01*
X43731864Y-6003938D01*
X43739473Y-6012838D01*
X43746557Y-6022257D01*
X43753116Y-6032194D01*
X43759150Y-6042651D01*
X43764660Y-6053627D01*
X43769645Y-6065121D01*
X43774105Y-6077135D01*
X43778041Y-6089668D01*
X43781452Y-6102719D01*
X43784338Y-6116290D01*
X43786699Y-6130380D01*
X43788536Y-6144989D01*
X43789848Y-6160116D01*
X43790635Y-6175763D01*
X43790897Y-6191929D01*
X43790897Y-6374867D01*
X43790662Y-6387079D01*
X43789958Y-6398986D01*
X43788785Y-6410587D01*
X43787142Y-6421884D01*
X43785030Y-6432875D01*
X43782448Y-6443560D01*
X43779397Y-6453941D01*
X43775876Y-6464016D01*
X43771886Y-6473785D01*
X43767427Y-6483250D01*
X43762498Y-6492409D01*
X43757100Y-6501263D01*
X43751232Y-6509811D01*
X43744895Y-6518054D01*
X43738089Y-6525992D01*
X43730813Y-6533625D01*
X43723152Y-6540901D01*
X43715189Y-6547707D01*
X43706925Y-6554044D01*
X43698360Y-6559911D01*
X43689492Y-6565310D01*
X43680324Y-6570238D01*
X43670854Y-6574698D01*
X43661082Y-6578688D01*
X43651009Y-6582208D01*
X43640634Y-6585259D01*
X43629958Y-6587841D01*
X43618981Y-6589953D01*
X43607702Y-6591596D01*
X43596121Y-6592770D01*
X43584239Y-6593474D01*
X43572055Y-6593709D01*
X43473381Y-6593709D01*
X43460371Y-6593605D01*
X43447167Y-6593296D01*
X43433771Y-6592781D01*
X43420182Y-6592060D01*
X43406401Y-6591133D01*
X43392426Y-6589999D01*
X43378259Y-6588660D01*
X43363900Y-6587114D01*
X43349347Y-6585362D01*
X43334602Y-6583405D01*
X43319664Y-6581241D01*
X43304533Y-6578871D01*
X43289210Y-6576295D01*
X43273694Y-6573513D01*
X43257985Y-6570525D01*
X43242083Y-6567330D01*
X43242083Y-6684323D01*
X43242389Y-6691894D01*
X43243992Y-6702336D01*
X43248266Y-6714548D01*
X43254982Y-6724806D01*
X43264142Y-6733110D01*
X43272614Y-6738056D01*
X43282460Y-6741903D01*
X43293680Y-6744651D01*
X43306273Y-6746299D01*
X43320241Y-6746849D01*
X43323211Y-6746846D01*
X43335263Y-6746783D01*
X43347590Y-6746636D01*
X43360191Y-6746405D01*
X43373067Y-6746091D01*
X43382905Y-6745799D01*
X43392897Y-6745461D01*
X43403043Y-6745075D01*
X43413344Y-6744642D01*
X43423800Y-6744162D01*
X43428016Y-6743799D01*
X43438581Y-6742915D01*
X43449182Y-6742067D01*
X43459819Y-6741255D01*
X43470491Y-6740478D01*
X43481200Y-6739738D01*
X43491944Y-6739033D01*
X43500863Y-6738518D01*
X43512880Y-6737799D01*
X43523190Y-6737163D01*
X43534118Y-6736474D01*
X43545664Y-6735732D01*
X43557829Y-6734936D01*
X43570611Y-6734087D01*
X43580604Y-6733415D01*
X43591048Y-6732764D01*
X43602045Y-6732090D01*
X43613596Y-6731395D01*
X43625701Y-6730679D01*
X43638360Y-6729941D01*
X43651573Y-6729182D01*
X43665339Y-6728402D01*
X43679660Y-6727599D01*
X43689514Y-6727053D01*
X43699615Y-6726496D01*
X43709962Y-6725931D01*
X43720555Y-6725355D01*
X43720555Y-6930519D01*
X43703206Y-6932308D01*
X43686024Y-6934039D01*
X43669010Y-6935714D01*
X43652163Y-6937331D01*
X43635484Y-6938893D01*
X43618972Y-6940397D01*
X43602628Y-6941844D01*
X43586451Y-6943235D01*
X43570441Y-6944569D01*
X43554599Y-6945847D01*
X43538924Y-6947067D01*
X43523417Y-6948231D01*
X43508077Y-6949338D01*
X43492905Y-6950388D01*
X43477900Y-6951381D01*
X43463062Y-6952318D01*
X43448392Y-6953198D01*
X43433889Y-6954021D01*
X43419554Y-6954787D01*
X43405386Y-6955497D01*
X43391386Y-6956150D01*
X43377553Y-6956746D01*
X43363888Y-6957285D01*
X43350390Y-6957768D01*
X43337059Y-6958193D01*
X43323896Y-6958562D01*
X43310900Y-6958875D01*
X43298072Y-6959130D01*
X43285411Y-6959329D01*
X43272918Y-6959471D01*
X43260592Y-6959556D01*
X43248434Y-6959584D01*
X43231076Y-6959322D01*
X43214297Y-6958535D01*
X43198096Y-6957223D01*
X43182473Y-6955386D01*
X43167428Y-6953025D01*
X43152961Y-6950139D01*
X43139073Y-6946728D01*
X43125763Y-6942793D01*
X43113031Y-6938332D01*
X43100877Y-6933347D01*
X43089301Y-6927837D01*
X43078303Y-6921803D01*
X43067884Y-6915244D01*
X43058043Y-6908160D01*
X43048779Y-6900551D01*
X43040095Y-6892418D01*
X43031991Y-6883762D01*
X43024410Y-6874527D01*
X43017351Y-6864711D01*
X43010816Y-6854316D01*
X43004803Y-6843340D01*
X42999314Y-6831784D01*
X42994347Y-6819648D01*
X42989903Y-6806933D01*
X42985981Y-6793637D01*
X42982583Y-6779760D01*
X42979707Y-6765304D01*
X42977355Y-6750268D01*
X42975525Y-6734652D01*
X42974218Y-6718456D01*
X42973433Y-6701679D01*
X42973172Y-6684323D01*
X42973172Y-6367784D01*
X43242083Y-6367784D01*
X43243359Y-6367925D01*
X43253593Y-6369097D01*
X43264189Y-6370362D01*
X43274305Y-6371600D01*
X43285589Y-6373005D01*
X43295458Y-6374249D01*
X43306075Y-6375600D01*
X43308846Y-6375945D01*
X43320099Y-6377218D01*
X43331618Y-6378315D01*
X43343405Y-6379237D01*
X43355459Y-6379983D01*
X43367779Y-6380553D01*
X43380368Y-6380948D01*
X43393223Y-6381168D01*
X43403039Y-6381217D01*
X43480464Y-6381217D01*
X43482699Y-6381170D01*
X43493127Y-6379534D01*
X43502315Y-6375561D01*
X43510262Y-6369249D01*
X43511682Y-6367760D01*
X43517406Y-6359598D01*
X43520841Y-6350243D01*
X43521986Y-6339696D01*
X43521986Y-6220017D01*
X43521686Y-6210760D01*
X43520113Y-6197993D01*
X43517192Y-6186571D01*
X43512923Y-6176492D01*
X43507306Y-6167758D01*
X43500341Y-6160367D01*
X43492028Y-6154319D01*
X43482366Y-6149616D01*
X43471357Y-6146257D01*
X43458999Y-6144241D01*
X43445293Y-6143569D01*
X43318776Y-6143569D01*
X43309489Y-6143868D01*
X43296682Y-6145435D01*
X43285223Y-6148347D01*
X43275112Y-6152602D01*
X43266349Y-6158202D01*
X43258935Y-6165145D01*
X43252868Y-6173431D01*
X43248150Y-6183062D01*
X43244780Y-6194037D01*
X43242757Y-6206355D01*
X43242083Y-6220017D01*
X43242083Y-6367784D01*
X42973172Y-6367784D01*
X42973172Y-6191929D01*
X42973433Y-6175763D01*
X42974218Y-6160116D01*
X42975525Y-6144989D01*
X42977355Y-6130380D01*
X42979707Y-6116290D01*
X42982583Y-6102719D01*
X42985981Y-6089668D01*
X42989903Y-6077135D01*
X42994347Y-6065121D01*
X42999314Y-6053627D01*
X43004803Y-6042651D01*
X43010816Y-6032194D01*
X43017351Y-6022257D01*
X43024410Y-6012838D01*
X43031991Y-6003938D01*
X43040095Y-5995558D01*
X43048779Y-5987720D01*
X43058043Y-5980388D01*
X43067884Y-5973562D01*
X43078303Y-5967241D01*
X43089301Y-5961426D01*
X43100877Y-5956116D01*
X43113031Y-5951313D01*
X43125763Y-5947015D01*
X43139073Y-5943222D01*
X43152961Y-5939935D01*
X43167428Y-5937154D01*
X43182473Y-5934879D01*
X43198096Y-5933109D01*
X43214297Y-5931845D01*
X43231076Y-5931086D01*
X43248434Y-5930833D01*
X43515635Y-5930833D01*
X43532992Y-5931086D01*
G37*
D11*
G36*
X15806605Y-6508300D02*
G01*
X16165276Y-7542180D01*
X16576703Y-7542180D01*
X16017631Y-6065000D01*
X15595580Y-6065000D01*
X15036141Y-7542180D01*
X15447935Y-7542180D01*
X15806605Y-6508300D01*
G37*
G36*
X16906344Y-6043792D02*
G01*
X16927288Y-6043916D01*
X16948379Y-6044124D01*
X16969617Y-6044414D01*
X16991003Y-6044788D01*
X17012536Y-6045244D01*
X17034217Y-6045784D01*
X17056045Y-6046407D01*
X17078020Y-6047112D01*
X17100143Y-6047901D01*
X17122413Y-6048772D01*
X17144831Y-6049727D01*
X17167396Y-6050764D01*
X17190109Y-6051885D01*
X17212968Y-6053088D01*
X17235976Y-6054375D01*
X17259130Y-6055745D01*
X17282432Y-6057197D01*
X17305882Y-6058733D01*
X17329479Y-6060351D01*
X17353223Y-6062053D01*
X17377115Y-6063837D01*
X17401154Y-6065705D01*
X17425340Y-6067656D01*
X17449674Y-6069689D01*
X17474155Y-6071806D01*
X17498784Y-6074005D01*
X17523560Y-6076288D01*
X17548484Y-6078654D01*
X17573555Y-6081102D01*
X17598773Y-6083634D01*
X17624139Y-6086249D01*
X17624139Y-6350031D01*
X17599141Y-6348070D01*
X17574522Y-6346171D01*
X17550283Y-6344335D01*
X17526422Y-6342561D01*
X17502941Y-6340849D01*
X17479840Y-6339199D01*
X17457117Y-6337611D01*
X17434774Y-6336086D01*
X17412810Y-6334623D01*
X17391225Y-6333223D01*
X17370020Y-6331884D01*
X17349194Y-6330608D01*
X17328747Y-6329394D01*
X17308679Y-6328242D01*
X17288990Y-6327153D01*
X17269681Y-6326126D01*
X17250751Y-6325161D01*
X17232200Y-6324258D01*
X17214029Y-6323418D01*
X17196237Y-6322639D01*
X17178824Y-6321924D01*
X17161790Y-6321270D01*
X17145135Y-6320678D01*
X17128860Y-6320149D01*
X17112964Y-6319682D01*
X17097447Y-6319278D01*
X17082309Y-6318935D01*
X17067551Y-6318655D01*
X17039172Y-6318282D01*
X17012310Y-6318157D01*
X17002715Y-6318667D01*
X16986705Y-6322154D01*
X16972318Y-6328945D01*
X16959554Y-6339040D01*
X16952332Y-6347382D01*
X16944302Y-6361296D01*
X16939633Y-6376890D01*
X16938305Y-6392163D01*
X16938305Y-6476427D01*
X17666637Y-6476427D01*
X17666637Y-6866971D01*
X17666286Y-6886486D01*
X17665234Y-6905462D01*
X17663481Y-6923900D01*
X17661027Y-6941801D01*
X17657871Y-6959163D01*
X17654014Y-6975987D01*
X17649456Y-6992273D01*
X17644197Y-7008021D01*
X17638236Y-7023231D01*
X17631575Y-7037903D01*
X17624212Y-7052036D01*
X17616147Y-7065632D01*
X17607382Y-7078689D01*
X17597915Y-7091209D01*
X17587747Y-7103190D01*
X17576878Y-7114633D01*
X17565390Y-7125502D01*
X17553367Y-7135670D01*
X17540809Y-7145137D01*
X17527716Y-7153903D01*
X17514088Y-7161967D01*
X17499924Y-7169330D01*
X17485225Y-7175992D01*
X17469991Y-7181953D01*
X17454221Y-7187212D01*
X17437917Y-7191770D01*
X17421077Y-7195627D01*
X17403702Y-7198782D01*
X17385791Y-7201237D01*
X17367346Y-7202990D01*
X17348365Y-7204042D01*
X17328849Y-7204392D01*
X16906797Y-7204392D01*
X16887281Y-7204042D01*
X16868300Y-7202990D01*
X16849855Y-7201237D01*
X16831945Y-7198782D01*
X16814569Y-7195627D01*
X16797730Y-7191770D01*
X16781425Y-7187212D01*
X16765656Y-7181953D01*
X16750421Y-7175992D01*
X16735722Y-7169330D01*
X16721559Y-7161967D01*
X16707930Y-7153903D01*
X16694837Y-7145137D01*
X16682279Y-7135670D01*
X16670256Y-7125502D01*
X16658769Y-7114633D01*
X16647899Y-7103190D01*
X16637731Y-7091209D01*
X16628265Y-7078689D01*
X16619499Y-7065632D01*
X16611435Y-7052036D01*
X16604072Y-7037903D01*
X16597410Y-7023231D01*
X16591449Y-7008021D01*
X16586190Y-6992273D01*
X16581632Y-6975987D01*
X16577775Y-6959163D01*
X16574619Y-6941801D01*
X16572165Y-6923900D01*
X16570412Y-6905462D01*
X16569360Y-6886486D01*
X16569009Y-6866971D01*
X16569009Y-6740209D01*
X16938305Y-6740209D01*
X16938305Y-6856346D01*
X16938387Y-6861531D01*
X16940371Y-6880622D01*
X16944999Y-6897079D01*
X16952272Y-6910904D01*
X16962190Y-6922095D01*
X16974752Y-6930653D01*
X16989959Y-6936578D01*
X17007810Y-6939870D01*
X17022935Y-6940610D01*
X17212712Y-6940610D01*
X17217918Y-6940528D01*
X17237092Y-6938553D01*
X17253622Y-6933945D01*
X17267506Y-6926703D01*
X17278746Y-6916829D01*
X17287341Y-6904321D01*
X17293292Y-6889180D01*
X17296598Y-6871405D01*
X17297342Y-6856346D01*
X17297342Y-6740209D01*
X16938305Y-6740209D01*
X16569009Y-6740209D01*
X16569009Y-6360289D01*
X16569347Y-6342603D01*
X16570360Y-6325359D01*
X16572049Y-6308554D01*
X16574413Y-6292191D01*
X16577453Y-6276269D01*
X16581168Y-6260787D01*
X16585559Y-6245746D01*
X16590625Y-6231146D01*
X16596367Y-6216986D01*
X16602784Y-6203268D01*
X16609876Y-6189990D01*
X16617644Y-6177153D01*
X16626088Y-6164756D01*
X16635207Y-6152801D01*
X16645001Y-6141286D01*
X16655471Y-6130212D01*
X16666545Y-6119742D01*
X16678060Y-6109948D01*
X16690016Y-6100829D01*
X16702412Y-6092385D01*
X16715249Y-6084617D01*
X16728527Y-6077525D01*
X16742245Y-6071107D01*
X16756405Y-6065366D01*
X16771005Y-6060300D01*
X16786046Y-6055909D01*
X16801528Y-6052194D01*
X16817450Y-6049154D01*
X16833814Y-6046790D01*
X16850618Y-6045101D01*
X16867863Y-6044088D01*
X16885548Y-6043750D01*
X16906344Y-6043792D01*
G37*
G36*
X18492788Y-6877595D02*
G01*
X18476132Y-6877348D01*
X18459409Y-6876605D01*
X18442621Y-6875367D01*
X18425767Y-6873634D01*
X18408846Y-6871406D01*
X18391861Y-6868682D01*
X18374809Y-6865464D01*
X18357691Y-6861750D01*
X18340508Y-6857541D01*
X18323259Y-6852837D01*
X18305944Y-6847638D01*
X18288563Y-6841944D01*
X18271116Y-6835754D01*
X18253604Y-6829069D01*
X18236026Y-6821889D01*
X18218381Y-6814214D01*
X18218381Y-6065000D01*
X17849086Y-6065000D01*
X17849086Y-7183510D01*
X18176250Y-7183510D01*
X18197132Y-7046123D01*
X18208506Y-7055860D01*
X18219911Y-7065288D01*
X18242819Y-7083217D01*
X18265856Y-7099910D01*
X18289021Y-7115366D01*
X18312315Y-7129585D01*
X18335738Y-7142568D01*
X18359290Y-7154315D01*
X18382971Y-7164825D01*
X18406780Y-7174099D01*
X18430718Y-7182136D01*
X18454785Y-7188936D01*
X18478981Y-7194501D01*
X18503305Y-7198828D01*
X18527759Y-7201919D01*
X18552341Y-7203774D01*
X18577052Y-7204392D01*
X18671940Y-7204392D01*
X18671940Y-6877595D01*
X18492788Y-6877595D01*
G37*
G36*
X18772691Y-6360289D02*
G01*
X18799281Y-6358351D01*
X18825517Y-6356474D01*
X18851399Y-6354658D01*
X18876927Y-6352905D01*
X18902101Y-6351212D01*
X18926920Y-6349582D01*
X18951385Y-6348012D01*
X18975496Y-6346505D01*
X18999253Y-6345059D01*
X19022655Y-6343674D01*
X19045704Y-6342351D01*
X19068398Y-6341089D01*
X19090738Y-6339889D01*
X19112724Y-6338751D01*
X19134355Y-6337674D01*
X19155633Y-6336659D01*
X19176556Y-6335705D01*
X19197125Y-6334812D01*
X19217340Y-6333982D01*
X19237200Y-6333212D01*
X19256707Y-6332505D01*
X19275859Y-6331859D01*
X19294657Y-6331274D01*
X19313101Y-6330751D01*
X19331190Y-6330289D01*
X19348926Y-6329889D01*
X19366307Y-6329551D01*
X19383334Y-6329274D01*
X19400007Y-6329059D01*
X19416325Y-6328905D01*
X19432290Y-6328813D01*
X19447900Y-6328782D01*
X19463012Y-6330087D01*
X19478481Y-6334675D01*
X19492327Y-6342568D01*
X19500656Y-6349665D01*
X19510928Y-6362458D01*
X19517838Y-6376931D01*
X19521158Y-6391208D01*
X19521906Y-6402787D01*
X19521906Y-6476427D01*
X19067980Y-6476427D01*
X19050295Y-6476764D01*
X19033050Y-6477778D01*
X19016246Y-6479466D01*
X18999882Y-6481830D01*
X18983960Y-6484870D01*
X18968478Y-6488585D01*
X18953437Y-6492976D01*
X18938837Y-6498042D01*
X18924677Y-6503784D01*
X18910959Y-6510201D01*
X18897681Y-6517293D01*
X18884844Y-6525061D01*
X18872448Y-6533505D01*
X18860492Y-6542624D01*
X18848977Y-6552419D01*
X18837903Y-6562889D01*
X18827433Y-6573962D01*
X18817639Y-6585477D01*
X18808520Y-6597433D01*
X18800076Y-6609829D01*
X18792308Y-6622666D01*
X18785216Y-6635944D01*
X18778799Y-6649662D01*
X18773057Y-6663822D01*
X18767991Y-6678422D01*
X18763600Y-6693463D01*
X18759885Y-6708945D01*
X18756845Y-6724867D01*
X18754481Y-6741231D01*
X18752792Y-6758035D01*
X18751779Y-6775280D01*
X18751441Y-6792965D01*
X18751441Y-6866971D01*
X18751779Y-6884655D01*
X18752792Y-6901896D01*
X18754481Y-6918693D01*
X18756845Y-6935046D01*
X18759885Y-6950956D01*
X18763600Y-6966422D01*
X18767991Y-6981444D01*
X18773057Y-6996023D01*
X18778799Y-7010158D01*
X18785216Y-7023849D01*
X18792308Y-7037097D01*
X18800076Y-7049901D01*
X18808520Y-7062262D01*
X18817639Y-7074179D01*
X18827433Y-7085652D01*
X18837903Y-7096681D01*
X18848977Y-7107196D01*
X18860492Y-7117032D01*
X18872448Y-7126189D01*
X18884844Y-7134669D01*
X18897681Y-7142470D01*
X18910959Y-7149592D01*
X18924677Y-7156037D01*
X18938837Y-7161803D01*
X18953437Y-7166890D01*
X18968478Y-7171299D01*
X18983960Y-7175030D01*
X18999882Y-7178083D01*
X19016246Y-7180457D01*
X19033050Y-7182153D01*
X19050295Y-7183170D01*
X19067980Y-7183510D01*
X19785688Y-7183510D01*
X19785688Y-6909103D01*
X19194742Y-6909103D01*
X19179469Y-6907775D01*
X19163875Y-6903106D01*
X19149961Y-6895075D01*
X19141619Y-6887854D01*
X19131525Y-6875238D01*
X19124734Y-6860883D01*
X19121246Y-6844789D01*
X19120737Y-6835097D01*
X19122042Y-6819985D01*
X19126630Y-6804516D01*
X19134523Y-6790670D01*
X19141619Y-6782341D01*
X19154412Y-6772246D01*
X19168886Y-6765455D01*
X19185041Y-6761968D01*
X19194742Y-6761458D01*
X19574662Y-6761458D01*
X19592346Y-6761119D01*
X19609587Y-6760101D01*
X19626384Y-6758405D01*
X19642737Y-6756031D01*
X19658647Y-6752979D01*
X19674113Y-6749248D01*
X19689135Y-6744838D01*
X19703714Y-6739751D01*
X19717849Y-6733985D01*
X19731540Y-6727541D01*
X19744788Y-6720418D01*
X19757592Y-6712617D01*
X19769953Y-6704138D01*
X19781870Y-6694980D01*
X19793343Y-6685144D01*
X19804372Y-6674630D01*
X19814887Y-6663600D01*
X19824723Y-6652127D01*
X19833880Y-6640210D01*
X19842360Y-6627850D01*
X19850161Y-6615045D01*
X19857283Y-6601798D01*
X19863728Y-6588106D01*
X19869494Y-6573971D01*
X19874581Y-6559392D01*
X19878990Y-6544370D01*
X19882721Y-6528904D01*
X19885774Y-6512994D01*
X19888148Y-6496641D01*
X19889844Y-6479844D01*
X19890862Y-6462603D01*
X19891201Y-6444919D01*
X19891201Y-6360289D01*
X19890862Y-6342603D01*
X19889844Y-6325359D01*
X19888148Y-6308554D01*
X19885774Y-6292191D01*
X19882721Y-6276269D01*
X19878990Y-6260787D01*
X19874581Y-6245746D01*
X19869494Y-6231146D01*
X19863728Y-6216986D01*
X19857283Y-6203268D01*
X19850161Y-6189990D01*
X19842360Y-6177153D01*
X19833880Y-6164756D01*
X19824723Y-6152801D01*
X19814887Y-6141286D01*
X19804372Y-6130212D01*
X19793343Y-6119742D01*
X19781870Y-6109948D01*
X19769953Y-6100829D01*
X19757592Y-6092385D01*
X19744788Y-6084617D01*
X19731540Y-6077525D01*
X19717849Y-6071107D01*
X19703714Y-6065366D01*
X19689135Y-6060300D01*
X19674113Y-6055909D01*
X19658647Y-6052194D01*
X19642737Y-6049154D01*
X19626384Y-6046790D01*
X19609587Y-6045101D01*
X19592346Y-6044088D01*
X19574662Y-6043750D01*
X19551253Y-6043792D01*
X19527737Y-6043916D01*
X19504115Y-6044124D01*
X19480386Y-6044414D01*
X19456551Y-6044788D01*
X19432609Y-6045244D01*
X19408560Y-6045784D01*
X19384404Y-6046407D01*
X19360142Y-6047112D01*
X19335774Y-6047901D01*
X19311299Y-6048772D01*
X19286717Y-6049727D01*
X19262028Y-6050764D01*
X19237233Y-6051885D01*
X19212332Y-6053088D01*
X19187323Y-6054375D01*
X19162208Y-6055745D01*
X19136987Y-6057197D01*
X19111659Y-6058733D01*
X19086224Y-6060351D01*
X19060683Y-6062053D01*
X19035035Y-6063837D01*
X19009280Y-6065705D01*
X18983419Y-6067656D01*
X18957451Y-6069689D01*
X18931376Y-6071806D01*
X18905195Y-6074005D01*
X18878908Y-6076288D01*
X18852513Y-6078654D01*
X18826012Y-6081102D01*
X18799405Y-6083634D01*
X18772691Y-6086249D01*
X18772691Y-6360289D01*
G37*
G36*
X20476284Y-7141378D02*
G01*
X20476284Y-6065000D01*
X20106989Y-6065000D01*
X20106989Y-6856346D01*
X19948720Y-6856346D01*
X19948720Y-7141378D01*
X20476284Y-7141378D01*
G37*
G36*
X20106989Y-7563429D02*
G01*
X20476284Y-7563429D01*
X20476284Y-7267773D01*
X20106989Y-7267773D01*
X20106989Y-7563429D01*
G37*
G36*
X21504766Y-6044101D02*
G01*
X21523743Y-6045153D01*
X21542181Y-6046906D01*
X21560082Y-6049360D01*
X21577444Y-6052516D01*
X21594268Y-6056373D01*
X21610554Y-6060931D01*
X21626302Y-6066190D01*
X21641512Y-6072151D01*
X21656183Y-6078813D01*
X21670317Y-6086176D01*
X21683913Y-6094240D01*
X21696970Y-6103005D01*
X21709489Y-6112472D01*
X21721471Y-6122640D01*
X21732914Y-6133510D01*
X21743783Y-6144997D01*
X21753951Y-6157020D01*
X21763418Y-6169578D01*
X21772184Y-6182671D01*
X21780248Y-6196300D01*
X21787611Y-6210463D01*
X21794273Y-6225162D01*
X21800233Y-6240396D01*
X21805493Y-6256166D01*
X21810051Y-6272470D01*
X21813908Y-6289310D01*
X21817063Y-6306685D01*
X21819518Y-6324596D01*
X21821271Y-6343041D01*
X21822323Y-6362022D01*
X21822673Y-6381538D01*
X21822673Y-6866971D01*
X21822323Y-6886486D01*
X21821271Y-6905462D01*
X21819518Y-6923900D01*
X21817063Y-6941801D01*
X21813908Y-6959163D01*
X21810051Y-6975987D01*
X21805493Y-6992273D01*
X21800233Y-7008021D01*
X21794273Y-7023231D01*
X21787611Y-7037903D01*
X21780248Y-7052036D01*
X21772184Y-7065632D01*
X21763418Y-7078689D01*
X21753951Y-7091209D01*
X21743783Y-7103190D01*
X21732914Y-7114633D01*
X21721471Y-7125502D01*
X21709489Y-7135670D01*
X21696970Y-7145137D01*
X21683913Y-7153903D01*
X21670317Y-7161967D01*
X21656183Y-7169330D01*
X21641512Y-7175992D01*
X21626302Y-7181953D01*
X21610554Y-7187212D01*
X21594268Y-7191770D01*
X21577444Y-7195627D01*
X21560082Y-7198782D01*
X21542181Y-7201237D01*
X21523743Y-7202990D01*
X21504766Y-7204042D01*
X21485252Y-7204392D01*
X20999819Y-7204392D01*
X20980303Y-7204042D01*
X20961322Y-7202990D01*
X20942877Y-7201237D01*
X20924966Y-7198782D01*
X20907591Y-7195627D01*
X20890751Y-7191770D01*
X20874447Y-7187212D01*
X20858677Y-7181953D01*
X20843443Y-7175992D01*
X20828744Y-7169330D01*
X20814580Y-7161967D01*
X20800952Y-7153903D01*
X20787859Y-7145137D01*
X20775301Y-7135670D01*
X20763278Y-7125502D01*
X20751790Y-7114633D01*
X20740921Y-7103190D01*
X20730753Y-7091209D01*
X20721286Y-7078689D01*
X20712521Y-7065632D01*
X20704456Y-7052036D01*
X20697093Y-7037903D01*
X20690432Y-7023231D01*
X20684471Y-7008021D01*
X20679212Y-6992273D01*
X20674654Y-6975987D01*
X20670797Y-6959163D01*
X20667641Y-6941801D01*
X20665187Y-6923900D01*
X20663434Y-6905462D01*
X20662382Y-6886486D01*
X20662031Y-6866971D01*
X20662031Y-6835097D01*
X21031326Y-6835097D01*
X21031409Y-6840304D01*
X21033392Y-6859478D01*
X21038021Y-6876007D01*
X21045294Y-6889892D01*
X21055211Y-6901132D01*
X21067773Y-6909727D01*
X21082980Y-6915678D01*
X21100832Y-6918984D01*
X21115956Y-6919727D01*
X21369114Y-6919727D01*
X21374298Y-6919645D01*
X21393389Y-6917661D01*
X21409847Y-6913033D01*
X21423672Y-6905760D01*
X21434863Y-6895842D01*
X21443421Y-6883280D01*
X21449346Y-6868073D01*
X21452637Y-6850222D01*
X21453378Y-6835097D01*
X21453378Y-6413046D01*
X21453296Y-6407861D01*
X21451321Y-6388770D01*
X21446713Y-6372313D01*
X21439471Y-6358488D01*
X21429596Y-6347297D01*
X21417089Y-6338739D01*
X21401947Y-6332814D01*
X21384173Y-6329522D01*
X21369114Y-6328782D01*
X21115956Y-6328782D01*
X21110750Y-6328864D01*
X21091576Y-6330839D01*
X21075046Y-6335447D01*
X21061162Y-6342689D01*
X21049922Y-6352563D01*
X21041327Y-6365071D01*
X21035376Y-6380212D01*
X21032070Y-6397987D01*
X21031326Y-6413046D01*
X21031326Y-6835097D01*
X20662031Y-6835097D01*
X20662031Y-6381538D01*
X20662382Y-6362022D01*
X20663434Y-6343041D01*
X20665187Y-6324596D01*
X20667641Y-6306685D01*
X20670797Y-6289310D01*
X20674654Y-6272470D01*
X20679212Y-6256166D01*
X20684471Y-6240396D01*
X20690432Y-6225162D01*
X20697093Y-6210463D01*
X20704456Y-6196300D01*
X20712521Y-6182671D01*
X20721286Y-6169578D01*
X20730753Y-6157020D01*
X20740921Y-6144997D01*
X20751790Y-6133510D01*
X20763278Y-6122640D01*
X20775301Y-6112472D01*
X20787859Y-6103005D01*
X20800952Y-6094240D01*
X20814580Y-6086176D01*
X20828744Y-6078813D01*
X20843443Y-6072151D01*
X20858677Y-6066190D01*
X20874447Y-6060931D01*
X20890751Y-6056373D01*
X20907591Y-6052516D01*
X20924966Y-6049360D01*
X20942877Y-6046906D01*
X20961322Y-6045153D01*
X20980303Y-6044101D01*
X20999819Y-6043750D01*
X21485252Y-6043750D01*
X21504766Y-6044101D01*
G37*
G36*
X22627575Y-6898478D02*
G01*
X22606363Y-6898108D01*
X22584629Y-6896997D01*
X22569850Y-6895845D01*
X22554839Y-6894364D01*
X22539596Y-6892553D01*
X22524122Y-6890414D01*
X22508415Y-6887945D01*
X22492477Y-6885147D01*
X22476307Y-6882020D01*
X22459905Y-6878564D01*
X22443271Y-6874779D01*
X22426406Y-6870665D01*
X22409308Y-6866221D01*
X22391979Y-6861448D01*
X22374418Y-6856346D01*
X22374418Y-6065000D01*
X22005123Y-6065000D01*
X22005123Y-7183510D01*
X22332286Y-7183510D01*
X22353169Y-7077997D01*
X22365599Y-7086012D01*
X22378070Y-7093756D01*
X22396851Y-7104862D01*
X22415722Y-7115356D01*
X22434684Y-7125238D01*
X22453736Y-7134508D01*
X22472877Y-7143167D01*
X22492109Y-7151214D01*
X22511432Y-7158649D01*
X22530844Y-7165472D01*
X22550346Y-7171683D01*
X22556867Y-7173618D01*
X22576158Y-7179118D01*
X22594876Y-7184076D01*
X22613021Y-7188494D01*
X22630592Y-7192371D01*
X22647591Y-7195707D01*
X22664016Y-7198502D01*
X22679868Y-7200756D01*
X22695147Y-7202469D01*
X22709852Y-7203641D01*
X22728569Y-7204362D01*
X22733088Y-7204392D01*
X22827977Y-7204392D01*
X22845705Y-7204055D01*
X22862987Y-7203041D01*
X22879823Y-7201353D01*
X22896212Y-7198989D01*
X22912155Y-7195949D01*
X22927651Y-7192234D01*
X22942700Y-7187843D01*
X22957303Y-7182777D01*
X22971460Y-7177035D01*
X22985170Y-7170618D01*
X22998433Y-7163526D01*
X23011250Y-7155758D01*
X23023621Y-7147314D01*
X23035545Y-7138195D01*
X23047022Y-7128400D01*
X23058053Y-7117930D01*
X23068523Y-7106899D01*
X23078318Y-7095422D01*
X23087437Y-7083498D01*
X23095881Y-7071127D01*
X23103649Y-7058310D01*
X23110741Y-7045047D01*
X23117158Y-7031337D01*
X23122900Y-7017180D01*
X23127966Y-7002577D01*
X23132357Y-6987528D01*
X23136072Y-6972032D01*
X23139112Y-6956089D01*
X23141476Y-6939700D01*
X23143164Y-6922864D01*
X23144178Y-6905582D01*
X23144515Y-6887854D01*
X23144515Y-6065000D01*
X22775220Y-6065000D01*
X22775220Y-6824839D01*
X22773892Y-6839929D01*
X22769223Y-6855317D01*
X22761192Y-6869025D01*
X22753971Y-6877229D01*
X22741384Y-6887501D01*
X22727116Y-6894411D01*
X22711168Y-6897959D01*
X22701581Y-6898478D01*
X22627575Y-6898478D01*
G37*
G36*
X24674453Y-6043750D02*
G01*
X24652351Y-6043792D01*
X24630101Y-6043916D01*
X24607703Y-6044124D01*
X24585157Y-6044414D01*
X24562463Y-6044788D01*
X24539621Y-6045244D01*
X24516630Y-6045784D01*
X24493492Y-6046407D01*
X24470205Y-6047112D01*
X24446770Y-6047901D01*
X24423187Y-6048772D01*
X24399456Y-6049727D01*
X24375577Y-6050764D01*
X24351550Y-6051885D01*
X24327374Y-6053088D01*
X24303051Y-6054375D01*
X24278579Y-6055745D01*
X24253959Y-6057197D01*
X24229192Y-6058733D01*
X24204276Y-6060351D01*
X24179211Y-6062053D01*
X24153999Y-6063837D01*
X24128639Y-6065705D01*
X24103130Y-6067656D01*
X24077474Y-6069689D01*
X24051669Y-6071806D01*
X24025716Y-6074005D01*
X23999615Y-6076288D01*
X23973366Y-6078654D01*
X23946969Y-6081102D01*
X23920424Y-6083634D01*
X23893730Y-6086249D01*
X23893730Y-6370914D01*
X23922648Y-6368975D01*
X23951105Y-6367098D01*
X23979100Y-6365283D01*
X24006634Y-6363529D01*
X24033705Y-6361837D01*
X24060316Y-6360206D01*
X24086465Y-6358637D01*
X24112152Y-6357129D01*
X24137378Y-6355683D01*
X24162142Y-6354298D01*
X24186445Y-6352975D01*
X24210286Y-6351714D01*
X24233666Y-6350514D01*
X24256584Y-6349375D01*
X24279041Y-6348299D01*
X24301036Y-6347283D01*
X24322569Y-6346329D01*
X24343641Y-6345437D01*
X24364252Y-6344606D01*
X24384401Y-6343837D01*
X24404088Y-6343129D01*
X24423314Y-6342483D01*
X24442079Y-6341899D01*
X24460381Y-6341376D01*
X24478223Y-6340914D01*
X24495602Y-6340514D01*
X24512521Y-6340176D01*
X24528977Y-6339899D01*
X24544973Y-6339683D01*
X24560506Y-6339529D01*
X24575578Y-6339437D01*
X24590189Y-6339406D01*
X24607628Y-6340398D01*
X24623677Y-6343373D01*
X24638334Y-6348332D01*
X24651601Y-6355274D01*
X24663476Y-6364200D01*
X24667125Y-6367616D01*
X24676837Y-6379041D01*
X24684539Y-6391882D01*
X24690232Y-6406140D01*
X24693916Y-6421815D01*
X24695590Y-6438907D01*
X24695702Y-6444919D01*
X24695702Y-6529183D01*
X24695207Y-6544533D01*
X24692607Y-6565701D01*
X24687779Y-6584641D01*
X24680723Y-6601353D01*
X24671439Y-6615837D01*
X24659926Y-6628092D01*
X24646185Y-6638119D01*
X24630216Y-6645918D01*
X24612019Y-6651489D01*
X24591593Y-6654831D01*
X24576739Y-6655821D01*
X24568940Y-6655945D01*
X24126005Y-6655945D01*
X24126005Y-6951235D01*
X24526808Y-6951235D01*
X24542158Y-6951730D01*
X24563326Y-6954329D01*
X24582266Y-6959157D01*
X24598978Y-6966213D01*
X24613462Y-6975498D01*
X24625717Y-6987010D01*
X24635744Y-7000751D01*
X24643543Y-7016720D01*
X24649113Y-7034917D01*
X24652456Y-7055343D01*
X24653446Y-7070198D01*
X24653570Y-7077997D01*
X24653570Y-7120129D01*
X24653075Y-7135479D01*
X24650475Y-7156647D01*
X24645647Y-7175587D01*
X24638591Y-7192299D01*
X24629307Y-7206782D01*
X24617794Y-7219038D01*
X24604053Y-7229065D01*
X24588084Y-7236864D01*
X24569887Y-7242434D01*
X24549462Y-7245777D01*
X24534607Y-7246767D01*
X24526808Y-7246891D01*
X23914979Y-7246891D01*
X23914979Y-7542180D01*
X24632321Y-7542180D01*
X24657766Y-7541812D01*
X24682352Y-7540709D01*
X24706080Y-7538870D01*
X24728949Y-7536296D01*
X24750960Y-7532985D01*
X24772112Y-7528940D01*
X24792405Y-7524158D01*
X24811839Y-7518641D01*
X24830415Y-7512389D01*
X24848132Y-7505401D01*
X24864991Y-7497677D01*
X24880990Y-7489218D01*
X24896132Y-7480023D01*
X24910414Y-7470092D01*
X24923838Y-7459426D01*
X24936403Y-7448025D01*
X24948160Y-7435917D01*
X24959158Y-7423043D01*
X24969397Y-7409402D01*
X24978878Y-7394993D01*
X24987601Y-7379818D01*
X24995565Y-7363875D01*
X25002771Y-7347166D01*
X25009218Y-7329689D01*
X25014907Y-7311445D01*
X25019837Y-7292434D01*
X25024008Y-7272656D01*
X25027422Y-7252111D01*
X25030076Y-7230799D01*
X25031973Y-7208720D01*
X25033110Y-7185874D01*
X25033490Y-7162260D01*
X25033262Y-7146646D01*
X25032579Y-7131400D01*
X25031442Y-7116524D01*
X25028882Y-7094901D01*
X25025298Y-7074110D01*
X25020690Y-7054149D01*
X25015058Y-7035019D01*
X25008403Y-7016720D01*
X25000723Y-6999251D01*
X24992019Y-6982614D01*
X24982292Y-6966807D01*
X24975238Y-6956730D01*
X24964059Y-6942308D01*
X24952230Y-6928716D01*
X24939750Y-6915955D01*
X24926620Y-6904025D01*
X24912839Y-6892926D01*
X24898409Y-6882657D01*
X24883327Y-6873219D01*
X24867595Y-6864612D01*
X24851213Y-6856836D01*
X24834180Y-6849891D01*
X24822464Y-6845722D01*
X24843377Y-6839379D01*
X24863434Y-6831983D01*
X24882635Y-6823534D01*
X24900980Y-6814031D01*
X24918470Y-6803475D01*
X24935104Y-6791866D01*
X24950882Y-6779204D01*
X24965804Y-6765488D01*
X24979870Y-6750719D01*
X24993081Y-6734897D01*
X25005436Y-6718021D01*
X25016935Y-6700092D01*
X25027578Y-6681110D01*
X25037365Y-6661074D01*
X25046297Y-6639985D01*
X25054372Y-6617843D01*
X25059353Y-6601202D01*
X25063669Y-6583886D01*
X25067321Y-6565894D01*
X25070309Y-6547226D01*
X25072633Y-6527884D01*
X25073941Y-6512933D01*
X25074874Y-6497603D01*
X25075435Y-6481892D01*
X25075621Y-6465802D01*
X25075621Y-6444919D01*
X25075242Y-6419474D01*
X25074105Y-6394888D01*
X25072208Y-6371160D01*
X25069554Y-6348291D01*
X25066140Y-6326280D01*
X25061969Y-6305128D01*
X25057039Y-6284835D01*
X25051350Y-6265401D01*
X25044903Y-6246825D01*
X25037697Y-6229108D01*
X25029733Y-6212249D01*
X25021010Y-6196250D01*
X25011529Y-6181108D01*
X25001290Y-6166826D01*
X24990292Y-6153402D01*
X24978535Y-6140837D01*
X24965970Y-6129080D01*
X24952546Y-6118082D01*
X24938264Y-6107843D01*
X24923122Y-6098362D01*
X24907123Y-6089639D01*
X24890264Y-6081675D01*
X24872547Y-6074469D01*
X24853971Y-6068022D01*
X24834537Y-6062333D01*
X24814243Y-6057403D01*
X24793092Y-6053231D01*
X24771081Y-6049818D01*
X24748212Y-6047164D01*
X24724484Y-6045267D01*
X24699898Y-6044130D01*
X24674453Y-6043750D01*
G37*
G36*
X25195789Y-6381538D02*
G01*
X25575709Y-6381538D01*
X25575709Y-6065000D01*
X25195789Y-6065000D01*
X25195789Y-6381538D01*
G37*
G36*
X26818416Y-7077997D02*
G01*
X26817822Y-7055747D01*
X26816041Y-7033878D01*
X26813071Y-7012390D01*
X26808914Y-6991283D01*
X26803569Y-6970556D01*
X26797036Y-6950210D01*
X26789315Y-6930245D01*
X26780406Y-6910660D01*
X26770310Y-6891456D01*
X26759025Y-6872632D01*
X26746553Y-6854190D01*
X26732893Y-6836128D01*
X26718045Y-6818446D01*
X26702010Y-6801146D01*
X26684786Y-6784226D01*
X26666375Y-6767686D01*
X26654611Y-6757697D01*
X26642584Y-6747696D01*
X26630294Y-6737684D01*
X26617740Y-6727661D01*
X26604923Y-6717626D01*
X26591843Y-6707580D01*
X26578499Y-6697522D01*
X26564892Y-6687452D01*
X26111333Y-6360289D01*
X26818416Y-6360289D01*
X26818416Y-6065000D01*
X25678657Y-6065000D01*
X25678657Y-6465802D01*
X26438497Y-7014616D01*
X26438497Y-7120129D01*
X26438001Y-7135479D01*
X26435402Y-7156647D01*
X26430574Y-7175587D01*
X26423518Y-7192299D01*
X26414234Y-7206782D01*
X26402721Y-7219038D01*
X26388980Y-7229065D01*
X26373011Y-7236864D01*
X26354814Y-7242434D01*
X26334388Y-7245777D01*
X26319533Y-7246767D01*
X26311735Y-7246891D01*
X25720789Y-7246891D01*
X25720789Y-7542180D01*
X26396365Y-7542180D01*
X26423553Y-7541788D01*
X26449797Y-7540612D01*
X26475096Y-7538651D01*
X26499450Y-7535906D01*
X26522861Y-7532377D01*
X26545326Y-7528064D01*
X26566847Y-7522966D01*
X26587424Y-7517084D01*
X26607056Y-7510418D01*
X26625743Y-7502968D01*
X26643486Y-7494733D01*
X26660284Y-7485714D01*
X26676138Y-7475911D01*
X26691047Y-7465324D01*
X26705012Y-7453952D01*
X26718033Y-7441796D01*
X26730188Y-7428819D01*
X26741560Y-7414892D01*
X26752147Y-7400014D01*
X26761950Y-7384186D01*
X26770969Y-7367407D01*
X26779204Y-7349679D01*
X26786654Y-7331000D01*
X26793320Y-7311371D01*
X26799202Y-7290791D01*
X26804300Y-7269262D01*
X26808613Y-7246782D01*
X26812142Y-7223352D01*
X26814887Y-7198971D01*
X26816848Y-7173641D01*
X26818024Y-7147360D01*
X26818416Y-7120129D01*
X26818416Y-7077997D01*
G37*
G36*
X26938217Y-6381538D02*
G01*
X27318137Y-6381538D01*
X27318137Y-6065000D01*
X26938217Y-6065000D01*
X26938217Y-6381538D01*
G37*
G36*
X28313669Y-6044142D02*
G01*
X28339950Y-6045319D01*
X28365281Y-6047279D01*
X28389661Y-6050024D01*
X28413091Y-6053553D01*
X28435571Y-6057867D01*
X28457101Y-6062964D01*
X28477680Y-6068846D01*
X28497309Y-6075512D01*
X28515988Y-6082963D01*
X28533717Y-6091197D01*
X28550495Y-6100216D01*
X28566323Y-6110019D01*
X28581201Y-6120607D01*
X28595128Y-6131978D01*
X28608106Y-6144134D01*
X28620262Y-6157154D01*
X28631633Y-6171119D01*
X28642221Y-6186029D01*
X28652024Y-6201882D01*
X28661043Y-6218681D01*
X28669277Y-6236424D01*
X28676728Y-6255111D01*
X28683394Y-6274743D01*
X28689276Y-6295320D01*
X28694373Y-6316841D01*
X28698686Y-6339306D01*
X28702216Y-6362716D01*
X28704960Y-6387071D01*
X28706921Y-6412370D01*
X28708097Y-6438614D01*
X28708490Y-6465802D01*
X28708490Y-7141378D01*
X28708097Y-7168566D01*
X28706921Y-7194810D01*
X28704960Y-7220109D01*
X28702216Y-7244463D01*
X28698686Y-7267874D01*
X28694373Y-7290339D01*
X28689276Y-7311860D01*
X28683394Y-7332437D01*
X28676728Y-7352069D01*
X28669277Y-7370756D01*
X28661043Y-7388499D01*
X28652024Y-7405297D01*
X28642221Y-7421151D01*
X28631633Y-7436061D01*
X28620262Y-7450025D01*
X28608106Y-7463046D01*
X28595128Y-7475201D01*
X28581201Y-7486573D01*
X28566323Y-7497160D01*
X28550495Y-7506963D01*
X28533717Y-7515982D01*
X28515988Y-7524217D01*
X28497309Y-7531667D01*
X28477680Y-7538333D01*
X28457101Y-7544215D01*
X28435571Y-7549313D01*
X28413091Y-7553626D01*
X28389661Y-7557155D01*
X28365281Y-7559900D01*
X28339950Y-7561861D01*
X28313669Y-7563037D01*
X28286438Y-7563429D01*
X27885269Y-7563429D01*
X27858081Y-7563037D01*
X27831837Y-7561861D01*
X27806538Y-7559900D01*
X27782183Y-7557155D01*
X27758773Y-7553626D01*
X27736308Y-7549313D01*
X27714787Y-7544215D01*
X27694210Y-7538333D01*
X27674578Y-7531667D01*
X27655891Y-7524217D01*
X27638148Y-7515982D01*
X27621349Y-7506963D01*
X27605496Y-7497160D01*
X27590586Y-7486573D01*
X27576621Y-7475201D01*
X27563601Y-7463046D01*
X27551445Y-7450025D01*
X27540074Y-7436061D01*
X27529486Y-7421151D01*
X27519683Y-7405297D01*
X27510664Y-7388499D01*
X27502430Y-7370756D01*
X27494980Y-7352069D01*
X27488313Y-7332437D01*
X27482432Y-7311860D01*
X27477334Y-7290339D01*
X27473021Y-7267874D01*
X27469491Y-7244463D01*
X27466747Y-7220109D01*
X27464786Y-7194810D01*
X27463610Y-7168566D01*
X27463217Y-7141378D01*
X27843137Y-7141378D01*
X27843261Y-7149154D01*
X27844251Y-7163966D01*
X27847594Y-7184333D01*
X27853164Y-7202477D01*
X27860963Y-7218400D01*
X27870990Y-7232101D01*
X27883245Y-7243580D01*
X27897729Y-7252838D01*
X27914441Y-7259874D01*
X27933381Y-7264688D01*
X27954549Y-7267280D01*
X27969899Y-7267773D01*
X28201808Y-7267773D01*
X28209607Y-7267650D01*
X28224462Y-7266663D01*
X28244887Y-7263330D01*
X28263084Y-7257775D01*
X28279053Y-7249999D01*
X28292794Y-7240001D01*
X28304307Y-7227781D01*
X28313591Y-7213339D01*
X28320647Y-7196676D01*
X28325475Y-7177791D01*
X28328075Y-7156683D01*
X28328570Y-7141378D01*
X28328570Y-6465802D01*
X28328446Y-6458026D01*
X28327456Y-6443214D01*
X28324113Y-6422847D01*
X28318543Y-6404703D01*
X28310744Y-6388780D01*
X28300717Y-6375079D01*
X28288462Y-6363599D01*
X28273978Y-6354342D01*
X28257266Y-6347306D01*
X28238326Y-6342492D01*
X28217158Y-6339900D01*
X28201808Y-6339406D01*
X27969899Y-6339406D01*
X27962100Y-6339530D01*
X27947245Y-6340517D01*
X27926820Y-6343850D01*
X27908623Y-6349404D01*
X27892654Y-6357181D01*
X27878913Y-6367179D01*
X27867400Y-6379399D01*
X27858116Y-6393840D01*
X27851060Y-6410504D01*
X27846232Y-6429389D01*
X27843632Y-6450496D01*
X27843137Y-6465802D01*
X27843137Y-7141378D01*
X27463217Y-7141378D01*
X27463217Y-6465802D01*
X27463610Y-6438614D01*
X27464786Y-6412370D01*
X27466747Y-6387071D01*
X27469491Y-6362716D01*
X27473021Y-6339306D01*
X27477334Y-6316841D01*
X27482432Y-6295320D01*
X27488313Y-6274743D01*
X27494980Y-6255111D01*
X27502430Y-6236424D01*
X27510664Y-6218681D01*
X27519683Y-6201882D01*
X27529486Y-6186029D01*
X27540074Y-6171119D01*
X27551445Y-6157154D01*
X27563601Y-6144134D01*
X27576621Y-6131978D01*
X27590586Y-6120607D01*
X27605496Y-6110019D01*
X27621349Y-6100216D01*
X27638148Y-6091197D01*
X27655891Y-6082963D01*
X27674578Y-6075512D01*
X27694210Y-6068846D01*
X27714787Y-6062964D01*
X27736308Y-6057867D01*
X27758773Y-6053553D01*
X27782183Y-6050024D01*
X27806538Y-6047279D01*
X27831837Y-6045319D01*
X27858081Y-6044142D01*
X27885269Y-6043750D01*
X28286438Y-6043750D01*
X28313669Y-6044142D01*
G37*
D10*
G36*
X41797497Y-21179898D02*
G01*
X41777535Y-21178110D01*
X41757795Y-21176379D01*
X41738279Y-21174704D01*
X41718985Y-21173086D01*
X41699913Y-21171525D01*
X41681065Y-21170021D01*
X41662439Y-21168573D01*
X41644036Y-21167182D01*
X41625856Y-21165848D01*
X41607899Y-21164571D01*
X41590164Y-21163351D01*
X41572653Y-21162187D01*
X41555364Y-21161080D01*
X41538297Y-21160030D01*
X41521454Y-21159036D01*
X41504833Y-21158100D01*
X41488435Y-21157220D01*
X41472260Y-21156397D01*
X41456308Y-21155630D01*
X41440578Y-21154921D01*
X41425072Y-21154268D01*
X41409788Y-21153672D01*
X41394726Y-21153132D01*
X41379888Y-21152650D01*
X41365272Y-21152224D01*
X41350879Y-21151855D01*
X41336709Y-21151543D01*
X41322762Y-21151288D01*
X41309037Y-21151089D01*
X41295535Y-21150947D01*
X41282256Y-21150862D01*
X41269200Y-21150833D01*
X41251843Y-21151095D01*
X41235063Y-21151879D01*
X41218862Y-21153186D01*
X41203239Y-21155016D01*
X41188194Y-21157369D01*
X41173728Y-21160244D01*
X41159839Y-21163643D01*
X41146529Y-21167564D01*
X41133797Y-21172008D01*
X41121643Y-21176975D01*
X41110067Y-21182465D01*
X41099070Y-21188477D01*
X41088650Y-21195013D01*
X41078809Y-21202071D01*
X41069546Y-21209652D01*
X41060861Y-21217756D01*
X41052757Y-21226441D01*
X41045176Y-21235704D01*
X41038118Y-21245545D01*
X41031582Y-21255965D01*
X41025570Y-21266962D01*
X41020080Y-21278538D01*
X41015113Y-21290692D01*
X41010669Y-21303424D01*
X41006748Y-21316734D01*
X41003349Y-21330623D01*
X41000474Y-21345089D01*
X40998121Y-21360134D01*
X40996291Y-21375757D01*
X40994984Y-21391958D01*
X40994200Y-21408738D01*
X40993938Y-21426095D01*
X40993938Y-21876235D01*
X40994208Y-21894783D01*
X40995018Y-21912692D01*
X40996368Y-21929961D01*
X40998258Y-21946592D01*
X41000688Y-21962583D01*
X41003658Y-21977935D01*
X41007168Y-21992648D01*
X41011219Y-22006721D01*
X41015809Y-22020156D01*
X41020939Y-22032951D01*
X41026609Y-22045107D01*
X41032819Y-22056623D01*
X41039569Y-22067501D01*
X41046859Y-22077739D01*
X41054689Y-22087338D01*
X41063059Y-22096297D01*
X41072047Y-22104668D01*
X41081671Y-22112498D01*
X41091930Y-22119788D01*
X41102825Y-22126538D01*
X41114355Y-22132748D01*
X41126520Y-22138418D01*
X41139321Y-22143548D01*
X41152757Y-22148138D01*
X41166829Y-22152188D01*
X41181536Y-22155698D01*
X41196878Y-22158668D01*
X41212856Y-22161098D01*
X41229470Y-22162988D01*
X41246718Y-22164338D01*
X41264602Y-22165148D01*
X41283122Y-22165418D01*
X41797497Y-22165418D01*
X41797497Y-21952927D01*
X41339542Y-21952927D01*
X41325836Y-21952253D01*
X41313479Y-21950231D01*
X41302469Y-21946860D01*
X41292808Y-21942142D01*
X41284494Y-21936076D01*
X41277529Y-21928661D01*
X41271912Y-21919898D01*
X41267643Y-21909788D01*
X41264722Y-21898329D01*
X41263149Y-21885522D01*
X41262850Y-21876235D01*
X41262850Y-21426095D01*
X41263434Y-21415551D01*
X41265185Y-21405899D01*
X41268705Y-21395768D01*
X41273814Y-21386852D01*
X41279458Y-21380177D01*
X41287357Y-21373706D01*
X41296308Y-21368824D01*
X41306311Y-21365531D01*
X41317365Y-21363828D01*
X41324155Y-21363569D01*
X41334928Y-21363595D01*
X41346182Y-21363672D01*
X41357917Y-21363801D01*
X41368064Y-21363947D01*
X41378545Y-21364130D01*
X41387169Y-21364302D01*
X41398226Y-21364543D01*
X41409414Y-21364807D01*
X41420732Y-21365096D01*
X41432183Y-21365408D01*
X41443764Y-21365745D01*
X41455476Y-21366105D01*
X41460198Y-21366256D01*
X41472111Y-21366714D01*
X41484035Y-21367172D01*
X41495972Y-21367629D01*
X41507921Y-21368087D01*
X41519881Y-21368545D01*
X41531854Y-21369003D01*
X41536646Y-21369187D01*
X41546648Y-21369595D01*
X41557361Y-21370087D01*
X41568783Y-21370663D01*
X41580915Y-21371324D01*
X41593757Y-21372068D01*
X41603854Y-21372681D01*
X41614350Y-21373342D01*
X41625246Y-21374049D01*
X41636541Y-21374804D01*
X41648373Y-21375600D01*
X41660879Y-21376430D01*
X41674059Y-21377294D01*
X41687912Y-21378193D01*
X41702440Y-21379126D01*
X41712500Y-21379767D01*
X41722859Y-21380424D01*
X41733518Y-21381095D01*
X41744477Y-21381782D01*
X41755735Y-21382484D01*
X41767293Y-21383202D01*
X41779150Y-21383935D01*
X41791307Y-21384683D01*
X41797497Y-21385062D01*
X41797497Y-21179898D01*
G37*
G36*
X42763478Y-21165000D02*
G01*
X42494566Y-21165000D01*
X42494566Y-21566046D01*
X42158488Y-21566046D01*
X42158488Y-21165000D01*
X41889821Y-21165000D01*
X41889821Y-22165418D01*
X42158488Y-22165418D01*
X42158488Y-21778538D01*
X42494566Y-21778538D01*
X42494566Y-22165418D01*
X42763478Y-22165418D01*
X42763478Y-21165000D01*
G37*
G36*
X43458579Y-21151103D02*
G01*
X43476488Y-21151913D01*
X43493757Y-21153263D01*
X43510388Y-21155153D01*
X43526379Y-21157583D01*
X43541731Y-21160554D01*
X43556444Y-21164064D01*
X43570517Y-21168114D01*
X43583952Y-21172704D01*
X43596747Y-21177834D01*
X43608902Y-21183504D01*
X43620419Y-21189714D01*
X43631296Y-21196464D01*
X43641535Y-21203754D01*
X43651134Y-21211584D01*
X43660093Y-21219954D01*
X43668463Y-21228942D01*
X43676293Y-21238566D01*
X43683584Y-21248825D01*
X43690334Y-21259720D01*
X43696544Y-21271250D01*
X43702214Y-21283415D01*
X43707344Y-21296216D01*
X43711934Y-21309652D01*
X43715984Y-21323724D01*
X43719494Y-21338431D01*
X43722464Y-21353773D01*
X43724894Y-21369751D01*
X43726784Y-21386365D01*
X43728134Y-21403613D01*
X43728944Y-21421497D01*
X43729214Y-21440017D01*
X43729214Y-21890401D01*
X43728944Y-21908919D01*
X43728134Y-21926801D01*
X43726784Y-21944044D01*
X43724894Y-21960651D01*
X43722464Y-21976620D01*
X43719494Y-21991952D01*
X43715984Y-22006647D01*
X43711934Y-22020704D01*
X43707344Y-22034124D01*
X43702214Y-22046907D01*
X43696544Y-22059052D01*
X43690334Y-22070560D01*
X43683584Y-22081431D01*
X43676293Y-22091664D01*
X43668463Y-22101261D01*
X43660093Y-22110219D01*
X43651134Y-22118619D01*
X43641535Y-22126477D01*
X43631296Y-22133793D01*
X43620419Y-22140566D01*
X43608902Y-22146799D01*
X43596747Y-22152489D01*
X43583952Y-22157637D01*
X43570517Y-22162243D01*
X43556444Y-22166307D01*
X43541731Y-22169830D01*
X43526379Y-22172810D01*
X43510388Y-22175249D01*
X43493757Y-22177146D01*
X43476488Y-22178500D01*
X43458579Y-22179313D01*
X43440030Y-22179584D01*
X43172585Y-22179584D01*
X43154065Y-22179313D01*
X43136181Y-22178500D01*
X43118932Y-22177146D01*
X43102319Y-22175249D01*
X43086341Y-22172810D01*
X43070999Y-22169830D01*
X43056292Y-22166307D01*
X43042220Y-22162243D01*
X43028784Y-22157637D01*
X43015983Y-22152489D01*
X43003818Y-22146799D01*
X42992288Y-22140566D01*
X42981393Y-22133793D01*
X42971134Y-22126477D01*
X42961510Y-22118619D01*
X42952522Y-22110219D01*
X42944152Y-22101261D01*
X42936322Y-22091664D01*
X42929031Y-22081431D01*
X42922281Y-22070560D01*
X42916071Y-22059052D01*
X42910401Y-22046907D01*
X42905271Y-22034124D01*
X42900681Y-22020704D01*
X42896631Y-22006647D01*
X42893121Y-21991952D01*
X42890151Y-21976620D01*
X42887721Y-21960651D01*
X42885831Y-21944044D01*
X42884481Y-21926801D01*
X42883671Y-21908919D01*
X42883401Y-21890401D01*
X43152312Y-21890401D01*
X43152612Y-21899658D01*
X43154185Y-21912424D01*
X43157106Y-21923847D01*
X43161375Y-21933925D01*
X43166992Y-21942660D01*
X43173957Y-21950051D01*
X43182270Y-21956098D01*
X43191932Y-21960802D01*
X43202941Y-21964161D01*
X43215299Y-21966177D01*
X43229005Y-21966849D01*
X43383610Y-21966849D01*
X43392897Y-21966550D01*
X43405704Y-21964982D01*
X43417163Y-21962071D01*
X43427274Y-21957815D01*
X43436037Y-21952216D01*
X43443451Y-21945273D01*
X43449518Y-21936986D01*
X43454236Y-21927356D01*
X43457606Y-21916381D01*
X43459629Y-21904063D01*
X43460303Y-21890401D01*
X43460303Y-21440017D01*
X43460003Y-21430760D01*
X43458430Y-21417993D01*
X43455509Y-21406571D01*
X43451240Y-21396492D01*
X43445623Y-21387758D01*
X43438658Y-21380367D01*
X43430345Y-21374319D01*
X43420683Y-21369616D01*
X43409674Y-21366257D01*
X43397316Y-21364241D01*
X43383610Y-21363569D01*
X43229005Y-21363569D01*
X43219718Y-21363868D01*
X43206911Y-21365435D01*
X43195452Y-21368347D01*
X43185341Y-21372602D01*
X43176578Y-21378202D01*
X43169164Y-21385145D01*
X43163097Y-21393431D01*
X43158379Y-21403062D01*
X43155009Y-21414037D01*
X43152986Y-21426355D01*
X43152312Y-21440017D01*
X43152312Y-21890401D01*
X42883401Y-21890401D01*
X42883401Y-21440017D01*
X42883671Y-21421497D01*
X42884481Y-21403613D01*
X42885831Y-21386365D01*
X42887721Y-21369751D01*
X42890151Y-21353773D01*
X42893121Y-21338431D01*
X42896631Y-21323724D01*
X42900681Y-21309652D01*
X42905271Y-21296216D01*
X42910401Y-21283415D01*
X42916071Y-21271250D01*
X42922281Y-21259720D01*
X42929031Y-21248825D01*
X42936322Y-21238566D01*
X42944152Y-21228942D01*
X42952522Y-21219954D01*
X42961510Y-21211584D01*
X42971134Y-21203754D01*
X42981393Y-21196464D01*
X42992288Y-21189714D01*
X43003818Y-21183504D01*
X43015983Y-21177834D01*
X43028784Y-21172704D01*
X43042220Y-21168114D01*
X43056292Y-21164064D01*
X43070999Y-21160554D01*
X43086341Y-21157583D01*
X43102319Y-21155153D01*
X43118932Y-21153263D01*
X43136181Y-21151913D01*
X43154065Y-21151103D01*
X43172585Y-21150833D01*
X43440030Y-21150833D01*
X43458579Y-21151103D01*
G37*
G36*
X41842383Y-11039898D02*
G01*
X41822421Y-11038110D01*
X41802681Y-11036379D01*
X41783165Y-11034704D01*
X41763871Y-11033086D01*
X41744799Y-11031525D01*
X41725951Y-11030021D01*
X41707325Y-11028573D01*
X41688922Y-11027182D01*
X41670742Y-11025848D01*
X41652785Y-11024571D01*
X41635050Y-11023351D01*
X41617539Y-11022187D01*
X41600250Y-11021080D01*
X41583183Y-11020030D01*
X41566340Y-11019036D01*
X41549719Y-11018100D01*
X41533321Y-11017220D01*
X41517146Y-11016397D01*
X41501194Y-11015630D01*
X41485464Y-11014921D01*
X41469958Y-11014268D01*
X41454674Y-11013672D01*
X41439612Y-11013132D01*
X41424774Y-11012650D01*
X41410158Y-11012224D01*
X41395765Y-11011855D01*
X41381595Y-11011543D01*
X41367648Y-11011288D01*
X41353923Y-11011089D01*
X41340421Y-11010947D01*
X41327142Y-11010862D01*
X41314086Y-11010833D01*
X41296729Y-11011095D01*
X41279949Y-11011879D01*
X41263748Y-11013186D01*
X41248125Y-11015016D01*
X41233080Y-11017369D01*
X41218614Y-11020244D01*
X41204725Y-11023643D01*
X41191415Y-11027564D01*
X41178683Y-11032008D01*
X41166529Y-11036975D01*
X41154953Y-11042465D01*
X41143956Y-11048477D01*
X41133536Y-11055013D01*
X41123695Y-11062071D01*
X41114432Y-11069652D01*
X41105747Y-11077756D01*
X41097643Y-11086441D01*
X41090062Y-11095704D01*
X41083004Y-11105545D01*
X41076468Y-11115965D01*
X41070456Y-11126962D01*
X41064966Y-11138538D01*
X41059999Y-11150692D01*
X41055555Y-11163424D01*
X41051634Y-11176734D01*
X41048235Y-11190623D01*
X41045360Y-11205089D01*
X41043007Y-11220134D01*
X41041177Y-11235757D01*
X41039870Y-11251958D01*
X41039086Y-11268738D01*
X41038824Y-11286095D01*
X41038824Y-11736235D01*
X41039094Y-11754783D01*
X41039904Y-11772692D01*
X41041254Y-11789961D01*
X41043144Y-11806592D01*
X41045574Y-11822583D01*
X41048544Y-11837935D01*
X41052054Y-11852648D01*
X41056105Y-11866721D01*
X41060695Y-11880156D01*
X41065825Y-11892951D01*
X41071495Y-11905107D01*
X41077705Y-11916623D01*
X41084455Y-11927501D01*
X41091745Y-11937739D01*
X41099575Y-11947338D01*
X41107945Y-11956297D01*
X41116933Y-11964668D01*
X41126557Y-11972498D01*
X41136816Y-11979788D01*
X41147711Y-11986538D01*
X41159241Y-11992748D01*
X41171406Y-11998418D01*
X41184207Y-12003548D01*
X41197643Y-12008138D01*
X41211715Y-12012188D01*
X41226422Y-12015698D01*
X41241764Y-12018668D01*
X41257742Y-12021098D01*
X41274356Y-12022988D01*
X41291604Y-12024338D01*
X41309488Y-12025148D01*
X41328008Y-12025418D01*
X41842383Y-12025418D01*
X41842383Y-11812927D01*
X41384428Y-11812927D01*
X41370722Y-11812253D01*
X41358365Y-11810231D01*
X41347355Y-11806860D01*
X41337694Y-11802142D01*
X41329380Y-11796076D01*
X41322415Y-11788661D01*
X41316798Y-11779898D01*
X41312529Y-11769788D01*
X41309608Y-11758329D01*
X41308035Y-11745522D01*
X41307736Y-11736235D01*
X41307736Y-11286095D01*
X41308320Y-11275551D01*
X41310071Y-11265899D01*
X41313591Y-11255768D01*
X41318700Y-11246852D01*
X41324344Y-11240177D01*
X41332243Y-11233706D01*
X41341194Y-11228824D01*
X41351197Y-11225531D01*
X41362251Y-11223828D01*
X41369041Y-11223569D01*
X41379814Y-11223595D01*
X41391068Y-11223672D01*
X41402803Y-11223801D01*
X41412950Y-11223947D01*
X41423431Y-11224130D01*
X41432055Y-11224302D01*
X41443112Y-11224543D01*
X41454300Y-11224807D01*
X41465618Y-11225096D01*
X41477069Y-11225408D01*
X41488650Y-11225745D01*
X41500362Y-11226105D01*
X41505084Y-11226256D01*
X41516997Y-11226714D01*
X41528921Y-11227172D01*
X41540858Y-11227629D01*
X41552807Y-11228087D01*
X41564767Y-11228545D01*
X41576740Y-11229003D01*
X41581532Y-11229187D01*
X41591534Y-11229595D01*
X41602247Y-11230087D01*
X41613669Y-11230663D01*
X41625801Y-11231324D01*
X41638643Y-11232068D01*
X41648740Y-11232681D01*
X41659236Y-11233342D01*
X41670132Y-11234049D01*
X41681427Y-11234804D01*
X41693259Y-11235600D01*
X41705765Y-11236430D01*
X41718945Y-11237294D01*
X41732798Y-11238193D01*
X41747326Y-11239126D01*
X41757386Y-11239767D01*
X41767745Y-11240424D01*
X41778404Y-11241095D01*
X41789363Y-11241782D01*
X41800621Y-11242484D01*
X41812179Y-11243202D01*
X41824036Y-11243935D01*
X41836193Y-11244683D01*
X41842383Y-11245062D01*
X41842383Y-11039898D01*
G37*
G36*
X42808364Y-11025000D02*
G01*
X42539452Y-11025000D01*
X42539452Y-11426046D01*
X42203374Y-11426046D01*
X42203374Y-11025000D01*
X41934707Y-11025000D01*
X41934707Y-12025418D01*
X42203374Y-12025418D01*
X42203374Y-11638538D01*
X42539452Y-11638538D01*
X42539452Y-12025418D01*
X42808364Y-12025418D01*
X42808364Y-11025000D01*
G37*
G36*
X43420681Y-11221859D02*
G01*
X42900199Y-11221859D01*
X42900199Y-11428977D01*
X43241162Y-12025418D01*
X43540604Y-12025418D01*
X43202816Y-11434595D01*
X43420681Y-11434595D01*
X43420681Y-11645621D01*
X43689592Y-11645621D01*
X43689592Y-11434595D01*
X43788022Y-11434595D01*
X43788022Y-11221859D01*
X43689592Y-11221859D01*
X43689592Y-11025000D01*
X43420681Y-11025000D01*
X43420681Y-11221859D01*
G37*
G36*
X41760427Y-23746737D02*
G01*
X41739451Y-23744528D01*
X41718592Y-23742389D01*
X41697851Y-23740321D01*
X41677228Y-23738322D01*
X41656723Y-23736394D01*
X41636336Y-23734535D01*
X41616066Y-23732747D01*
X41595915Y-23731029D01*
X41575881Y-23729381D01*
X41555965Y-23727804D01*
X41536166Y-23726296D01*
X41516486Y-23724858D01*
X41496923Y-23723491D01*
X41477479Y-23722194D01*
X41458152Y-23720966D01*
X41438943Y-23719809D01*
X41419851Y-23718722D01*
X41400878Y-23717706D01*
X41382022Y-23716759D01*
X41363285Y-23715882D01*
X41344665Y-23715076D01*
X41326163Y-23714340D01*
X41307778Y-23713673D01*
X41289512Y-23713077D01*
X41271363Y-23712551D01*
X41253332Y-23712096D01*
X41235419Y-23711710D01*
X41217624Y-23711394D01*
X41199947Y-23711149D01*
X41182388Y-23710974D01*
X41164946Y-23710868D01*
X41147622Y-23710833D01*
X41130265Y-23711095D01*
X41113485Y-23711879D01*
X41097284Y-23713186D01*
X41081661Y-23715016D01*
X41066616Y-23717369D01*
X41052150Y-23720244D01*
X41038261Y-23723643D01*
X41024951Y-23727564D01*
X41012219Y-23732008D01*
X41000065Y-23736975D01*
X40988489Y-23742465D01*
X40977492Y-23748477D01*
X40967072Y-23755013D01*
X40957231Y-23762071D01*
X40947968Y-23769652D01*
X40939283Y-23777756D01*
X40931179Y-23786441D01*
X40923598Y-23795704D01*
X40916540Y-23805545D01*
X40910004Y-23815965D01*
X40903992Y-23826962D01*
X40898502Y-23838538D01*
X40893535Y-23850692D01*
X40889091Y-23863424D01*
X40885170Y-23876734D01*
X40881771Y-23890623D01*
X40878896Y-23905089D01*
X40876543Y-23920134D01*
X40874713Y-23935757D01*
X40873406Y-23951958D01*
X40872622Y-23968738D01*
X40872360Y-23986095D01*
X40872360Y-24436235D01*
X40872630Y-24454783D01*
X40873440Y-24472692D01*
X40874790Y-24489961D01*
X40876680Y-24506592D01*
X40879110Y-24522583D01*
X40882080Y-24537935D01*
X40885590Y-24552648D01*
X40889641Y-24566721D01*
X40894231Y-24580156D01*
X40899361Y-24592951D01*
X40905031Y-24605107D01*
X40911241Y-24616623D01*
X40917991Y-24627501D01*
X40925281Y-24637739D01*
X40933111Y-24647338D01*
X40941481Y-24656297D01*
X40950469Y-24664668D01*
X40960093Y-24672498D01*
X40970352Y-24679788D01*
X40981247Y-24686538D01*
X40992777Y-24692748D01*
X41004942Y-24698418D01*
X41017743Y-24703548D01*
X41031179Y-24708138D01*
X41045251Y-24712188D01*
X41059958Y-24715698D01*
X41075300Y-24718668D01*
X41091278Y-24721098D01*
X41107892Y-24722988D01*
X41125140Y-24724338D01*
X41143024Y-24725148D01*
X41161544Y-24725418D01*
X41675919Y-24725418D01*
X41675919Y-24512927D01*
X41217964Y-24512927D01*
X41204258Y-24512253D01*
X41191901Y-24510231D01*
X41180891Y-24506860D01*
X41171230Y-24502142D01*
X41162916Y-24496076D01*
X41155951Y-24488661D01*
X41150334Y-24479898D01*
X41146065Y-24469788D01*
X41143144Y-24458329D01*
X41141571Y-24445522D01*
X41141272Y-24436235D01*
X41141272Y-23986095D01*
X41141856Y-23975551D01*
X41143607Y-23965899D01*
X41147127Y-23955768D01*
X41152236Y-23946852D01*
X41157880Y-23940177D01*
X41165838Y-23933706D01*
X41174964Y-23928824D01*
X41185259Y-23925531D01*
X41195013Y-23923974D01*
X41203798Y-23923569D01*
X41213869Y-23923575D01*
X41223870Y-23923595D01*
X41233801Y-23923627D01*
X41243663Y-23923672D01*
X41253455Y-23923730D01*
X41272830Y-23923884D01*
X41291927Y-23924091D01*
X41310745Y-23924348D01*
X41329285Y-23924657D01*
X41347546Y-23925018D01*
X41365528Y-23925430D01*
X41383232Y-23925894D01*
X41400657Y-23926409D01*
X41417804Y-23926976D01*
X41434672Y-23927594D01*
X41451261Y-23928264D01*
X41467572Y-23928985D01*
X41483604Y-23929758D01*
X41491516Y-23930163D01*
X41491516Y-24118963D01*
X41308578Y-24118963D01*
X41308578Y-24303367D01*
X41760427Y-24303367D01*
X41760427Y-23746737D01*
G37*
G36*
X42754251Y-23725000D02*
G01*
X42474593Y-23725000D01*
X42149262Y-24294330D01*
X42149262Y-23725000D01*
X41880595Y-23725000D01*
X41880595Y-24725418D01*
X42160253Y-24725418D01*
X42485340Y-24156332D01*
X42485340Y-24725418D01*
X42754251Y-24725418D01*
X42754251Y-23725000D01*
G37*
G36*
X43468952Y-23725082D02*
G01*
X43478861Y-23725330D01*
X43498223Y-23726320D01*
X43516978Y-23727970D01*
X43535126Y-23730281D01*
X43552668Y-23733252D01*
X43569603Y-23736883D01*
X43585931Y-23741175D01*
X43601652Y-23746127D01*
X43616766Y-23751738D01*
X43631274Y-23758010D01*
X43645175Y-23764943D01*
X43658469Y-23772535D01*
X43671156Y-23780788D01*
X43683237Y-23789701D01*
X43694710Y-23799274D01*
X43705577Y-23809508D01*
X43715840Y-23820404D01*
X43725441Y-23831905D01*
X43734380Y-23844012D01*
X43742656Y-23856723D01*
X43750271Y-23870039D01*
X43757223Y-23883960D01*
X43763514Y-23898485D01*
X43769142Y-23913616D01*
X43774108Y-23929352D01*
X43778411Y-23945692D01*
X43782053Y-23962637D01*
X43785033Y-23980187D01*
X43787350Y-23998343D01*
X43789005Y-24017102D01*
X43789999Y-24036467D01*
X43790247Y-24046377D01*
X43790330Y-24056437D01*
X43790330Y-24393981D01*
X43790247Y-24404041D01*
X43789999Y-24413949D01*
X43789005Y-24433311D01*
X43787350Y-24452067D01*
X43785033Y-24470215D01*
X43782053Y-24487757D01*
X43778411Y-24504691D01*
X43774108Y-24521019D01*
X43769142Y-24536741D01*
X43763514Y-24551855D01*
X43757223Y-24566363D01*
X43750271Y-24580264D01*
X43742656Y-24593558D01*
X43734380Y-24606245D01*
X43725441Y-24618325D01*
X43715840Y-24629799D01*
X43705577Y-24640666D01*
X43694710Y-24650929D01*
X43683237Y-24660530D01*
X43671156Y-24669468D01*
X43658469Y-24677745D01*
X43645175Y-24685360D01*
X43631274Y-24692312D01*
X43616766Y-24698602D01*
X43601652Y-24704230D01*
X43585931Y-24709196D01*
X43569603Y-24713500D01*
X43552668Y-24717142D01*
X43535126Y-24720121D01*
X43516978Y-24722439D01*
X43498223Y-24724094D01*
X43478861Y-24725087D01*
X43468952Y-24725335D01*
X43458892Y-24725418D01*
X42902507Y-24725418D01*
X42902507Y-23937491D01*
X43171174Y-23937491D01*
X43171174Y-24512927D01*
X43402716Y-24512927D01*
X43417090Y-24512462D01*
X43430537Y-24511068D01*
X43443056Y-24508745D01*
X43454648Y-24505493D01*
X43465313Y-24501311D01*
X43475050Y-24496200D01*
X43483860Y-24490160D01*
X43491743Y-24483190D01*
X43498698Y-24475292D01*
X43504726Y-24466464D01*
X43509826Y-24456706D01*
X43513999Y-24446020D01*
X43517245Y-24434404D01*
X43519564Y-24421859D01*
X43520955Y-24408384D01*
X43521418Y-24393981D01*
X43521418Y-24056437D01*
X43520955Y-24042033D01*
X43519564Y-24028559D01*
X43517245Y-24016014D01*
X43513999Y-24004398D01*
X43509826Y-23993711D01*
X43504726Y-23983954D01*
X43498698Y-23975126D01*
X43491743Y-23967227D01*
X43483860Y-23960258D01*
X43475050Y-23954218D01*
X43465313Y-23949107D01*
X43454648Y-23944925D01*
X43443056Y-23941672D01*
X43430537Y-23939349D01*
X43417090Y-23937955D01*
X43402716Y-23937491D01*
X43171174Y-23937491D01*
X42902507Y-23937491D01*
X42902507Y-23725000D01*
X43458892Y-23725000D01*
X43468952Y-23725082D01*
G37*
D12*
G36*
X21863085Y-14706965D02*
G01*
X21912516Y-14715028D01*
X21956554Y-14728466D01*
X21995199Y-14747279D01*
X22028453Y-14771468D01*
X22056314Y-14801032D01*
X22078782Y-14835971D01*
X22095858Y-14876285D01*
X22107542Y-14921975D01*
X22113833Y-14973040D01*
X22115031Y-15010069D01*
X22115031Y-16811605D01*
X22112335Y-16866253D01*
X22104246Y-16915526D01*
X22090765Y-16959424D01*
X22071892Y-16997947D01*
X22047626Y-17031094D01*
X22017967Y-17058866D01*
X21982917Y-17081263D01*
X21942474Y-17098285D01*
X21896638Y-17109931D01*
X21845410Y-17116202D01*
X21808262Y-17117397D01*
X20851807Y-17117397D01*
X20796984Y-17114709D01*
X20747554Y-17106646D01*
X20703515Y-17093208D01*
X20664870Y-17074395D01*
X20631616Y-17050206D01*
X20603756Y-17020642D01*
X20581287Y-16985703D01*
X20564211Y-16945389D01*
X20552528Y-16899699D01*
X20546236Y-16848634D01*
X20545038Y-16811605D01*
X20545038Y-15010069D01*
X20547734Y-14955421D01*
X20555823Y-14906148D01*
X20569304Y-14862250D01*
X20588177Y-14823727D01*
X20612443Y-14790580D01*
X20642102Y-14762808D01*
X20677152Y-14740411D01*
X20717596Y-14723389D01*
X20763431Y-14711743D01*
X20814659Y-14705472D01*
X20851807Y-14704277D01*
X21808262Y-14704277D01*
X21863085Y-14706965D01*
G37*
G36*
X29942923Y-14678968D02*
G01*
X29982215Y-14688035D01*
X30022830Y-14707870D01*
X30054000Y-14737151D01*
X30075724Y-14775877D01*
X30086303Y-14813658D01*
X30090837Y-14857484D01*
X30091026Y-14869385D01*
X30091026Y-15994856D01*
X30088003Y-16040423D01*
X30078935Y-16079914D01*
X30059100Y-16120734D01*
X30029820Y-16152061D01*
X29991094Y-16173895D01*
X29953313Y-16184527D01*
X29909486Y-16189084D01*
X29897585Y-16189274D01*
X29222498Y-16189274D01*
X29176931Y-16186236D01*
X29137440Y-16177123D01*
X29096620Y-16157187D01*
X29065293Y-16127759D01*
X29043459Y-16088837D01*
X29032827Y-16050865D01*
X29028271Y-16006818D01*
X29028081Y-15994856D01*
X29028081Y-14869385D01*
X29031118Y-14824048D01*
X29040232Y-14784755D01*
X29060167Y-14744140D01*
X29089595Y-14712971D01*
X29128517Y-14691247D01*
X29166489Y-14680668D01*
X29210537Y-14676134D01*
X29222498Y-14675945D01*
X29897585Y-14675945D01*
X29942923Y-14678968D01*
G37*
G36*
X36895532Y-18539768D02*
G01*
X7150860Y-18539768D01*
X7150860Y-17911674D01*
X7722289Y-17911674D01*
X8796957Y-17911674D01*
X8796957Y-15010069D01*
X8799653Y-14955421D01*
X8807742Y-14906148D01*
X8821223Y-14862250D01*
X8840097Y-14823727D01*
X8864362Y-14790580D01*
X8894021Y-14762808D01*
X8929072Y-14740411D01*
X8969515Y-14723389D01*
X9015350Y-14711743D01*
X9066578Y-14705472D01*
X9103726Y-14704277D01*
X9947829Y-14704277D01*
X10002652Y-14706965D01*
X10052083Y-14715028D01*
X10096121Y-14728466D01*
X10134767Y-14747279D01*
X10168020Y-14771468D01*
X10195881Y-14801032D01*
X10218349Y-14835971D01*
X10235425Y-14876285D01*
X10247109Y-14921975D01*
X10253400Y-14973040D01*
X10254598Y-15010069D01*
X10254598Y-17911674D01*
X11329267Y-17911674D01*
X11329267Y-17117397D01*
X12115729Y-17117397D01*
X12115729Y-17968339D01*
X13163042Y-17968339D01*
X13163042Y-17117397D01*
X12115729Y-17117397D01*
X11329267Y-17117397D01*
X11329267Y-16842868D01*
X11693677Y-16842868D01*
X13163042Y-16842868D01*
X13163042Y-13910000D01*
X13652505Y-13910000D01*
X13652505Y-16955219D01*
X14581605Y-16955219D01*
X14633384Y-16694368D01*
X14676896Y-16721986D01*
X14721335Y-16748418D01*
X14766701Y-16773666D01*
X14812994Y-16797728D01*
X14860215Y-16820606D01*
X14908363Y-16842299D01*
X14957439Y-16862807D01*
X15007442Y-16882130D01*
X15058372Y-16900268D01*
X15110230Y-16917220D01*
X15145317Y-16927864D01*
X15197676Y-16942705D01*
X15248506Y-16956086D01*
X15297808Y-16968007D01*
X15345581Y-16978468D01*
X15391826Y-16987470D01*
X15436542Y-16995012D01*
X15479731Y-17001094D01*
X15521390Y-17005717D01*
X15561521Y-17008879D01*
X15612652Y-17010826D01*
X15625010Y-17010907D01*
X15878046Y-17010907D01*
X15926894Y-17009968D01*
X15974522Y-17007151D01*
X16020928Y-17002457D01*
X16066113Y-16995886D01*
X16110076Y-16987436D01*
X16152819Y-16977110D01*
X16194340Y-16964905D01*
X16234640Y-16950823D01*
X16273719Y-16934863D01*
X16311577Y-16917026D01*
X16348213Y-16897311D01*
X16383628Y-16875718D01*
X16417822Y-16852248D01*
X16450795Y-16826900D01*
X16482547Y-16799675D01*
X16513077Y-16770572D01*
X16542180Y-16740041D01*
X16569406Y-16708290D01*
X16594753Y-16675317D01*
X16618224Y-16641123D01*
X16639816Y-16605708D01*
X16659531Y-16569071D01*
X16677369Y-16531214D01*
X16693328Y-16492135D01*
X16707411Y-16451835D01*
X16719615Y-16410314D01*
X16729942Y-16367571D01*
X16738391Y-16323607D01*
X16744963Y-16278422D01*
X16749657Y-16232016D01*
X16752473Y-16184389D01*
X16753412Y-16135540D01*
X16753412Y-13910000D01*
X17065066Y-13910000D01*
X17065066Y-14759965D01*
X17571137Y-14759965D01*
X17571137Y-17061709D01*
X17065066Y-17061709D01*
X17065066Y-17911674D01*
X19152854Y-17911674D01*
X19152854Y-17061709D01*
X18646783Y-17061709D01*
X18646783Y-16811605D01*
X19469393Y-16811605D01*
X19470473Y-16885679D01*
X19473713Y-16957204D01*
X19479113Y-17026179D01*
X19486673Y-17092606D01*
X19496393Y-17156483D01*
X19508273Y-17217811D01*
X19522313Y-17276589D01*
X19538513Y-17332819D01*
X19556873Y-17386499D01*
X19577394Y-17437629D01*
X19600074Y-17486211D01*
X19624914Y-17532243D01*
X19651914Y-17575726D01*
X19681075Y-17616659D01*
X19712395Y-17655044D01*
X19745875Y-17690879D01*
X19781829Y-17724477D01*
X19820324Y-17755908D01*
X19861360Y-17785172D01*
X19904939Y-17812267D01*
X19951059Y-17837196D01*
X19999720Y-17859956D01*
X20050923Y-17880549D01*
X20104668Y-17898974D01*
X20160955Y-17915231D01*
X20219783Y-17929321D01*
X20281153Y-17941243D01*
X20345064Y-17950997D01*
X20411517Y-17958584D01*
X20480512Y-17964003D01*
X20552049Y-17967255D01*
X20626127Y-17968339D01*
X22032966Y-17968339D01*
X22107158Y-17967255D01*
X22178794Y-17964003D01*
X22247872Y-17958584D01*
X22314394Y-17950997D01*
X22378359Y-17941243D01*
X22439767Y-17929321D01*
X22498618Y-17915231D01*
X22554912Y-17898974D01*
X22608650Y-17880549D01*
X22659830Y-17859956D01*
X22708453Y-17837196D01*
X22754520Y-17812267D01*
X22798030Y-17785172D01*
X22838982Y-17755908D01*
X22877378Y-17724477D01*
X22913217Y-17690879D01*
X22946697Y-17655044D01*
X22978017Y-17616659D01*
X23007178Y-17575726D01*
X23034178Y-17532243D01*
X23059018Y-17486211D01*
X23081698Y-17437629D01*
X23102219Y-17386499D01*
X23120579Y-17332819D01*
X23136779Y-17276589D01*
X23150819Y-17217811D01*
X23162699Y-17156483D01*
X23172419Y-17092606D01*
X23179980Y-17026179D01*
X23185380Y-16957204D01*
X23188620Y-16885679D01*
X23189700Y-16811605D01*
X23189700Y-16023189D01*
X24901353Y-16023189D01*
X24902323Y-16076804D01*
X24905231Y-16128961D01*
X24910078Y-16179661D01*
X24916863Y-16228902D01*
X24925587Y-16276686D01*
X24936250Y-16323012D01*
X24948851Y-16367880D01*
X24963391Y-16411290D01*
X24979870Y-16453243D01*
X24998287Y-16493738D01*
X25018643Y-16532775D01*
X25040938Y-16570354D01*
X25065172Y-16606475D01*
X25091344Y-16641138D01*
X25119455Y-16674344D01*
X25149504Y-16706092D01*
X25181370Y-16736259D01*
X25214687Y-16764481D01*
X25249453Y-16790756D01*
X25285670Y-16815085D01*
X25323336Y-16837468D01*
X25362453Y-16857904D01*
X25403021Y-16876394D01*
X25445038Y-16892937D01*
X25488506Y-16907535D01*
X25533423Y-16920186D01*
X25579791Y-16930890D01*
X25627610Y-16939649D01*
X25676878Y-16946461D01*
X25727597Y-16951327D01*
X25779765Y-16954246D01*
X25833384Y-16955219D01*
X27665206Y-16955219D01*
X27665206Y-16132609D01*
X26143084Y-16132609D01*
X26097518Y-16129587D01*
X26058027Y-16120519D01*
X26017207Y-16100684D01*
X25994920Y-16079853D01*
X27980767Y-16079853D01*
X27981737Y-16133468D01*
X27984645Y-16185625D01*
X27989491Y-16236325D01*
X27996277Y-16285566D01*
X28005001Y-16333350D01*
X28015664Y-16379676D01*
X28028265Y-16424544D01*
X28042805Y-16467955D01*
X28059284Y-16509907D01*
X28077701Y-16550402D01*
X28098057Y-16589439D01*
X28120352Y-16627018D01*
X28144586Y-16663139D01*
X28170758Y-16697803D01*
X28198869Y-16731008D01*
X28228918Y-16762756D01*
X28260784Y-16792805D01*
X28294100Y-16820916D01*
X28328867Y-16847088D01*
X28365083Y-16871322D01*
X28402750Y-16893617D01*
X28441867Y-16913973D01*
X28482434Y-16932390D01*
X28524452Y-16948869D01*
X28567919Y-16963409D01*
X28612837Y-16976010D01*
X28659205Y-16986673D01*
X28707023Y-16995397D01*
X28756292Y-17002183D01*
X28807010Y-17007029D01*
X28859179Y-17009937D01*
X28912798Y-17010907D01*
X30207285Y-17010907D01*
X30260900Y-17009937D01*
X30313058Y-17007029D01*
X30363757Y-17002183D01*
X30412999Y-16995397D01*
X30460782Y-16986673D01*
X30507108Y-16976010D01*
X30551977Y-16963409D01*
X30595387Y-16948869D01*
X30637340Y-16932390D01*
X30677834Y-16913973D01*
X30716871Y-16893617D01*
X30754450Y-16871322D01*
X30790571Y-16847088D01*
X30825235Y-16820916D01*
X30858440Y-16792805D01*
X30890188Y-16762756D01*
X30920238Y-16731008D01*
X30948348Y-16697803D01*
X30974521Y-16663139D01*
X30998754Y-16627018D01*
X31021049Y-16589439D01*
X31041405Y-16550402D01*
X31059822Y-16509907D01*
X31076301Y-16467955D01*
X31090841Y-16424544D01*
X31103443Y-16379676D01*
X31114105Y-16333350D01*
X31122829Y-16285566D01*
X31129615Y-16236325D01*
X31134461Y-16185625D01*
X31137370Y-16133468D01*
X31138339Y-16079853D01*
X31138339Y-14785366D01*
X31137370Y-14731747D01*
X31134461Y-14679578D01*
X31129615Y-14628860D01*
X31122829Y-14579591D01*
X31114105Y-14531773D01*
X31103443Y-14485405D01*
X31090841Y-14440487D01*
X31076301Y-14397020D01*
X31059822Y-14355002D01*
X31041405Y-14314435D01*
X31021049Y-14275318D01*
X30998754Y-14237651D01*
X30974521Y-14201435D01*
X30948348Y-14166668D01*
X30920238Y-14133352D01*
X30890188Y-14101486D01*
X30858440Y-14071436D01*
X30825235Y-14043326D01*
X30790571Y-14017153D01*
X30754450Y-13992920D01*
X30716871Y-13970625D01*
X30677834Y-13950269D01*
X30637340Y-13931852D01*
X30595387Y-13915373D01*
X30579346Y-13910000D01*
X31562344Y-13910000D01*
X31562344Y-16955219D01*
X32491444Y-16955219D01*
X32543224Y-16694368D01*
X32586735Y-16721986D01*
X32631174Y-16748418D01*
X32676540Y-16773666D01*
X32722834Y-16797728D01*
X32770055Y-16820606D01*
X32818203Y-16842299D01*
X32867279Y-16862807D01*
X32917282Y-16882130D01*
X32968212Y-16900268D01*
X33020070Y-16917220D01*
X33055157Y-16927864D01*
X33107515Y-16942705D01*
X33158345Y-16956086D01*
X33207647Y-16968007D01*
X33255421Y-16978468D01*
X33301665Y-16987470D01*
X33346382Y-16995012D01*
X33389570Y-17001094D01*
X33431230Y-17005717D01*
X33471361Y-17008879D01*
X33522492Y-17010826D01*
X33534850Y-17010907D01*
X33591514Y-17010907D01*
X33649476Y-17009636D01*
X33705636Y-17005823D01*
X33759996Y-16999469D01*
X33812554Y-16990573D01*
X33863310Y-16979136D01*
X33912266Y-16965157D01*
X33959420Y-16948636D01*
X34004773Y-16929574D01*
X34048324Y-16907970D01*
X34090075Y-16883824D01*
X34130024Y-16857137D01*
X34168171Y-16827908D01*
X34204518Y-16796137D01*
X34239063Y-16761825D01*
X34271807Y-16724971D01*
X34302749Y-16685575D01*
X34348030Y-16714930D01*
X34394478Y-16742911D01*
X34442094Y-16769518D01*
X34490877Y-16794752D01*
X34540829Y-16818611D01*
X34591948Y-16841097D01*
X34644235Y-16862209D01*
X34697690Y-16881946D01*
X34752312Y-16900310D01*
X34808103Y-16917301D01*
X34845945Y-16927864D01*
X34883914Y-16937920D01*
X34939907Y-16951788D01*
X34994750Y-16964195D01*
X35048443Y-16975143D01*
X35100984Y-16984632D01*
X35152376Y-16992660D01*
X35202616Y-16999229D01*
X35251706Y-17004338D01*
X35299645Y-17007987D01*
X35346434Y-17010177D01*
X35392072Y-17010907D01*
X35448737Y-17010907D01*
X35497471Y-17009968D01*
X35544999Y-17007151D01*
X35591321Y-17002457D01*
X35636437Y-16995886D01*
X35680348Y-16987436D01*
X35723052Y-16977110D01*
X35764550Y-16964905D01*
X35804843Y-16950823D01*
X35843929Y-16934863D01*
X35881810Y-16917026D01*
X35918484Y-16897311D01*
X35953953Y-16875718D01*
X35988216Y-16852248D01*
X36021272Y-16826900D01*
X36053123Y-16799675D01*
X36083768Y-16770572D01*
X36112871Y-16740041D01*
X36140097Y-16708290D01*
X36165444Y-16675317D01*
X36188915Y-16641123D01*
X36210507Y-16605708D01*
X36230222Y-16569071D01*
X36248059Y-16531214D01*
X36264019Y-16492135D01*
X36278101Y-16451835D01*
X36290306Y-16410314D01*
X36300633Y-16367571D01*
X36309082Y-16323607D01*
X36315654Y-16278422D01*
X36320348Y-16232016D01*
X36323164Y-16184389D01*
X36324103Y-16135540D01*
X36324103Y-13910000D01*
X35276790Y-13910000D01*
X35276790Y-15967501D01*
X35272115Y-16009690D01*
X35258090Y-16047109D01*
X35234715Y-16079758D01*
X35228918Y-16085715D01*
X35197224Y-16110444D01*
X35160759Y-16126015D01*
X35119524Y-16132426D01*
X35110705Y-16132609D01*
X35082372Y-16132609D01*
X35034630Y-16131691D01*
X34984828Y-16128934D01*
X34932964Y-16124340D01*
X34879040Y-16117909D01*
X34823055Y-16109640D01*
X34765009Y-16099534D01*
X34725167Y-16091775D01*
X34684409Y-16083200D01*
X34642735Y-16073808D01*
X34600145Y-16063599D01*
X34556640Y-16052574D01*
X34512218Y-16040732D01*
X34466880Y-16028073D01*
X34466880Y-13910000D01*
X33419567Y-13910000D01*
X33419567Y-15967501D01*
X33414987Y-16009690D01*
X33401249Y-16047109D01*
X33378351Y-16079758D01*
X33372672Y-16085715D01*
X33340883Y-16110444D01*
X33304132Y-16126015D01*
X33262420Y-16132426D01*
X33253482Y-16132609D01*
X33225150Y-16132609D01*
X33177408Y-16131691D01*
X33127605Y-16128934D01*
X33075742Y-16124340D01*
X33021818Y-16117909D01*
X32965833Y-16109640D01*
X32907787Y-16099534D01*
X32867945Y-16091775D01*
X32827187Y-16083200D01*
X32785513Y-16073808D01*
X32742923Y-16063599D01*
X32699417Y-16052574D01*
X32654995Y-16040732D01*
X32609658Y-16028073D01*
X32609658Y-13910000D01*
X31562344Y-13910000D01*
X30579346Y-13910000D01*
X30551977Y-13900833D01*
X30507108Y-13888231D01*
X30460782Y-13877569D01*
X30412999Y-13868845D01*
X30363757Y-13862059D01*
X30313058Y-13857213D01*
X30260900Y-13854304D01*
X30207285Y-13853335D01*
X28912798Y-13853335D01*
X28859179Y-13854304D01*
X28807010Y-13857213D01*
X28756292Y-13862059D01*
X28707023Y-13868845D01*
X28659205Y-13877569D01*
X28612837Y-13888231D01*
X28567919Y-13900833D01*
X28524452Y-13915373D01*
X28482434Y-13931852D01*
X28441867Y-13950269D01*
X28402750Y-13970625D01*
X28365083Y-13992920D01*
X28328867Y-14017153D01*
X28294100Y-14043326D01*
X28260784Y-14071436D01*
X28228918Y-14101486D01*
X28198869Y-14133352D01*
X28170758Y-14166668D01*
X28144586Y-14201435D01*
X28120352Y-14237651D01*
X28098057Y-14275318D01*
X28077701Y-14314435D01*
X28059284Y-14355002D01*
X28042805Y-14397020D01*
X28028265Y-14440487D01*
X28015664Y-14485405D01*
X28005001Y-14531773D01*
X27996277Y-14579591D01*
X27989491Y-14628860D01*
X27984645Y-14679578D01*
X27981737Y-14731747D01*
X27980767Y-14785366D01*
X27980767Y-15994856D01*
X27980767Y-16079853D01*
X25994920Y-16079853D01*
X25985880Y-16071404D01*
X25964046Y-16032678D01*
X25953413Y-15994897D01*
X25948857Y-15951070D01*
X25948667Y-15939169D01*
X25948667Y-14842030D01*
X25953246Y-14799326D01*
X25966985Y-14761583D01*
X25989883Y-14728801D01*
X25995561Y-14722840D01*
X26027771Y-14698110D01*
X26064560Y-14682540D01*
X26105929Y-14676128D01*
X26114752Y-14675945D01*
X26179999Y-14676285D01*
X26249467Y-14677304D01*
X26323156Y-14679002D01*
X26401066Y-14681379D01*
X26441603Y-14682823D01*
X26483196Y-14684436D01*
X26525844Y-14686219D01*
X26569547Y-14688172D01*
X26614306Y-14690295D01*
X26660120Y-14692588D01*
X26706988Y-14695050D01*
X26754912Y-14697683D01*
X26803892Y-14700485D01*
X26853926Y-14703457D01*
X26905016Y-14706599D01*
X26957161Y-14709910D01*
X27010361Y-14713392D01*
X27064616Y-14717043D01*
X27119927Y-14720864D01*
X27176292Y-14724855D01*
X27233713Y-14729015D01*
X27292189Y-14733346D01*
X27351721Y-14737846D01*
X27412307Y-14742517D01*
X27473949Y-14747357D01*
X27536646Y-14752366D01*
X27600398Y-14757546D01*
X27665206Y-14762896D01*
X27665206Y-13969595D01*
X27597879Y-13962442D01*
X27531090Y-13955516D01*
X27464836Y-13948818D01*
X27399118Y-13942346D01*
X27333937Y-13936102D01*
X27269292Y-13930085D01*
X27205183Y-13924294D01*
X27141610Y-13918731D01*
X27078573Y-13913395D01*
X27016073Y-13908286D01*
X26954109Y-13903404D01*
X26892681Y-13898749D01*
X26831789Y-13894321D01*
X26771433Y-13890120D01*
X26711614Y-13886147D01*
X26652330Y-13882400D01*
X26593583Y-13878880D01*
X26535372Y-13875588D01*
X26477698Y-13872523D01*
X26420559Y-13869684D01*
X26363957Y-13867073D01*
X26307891Y-13864689D01*
X26252361Y-13862531D01*
X26197367Y-13860601D01*
X26142910Y-13858898D01*
X26088988Y-13857422D01*
X26035603Y-13856174D01*
X25982754Y-13855152D01*
X25930441Y-13854357D01*
X25878665Y-13853789D01*
X25827424Y-13853449D01*
X25776720Y-13853335D01*
X25727986Y-13854274D01*
X25680458Y-13857090D01*
X25634135Y-13861784D01*
X25589019Y-13868356D01*
X25545109Y-13876805D01*
X25502405Y-13887132D01*
X25460906Y-13899337D01*
X25420614Y-13913419D01*
X25381527Y-13929379D01*
X25343647Y-13947216D01*
X25306972Y-13966931D01*
X25271504Y-13988524D01*
X25237241Y-14011994D01*
X25204184Y-14037342D01*
X25172333Y-14064567D01*
X25141688Y-14093670D01*
X25112585Y-14124315D01*
X25085360Y-14156166D01*
X25060012Y-14189223D01*
X25036542Y-14223485D01*
X25014949Y-14258954D01*
X24995234Y-14295628D01*
X24977397Y-14333509D01*
X24961437Y-14372595D01*
X24947355Y-14412888D01*
X24935151Y-14454386D01*
X24924824Y-14497091D01*
X24916374Y-14541001D01*
X24909803Y-14586117D01*
X24905109Y-14632439D01*
X24902292Y-14679967D01*
X24901353Y-14728702D01*
X24901353Y-16023189D01*
X23189700Y-16023189D01*
X23189700Y-15010069D01*
X23188620Y-14935991D01*
X23185380Y-14864455D01*
X23179980Y-14795460D01*
X23172419Y-14729007D01*
X23162699Y-14665095D01*
X23150819Y-14603726D01*
X23136779Y-14544897D01*
X23120579Y-14488611D01*
X23102219Y-14434866D01*
X23081698Y-14383663D01*
X23059018Y-14335001D01*
X23034178Y-14288881D01*
X23007178Y-14245303D01*
X22978017Y-14204266D01*
X22946697Y-14165771D01*
X22913217Y-14129818D01*
X22877378Y-14096338D01*
X22838982Y-14065017D01*
X22798030Y-14035857D01*
X22754520Y-14008857D01*
X22708453Y-13984017D01*
X22659830Y-13961336D01*
X22608650Y-13940816D01*
X22554912Y-13922456D01*
X22511628Y-13910000D01*
X23501353Y-13910000D01*
X23501353Y-14816629D01*
X24576999Y-14816629D01*
X24576999Y-13910000D01*
X23501353Y-13910000D01*
X22511628Y-13910000D01*
X22498618Y-13906256D01*
X22439767Y-13892216D01*
X22378359Y-13880335D01*
X22314394Y-13870615D01*
X22247872Y-13863055D01*
X22178794Y-13857655D01*
X22107158Y-13854415D01*
X22032966Y-13853335D01*
X20626127Y-13853335D01*
X20552049Y-13854415D01*
X20480512Y-13857655D01*
X20411517Y-13863055D01*
X20345064Y-13870615D01*
X20281153Y-13880335D01*
X20219783Y-13892216D01*
X20160955Y-13906256D01*
X20104668Y-13922456D01*
X20050923Y-13940816D01*
X19999720Y-13961336D01*
X19951059Y-13984017D01*
X19904939Y-14008857D01*
X19861360Y-14035857D01*
X19820324Y-14065017D01*
X19781829Y-14096338D01*
X19745875Y-14129818D01*
X19712395Y-14165771D01*
X19681075Y-14204266D01*
X19651914Y-14245303D01*
X19624914Y-14288881D01*
X19600074Y-14335001D01*
X19577394Y-14383663D01*
X19556873Y-14434866D01*
X19538513Y-14488611D01*
X19522313Y-14544897D01*
X19508273Y-14603726D01*
X19496393Y-14665095D01*
X19486673Y-14729007D01*
X19479113Y-14795460D01*
X19473713Y-14864455D01*
X19470473Y-14935991D01*
X19469393Y-15010069D01*
X19469393Y-16811605D01*
X18646783Y-16811605D01*
X18646783Y-14759965D01*
X19152854Y-14759965D01*
X19152854Y-13910000D01*
X17065066Y-13910000D01*
X16753412Y-13910000D01*
X15706099Y-13910000D01*
X15706099Y-15967501D01*
X15701519Y-16009690D01*
X15687781Y-16047109D01*
X15664883Y-16079758D01*
X15659204Y-16085715D01*
X15627510Y-16110444D01*
X15591045Y-16126015D01*
X15549810Y-16132426D01*
X15540991Y-16132609D01*
X15343642Y-16132609D01*
X15288181Y-16131691D01*
X15231707Y-16128934D01*
X15174219Y-16124340D01*
X15135331Y-16120257D01*
X15095993Y-16115357D01*
X15056204Y-16109640D01*
X15015965Y-16103107D01*
X14975276Y-16095756D01*
X14934136Y-16087590D01*
X14892546Y-16078606D01*
X14850506Y-16068806D01*
X14808015Y-16058189D01*
X14765074Y-16046755D01*
X14721683Y-16034505D01*
X14699818Y-16028073D01*
X14699818Y-13910000D01*
X13652505Y-13910000D01*
X13163042Y-13910000D01*
X12115729Y-13910000D01*
X12115729Y-16020258D01*
X11693677Y-16020258D01*
X11693677Y-16842868D01*
X11329267Y-16842868D01*
X11329267Y-15010069D01*
X11328187Y-14935991D01*
X11324947Y-14864455D01*
X11319547Y-14795460D01*
X11311987Y-14729007D01*
X11302267Y-14665095D01*
X11290387Y-14603726D01*
X11276346Y-14544897D01*
X11260146Y-14488611D01*
X11241786Y-14434866D01*
X11221266Y-14383663D01*
X11198586Y-14335001D01*
X11173745Y-14288881D01*
X11146745Y-14245303D01*
X11117585Y-14204266D01*
X11086264Y-14165771D01*
X11052784Y-14129818D01*
X11016945Y-14096338D01*
X10978550Y-14065017D01*
X10937597Y-14035857D01*
X10894087Y-14008857D01*
X10848021Y-13984017D01*
X10799397Y-13961336D01*
X10748217Y-13940816D01*
X10694480Y-13922456D01*
X10638186Y-13906256D01*
X10579335Y-13892216D01*
X10517927Y-13880335D01*
X10453962Y-13870615D01*
X10387440Y-13863055D01*
X10318361Y-13857655D01*
X10246725Y-13854415D01*
X10172533Y-13853335D01*
X8879023Y-13853335D01*
X8804830Y-13854415D01*
X8733194Y-13857655D01*
X8664116Y-13863055D01*
X8597594Y-13870615D01*
X8533629Y-13880335D01*
X8472221Y-13892216D01*
X8413370Y-13906256D01*
X8357076Y-13922456D01*
X8303339Y-13940816D01*
X8252158Y-13961336D01*
X8203535Y-13984017D01*
X8157468Y-14008857D01*
X8113959Y-14035857D01*
X8073006Y-14065017D01*
X8034610Y-14096338D01*
X7998772Y-14129818D01*
X7965291Y-14165771D01*
X7933971Y-14204266D01*
X7904811Y-14245303D01*
X7877810Y-14288881D01*
X7852970Y-14335001D01*
X7830290Y-14383663D01*
X7809770Y-14434866D01*
X7791409Y-14488611D01*
X7775209Y-14544897D01*
X7761169Y-14603726D01*
X7749289Y-14665095D01*
X7739569Y-14729007D01*
X7732009Y-14795460D01*
X7726609Y-14864455D01*
X7723369Y-14935991D01*
X7722289Y-15010069D01*
X7722289Y-17911674D01*
X7150860Y-17911674D01*
X7150860Y-13281906D01*
X36895532Y-13281906D01*
X36895532Y-18539768D01*
G37*
D10*
G36*
X41969714Y-8499898D02*
G01*
X41949752Y-8498110D01*
X41930012Y-8496379D01*
X41910496Y-8494704D01*
X41891202Y-8493086D01*
X41872130Y-8491525D01*
X41853282Y-8490021D01*
X41834656Y-8488573D01*
X41816253Y-8487182D01*
X41798073Y-8485848D01*
X41780116Y-8484571D01*
X41762381Y-8483351D01*
X41744870Y-8482187D01*
X41727581Y-8481080D01*
X41710514Y-8480030D01*
X41693671Y-8479036D01*
X41677050Y-8478100D01*
X41660652Y-8477220D01*
X41644477Y-8476397D01*
X41628525Y-8475630D01*
X41612795Y-8474921D01*
X41597289Y-8474268D01*
X41582005Y-8473672D01*
X41566943Y-8473132D01*
X41552105Y-8472650D01*
X41537489Y-8472224D01*
X41523096Y-8471855D01*
X41508926Y-8471543D01*
X41494979Y-8471288D01*
X41481254Y-8471089D01*
X41467752Y-8470947D01*
X41454473Y-8470862D01*
X41441417Y-8470833D01*
X41424060Y-8471095D01*
X41407280Y-8471879D01*
X41391079Y-8473186D01*
X41375456Y-8475016D01*
X41360411Y-8477369D01*
X41345945Y-8480244D01*
X41332056Y-8483643D01*
X41318746Y-8487564D01*
X41306014Y-8492008D01*
X41293860Y-8496975D01*
X41282284Y-8502465D01*
X41271287Y-8508477D01*
X41260867Y-8515013D01*
X41251026Y-8522071D01*
X41241763Y-8529652D01*
X41233078Y-8537756D01*
X41224974Y-8546441D01*
X41217393Y-8555704D01*
X41210335Y-8565545D01*
X41203799Y-8575965D01*
X41197787Y-8586962D01*
X41192297Y-8598538D01*
X41187330Y-8610692D01*
X41182886Y-8623424D01*
X41178965Y-8636734D01*
X41175566Y-8650623D01*
X41172691Y-8665089D01*
X41170338Y-8680134D01*
X41168508Y-8695757D01*
X41167201Y-8711958D01*
X41166417Y-8728738D01*
X41166155Y-8746095D01*
X41166155Y-9196235D01*
X41166425Y-9214783D01*
X41167235Y-9232692D01*
X41168585Y-9249961D01*
X41170475Y-9266592D01*
X41172905Y-9282583D01*
X41175875Y-9297935D01*
X41179385Y-9312648D01*
X41183436Y-9326721D01*
X41188026Y-9340156D01*
X41193156Y-9352951D01*
X41198826Y-9365107D01*
X41205036Y-9376623D01*
X41211786Y-9387501D01*
X41219076Y-9397739D01*
X41226906Y-9407338D01*
X41235276Y-9416297D01*
X41244264Y-9424668D01*
X41253888Y-9432498D01*
X41264147Y-9439788D01*
X41275042Y-9446538D01*
X41286572Y-9452748D01*
X41298737Y-9458418D01*
X41311538Y-9463548D01*
X41324974Y-9468138D01*
X41339046Y-9472188D01*
X41353753Y-9475698D01*
X41369095Y-9478668D01*
X41385073Y-9481098D01*
X41401687Y-9482988D01*
X41418935Y-9484338D01*
X41436819Y-9485148D01*
X41455339Y-9485418D01*
X41969714Y-9485418D01*
X41969714Y-9272927D01*
X41511759Y-9272927D01*
X41498053Y-9272253D01*
X41485696Y-9270231D01*
X41474686Y-9266860D01*
X41465025Y-9262142D01*
X41456711Y-9256076D01*
X41449746Y-9248661D01*
X41444129Y-9239898D01*
X41439860Y-9229788D01*
X41436939Y-9218329D01*
X41435366Y-9205522D01*
X41435067Y-9196235D01*
X41435067Y-8746095D01*
X41435651Y-8735551D01*
X41437402Y-8725899D01*
X41440922Y-8715768D01*
X41446031Y-8706852D01*
X41451675Y-8700177D01*
X41459574Y-8693706D01*
X41468525Y-8688824D01*
X41478528Y-8685531D01*
X41489582Y-8683828D01*
X41496372Y-8683569D01*
X41507145Y-8683595D01*
X41518399Y-8683672D01*
X41530134Y-8683801D01*
X41540281Y-8683947D01*
X41550762Y-8684130D01*
X41559386Y-8684302D01*
X41570443Y-8684543D01*
X41581631Y-8684807D01*
X41592949Y-8685096D01*
X41604400Y-8685408D01*
X41615981Y-8685745D01*
X41627693Y-8686105D01*
X41632415Y-8686256D01*
X41644328Y-8686714D01*
X41656252Y-8687172D01*
X41668189Y-8687629D01*
X41680138Y-8688087D01*
X41692098Y-8688545D01*
X41704071Y-8689003D01*
X41708863Y-8689187D01*
X41718865Y-8689595D01*
X41729578Y-8690087D01*
X41741000Y-8690663D01*
X41753132Y-8691324D01*
X41765974Y-8692068D01*
X41776071Y-8692681D01*
X41786567Y-8693342D01*
X41797463Y-8694049D01*
X41808758Y-8694804D01*
X41820590Y-8695600D01*
X41833096Y-8696430D01*
X41846276Y-8697294D01*
X41860129Y-8698193D01*
X41874657Y-8699126D01*
X41884717Y-8699767D01*
X41895076Y-8700424D01*
X41905735Y-8701095D01*
X41916694Y-8701782D01*
X41927952Y-8702484D01*
X41939510Y-8703202D01*
X41951367Y-8703935D01*
X41963524Y-8704683D01*
X41969714Y-8705062D01*
X41969714Y-8499898D01*
G37*
G36*
X42935695Y-8485000D02*
G01*
X42666783Y-8485000D01*
X42666783Y-8886046D01*
X42330705Y-8886046D01*
X42330705Y-8485000D01*
X42062038Y-8485000D01*
X42062038Y-9485418D01*
X42330705Y-9485418D01*
X42330705Y-9098538D01*
X42666783Y-9098538D01*
X42666783Y-9485418D01*
X42935695Y-9485418D01*
X42935695Y-8485000D01*
G37*
G36*
X43555827Y-8470833D02*
G01*
X43541056Y-8470862D01*
X43526172Y-8470947D01*
X43511176Y-8471089D01*
X43496068Y-8471288D01*
X43480848Y-8471543D01*
X43465516Y-8471855D01*
X43450071Y-8472224D01*
X43434515Y-8472650D01*
X43418846Y-8473132D01*
X43403066Y-8473672D01*
X43387173Y-8474268D01*
X43371168Y-8474921D01*
X43355051Y-8475630D01*
X43338822Y-8476397D01*
X43322481Y-8477220D01*
X43306028Y-8478100D01*
X43289463Y-8479036D01*
X43272785Y-8480030D01*
X43255996Y-8481080D01*
X43239094Y-8482187D01*
X43222080Y-8483351D01*
X43204954Y-8484571D01*
X43187716Y-8485848D01*
X43170366Y-8487182D01*
X43152904Y-8488573D01*
X43135330Y-8490021D01*
X43117644Y-8491525D01*
X43099845Y-8493086D01*
X43081934Y-8494704D01*
X43063912Y-8496379D01*
X43045777Y-8498110D01*
X43027530Y-8499898D01*
X43027530Y-8705062D01*
X43047304Y-8703740D01*
X43066755Y-8702460D01*
X43085881Y-8701221D01*
X43104684Y-8700025D01*
X43123163Y-8698870D01*
X43141318Y-8697758D01*
X43159149Y-8696687D01*
X43176656Y-8695659D01*
X43193839Y-8694672D01*
X43210698Y-8693728D01*
X43227233Y-8692825D01*
X43243445Y-8691965D01*
X43259332Y-8691146D01*
X43274896Y-8690370D01*
X43290135Y-8689635D01*
X43305051Y-8688942D01*
X43319643Y-8688292D01*
X43333911Y-8687683D01*
X43347855Y-8687116D01*
X43361475Y-8686591D01*
X43374771Y-8686109D01*
X43387743Y-8685668D01*
X43400392Y-8685269D01*
X43412716Y-8684912D01*
X43424717Y-8684597D01*
X43436394Y-8684325D01*
X43447746Y-8684094D01*
X43458775Y-8683905D01*
X43469480Y-8683758D01*
X43479861Y-8683653D01*
X43489918Y-8683590D01*
X43499652Y-8683569D01*
X43510113Y-8684153D01*
X43521211Y-8686310D01*
X43531117Y-8690057D01*
X43539831Y-8695393D01*
X43545325Y-8700177D01*
X43551892Y-8708051D01*
X43556845Y-8717141D01*
X43560186Y-8727446D01*
X43561766Y-8737246D01*
X43562178Y-8746095D01*
X43562178Y-8816437D01*
X43561504Y-8830099D01*
X43559481Y-8842417D01*
X43556111Y-8853392D01*
X43551393Y-8863023D01*
X43545326Y-8871309D01*
X43537912Y-8878252D01*
X43529149Y-8883852D01*
X43519038Y-8888107D01*
X43507579Y-8891019D01*
X43494772Y-8892586D01*
X43485485Y-8892885D01*
X43069784Y-8892885D01*
X43069784Y-9485418D01*
X43760747Y-9485418D01*
X43760747Y-9272927D01*
X43338695Y-9272927D01*
X43338695Y-9105621D01*
X43555827Y-9105621D01*
X43573184Y-9105367D01*
X43589960Y-9104605D01*
X43606157Y-9103337D01*
X43621773Y-9101560D01*
X43636809Y-9099276D01*
X43651265Y-9096484D01*
X43665141Y-9093185D01*
X43678437Y-9089378D01*
X43691153Y-9085064D01*
X43703289Y-9080242D01*
X43714845Y-9074913D01*
X43725820Y-9069076D01*
X43736216Y-9062731D01*
X43746031Y-9055879D01*
X43755267Y-9048519D01*
X43763922Y-9040652D01*
X43772056Y-9032301D01*
X43779664Y-9023429D01*
X43786748Y-9014036D01*
X43793308Y-9004122D01*
X43799342Y-8993688D01*
X43804852Y-8982732D01*
X43809837Y-8971256D01*
X43814297Y-8959258D01*
X43818233Y-8946740D01*
X43821644Y-8933700D01*
X43824530Y-8920140D01*
X43826891Y-8906059D01*
X43828728Y-8891457D01*
X43830040Y-8876334D01*
X43830827Y-8860690D01*
X43831089Y-8844525D01*
X43831089Y-8746095D01*
X43830827Y-8728738D01*
X43830040Y-8711958D01*
X43828728Y-8695757D01*
X43826891Y-8680134D01*
X43824530Y-8665089D01*
X43821644Y-8650623D01*
X43818233Y-8636734D01*
X43814297Y-8623424D01*
X43809837Y-8610692D01*
X43804852Y-8598538D01*
X43799342Y-8586962D01*
X43793308Y-8575965D01*
X43786748Y-8565545D01*
X43779664Y-8555704D01*
X43772056Y-8546441D01*
X43763922Y-8537756D01*
X43755267Y-8529652D01*
X43746031Y-8522071D01*
X43736216Y-8515013D01*
X43725820Y-8508477D01*
X43714845Y-8502465D01*
X43703289Y-8496975D01*
X43691153Y-8492008D01*
X43678437Y-8487564D01*
X43665141Y-8483643D01*
X43651265Y-8480244D01*
X43636809Y-8477369D01*
X43621773Y-8475016D01*
X43606157Y-8473186D01*
X43589960Y-8471879D01*
X43573184Y-8471095D01*
X43555827Y-8470833D01*
G37*
G36*
X41931667Y-13579898D02*
G01*
X41911705Y-13578110D01*
X41891965Y-13576379D01*
X41872449Y-13574704D01*
X41853155Y-13573086D01*
X41834083Y-13571525D01*
X41815235Y-13570021D01*
X41796609Y-13568573D01*
X41778206Y-13567182D01*
X41760026Y-13565848D01*
X41742069Y-13564571D01*
X41724334Y-13563351D01*
X41706823Y-13562187D01*
X41689534Y-13561080D01*
X41672467Y-13560030D01*
X41655624Y-13559036D01*
X41639003Y-13558100D01*
X41622605Y-13557220D01*
X41606430Y-13556397D01*
X41590478Y-13555630D01*
X41574748Y-13554921D01*
X41559242Y-13554268D01*
X41543958Y-13553672D01*
X41528896Y-13553132D01*
X41514058Y-13552650D01*
X41499442Y-13552224D01*
X41485049Y-13551855D01*
X41470879Y-13551543D01*
X41456932Y-13551288D01*
X41443207Y-13551089D01*
X41429705Y-13550947D01*
X41416426Y-13550862D01*
X41403370Y-13550833D01*
X41386013Y-13551095D01*
X41369233Y-13551879D01*
X41353032Y-13553186D01*
X41337409Y-13555016D01*
X41322364Y-13557369D01*
X41307898Y-13560244D01*
X41294009Y-13563643D01*
X41280699Y-13567564D01*
X41267967Y-13572008D01*
X41255813Y-13576975D01*
X41244237Y-13582465D01*
X41233240Y-13588477D01*
X41222820Y-13595013D01*
X41212979Y-13602071D01*
X41203716Y-13609652D01*
X41195031Y-13617756D01*
X41186927Y-13626441D01*
X41179346Y-13635704D01*
X41172288Y-13645545D01*
X41165752Y-13655965D01*
X41159740Y-13666962D01*
X41154250Y-13678538D01*
X41149283Y-13690692D01*
X41144839Y-13703424D01*
X41140918Y-13716734D01*
X41137519Y-13730623D01*
X41134644Y-13745089D01*
X41132291Y-13760134D01*
X41130461Y-13775757D01*
X41129154Y-13791958D01*
X41128370Y-13808738D01*
X41128108Y-13826095D01*
X41128108Y-14276235D01*
X41128378Y-14294783D01*
X41129188Y-14312692D01*
X41130538Y-14329961D01*
X41132428Y-14346592D01*
X41134858Y-14362583D01*
X41137828Y-14377935D01*
X41141338Y-14392648D01*
X41145389Y-14406721D01*
X41149979Y-14420156D01*
X41155109Y-14432951D01*
X41160779Y-14445107D01*
X41166989Y-14456623D01*
X41173739Y-14467501D01*
X41181029Y-14477739D01*
X41188859Y-14487338D01*
X41197229Y-14496297D01*
X41206217Y-14504668D01*
X41215841Y-14512498D01*
X41226100Y-14519788D01*
X41236995Y-14526538D01*
X41248525Y-14532748D01*
X41260690Y-14538418D01*
X41273491Y-14543548D01*
X41286927Y-14548138D01*
X41300999Y-14552188D01*
X41315706Y-14555698D01*
X41331048Y-14558668D01*
X41347026Y-14561098D01*
X41363640Y-14562988D01*
X41380888Y-14564338D01*
X41398772Y-14565148D01*
X41417292Y-14565418D01*
X41931667Y-14565418D01*
X41931667Y-14352927D01*
X41473712Y-14352927D01*
X41460006Y-14352253D01*
X41447649Y-14350231D01*
X41436639Y-14346860D01*
X41426978Y-14342142D01*
X41418664Y-14336076D01*
X41411699Y-14328661D01*
X41406082Y-14319898D01*
X41401813Y-14309788D01*
X41398892Y-14298329D01*
X41397319Y-14285522D01*
X41397020Y-14276235D01*
X41397020Y-13826095D01*
X41397604Y-13815551D01*
X41399355Y-13805899D01*
X41402875Y-13795768D01*
X41407984Y-13786852D01*
X41413628Y-13780177D01*
X41421527Y-13773706D01*
X41430478Y-13768824D01*
X41440481Y-13765531D01*
X41451535Y-13763828D01*
X41458325Y-13763569D01*
X41469098Y-13763595D01*
X41480352Y-13763672D01*
X41492087Y-13763801D01*
X41502234Y-13763947D01*
X41512715Y-13764130D01*
X41521339Y-13764302D01*
X41532396Y-13764543D01*
X41543584Y-13764807D01*
X41554902Y-13765096D01*
X41566353Y-13765408D01*
X41577934Y-13765745D01*
X41589646Y-13766105D01*
X41594368Y-13766256D01*
X41606281Y-13766714D01*
X41618205Y-13767172D01*
X41630142Y-13767629D01*
X41642091Y-13768087D01*
X41654051Y-13768545D01*
X41666024Y-13769003D01*
X41670816Y-13769187D01*
X41680818Y-13769595D01*
X41691531Y-13770087D01*
X41702953Y-13770663D01*
X41715085Y-13771324D01*
X41727927Y-13772068D01*
X41738024Y-13772681D01*
X41748520Y-13773342D01*
X41759416Y-13774049D01*
X41770711Y-13774804D01*
X41782543Y-13775600D01*
X41795049Y-13776430D01*
X41808229Y-13777294D01*
X41822082Y-13778193D01*
X41836610Y-13779126D01*
X41846670Y-13779767D01*
X41857029Y-13780424D01*
X41867688Y-13781095D01*
X41878647Y-13781782D01*
X41889905Y-13782484D01*
X41901463Y-13783202D01*
X41913320Y-13783935D01*
X41925477Y-13784683D01*
X41931667Y-13785062D01*
X41931667Y-13579898D01*
G37*
G36*
X42897648Y-13565000D02*
G01*
X42628736Y-13565000D01*
X42628736Y-13966046D01*
X42292658Y-13966046D01*
X42292658Y-13565000D01*
X42023991Y-13565000D01*
X42023991Y-14565418D01*
X42292658Y-14565418D01*
X42292658Y-14178538D01*
X42628736Y-14178538D01*
X42628736Y-14565418D01*
X42897648Y-14565418D01*
X42897648Y-13565000D01*
G37*
G36*
X43517780Y-13550833D02*
G01*
X43503009Y-13550862D01*
X43488125Y-13550947D01*
X43473129Y-13551089D01*
X43458021Y-13551288D01*
X43442801Y-13551543D01*
X43427469Y-13551855D01*
X43412024Y-13552224D01*
X43396468Y-13552650D01*
X43380799Y-13553132D01*
X43365019Y-13553672D01*
X43349126Y-13554268D01*
X43333121Y-13554921D01*
X43317004Y-13555630D01*
X43300775Y-13556397D01*
X43284434Y-13557220D01*
X43267981Y-13558100D01*
X43251416Y-13559036D01*
X43234738Y-13560030D01*
X43217949Y-13561080D01*
X43201047Y-13562187D01*
X43184033Y-13563351D01*
X43166907Y-13564571D01*
X43149669Y-13565848D01*
X43132319Y-13567182D01*
X43114857Y-13568573D01*
X43097283Y-13570021D01*
X43079597Y-13571525D01*
X43061798Y-13573086D01*
X43043887Y-13574704D01*
X43025865Y-13576379D01*
X43007730Y-13578110D01*
X42989483Y-13579898D01*
X42989483Y-13785062D01*
X43009257Y-13783740D01*
X43028708Y-13782460D01*
X43047834Y-13781221D01*
X43066637Y-13780025D01*
X43085116Y-13778870D01*
X43103271Y-13777758D01*
X43121102Y-13776687D01*
X43138609Y-13775659D01*
X43155792Y-13774672D01*
X43172651Y-13773728D01*
X43189186Y-13772825D01*
X43205398Y-13771965D01*
X43221285Y-13771146D01*
X43236849Y-13770370D01*
X43252088Y-13769635D01*
X43267004Y-13768942D01*
X43281596Y-13768292D01*
X43295864Y-13767683D01*
X43309808Y-13767116D01*
X43323428Y-13766591D01*
X43336724Y-13766109D01*
X43349696Y-13765668D01*
X43362345Y-13765269D01*
X43374669Y-13764912D01*
X43386670Y-13764597D01*
X43398347Y-13764325D01*
X43409699Y-13764094D01*
X43420728Y-13763905D01*
X43431433Y-13763758D01*
X43441814Y-13763653D01*
X43451871Y-13763590D01*
X43461605Y-13763569D01*
X43472066Y-13764153D01*
X43483164Y-13766310D01*
X43493070Y-13770057D01*
X43501784Y-13775393D01*
X43507278Y-13780177D01*
X43513845Y-13788051D01*
X43518798Y-13797141D01*
X43522139Y-13807446D01*
X43523719Y-13817246D01*
X43524131Y-13826095D01*
X43524131Y-13882271D01*
X43523457Y-13895977D01*
X43521434Y-13908334D01*
X43518064Y-13919344D01*
X43513346Y-13929005D01*
X43507279Y-13937319D01*
X43499865Y-13944284D01*
X43491102Y-13949901D01*
X43480991Y-13954170D01*
X43469532Y-13957091D01*
X43456725Y-13958664D01*
X43447438Y-13958963D01*
X43144333Y-13958963D01*
X43144333Y-14171454D01*
X43419351Y-14171454D01*
X43433056Y-14172129D01*
X43445414Y-14174151D01*
X43456423Y-14177521D01*
X43466085Y-14182239D01*
X43474398Y-14188306D01*
X43481363Y-14195720D01*
X43486980Y-14204483D01*
X43491249Y-14214594D01*
X43494170Y-14226053D01*
X43495743Y-14238860D01*
X43496043Y-14248147D01*
X43496043Y-14276235D01*
X43495369Y-14289940D01*
X43493347Y-14302298D01*
X43489976Y-14313308D01*
X43485258Y-14322969D01*
X43479191Y-14331282D01*
X43471777Y-14338248D01*
X43463014Y-14343865D01*
X43452903Y-14348134D01*
X43441444Y-14351055D01*
X43428637Y-14352627D01*
X43419351Y-14352927D01*
X43003649Y-14352927D01*
X43003649Y-14565418D01*
X43489692Y-14565418D01*
X43507049Y-14565164D01*
X43523825Y-14564403D01*
X43540022Y-14563134D01*
X43555638Y-14561358D01*
X43570674Y-14559074D01*
X43585130Y-14556282D01*
X43599006Y-14552983D01*
X43612302Y-14549176D01*
X43625018Y-14544862D01*
X43637154Y-14540040D01*
X43648710Y-14534710D01*
X43659685Y-14528873D01*
X43670081Y-14522529D01*
X43679897Y-14515677D01*
X43689132Y-14508317D01*
X43697787Y-14500450D01*
X43705921Y-14492099D01*
X43713530Y-14483227D01*
X43720614Y-14473834D01*
X43727173Y-14463920D01*
X43733207Y-14453485D01*
X43738717Y-14442530D01*
X43743702Y-14431053D01*
X43748162Y-14419056D01*
X43752098Y-14406537D01*
X43755509Y-14393498D01*
X43758395Y-14379938D01*
X43760756Y-14365857D01*
X43762593Y-14351254D01*
X43763905Y-14336131D01*
X43764692Y-14320487D01*
X43764954Y-14304323D01*
X43764797Y-14293608D01*
X43764324Y-14283142D01*
X43763537Y-14272924D01*
X43762435Y-14262954D01*
X43761019Y-14253232D01*
X43758303Y-14239114D01*
X43754879Y-14225554D01*
X43750747Y-14212553D01*
X43745906Y-14200109D01*
X43740357Y-14188224D01*
X43734099Y-14176897D01*
X43727133Y-14166127D01*
X43724654Y-14162662D01*
X43717133Y-14152762D01*
X43709590Y-14143579D01*
X43702026Y-14135114D01*
X43694440Y-14127365D01*
X43686833Y-14120333D01*
X43679205Y-14114018D01*
X43669000Y-14106714D01*
X43658757Y-14100684D01*
X43648476Y-14095929D01*
X43643321Y-14094030D01*
X43654754Y-14090466D01*
X43665788Y-14086126D01*
X43676423Y-14081009D01*
X43686659Y-14075116D01*
X43696496Y-14068446D01*
X43705935Y-14060999D01*
X43714975Y-14052776D01*
X43723616Y-14043777D01*
X43731858Y-14034000D01*
X43739702Y-14023447D01*
X43747146Y-14012118D01*
X43754192Y-14000011D01*
X43760839Y-13987128D01*
X43767087Y-13973469D01*
X43772937Y-13959033D01*
X43778387Y-13943820D01*
X43781822Y-13932421D01*
X43784799Y-13920571D01*
X43787318Y-13908271D01*
X43789378Y-13895521D01*
X43790623Y-13885663D01*
X43791611Y-13875551D01*
X43792341Y-13865187D01*
X43792813Y-13854568D01*
X43793028Y-13843697D01*
X43793042Y-13840017D01*
X43793042Y-13826095D01*
X43792780Y-13808738D01*
X43791993Y-13791958D01*
X43790681Y-13775757D01*
X43788844Y-13760134D01*
X43786483Y-13745089D01*
X43783597Y-13730623D01*
X43780186Y-13716734D01*
X43776250Y-13703424D01*
X43771790Y-13690692D01*
X43766805Y-13678538D01*
X43761295Y-13666962D01*
X43755261Y-13655965D01*
X43748701Y-13645545D01*
X43741617Y-13635704D01*
X43734009Y-13626441D01*
X43725875Y-13617756D01*
X43717220Y-13609652D01*
X43707984Y-13602071D01*
X43698169Y-13595013D01*
X43687773Y-13588477D01*
X43676798Y-13582465D01*
X43665242Y-13576975D01*
X43653106Y-13572008D01*
X43640390Y-13567564D01*
X43627094Y-13563643D01*
X43613218Y-13560244D01*
X43598762Y-13557369D01*
X43583726Y-13555016D01*
X43568110Y-13553186D01*
X43551913Y-13551879D01*
X43535137Y-13551095D01*
X43517780Y-13550833D01*
G37*
G36*
X41729707Y-876737D02*
G01*
X41708731Y-874528D01*
X41687872Y-872389D01*
X41667131Y-870321D01*
X41646508Y-868322D01*
X41626003Y-866394D01*
X41605616Y-864535D01*
X41585346Y-862747D01*
X41565195Y-861029D01*
X41545161Y-859381D01*
X41525245Y-857804D01*
X41505446Y-856296D01*
X41485766Y-854858D01*
X41466203Y-853491D01*
X41446759Y-852194D01*
X41427432Y-850966D01*
X41408223Y-849809D01*
X41389131Y-848722D01*
X41370158Y-847706D01*
X41351302Y-846759D01*
X41332565Y-845882D01*
X41313945Y-845076D01*
X41295443Y-844340D01*
X41277058Y-843673D01*
X41258792Y-843077D01*
X41240643Y-842551D01*
X41222612Y-842096D01*
X41204699Y-841710D01*
X41186904Y-841394D01*
X41169227Y-841149D01*
X41151668Y-840974D01*
X41134226Y-840868D01*
X41116902Y-840833D01*
X41099545Y-841095D01*
X41082765Y-841879D01*
X41066564Y-843186D01*
X41050941Y-845016D01*
X41035896Y-847369D01*
X41021430Y-850244D01*
X41007541Y-853643D01*
X40994231Y-857564D01*
X40981499Y-862008D01*
X40969345Y-866975D01*
X40957769Y-872465D01*
X40946772Y-878477D01*
X40936352Y-885013D01*
X40926511Y-892071D01*
X40917248Y-899652D01*
X40908563Y-907756D01*
X40900459Y-916441D01*
X40892878Y-925704D01*
X40885820Y-935545D01*
X40879284Y-945965D01*
X40873272Y-956962D01*
X40867782Y-968538D01*
X40862815Y-980692D01*
X40858371Y-993424D01*
X40854450Y-1006734D01*
X40851051Y-1020623D01*
X40848176Y-1035089D01*
X40845823Y-1050134D01*
X40843993Y-1065757D01*
X40842686Y-1081958D01*
X40841902Y-1098738D01*
X40841640Y-1116095D01*
X40841640Y-1566235D01*
X40841910Y-1584783D01*
X40842720Y-1602692D01*
X40844070Y-1619961D01*
X40845960Y-1636592D01*
X40848390Y-1652583D01*
X40851360Y-1667935D01*
X40854870Y-1682648D01*
X40858921Y-1696721D01*
X40863511Y-1710156D01*
X40868641Y-1722951D01*
X40874311Y-1735107D01*
X40880521Y-1746623D01*
X40887271Y-1757501D01*
X40894561Y-1767739D01*
X40902391Y-1777338D01*
X40910761Y-1786297D01*
X40919749Y-1794668D01*
X40929373Y-1802498D01*
X40939632Y-1809788D01*
X40950527Y-1816538D01*
X40962057Y-1822748D01*
X40974222Y-1828418D01*
X40987023Y-1833548D01*
X41000459Y-1838138D01*
X41014531Y-1842188D01*
X41029238Y-1845698D01*
X41044580Y-1848668D01*
X41060558Y-1851098D01*
X41077172Y-1852988D01*
X41094420Y-1854338D01*
X41112304Y-1855148D01*
X41130824Y-1855418D01*
X41645199Y-1855418D01*
X41645199Y-1642927D01*
X41187244Y-1642927D01*
X41173538Y-1642253D01*
X41161181Y-1640231D01*
X41150171Y-1636860D01*
X41140510Y-1632142D01*
X41132196Y-1626076D01*
X41125231Y-1618661D01*
X41119614Y-1609898D01*
X41115345Y-1599788D01*
X41112424Y-1588329D01*
X41110851Y-1575522D01*
X41110552Y-1566235D01*
X41110552Y-1116095D01*
X41111136Y-1105551D01*
X41112887Y-1095899D01*
X41116407Y-1085768D01*
X41121516Y-1076852D01*
X41127160Y-1070177D01*
X41135118Y-1063706D01*
X41144244Y-1058824D01*
X41154539Y-1055531D01*
X41164293Y-1053974D01*
X41173078Y-1053569D01*
X41183149Y-1053575D01*
X41193150Y-1053595D01*
X41203081Y-1053627D01*
X41212943Y-1053672D01*
X41222735Y-1053730D01*
X41242110Y-1053884D01*
X41261207Y-1054091D01*
X41280025Y-1054348D01*
X41298565Y-1054657D01*
X41316826Y-1055018D01*
X41334808Y-1055430D01*
X41352512Y-1055894D01*
X41369937Y-1056409D01*
X41387084Y-1056976D01*
X41403952Y-1057594D01*
X41420541Y-1058264D01*
X41436852Y-1058985D01*
X41452884Y-1059758D01*
X41460796Y-1060163D01*
X41460796Y-1248963D01*
X41277858Y-1248963D01*
X41277858Y-1433367D01*
X41729707Y-1433367D01*
X41729707Y-876737D01*
G37*
G36*
X42723531Y-855000D02*
G01*
X42443873Y-855000D01*
X42118542Y-1424330D01*
X42118542Y-855000D01*
X41849875Y-855000D01*
X41849875Y-1855418D01*
X42129533Y-1855418D01*
X42454620Y-1286332D01*
X42454620Y-1855418D01*
X42723531Y-1855418D01*
X42723531Y-855000D01*
G37*
G36*
X43438232Y-855082D02*
G01*
X43448141Y-855330D01*
X43467503Y-856320D01*
X43486258Y-857970D01*
X43504406Y-860281D01*
X43521948Y-863252D01*
X43538883Y-866883D01*
X43555211Y-871175D01*
X43570932Y-876127D01*
X43586046Y-881738D01*
X43600554Y-888010D01*
X43614455Y-894943D01*
X43627749Y-902535D01*
X43640436Y-910788D01*
X43652517Y-919701D01*
X43663990Y-929274D01*
X43674857Y-939508D01*
X43685120Y-950404D01*
X43694721Y-961905D01*
X43703660Y-974012D01*
X43711936Y-986723D01*
X43719551Y-1000039D01*
X43726503Y-1013960D01*
X43732794Y-1028485D01*
X43738422Y-1043616D01*
X43743388Y-1059352D01*
X43747691Y-1075692D01*
X43751333Y-1092637D01*
X43754313Y-1110187D01*
X43756630Y-1128343D01*
X43758285Y-1147102D01*
X43759279Y-1166467D01*
X43759527Y-1176377D01*
X43759610Y-1186437D01*
X43759610Y-1523981D01*
X43759527Y-1534041D01*
X43759279Y-1543949D01*
X43758285Y-1563311D01*
X43756630Y-1582067D01*
X43754313Y-1600215D01*
X43751333Y-1617757D01*
X43747691Y-1634691D01*
X43743388Y-1651019D01*
X43738422Y-1666741D01*
X43732794Y-1681855D01*
X43726503Y-1696363D01*
X43719551Y-1710264D01*
X43711936Y-1723558D01*
X43703660Y-1736245D01*
X43694721Y-1748325D01*
X43685120Y-1759799D01*
X43674857Y-1770666D01*
X43663990Y-1780929D01*
X43652517Y-1790530D01*
X43640436Y-1799468D01*
X43627749Y-1807745D01*
X43614455Y-1815360D01*
X43600554Y-1822312D01*
X43586046Y-1828602D01*
X43570932Y-1834230D01*
X43555211Y-1839196D01*
X43538883Y-1843500D01*
X43521948Y-1847142D01*
X43504406Y-1850121D01*
X43486258Y-1852439D01*
X43467503Y-1854094D01*
X43448141Y-1855087D01*
X43438232Y-1855335D01*
X43428172Y-1855418D01*
X42871787Y-1855418D01*
X42871787Y-1067491D01*
X43140454Y-1067491D01*
X43140454Y-1642927D01*
X43371996Y-1642927D01*
X43386370Y-1642462D01*
X43399817Y-1641068D01*
X43412336Y-1638745D01*
X43423928Y-1635493D01*
X43434593Y-1631311D01*
X43444330Y-1626200D01*
X43453140Y-1620160D01*
X43461023Y-1613190D01*
X43467978Y-1605292D01*
X43474006Y-1596464D01*
X43479106Y-1586706D01*
X43483279Y-1576020D01*
X43486525Y-1564404D01*
X43488844Y-1551859D01*
X43490235Y-1538384D01*
X43490698Y-1523981D01*
X43490698Y-1186437D01*
X43490235Y-1172033D01*
X43488844Y-1158559D01*
X43486525Y-1146014D01*
X43483279Y-1134398D01*
X43479106Y-1123711D01*
X43474006Y-1113954D01*
X43467978Y-1105126D01*
X43461023Y-1097227D01*
X43453140Y-1090258D01*
X43444330Y-1084218D01*
X43434593Y-1079107D01*
X43423928Y-1074925D01*
X43412336Y-1071672D01*
X43399817Y-1069349D01*
X43386370Y-1067955D01*
X43371996Y-1067491D01*
X43140454Y-1067491D01*
X42871787Y-1067491D01*
X42871787Y-855000D01*
X43428172Y-855000D01*
X43438232Y-855082D01*
G37*
D12*
G36*
X8648507Y-11587879D02*
G01*
X9212708Y-11587879D01*
X9212708Y-10064536D01*
X9212141Y-10025645D01*
X9210440Y-9988089D01*
X9207605Y-9951866D01*
X9203636Y-9916978D01*
X9198533Y-9883425D01*
X9192296Y-9851206D01*
X9184925Y-9820321D01*
X9176420Y-9790770D01*
X9166781Y-9762554D01*
X9156007Y-9735673D01*
X9144100Y-9710125D01*
X9131059Y-9685912D01*
X9116884Y-9663034D01*
X9101575Y-9641490D01*
X9085132Y-9621280D01*
X9067554Y-9602404D01*
X9048739Y-9584827D01*
X9028581Y-9568384D01*
X9007081Y-9553075D01*
X8984239Y-9538900D01*
X8960054Y-9525858D01*
X8934526Y-9513951D01*
X8907657Y-9503178D01*
X8879445Y-9493539D01*
X8849890Y-9485034D01*
X8818993Y-9477663D01*
X8786754Y-9471426D01*
X8753173Y-9466323D01*
X8718249Y-9462354D01*
X8681982Y-9459519D01*
X8644374Y-9457818D01*
X8605423Y-9457251D01*
X7926330Y-9457251D01*
X7887379Y-9457818D01*
X7849770Y-9459519D01*
X7813504Y-9462354D01*
X7778580Y-9466323D01*
X7744998Y-9471426D01*
X7712759Y-9477663D01*
X7681862Y-9485034D01*
X7652308Y-9493539D01*
X7624096Y-9503178D01*
X7597226Y-9513951D01*
X7571699Y-9525858D01*
X7547514Y-9538900D01*
X7524671Y-9553075D01*
X7503171Y-9568384D01*
X7483013Y-9584827D01*
X7464198Y-9602404D01*
X7446621Y-9621280D01*
X7430178Y-9641490D01*
X7414868Y-9663034D01*
X7400693Y-9685912D01*
X7387652Y-9710125D01*
X7375745Y-9735673D01*
X7364972Y-9762554D01*
X7355333Y-9790770D01*
X7346828Y-9820321D01*
X7339457Y-9851206D01*
X7333220Y-9883425D01*
X7328116Y-9916978D01*
X7324147Y-9951866D01*
X7321312Y-9988089D01*
X7319611Y-10025645D01*
X7319044Y-10064536D01*
X7319044Y-11587879D01*
X7883245Y-11587879D01*
X7883245Y-10064536D01*
X7884661Y-10035846D01*
X7888907Y-10009977D01*
X7895985Y-9986931D01*
X7905894Y-9966707D01*
X7918633Y-9949304D01*
X7934204Y-9934724D01*
X7952605Y-9922965D01*
X7973838Y-9914029D01*
X7997902Y-9907915D01*
X8024796Y-9904622D01*
X8044299Y-9903995D01*
X8487453Y-9903995D01*
X8516235Y-9905406D01*
X8542186Y-9909639D01*
X8565306Y-9916694D01*
X8585595Y-9926571D01*
X8603053Y-9939270D01*
X8617680Y-9954791D01*
X8629476Y-9973134D01*
X8638441Y-9994300D01*
X8644575Y-10018287D01*
X8647878Y-10045096D01*
X8648507Y-10064536D01*
X8648507Y-11587879D01*
G37*
G36*
X10529861Y-9487000D02*
G01*
X9433772Y-9487000D01*
X9433772Y-9933231D01*
X9699460Y-9933231D01*
X9699460Y-11141647D01*
X9433772Y-11141647D01*
X9433772Y-11587879D01*
X10529861Y-11587879D01*
X10529861Y-11141647D01*
X10264173Y-11141647D01*
X10264173Y-9933231D01*
X10529861Y-9933231D01*
X10529861Y-9487000D01*
G37*
G36*
X12590220Y-9487000D02*
G01*
X12002938Y-9487000D01*
X11319742Y-10682593D01*
X11319742Y-9487000D01*
X10755541Y-9487000D01*
X10755541Y-11587879D01*
X11342823Y-11587879D01*
X12025506Y-10392799D01*
X12025506Y-11587879D01*
X12590220Y-11587879D01*
X12590220Y-9487000D01*
G37*
G36*
X13908912Y-9487000D02*
G01*
X12812823Y-9487000D01*
X12812823Y-9933231D01*
X13078511Y-9933231D01*
X13078511Y-11141647D01*
X12812823Y-11141647D01*
X12812823Y-11587879D01*
X13908912Y-11587879D01*
X13908912Y-11141647D01*
X13643224Y-11141647D01*
X13643224Y-9933231D01*
X13908912Y-9933231D01*
X13908912Y-9487000D01*
G37*
G36*
X15459921Y-9457818D02*
G01*
X15497530Y-9459519D01*
X15533797Y-9462354D01*
X15568721Y-9466323D01*
X15602302Y-9471426D01*
X15634541Y-9477663D01*
X15665438Y-9485034D01*
X15694993Y-9493539D01*
X15723205Y-9503178D01*
X15750074Y-9513951D01*
X15775602Y-9525858D01*
X15799786Y-9538900D01*
X15822629Y-9553075D01*
X15844129Y-9568384D01*
X15864287Y-9584827D01*
X15883102Y-9602404D01*
X15900679Y-9621280D01*
X15917123Y-9641490D01*
X15932432Y-9663034D01*
X15946607Y-9685912D01*
X15959648Y-9710125D01*
X15971555Y-9735673D01*
X15982328Y-9762554D01*
X15991967Y-9790770D01*
X16000473Y-9820321D01*
X16007844Y-9851206D01*
X16014081Y-9883425D01*
X16019184Y-9916978D01*
X16023153Y-9951866D01*
X16025988Y-9988089D01*
X16027689Y-10025645D01*
X16028256Y-10064536D01*
X16028256Y-11010342D01*
X16027689Y-11049231D01*
X16025988Y-11086782D01*
X16023153Y-11122994D01*
X16019184Y-11157868D01*
X16014081Y-11191403D01*
X16007844Y-11223600D01*
X16000473Y-11254459D01*
X15991967Y-11283980D01*
X15982328Y-11312162D01*
X15971555Y-11339005D01*
X15959648Y-11364510D01*
X15946607Y-11388677D01*
X15932432Y-11411506D01*
X15917123Y-11432996D01*
X15900679Y-11453148D01*
X15883102Y-11471961D01*
X15864287Y-11489600D01*
X15844129Y-11506102D01*
X15822629Y-11521465D01*
X15799786Y-11535690D01*
X15775602Y-11548777D01*
X15750074Y-11560727D01*
X15723205Y-11571538D01*
X15694993Y-11581211D01*
X15665438Y-11589746D01*
X15634541Y-11597143D01*
X15602302Y-11603402D01*
X15568721Y-11608523D01*
X15533797Y-11612506D01*
X15497530Y-11615352D01*
X15459921Y-11617059D01*
X15420970Y-11617628D01*
X14682380Y-11617628D01*
X14643489Y-11617059D01*
X14605932Y-11615352D01*
X14569710Y-11612506D01*
X14534822Y-11608523D01*
X14501269Y-11603402D01*
X14469050Y-11597143D01*
X14438165Y-11589746D01*
X14408614Y-11581211D01*
X14380398Y-11571538D01*
X14353517Y-11560727D01*
X14327969Y-11548777D01*
X14303756Y-11535690D01*
X14280878Y-11521465D01*
X14259333Y-11506102D01*
X14239124Y-11489600D01*
X14220248Y-11471961D01*
X14202671Y-11453148D01*
X14186228Y-11432996D01*
X14170919Y-11411506D01*
X14156743Y-11388677D01*
X14143702Y-11364510D01*
X14131795Y-11339005D01*
X14121022Y-11312162D01*
X14111383Y-11283980D01*
X14102878Y-11254459D01*
X14095507Y-11223600D01*
X14089270Y-11191403D01*
X14084167Y-11157868D01*
X14080198Y-11122994D01*
X14077363Y-11086782D01*
X14075662Y-11049231D01*
X14075095Y-11010342D01*
X14639808Y-11010342D01*
X14640438Y-11029783D01*
X14643740Y-11056592D01*
X14649874Y-11080579D01*
X14658839Y-11101744D01*
X14670635Y-11120087D01*
X14685262Y-11135608D01*
X14702720Y-11148307D01*
X14723009Y-11158184D01*
X14746129Y-11165239D01*
X14772080Y-11169472D01*
X14800862Y-11170883D01*
X15303001Y-11170883D01*
X15322504Y-11170256D01*
X15349398Y-11166964D01*
X15373462Y-11160849D01*
X15394695Y-11151913D01*
X15413096Y-11140154D01*
X15428667Y-11125574D01*
X15441407Y-11108172D01*
X15451315Y-11087947D01*
X15458393Y-11064901D01*
X15462639Y-11039033D01*
X15464055Y-11010342D01*
X15464055Y-10064536D01*
X15463426Y-10045096D01*
X15460123Y-10018287D01*
X15453989Y-9994300D01*
X15445024Y-9973134D01*
X15433228Y-9954791D01*
X15418601Y-9939270D01*
X15401143Y-9926571D01*
X15380854Y-9916694D01*
X15357734Y-9909639D01*
X15331783Y-9905406D01*
X15303001Y-9903995D01*
X14800862Y-9903995D01*
X14781360Y-9904622D01*
X14754465Y-9907915D01*
X14730401Y-9914029D01*
X14709169Y-9922965D01*
X14690767Y-9934724D01*
X14675196Y-9949304D01*
X14662457Y-9966707D01*
X14652548Y-9986931D01*
X14645471Y-10009977D01*
X14641224Y-10035846D01*
X14639808Y-10064536D01*
X14639808Y-11010342D01*
X14075095Y-11010342D01*
X14075095Y-10064536D01*
X14075662Y-10025645D01*
X14077363Y-9988089D01*
X14080198Y-9951866D01*
X14084167Y-9916978D01*
X14089270Y-9883425D01*
X14095507Y-9851206D01*
X14102878Y-9820321D01*
X14111383Y-9790770D01*
X14121022Y-9762554D01*
X14131795Y-9735673D01*
X14143702Y-9710125D01*
X14156743Y-9685912D01*
X14170919Y-9663034D01*
X14186228Y-9641490D01*
X14202671Y-9621280D01*
X14220248Y-9602404D01*
X14239124Y-9584827D01*
X14259333Y-9568384D01*
X14280878Y-9553075D01*
X14303756Y-9538900D01*
X14327969Y-9525858D01*
X14353517Y-9513951D01*
X14380398Y-9503178D01*
X14408614Y-9493539D01*
X14438165Y-9485034D01*
X14469050Y-9477663D01*
X14501269Y-9471426D01*
X14534822Y-9466323D01*
X14569710Y-9462354D01*
X14605932Y-9459519D01*
X14643489Y-9457818D01*
X14682380Y-9457251D01*
X15420970Y-9457251D01*
X15459921Y-9457818D01*
G37*
G36*
X16191874Y-10314323D02*
G01*
X16191874Y-10760555D01*
X17435681Y-10760555D01*
X17435681Y-10314323D01*
X16191874Y-10314323D01*
G37*
G36*
X18225562Y-9933231D02*
G01*
X19304212Y-9933231D01*
X19304212Y-9487000D01*
X17661361Y-9487000D01*
X17661361Y-11587879D01*
X18225562Y-11587879D01*
X18225562Y-9933231D01*
G37*
G36*
X20606428Y-9457760D02*
G01*
X20633811Y-9459286D01*
X20660428Y-9461831D01*
X20686280Y-9465393D01*
X20711366Y-9469973D01*
X20735687Y-9475571D01*
X20759243Y-9482187D01*
X20782034Y-9489821D01*
X20804059Y-9498472D01*
X20825319Y-9508141D01*
X20845813Y-9518828D01*
X20865542Y-9530533D01*
X20884506Y-9543255D01*
X20902704Y-9556996D01*
X20920137Y-9571754D01*
X20936804Y-9587530D01*
X20952580Y-9604260D01*
X20967338Y-9621751D01*
X20981079Y-9640003D01*
X20993801Y-9659017D01*
X21005506Y-9678792D01*
X21016193Y-9699328D01*
X21025862Y-9720626D01*
X21034514Y-9742685D01*
X21042147Y-9765506D01*
X21048763Y-9789087D01*
X21054361Y-9813431D01*
X21058941Y-9838535D01*
X21062503Y-9864401D01*
X21065048Y-9891028D01*
X21066575Y-9918417D01*
X21067083Y-9946567D01*
X21067083Y-10626173D01*
X21066575Y-10654321D01*
X21065048Y-10681703D01*
X21062503Y-10708320D01*
X21058941Y-10734172D01*
X21054361Y-10759259D01*
X21048763Y-10783580D01*
X21042147Y-10807136D01*
X21034514Y-10829926D01*
X21025862Y-10851951D01*
X21016193Y-10873211D01*
X21005506Y-10893705D01*
X20993801Y-10913434D01*
X20981079Y-10932398D01*
X20967338Y-10950596D01*
X20952580Y-10968029D01*
X20936804Y-10984697D01*
X20920137Y-11000473D01*
X20902704Y-11015231D01*
X20884506Y-11028971D01*
X20865542Y-11041694D01*
X20845813Y-11053399D01*
X20825319Y-11064085D01*
X20804059Y-11073755D01*
X20782034Y-11082406D01*
X20759243Y-11090040D01*
X20735687Y-11096655D01*
X20711366Y-11102253D01*
X20686280Y-11106833D01*
X20660428Y-11110396D01*
X20633811Y-11112940D01*
X20606428Y-11114467D01*
X20578280Y-11114976D01*
X19898674Y-11114976D01*
X19870525Y-11114467D01*
X19843136Y-11112940D01*
X19816509Y-11110396D01*
X19790643Y-11106833D01*
X19765538Y-11102253D01*
X19741195Y-11096655D01*
X19717613Y-11090040D01*
X19694793Y-11082406D01*
X19672734Y-11073755D01*
X19651436Y-11064085D01*
X19630899Y-11053399D01*
X19611124Y-11041694D01*
X19592111Y-11028971D01*
X19573858Y-11015231D01*
X19556367Y-11000473D01*
X19539638Y-10984697D01*
X19523862Y-10968029D01*
X19509103Y-10950596D01*
X19495363Y-10932398D01*
X19482640Y-10913434D01*
X19470936Y-10893705D01*
X19460249Y-10873211D01*
X19450580Y-10851951D01*
X19441928Y-10829926D01*
X19434295Y-10807136D01*
X19427679Y-10783580D01*
X19422081Y-10759259D01*
X19417501Y-10734172D01*
X19413939Y-10708320D01*
X19411394Y-10681703D01*
X19409867Y-10654321D01*
X19409358Y-10626173D01*
X19409358Y-10581549D01*
X19959198Y-10581549D01*
X19959298Y-10587829D01*
X19961690Y-10610954D01*
X19967272Y-10630889D01*
X19978735Y-10651323D01*
X19995181Y-10666773D01*
X20016612Y-10677239D01*
X20037345Y-10682024D01*
X20061267Y-10683618D01*
X20415688Y-10683618D01*
X20421936Y-10683519D01*
X20444945Y-10681127D01*
X20464780Y-10675545D01*
X20485111Y-10664082D01*
X20500483Y-10647635D01*
X20510897Y-10626205D01*
X20515657Y-10605472D01*
X20517244Y-10581549D01*
X20517244Y-9990677D01*
X20517145Y-9984429D01*
X20514765Y-9961420D01*
X20509211Y-9941585D01*
X20497805Y-9921254D01*
X20481441Y-9905882D01*
X20460119Y-9895468D01*
X20439490Y-9890708D01*
X20415688Y-9889121D01*
X20061267Y-9889121D01*
X20054987Y-9889220D01*
X20031862Y-9891600D01*
X20011927Y-9897154D01*
X19991493Y-9908559D01*
X19976043Y-9924923D01*
X19965577Y-9946246D01*
X19960793Y-9966875D01*
X19959198Y-9990677D01*
X19959198Y-10581549D01*
X19409358Y-10581549D01*
X19409358Y-9946567D01*
X19409867Y-9918417D01*
X19411394Y-9891028D01*
X19413939Y-9864401D01*
X19417501Y-9838535D01*
X19422081Y-9813431D01*
X19427679Y-9789087D01*
X19434295Y-9765506D01*
X19441928Y-9742685D01*
X19450580Y-9720626D01*
X19460249Y-9699328D01*
X19470936Y-9678792D01*
X19482640Y-9659017D01*
X19495363Y-9640003D01*
X19509103Y-9621751D01*
X19523862Y-9604260D01*
X19539638Y-9587530D01*
X19556367Y-9571754D01*
X19573858Y-9556996D01*
X19592111Y-9543255D01*
X19611124Y-9530533D01*
X19630899Y-9518828D01*
X19651436Y-9508141D01*
X19672734Y-9498472D01*
X19694793Y-9489821D01*
X19717613Y-9482187D01*
X19741195Y-9475571D01*
X19765538Y-9469973D01*
X19790643Y-9465393D01*
X19816509Y-9461831D01*
X19843136Y-9459286D01*
X19870525Y-9457760D01*
X19898674Y-9457251D01*
X20578280Y-9457251D01*
X20606428Y-9457760D01*
G37*
G36*
X22424756Y-8955605D02*
G01*
X22449761Y-8957083D01*
X22474124Y-8959548D01*
X22497846Y-8962998D01*
X22520927Y-8967434D01*
X22543367Y-8972855D01*
X22565165Y-8979263D01*
X22586323Y-8986656D01*
X22606839Y-8995035D01*
X22626714Y-9004399D01*
X22645949Y-9014750D01*
X22664542Y-9026086D01*
X22682493Y-9038408D01*
X22699804Y-9051715D01*
X22716474Y-9066009D01*
X22732502Y-9081288D01*
X22747781Y-9097376D01*
X22762075Y-9114098D01*
X22775382Y-9131453D01*
X22787704Y-9149441D01*
X22799040Y-9168062D01*
X22809391Y-9187316D01*
X22818755Y-9207203D01*
X22827134Y-9227724D01*
X22834527Y-9248877D01*
X22840935Y-9270664D01*
X22846356Y-9293083D01*
X22850792Y-9316136D01*
X22854242Y-9339822D01*
X22856706Y-9364142D01*
X22858185Y-9389094D01*
X22858678Y-9414679D01*
X22858678Y-11085740D01*
X21749254Y-11085740D01*
X21721104Y-11085229D01*
X21693715Y-11083696D01*
X21667088Y-11081142D01*
X21641222Y-11077565D01*
X21616118Y-11072967D01*
X21591774Y-11067347D01*
X21568192Y-11060705D01*
X21545372Y-11053042D01*
X21523313Y-11044356D01*
X21502015Y-11034649D01*
X21481479Y-11023920D01*
X21461704Y-11012169D01*
X21442690Y-10999397D01*
X21424437Y-10985602D01*
X21406946Y-10970786D01*
X21390217Y-10954948D01*
X21374441Y-10938280D01*
X21359683Y-10920847D01*
X21345942Y-10902649D01*
X21333220Y-10883685D01*
X21321515Y-10863956D01*
X21310828Y-10843462D01*
X21301159Y-10822202D01*
X21292507Y-10800177D01*
X21284874Y-10777387D01*
X21278258Y-10753831D01*
X21272660Y-10729510D01*
X21268080Y-10704423D01*
X21264518Y-10678572D01*
X21261973Y-10651954D01*
X21260446Y-10624572D01*
X21259938Y-10596424D01*
X21259938Y-10552314D01*
X21809777Y-10552314D01*
X21809877Y-10558562D01*
X21812269Y-10581570D01*
X21817851Y-10601406D01*
X21829314Y-10621737D01*
X21845760Y-10637109D01*
X21867191Y-10647522D01*
X21887924Y-10652283D01*
X21911846Y-10653870D01*
X22308838Y-10653870D01*
X22308838Y-10004526D01*
X22299223Y-10002885D01*
X22270010Y-9998275D01*
X22240246Y-9994133D01*
X22209933Y-9990461D01*
X22189419Y-9988273D01*
X22168660Y-9986293D01*
X22147657Y-9984522D01*
X22126409Y-9982959D01*
X22104917Y-9981605D01*
X22083180Y-9980459D01*
X22061199Y-9979521D01*
X22038974Y-9978792D01*
X22016504Y-9978271D01*
X21993790Y-9977959D01*
X21970831Y-9977854D01*
X21896972Y-9977854D01*
X21892340Y-9977951D01*
X21870621Y-9981316D01*
X21851307Y-9989491D01*
X21834397Y-10002474D01*
X21831415Y-10005602D01*
X21819394Y-10022742D01*
X21812181Y-10042387D01*
X21809777Y-10064536D01*
X21809777Y-10552314D01*
X21259938Y-10552314D01*
X21259938Y-10005551D01*
X21260430Y-9979966D01*
X21261909Y-9955014D01*
X21264373Y-9930695D01*
X21267824Y-9907009D01*
X21272259Y-9883956D01*
X21277681Y-9861536D01*
X21284088Y-9839749D01*
X21291482Y-9818596D01*
X21299860Y-9798075D01*
X21309225Y-9778188D01*
X21319575Y-9758934D01*
X21330912Y-9740313D01*
X21343233Y-9722325D01*
X21356541Y-9704970D01*
X21370834Y-9688249D01*
X21386113Y-9672160D01*
X21402202Y-9656881D01*
X21418924Y-9642588D01*
X21436278Y-9629280D01*
X21454266Y-9616958D01*
X21472887Y-9605622D01*
X21492142Y-9595272D01*
X21512029Y-9585907D01*
X21532549Y-9577528D01*
X21553703Y-9570135D01*
X21575489Y-9563728D01*
X21597909Y-9558306D01*
X21620962Y-9553870D01*
X21644648Y-9550420D01*
X21668967Y-9547956D01*
X21693920Y-9546477D01*
X21719505Y-9545984D01*
X21823113Y-9545984D01*
X21850435Y-9546201D01*
X21878162Y-9546850D01*
X21906294Y-9547932D01*
X21934831Y-9549446D01*
X21963772Y-9551394D01*
X21993118Y-9553774D01*
X22022869Y-9556587D01*
X22053025Y-9559833D01*
X22083585Y-9563511D01*
X22114550Y-9567623D01*
X22145919Y-9572167D01*
X22177694Y-9577143D01*
X22209873Y-9582553D01*
X22242457Y-9588395D01*
X22275445Y-9594671D01*
X22308838Y-9601378D01*
X22308838Y-9473664D01*
X22308742Y-9469034D01*
X22305376Y-9447385D01*
X22297202Y-9428241D01*
X22284219Y-9411602D01*
X22281091Y-9408620D01*
X22263951Y-9396599D01*
X22244306Y-9389386D01*
X22222157Y-9386982D01*
X22184484Y-9387160D01*
X22144555Y-9387695D01*
X22123745Y-9388097D01*
X22102370Y-9388587D01*
X22080432Y-9389166D01*
X22057929Y-9389835D01*
X22034863Y-9390593D01*
X22011232Y-9391440D01*
X21987038Y-9392376D01*
X21962280Y-9393401D01*
X21936957Y-9394516D01*
X21911071Y-9395720D01*
X21884620Y-9397012D01*
X21857606Y-9398394D01*
X21830028Y-9399865D01*
X21801885Y-9401426D01*
X21773179Y-9403075D01*
X21743908Y-9404814D01*
X21714074Y-9406641D01*
X21683675Y-9408558D01*
X21652713Y-9410564D01*
X21621186Y-9412660D01*
X21589096Y-9414844D01*
X21556442Y-9417118D01*
X21523223Y-9419480D01*
X21489441Y-9421932D01*
X21455094Y-9424473D01*
X21420184Y-9427103D01*
X21384709Y-9429823D01*
X21348671Y-9432631D01*
X21348671Y-9015635D01*
X21385162Y-9011912D01*
X21421416Y-9008306D01*
X21457434Y-9004819D01*
X21493215Y-9001450D01*
X21528761Y-8998199D01*
X21564069Y-8995067D01*
X21599141Y-8992052D01*
X21633977Y-8989156D01*
X21668577Y-8986378D01*
X21702940Y-8983719D01*
X21737066Y-8981177D01*
X21770956Y-8978754D01*
X21804610Y-8976449D01*
X21838027Y-8974262D01*
X21871208Y-8972193D01*
X21904153Y-8970243D01*
X21936861Y-8968410D01*
X21969332Y-8966696D01*
X22001567Y-8965101D01*
X22033566Y-8963623D01*
X22065328Y-8962264D01*
X22096854Y-8961022D01*
X22128144Y-8959899D01*
X22159197Y-8958895D01*
X22190014Y-8958008D01*
X22220594Y-8957240D01*
X22250938Y-8956589D01*
X22281045Y-8956058D01*
X22310916Y-8955644D01*
X22340551Y-8955348D01*
X22369949Y-8955171D01*
X22399111Y-8955112D01*
X22424756Y-8955605D01*
G37*
G36*
X23794226Y-11026755D02*
G01*
X23794226Y-9487000D01*
X23244386Y-9487000D01*
X23244386Y-10594885D01*
X23022809Y-10594885D01*
X23022809Y-11026755D01*
X23794226Y-11026755D01*
G37*
G36*
X23244386Y-11617628D02*
G01*
X23794226Y-11617628D01*
X23794226Y-11170883D01*
X23244386Y-11170883D01*
X23244386Y-11617628D01*
G37*
G36*
X25472467Y-9518287D02*
G01*
X25437121Y-9514532D01*
X25402056Y-9510896D01*
X25367273Y-9507379D01*
X25332771Y-9503982D01*
X25298551Y-9500703D01*
X25264612Y-9497544D01*
X25230955Y-9494504D01*
X25197580Y-9491584D01*
X25164485Y-9488782D01*
X25131673Y-9486100D01*
X25099141Y-9483537D01*
X25066892Y-9481093D01*
X25034923Y-9478768D01*
X25003237Y-9476563D01*
X24971832Y-9474477D01*
X24940708Y-9472510D01*
X24909866Y-9470662D01*
X24879305Y-9468933D01*
X24849026Y-9467324D01*
X24819028Y-9465834D01*
X24789312Y-9464463D01*
X24759877Y-9463211D01*
X24730724Y-9462079D01*
X24701852Y-9461065D01*
X24673262Y-9460171D01*
X24644953Y-9459397D01*
X24616926Y-9458741D01*
X24589180Y-9458204D01*
X24561716Y-9457787D01*
X24534533Y-9457489D01*
X24507632Y-9457310D01*
X24481012Y-9457251D01*
X24455427Y-9457744D01*
X24430475Y-9459222D01*
X24406155Y-9461687D01*
X24382469Y-9465137D01*
X24359417Y-9469573D01*
X24336997Y-9474994D01*
X24315210Y-9481402D01*
X24294057Y-9488795D01*
X24273536Y-9497174D01*
X24253649Y-9506538D01*
X24234395Y-9516889D01*
X24215774Y-9528225D01*
X24197786Y-9540547D01*
X24180431Y-9553854D01*
X24163709Y-9568147D01*
X24147621Y-9583427D01*
X24132342Y-9599515D01*
X24118048Y-9616237D01*
X24104741Y-9633592D01*
X24092419Y-9651579D01*
X24081083Y-9670201D01*
X24070732Y-9689455D01*
X24061368Y-9709342D01*
X24052989Y-9729862D01*
X24045596Y-9751016D01*
X24039188Y-9772803D01*
X24033767Y-9795222D01*
X24029331Y-9818275D01*
X24025881Y-9841961D01*
X24023416Y-9866280D01*
X24021938Y-9891233D01*
X24021445Y-9916818D01*
X24021445Y-10596424D01*
X24021954Y-10624572D01*
X24023481Y-10651954D01*
X24026025Y-10678572D01*
X24029587Y-10704423D01*
X24034167Y-10729510D01*
X24039765Y-10753831D01*
X24046381Y-10777387D01*
X24054015Y-10800177D01*
X24062666Y-10822202D01*
X24072335Y-10843462D01*
X24083022Y-10863956D01*
X24094727Y-10883685D01*
X24107449Y-10902649D01*
X24121190Y-10920847D01*
X24135948Y-10938280D01*
X24151724Y-10954948D01*
X24168454Y-10970786D01*
X24185945Y-10985602D01*
X24204197Y-10999397D01*
X24223211Y-11012169D01*
X24242986Y-11023920D01*
X24263522Y-11034649D01*
X24284820Y-11044356D01*
X24306879Y-11053042D01*
X24329700Y-11060705D01*
X24353282Y-11067347D01*
X24377625Y-11072967D01*
X24402729Y-11077565D01*
X24428595Y-11081142D01*
X24455222Y-11083696D01*
X24482611Y-11085229D01*
X24510761Y-11085740D01*
X25472467Y-11085740D01*
X25472467Y-10653870D01*
X24673353Y-10653870D01*
X24649431Y-10652283D01*
X24628698Y-10647522D01*
X24607268Y-10637109D01*
X24590821Y-10621737D01*
X24579358Y-10601406D01*
X24573776Y-10581570D01*
X24571384Y-10558562D01*
X24571284Y-10552314D01*
X24571284Y-9976316D01*
X24573689Y-9953896D01*
X24580901Y-9934081D01*
X24592923Y-9916870D01*
X24595904Y-9913741D01*
X24612814Y-9900758D01*
X24632128Y-9892583D01*
X24653847Y-9889217D01*
X24658479Y-9889121D01*
X24692734Y-9889299D01*
X24729205Y-9889834D01*
X24767891Y-9890726D01*
X24808794Y-9891974D01*
X24830076Y-9892732D01*
X24851912Y-9893579D01*
X24874303Y-9894515D01*
X24897247Y-9895540D01*
X24920745Y-9896655D01*
X24944797Y-9897858D01*
X24969403Y-9899151D01*
X24994563Y-9900533D01*
X25020277Y-9902004D01*
X25046546Y-9903565D01*
X25073368Y-9905214D01*
X25100744Y-9906953D01*
X25128674Y-9908780D01*
X25157158Y-9910697D01*
X25186196Y-9912703D01*
X25215788Y-9914798D01*
X25245934Y-9916983D01*
X25276634Y-9919256D01*
X25307888Y-9921619D01*
X25339696Y-9924071D01*
X25372058Y-9926612D01*
X25404973Y-9929242D01*
X25438443Y-9931961D01*
X25472467Y-9934770D01*
X25472467Y-9518287D01*
G37*
G36*
X25608901Y-10314323D02*
G01*
X25608901Y-10760555D01*
X26852708Y-10760555D01*
X26852708Y-10314323D01*
X25608901Y-10314323D01*
G37*
G36*
X28500175Y-10921609D02*
G01*
X28499321Y-10889510D01*
X28496761Y-10857968D01*
X28492493Y-10826983D01*
X28486519Y-10796555D01*
X28478837Y-10766684D01*
X28469448Y-10737370D01*
X28458353Y-10708613D01*
X28445550Y-10680413D01*
X28431040Y-10652770D01*
X28414823Y-10625684D01*
X28396900Y-10599155D01*
X28377269Y-10573183D01*
X28355931Y-10547767D01*
X28332886Y-10522909D01*
X28308134Y-10498608D01*
X28281675Y-10474864D01*
X28265078Y-10460751D01*
X28248112Y-10446622D01*
X28230777Y-10432477D01*
X28213073Y-10418316D01*
X28195001Y-10404139D01*
X28176561Y-10389945D01*
X28157751Y-10375736D01*
X28138573Y-10361511D01*
X27544624Y-9933231D01*
X28500175Y-9933231D01*
X28500175Y-9487000D01*
X26871686Y-9487000D01*
X26871686Y-10072743D01*
X27935461Y-10841082D01*
X27935461Y-10980593D01*
X27934045Y-11009375D01*
X27929799Y-11035326D01*
X27922721Y-11058446D01*
X27912813Y-11078735D01*
X27900073Y-11096193D01*
X27884503Y-11110820D01*
X27866101Y-11122616D01*
X27844868Y-11131581D01*
X27820805Y-11137715D01*
X27793910Y-11141018D01*
X27774407Y-11141647D01*
X26930670Y-11141647D01*
X26930670Y-11587879D01*
X27892889Y-11587879D01*
X27931778Y-11587312D01*
X27969329Y-11585611D01*
X28005541Y-11582776D01*
X28040415Y-11578807D01*
X28073951Y-11573704D01*
X28106148Y-11567467D01*
X28137007Y-11560095D01*
X28166527Y-11551590D01*
X28194709Y-11541951D01*
X28221553Y-11531178D01*
X28247058Y-11519271D01*
X28271225Y-11506230D01*
X28294053Y-11492055D01*
X28315543Y-11476746D01*
X28335695Y-11460302D01*
X28354508Y-11442725D01*
X28372148Y-11423910D01*
X28388649Y-11403752D01*
X28404012Y-11382252D01*
X28418237Y-11359409D01*
X28431325Y-11335225D01*
X28443274Y-11309697D01*
X28454085Y-11282828D01*
X28463758Y-11254616D01*
X28472293Y-11225061D01*
X28479691Y-11194164D01*
X28485950Y-11161925D01*
X28491071Y-11128343D01*
X28495054Y-11093420D01*
X28497899Y-11057153D01*
X28499606Y-11019544D01*
X28500175Y-10980593D01*
X28500175Y-10921609D01*
G37*
G36*
X29581389Y-9900405D02*
G01*
X28488378Y-9900405D01*
X28488378Y-10335353D01*
X29204400Y-11587879D01*
X29833228Y-11587879D01*
X29123873Y-10347150D01*
X29581389Y-10347150D01*
X29581389Y-10790304D01*
X30146103Y-10790304D01*
X30146103Y-10347150D01*
X30352806Y-10347150D01*
X30352806Y-9900405D01*
X30146103Y-9900405D01*
X30146103Y-9487000D01*
X29581389Y-9487000D01*
X29581389Y-9900405D01*
G37*
G36*
X32289554Y-10592321D02*
G01*
X31901794Y-9900405D01*
X31468898Y-9900405D01*
X31081138Y-10592321D01*
X31081138Y-9487000D01*
X30516937Y-9487000D01*
X30516937Y-11587879D01*
X31104219Y-11587879D01*
X31685346Y-10512819D01*
X32266473Y-11587879D01*
X32853755Y-11587879D01*
X32853755Y-9487000D01*
X32289554Y-9487000D01*
X32289554Y-10592321D01*
G37*
G36*
X34996180Y-9487000D02*
G01*
X34431466Y-9487000D01*
X34431466Y-10329198D01*
X33725702Y-10329198D01*
X33725702Y-9487000D01*
X33161501Y-9487000D01*
X33161501Y-11587879D01*
X33725702Y-11587879D01*
X33725702Y-10775429D01*
X34431466Y-10775429D01*
X34431466Y-11587879D01*
X34996180Y-11587879D01*
X34996180Y-9487000D01*
G37*
G36*
X36684166Y-10663102D02*
G01*
X35896337Y-9918870D01*
X36684166Y-9918870D01*
X36684166Y-9487000D01*
X35189034Y-9487000D01*
X35189034Y-9909637D01*
X35976864Y-10653870D01*
X35189034Y-10653870D01*
X35189034Y-11085740D01*
X36684166Y-11085740D01*
X36684166Y-10663102D01*
G37*
D10*
G36*
X42007273Y-16109898D02*
G01*
X41987311Y-16108110D01*
X41967571Y-16106379D01*
X41948055Y-16104704D01*
X41928761Y-16103086D01*
X41909689Y-16101525D01*
X41890841Y-16100021D01*
X41872215Y-16098573D01*
X41853812Y-16097182D01*
X41835632Y-16095848D01*
X41817675Y-16094571D01*
X41799940Y-16093351D01*
X41782429Y-16092187D01*
X41765140Y-16091080D01*
X41748073Y-16090030D01*
X41731230Y-16089036D01*
X41714609Y-16088100D01*
X41698211Y-16087220D01*
X41682036Y-16086397D01*
X41666084Y-16085630D01*
X41650354Y-16084921D01*
X41634848Y-16084268D01*
X41619564Y-16083672D01*
X41604502Y-16083132D01*
X41589664Y-16082650D01*
X41575048Y-16082224D01*
X41560655Y-16081855D01*
X41546485Y-16081543D01*
X41532538Y-16081288D01*
X41518813Y-16081089D01*
X41505311Y-16080947D01*
X41492032Y-16080862D01*
X41478976Y-16080833D01*
X41461619Y-16081095D01*
X41444839Y-16081879D01*
X41428638Y-16083186D01*
X41413015Y-16085016D01*
X41397970Y-16087369D01*
X41383504Y-16090244D01*
X41369615Y-16093643D01*
X41356305Y-16097564D01*
X41343573Y-16102008D01*
X41331419Y-16106975D01*
X41319843Y-16112465D01*
X41308846Y-16118477D01*
X41298426Y-16125013D01*
X41288585Y-16132071D01*
X41279322Y-16139652D01*
X41270637Y-16147756D01*
X41262533Y-16156441D01*
X41254952Y-16165704D01*
X41247894Y-16175545D01*
X41241358Y-16185965D01*
X41235346Y-16196962D01*
X41229856Y-16208538D01*
X41224889Y-16220692D01*
X41220445Y-16233424D01*
X41216524Y-16246734D01*
X41213125Y-16260623D01*
X41210250Y-16275089D01*
X41207897Y-16290134D01*
X41206067Y-16305757D01*
X41204760Y-16321958D01*
X41203976Y-16338738D01*
X41203714Y-16356095D01*
X41203714Y-16806235D01*
X41203984Y-16824783D01*
X41204794Y-16842692D01*
X41206144Y-16859961D01*
X41208034Y-16876592D01*
X41210464Y-16892583D01*
X41213434Y-16907935D01*
X41216944Y-16922648D01*
X41220995Y-16936721D01*
X41225585Y-16950156D01*
X41230715Y-16962951D01*
X41236385Y-16975107D01*
X41242595Y-16986623D01*
X41249345Y-16997501D01*
X41256635Y-17007739D01*
X41264465Y-17017338D01*
X41272835Y-17026297D01*
X41281823Y-17034668D01*
X41291447Y-17042498D01*
X41301706Y-17049788D01*
X41312601Y-17056538D01*
X41324131Y-17062748D01*
X41336296Y-17068418D01*
X41349097Y-17073548D01*
X41362533Y-17078138D01*
X41376605Y-17082188D01*
X41391312Y-17085698D01*
X41406654Y-17088668D01*
X41422632Y-17091098D01*
X41439246Y-17092988D01*
X41456494Y-17094338D01*
X41474378Y-17095148D01*
X41492898Y-17095418D01*
X42007273Y-17095418D01*
X42007273Y-16882927D01*
X41549318Y-16882927D01*
X41535612Y-16882253D01*
X41523255Y-16880231D01*
X41512245Y-16876860D01*
X41502584Y-16872142D01*
X41494270Y-16866076D01*
X41487305Y-16858661D01*
X41481688Y-16849898D01*
X41477419Y-16839788D01*
X41474498Y-16828329D01*
X41472925Y-16815522D01*
X41472626Y-16806235D01*
X41472626Y-16356095D01*
X41473210Y-16345551D01*
X41474961Y-16335899D01*
X41478481Y-16325768D01*
X41483590Y-16316852D01*
X41489234Y-16310177D01*
X41497133Y-16303706D01*
X41506084Y-16298824D01*
X41516087Y-16295531D01*
X41527141Y-16293828D01*
X41533931Y-16293569D01*
X41544704Y-16293595D01*
X41555958Y-16293672D01*
X41567693Y-16293801D01*
X41577840Y-16293947D01*
X41588321Y-16294130D01*
X41596945Y-16294302D01*
X41608002Y-16294543D01*
X41619190Y-16294807D01*
X41630508Y-16295096D01*
X41641959Y-16295408D01*
X41653540Y-16295745D01*
X41665252Y-16296105D01*
X41669974Y-16296256D01*
X41681887Y-16296714D01*
X41693811Y-16297172D01*
X41705748Y-16297629D01*
X41717697Y-16298087D01*
X41729657Y-16298545D01*
X41741630Y-16299003D01*
X41746422Y-16299187D01*
X41756424Y-16299595D01*
X41767137Y-16300087D01*
X41778559Y-16300663D01*
X41790691Y-16301324D01*
X41803533Y-16302068D01*
X41813630Y-16302681D01*
X41824126Y-16303342D01*
X41835022Y-16304049D01*
X41846317Y-16304804D01*
X41858149Y-16305600D01*
X41870655Y-16306430D01*
X41883835Y-16307294D01*
X41897688Y-16308193D01*
X41912216Y-16309126D01*
X41922276Y-16309767D01*
X41932635Y-16310424D01*
X41943294Y-16311095D01*
X41954253Y-16311782D01*
X41965511Y-16312484D01*
X41977069Y-16313202D01*
X41988926Y-16313935D01*
X42001083Y-16314683D01*
X42007273Y-16315062D01*
X42007273Y-16109898D01*
G37*
G36*
X42973254Y-16095000D02*
G01*
X42704342Y-16095000D01*
X42704342Y-16496046D01*
X42368264Y-16496046D01*
X42368264Y-16095000D01*
X42099597Y-16095000D01*
X42099597Y-17095418D01*
X42368264Y-17095418D01*
X42368264Y-16708538D01*
X42704342Y-16708538D01*
X42704342Y-17095418D01*
X42973254Y-17095418D01*
X42973254Y-16095000D01*
G37*
G36*
X43840560Y-16778147D02*
G01*
X43840154Y-16762862D01*
X43838934Y-16747842D01*
X43836902Y-16733087D01*
X43834057Y-16718597D01*
X43830399Y-16704373D01*
X43825928Y-16690414D01*
X43820645Y-16676720D01*
X43814548Y-16663292D01*
X43807639Y-16650128D01*
X43799917Y-16637230D01*
X43791381Y-16624597D01*
X43782033Y-16612230D01*
X43771873Y-16600127D01*
X43760899Y-16588290D01*
X43749112Y-16576718D01*
X43736513Y-16565411D01*
X43728609Y-16558691D01*
X43720530Y-16551963D01*
X43712275Y-16545227D01*
X43703845Y-16538483D01*
X43695239Y-16531732D01*
X43686458Y-16524974D01*
X43677501Y-16518207D01*
X43668369Y-16511434D01*
X43385536Y-16307491D01*
X43840560Y-16307491D01*
X43840560Y-16095000D01*
X43065089Y-16095000D01*
X43065089Y-16373925D01*
X43571649Y-16739801D01*
X43571649Y-16806235D01*
X43570975Y-16819940D01*
X43568953Y-16832298D01*
X43565582Y-16843308D01*
X43560864Y-16852969D01*
X43554797Y-16861282D01*
X43547383Y-16868248D01*
X43538620Y-16873865D01*
X43528509Y-16878134D01*
X43517050Y-16881055D01*
X43504243Y-16882627D01*
X43494957Y-16882927D01*
X43093177Y-16882927D01*
X43093177Y-17095418D01*
X43551377Y-17095418D01*
X43569895Y-17095148D01*
X43587776Y-17094338D01*
X43605020Y-17092988D01*
X43621627Y-17091098D01*
X43637596Y-17088668D01*
X43652928Y-17085698D01*
X43667623Y-17082188D01*
X43681680Y-17078138D01*
X43695100Y-17073548D01*
X43707883Y-17068418D01*
X43720028Y-17062748D01*
X43731536Y-17056538D01*
X43742407Y-17049788D01*
X43752640Y-17042498D01*
X43762236Y-17034668D01*
X43771195Y-17026297D01*
X43779595Y-17017338D01*
X43787453Y-17007739D01*
X43794768Y-16997501D01*
X43801542Y-16986623D01*
X43807774Y-16975107D01*
X43813464Y-16962951D01*
X43818613Y-16950156D01*
X43823219Y-16936721D01*
X43827283Y-16922648D01*
X43830806Y-16907935D01*
X43833786Y-16892583D01*
X43836225Y-16876592D01*
X43838122Y-16859961D01*
X43839476Y-16842692D01*
X43840289Y-16824783D01*
X43840560Y-16806235D01*
X43840560Y-16778147D01*
G37*
G36*
X42058998Y-3419898D02*
G01*
X42039036Y-3418110D01*
X42019296Y-3416379D01*
X41999780Y-3414704D01*
X41980486Y-3413086D01*
X41961414Y-3411525D01*
X41942566Y-3410021D01*
X41923940Y-3408573D01*
X41905537Y-3407182D01*
X41887357Y-3405848D01*
X41869400Y-3404571D01*
X41851665Y-3403351D01*
X41834154Y-3402187D01*
X41816865Y-3401080D01*
X41799798Y-3400030D01*
X41782955Y-3399036D01*
X41766334Y-3398100D01*
X41749936Y-3397220D01*
X41733761Y-3396397D01*
X41717809Y-3395630D01*
X41702079Y-3394921D01*
X41686573Y-3394268D01*
X41671289Y-3393672D01*
X41656227Y-3393132D01*
X41641389Y-3392650D01*
X41626773Y-3392224D01*
X41612380Y-3391855D01*
X41598210Y-3391543D01*
X41584263Y-3391288D01*
X41570538Y-3391089D01*
X41557036Y-3390947D01*
X41543757Y-3390862D01*
X41530701Y-3390833D01*
X41513344Y-3391095D01*
X41496564Y-3391879D01*
X41480363Y-3393186D01*
X41464740Y-3395016D01*
X41449695Y-3397369D01*
X41435229Y-3400244D01*
X41421340Y-3403643D01*
X41408030Y-3407564D01*
X41395298Y-3412008D01*
X41383144Y-3416975D01*
X41371568Y-3422465D01*
X41360571Y-3428477D01*
X41350151Y-3435013D01*
X41340310Y-3442071D01*
X41331047Y-3449652D01*
X41322362Y-3457756D01*
X41314258Y-3466441D01*
X41306677Y-3475704D01*
X41299619Y-3485545D01*
X41293083Y-3495965D01*
X41287071Y-3506962D01*
X41281581Y-3518538D01*
X41276614Y-3530692D01*
X41272170Y-3543424D01*
X41268249Y-3556734D01*
X41264850Y-3570623D01*
X41261975Y-3585089D01*
X41259622Y-3600134D01*
X41257792Y-3615757D01*
X41256485Y-3631958D01*
X41255701Y-3648738D01*
X41255439Y-3666095D01*
X41255439Y-4116235D01*
X41255709Y-4134783D01*
X41256519Y-4152692D01*
X41257869Y-4169961D01*
X41259759Y-4186592D01*
X41262189Y-4202583D01*
X41265159Y-4217935D01*
X41268669Y-4232648D01*
X41272720Y-4246721D01*
X41277310Y-4260156D01*
X41282440Y-4272951D01*
X41288110Y-4285107D01*
X41294320Y-4296623D01*
X41301070Y-4307501D01*
X41308360Y-4317739D01*
X41316190Y-4327338D01*
X41324560Y-4336297D01*
X41333548Y-4344668D01*
X41343172Y-4352498D01*
X41353431Y-4359788D01*
X41364326Y-4366538D01*
X41375856Y-4372748D01*
X41388021Y-4378418D01*
X41400822Y-4383548D01*
X41414258Y-4388138D01*
X41428330Y-4392188D01*
X41443037Y-4395698D01*
X41458379Y-4398668D01*
X41474357Y-4401098D01*
X41490971Y-4402988D01*
X41508219Y-4404338D01*
X41526103Y-4405148D01*
X41544623Y-4405418D01*
X42058998Y-4405418D01*
X42058998Y-4192927D01*
X41601043Y-4192927D01*
X41587337Y-4192253D01*
X41574980Y-4190231D01*
X41563970Y-4186860D01*
X41554309Y-4182142D01*
X41545995Y-4176076D01*
X41539030Y-4168661D01*
X41533413Y-4159898D01*
X41529144Y-4149788D01*
X41526223Y-4138329D01*
X41524650Y-4125522D01*
X41524351Y-4116235D01*
X41524351Y-3666095D01*
X41524935Y-3655551D01*
X41526686Y-3645899D01*
X41530206Y-3635768D01*
X41535315Y-3626852D01*
X41540959Y-3620177D01*
X41548858Y-3613706D01*
X41557809Y-3608824D01*
X41567812Y-3605531D01*
X41578866Y-3603828D01*
X41585656Y-3603569D01*
X41596429Y-3603595D01*
X41607683Y-3603672D01*
X41619418Y-3603801D01*
X41629565Y-3603947D01*
X41640046Y-3604130D01*
X41648670Y-3604302D01*
X41659727Y-3604543D01*
X41670915Y-3604807D01*
X41682233Y-3605096D01*
X41693684Y-3605408D01*
X41705265Y-3605745D01*
X41716977Y-3606105D01*
X41721699Y-3606256D01*
X41733612Y-3606714D01*
X41745536Y-3607172D01*
X41757473Y-3607629D01*
X41769422Y-3608087D01*
X41781382Y-3608545D01*
X41793355Y-3609003D01*
X41798147Y-3609187D01*
X41808149Y-3609595D01*
X41818862Y-3610087D01*
X41830284Y-3610663D01*
X41842416Y-3611324D01*
X41855258Y-3612068D01*
X41865355Y-3612681D01*
X41875851Y-3613342D01*
X41886747Y-3614049D01*
X41898042Y-3614804D01*
X41909874Y-3615600D01*
X41922380Y-3616430D01*
X41935560Y-3617294D01*
X41949413Y-3618193D01*
X41963941Y-3619126D01*
X41974001Y-3619767D01*
X41984360Y-3620424D01*
X41995019Y-3621095D01*
X42005978Y-3621782D01*
X42017236Y-3622484D01*
X42028794Y-3623202D01*
X42040651Y-3623935D01*
X42052808Y-3624683D01*
X42058998Y-3625062D01*
X42058998Y-3419898D01*
G37*
G36*
X43024979Y-3405000D02*
G01*
X42756067Y-3405000D01*
X42756067Y-3806046D01*
X42419989Y-3806046D01*
X42419989Y-3405000D01*
X42151322Y-3405000D01*
X42151322Y-4405418D01*
X42419989Y-4405418D01*
X42419989Y-4018538D01*
X42756067Y-4018538D01*
X42756067Y-4405418D01*
X43024979Y-4405418D01*
X43024979Y-3405000D01*
G37*
G36*
X43102892Y-4405418D02*
G01*
X43878119Y-4405418D01*
X43878119Y-4199277D01*
X43551811Y-3405000D01*
X43253346Y-3405000D01*
X43591134Y-4192927D01*
X43102892Y-4192927D01*
X43102892Y-4405418D01*
G37*
D13*
%TO.C,HOLE2*%
X40335000Y-2865000D02*
G75*
G03*
X36735000Y-2865000I-1800000J0D01*
G01*
X36735000Y-2865000D02*
G75*
G03*
X40335000Y-2865000I1800000J0D01*
G01*
%TO.C,HOLE4*%
X2655000Y-2865000D02*
G75*
G03*
X-945000Y-2865000I-1800000J0D01*
G01*
X-945000Y-2865000D02*
G75*
G03*
X2655000Y-2865000I1800000J0D01*
G01*
%TO.C,HOLE3*%
X2655000Y-22865000D02*
G75*
G03*
X-945000Y-22865000I-1800000J0D01*
G01*
X-945000Y-22865000D02*
G75*
G03*
X2655000Y-22865000I1800000J0D01*
G01*
%TO.C,HOLE1*%
X40335000Y-22865000D02*
G75*
G03*
X36735000Y-22865000I-1800000J0D01*
G01*
X36735000Y-22865000D02*
G75*
G03*
X40335000Y-22865000I1800000J0D01*
G01*
%TD*%
%LPC*%
D14*
%TO.C,HOLE2*%
X38535000Y-2865000D03*
%TD*%
%TO.C,HOLE4*%
X855000Y-2865000D03*
%TD*%
D15*
%TO.C,USB1*%
X3634000Y-9910000D03*
X3634000Y-15690000D03*
D16*
X4134000Y-8475000D03*
X4134000Y-17125000D03*
D17*
X-66000Y-8475000D03*
X-66000Y-17125000D03*
%TD*%
D14*
%TO.C,HOLE3*%
X855000Y-22865000D03*
%TD*%
D18*
%TO.C,J1*%
X45440000Y-1370000D03*
D19*
X45440000Y-3910000D03*
X45440000Y-6450000D03*
X45440000Y-8990000D03*
X45440000Y-11530000D03*
X45440000Y-14070000D03*
X45440000Y-16610000D03*
X45440000Y-19150000D03*
X45440000Y-21690000D03*
X45440000Y-24230000D03*
%TD*%
D14*
%TO.C,HOLE1*%
X38535000Y-22865000D03*
%TD*%
%LPD*%
M02*
