M48
; DRILL file {KiCad 7.0.5} date Fri Jun 30 15:20:45 2023
; FORMAT={-:-/ absolute / metric / decimal}
; #@! TF.CreationDate,2023-06-30T15:20:45+08:00
; #@! TF.GenerationSoftware,Kicad,Pcbnew,7.0.5
; #@! TF.FileFunction,MixedPlating,1,2
FMAT,2
METRIC
; #@! TA.AperFunction,Plated,PTH,ComponentDrill
T1C0.200
; #@! TA.AperFunction,Plated,PTH,ViaDrill
T2C0.300
; #@! TA.AperFunction,Plated,PTH,ViaDrill
T3C0.400
; #@! TA.AperFunction,Plated,PTH,ViaDrill
T4C0.500
; #@! TA.AperFunction,Plated,PTH,ComponentDrill
T5C0.600
; #@! TA.AperFunction,Plated,PTH,ComponentDrill
T6C1.000
; #@! TA.AperFunction,Plated,PTH,ComponentDrill
T7C2.200
; #@! TA.AperFunction,NonPlated,NPTH,ComponentDrill
T8C0.650
%
G90
G05
T1
X1.455Y-10.775
X1.455Y-11.775
X1.455Y-12.775
X1.455Y-13.775
X1.455Y-14.775
X2.63Y-10.775
X2.63Y-11.775
X2.63Y-12.775
X2.63Y-13.775
X2.63Y-14.775
X3.805Y-10.775
X3.805Y-11.775
X3.805Y-12.775
X3.805Y-13.775
X3.805Y-14.775
X4.98Y-10.775
X4.98Y-11.775
X4.98Y-12.775
X4.98Y-13.775
X4.98Y-14.775
X6.155Y-10.775
X6.155Y-11.775
X6.155Y-12.775
X6.155Y-13.775
X6.155Y-14.775
T2
X-23.025Y-12.685
X-19.925Y-8.305
X-19.925Y-9.855
X-19.925Y-11.245
X-19.925Y-14.185
X-19.925Y-15.735
X-19.925Y-17.275
X-19.225Y-12.685
X-16.875Y-11.15
X-16.835Y-8.225
X-16.82Y-12.8
X-16.815Y-14.275
X-16.805Y-17.195
X-16.785Y-15.725
X-16.78Y-9.74
X-15.09Y-11.8
X-13.925Y-21.335
X-13.915Y-4.095
X-12.395Y-21.335
X-12.385Y-4.095
X-10.855Y-4.105
X-10.855Y-21.335
X-9.335Y-21.335
X-9.315Y-4.105
X-2.035Y-16.445
X-1.245Y-7.705
X-1.245Y-10.515
X0.495Y-18.085
X0.555Y-7.455
X2.554Y-5.605
X4.411Y-7.131
X8.855Y-8.975
X8.945Y-20.945
X8.945Y-24.015
X11.075Y-17.335
X13.095Y-17.325
X13.425Y-6.065
X13.895Y-13.365
X14.675Y-5.125
X14.785Y-11.505
X14.785Y-14.005
X15.685Y-20.945
X15.685Y-24.015
X16.535Y-19.595
X16.805Y-12.525
X16.805Y-13.495
T3
X-6.695Y-23.055
X10.865Y-13.765
X11.565Y-6.065
X12.475Y-2.875
X13.89Y-14.58
X13.945Y-7.995
T4
X4.405Y-4.745
X5.395Y-2.815
T6
X-24.64Y-1.34
X-24.64Y-3.88
X-24.64Y-6.42
X-24.64Y-8.96
X-24.64Y-11.5
X-24.64Y-14.04
X-24.64Y-16.58
X-24.64Y-19.12
X-24.64Y-21.66
X-24.64Y-24.2
T7
X-17.735Y-2.705
X-17.735Y-22.705
X19.945Y-2.705
X19.945Y-22.705
T8
X17.166Y-9.88
X17.166Y-15.66
T5
G00X16.066Y-8.445
M15
G01X17.266Y-8.445
M16
G05
G00X16.066Y-17.095
M15
G01X17.266Y-17.095
M16
G05
G00X20.416Y-8.445
M15
G01X21.316Y-8.445
M16
G05
G00X20.416Y-17.095
M15
G01X21.316Y-17.095
M16
G05
T0
M30
