%TF.GenerationSoftware,KiCad,Pcbnew,(6.0.10)*%
%TF.CreationDate,2022-12-30T18:11:38+08:00*%
%TF.ProjectId,UINIO-Logic-24MHz,55494e49-4f2d-44c6-9f67-69632d32344d,Version 1.0.0*%
%TF.SameCoordinates,Original*%
%TF.FileFunction,Legend,Top*%
%TF.FilePolarity,Positive*%
%FSLAX46Y46*%
G04 Gerber Fmt 4.6, Leading zero omitted, Abs format (unit mm)*
G04 Created by KiCad (PCBNEW (6.0.10)) date 2022-12-30 18:11:38*
%MOMM*%
%LPD*%
G01*
G04 APERTURE LIST*
G04 Aperture macros list*
%AMRoundRect*
0 Rectangle with rounded corners*
0 $1 Rounding radius*
0 $2 $3 $4 $5 $6 $7 $8 $9 X,Y pos of 4 corners*
0 Add a 4 corners polygon primitive as box body*
4,1,4,$2,$3,$4,$5,$6,$7,$8,$9,$2,$3,0*
0 Add four circle primitives for the rounded corners*
1,1,$1+$1,$2,$3*
1,1,$1+$1,$4,$5*
1,1,$1+$1,$6,$7*
1,1,$1+$1,$8,$9*
0 Add four rect primitives between the rounded corners*
20,1,$1+$1,$2,$3,$4,$5,0*
20,1,$1+$1,$4,$5,$6,$7,0*
20,1,$1+$1,$6,$7,$8,$9,0*
20,1,$1+$1,$8,$9,$2,$3,0*%
%AMFreePoly0*
4,1,17,0.300000,0.502500,0.435000,0.367500,0.500000,0.367500,0.500000,-0.367500,0.435000,-0.367500,0.300000,-0.502500,0.300000,-0.587500,-0.300000,-0.587500,-0.300000,-0.502500,-0.435000,-0.367500,-0.750000,-0.367500,-0.750000,0.367500,-0.435000,0.367500,-0.300000,0.502500,-0.300000,0.587500,0.300000,0.587500,0.300000,0.502500,0.300000,0.502500,$1*%
%AMFreePoly1*
4,1,17,0.300000,0.502500,0.435000,0.367500,0.500000,0.367500,0.500000,-0.367500,0.435000,-0.367500,0.300000,-0.502500,0.300000,-0.587500,-0.300000,-0.587500,-0.300000,-0.502500,-0.435000,-0.367500,-0.500000,-0.367500,-0.500000,0.367500,-0.435000,0.367500,-0.300000,0.502500,-0.300000,0.587500,0.300000,0.587500,0.300000,0.502500,0.300000,0.502500,$1*%
%AMFreePoly2*
4,1,17,0.300000,0.502500,0.435000,0.367500,0.750000,0.367500,0.750000,-0.367500,0.435000,-0.367500,0.300000,-0.502500,0.300000,-0.587500,-0.300000,-0.587500,-0.300000,-0.502500,-0.435000,-0.367500,-0.500000,-0.367500,-0.500000,0.367500,-0.435000,0.367500,-0.300000,0.502500,-0.300000,0.587500,0.300000,0.587500,0.300000,0.502500,0.300000,0.502500,$1*%
%AMFreePoly3*
4,1,17,0.300000,0.502500,0.435000,0.367500,0.750000,0.367500,0.750000,-0.367500,0.435000,-0.367500,0.300000,-0.502500,0.300000,-0.837550,-0.300000,-0.837550,-0.300000,-0.502500,-0.435000,-0.367500,-0.500000,-0.367500,-0.500000,0.367500,-0.435000,0.367500,-0.300000,0.502500,-0.300000,0.587500,0.300000,0.587500,0.300000,0.502500,0.300000,0.502500,$1*%
%AMFreePoly4*
4,1,17,0.300000,0.502500,0.435000,0.367500,0.500000,0.367500,0.500000,-0.367500,0.435000,-0.367500,0.300000,-0.502500,0.300000,-0.837550,-0.300000,-0.837550,-0.300000,-0.502500,-0.435000,-0.367500,-0.500000,-0.367500,-0.500000,0.367500,-0.435000,0.367500,-0.300000,0.502500,-0.300000,0.587500,0.300000,0.587500,0.300000,0.502500,0.300000,0.502500,$1*%
%AMFreePoly5*
4,1,17,0.300000,0.502500,0.435000,0.367500,0.750000,0.367500,0.750000,-0.367500,0.435000,-0.367500,0.300000,-0.502500,0.300000,-0.587500,-0.300000,-0.587500,-0.300000,-0.502500,-0.435000,-0.367500,-0.500000,-0.367500,-0.500000,0.367500,-0.435000,0.367500,-0.300000,0.502500,-0.300000,0.837550,0.300000,0.837550,0.300000,0.502500,0.300000,0.502500,$1*%
%AMFreePoly6*
4,1,17,0.300000,0.502500,0.435000,0.367500,0.500000,0.367500,0.500000,-0.367500,0.435000,-0.367500,0.300000,-0.502500,0.300000,-0.587500,-0.300000,-0.587500,-0.300000,-0.502500,-0.435000,-0.367500,-0.500000,-0.367500,-0.500000,0.367500,-0.435000,0.367500,-0.300000,0.502500,-0.300000,0.837550,0.300000,0.837550,0.300000,0.502500,0.300000,0.502500,$1*%
%AMFreePoly7*
4,1,17,0.300000,0.502500,0.435000,0.367500,0.500000,0.367500,0.500000,-0.367500,0.435000,-0.367500,0.300000,-0.502500,0.300000,-0.837550,-0.300000,-0.837550,-0.300000,-0.502500,-0.435000,-0.367500,-0.750000,-0.367500,-0.750000,0.367500,-0.435000,0.367500,-0.300000,0.502500,-0.300000,0.587500,0.300000,0.587500,0.300000,0.502500,0.300000,0.502500,$1*%
%AMFreePoly8*
4,1,17,0.300000,0.502500,0.435000,0.367500,0.500000,0.367500,0.500000,-0.367500,0.435000,-0.367500,0.300000,-0.502500,0.300000,-0.587500,-0.300000,-0.587500,-0.300000,-0.502500,-0.435000,-0.367500,-0.750000,-0.367500,-0.750000,0.367500,-0.435000,0.367500,-0.300000,0.502500,-0.300000,0.837550,0.300000,0.837550,0.300000,0.502500,0.300000,0.502500,$1*%
G04 Aperture macros list end*
%ADD10C,0.150000*%
%ADD11C,0.100000*%
%ADD12C,0.300000*%
%ADD13C,0.120000*%
%ADD14C,0.254000*%
%ADD15RoundRect,0.140000X0.170000X-0.140000X0.170000X0.140000X-0.170000X0.140000X-0.170000X-0.140000X0*%
%ADD16RoundRect,0.135000X-0.135000X-0.185000X0.135000X-0.185000X0.135000X0.185000X-0.135000X0.185000X0*%
%ADD17RoundRect,0.140000X0.140000X0.170000X-0.140000X0.170000X-0.140000X-0.170000X0.140000X-0.170000X0*%
%ADD18RoundRect,0.218750X0.218750X0.256250X-0.218750X0.256250X-0.218750X-0.256250X0.218750X-0.256250X0*%
%ADD19R,1.000000X0.600000*%
%ADD20RoundRect,0.140000X-0.170000X0.140000X-0.170000X-0.140000X0.170000X-0.140000X0.170000X0.140000X0*%
%ADD21C,2.200000*%
%ADD22C,1.200000*%
%ADD23RoundRect,0.135000X0.135000X0.185000X-0.135000X0.185000X-0.135000X-0.185000X0.135000X-0.185000X0*%
%ADD24RoundRect,0.140000X-0.140000X-0.170000X0.140000X-0.170000X0.140000X0.170000X-0.140000X0.170000X0*%
%ADD25RoundRect,0.135000X-0.185000X0.135000X-0.185000X-0.135000X0.185000X-0.135000X0.185000X0.135000X0*%
%ADD26RoundRect,0.100000X-0.637500X-0.100000X0.637500X-0.100000X0.637500X0.100000X-0.637500X0.100000X0*%
%ADD27FreePoly0,225.000000*%
%ADD28FreePoly1,225.000000*%
%ADD29FreePoly2,225.000000*%
%ADD30FreePoly3,225.000000*%
%ADD31FreePoly4,225.000000*%
%ADD32FreePoly5,225.000000*%
%ADD33FreePoly6,225.000000*%
%ADD34FreePoly7,225.000000*%
%ADD35FreePoly8,225.000000*%
%ADD36RoundRect,0.062500X0.220971X0.309359X-0.309359X-0.220971X-0.220971X-0.309359X0.309359X0.220971X0*%
%ADD37RoundRect,0.062500X-0.220971X0.309359X-0.309359X0.220971X0.220971X-0.309359X0.309359X-0.220971X0*%
%ADD38RoundRect,0.250000X0.600000X0.600000X-0.600000X0.600000X-0.600000X-0.600000X0.600000X-0.600000X0*%
%ADD39C,1.700000*%
%ADD40RoundRect,0.218750X-0.218750X-0.256250X0.218750X-0.256250X0.218750X0.256250X-0.218750X0.256250X0*%
%ADD41C,0.650000*%
%ADD42O,2.100000X1.000000*%
%ADD43O,1.900000X1.000000*%
%ADD44R,1.150000X0.600000*%
%ADD45R,1.150000X0.300000*%
%ADD46R,1.400000X1.200000*%
G04 APERTURE END LIST*
D10*
X160166666Y-101706666D02*
X160166666Y-102273333D01*
X160204761Y-102340000D01*
X160242857Y-102373333D01*
X160319047Y-102406666D01*
X160471428Y-102406666D01*
X160547619Y-102373333D01*
X160585714Y-102340000D01*
X160623809Y-102273333D01*
X160623809Y-101706666D01*
X161004761Y-102406666D02*
X161004761Y-101706666D01*
X161385714Y-102406666D02*
X161385714Y-101706666D01*
X161842857Y-102406666D01*
X161842857Y-101706666D01*
X162223809Y-102406666D02*
X162223809Y-101706666D01*
X162757142Y-101706666D02*
X162909523Y-101706666D01*
X162985714Y-101740000D01*
X163061904Y-101806666D01*
X163100000Y-101940000D01*
X163100000Y-102173333D01*
X163061904Y-102306666D01*
X162985714Y-102373333D01*
X162909523Y-102406666D01*
X162757142Y-102406666D01*
X162680952Y-102373333D01*
X162604761Y-102306666D01*
X162566666Y-102173333D01*
X162566666Y-101940000D01*
X162604761Y-101806666D01*
X162680952Y-101740000D01*
X162757142Y-101706666D01*
X164433333Y-102406666D02*
X164052380Y-102406666D01*
X164052380Y-101706666D01*
X164814285Y-102406666D02*
X164738095Y-102373333D01*
X164700000Y-102340000D01*
X164661904Y-102273333D01*
X164661904Y-102073333D01*
X164700000Y-102006666D01*
X164738095Y-101973333D01*
X164814285Y-101940000D01*
X164928571Y-101940000D01*
X165004761Y-101973333D01*
X165042857Y-102006666D01*
X165080952Y-102073333D01*
X165080952Y-102273333D01*
X165042857Y-102340000D01*
X165004761Y-102373333D01*
X164928571Y-102406666D01*
X164814285Y-102406666D01*
X165766666Y-101940000D02*
X165766666Y-102506666D01*
X165728571Y-102573333D01*
X165690476Y-102606666D01*
X165614285Y-102640000D01*
X165500000Y-102640000D01*
X165423809Y-102606666D01*
X165766666Y-102373333D02*
X165690476Y-102406666D01*
X165538095Y-102406666D01*
X165461904Y-102373333D01*
X165423809Y-102340000D01*
X165385714Y-102273333D01*
X165385714Y-102073333D01*
X165423809Y-102006666D01*
X165461904Y-101973333D01*
X165538095Y-101940000D01*
X165690476Y-101940000D01*
X165766666Y-101973333D01*
X166147619Y-102406666D02*
X166147619Y-101940000D01*
X166147619Y-101706666D02*
X166109523Y-101740000D01*
X166147619Y-101773333D01*
X166185714Y-101740000D01*
X166147619Y-101706666D01*
X166147619Y-101773333D01*
X166871428Y-102373333D02*
X166795238Y-102406666D01*
X166642857Y-102406666D01*
X166566666Y-102373333D01*
X166528571Y-102340000D01*
X166490476Y-102273333D01*
X166490476Y-102073333D01*
X166528571Y-102006666D01*
X166566666Y-101973333D01*
X166642857Y-101940000D01*
X166795238Y-101940000D01*
X166871428Y-101973333D01*
D11*
X160187142Y-100428571D02*
X160218095Y-100400000D01*
X160280000Y-100371428D01*
X160434761Y-100371428D01*
X160496666Y-100400000D01*
X160527619Y-100428571D01*
X160558571Y-100485714D01*
X160558571Y-100542857D01*
X160527619Y-100628571D01*
X160156190Y-100971428D01*
X160558571Y-100971428D01*
X161115714Y-100571428D02*
X161115714Y-100971428D01*
X160960952Y-100342857D02*
X160806190Y-100771428D01*
X161208571Y-100771428D01*
X161456190Y-100971428D02*
X161456190Y-100371428D01*
X161672857Y-100800000D01*
X161889523Y-100371428D01*
X161889523Y-100971428D01*
X162199047Y-100971428D02*
X162199047Y-100371428D01*
X162199047Y-100657142D02*
X162570476Y-100657142D01*
X162570476Y-100971428D02*
X162570476Y-100371428D01*
X162818095Y-100571428D02*
X163158571Y-100571428D01*
X162818095Y-100971428D01*
X163158571Y-100971428D01*
X163994285Y-100628571D02*
X163932380Y-100600000D01*
X163901428Y-100571428D01*
X163870476Y-100514285D01*
X163870476Y-100485714D01*
X163901428Y-100428571D01*
X163932380Y-100400000D01*
X163994285Y-100371428D01*
X164118095Y-100371428D01*
X164180000Y-100400000D01*
X164210952Y-100428571D01*
X164241904Y-100485714D01*
X164241904Y-100514285D01*
X164210952Y-100571428D01*
X164180000Y-100600000D01*
X164118095Y-100628571D01*
X163994285Y-100628571D01*
X163932380Y-100657142D01*
X163901428Y-100685714D01*
X163870476Y-100742857D01*
X163870476Y-100857142D01*
X163901428Y-100914285D01*
X163932380Y-100942857D01*
X163994285Y-100971428D01*
X164118095Y-100971428D01*
X164180000Y-100942857D01*
X164210952Y-100914285D01*
X164241904Y-100857142D01*
X164241904Y-100742857D01*
X164210952Y-100685714D01*
X164180000Y-100657142D01*
X164118095Y-100628571D01*
X164891904Y-100914285D02*
X164860952Y-100942857D01*
X164768095Y-100971428D01*
X164706190Y-100971428D01*
X164613333Y-100942857D01*
X164551428Y-100885714D01*
X164520476Y-100828571D01*
X164489523Y-100714285D01*
X164489523Y-100628571D01*
X164520476Y-100514285D01*
X164551428Y-100457142D01*
X164613333Y-100400000D01*
X164706190Y-100371428D01*
X164768095Y-100371428D01*
X164860952Y-100400000D01*
X164891904Y-100428571D01*
X165170476Y-100971428D02*
X165170476Y-100371428D01*
X165170476Y-100657142D02*
X165541904Y-100657142D01*
X165541904Y-100971428D02*
X165541904Y-100371428D01*
%TO.C,C10*%
X148170000Y-118120000D02*
X148203333Y-118153333D01*
X148236666Y-118253333D01*
X148236666Y-118320000D01*
X148203333Y-118420000D01*
X148136666Y-118486666D01*
X148070000Y-118520000D01*
X147936666Y-118553333D01*
X147836666Y-118553333D01*
X147703333Y-118520000D01*
X147636666Y-118486666D01*
X147570000Y-118420000D01*
X147536666Y-118320000D01*
X147536666Y-118253333D01*
X147570000Y-118153333D01*
X147603333Y-118120000D01*
X148236666Y-117453333D02*
X148236666Y-117853333D01*
X148236666Y-117653333D02*
X147536666Y-117653333D01*
X147636666Y-117720000D01*
X147703333Y-117786666D01*
X147736666Y-117853333D01*
X147536666Y-117020000D02*
X147536666Y-116953333D01*
X147570000Y-116886666D01*
X147603333Y-116853333D01*
X147670000Y-116820000D01*
X147803333Y-116786666D01*
X147970000Y-116786666D01*
X148103333Y-116820000D01*
X148170000Y-116853333D01*
X148203333Y-116886666D01*
X148236666Y-116953333D01*
X148236666Y-117020000D01*
X148203333Y-117086666D01*
X148170000Y-117120000D01*
X148103333Y-117153333D01*
X147970000Y-117186666D01*
X147803333Y-117186666D01*
X147670000Y-117153333D01*
X147603333Y-117120000D01*
X147570000Y-117086666D01*
X147536666Y-117020000D01*
%TO.C,R3*%
X141823333Y-107653332D02*
X141590000Y-107319999D01*
X141423333Y-107653332D02*
X141423333Y-106953332D01*
X141690000Y-106953332D01*
X141756666Y-106986666D01*
X141790000Y-107019999D01*
X141823333Y-107086666D01*
X141823333Y-107186666D01*
X141790000Y-107253332D01*
X141756666Y-107286666D01*
X141690000Y-107319999D01*
X141423333Y-107319999D01*
X142056666Y-106953332D02*
X142490000Y-106953332D01*
X142256666Y-107219999D01*
X142356666Y-107219999D01*
X142423333Y-107253332D01*
X142456666Y-107286666D01*
X142490000Y-107353332D01*
X142490000Y-107519999D01*
X142456666Y-107586666D01*
X142423333Y-107619999D01*
X142356666Y-107653332D01*
X142156666Y-107653332D01*
X142090000Y-107619999D01*
X142056666Y-107586666D01*
%TO.C,C7*%
X143493333Y-104210000D02*
X143460000Y-104243333D01*
X143360000Y-104276666D01*
X143293333Y-104276666D01*
X143193333Y-104243333D01*
X143126666Y-104176666D01*
X143093333Y-104110000D01*
X143060000Y-103976666D01*
X143060000Y-103876666D01*
X143093333Y-103743333D01*
X143126666Y-103676666D01*
X143193333Y-103610000D01*
X143293333Y-103576666D01*
X143360000Y-103576666D01*
X143460000Y-103610000D01*
X143493333Y-103643333D01*
X143726666Y-103576666D02*
X144193333Y-103576666D01*
X143893333Y-104276666D01*
%TO.C,D2*%
X143043333Y-118036666D02*
X143043333Y-117336666D01*
X143210000Y-117336666D01*
X143310000Y-117370000D01*
X143376666Y-117436666D01*
X143410000Y-117503333D01*
X143443333Y-117636666D01*
X143443333Y-117736666D01*
X143410000Y-117870000D01*
X143376666Y-117936666D01*
X143310000Y-118003333D01*
X143210000Y-118036666D01*
X143043333Y-118036666D01*
X143710000Y-117403333D02*
X143743333Y-117370000D01*
X143810000Y-117336666D01*
X143976666Y-117336666D01*
X144043333Y-117370000D01*
X144076666Y-117403333D01*
X144110000Y-117470000D01*
X144110000Y-117536666D01*
X144076666Y-117636666D01*
X143676666Y-118036666D01*
X144110000Y-118036666D01*
%TO.C,R2*%
X141823333Y-106499999D02*
X141590000Y-106166666D01*
X141423333Y-106499999D02*
X141423333Y-105799999D01*
X141690000Y-105799999D01*
X141756666Y-105833333D01*
X141790000Y-105866666D01*
X141823333Y-105933333D01*
X141823333Y-106033333D01*
X141790000Y-106099999D01*
X141756666Y-106133333D01*
X141690000Y-106166666D01*
X141423333Y-106166666D01*
X142090000Y-105866666D02*
X142123333Y-105833333D01*
X142190000Y-105799999D01*
X142356666Y-105799999D01*
X142423333Y-105833333D01*
X142456666Y-105866666D01*
X142490000Y-105933333D01*
X142490000Y-105999999D01*
X142456666Y-106099999D01*
X142056666Y-106499999D01*
X142490000Y-106499999D01*
%TO.C,U2*%
X155596666Y-101658333D02*
X156163333Y-101658333D01*
X156230000Y-101625000D01*
X156263333Y-101591666D01*
X156296666Y-101525000D01*
X156296666Y-101391666D01*
X156263333Y-101325000D01*
X156230000Y-101291666D01*
X156163333Y-101258333D01*
X155596666Y-101258333D01*
X155663333Y-100958333D02*
X155630000Y-100925000D01*
X155596666Y-100858333D01*
X155596666Y-100691666D01*
X155630000Y-100625000D01*
X155663333Y-100591666D01*
X155730000Y-100558333D01*
X155796666Y-100558333D01*
X155896666Y-100591666D01*
X156296666Y-100991666D01*
X156296666Y-100558333D01*
%TO.C,C8*%
X154780000Y-116036666D02*
X154813333Y-116070000D01*
X154846666Y-116170000D01*
X154846666Y-116236666D01*
X154813333Y-116336666D01*
X154746666Y-116403333D01*
X154680000Y-116436666D01*
X154546666Y-116470000D01*
X154446666Y-116470000D01*
X154313333Y-116436666D01*
X154246666Y-116403333D01*
X154180000Y-116336666D01*
X154146666Y-116236666D01*
X154146666Y-116170000D01*
X154180000Y-116070000D01*
X154213333Y-116036666D01*
X154446666Y-115636666D02*
X154413333Y-115703333D01*
X154380000Y-115736666D01*
X154313333Y-115770000D01*
X154280000Y-115770000D01*
X154213333Y-115736666D01*
X154180000Y-115703333D01*
X154146666Y-115636666D01*
X154146666Y-115503333D01*
X154180000Y-115436666D01*
X154213333Y-115403333D01*
X154280000Y-115370000D01*
X154313333Y-115370000D01*
X154380000Y-115403333D01*
X154413333Y-115436666D01*
X154446666Y-115503333D01*
X154446666Y-115636666D01*
X154480000Y-115703333D01*
X154513333Y-115736666D01*
X154580000Y-115770000D01*
X154713333Y-115770000D01*
X154780000Y-115736666D01*
X154813333Y-115703333D01*
X154846666Y-115636666D01*
X154846666Y-115503333D01*
X154813333Y-115436666D01*
X154780000Y-115403333D01*
X154713333Y-115370000D01*
X154580000Y-115370000D01*
X154513333Y-115403333D01*
X154480000Y-115436666D01*
X154446666Y-115503333D01*
D12*
%TO.C,*%
D11*
%TO.C,R9*%
X165043333Y-116506666D02*
X164810000Y-116173333D01*
X164643333Y-116506666D02*
X164643333Y-115806666D01*
X164910000Y-115806666D01*
X164976666Y-115840000D01*
X165010000Y-115873333D01*
X165043333Y-115940000D01*
X165043333Y-116040000D01*
X165010000Y-116106666D01*
X164976666Y-116140000D01*
X164910000Y-116173333D01*
X164643333Y-116173333D01*
X165376666Y-116506666D02*
X165510000Y-116506666D01*
X165576666Y-116473333D01*
X165610000Y-116440000D01*
X165676666Y-116340000D01*
X165710000Y-116206666D01*
X165710000Y-115940000D01*
X165676666Y-115873333D01*
X165643333Y-115840000D01*
X165576666Y-115806666D01*
X165443333Y-115806666D01*
X165376666Y-115840000D01*
X165343333Y-115873333D01*
X165310000Y-115940000D01*
X165310000Y-116106666D01*
X165343333Y-116173333D01*
X165376666Y-116206666D01*
X165443333Y-116240000D01*
X165576666Y-116240000D01*
X165643333Y-116206666D01*
X165676666Y-116173333D01*
X165710000Y-116106666D01*
%TO.C,R6*%
X141828333Y-111126666D02*
X141595000Y-110793333D01*
X141428333Y-111126666D02*
X141428333Y-110426666D01*
X141695000Y-110426666D01*
X141761666Y-110460000D01*
X141795000Y-110493333D01*
X141828333Y-110560000D01*
X141828333Y-110660000D01*
X141795000Y-110726666D01*
X141761666Y-110760000D01*
X141695000Y-110793333D01*
X141428333Y-110793333D01*
X142428333Y-110426666D02*
X142295000Y-110426666D01*
X142228333Y-110460000D01*
X142195000Y-110493333D01*
X142128333Y-110593333D01*
X142095000Y-110726666D01*
X142095000Y-110993333D01*
X142128333Y-111060000D01*
X142161666Y-111093333D01*
X142228333Y-111126666D01*
X142361666Y-111126666D01*
X142428333Y-111093333D01*
X142461666Y-111060000D01*
X142495000Y-110993333D01*
X142495000Y-110826666D01*
X142461666Y-110760000D01*
X142428333Y-110726666D01*
X142361666Y-110693333D01*
X142228333Y-110693333D01*
X142161666Y-110726666D01*
X142128333Y-110760000D01*
X142095000Y-110826666D01*
%TO.C,C2*%
X153700000Y-102286666D02*
X153733333Y-102320000D01*
X153766666Y-102420000D01*
X153766666Y-102486666D01*
X153733333Y-102586666D01*
X153666666Y-102653333D01*
X153600000Y-102686666D01*
X153466666Y-102720000D01*
X153366666Y-102720000D01*
X153233333Y-102686666D01*
X153166666Y-102653333D01*
X153100000Y-102586666D01*
X153066666Y-102486666D01*
X153066666Y-102420000D01*
X153100000Y-102320000D01*
X153133333Y-102286666D01*
X153133333Y-102020000D02*
X153100000Y-101986666D01*
X153066666Y-101920000D01*
X153066666Y-101753333D01*
X153100000Y-101686666D01*
X153133333Y-101653333D01*
X153200000Y-101620000D01*
X153266666Y-101620000D01*
X153366666Y-101653333D01*
X153766666Y-102053333D01*
X153766666Y-101620000D01*
%TO.C,C5*%
X158903333Y-107880000D02*
X158870000Y-107913333D01*
X158770000Y-107946666D01*
X158703333Y-107946666D01*
X158603333Y-107913333D01*
X158536666Y-107846666D01*
X158503333Y-107780000D01*
X158470000Y-107646666D01*
X158470000Y-107546666D01*
X158503333Y-107413333D01*
X158536666Y-107346666D01*
X158603333Y-107280000D01*
X158703333Y-107246666D01*
X158770000Y-107246666D01*
X158870000Y-107280000D01*
X158903333Y-107313333D01*
X159536666Y-107246666D02*
X159203333Y-107246666D01*
X159170000Y-107580000D01*
X159203333Y-107546666D01*
X159270000Y-107513333D01*
X159436666Y-107513333D01*
X159503333Y-107546666D01*
X159536666Y-107580000D01*
X159570000Y-107646666D01*
X159570000Y-107813333D01*
X159536666Y-107880000D01*
X159503333Y-107913333D01*
X159436666Y-107946666D01*
X159270000Y-107946666D01*
X159203333Y-107913333D01*
X159170000Y-107880000D01*
%TO.C,R5*%
X141823333Y-110006666D02*
X141590000Y-109673333D01*
X141423333Y-110006666D02*
X141423333Y-109306666D01*
X141690000Y-109306666D01*
X141756666Y-109340000D01*
X141790000Y-109373333D01*
X141823333Y-109440000D01*
X141823333Y-109540000D01*
X141790000Y-109606666D01*
X141756666Y-109640000D01*
X141690000Y-109673333D01*
X141423333Y-109673333D01*
X142456666Y-109306666D02*
X142123333Y-109306666D01*
X142090000Y-109640000D01*
X142123333Y-109606666D01*
X142190000Y-109573333D01*
X142356666Y-109573333D01*
X142423333Y-109606666D01*
X142456666Y-109640000D01*
X142490000Y-109706666D01*
X142490000Y-109873333D01*
X142456666Y-109940000D01*
X142423333Y-109973333D01*
X142356666Y-110006666D01*
X142190000Y-110006666D01*
X142123333Y-109973333D01*
X142090000Y-109940000D01*
%TO.C,R12*%
X148919998Y-100560000D02*
X148586665Y-100793333D01*
X148919998Y-100960000D02*
X148219998Y-100960000D01*
X148219998Y-100693333D01*
X148253332Y-100626666D01*
X148286665Y-100593333D01*
X148353332Y-100560000D01*
X148453332Y-100560000D01*
X148519998Y-100593333D01*
X148553332Y-100626666D01*
X148586665Y-100693333D01*
X148586665Y-100960000D01*
X148919998Y-99893333D02*
X148919998Y-100293333D01*
X148919998Y-100093333D02*
X148219998Y-100093333D01*
X148319998Y-100160000D01*
X148386665Y-100226666D01*
X148419998Y-100293333D01*
X148286665Y-99626666D02*
X148253332Y-99593333D01*
X148219998Y-99526666D01*
X148219998Y-99360000D01*
X148253332Y-99293333D01*
X148286665Y-99260000D01*
X148353332Y-99226666D01*
X148419998Y-99226666D01*
X148519998Y-99260000D01*
X148919998Y-99660000D01*
X148919998Y-99226666D01*
%TO.C,C3*%
X150726666Y-117453333D02*
X150759999Y-117486667D01*
X150793332Y-117586667D01*
X150793332Y-117653333D01*
X150759999Y-117753333D01*
X150693332Y-117820000D01*
X150626666Y-117853333D01*
X150493332Y-117886667D01*
X150393332Y-117886667D01*
X150259999Y-117853333D01*
X150193332Y-117820000D01*
X150126666Y-117753333D01*
X150093332Y-117653333D01*
X150093332Y-117586667D01*
X150126666Y-117486667D01*
X150159999Y-117453333D01*
X150093332Y-117220000D02*
X150093332Y-116786667D01*
X150359999Y-117020000D01*
X150359999Y-116920000D01*
X150393332Y-116853333D01*
X150426666Y-116820000D01*
X150493332Y-116786667D01*
X150659999Y-116786667D01*
X150726666Y-116820000D01*
X150759999Y-116853333D01*
X150793332Y-116920000D01*
X150793332Y-117120000D01*
X150759999Y-117186667D01*
X150726666Y-117220000D01*
%TO.C,R7*%
X141828333Y-112266666D02*
X141595000Y-111933333D01*
X141428333Y-112266666D02*
X141428333Y-111566666D01*
X141695000Y-111566666D01*
X141761666Y-111600000D01*
X141795000Y-111633333D01*
X141828333Y-111700000D01*
X141828333Y-111800000D01*
X141795000Y-111866666D01*
X141761666Y-111900000D01*
X141695000Y-111933333D01*
X141428333Y-111933333D01*
X142061666Y-111566666D02*
X142528333Y-111566666D01*
X142228333Y-112266666D01*
%TO.C,C6*%
X158913333Y-110157500D02*
X158880000Y-110190833D01*
X158780000Y-110224166D01*
X158713333Y-110224166D01*
X158613333Y-110190833D01*
X158546666Y-110124166D01*
X158513333Y-110057500D01*
X158480000Y-109924166D01*
X158480000Y-109824166D01*
X158513333Y-109690833D01*
X158546666Y-109624166D01*
X158613333Y-109557500D01*
X158713333Y-109524166D01*
X158780000Y-109524166D01*
X158880000Y-109557500D01*
X158913333Y-109590833D01*
X159513333Y-109524166D02*
X159380000Y-109524166D01*
X159313333Y-109557500D01*
X159280000Y-109590833D01*
X159213333Y-109690833D01*
X159180000Y-109824166D01*
X159180000Y-110090833D01*
X159213333Y-110157500D01*
X159246666Y-110190833D01*
X159313333Y-110224166D01*
X159446666Y-110224166D01*
X159513333Y-110190833D01*
X159546666Y-110157500D01*
X159580000Y-110090833D01*
X159580000Y-109924166D01*
X159546666Y-109857500D01*
X159513333Y-109824166D01*
X159446666Y-109790833D01*
X159313333Y-109790833D01*
X159246666Y-109824166D01*
X159213333Y-109857500D01*
X159180000Y-109924166D01*
%TO.C,U1*%
X141846666Y-100566666D02*
X141846666Y-101133333D01*
X141880000Y-101200000D01*
X141913333Y-101233333D01*
X141980000Y-101266666D01*
X142113333Y-101266666D01*
X142180000Y-101233333D01*
X142213333Y-101200000D01*
X142246666Y-101133333D01*
X142246666Y-100566666D01*
X142946666Y-101266666D02*
X142546666Y-101266666D01*
X142746666Y-101266666D02*
X142746666Y-100566666D01*
X142680000Y-100666666D01*
X142613333Y-100733333D01*
X142546666Y-100766666D01*
%TO.C,R1*%
X141823333Y-105326666D02*
X141590000Y-104993333D01*
X141423333Y-105326666D02*
X141423333Y-104626666D01*
X141690000Y-104626666D01*
X141756666Y-104660000D01*
X141790000Y-104693333D01*
X141823333Y-104760000D01*
X141823333Y-104860000D01*
X141790000Y-104926666D01*
X141756666Y-104960000D01*
X141690000Y-104993333D01*
X141423333Y-104993333D01*
X142490000Y-105326666D02*
X142090000Y-105326666D01*
X142290000Y-105326666D02*
X142290000Y-104626666D01*
X142223333Y-104726666D01*
X142156666Y-104793333D01*
X142090000Y-104826666D01*
%TO.C,U3*%
X144976666Y-112266666D02*
X144976666Y-112833333D01*
X145010000Y-112900000D01*
X145043333Y-112933333D01*
X145110000Y-112966666D01*
X145243333Y-112966666D01*
X145310000Y-112933333D01*
X145343333Y-112900000D01*
X145376666Y-112833333D01*
X145376666Y-112266666D01*
X145643333Y-112266666D02*
X146076666Y-112266666D01*
X145843333Y-112533333D01*
X145943333Y-112533333D01*
X146010000Y-112566666D01*
X146043333Y-112600000D01*
X146076666Y-112666666D01*
X146076666Y-112833333D01*
X146043333Y-112900000D01*
X146010000Y-112933333D01*
X145943333Y-112966666D01*
X145743333Y-112966666D01*
X145676666Y-112933333D01*
X145643333Y-112900000D01*
%TO.C,R13*%
X150209998Y-100560000D02*
X149876665Y-100793333D01*
X150209998Y-100960000D02*
X149509998Y-100960000D01*
X149509998Y-100693333D01*
X149543332Y-100626666D01*
X149576665Y-100593333D01*
X149643332Y-100560000D01*
X149743332Y-100560000D01*
X149809998Y-100593333D01*
X149843332Y-100626666D01*
X149876665Y-100693333D01*
X149876665Y-100960000D01*
X150209998Y-99893333D02*
X150209998Y-100293333D01*
X150209998Y-100093333D02*
X149509998Y-100093333D01*
X149609998Y-100160000D01*
X149676665Y-100226666D01*
X149709998Y-100293333D01*
X149509998Y-99660000D02*
X149509998Y-99226666D01*
X149776665Y-99460000D01*
X149776665Y-99360000D01*
X149809998Y-99293333D01*
X149843332Y-99260000D01*
X149909998Y-99226666D01*
X150076665Y-99226666D01*
X150143332Y-99260000D01*
X150176665Y-99293333D01*
X150209998Y-99360000D01*
X150209998Y-99560000D01*
X150176665Y-99626666D01*
X150143332Y-99660000D01*
D12*
%TO.C,*%
D11*
%TO.C,R11*%
X152086666Y-118140000D02*
X151753333Y-118373333D01*
X152086666Y-118540000D02*
X151386666Y-118540000D01*
X151386666Y-118273333D01*
X151420000Y-118206666D01*
X151453333Y-118173333D01*
X151520000Y-118140000D01*
X151620000Y-118140000D01*
X151686666Y-118173333D01*
X151720000Y-118206666D01*
X151753333Y-118273333D01*
X151753333Y-118540000D01*
X152086666Y-117473333D02*
X152086666Y-117873333D01*
X152086666Y-117673333D02*
X151386666Y-117673333D01*
X151486666Y-117740000D01*
X151553333Y-117806666D01*
X151586666Y-117873333D01*
X152086666Y-116806666D02*
X152086666Y-117206666D01*
X152086666Y-117006666D02*
X151386666Y-117006666D01*
X151486666Y-117073333D01*
X151553333Y-117140000D01*
X151586666Y-117206666D01*
%TO.C,C9*%
X160040000Y-116046666D02*
X160073333Y-116080000D01*
X160106666Y-116180000D01*
X160106666Y-116246666D01*
X160073333Y-116346666D01*
X160006666Y-116413333D01*
X159940000Y-116446666D01*
X159806666Y-116480000D01*
X159706666Y-116480000D01*
X159573333Y-116446666D01*
X159506666Y-116413333D01*
X159440000Y-116346666D01*
X159406666Y-116246666D01*
X159406666Y-116180000D01*
X159440000Y-116080000D01*
X159473333Y-116046666D01*
X160106666Y-115713333D02*
X160106666Y-115580000D01*
X160073333Y-115513333D01*
X160040000Y-115480000D01*
X159940000Y-115413333D01*
X159806666Y-115380000D01*
X159540000Y-115380000D01*
X159473333Y-115413333D01*
X159440000Y-115446666D01*
X159406666Y-115513333D01*
X159406666Y-115646666D01*
X159440000Y-115713333D01*
X159473333Y-115746666D01*
X159540000Y-115780000D01*
X159706666Y-115780000D01*
X159773333Y-115746666D01*
X159806666Y-115713333D01*
X159840000Y-115646666D01*
X159840000Y-115513333D01*
X159806666Y-115446666D01*
X159773333Y-115413333D01*
X159706666Y-115380000D01*
%TO.C,R10*%
X142560000Y-116476666D02*
X142326666Y-116143333D01*
X142160000Y-116476666D02*
X142160000Y-115776666D01*
X142426666Y-115776666D01*
X142493333Y-115810000D01*
X142526666Y-115843333D01*
X142560000Y-115910000D01*
X142560000Y-116010000D01*
X142526666Y-116076666D01*
X142493333Y-116110000D01*
X142426666Y-116143333D01*
X142160000Y-116143333D01*
X143226666Y-116476666D02*
X142826666Y-116476666D01*
X143026666Y-116476666D02*
X143026666Y-115776666D01*
X142960000Y-115876666D01*
X142893333Y-115943333D01*
X142826666Y-115976666D01*
X143660000Y-115776666D02*
X143726666Y-115776666D01*
X143793333Y-115810000D01*
X143826666Y-115843333D01*
X143860000Y-115910000D01*
X143893333Y-116043333D01*
X143893333Y-116210000D01*
X143860000Y-116343333D01*
X143826666Y-116410000D01*
X143793333Y-116443333D01*
X143726666Y-116476666D01*
X143660000Y-116476666D01*
X143593333Y-116443333D01*
X143560000Y-116410000D01*
X143526666Y-116343333D01*
X143493333Y-116210000D01*
X143493333Y-116043333D01*
X143526666Y-115910000D01*
X143560000Y-115843333D01*
X143593333Y-115810000D01*
X143660000Y-115776666D01*
%TO.C,J1*%
X128456666Y-109213333D02*
X128956666Y-109213333D01*
X129056666Y-109246666D01*
X129123333Y-109313333D01*
X129156666Y-109413333D01*
X129156666Y-109480000D01*
X129156666Y-108513333D02*
X129156666Y-108913333D01*
X129156666Y-108713333D02*
X128456666Y-108713333D01*
X128556666Y-108780000D01*
X128623333Y-108846666D01*
X128656666Y-108913333D01*
%TO.C,D1*%
X164663333Y-118046666D02*
X164663333Y-117346666D01*
X164830000Y-117346666D01*
X164930000Y-117380000D01*
X164996666Y-117446666D01*
X165030000Y-117513333D01*
X165063333Y-117646666D01*
X165063333Y-117746666D01*
X165030000Y-117880000D01*
X164996666Y-117946666D01*
X164930000Y-118013333D01*
X164830000Y-118046666D01*
X164663333Y-118046666D01*
X165730000Y-118046666D02*
X165330000Y-118046666D01*
X165530000Y-118046666D02*
X165530000Y-117346666D01*
X165463333Y-117446666D01*
X165396666Y-117513333D01*
X165330000Y-117546666D01*
%TO.C,USB1*%
X165366666Y-110395000D02*
X165933333Y-110395000D01*
X166000000Y-110361666D01*
X166033333Y-110328333D01*
X166066666Y-110261666D01*
X166066666Y-110128333D01*
X166033333Y-110061666D01*
X166000000Y-110028333D01*
X165933333Y-109995000D01*
X165366666Y-109995000D01*
X166033333Y-109695000D02*
X166066666Y-109595000D01*
X166066666Y-109428333D01*
X166033333Y-109361666D01*
X166000000Y-109328333D01*
X165933333Y-109295000D01*
X165866666Y-109295000D01*
X165800000Y-109328333D01*
X165766666Y-109361666D01*
X165733333Y-109428333D01*
X165700000Y-109561666D01*
X165666666Y-109628333D01*
X165633333Y-109661666D01*
X165566666Y-109695000D01*
X165500000Y-109695000D01*
X165433333Y-109661666D01*
X165400000Y-109628333D01*
X165366666Y-109561666D01*
X165366666Y-109395000D01*
X165400000Y-109295000D01*
X165700000Y-108761666D02*
X165733333Y-108661666D01*
X165766666Y-108628333D01*
X165833333Y-108595000D01*
X165933333Y-108595000D01*
X166000000Y-108628333D01*
X166033333Y-108661666D01*
X166066666Y-108728333D01*
X166066666Y-108995000D01*
X165366666Y-108995000D01*
X165366666Y-108761666D01*
X165400000Y-108695000D01*
X165433333Y-108661666D01*
X165500000Y-108628333D01*
X165566666Y-108628333D01*
X165633333Y-108661666D01*
X165666666Y-108695000D01*
X165700000Y-108761666D01*
X165700000Y-108995000D01*
X166066666Y-107928333D02*
X166066666Y-108328333D01*
X166066666Y-108128333D02*
X165366666Y-108128333D01*
X165466666Y-108195000D01*
X165533333Y-108261666D01*
X165566666Y-108328333D01*
%TO.C,C1*%
X158700000Y-102296666D02*
X158733333Y-102330000D01*
X158766666Y-102430000D01*
X158766666Y-102496666D01*
X158733333Y-102596666D01*
X158666666Y-102663333D01*
X158600000Y-102696666D01*
X158466666Y-102730000D01*
X158366666Y-102730000D01*
X158233333Y-102696666D01*
X158166666Y-102663333D01*
X158100000Y-102596666D01*
X158066666Y-102496666D01*
X158066666Y-102430000D01*
X158100000Y-102330000D01*
X158133333Y-102296666D01*
X158766666Y-101630000D02*
X158766666Y-102030000D01*
X158766666Y-101830000D02*
X158066666Y-101830000D01*
X158166666Y-101896666D01*
X158233333Y-101963333D01*
X158266666Y-102030000D01*
%TO.C,R14*%
X149529999Y-118120000D02*
X149196666Y-118353333D01*
X149529999Y-118520000D02*
X148829999Y-118520000D01*
X148829999Y-118253333D01*
X148863333Y-118186666D01*
X148896666Y-118153333D01*
X148963333Y-118120000D01*
X149063333Y-118120000D01*
X149129999Y-118153333D01*
X149163333Y-118186666D01*
X149196666Y-118253333D01*
X149196666Y-118520000D01*
X149529999Y-117453333D02*
X149529999Y-117853333D01*
X149529999Y-117653333D02*
X148829999Y-117653333D01*
X148929999Y-117720000D01*
X148996666Y-117786666D01*
X149029999Y-117853333D01*
X149063333Y-116853333D02*
X149529999Y-116853333D01*
X148796666Y-117020000D02*
X149296666Y-117186666D01*
X149296666Y-116753333D01*
%TO.C,R8*%
X141828333Y-113406666D02*
X141595000Y-113073333D01*
X141428333Y-113406666D02*
X141428333Y-112706666D01*
X141695000Y-112706666D01*
X141761666Y-112740000D01*
X141795000Y-112773333D01*
X141828333Y-112840000D01*
X141828333Y-112940000D01*
X141795000Y-113006666D01*
X141761666Y-113040000D01*
X141695000Y-113073333D01*
X141428333Y-113073333D01*
X142228333Y-113006666D02*
X142161666Y-112973333D01*
X142128333Y-112940000D01*
X142095000Y-112873333D01*
X142095000Y-112840000D01*
X142128333Y-112773333D01*
X142161666Y-112740000D01*
X142228333Y-112706666D01*
X142361666Y-112706666D01*
X142428333Y-112740000D01*
X142461666Y-112773333D01*
X142495000Y-112840000D01*
X142495000Y-112873333D01*
X142461666Y-112940000D01*
X142428333Y-112973333D01*
X142361666Y-113006666D01*
X142228333Y-113006666D01*
X142161666Y-113040000D01*
X142128333Y-113073333D01*
X142095000Y-113140000D01*
X142095000Y-113273333D01*
X142128333Y-113340000D01*
X142161666Y-113373333D01*
X142228333Y-113406666D01*
X142361666Y-113406666D01*
X142428333Y-113373333D01*
X142461666Y-113340000D01*
X142495000Y-113273333D01*
X142495000Y-113140000D01*
X142461666Y-113073333D01*
X142428333Y-113040000D01*
X142361666Y-113006666D01*
%TO.C,C4*%
X151400000Y-100566666D02*
X151433333Y-100600000D01*
X151466666Y-100700000D01*
X151466666Y-100766666D01*
X151433333Y-100866666D01*
X151366666Y-100933333D01*
X151300000Y-100966666D01*
X151166666Y-101000000D01*
X151066666Y-101000000D01*
X150933333Y-100966666D01*
X150866666Y-100933333D01*
X150800000Y-100866666D01*
X150766666Y-100766666D01*
X150766666Y-100700000D01*
X150800000Y-100600000D01*
X150833333Y-100566666D01*
X151000000Y-99966666D02*
X151466666Y-99966666D01*
X150733333Y-100133333D02*
X151233333Y-100300000D01*
X151233333Y-99866666D01*
%TO.C,R4*%
X141823333Y-108796666D02*
X141590000Y-108463333D01*
X141423333Y-108796666D02*
X141423333Y-108096666D01*
X141690000Y-108096666D01*
X141756666Y-108130000D01*
X141790000Y-108163333D01*
X141823333Y-108230000D01*
X141823333Y-108330000D01*
X141790000Y-108396666D01*
X141756666Y-108430000D01*
X141690000Y-108463333D01*
X141423333Y-108463333D01*
X142423333Y-108330000D02*
X142423333Y-108796666D01*
X142256666Y-108063333D02*
X142090000Y-108563333D01*
X142523333Y-108563333D01*
D13*
%TO.C,C10*%
X148270000Y-115907836D02*
X148270000Y-115692164D01*
X147550000Y-115907836D02*
X147550000Y-115692164D01*
%TO.C,R3*%
X140086359Y-107656666D02*
X140393641Y-107656666D01*
X140086359Y-106896666D02*
X140393641Y-106896666D01*
%TO.C,C7*%
X145337836Y-103550000D02*
X145122164Y-103550000D01*
X145337836Y-104270000D02*
X145122164Y-104270000D01*
%TO.C,D2*%
X140377500Y-118435000D02*
X142662500Y-118435000D01*
X142662500Y-116965000D02*
X140377500Y-116965000D01*
X142662500Y-118435000D02*
X142662500Y-116965000D01*
%TO.C,R2*%
X140086359Y-106503333D02*
X140393641Y-106503333D01*
X140086359Y-105743333D02*
X140393641Y-105743333D01*
D14*
%TO.C,U2*%
X155030000Y-102622000D02*
X156830000Y-102622000D01*
X155030000Y-99522000D02*
X156830000Y-99522000D01*
X155030000Y-101472000D02*
X155030000Y-100672000D01*
X157581000Y-102723000D02*
G75*
G03*
X157581000Y-102723000I-127000J0D01*
G01*
D13*
%TO.C,C8*%
X154160000Y-117472164D02*
X154160000Y-117687836D01*
X154880000Y-117472164D02*
X154880000Y-117687836D01*
D11*
%TO.C,HOLE1*%
X138170000Y-100920000D02*
G75*
G03*
X138170000Y-100920000I-1800000J0D01*
G01*
%TO.C,HOLE4*%
X168320000Y-117490000D02*
G75*
G03*
X168320000Y-117490000I-900000J0D01*
G01*
%TO.C,*%
G36*
X158448766Y-112393675D02*
G01*
X158431602Y-112407022D01*
X158373650Y-112411442D01*
X158360532Y-112404094D01*
X158371591Y-112387241D01*
X158409200Y-112384619D01*
X158448766Y-112393675D01*
G37*
G36*
X156191121Y-112678334D02*
G01*
X156189847Y-112815055D01*
X156181096Y-112893408D01*
X156160690Y-112929111D01*
X156124450Y-112937882D01*
X156122129Y-112937896D01*
X156064658Y-112912216D01*
X156051511Y-112852282D01*
X156031002Y-112744707D01*
X155963186Y-112676628D01*
X155838625Y-112641085D01*
X155754869Y-112633483D01*
X155637525Y-112624528D01*
X155575041Y-112606911D01*
X155548127Y-112570549D01*
X155539194Y-112520743D01*
X155527461Y-112418772D01*
X156189496Y-112418772D01*
X156191121Y-112678334D01*
G37*
G36*
X156031377Y-111242689D02*
G01*
X156145333Y-111275159D01*
X156194148Y-111331126D01*
X156186604Y-111398592D01*
X156159147Y-111427235D01*
X156094733Y-111444631D01*
X155980000Y-111452998D01*
X155848733Y-111454684D01*
X155695692Y-111453687D01*
X155602173Y-111448028D01*
X155553541Y-111433705D01*
X155535160Y-111406713D01*
X155532387Y-111368163D01*
X155541972Y-111290291D01*
X155557107Y-111256923D01*
X155603916Y-111244786D01*
X155704041Y-111235967D01*
X155836654Y-111232229D01*
X155849209Y-111232202D01*
X156031377Y-111242689D01*
G37*
G36*
X158374605Y-112319514D02*
G01*
X158357442Y-112332861D01*
X158299490Y-112337281D01*
X158286371Y-112329934D01*
X158297430Y-112313080D01*
X158335039Y-112310458D01*
X158374605Y-112319514D01*
G37*
G36*
X156031959Y-113010246D02*
G01*
X156108817Y-113065991D01*
X156180000Y-113184929D01*
X156202875Y-113333162D01*
X156176683Y-113483076D01*
X156122981Y-113581800D01*
X156060647Y-113643806D01*
X155983449Y-113672610D01*
X155866110Y-113679502D01*
X155746073Y-113672142D01*
X155669716Y-113642542D01*
X155609239Y-113581800D01*
X155544961Y-113449268D01*
X155533191Y-113326993D01*
X155680708Y-113326993D01*
X155707451Y-113414193D01*
X155773409Y-113457020D01*
X155907026Y-113470415D01*
X155961272Y-113456084D01*
X156031487Y-113411499D01*
X156046419Y-113336562D01*
X156044702Y-113317951D01*
X156023908Y-113245491D01*
X155968094Y-113212909D01*
X155908930Y-113204115D01*
X155779360Y-113203140D01*
X155707344Y-113235413D01*
X155681385Y-113307123D01*
X155680708Y-113326993D01*
X155533191Y-113326993D01*
X155530330Y-113297270D01*
X155564589Y-113153423D01*
X155623402Y-113065991D01*
X155746721Y-112990565D01*
X155779360Y-112986379D01*
X155891596Y-112971983D01*
X156031959Y-113010246D01*
G37*
G36*
X156632273Y-113002786D02*
G01*
X156637171Y-113078703D01*
X156632273Y-113095487D01*
X156618739Y-113100145D01*
X156613570Y-113049137D01*
X156619398Y-112996496D01*
X156632273Y-113002786D01*
G37*
G36*
X157194354Y-113216836D02*
G01*
X157201000Y-113233832D01*
X157168819Y-113269679D01*
X157091853Y-113296353D01*
X156999468Y-113305869D01*
X156953641Y-113301090D01*
X156910772Y-113286806D01*
X156929270Y-113263959D01*
X156966811Y-113242186D01*
X157057169Y-113207837D01*
X157141546Y-113199083D01*
X157194354Y-113216836D01*
G37*
G36*
X160127735Y-112098850D02*
G01*
X160125110Y-112102643D01*
X160084120Y-112116192D01*
X159984569Y-112140707D01*
X159840672Y-112172901D01*
X159666647Y-112209488D01*
X159636065Y-112215711D01*
X159439921Y-112254388D01*
X159303277Y-112277847D01*
X159213266Y-112287075D01*
X159157018Y-112283056D01*
X159121665Y-112266778D01*
X159109486Y-112256059D01*
X159083592Y-112220789D01*
X159104849Y-112200026D01*
X159185348Y-112185014D01*
X159212279Y-112181605D01*
X159328864Y-112166905D01*
X159485986Y-112146540D01*
X159650689Y-112124785D01*
X159659084Y-112123663D01*
X159857579Y-112099826D01*
X160006820Y-112087520D01*
X160099356Y-112087083D01*
X160127735Y-112098850D01*
G37*
G36*
X156089137Y-110514815D02*
G01*
X156138465Y-110558407D01*
X156178817Y-110644933D01*
X156198038Y-110771965D01*
X156195453Y-110908725D01*
X156170385Y-111024433D01*
X156149574Y-111064279D01*
X156084745Y-111113153D01*
X156023381Y-111106696D01*
X155989848Y-111055049D01*
X155995151Y-111000000D01*
X156022747Y-110897354D01*
X156040646Y-110815049D01*
X156045146Y-110734842D01*
X156024138Y-110713442D01*
X155989079Y-110745366D01*
X155951423Y-110825128D01*
X155939744Y-110863355D01*
X155890750Y-110986877D01*
X155822558Y-111089031D01*
X155750371Y-111149632D01*
X155717789Y-111158042D01*
X155666634Y-111134108D01*
X155606548Y-111083881D01*
X155559188Y-110995182D01*
X155534182Y-110865089D01*
X155532853Y-110723326D01*
X155556525Y-110599616D01*
X155582645Y-110547279D01*
X155642673Y-110502433D01*
X155703645Y-110502606D01*
X155740217Y-110540186D01*
X155734526Y-110592880D01*
X155709386Y-110675374D01*
X155689541Y-110777969D01*
X155691007Y-110869224D01*
X155718614Y-110897644D01*
X155755908Y-110859777D01*
X155777906Y-110796509D01*
X155835033Y-110632725D01*
X155910105Y-110528436D01*
X155996885Y-110487760D01*
X156089137Y-110514815D01*
G37*
G36*
X156152303Y-111711033D02*
G01*
X156180648Y-111787748D01*
X156195785Y-111908974D01*
X156196257Y-112045998D01*
X156180605Y-112170109D01*
X156176461Y-112187020D01*
X156160808Y-112227081D01*
X156129809Y-112251744D01*
X156068011Y-112264718D01*
X155959960Y-112269711D01*
X155828813Y-112270451D01*
X155656379Y-112266999D01*
X155540427Y-112254748D01*
X155463514Y-112230858D01*
X155421579Y-112204097D01*
X155358863Y-112112984D01*
X155324037Y-111981563D01*
X155321129Y-111839742D01*
X155354168Y-111717431D01*
X155355652Y-111714575D01*
X155415632Y-111636671D01*
X155476443Y-111608276D01*
X155520639Y-111632254D01*
X155532387Y-111685571D01*
X155516499Y-111771412D01*
X155492167Y-111813794D01*
X155463347Y-111882438D01*
X155471924Y-111965458D01*
X155510991Y-112027953D01*
X155536952Y-112040133D01*
X155575597Y-112032838D01*
X155591892Y-111980587D01*
X155592524Y-111937434D01*
X155754869Y-111937434D01*
X155760791Y-112008317D01*
X155792721Y-112039828D01*
X155871903Y-112047799D01*
X155903190Y-112047969D01*
X155998967Y-112042690D01*
X156041518Y-112018672D01*
X156051497Y-111963636D01*
X156051511Y-111959808D01*
X156021888Y-111856739D01*
X155943299Y-111802315D01*
X155848051Y-111803513D01*
X155778767Y-111838489D01*
X155755588Y-111911423D01*
X155754869Y-111937434D01*
X155592524Y-111937434D01*
X155593104Y-111897792D01*
X155619008Y-111752288D01*
X155694416Y-111646398D01*
X155803006Y-111585573D01*
X155928460Y-111575262D01*
X155943299Y-111580639D01*
X156054458Y-111620916D01*
X156152303Y-111711033D01*
G37*
G36*
X156632273Y-112594903D02*
G01*
X156637171Y-112670819D01*
X156632273Y-112687604D01*
X156618739Y-112692262D01*
X156613570Y-112641254D01*
X156619398Y-112588613D01*
X156632273Y-112594903D01*
G37*
G36*
X158677653Y-112284018D02*
G01*
X158671852Y-112295171D01*
X158627846Y-112299609D01*
X158622411Y-112295171D01*
X158627501Y-112273127D01*
X158647132Y-112270451D01*
X158677653Y-112284018D01*
G37*
G36*
X158090927Y-112956436D02*
G01*
X158072387Y-112974976D01*
X158053847Y-112956436D01*
X158072387Y-112937896D01*
X158090927Y-112956436D01*
G37*
G36*
X156625993Y-111677591D02*
G01*
X156633567Y-111709841D01*
X156655615Y-111714246D01*
X156686585Y-111726910D01*
X156686082Y-111776912D01*
X156667073Y-111846266D01*
X156626256Y-111978285D01*
X156602833Y-111874076D01*
X156586204Y-111810389D01*
X156577971Y-111816201D01*
X156575022Y-111853297D01*
X156558017Y-111918506D01*
X156534719Y-111936728D01*
X156511127Y-111963573D01*
X156514289Y-111983078D01*
X156517770Y-112034191D01*
X156517493Y-112145898D01*
X156513741Y-112304742D01*
X156506799Y-112497268D01*
X156500369Y-112641254D01*
X156470962Y-113253078D01*
X156467529Y-112548553D01*
X156468065Y-112322564D01*
X156471623Y-112118159D01*
X156477731Y-111948474D01*
X156485915Y-111826645D01*
X156495702Y-111765805D01*
X156495722Y-111765754D01*
X156546521Y-111692696D01*
X156587998Y-111664208D01*
X156628824Y-111659992D01*
X156625993Y-111677591D01*
G37*
G36*
X158196992Y-112998309D02*
G01*
X158267678Y-113053712D01*
X158337587Y-113119294D01*
X158382235Y-113173164D01*
X158387570Y-113187356D01*
X158363515Y-113179924D01*
X158302698Y-113133445D01*
X158267244Y-113102424D01*
X158190592Y-113034066D01*
X158139769Y-112990631D01*
X158131283Y-112984246D01*
X158142301Y-112975242D01*
X158150017Y-112974976D01*
X158196992Y-112998309D01*
G37*
G36*
X156533555Y-113290159D02*
G01*
X156515015Y-113308699D01*
X156496475Y-113290159D01*
X156515015Y-113271618D01*
X156533555Y-113290159D01*
G37*
G36*
X156385234Y-114013224D02*
G01*
X156162752Y-114013224D01*
X156022887Y-114020263D01*
X155954788Y-114042665D01*
X155957292Y-114082357D01*
X156029231Y-114141266D01*
X156070051Y-114166459D01*
X156167208Y-114243639D01*
X156199733Y-114326644D01*
X156199832Y-114332069D01*
X156176083Y-114403031D01*
X156111392Y-114419415D01*
X156015592Y-114380694D01*
X155964330Y-114344664D01*
X155867148Y-114268220D01*
X155742618Y-114363204D01*
X155633717Y-114435776D01*
X155566951Y-114452240D01*
X155536190Y-114412790D01*
X155532387Y-114369888D01*
X155567931Y-114275639D01*
X155662168Y-114182600D01*
X155741266Y-114114929D01*
X155787236Y-114061396D01*
X155791949Y-114048418D01*
X155759347Y-114025154D01*
X155679181Y-114013528D01*
X155662168Y-114013224D01*
X155574037Y-114005948D01*
X155538037Y-113974618D01*
X155532387Y-113926704D01*
X155541972Y-113848831D01*
X155557107Y-113815463D01*
X155602199Y-113805396D01*
X155705102Y-113797305D01*
X155849472Y-113792136D01*
X155983531Y-113790743D01*
X156385234Y-113790743D01*
X156385234Y-114013224D01*
G37*
G36*
X159437256Y-112425165D02*
G01*
X159619619Y-112432313D01*
X159620489Y-112432353D01*
X159847622Y-112442920D01*
X160007847Y-112451220D01*
X160108344Y-112458283D01*
X160156293Y-112465137D01*
X160158872Y-112472812D01*
X160123263Y-112482337D01*
X160056644Y-112494743D01*
X160056183Y-112494825D01*
X159941411Y-112508732D01*
X159781286Y-112519873D01*
X159604613Y-112526416D01*
X159546329Y-112527264D01*
X159382397Y-112526741D01*
X159279487Y-112520573D01*
X159224544Y-112506644D01*
X159204514Y-112482835D01*
X159203336Y-112471630D01*
X159211862Y-112446460D01*
X159245566Y-112431091D01*
X159316634Y-112424375D01*
X159437256Y-112425165D01*
G37*
G36*
X156354110Y-111264253D02*
G01*
X156402795Y-111317771D01*
X156411284Y-111391161D01*
X156408035Y-111401332D01*
X156358106Y-111445418D01*
X156320455Y-111447776D01*
X156265720Y-111408743D01*
X156244007Y-111340684D01*
X156261134Y-111277523D01*
X156287862Y-111257666D01*
X156354110Y-111264253D01*
G37*
G36*
X158678748Y-113364319D02*
G01*
X158744061Y-113440095D01*
X158824209Y-113544688D01*
X158856776Y-113590328D01*
X158936533Y-113701555D01*
X159038172Y-113838618D01*
X159125103Y-113952844D01*
X159219029Y-114081764D01*
X159262797Y-114156947D01*
X159259161Y-114176615D01*
X159210875Y-114138991D01*
X159120696Y-114042299D01*
X159073206Y-113986318D01*
X158974105Y-113869910D01*
X158882411Y-113767242D01*
X158817342Y-113699808D01*
X158815451Y-113698042D01*
X158750953Y-113631849D01*
X158682140Y-113551658D01*
X158618518Y-113470475D01*
X158569592Y-113401311D01*
X158544870Y-113357173D01*
X158553856Y-113351068D01*
X158571577Y-113364319D01*
X158659707Y-113438480D01*
X158632983Y-113364319D01*
X158606258Y-113290159D01*
X158678748Y-113364319D01*
G37*
G36*
X156644796Y-113290159D02*
G01*
X156626256Y-113308699D01*
X156607716Y-113290159D01*
X156626256Y-113271618D01*
X156644796Y-113290159D01*
G37*
G36*
X158304218Y-112047331D02*
G01*
X158467003Y-111965435D01*
X158649229Y-111863181D01*
X158836905Y-111747641D01*
X158850097Y-111739101D01*
X158988388Y-111649699D01*
X159110185Y-111571753D01*
X159197224Y-111516918D01*
X159221876Y-111501883D01*
X159416824Y-111387756D01*
X159556135Y-111309214D01*
X159647021Y-111262471D01*
X159696692Y-111243739D01*
X159710683Y-111245146D01*
X159691747Y-111274191D01*
X159619390Y-111334391D01*
X159503920Y-111418975D01*
X159355644Y-111521169D01*
X159184871Y-111634203D01*
X159001908Y-111751302D01*
X158817062Y-111865695D01*
X158640640Y-111970610D01*
X158482951Y-112059274D01*
X158424650Y-112090108D01*
X158326552Y-112144052D01*
X158269501Y-112182174D01*
X158265145Y-112195820D01*
X158322894Y-112184822D01*
X158432773Y-112155005D01*
X158576882Y-112111956D01*
X158737320Y-112061259D01*
X158896187Y-112008499D01*
X159035581Y-111959260D01*
X159092095Y-111937819D01*
X159232733Y-111886113D01*
X159394153Y-111832189D01*
X159560728Y-111780566D01*
X159716832Y-111735765D01*
X159846837Y-111702304D01*
X159935116Y-111684702D01*
X159965394Y-111685258D01*
X159943301Y-111707119D01*
X159865875Y-111747270D01*
X159747475Y-111798641D01*
X159684648Y-111823535D01*
X159539872Y-111880316D01*
X159416717Y-111930340D01*
X159335467Y-111965307D01*
X159320600Y-111972496D01*
X159249084Y-112001483D01*
X159123217Y-112044488D01*
X158960275Y-112096297D01*
X158777534Y-112151700D01*
X158592267Y-112205485D01*
X158421750Y-112252440D01*
X158283257Y-112287354D01*
X158257789Y-112293125D01*
X158103435Y-112321319D01*
X157948020Y-112340799D01*
X157868446Y-112345915D01*
X157772934Y-112353638D01*
X157679547Y-112369449D01*
X157606094Y-112388683D01*
X157570386Y-112406674D01*
X157590232Y-112418756D01*
X157590343Y-112418772D01*
X157592057Y-112434262D01*
X157553263Y-112455852D01*
X157514776Y-112477336D01*
X157538218Y-112487355D01*
X157601802Y-112490326D01*
X157686276Y-112502321D01*
X157699465Y-112533335D01*
X157698332Y-112535275D01*
X157705575Y-112555566D01*
X157765912Y-112563047D01*
X157887455Y-112558204D01*
X157970717Y-112551575D01*
X158123759Y-112542754D01*
X158279175Y-112541338D01*
X158424462Y-112546247D01*
X158547118Y-112556401D01*
X158634640Y-112570721D01*
X158674526Y-112588128D01*
X158654273Y-112607542D01*
X158647132Y-112609980D01*
X158613202Y-112625410D01*
X158651071Y-112627492D01*
X158721292Y-112620994D01*
X158835579Y-112619291D01*
X158993726Y-112630928D01*
X159167120Y-112653514D01*
X159221876Y-112662794D01*
X159414994Y-112697688D01*
X159621489Y-112735023D01*
X159801728Y-112767632D01*
X159828169Y-112772419D01*
X159991739Y-112805479D01*
X160088178Y-112832081D01*
X160116303Y-112850224D01*
X160074933Y-112857909D01*
X159962885Y-112853136D01*
X159870781Y-112844485D01*
X159717785Y-112828819D01*
X159579323Y-112815656D01*
X159484315Y-112807740D01*
X159481438Y-112807545D01*
X159320232Y-112791859D01*
X159193052Y-112769958D01*
X159111803Y-112744834D01*
X159088391Y-112719478D01*
X159096508Y-112710808D01*
X159100378Y-112692803D01*
X159035599Y-112690824D01*
X158980854Y-112695759D01*
X158887845Y-112704180D01*
X158862137Y-112700000D01*
X158897716Y-112681801D01*
X158906694Y-112678268D01*
X158954986Y-112656883D01*
X158942331Y-112650859D01*
X158862751Y-112658027D01*
X158853736Y-112659057D01*
X158733697Y-112664152D01*
X158581500Y-112659272D01*
X158482933Y-112650968D01*
X158365990Y-112636507D01*
X158315871Y-112624753D01*
X158325471Y-112612589D01*
X158369029Y-112600994D01*
X158480270Y-112575867D01*
X158369029Y-112575176D01*
X158252245Y-112583918D01*
X158165088Y-112600969D01*
X158117642Y-112618236D01*
X158126167Y-112631976D01*
X158146548Y-112636399D01*
X158198173Y-112647603D01*
X158239248Y-112654438D01*
X158356214Y-112679576D01*
X158514108Y-112722371D01*
X158701953Y-112778944D01*
X158908772Y-112845411D01*
X159123587Y-112917892D01*
X159335421Y-112992505D01*
X159533298Y-113065368D01*
X159706239Y-113132600D01*
X159843268Y-113190318D01*
X159933407Y-113234642D01*
X159965679Y-113261691D01*
X159964445Y-113264475D01*
X159922335Y-113262868D01*
X159825750Y-113241799D01*
X159690378Y-113205827D01*
X159531907Y-113159511D01*
X159366026Y-113107410D01*
X159208421Y-113054083D01*
X159092095Y-113010965D01*
X158976244Y-112968245D01*
X158829844Y-112918129D01*
X158670841Y-112866270D01*
X158517184Y-112818319D01*
X158386820Y-112779928D01*
X158297696Y-112756749D01*
X158271335Y-112752494D01*
X158282117Y-112768092D01*
X158345695Y-112809303D01*
X158448949Y-112867755D01*
X158467921Y-112877958D01*
X158625304Y-112965871D01*
X158801675Y-113070677D01*
X158986813Y-113185558D01*
X159170498Y-113303697D01*
X159342509Y-113418276D01*
X159492624Y-113522476D01*
X159610623Y-113609479D01*
X159686285Y-113672468D01*
X159709389Y-113704624D01*
X159708684Y-113705638D01*
X159671143Y-113695468D01*
X159583582Y-113653412D01*
X159458890Y-113586861D01*
X159309954Y-113503203D01*
X159149662Y-113409829D01*
X158990900Y-113314126D01*
X158846558Y-113223486D01*
X158729523Y-113145297D01*
X158721292Y-113139494D01*
X158499660Y-112997103D01*
X158292289Y-112898726D01*
X158109467Y-112839859D01*
X157988346Y-112813870D01*
X157864301Y-112797164D01*
X157753163Y-112790192D01*
X157670764Y-112793403D01*
X157632936Y-112807251D01*
X157645964Y-112826655D01*
X157660143Y-112849023D01*
X157610860Y-112860544D01*
X157528543Y-112863167D01*
X157412837Y-112873145D01*
X157345201Y-112899066D01*
X157336799Y-112910086D01*
X157329443Y-112893858D01*
X157322982Y-112815875D01*
X157319830Y-112733954D01*
X158128008Y-112733954D01*
X158146548Y-112752494D01*
X158165088Y-112733954D01*
X158146548Y-112715414D01*
X158128008Y-112733954D01*
X157319830Y-112733954D01*
X157318083Y-112688541D01*
X157315415Y-112524261D01*
X157315328Y-112511473D01*
X157313451Y-112209857D01*
X158097486Y-112209857D01*
X158103287Y-112221010D01*
X158147293Y-112225448D01*
X158152728Y-112221010D01*
X158147638Y-112198966D01*
X158128008Y-112196290D01*
X158097486Y-112209857D01*
X157313451Y-112209857D01*
X157313021Y-112140670D01*
X157942606Y-112140670D01*
X157961146Y-112159210D01*
X157979686Y-112140670D01*
X157961146Y-112122129D01*
X157942606Y-112140670D01*
X157313021Y-112140670D01*
X157312560Y-112066509D01*
X157618313Y-112065161D01*
X157810051Y-112057754D01*
X157948599Y-112035361D01*
X157961146Y-112030528D01*
X158053847Y-111994821D01*
X158275229Y-111845031D01*
X158489156Y-111639853D01*
X158605730Y-111497557D01*
X158692943Y-111385994D01*
X158774450Y-111290546D01*
X158820538Y-111243290D01*
X158881193Y-111181872D01*
X158969861Y-111083476D01*
X159067928Y-110968793D01*
X159073189Y-110962467D01*
X159177241Y-110841899D01*
X159240202Y-110778830D01*
X159263132Y-110769744D01*
X159247094Y-110811125D01*
X159193149Y-110899455D01*
X159102358Y-111031219D01*
X159017303Y-111147610D01*
X158767408Y-111467568D01*
X158543551Y-111721292D01*
X158343537Y-111911125D01*
X158204179Y-112015370D01*
X158123077Y-112073477D01*
X158085706Y-112112101D01*
X158092938Y-112121767D01*
X158128008Y-112113220D01*
X158174866Y-112101799D01*
X158304218Y-112047331D01*
G37*
G36*
X158714733Y-112358178D02*
G01*
X158708932Y-112369331D01*
X158664927Y-112373769D01*
X158659492Y-112369331D01*
X158664582Y-112347287D01*
X158684212Y-112344611D01*
X158714733Y-112358178D01*
G37*
G36*
X158498810Y-113253078D02*
G01*
X158480270Y-113271618D01*
X158461730Y-113253078D01*
X158480270Y-113234538D01*
X158498810Y-113253078D01*
G37*
G36*
X158974295Y-112321098D02*
G01*
X158968494Y-112332251D01*
X158924489Y-112336689D01*
X158919054Y-112332251D01*
X158924144Y-112310207D01*
X158943774Y-112307531D01*
X158974295Y-112321098D01*
G37*
G36*
X158900135Y-112246937D02*
G01*
X158894334Y-112258091D01*
X158850328Y-112262528D01*
X158844893Y-112258091D01*
X158849983Y-112236046D01*
X158869613Y-112233370D01*
X158900135Y-112246937D01*
G37*
D13*
%TO.C,R9*%
X163513641Y-116520000D02*
X163206359Y-116520000D01*
X163513641Y-115760000D02*
X163206359Y-115760000D01*
%TO.C,R6*%
X140086359Y-111170000D02*
X140393641Y-111170000D01*
X140086359Y-110410000D02*
X140393641Y-110410000D01*
%TO.C,C2*%
X153060000Y-100492164D02*
X153060000Y-100707836D01*
X153780000Y-100492164D02*
X153780000Y-100707836D01*
%TO.C,C5*%
X157372164Y-107940000D02*
X157587836Y-107940000D01*
X157372164Y-107220000D02*
X157587836Y-107220000D01*
%TO.C,R5*%
X140086359Y-109270000D02*
X140393641Y-109270000D01*
X140086359Y-110030000D02*
X140393641Y-110030000D01*
%TO.C,R12*%
X148936666Y-101816359D02*
X148936666Y-102123641D01*
X148176666Y-101816359D02*
X148176666Y-102123641D01*
%TO.C,C3*%
X150823332Y-115692164D02*
X150823332Y-115907836D01*
X150103332Y-115692164D02*
X150103332Y-115907836D01*
%TO.C,R7*%
X140086359Y-111550000D02*
X140393641Y-111550000D01*
X140086359Y-112310000D02*
X140393641Y-112310000D01*
%TO.C,C6*%
X157382164Y-110210000D02*
X157597836Y-110210000D01*
X157382164Y-109490000D02*
X157597836Y-109490000D01*
%TO.C,U1*%
X142410000Y-99300000D02*
X138810000Y-99300000D01*
X142410000Y-99300000D02*
X144610000Y-99300000D01*
X142410000Y-102520000D02*
X140210000Y-102520000D01*
X142410000Y-102520000D02*
X144610000Y-102520000D01*
%TO.C,R1*%
X140086359Y-105350000D02*
X140393641Y-105350000D01*
X140086359Y-104590000D02*
X140393641Y-104590000D01*
%TO.C,U3*%
X155310542Y-109235876D02*
X155646418Y-108900000D01*
X149834000Y-103087582D02*
X150169876Y-103423458D01*
X149498124Y-103423458D02*
X149834000Y-103087582D01*
X150169876Y-114376542D02*
X149834000Y-114712418D01*
X149834000Y-114712418D02*
X149498124Y-114376542D01*
X144021582Y-108900000D02*
X144357458Y-109235876D01*
X144357458Y-108564124D02*
X144021582Y-108900000D01*
%TO.C,R13*%
X150223332Y-101816359D02*
X150223332Y-102123641D01*
X149463332Y-101816359D02*
X149463332Y-102123641D01*
%TO.C,*%
G36*
X153226111Y-104751943D02*
G01*
X153226274Y-104835564D01*
X153226756Y-104909624D01*
X153227543Y-104973489D01*
X153228622Y-105026522D01*
X153229981Y-105068088D01*
X153231607Y-105097550D01*
X153233392Y-105113778D01*
X153246360Y-105161708D01*
X153266118Y-105198787D01*
X153293706Y-105225897D01*
X153330163Y-105243918D01*
X153376526Y-105253734D01*
X153400504Y-105255690D01*
X153454673Y-105254657D01*
X153499023Y-105245285D01*
X153534499Y-105227127D01*
X153562046Y-105199737D01*
X153578739Y-105171455D01*
X153596500Y-105133568D01*
X153598445Y-104781532D01*
X153600391Y-104429496D01*
X153853436Y-104429496D01*
X153853436Y-104778796D01*
X153853410Y-104856642D01*
X153853304Y-104922374D01*
X153853078Y-104977224D01*
X153852692Y-105022428D01*
X153852104Y-105059216D01*
X153851274Y-105088823D01*
X153850161Y-105112482D01*
X153848725Y-105131426D01*
X153846925Y-105146889D01*
X153844721Y-105160102D01*
X153842072Y-105172300D01*
X153840235Y-105179714D01*
X153823401Y-105232347D01*
X153801335Y-105275854D01*
X153771812Y-105314112D01*
X153751410Y-105334486D01*
X153714884Y-105364776D01*
X153677218Y-105387896D01*
X153633716Y-105406440D01*
X153603005Y-105416404D01*
X153516894Y-105435185D01*
X153424670Y-105442113D01*
X153326361Y-105437187D01*
X153319543Y-105436431D01*
X153242894Y-105422413D01*
X153175152Y-105399102D01*
X153116674Y-105366798D01*
X153067814Y-105325799D01*
X153028928Y-105276403D01*
X153000370Y-105218910D01*
X152982496Y-105153617D01*
X152982395Y-105153050D01*
X152980094Y-105136964D01*
X152978163Y-105115980D01*
X152976576Y-105089004D01*
X152975304Y-105054943D01*
X152974322Y-105012704D01*
X152973600Y-104961193D01*
X152973113Y-104899317D01*
X152972833Y-104825984D01*
X152972744Y-104764848D01*
X152972512Y-104429496D01*
X153226111Y-104429496D01*
X153226111Y-104751943D01*
G37*
G36*
X158700992Y-104902558D02*
G01*
X158727902Y-104839693D01*
X158764857Y-104784862D01*
X158811446Y-104738626D01*
X158867253Y-104701547D01*
X158931865Y-104674185D01*
X158962804Y-104665411D01*
X159001750Y-104658751D01*
X159049069Y-104655040D01*
X159100119Y-104654275D01*
X159150255Y-104656451D01*
X159194835Y-104661566D01*
X159215302Y-104665629D01*
X159283179Y-104688257D01*
X159342584Y-104721117D01*
X159393103Y-104763799D01*
X159434323Y-104815897D01*
X159465831Y-104877001D01*
X159483362Y-104930503D01*
X159489986Y-104967586D01*
X159493705Y-105012868D01*
X159494517Y-105061677D01*
X159492419Y-105109340D01*
X159487409Y-105151185D01*
X159483473Y-105169791D01*
X159459715Y-105237285D01*
X159425968Y-105296414D01*
X159382870Y-105346542D01*
X159331058Y-105387036D01*
X159271167Y-105417262D01*
X159218638Y-105433446D01*
X159181563Y-105439981D01*
X159137440Y-105444627D01*
X159091248Y-105447119D01*
X159047965Y-105447191D01*
X159012570Y-105444578D01*
X159011682Y-105444456D01*
X158938024Y-105428233D01*
X158872650Y-105401734D01*
X158816002Y-105365478D01*
X158768517Y-105319985D01*
X158730635Y-105265777D01*
X158702795Y-105203374D01*
X158685437Y-105133295D01*
X158678998Y-105056062D01*
X158678968Y-105050147D01*
X158928779Y-105050147D01*
X158929452Y-105096914D01*
X158931881Y-105133298D01*
X158936655Y-105162210D01*
X158944363Y-105186563D01*
X158955593Y-105209269D01*
X158963589Y-105222272D01*
X158989210Y-105250184D01*
X159023107Y-105270298D01*
X159062199Y-105281834D01*
X159103410Y-105284012D01*
X159143658Y-105276050D01*
X159156142Y-105271094D01*
X159186981Y-105250483D01*
X159213888Y-105219769D01*
X159234208Y-105182132D01*
X159237329Y-105173822D01*
X159242610Y-105154921D01*
X159246073Y-105132340D01*
X159247983Y-105103168D01*
X159248606Y-105064493D01*
X159248579Y-105050147D01*
X159248079Y-105011172D01*
X159246759Y-104982299D01*
X159244231Y-104960287D01*
X159240102Y-104941899D01*
X159233984Y-104923895D01*
X159233085Y-104921575D01*
X159211791Y-104878767D01*
X159185454Y-104847857D01*
X159152821Y-104827946D01*
X159112640Y-104818133D01*
X159087050Y-104816715D01*
X159048717Y-104819370D01*
X159018635Y-104828758D01*
X158992702Y-104846560D01*
X158977987Y-104861356D01*
X158959394Y-104885212D01*
X158945850Y-104911159D01*
X158936703Y-104941703D01*
X158931299Y-104979347D01*
X158928986Y-105026596D01*
X158928779Y-105050147D01*
X158678968Y-105050147D01*
X158684543Y-104972896D01*
X158700992Y-104902558D01*
G37*
G36*
X158366322Y-104656287D02*
G01*
X158414820Y-104662009D01*
X158462208Y-104672619D01*
X158513752Y-104689110D01*
X158533350Y-104696304D01*
X158571723Y-104710749D01*
X158571723Y-104916674D01*
X158552737Y-104916674D01*
X158534182Y-104912062D01*
X158521740Y-104903403D01*
X158490066Y-104876433D01*
X158449085Y-104853449D01*
X158402609Y-104835976D01*
X158354449Y-104825541D01*
X158321605Y-104823242D01*
X158269043Y-104827552D01*
X158225544Y-104841011D01*
X158189764Y-104864412D01*
X158160358Y-104898549D01*
X158143241Y-104928450D01*
X158133889Y-104948102D01*
X158127650Y-104964271D01*
X158123896Y-104980527D01*
X158121998Y-105000441D01*
X158121327Y-105027583D01*
X158121250Y-105053344D01*
X158122706Y-105101333D01*
X158127717Y-105139243D01*
X158137249Y-105170089D01*
X158152269Y-105196887D01*
X158173741Y-105222651D01*
X158176365Y-105225374D01*
X158210525Y-105251294D01*
X158252407Y-105268485D01*
X158299664Y-105276982D01*
X158349953Y-105276821D01*
X158400930Y-105268039D01*
X158450248Y-105250671D01*
X158495564Y-105224753D01*
X158501518Y-105220397D01*
X158523032Y-105205646D01*
X158542414Y-105194913D01*
X158555765Y-105190332D01*
X158556576Y-105190294D01*
X158562385Y-105190657D01*
X158566479Y-105193072D01*
X158569158Y-105199524D01*
X158570722Y-105212002D01*
X158571471Y-105232493D01*
X158571705Y-105262985D01*
X158571723Y-105290637D01*
X158571723Y-105390979D01*
X158541143Y-105404087D01*
X158484715Y-105423460D01*
X158420193Y-105437561D01*
X158351965Y-105445834D01*
X158284423Y-105447728D01*
X158228029Y-105443545D01*
X158149375Y-105427571D01*
X158079800Y-105402074D01*
X158019649Y-105367461D01*
X157969268Y-105324142D01*
X157929000Y-105272523D01*
X157899192Y-105213013D01*
X157880186Y-105146020D01*
X157872329Y-105071952D01*
X157873158Y-105023452D01*
X157883126Y-104948042D01*
X157903459Y-104881025D01*
X157934198Y-104822340D01*
X157975380Y-104771922D01*
X158027046Y-104729709D01*
X158073113Y-104703190D01*
X158122020Y-104681965D01*
X158170741Y-104667326D01*
X158223051Y-104658504D01*
X158282723Y-104654726D01*
X158311450Y-104654460D01*
X158366322Y-104656287D01*
G37*
G36*
X160218064Y-104658460D02*
G01*
X160267867Y-104675485D01*
X160311803Y-104701805D01*
X160347652Y-104736552D01*
X160359854Y-104753591D01*
X160377554Y-104781502D01*
X160420632Y-104748753D01*
X160462052Y-104720411D01*
X160507083Y-104694937D01*
X160551982Y-104674156D01*
X160593002Y-104659893D01*
X160611623Y-104655648D01*
X160666629Y-104651775D01*
X160719356Y-104658868D01*
X160767856Y-104676075D01*
X160810182Y-104702544D01*
X160844387Y-104737424D01*
X160861766Y-104765025D01*
X160869664Y-104780954D01*
X160876245Y-104796014D01*
X160881646Y-104811587D01*
X160886003Y-104829058D01*
X160889454Y-104849811D01*
X160892135Y-104875230D01*
X160894183Y-104906699D01*
X160895735Y-104945601D01*
X160896927Y-104993321D01*
X160897897Y-105051242D01*
X160898781Y-105120749D01*
X160899026Y-105141910D01*
X160902245Y-105423873D01*
X160661574Y-105423873D01*
X160659410Y-105171942D01*
X160658816Y-105106932D01*
X160658208Y-105053877D01*
X160657510Y-105011384D01*
X160656644Y-104978060D01*
X160655532Y-104952512D01*
X160654097Y-104933348D01*
X160652262Y-104919174D01*
X160649948Y-104908599D01*
X160647078Y-104900229D01*
X160643899Y-104893316D01*
X160627728Y-104869470D01*
X160606125Y-104854026D01*
X160576899Y-104846014D01*
X160537857Y-104844465D01*
X160533783Y-104844609D01*
X160499205Y-104847647D01*
X160470918Y-104854604D01*
X160445357Y-104865460D01*
X160406983Y-104884287D01*
X160406983Y-105423873D01*
X160167598Y-105423873D01*
X160165496Y-105171942D01*
X160164924Y-105107058D01*
X160164343Y-105054128D01*
X160163675Y-105011758D01*
X160162839Y-104978556D01*
X160161757Y-104953129D01*
X160160349Y-104934083D01*
X160158535Y-104920025D01*
X160156236Y-104909562D01*
X160153372Y-104901301D01*
X160149863Y-104893848D01*
X160149589Y-104893316D01*
X160129133Y-104867403D01*
X160100233Y-104850401D01*
X160064612Y-104842573D01*
X160023992Y-104844180D01*
X159980094Y-104855485D01*
X159958711Y-104864272D01*
X159913132Y-104885281D01*
X159913132Y-105423873D01*
X159672879Y-105423873D01*
X159672879Y-104676421D01*
X159913132Y-104676421D01*
X159913132Y-104757117D01*
X159944530Y-104733142D01*
X159981301Y-104708643D01*
X160023446Y-104686249D01*
X160066176Y-104668206D01*
X160104701Y-104656756D01*
X160109727Y-104655764D01*
X160164611Y-104651597D01*
X160218064Y-104658460D01*
G37*
G36*
X157684125Y-105423873D02*
G01*
X157443873Y-105423873D01*
X157443873Y-105163600D01*
X157684125Y-105163600D01*
X157684125Y-105423873D01*
G37*
G36*
X155082764Y-104654555D02*
G01*
X155092680Y-104656105D01*
X155148812Y-104670497D01*
X155194809Y-104692770D01*
X155231789Y-104723628D01*
X155259079Y-104760664D01*
X155267827Y-104776063D01*
X155275125Y-104790670D01*
X155281119Y-104805845D01*
X155285953Y-104822948D01*
X155289774Y-104843338D01*
X155292727Y-104868373D01*
X155294958Y-104899414D01*
X155296611Y-104937819D01*
X155297832Y-104984948D01*
X155298767Y-105042159D01*
X155299561Y-105110813D01*
X155299873Y-105141910D01*
X155302640Y-105423873D01*
X155062503Y-105423873D01*
X155060269Y-105178615D01*
X155058034Y-104933358D01*
X155041350Y-104899990D01*
X155025621Y-104874421D01*
X155006946Y-104857498D01*
X154982618Y-104847939D01*
X154949931Y-104844467D01*
X154924561Y-104844799D01*
X154888796Y-104847774D01*
X154859445Y-104854315D01*
X154829733Y-104865938D01*
X154829461Y-104866062D01*
X154787751Y-104885128D01*
X154787751Y-105423873D01*
X154547498Y-105423873D01*
X154547498Y-104676421D01*
X154787751Y-104676421D01*
X154787751Y-104756059D01*
X154830550Y-104726139D01*
X154893981Y-104688372D01*
X154957248Y-104663828D01*
X155020219Y-104652545D01*
X155082764Y-104654555D01*
G37*
G36*
X156236791Y-104807873D02*
G01*
X156238966Y-104795781D01*
X156260347Y-104718781D01*
X156291772Y-104648308D01*
X156332436Y-104585577D01*
X156381540Y-104531799D01*
X156438279Y-104488186D01*
X156445412Y-104483784D01*
X156507293Y-104453483D01*
X156577350Y-104431282D01*
X156652976Y-104417419D01*
X156731560Y-104412131D01*
X156810494Y-104415657D01*
X156887168Y-104428235D01*
X156929253Y-104439670D01*
X157000661Y-104468868D01*
X157064077Y-104508562D01*
X157119010Y-104558209D01*
X157164967Y-104617264D01*
X157201458Y-104685182D01*
X157227991Y-104761420D01*
X157231184Y-104773958D01*
X157240577Y-104827173D01*
X157245539Y-104887986D01*
X157246065Y-104951598D01*
X157242150Y-105013210D01*
X157233787Y-105068019D01*
X157231532Y-105077942D01*
X157206378Y-105156616D01*
X157171471Y-105226241D01*
X157127083Y-105286580D01*
X157073487Y-105337395D01*
X157010953Y-105378451D01*
X156939754Y-105409510D01*
X156860162Y-105430335D01*
X156819884Y-105436526D01*
X156772749Y-105441246D01*
X156731315Y-105442679D01*
X156689269Y-105440803D01*
X156643032Y-105435940D01*
X156564447Y-105419849D01*
X156491895Y-105392323D01*
X156426267Y-105354114D01*
X156368452Y-105305973D01*
X156319341Y-105248652D01*
X156279824Y-105182901D01*
X156250792Y-105109472D01*
X156248990Y-105103428D01*
X156240346Y-105063766D01*
X156234173Y-105014950D01*
X156230601Y-104960966D01*
X156229760Y-104905801D01*
X156229979Y-104900120D01*
X156491486Y-104900120D01*
X156492086Y-104974638D01*
X156501611Y-105042642D01*
X156519704Y-105103098D01*
X156546008Y-105154972D01*
X156580167Y-105197230D01*
X156599747Y-105214176D01*
X156640635Y-105237549D01*
X156688237Y-105251901D01*
X156739028Y-105256777D01*
X156789488Y-105251725D01*
X156820965Y-105242706D01*
X156864428Y-105219549D01*
X156902927Y-105185297D01*
X156935208Y-105141674D01*
X156960021Y-105090407D01*
X156976112Y-105033220D01*
X156977149Y-105027503D01*
X156981386Y-104990167D01*
X156982922Y-104946171D01*
X156981955Y-104899318D01*
X156978680Y-104853413D01*
X156973293Y-104812259D01*
X156965992Y-104779660D01*
X156964045Y-104773723D01*
X156938217Y-104716027D01*
X156905835Y-104669781D01*
X156866597Y-104634641D01*
X156820198Y-104610264D01*
X156819342Y-104609939D01*
X156794383Y-104601799D01*
X156771058Y-104597798D01*
X156743429Y-104597163D01*
X156726453Y-104597850D01*
X156669704Y-104606506D01*
X156620620Y-104626050D01*
X156579267Y-104656397D01*
X156545711Y-104697462D01*
X156520018Y-104749161D01*
X156502254Y-104811407D01*
X156492486Y-104884116D01*
X156491486Y-104900120D01*
X156229979Y-104900120D01*
X156231780Y-104853441D01*
X156236791Y-104807873D01*
G37*
G36*
X154320594Y-105423873D02*
G01*
X154080341Y-105423873D01*
X154080341Y-104676421D01*
X154320594Y-104676421D01*
X154320594Y-105423873D01*
G37*
G36*
X154327267Y-104562969D02*
G01*
X154073668Y-104562969D01*
X154073668Y-104382780D01*
X154327267Y-104382780D01*
X154327267Y-104562969D01*
G37*
G36*
X156069096Y-104609685D02*
G01*
X155908928Y-104609685D01*
X155908928Y-105243684D01*
X156069096Y-105243684D01*
X156069096Y-105423873D01*
X155495160Y-105423873D01*
X155495160Y-105243684D01*
X155655328Y-105243684D01*
X155655328Y-104609685D01*
X155495160Y-104609685D01*
X155495160Y-104429496D01*
X156069096Y-104429496D01*
X156069096Y-104609685D01*
G37*
%TO.C,R11*%
X151360000Y-115666359D02*
X151360000Y-115973641D01*
X152120000Y-115666359D02*
X152120000Y-115973641D01*
%TO.C,C9*%
X160090000Y-117687837D02*
X160090000Y-117472165D01*
X159370000Y-117687837D02*
X159370000Y-117472165D01*
%TO.C,R10*%
X140746359Y-116490000D02*
X141053641Y-116490000D01*
X140746359Y-115730000D02*
X141053641Y-115730000D01*
%TO.C,J1*%
X133377500Y-119190000D02*
X124257500Y-119190000D01*
X124257500Y-119190000D02*
X124257500Y-98610000D01*
X133377500Y-98610000D02*
X133377500Y-119190000D01*
X124257500Y-98610000D02*
X133377500Y-98610000D01*
X133377500Y-110950000D02*
X124257500Y-110950000D01*
X133377500Y-106850000D02*
X124257500Y-106850000D01*
%TO.C,D1*%
X161605000Y-116965000D02*
X161605000Y-118435000D01*
X161605000Y-118435000D02*
X163890000Y-118435000D01*
X163890000Y-116965000D02*
X161605000Y-116965000D01*
D14*
%TO.C,USB1*%
X169465000Y-113530000D02*
X168043000Y-113530000D01*
X169465000Y-113530000D02*
X169465000Y-104730000D01*
X169465000Y-104730000D02*
X168043000Y-104730000D01*
X165688000Y-113530000D02*
X163943000Y-113530000D01*
X165688000Y-104730000D02*
X163943000Y-104730000D01*
D13*
%TO.C,C1*%
X158080000Y-100707836D02*
X158080000Y-100492164D01*
X158800000Y-100707836D02*
X158800000Y-100492164D01*
%TO.C,Y1*%
X159120000Y-115140000D02*
X155120000Y-115140000D01*
X159120000Y-118440000D02*
X159120000Y-115140000D01*
%TO.C,R14*%
X149566666Y-115666359D02*
X149566666Y-115973641D01*
X148806666Y-115666359D02*
X148806666Y-115973641D01*
%TO.C,R8*%
X140086359Y-112690000D02*
X140393641Y-112690000D01*
X140086359Y-113450000D02*
X140393641Y-113450000D01*
D11*
%TO.C,HOLE2*%
X137960000Y-116880000D02*
G75*
G03*
X137960000Y-116880000I-1800000J0D01*
G01*
%TO.C,HOLE3*%
X168320000Y-100270000D02*
G75*
G03*
X168320000Y-100270000I-900000J0D01*
G01*
D13*
%TO.C,C4*%
X151480000Y-102097836D02*
X151480000Y-101882164D01*
X150760000Y-102097836D02*
X150760000Y-101882164D01*
%TO.C,R4*%
X140086359Y-108050000D02*
X140393641Y-108050000D01*
X140086359Y-108810000D02*
X140393641Y-108810000D01*
%TD*%
%LPC*%
D15*
%TO.C,C10*%
X147910000Y-116280000D03*
X147910000Y-115320000D03*
%TD*%
D16*
%TO.C,R3*%
X139730000Y-107276666D03*
X140750000Y-107276666D03*
%TD*%
D17*
%TO.C,C7*%
X145710000Y-103910000D03*
X144750000Y-103910000D03*
%TD*%
D18*
%TO.C,D2*%
X141965000Y-117700000D03*
X140390000Y-117700000D03*
%TD*%
D16*
%TO.C,R2*%
X139730000Y-106123333D03*
X140750000Y-106123333D03*
%TD*%
D19*
%TO.C,U2*%
X157230000Y-102022000D03*
X157230000Y-101072000D03*
X157230000Y-100122000D03*
X154630000Y-100122000D03*
X154630000Y-102022000D03*
%TD*%
D20*
%TO.C,C8*%
X154520000Y-117100000D03*
X154520000Y-118060000D03*
%TD*%
D21*
%TO.C,HOLE1*%
X136370000Y-100920000D03*
%TD*%
D22*
%TO.C,HOLE4*%
X167420000Y-117490000D03*
%TD*%
D23*
%TO.C,R9*%
X163870000Y-116140000D03*
X162850000Y-116140000D03*
%TD*%
D16*
%TO.C,R6*%
X139730000Y-110790000D03*
X140750000Y-110790000D03*
%TD*%
D20*
%TO.C,C2*%
X153420000Y-100120000D03*
X153420000Y-101080000D03*
%TD*%
D24*
%TO.C,C5*%
X157000000Y-107580000D03*
X157960000Y-107580000D03*
%TD*%
D16*
%TO.C,R5*%
X139730000Y-109650000D03*
X140750000Y-109650000D03*
%TD*%
D25*
%TO.C,R12*%
X148556666Y-101460000D03*
X148556666Y-102480000D03*
%TD*%
D20*
%TO.C,C3*%
X150463332Y-115320000D03*
X150463332Y-116280000D03*
%TD*%
D16*
%TO.C,R7*%
X139730000Y-111930000D03*
X140750000Y-111930000D03*
%TD*%
D24*
%TO.C,C6*%
X157010000Y-109850000D03*
X157970000Y-109850000D03*
%TD*%
D26*
%TO.C,U1*%
X139547500Y-99935000D03*
X139547500Y-100585000D03*
X139547500Y-101235000D03*
X139547500Y-101885000D03*
X145272500Y-101885000D03*
X145272500Y-101235000D03*
X145272500Y-100585000D03*
X145272500Y-99935000D03*
%TD*%
D16*
%TO.C,R1*%
X139730000Y-104970000D03*
X140750000Y-104970000D03*
%TD*%
D27*
%TO.C,U3*%
X151310085Y-108254765D03*
D28*
X149065021Y-108838128D03*
D29*
X148357915Y-109545235D03*
D30*
X147527064Y-108714384D03*
D31*
X148234171Y-108007278D03*
D32*
X150019616Y-111206936D03*
D31*
X148941278Y-107300171D03*
D29*
X149188765Y-110376085D03*
D28*
X150602979Y-108961872D03*
D33*
X150726722Y-110499829D03*
D27*
X150479235Y-107423915D03*
D28*
X149772128Y-108131021D03*
X149895872Y-109668979D03*
D34*
X149648384Y-106593064D03*
D35*
X152140936Y-109085616D03*
D33*
X151433829Y-109792722D03*
D36*
X154916330Y-108413864D03*
X154562777Y-108060311D03*
X154209223Y-107706757D03*
X153855670Y-107353204D03*
X153502116Y-106999651D03*
X153148563Y-106646097D03*
X152795010Y-106292544D03*
X152441456Y-105938990D03*
X152087903Y-105585437D03*
X151734349Y-105231884D03*
X151380796Y-104878330D03*
X151027243Y-104524777D03*
X150673689Y-104171223D03*
X150320136Y-103817670D03*
D37*
X149347864Y-103817670D03*
X148994311Y-104171223D03*
X148640757Y-104524777D03*
X148287204Y-104878330D03*
X147933651Y-105231884D03*
X147580097Y-105585437D03*
X147226544Y-105938990D03*
X146872990Y-106292544D03*
X146519437Y-106646097D03*
X146165884Y-106999651D03*
X145812330Y-107353204D03*
X145458777Y-107706757D03*
X145105223Y-108060311D03*
X144751670Y-108413864D03*
D36*
X144751670Y-109386136D03*
X145105223Y-109739689D03*
X145458777Y-110093243D03*
X145812330Y-110446796D03*
X146165884Y-110800349D03*
X146519437Y-111153903D03*
X146872990Y-111507456D03*
X147226544Y-111861010D03*
X147580097Y-112214563D03*
X147933651Y-112568116D03*
X148287204Y-112921670D03*
X148640757Y-113275223D03*
X148994311Y-113628777D03*
X149347864Y-113982330D03*
D37*
X150320136Y-113982330D03*
X150673689Y-113628777D03*
X151027243Y-113275223D03*
X151380796Y-112921670D03*
X151734349Y-112568116D03*
X152087903Y-112214563D03*
X152441456Y-111861010D03*
X152795010Y-111507456D03*
X153148563Y-111153903D03*
X153502116Y-110800349D03*
X153855670Y-110446796D03*
X154209223Y-110093243D03*
X154562777Y-109739689D03*
X154916330Y-109386136D03*
%TD*%
D25*
%TO.C,R13*%
X149843332Y-101460000D03*
X149843332Y-102480000D03*
%TD*%
%TO.C,R11*%
X151740000Y-115310000D03*
X151740000Y-116330000D03*
%TD*%
D15*
%TO.C,C9*%
X159730000Y-118060001D03*
X159730000Y-117100001D03*
%TD*%
D16*
%TO.C,R10*%
X140390000Y-116110000D03*
X141410000Y-116110000D03*
%TD*%
D38*
%TO.C,J1*%
X137647500Y-113980000D03*
D39*
X135107500Y-113980000D03*
X137647500Y-111440000D03*
X135107500Y-111440000D03*
X137647500Y-108900000D03*
X135107500Y-108900000D03*
X137647500Y-106360000D03*
X135107500Y-106360000D03*
X137647500Y-103820000D03*
X135107500Y-103820000D03*
%TD*%
D40*
%TO.C,D1*%
X162302500Y-117700000D03*
X163877500Y-117700000D03*
%TD*%
D41*
%TO.C,USB1*%
X163165000Y-106240000D03*
X163165000Y-112020000D03*
D42*
X162665000Y-113455000D03*
X162665000Y-104805000D03*
D43*
X166865000Y-113455000D03*
X166865000Y-104805000D03*
D44*
X161903000Y-112330000D03*
X161903000Y-111530000D03*
D45*
X161903000Y-110380000D03*
X161903000Y-109380000D03*
X161903000Y-108880000D03*
X161903000Y-107880000D03*
D44*
X161903000Y-105930000D03*
X161903000Y-106730000D03*
D45*
X161903000Y-107380000D03*
X161903000Y-108380000D03*
X161903000Y-109880000D03*
X161903000Y-110880000D03*
%TD*%
D15*
%TO.C,C1*%
X158440000Y-101080000D03*
X158440000Y-100120000D03*
%TD*%
D46*
%TO.C,Y1*%
X158220000Y-115940000D03*
X156020000Y-115940000D03*
X156020000Y-117640000D03*
X158220000Y-117640000D03*
%TD*%
D25*
%TO.C,R14*%
X149186666Y-115310000D03*
X149186666Y-116330000D03*
%TD*%
D16*
%TO.C,R8*%
X139730000Y-113070000D03*
X140750000Y-113070000D03*
%TD*%
D21*
%TO.C,HOLE2*%
X136160000Y-116880000D03*
%TD*%
D22*
%TO.C,HOLE3*%
X167420000Y-100270000D03*
%TD*%
D15*
%TO.C,C4*%
X151120000Y-102470000D03*
X151120000Y-101510000D03*
%TD*%
D16*
%TO.C,R4*%
X139730000Y-108430000D03*
X140750000Y-108430000D03*
%TD*%
M02*
