M48
; DRILL file {KiCad 8.0.6} date 2024-11-28T18:21:43+0800
; FORMAT={-:-/ absolute / metric / decimal}
; #@! TF.CreationDate,2024-11-28T18:21:43+08:00
; #@! TF.GenerationSoftware,Kicad,Pcbnew,8.0.6
; #@! TF.FileFunction,MixedPlating,1,2
FMAT,2
METRIC
; #@! TA.AperFunction,Plated,PTH,ComponentDrill
T1C0.200
; #@! TA.AperFunction,Plated,PTH,ViaDrill
T2C0.300
; #@! TA.AperFunction,Plated,PTH,ViaDrill
T3C0.400
; #@! TA.AperFunction,Plated,PTH,ComponentDrill
T4C0.600
; #@! TA.AperFunction,Plated,PTH,ComponentDrill
T5C1.000
; #@! TA.AperFunction,NonPlated,NPTH,ComponentDrill
T6C0.650
; #@! TA.AperFunction,NonPlated,NPTH,ComponentDrill
T7C2.200
%
G90
G05
T1
X16.12Y-10.7
X16.12Y-11.7
X16.12Y-12.7
X16.12Y-13.7
X16.12Y-14.7
X17.295Y-10.7
X17.295Y-11.7
X17.295Y-12.7
X17.295Y-13.7
X17.295Y-14.7
X18.47Y-10.7
X18.47Y-11.7
X18.47Y-12.7
X18.47Y-13.7
X18.47Y-14.7
X19.645Y-10.7
X19.645Y-11.7
X19.645Y-12.7
X19.645Y-13.7
X19.645Y-14.7
X20.82Y-10.7
X20.82Y-11.7
X20.82Y-12.7
X20.82Y-13.7
X20.82Y-14.7
T2
X2.8Y-12.455
X2.8Y-13.455
X8.71Y-14.51
X8.71Y-15.3
X8.71Y-16.09
X9.16Y-1.25
X9.16Y-2.222
X9.17Y-3.193
X9.17Y-4.165
X9.17Y-5.137
X9.17Y-6.108
X9.17Y-7.08
X9.86Y-8.104
X9.86Y-9.128
X9.86Y-10.152
X9.86Y-11.177
X9.86Y-12.201
X9.945Y-7.08
X10.09Y-1.25
X10.72Y-7.08
X10.72Y-8.103
X10.72Y-9.128
X10.72Y-10.152
X10.72Y-11.176
X10.72Y-12.2
X10.72Y-13.224
X10.72Y-14.248
X10.72Y-15.272
X10.72Y-16.297
X10.72Y-17.321
X10.72Y-18.345
X10.72Y-19.369
X11.02Y-1.25
X11.64Y-19.37
X11.95Y-1.25
X12.27Y-7.08
X12.56Y-17.26
X12.64Y-19.37
X12.88Y-1.25
X13.045Y-7.08
X13.64Y-19.37
X13.81Y-1.25
X13.81Y-2.222
X13.82Y-3.193
X13.82Y-4.165
X13.82Y-5.137
X13.82Y-6.108
X13.82Y-7.08
X14.64Y-19.37
X15.64Y-19.37
X16.64Y-19.37
X18.21Y-19.385
X19.51Y-20.36
X24.1Y-15.525
X32.36Y-21.845
X32.37Y-3.545
X33.89Y-21.845
X33.9Y-3.545
X35.43Y-3.545
X35.43Y-21.845
X36.97Y-3.545
X36.97Y-21.845
X37.41Y-10.925
X37.41Y-11.58
X37.41Y-12.23
X37.41Y-12.88
X37.41Y-13.53
X37.41Y-14.187
X37.41Y-14.83
X37.41Y-15.48
X42.36Y-8.25
X42.36Y-9.69
X42.36Y-11.18
X42.36Y-12.68
X42.36Y-14.16
X42.36Y-15.66
X42.36Y-17.15
T3
X4.9Y-10.295
X4.9Y-15.105
X7.63Y-23.35
X8.62Y-23.35
X9.61Y-23.35
X12.57Y-16.37
X12.58Y-8.66
X16.79Y-1.845
X17.18Y-23.35
X22.48Y-21.255
X24.815Y-22.595
X24.815Y-23.505
X24.98Y-7.345
X24.99Y-9.105
X25.98Y-16.145
X34.67Y-1.845
X34.67Y-23.525
T5
X47.4Y-1.27
X47.4Y-3.81
X47.4Y-6.35
X47.4Y-8.89
X47.4Y-11.43
X47.4Y-13.97
X47.4Y-16.51
X47.4Y-19.05
X47.4Y-21.59
X47.4Y-24.13
T6
X2.377Y-9.81
X2.377Y-15.59
T7
X0.3Y-3.305
X0.3Y-22.105
X40.54Y-3.305
X40.54Y-22.105
T4
G00X-0.873Y-8.375
M15
G01X-1.773Y-8.375
M16
G05
G00X-0.873Y-17.025
M15
G01X-1.773Y-17.025
M16
G05
G00X3.477Y-8.375
M15
G01X2.277Y-8.375
M16
G05
G00X3.477Y-17.025
M15
G01X2.277Y-17.025
M16
G05
M30
