%TF.GenerationSoftware,KiCad,Pcbnew,7.0.9*%
%TF.CreationDate,2024-01-11T17:12:28+08:00*%
%TF.ProjectId,UINIO-Logic-24MHz,55494e49-4f2d-44c6-9f67-69632d32344d,Version 3.1.1*%
%TF.SameCoordinates,PX7aa95e0PY587b5e0*%
%TF.FileFunction,Copper,L2,Bot*%
%TF.FilePolarity,Positive*%
%FSLAX46Y46*%
G04 Gerber Fmt 4.6, Leading zero omitted, Abs format (unit mm)*
G04 Created by KiCad (PCBNEW 7.0.9) date 2024-01-11 17:12:28*
%MOMM*%
%LPD*%
G01*
G04 APERTURE LIST*
G04 Aperture macros list*
%AMRoundRect*
0 Rectangle with rounded corners*
0 $1 Rounding radius*
0 $2 $3 $4 $5 $6 $7 $8 $9 X,Y pos of 4 corners*
0 Add a 4 corners polygon primitive as box body*
4,1,4,$2,$3,$4,$5,$6,$7,$8,$9,$2,$3,0*
0 Add four circle primitives for the rounded corners*
1,1,$1+$1,$2,$3*
1,1,$1+$1,$4,$5*
1,1,$1+$1,$6,$7*
1,1,$1+$1,$8,$9*
0 Add four rect primitives between the rounded corners*
20,1,$1+$1,$2,$3,$4,$5,0*
20,1,$1+$1,$4,$5,$6,$7,0*
20,1,$1+$1,$6,$7,$8,$9,0*
20,1,$1+$1,$8,$9,$2,$3,0*%
G04 Aperture macros list end*
%TA.AperFunction,ComponentPad*%
%ADD10C,2.200000*%
%TD*%
%TA.AperFunction,ComponentPad*%
%ADD11C,0.500000*%
%TD*%
%TA.AperFunction,SMDPad,CuDef*%
%ADD12RoundRect,0.250002X2.349998X-1.999998X2.349998X1.999998X-2.349998X1.999998X-2.349998X-1.999998X0*%
%TD*%
%TA.AperFunction,ComponentPad*%
%ADD13O,2.100000X1.000000*%
%TD*%
%TA.AperFunction,ComponentPad*%
%ADD14O,1.900000X1.000000*%
%TD*%
%TA.AperFunction,ComponentPad*%
%ADD15R,1.700000X1.700000*%
%TD*%
%TA.AperFunction,ComponentPad*%
%ADD16O,1.700000X1.700000*%
%TD*%
%TA.AperFunction,ViaPad*%
%ADD17C,0.700000*%
%TD*%
%TA.AperFunction,ViaPad*%
%ADD18C,0.500000*%
%TD*%
%TA.AperFunction,ViaPad*%
%ADD19C,0.900000*%
%TD*%
%TA.AperFunction,ViaPad*%
%ADD20C,1.100000*%
%TD*%
%TA.AperFunction,Conductor*%
%ADD21C,0.700000*%
%TD*%
%TA.AperFunction,Conductor*%
%ADD22C,0.500000*%
%TD*%
%TA.AperFunction,Conductor*%
%ADD23C,0.300000*%
%TD*%
%TA.AperFunction,Conductor*%
%ADD24C,0.200000*%
%TD*%
G04 APERTURE END LIST*
D10*
%TO.P,HOLE2,*%
%TO.N,*%
X38535000Y-2865000D03*
%TD*%
%TO.P,HOLE4,*%
%TO.N,*%
X855000Y-2865000D03*
%TD*%
D11*
%TO.P,U4,57,EP*%
%TO.N,GND*%
X14645000Y-14795000D03*
X15820000Y-14795000D03*
X16995000Y-14795000D03*
X18170000Y-14795000D03*
X19345000Y-14795000D03*
X14645000Y-13795000D03*
X15820000Y-13795000D03*
X16995000Y-13795000D03*
X18170000Y-13795000D03*
X19345000Y-13795000D03*
X14645000Y-12795000D03*
X15820000Y-12795000D03*
X16995000Y-12795000D03*
D12*
X16995000Y-12795000D03*
D11*
X18170000Y-12795000D03*
X19345000Y-12795000D03*
X14645000Y-11795000D03*
X15820000Y-11795000D03*
X16995000Y-11795000D03*
X18170000Y-11795000D03*
X19345000Y-11795000D03*
X14645000Y-10795000D03*
X15820000Y-10795000D03*
X16995000Y-10795000D03*
X18170000Y-10795000D03*
X19345000Y-10795000D03*
%TD*%
D13*
%TO.P,USB1,13,GND*%
%TO.N,GND*%
X4134000Y-8475000D03*
%TO.P,USB1,14,GND*%
X4134000Y-17125000D03*
D14*
%TO.P,USB1,15,GND*%
X-66000Y-8475000D03*
%TO.P,USB1,16,GND*%
X-66000Y-17125000D03*
%TD*%
D10*
%TO.P,HOLE3,*%
%TO.N,*%
X855000Y-22865000D03*
%TD*%
D15*
%TO.P,J1,1,Pin_1*%
%TO.N,GND*%
X45440000Y-1370000D03*
D16*
%TO.P,J1,2,Pin_2*%
%TO.N,Net-(J1-Pin_2)*%
X45440000Y-3910000D03*
%TO.P,J1,3,Pin_3*%
%TO.N,Net-(J1-Pin_3)*%
X45440000Y-6450000D03*
%TO.P,J1,4,Pin_4*%
%TO.N,Net-(J1-Pin_4)*%
X45440000Y-8990000D03*
%TO.P,J1,5,Pin_5*%
%TO.N,Net-(J1-Pin_5)*%
X45440000Y-11530000D03*
%TO.P,J1,6,Pin_6*%
%TO.N,Net-(J1-Pin_6)*%
X45440000Y-14070000D03*
%TO.P,J1,7,Pin_7*%
%TO.N,Net-(J1-Pin_7)*%
X45440000Y-16610000D03*
%TO.P,J1,8,Pin_8*%
%TO.N,Net-(J1-Pin_8)*%
X45440000Y-19150000D03*
%TO.P,J1,9,Pin_9*%
%TO.N,Net-(J1-Pin_9)*%
X45440000Y-21690000D03*
%TO.P,J1,10,Pin_10*%
%TO.N,GND*%
X45440000Y-24230000D03*
%TD*%
D10*
%TO.P,HOLE1,*%
%TO.N,*%
X38535000Y-22865000D03*
%TD*%
D17*
%TO.N,GND*%
X9725000Y-8235000D03*
D18*
X11855000Y-1555000D03*
X6905000Y-12205000D03*
X5115000Y-4625000D03*
D19*
X8325000Y-22695000D03*
D18*
X40725000Y-14325000D03*
X40725000Y-9835000D03*
D19*
X6855000Y-17575000D03*
D18*
X18245500Y-19965000D03*
D17*
X7705000Y-8245000D03*
D18*
X40025000Y-12885000D03*
X6125000Y-20445000D03*
X11945000Y-16595000D03*
D17*
X20245000Y-18115000D03*
D18*
X40725000Y-8295000D03*
X22835000Y-9125000D03*
X40725000Y-15715000D03*
X43825000Y-12885000D03*
D20*
X15405000Y-22755000D03*
D18*
X11855000Y-4625000D03*
X40725000Y-17265000D03*
X40725000Y-11385000D03*
X5115000Y-1555000D03*
D19*
%TO.N,+5V*%
X6910000Y-10990000D03*
X9235000Y-19505000D03*
D17*
%TO.N,+3.3V*%
X20305000Y-7485000D03*
X22045000Y-15055000D03*
D19*
X27495000Y-2515000D03*
D17*
X16388556Y-18438556D03*
D19*
X9935000Y-11805000D03*
D20*
X16395000Y-20825000D03*
D17*
X22045000Y-17865000D03*
D18*
%TO.N,/USB_Data-*%
X3995000Y-13045000D03*
X3995000Y-12075000D03*
%TO.N,/INPUT1*%
X37605000Y-8375000D03*
X34725000Y-4235000D03*
%TO.N,/INPUT2*%
X37585000Y-9845000D03*
X33195000Y-4235000D03*
%TO.N,/INPUT3*%
X37615000Y-11295000D03*
X31655000Y-4235000D03*
%TO.N,/INPUT4*%
X37620000Y-12770000D03*
X30135000Y-4235000D03*
%TO.N,/INPUT5*%
X30115000Y-21465000D03*
X36920000Y-13770000D03*
%TO.N,/INPUT6*%
X31655000Y-21465000D03*
X37675000Y-14420000D03*
%TO.N,/INPUT7*%
X37580000Y-15830000D03*
X33185000Y-21475000D03*
%TO.N,/INPUT8*%
X37635000Y-17345000D03*
X34715000Y-21475000D03*
%TO.N,Net-(USB1-CC1)*%
X4265000Y-5975000D03*
X6015000Y-11565000D03*
%TO.N,Net-(USB1-CC2)*%
X6015000Y-14550000D03*
X7375000Y-19505000D03*
%TD*%
D21*
%TO.N,GND*%
X9725000Y-8235000D02*
X7715000Y-8235000D01*
X7715000Y-8235000D02*
X7705000Y-8245000D01*
D22*
%TO.N,+5V*%
X6910000Y-10990000D02*
X9235000Y-13315000D01*
X9235000Y-13315000D02*
X9235000Y-19505000D01*
D23*
%TO.N,+3.3V*%
X22045000Y-17865000D02*
X22045000Y-18475000D01*
X9935000Y-17445000D02*
X13315000Y-20825000D01*
X16395000Y-20825000D02*
X16395000Y-20745000D01*
X22045000Y-18475000D02*
X19705000Y-20815000D01*
D22*
X16395000Y-18445000D02*
X16388556Y-18438556D01*
D23*
X16395000Y-20825000D02*
X16395000Y-18445000D01*
X27475000Y-2495000D02*
X27495000Y-2515000D01*
X25295000Y-2495000D02*
X27475000Y-2495000D01*
X20305000Y-16835000D02*
X20305000Y-7485000D01*
X16405000Y-20815000D02*
X16395000Y-20825000D01*
X19705000Y-20815000D02*
X16405000Y-20815000D01*
X13315000Y-20825000D02*
X16395000Y-20825000D01*
X16395000Y-20745000D02*
X20305000Y-16835000D01*
X20305000Y-7485000D02*
X25295000Y-2495000D01*
X22045000Y-15055000D02*
X22045000Y-17865000D01*
X9935000Y-11805000D02*
X9935000Y-17445000D01*
D24*
%TO.N,/USB_Data-*%
X3995000Y-13045000D02*
X3995000Y-12075000D01*
%TO.N,/INPUT1*%
X34725000Y-4235000D02*
X34725000Y-5495000D01*
X34725000Y-5495000D02*
X37605000Y-8375000D01*
%TO.N,/INPUT2*%
X33195000Y-5455000D02*
X37585000Y-9845000D01*
X33195000Y-4235000D02*
X33195000Y-5455000D01*
%TO.N,/INPUT3*%
X31655000Y-5335000D02*
X37615000Y-11295000D01*
X31655000Y-4235000D02*
X31655000Y-5335000D01*
%TO.N,/INPUT4*%
X30135000Y-5285000D02*
X37620000Y-12770000D01*
X30135000Y-4235000D02*
X30135000Y-5285000D01*
%TO.N,/INPUT5*%
X30115000Y-20575000D02*
X30115000Y-21465000D01*
X36920000Y-13770000D02*
X30115000Y-20575000D01*
%TO.N,/INPUT6*%
X31655000Y-21465000D02*
X31655000Y-20445000D01*
X37675000Y-14425000D02*
X37675000Y-14420000D01*
X31655000Y-20445000D02*
X37675000Y-14425000D01*
%TO.N,/INPUT7*%
X33185000Y-20225000D02*
X33185000Y-21475000D01*
X37580000Y-15830000D02*
X33185000Y-20225000D01*
%TO.N,/INPUT8*%
X37625000Y-17345000D02*
X37635000Y-17345000D01*
X34715000Y-20255000D02*
X37625000Y-17345000D01*
X34715000Y-21475000D02*
X34715000Y-20255000D01*
%TO.N,Net-(USB1-CC1)*%
X6015000Y-7725000D02*
X6015000Y-11565000D01*
X4265000Y-5975000D02*
X6015000Y-7725000D01*
%TO.N,Net-(USB1-CC2)*%
X6015000Y-14560000D02*
X6015000Y-18145000D01*
X6015000Y-18145000D02*
X7375000Y-19505000D01*
%TD*%
%TA.AperFunction,Conductor*%
%TO.N,GND*%
G36*
X21168703Y-15193840D02*
G01*
X21205430Y-15249235D01*
X21226794Y-15314986D01*
X21231386Y-15334227D01*
X21233755Y-15349445D01*
X21381064Y-15830446D01*
X21386500Y-15866757D01*
X21386500Y-17053241D01*
X21381064Y-17089552D01*
X21233756Y-17570553D01*
X21225862Y-17599282D01*
X21224895Y-17604532D01*
X21224639Y-17604484D01*
X21220489Y-17624419D01*
X21200635Y-17685523D01*
X21200635Y-17685524D01*
X21181771Y-17865000D01*
X21200635Y-18044475D01*
X21234381Y-18148337D01*
X21236208Y-18155319D01*
X21241333Y-18180896D01*
X21258761Y-18230081D01*
X21262597Y-18299845D01*
X21229562Y-18359176D01*
X19468559Y-20120181D01*
X19407236Y-20153666D01*
X19380878Y-20156500D01*
X18214122Y-20156500D01*
X18147083Y-20136815D01*
X18101328Y-20084011D01*
X18091384Y-20014853D01*
X18120409Y-19951297D01*
X18126441Y-19944819D01*
X18768054Y-19303206D01*
X20709543Y-17361715D01*
X20722214Y-17351566D01*
X20722068Y-17351389D01*
X20728074Y-17346419D01*
X20728080Y-17346416D01*
X20777945Y-17293314D01*
X20799927Y-17271333D01*
X20804495Y-17265442D01*
X20808282Y-17261008D01*
X20841972Y-17225133D01*
X20852380Y-17206200D01*
X20863059Y-17189942D01*
X20876304Y-17172868D01*
X20895852Y-17127691D01*
X20898409Y-17122472D01*
X20922124Y-17079337D01*
X20927495Y-17058413D01*
X20933796Y-17040009D01*
X20942380Y-17020176D01*
X20947733Y-16986372D01*
X20950078Y-16971569D01*
X20951263Y-16965844D01*
X20957622Y-16941078D01*
X20963500Y-16918188D01*
X20963500Y-16896580D01*
X20965027Y-16877180D01*
X20965373Y-16875000D01*
X20968406Y-16855848D01*
X20963775Y-16806854D01*
X20963500Y-16801017D01*
X20963500Y-15287553D01*
X20983185Y-15220514D01*
X21035989Y-15174759D01*
X21105147Y-15164815D01*
X21168703Y-15193840D01*
G37*
%TD.AperFunction*%
%TA.AperFunction,Conductor*%
G36*
X44154919Y-45185D02*
G01*
X44200674Y-97989D01*
X44210618Y-167147D01*
X44187146Y-223812D01*
X44146647Y-277910D01*
X44146645Y-277913D01*
X44096403Y-412620D01*
X44096401Y-412627D01*
X44090000Y-472155D01*
X44090000Y-1120000D01*
X45006314Y-1120000D01*
X44980507Y-1160156D01*
X44940000Y-1298111D01*
X44940000Y-1441889D01*
X44980507Y-1579844D01*
X45006314Y-1620000D01*
X44090000Y-1620000D01*
X44090000Y-2267844D01*
X44096401Y-2327372D01*
X44096403Y-2327379D01*
X44146645Y-2462086D01*
X44146649Y-2462093D01*
X44232809Y-2577187D01*
X44232812Y-2577190D01*
X44347906Y-2663350D01*
X44347913Y-2663354D01*
X44467810Y-2708073D01*
X44523744Y-2749944D01*
X44548161Y-2815409D01*
X44533309Y-2883682D01*
X44515706Y-2908238D01*
X44364284Y-3072723D01*
X44364276Y-3072734D01*
X44241140Y-3261207D01*
X44150703Y-3467385D01*
X44095436Y-3685628D01*
X44095434Y-3685640D01*
X44076844Y-3909994D01*
X44076844Y-3910005D01*
X44095434Y-4134359D01*
X44095436Y-4134371D01*
X44150703Y-4352614D01*
X44241140Y-4558792D01*
X44364276Y-4747265D01*
X44364284Y-4747276D01*
X44516756Y-4912902D01*
X44516760Y-4912906D01*
X44694424Y-5051189D01*
X44694429Y-5051191D01*
X44694431Y-5051193D01*
X44730930Y-5070946D01*
X44780520Y-5120165D01*
X44795628Y-5188382D01*
X44771457Y-5253937D01*
X44730930Y-5289054D01*
X44694431Y-5308806D01*
X44694422Y-5308812D01*
X44516761Y-5447092D01*
X44516756Y-5447097D01*
X44364284Y-5612723D01*
X44364276Y-5612734D01*
X44241140Y-5801207D01*
X44150703Y-6007385D01*
X44095436Y-6225628D01*
X44095434Y-6225640D01*
X44076844Y-6449994D01*
X44076844Y-6450005D01*
X44095434Y-6674359D01*
X44095436Y-6674371D01*
X44150703Y-6892614D01*
X44241140Y-7098792D01*
X44364276Y-7287265D01*
X44364284Y-7287276D01*
X44516756Y-7452902D01*
X44516760Y-7452906D01*
X44694424Y-7591189D01*
X44694429Y-7591191D01*
X44694431Y-7591193D01*
X44730930Y-7610946D01*
X44780520Y-7660165D01*
X44795628Y-7728382D01*
X44771457Y-7793937D01*
X44730930Y-7829054D01*
X44694431Y-7848806D01*
X44694422Y-7848812D01*
X44516761Y-7987092D01*
X44516756Y-7987097D01*
X44364284Y-8152723D01*
X44364276Y-8152734D01*
X44241140Y-8341207D01*
X44150703Y-8547385D01*
X44095436Y-8765628D01*
X44095434Y-8765640D01*
X44076844Y-8989994D01*
X44076844Y-8990005D01*
X44095434Y-9214359D01*
X44095436Y-9214371D01*
X44150703Y-9432614D01*
X44241140Y-9638792D01*
X44364276Y-9827265D01*
X44364284Y-9827276D01*
X44516756Y-9992902D01*
X44516761Y-9992907D01*
X44544952Y-10014849D01*
X44694424Y-10131189D01*
X44694429Y-10131191D01*
X44694431Y-10131193D01*
X44730930Y-10150946D01*
X44780520Y-10200165D01*
X44795628Y-10268382D01*
X44771457Y-10333937D01*
X44730930Y-10369054D01*
X44694431Y-10388806D01*
X44694422Y-10388812D01*
X44516761Y-10527092D01*
X44516756Y-10527097D01*
X44364284Y-10692723D01*
X44364276Y-10692734D01*
X44241140Y-10881207D01*
X44150703Y-11087385D01*
X44095436Y-11305628D01*
X44095434Y-11305640D01*
X44076844Y-11529994D01*
X44076844Y-11530005D01*
X44095434Y-11754359D01*
X44095436Y-11754371D01*
X44150703Y-11972614D01*
X44241140Y-12178792D01*
X44364276Y-12367265D01*
X44364284Y-12367276D01*
X44516756Y-12532902D01*
X44516760Y-12532906D01*
X44694424Y-12671189D01*
X44694429Y-12671191D01*
X44694431Y-12671193D01*
X44730930Y-12690946D01*
X44780520Y-12740165D01*
X44795628Y-12808382D01*
X44771457Y-12873937D01*
X44730930Y-12909054D01*
X44694431Y-12928806D01*
X44694422Y-12928812D01*
X44516761Y-13067092D01*
X44516756Y-13067097D01*
X44364284Y-13232723D01*
X44364276Y-13232734D01*
X44241140Y-13421207D01*
X44150703Y-13627385D01*
X44095436Y-13845628D01*
X44095434Y-13845640D01*
X44076844Y-14069994D01*
X44076844Y-14070005D01*
X44095434Y-14294359D01*
X44095436Y-14294371D01*
X44150703Y-14512614D01*
X44241140Y-14718792D01*
X44364276Y-14907265D01*
X44364284Y-14907276D01*
X44516756Y-15072902D01*
X44516761Y-15072907D01*
X44552607Y-15100807D01*
X44694424Y-15211189D01*
X44694429Y-15211191D01*
X44694431Y-15211193D01*
X44730930Y-15230946D01*
X44780520Y-15280165D01*
X44795628Y-15348382D01*
X44771457Y-15413937D01*
X44730930Y-15449054D01*
X44694431Y-15468806D01*
X44694422Y-15468812D01*
X44516761Y-15607092D01*
X44516756Y-15607097D01*
X44364284Y-15772723D01*
X44364276Y-15772734D01*
X44241140Y-15961207D01*
X44150703Y-16167385D01*
X44095436Y-16385628D01*
X44095434Y-16385640D01*
X44076844Y-16609994D01*
X44076844Y-16610005D01*
X44095434Y-16834359D01*
X44095436Y-16834371D01*
X44150703Y-17052614D01*
X44241140Y-17258792D01*
X44364276Y-17447265D01*
X44364284Y-17447276D01*
X44516756Y-17612902D01*
X44516761Y-17612907D01*
X44522760Y-17617576D01*
X44694424Y-17751189D01*
X44694429Y-17751191D01*
X44694431Y-17751193D01*
X44730930Y-17770946D01*
X44780520Y-17820165D01*
X44795628Y-17888382D01*
X44771457Y-17953937D01*
X44730930Y-17989054D01*
X44694431Y-18008806D01*
X44694422Y-18008812D01*
X44516761Y-18147092D01*
X44516756Y-18147097D01*
X44364284Y-18312723D01*
X44364276Y-18312734D01*
X44241140Y-18501207D01*
X44150703Y-18707385D01*
X44095436Y-18925628D01*
X44095434Y-18925640D01*
X44076844Y-19149994D01*
X44076844Y-19150005D01*
X44095434Y-19374359D01*
X44095436Y-19374371D01*
X44150703Y-19592614D01*
X44241140Y-19798792D01*
X44364276Y-19987265D01*
X44364284Y-19987276D01*
X44516756Y-20152902D01*
X44516761Y-20152907D01*
X44522697Y-20157527D01*
X44694424Y-20291189D01*
X44694429Y-20291191D01*
X44694431Y-20291193D01*
X44730930Y-20310946D01*
X44780520Y-20360165D01*
X44795628Y-20428382D01*
X44771457Y-20493937D01*
X44730930Y-20529054D01*
X44694431Y-20548806D01*
X44694422Y-20548812D01*
X44516761Y-20687092D01*
X44516756Y-20687097D01*
X44364284Y-20852723D01*
X44364276Y-20852734D01*
X44241140Y-21041207D01*
X44150703Y-21247385D01*
X44095436Y-21465628D01*
X44095434Y-21465640D01*
X44076844Y-21689994D01*
X44076844Y-21690005D01*
X44095434Y-21914359D01*
X44095436Y-21914371D01*
X44150703Y-22132614D01*
X44241140Y-22338792D01*
X44364276Y-22527265D01*
X44364284Y-22527276D01*
X44516756Y-22692902D01*
X44516760Y-22692906D01*
X44694424Y-22831189D01*
X44737693Y-22854605D01*
X44737695Y-22854606D01*
X44787286Y-22903825D01*
X44802394Y-22972042D01*
X44778224Y-23037597D01*
X44749802Y-23065236D01*
X44568922Y-23191890D01*
X44568920Y-23191891D01*
X44401891Y-23358920D01*
X44401886Y-23358926D01*
X44266400Y-23552420D01*
X44266399Y-23552422D01*
X44166570Y-23766507D01*
X44166567Y-23766513D01*
X44109364Y-23979999D01*
X44109364Y-23980000D01*
X45006314Y-23980000D01*
X44980507Y-24020156D01*
X44940000Y-24158111D01*
X44940000Y-24301889D01*
X44980507Y-24439844D01*
X45006314Y-24480000D01*
X44109364Y-24480000D01*
X44166567Y-24693486D01*
X44166570Y-24693492D01*
X44266399Y-24907578D01*
X44401894Y-25101082D01*
X44568921Y-25268109D01*
X44684338Y-25348926D01*
X44727963Y-25403503D01*
X44735155Y-25473001D01*
X44703633Y-25535356D01*
X44643402Y-25570769D01*
X44613214Y-25574500D01*
X-2976Y-25574500D01*
X-7026Y-25574367D01*
X-45046Y-25571875D01*
X-88650Y-25569017D01*
X-270440Y-25556015D01*
X-278120Y-25554980D01*
X-394421Y-25531846D01*
X-538648Y-25500472D01*
X-545404Y-25498597D01*
X-584797Y-25485225D01*
X-664422Y-25458196D01*
X-699232Y-25445212D01*
X-796743Y-25408841D01*
X-802501Y-25406355D01*
X-917953Y-25349421D01*
X-1039909Y-25282828D01*
X-1044643Y-25279962D01*
X-1151651Y-25208461D01*
X-1154361Y-25206543D01*
X-1194408Y-25176564D01*
X-1263647Y-25124732D01*
X-1267352Y-25121729D01*
X-1364508Y-25036526D01*
X-1367451Y-25033769D01*
X-1463772Y-24937448D01*
X-1466531Y-24934502D01*
X-1482012Y-24916849D01*
X-1551735Y-24837345D01*
X-1554729Y-24833652D01*
X-1636546Y-24724358D01*
X-1638463Y-24721649D01*
X-1709968Y-24614634D01*
X-1712830Y-24609906D01*
X-1779422Y-24487952D01*
X-1836357Y-24372499D01*
X-1838843Y-24366741D01*
X-1862761Y-24302616D01*
X-1888191Y-24234437D01*
X-1928605Y-24115383D01*
X-1930469Y-24108666D01*
X-1961847Y-23964420D01*
X-1974820Y-23899202D01*
X-1984985Y-23848100D01*
X-1986015Y-23840459D01*
X-1999014Y-23658708D01*
X-2003025Y-23597502D01*
X-2004367Y-23577019D01*
X-2004500Y-23572964D01*
X-2004500Y-22865000D01*
X-758474Y-22865000D01*
X-738609Y-23117406D01*
X-679505Y-23363593D01*
X-582617Y-23597502D01*
X-450332Y-23813370D01*
X-450331Y-23813372D01*
X-450330Y-23813374D01*
X-450328Y-23813376D01*
X-285898Y-24005898D01*
X-93376Y-24170328D01*
X-93374Y-24170329D01*
X-93373Y-24170330D01*
X-93371Y-24170331D01*
X122497Y-24302616D01*
X356406Y-24399504D01*
X356407Y-24399504D01*
X356409Y-24399505D01*
X602597Y-24458609D01*
X855000Y-24478474D01*
X1107403Y-24458609D01*
X1353591Y-24399505D01*
X1587502Y-24302616D01*
X1803376Y-24170328D01*
X1995898Y-24005898D01*
X2160328Y-23813376D01*
X2292616Y-23597502D01*
X2389505Y-23363591D01*
X2448609Y-23117403D01*
X2468474Y-22865000D01*
X36921526Y-22865000D01*
X36941391Y-23117406D01*
X37000495Y-23363593D01*
X37097383Y-23597502D01*
X37229668Y-23813370D01*
X37229669Y-23813372D01*
X37229670Y-23813374D01*
X37229672Y-23813376D01*
X37394102Y-24005898D01*
X37586624Y-24170328D01*
X37586626Y-24170329D01*
X37586627Y-24170330D01*
X37586629Y-24170331D01*
X37802497Y-24302616D01*
X38036406Y-24399504D01*
X38036407Y-24399504D01*
X38036409Y-24399505D01*
X38282597Y-24458609D01*
X38535000Y-24478474D01*
X38787403Y-24458609D01*
X39033591Y-24399505D01*
X39267502Y-24302616D01*
X39483376Y-24170328D01*
X39675898Y-24005898D01*
X39840328Y-23813376D01*
X39972616Y-23597502D01*
X40069505Y-23363591D01*
X40128609Y-23117403D01*
X40148474Y-22865000D01*
X40128609Y-22612597D01*
X40069505Y-22366409D01*
X40058066Y-22338792D01*
X39972616Y-22132497D01*
X39840331Y-21916629D01*
X39840330Y-21916627D01*
X39840329Y-21916626D01*
X39840328Y-21916624D01*
X39675898Y-21724102D01*
X39483376Y-21559672D01*
X39483374Y-21559670D01*
X39483372Y-21559669D01*
X39483370Y-21559668D01*
X39267502Y-21427383D01*
X39033593Y-21330495D01*
X38787406Y-21271391D01*
X38535000Y-21251526D01*
X38282593Y-21271391D01*
X38036406Y-21330495D01*
X37802497Y-21427383D01*
X37586629Y-21559668D01*
X37586627Y-21559669D01*
X37394102Y-21724102D01*
X37229669Y-21916627D01*
X37229668Y-21916629D01*
X37097383Y-22132497D01*
X37000495Y-22366406D01*
X36941391Y-22612593D01*
X36921526Y-22865000D01*
X2468474Y-22865000D01*
X2448609Y-22612597D01*
X2389505Y-22366409D01*
X2378066Y-22338792D01*
X2292616Y-22132497D01*
X2160331Y-21916629D01*
X2160330Y-21916627D01*
X2160329Y-21916626D01*
X2160328Y-21916624D01*
X1995898Y-21724102D01*
X1803376Y-21559672D01*
X1803374Y-21559670D01*
X1803372Y-21559669D01*
X1803370Y-21559668D01*
X1587502Y-21427383D01*
X1353593Y-21330495D01*
X1107406Y-21271391D01*
X855000Y-21251526D01*
X602593Y-21271391D01*
X356406Y-21330495D01*
X122497Y-21427383D01*
X-93371Y-21559668D01*
X-93373Y-21559669D01*
X-285898Y-21724102D01*
X-450331Y-21916627D01*
X-450332Y-21916629D01*
X-582617Y-22132497D01*
X-679505Y-22366406D01*
X-738609Y-22612593D01*
X-758474Y-22865000D01*
X-2004500Y-22865000D01*
X-2004500Y-17375000D01*
X-1489366Y-17375000D01*
X-1489069Y-17376946D01*
X-1489067Y-17376952D01*
X-1418438Y-17567657D01*
X-1418435Y-17567664D01*
X-1310851Y-17740267D01*
X-1170736Y-17887668D01*
X-1170734Y-17887669D01*
X-1003805Y-18003856D01*
X-816908Y-18084059D01*
X-617690Y-18125000D01*
X-316000Y-18125000D01*
X-316000Y-17425000D01*
X184000Y-17425000D01*
X184000Y-18125000D01*
X434713Y-18125000D01*
X586338Y-18109581D01*
X780381Y-18048700D01*
X780391Y-18048695D01*
X958215Y-17949994D01*
X958216Y-17949994D01*
X1112530Y-17817521D01*
X1112531Y-17817520D01*
X1237018Y-17656695D01*
X1326588Y-17474093D01*
X1352246Y-17375000D01*
X2610634Y-17375000D01*
X2610931Y-17376946D01*
X2610933Y-17376952D01*
X2681562Y-17567657D01*
X2681565Y-17567664D01*
X2789149Y-17740267D01*
X2929264Y-17887668D01*
X2929266Y-17887669D01*
X3096195Y-18003856D01*
X3283092Y-18084059D01*
X3482310Y-18125000D01*
X3884000Y-18125000D01*
X3884000Y-17425000D01*
X4384000Y-17425000D01*
X4384000Y-18125000D01*
X4734713Y-18125000D01*
X4886338Y-18109581D01*
X5080381Y-18048700D01*
X5080391Y-18048695D01*
X5222322Y-17969917D01*
X5290491Y-17954594D01*
X5356122Y-17978557D01*
X5398379Y-18034200D01*
X5406500Y-18078336D01*
X5406500Y-18101054D01*
X5405969Y-18109156D01*
X5401250Y-18144999D01*
X5401250Y-18145001D01*
X5406210Y-18182678D01*
X5406212Y-18182699D01*
X5418054Y-18272648D01*
X5422162Y-18303849D01*
X5422163Y-18303854D01*
X5483473Y-18451871D01*
X5483476Y-18451877D01*
X5514352Y-18492114D01*
X5556523Y-18547072D01*
X5556525Y-18547074D01*
X5556526Y-18547075D01*
X5581012Y-18578986D01*
X5609698Y-18600998D01*
X5615794Y-18606343D01*
X6133963Y-19124512D01*
X6509066Y-19499615D01*
X6531819Y-19530901D01*
X6684438Y-19829763D01*
X6686362Y-19834254D01*
X6687292Y-19836185D01*
X6693936Y-19846759D01*
X6695696Y-19849742D01*
X6698086Y-19854065D01*
X6698790Y-19855109D01*
X6702037Y-19859652D01*
X6778227Y-19980907D01*
X6778228Y-19980908D01*
X6778229Y-19980909D01*
X6899091Y-20101771D01*
X7043817Y-20192709D01*
X7205150Y-20249162D01*
X7205155Y-20249163D01*
X7374996Y-20268299D01*
X7375000Y-20268299D01*
X7375004Y-20268299D01*
X7544844Y-20249163D01*
X7544847Y-20249162D01*
X7544850Y-20249162D01*
X7706183Y-20192709D01*
X7850909Y-20101771D01*
X7971771Y-19980909D01*
X8062709Y-19836183D01*
X8082488Y-19779657D01*
X8123210Y-19722882D01*
X8188162Y-19697134D01*
X8256724Y-19710590D01*
X8307127Y-19758977D01*
X8318190Y-19784616D01*
X8345177Y-19873578D01*
X8434176Y-20040085D01*
X8434180Y-20040092D01*
X8553958Y-20186041D01*
X8699907Y-20305819D01*
X8699914Y-20305823D01*
X8777378Y-20347228D01*
X8866423Y-20394823D01*
X9047101Y-20449632D01*
X9235000Y-20468138D01*
X9422899Y-20449632D01*
X9603577Y-20394823D01*
X9770091Y-20305820D01*
X9916041Y-20186041D01*
X10035820Y-20040091D01*
X10124823Y-19873577D01*
X10179632Y-19692899D01*
X10198138Y-19505000D01*
X10179632Y-19317101D01*
X10153950Y-19232442D01*
X10150344Y-19213461D01*
X10149908Y-19213529D01*
X10149237Y-19209168D01*
X10149237Y-19209160D01*
X10062283Y-18827342D01*
X10066590Y-18757607D01*
X10107915Y-18701269D01*
X10173139Y-18676217D01*
X10241553Y-18690404D01*
X10270868Y-18712128D01*
X12788280Y-21229540D01*
X12798430Y-21242208D01*
X12798606Y-21242064D01*
X12803580Y-21248076D01*
X12803583Y-21248079D01*
X12803584Y-21248080D01*
X12812659Y-21256602D01*
X12856685Y-21297946D01*
X12878661Y-21319922D01*
X12884551Y-21324491D01*
X12888994Y-21328286D01*
X12924864Y-21361970D01*
X12924866Y-21361971D01*
X12924867Y-21361972D01*
X12943803Y-21372382D01*
X12960049Y-21383053D01*
X12977132Y-21396304D01*
X13022296Y-21415848D01*
X13027544Y-21418420D01*
X13059234Y-21435840D01*
X13070663Y-21442124D01*
X13086823Y-21446272D01*
X13091583Y-21447495D01*
X13109986Y-21453795D01*
X13129824Y-21462380D01*
X13166960Y-21468261D01*
X13178431Y-21470078D01*
X13184146Y-21471261D01*
X13231812Y-21483500D01*
X13253419Y-21483500D01*
X13272816Y-21485026D01*
X13294152Y-21488406D01*
X13343144Y-21483774D01*
X13348981Y-21483500D01*
X15159068Y-21483500D01*
X15205378Y-21492472D01*
X15959726Y-21796183D01*
X15984075Y-21805986D01*
X15985225Y-21806523D01*
X15987964Y-21807657D01*
X15987966Y-21807657D01*
X15987969Y-21807659D01*
X15998761Y-21810932D01*
X16031135Y-21822099D01*
X16031136Y-21822099D01*
X16031139Y-21822100D01*
X16036716Y-21823437D01*
X16048609Y-21826053D01*
X16187498Y-21868185D01*
X16395000Y-21888622D01*
X16602502Y-21868185D01*
X16802031Y-21807659D01*
X16802035Y-21807656D01*
X16807667Y-21805324D01*
X16807795Y-21805633D01*
X16809081Y-21805081D01*
X16808912Y-21804672D01*
X17571401Y-21488405D01*
X17584524Y-21482961D01*
X17632032Y-21473500D01*
X19618609Y-21473500D01*
X19634746Y-21475281D01*
X19634768Y-21475054D01*
X19642534Y-21475788D01*
X19642536Y-21475787D01*
X19642537Y-21475788D01*
X19715342Y-21473500D01*
X19746432Y-21473500D01*
X19753823Y-21472566D01*
X19759651Y-21472107D01*
X19808831Y-21470562D01*
X19827962Y-21465003D01*
X29351701Y-21465003D01*
X29370836Y-21634844D01*
X29370837Y-21634849D01*
X29427291Y-21796183D01*
X29502972Y-21916629D01*
X29518229Y-21940909D01*
X29639091Y-22061771D01*
X29783817Y-22152709D01*
X29945150Y-22209162D01*
X29945155Y-22209163D01*
X30114996Y-22228299D01*
X30115000Y-22228299D01*
X30115004Y-22228299D01*
X30284844Y-22209163D01*
X30284847Y-22209162D01*
X30284850Y-22209162D01*
X30446183Y-22152709D01*
X30590909Y-22061771D01*
X30711771Y-21940909D01*
X30780006Y-21832313D01*
X30832341Y-21786023D01*
X30901394Y-21775375D01*
X30965243Y-21803750D01*
X30989994Y-21832314D01*
X31042971Y-21916627D01*
X31058229Y-21940909D01*
X31179091Y-22061771D01*
X31323817Y-22152709D01*
X31485150Y-22209162D01*
X31485155Y-22209163D01*
X31654996Y-22228299D01*
X31655000Y-22228299D01*
X31655004Y-22228299D01*
X31824844Y-22209163D01*
X31824847Y-22209162D01*
X31824850Y-22209162D01*
X31986183Y-22152709D01*
X32130909Y-22061771D01*
X32251771Y-21940909D01*
X32311864Y-21845271D01*
X32364199Y-21798981D01*
X32433252Y-21788333D01*
X32497101Y-21816708D01*
X32521852Y-21845272D01*
X32588228Y-21950908D01*
X32588229Y-21950909D01*
X32709091Y-22071771D01*
X32853817Y-22162709D01*
X32986572Y-22209162D01*
X33015150Y-22219162D01*
X33015155Y-22219163D01*
X33184996Y-22238299D01*
X33185000Y-22238299D01*
X33185004Y-22238299D01*
X33354844Y-22219163D01*
X33354847Y-22219162D01*
X33354850Y-22219162D01*
X33516183Y-22162709D01*
X33660909Y-22071771D01*
X33781771Y-21950909D01*
X33845006Y-21850272D01*
X33897341Y-21803981D01*
X33966394Y-21793333D01*
X34030243Y-21821708D01*
X34054994Y-21850272D01*
X34111945Y-21940909D01*
X34118229Y-21950909D01*
X34239091Y-22071771D01*
X34383817Y-22162709D01*
X34516572Y-22209162D01*
X34545150Y-22219162D01*
X34545155Y-22219163D01*
X34714996Y-22238299D01*
X34715000Y-22238299D01*
X34715004Y-22238299D01*
X34884844Y-22219163D01*
X34884847Y-22219162D01*
X34884850Y-22219162D01*
X35046183Y-22162709D01*
X35190909Y-22071771D01*
X35311771Y-21950909D01*
X35402709Y-21806183D01*
X35459162Y-21644850D01*
X35460289Y-21634849D01*
X35478299Y-21475003D01*
X35478299Y-21474996D01*
X35459163Y-21305157D01*
X35459161Y-21305147D01*
X35439413Y-21248711D01*
X35434251Y-21228789D01*
X35431164Y-21210855D01*
X35431163Y-21210849D01*
X35329534Y-20897100D01*
X35323500Y-20858889D01*
X35323500Y-20558410D01*
X35343185Y-20491371D01*
X35359814Y-20470734D01*
X37622323Y-18208224D01*
X37655464Y-18184545D01*
X37872376Y-18078336D01*
X37946649Y-18041969D01*
X37951109Y-18039576D01*
X37960500Y-18035444D01*
X37966175Y-18032711D01*
X37966183Y-18032709D01*
X37977627Y-18025517D01*
X37979410Y-18024482D01*
X37980096Y-18024029D01*
X37980101Y-18024027D01*
X37980104Y-18024024D01*
X37982177Y-18022658D01*
X38110906Y-17941773D01*
X38110906Y-17941772D01*
X38110909Y-17941771D01*
X38231771Y-17820909D01*
X38322709Y-17676183D01*
X38379162Y-17514850D01*
X38383754Y-17474093D01*
X38398299Y-17345003D01*
X38398299Y-17344996D01*
X38379163Y-17175155D01*
X38379162Y-17175150D01*
X38351760Y-17096840D01*
X38322709Y-17013817D01*
X38231771Y-16869091D01*
X38110909Y-16748229D01*
X38110908Y-16748228D01*
X37994707Y-16675214D01*
X37948416Y-16622879D01*
X37937768Y-16553826D01*
X37966143Y-16489977D01*
X37994708Y-16465226D01*
X38055906Y-16426773D01*
X38055906Y-16426772D01*
X38055909Y-16426771D01*
X38176771Y-16305909D01*
X38267709Y-16161183D01*
X38324162Y-15999850D01*
X38331577Y-15934037D01*
X38343299Y-15830003D01*
X38343299Y-15829996D01*
X38324163Y-15660155D01*
X38324162Y-15660150D01*
X38305596Y-15607092D01*
X38267709Y-15498817D01*
X38176771Y-15354091D01*
X38069584Y-15246904D01*
X38036099Y-15185581D01*
X38041083Y-15115889D01*
X38082955Y-15059956D01*
X38091285Y-15054234D01*
X38150909Y-15016771D01*
X38271771Y-14895909D01*
X38362709Y-14751183D01*
X38419162Y-14589850D01*
X38423652Y-14550000D01*
X38438299Y-14420003D01*
X38438299Y-14419996D01*
X38419163Y-14250155D01*
X38419162Y-14250150D01*
X38413518Y-14234020D01*
X38362709Y-14088817D01*
X38271771Y-13944091D01*
X38150909Y-13823229D01*
X38150908Y-13823228D01*
X38006180Y-13732289D01*
X37920814Y-13702418D01*
X37864038Y-13661697D01*
X37838291Y-13596744D01*
X37851747Y-13528182D01*
X37900135Y-13477780D01*
X37920816Y-13468335D01*
X37924627Y-13467001D01*
X37951183Y-13457709D01*
X38095909Y-13366771D01*
X38216771Y-13245909D01*
X38307709Y-13101183D01*
X38364162Y-12939850D01*
X38365406Y-12928809D01*
X38383299Y-12770003D01*
X38383299Y-12769996D01*
X38364163Y-12600155D01*
X38364162Y-12600150D01*
X38350113Y-12560000D01*
X38307709Y-12438817D01*
X38216771Y-12294091D01*
X38095909Y-12173229D01*
X38095908Y-12173228D01*
X38036537Y-12135923D01*
X37990246Y-12083589D01*
X37979597Y-12014535D01*
X38007972Y-11950687D01*
X38036538Y-11925935D01*
X38090904Y-11891774D01*
X38090907Y-11891772D01*
X38090906Y-11891772D01*
X38090909Y-11891771D01*
X38211771Y-11770909D01*
X38302709Y-11626183D01*
X38359162Y-11464850D01*
X38362365Y-11436421D01*
X38378299Y-11295003D01*
X38378299Y-11294996D01*
X38359163Y-11125155D01*
X38359162Y-11125150D01*
X38325499Y-11028947D01*
X38302709Y-10963817D01*
X38211771Y-10819091D01*
X38090909Y-10698229D01*
X38090907Y-10698227D01*
X38090905Y-10698226D01*
X38038930Y-10665567D01*
X37992639Y-10613232D01*
X37981992Y-10544179D01*
X38010367Y-10480330D01*
X38038930Y-10455581D01*
X38060909Y-10441771D01*
X38181771Y-10320909D01*
X38272709Y-10176183D01*
X38329162Y-10014850D01*
X38330719Y-10001033D01*
X38348299Y-9845003D01*
X38348299Y-9844996D01*
X38329163Y-9675155D01*
X38329162Y-9675150D01*
X38316439Y-9638791D01*
X38272709Y-9513817D01*
X38181771Y-9369091D01*
X38060909Y-9248229D01*
X38060908Y-9248228D01*
X38018016Y-9221277D01*
X37971725Y-9168942D01*
X37961077Y-9099888D01*
X37989452Y-9036040D01*
X38018017Y-9011289D01*
X38080904Y-8971774D01*
X38080907Y-8971772D01*
X38080906Y-8971772D01*
X38080909Y-8971771D01*
X38201771Y-8850909D01*
X38292709Y-8706183D01*
X38349162Y-8544850D01*
X38349163Y-8544844D01*
X38368299Y-8375003D01*
X38368299Y-8374996D01*
X38349163Y-8205155D01*
X38349162Y-8205150D01*
X38321433Y-8125906D01*
X38292709Y-8043817D01*
X38201771Y-7899091D01*
X38080909Y-7778229D01*
X38080908Y-7778228D01*
X37936183Y-7687290D01*
X37934243Y-7686356D01*
X37929779Y-7684446D01*
X37630901Y-7531819D01*
X37599615Y-7509066D01*
X35369819Y-5279270D01*
X35336334Y-5217947D01*
X35333500Y-5191589D01*
X35333500Y-4851108D01*
X35339534Y-4812897D01*
X35360793Y-4747268D01*
X35441163Y-4499149D01*
X35450480Y-4466805D01*
X35450481Y-4466787D01*
X35451522Y-4461460D01*
X35451913Y-4461536D01*
X35456534Y-4440933D01*
X35469162Y-4404850D01*
X35469764Y-4399505D01*
X35488299Y-4235003D01*
X35488299Y-4234996D01*
X35469163Y-4065155D01*
X35469162Y-4065150D01*
X35448428Y-4005897D01*
X35412709Y-3903817D01*
X35321771Y-3759091D01*
X35200909Y-3638229D01*
X35200908Y-3638228D01*
X35056183Y-3547291D01*
X34894849Y-3490837D01*
X34894844Y-3490836D01*
X34725004Y-3471701D01*
X34724996Y-3471701D01*
X34555155Y-3490836D01*
X34555150Y-3490837D01*
X34393816Y-3547291D01*
X34249091Y-3638228D01*
X34128227Y-3759092D01*
X34128226Y-3759094D01*
X34064993Y-3859728D01*
X34012659Y-3906018D01*
X33943605Y-3916666D01*
X33879757Y-3888291D01*
X33855007Y-3859728D01*
X33791773Y-3759094D01*
X33791772Y-3759092D01*
X33670908Y-3638228D01*
X33526183Y-3547291D01*
X33364849Y-3490837D01*
X33364844Y-3490836D01*
X33195004Y-3471701D01*
X33194996Y-3471701D01*
X33025155Y-3490836D01*
X33025150Y-3490837D01*
X32863816Y-3547291D01*
X32719091Y-3638228D01*
X32598228Y-3759091D01*
X32529994Y-3867685D01*
X32477659Y-3913976D01*
X32408605Y-3924624D01*
X32344757Y-3896249D01*
X32320006Y-3867685D01*
X32251771Y-3759091D01*
X32130908Y-3638228D01*
X31986183Y-3547291D01*
X31824849Y-3490837D01*
X31824844Y-3490836D01*
X31655004Y-3471701D01*
X31654996Y-3471701D01*
X31485155Y-3490836D01*
X31485150Y-3490837D01*
X31323816Y-3547291D01*
X31179091Y-3638228D01*
X31058228Y-3759091D01*
X30999994Y-3851770D01*
X30947659Y-3898061D01*
X30878605Y-3908709D01*
X30814757Y-3880334D01*
X30790006Y-3851770D01*
X30731771Y-3759091D01*
X30610908Y-3638228D01*
X30466183Y-3547291D01*
X30304849Y-3490837D01*
X30304844Y-3490836D01*
X30135004Y-3471701D01*
X30134996Y-3471701D01*
X29965155Y-3490836D01*
X29965150Y-3490837D01*
X29803816Y-3547291D01*
X29659091Y-3638228D01*
X29538228Y-3759091D01*
X29447291Y-3903816D01*
X29390837Y-4065150D01*
X29390836Y-4065155D01*
X29371701Y-4234996D01*
X29371701Y-4235003D01*
X29390837Y-4404847D01*
X29390837Y-4404849D01*
X29390838Y-4404850D01*
X29409648Y-4458609D01*
X29410586Y-4461288D01*
X29415746Y-4481203D01*
X29418835Y-4499147D01*
X29418835Y-4499149D01*
X29520466Y-4812900D01*
X29526500Y-4851111D01*
X29526500Y-5241054D01*
X29525969Y-5249151D01*
X29522628Y-5274527D01*
X29521250Y-5284999D01*
X29521250Y-5285003D01*
X29526132Y-5322089D01*
X29526134Y-5322105D01*
X29526500Y-5324884D01*
X29526500Y-5324885D01*
X29528401Y-5339327D01*
X29532433Y-5369946D01*
X29542162Y-5443852D01*
X29603473Y-5591871D01*
X29603476Y-5591877D01*
X29635214Y-5633237D01*
X29676523Y-5687072D01*
X29676525Y-5687074D01*
X29701013Y-5718987D01*
X29729698Y-5740998D01*
X29735794Y-5746343D01*
X33289445Y-9299994D01*
X36754066Y-12764615D01*
X36776819Y-12795901D01*
X36807788Y-12856545D01*
X36820746Y-12925202D01*
X36794529Y-12989967D01*
X36738308Y-13029981D01*
X36704291Y-13041884D01*
X36588817Y-13082290D01*
X36444091Y-13173228D01*
X36323228Y-13294091D01*
X36232289Y-13438820D01*
X36231359Y-13440750D01*
X36229437Y-13445238D01*
X36076820Y-13744096D01*
X36054067Y-13775382D01*
X29715801Y-20113649D01*
X29709698Y-20119000D01*
X29681013Y-20141012D01*
X29656522Y-20172929D01*
X29583476Y-20268123D01*
X29583474Y-20268126D01*
X29522161Y-20416149D01*
X29521892Y-20418197D01*
X29505957Y-20539241D01*
X29505955Y-20539254D01*
X29503434Y-20558410D01*
X29501250Y-20575000D01*
X29505739Y-20609101D01*
X29505969Y-20610843D01*
X29506500Y-20618945D01*
X29506500Y-20848888D01*
X29500466Y-20887099D01*
X29398836Y-21200849D01*
X29389518Y-21233194D01*
X29388477Y-21238535D01*
X29388090Y-21238459D01*
X29383463Y-21259066D01*
X29370838Y-21295149D01*
X29370836Y-21295156D01*
X29351701Y-21464996D01*
X29351701Y-21465003D01*
X19827962Y-21465003D01*
X19829583Y-21464532D01*
X19848621Y-21460590D01*
X19870064Y-21457882D01*
X19915834Y-21439760D01*
X19921348Y-21437873D01*
X19957451Y-21427384D01*
X19968600Y-21424145D01*
X19987196Y-21413146D01*
X20004664Y-21404589D01*
X20024756Y-21396635D01*
X20064582Y-21367698D01*
X20069441Y-21364506D01*
X20111807Y-21339453D01*
X20127090Y-21324168D01*
X20141873Y-21311542D01*
X20159357Y-21298841D01*
X20190731Y-21260914D01*
X20194645Y-21256613D01*
X22449543Y-19001715D01*
X22462214Y-18991566D01*
X22462068Y-18991389D01*
X22468074Y-18986419D01*
X22468080Y-18986416D01*
X22517945Y-18933314D01*
X22539927Y-18911333D01*
X22544495Y-18905442D01*
X22548282Y-18901008D01*
X22581972Y-18865133D01*
X22592380Y-18846200D01*
X22603059Y-18829942D01*
X22616304Y-18812868D01*
X22635852Y-18767691D01*
X22638409Y-18762472D01*
X22662124Y-18719337D01*
X22667495Y-18698413D01*
X22673796Y-18680009D01*
X22682380Y-18660176D01*
X22689054Y-18618031D01*
X22690078Y-18611569D01*
X22691263Y-18605844D01*
X22703500Y-18558188D01*
X22703500Y-18541581D01*
X22713794Y-18492114D01*
X22834557Y-18214524D01*
X22834557Y-18214523D01*
X22834561Y-18214514D01*
X22856015Y-18155603D01*
X22856756Y-18150537D01*
X22861515Y-18130187D01*
X22889365Y-18044475D01*
X22908229Y-17865000D01*
X22889365Y-17685525D01*
X22863202Y-17605003D01*
X22858608Y-17585751D01*
X22856244Y-17570562D01*
X22856243Y-17570553D01*
X22708936Y-17089554D01*
X22703500Y-17053243D01*
X22703500Y-15866755D01*
X22708936Y-15830444D01*
X22718897Y-15797921D01*
X22856243Y-15349446D01*
X22864137Y-15320719D01*
X22864138Y-15320707D01*
X22865102Y-15315480D01*
X22865358Y-15315527D01*
X22869507Y-15295590D01*
X22889365Y-15234475D01*
X22908229Y-15055000D01*
X22889365Y-14875525D01*
X22833599Y-14703893D01*
X22743367Y-14547607D01*
X22696071Y-14495079D01*
X22622618Y-14413500D01*
X22622615Y-14413498D01*
X22622614Y-14413497D01*
X22622613Y-14413496D01*
X22476615Y-14307422D01*
X22476614Y-14307421D01*
X22311757Y-14234021D01*
X22311751Y-14234019D01*
X22172751Y-14204474D01*
X22135232Y-14196500D01*
X21954768Y-14196500D01*
X21923825Y-14203076D01*
X21778248Y-14234019D01*
X21778242Y-14234021D01*
X21613386Y-14307421D01*
X21613381Y-14307424D01*
X21467388Y-14413494D01*
X21467381Y-14413500D01*
X21346632Y-14547608D01*
X21256400Y-14703894D01*
X21220578Y-14814147D01*
X21210566Y-14844962D01*
X21205431Y-14860765D01*
X21165994Y-14918440D01*
X21101635Y-14945639D01*
X21032789Y-14933725D01*
X20981313Y-14886481D01*
X20963500Y-14822447D01*
X20963500Y-8296758D01*
X20968935Y-8260448D01*
X20982958Y-8214658D01*
X21101467Y-7827688D01*
X21110510Y-7805860D01*
X21322796Y-7406147D01*
X21344623Y-7376635D01*
X25531441Y-3189819D01*
X25592764Y-3156334D01*
X25619122Y-3153500D01*
X26465032Y-3153500D01*
X26510565Y-3162162D01*
X27123550Y-3404156D01*
X27140520Y-3409914D01*
X27171048Y-3420273D01*
X27172709Y-3420499D01*
X27191949Y-3424700D01*
X27280628Y-3451601D01*
X27307100Y-3459632D01*
X27323946Y-3461291D01*
X27495000Y-3478138D01*
X27682899Y-3459632D01*
X27863577Y-3404823D01*
X28030091Y-3315820D01*
X28176041Y-3196041D01*
X28295820Y-3050091D01*
X28384823Y-2883577D01*
X28390458Y-2865000D01*
X36921526Y-2865000D01*
X36941391Y-3117406D01*
X37000495Y-3363593D01*
X37097383Y-3597502D01*
X37229668Y-3813370D01*
X37229669Y-3813372D01*
X37229670Y-3813374D01*
X37229672Y-3813376D01*
X37394102Y-4005898D01*
X37586624Y-4170328D01*
X37586626Y-4170329D01*
X37586627Y-4170330D01*
X37586629Y-4170331D01*
X37802497Y-4302616D01*
X38036406Y-4399504D01*
X38036407Y-4399504D01*
X38036409Y-4399505D01*
X38282597Y-4458609D01*
X38535000Y-4478474D01*
X38787403Y-4458609D01*
X39033591Y-4399505D01*
X39267502Y-4302616D01*
X39483376Y-4170328D01*
X39675898Y-4005898D01*
X39840328Y-3813376D01*
X39972616Y-3597502D01*
X40069505Y-3363591D01*
X40128609Y-3117403D01*
X40148474Y-2865000D01*
X40128609Y-2612597D01*
X40069505Y-2366409D01*
X40069504Y-2366406D01*
X39972616Y-2132497D01*
X39840331Y-1916629D01*
X39840330Y-1916627D01*
X39840329Y-1916626D01*
X39840328Y-1916624D01*
X39675898Y-1724102D01*
X39483376Y-1559672D01*
X39483374Y-1559670D01*
X39483372Y-1559669D01*
X39483370Y-1559668D01*
X39267502Y-1427383D01*
X39033593Y-1330495D01*
X38787406Y-1271391D01*
X38535000Y-1251526D01*
X38282593Y-1271391D01*
X38036406Y-1330495D01*
X37802497Y-1427383D01*
X37586629Y-1559668D01*
X37586627Y-1559669D01*
X37394102Y-1724102D01*
X37229669Y-1916627D01*
X37229668Y-1916629D01*
X37097383Y-2132497D01*
X37000495Y-2366406D01*
X36941391Y-2612593D01*
X36921526Y-2865000D01*
X28390458Y-2865000D01*
X28439632Y-2702899D01*
X28458138Y-2515000D01*
X28439632Y-2327101D01*
X28384823Y-2146423D01*
X28377380Y-2132498D01*
X28295823Y-1979914D01*
X28295819Y-1979907D01*
X28176041Y-1833958D01*
X28030092Y-1714180D01*
X28030085Y-1714176D01*
X27863578Y-1625177D01*
X27682901Y-1570368D01*
X27495000Y-1551862D01*
X27307102Y-1570367D01*
X27170312Y-1611862D01*
X27163693Y-1613478D01*
X27147352Y-1616529D01*
X26518843Y-1829917D01*
X26478978Y-1836500D01*
X25381391Y-1836500D01*
X25365248Y-1834717D01*
X25365227Y-1834945D01*
X25357465Y-1834211D01*
X25357463Y-1834211D01*
X25284640Y-1836500D01*
X25253568Y-1836500D01*
X25253564Y-1836500D01*
X25253554Y-1836501D01*
X25246167Y-1837434D01*
X25240350Y-1837891D01*
X25191174Y-1839437D01*
X25191163Y-1839439D01*
X25170422Y-1845464D01*
X25151382Y-1849407D01*
X25129946Y-1852116D01*
X25129931Y-1852119D01*
X25084178Y-1870233D01*
X25078654Y-1872124D01*
X25031399Y-1885855D01*
X25012808Y-1896850D01*
X24995339Y-1905408D01*
X24975246Y-1913364D01*
X24975245Y-1913364D01*
X24975244Y-1913365D01*
X24950641Y-1931239D01*
X24935433Y-1942289D01*
X24930550Y-1945496D01*
X24888192Y-1970546D01*
X24872913Y-1985826D01*
X24858127Y-1998455D01*
X24840643Y-2011159D01*
X24840641Y-2011161D01*
X24840640Y-2011162D01*
X24809271Y-2049078D01*
X24805339Y-2053399D01*
X20413370Y-6445368D01*
X20383851Y-6467200D01*
X20186957Y-6571771D01*
X19939568Y-6703159D01*
X19929744Y-6708748D01*
X19909022Y-6720537D01*
X19908846Y-6720229D01*
X19896657Y-6727060D01*
X19873384Y-6737422D01*
X19727388Y-6843494D01*
X19727381Y-6843500D01*
X19606632Y-6977608D01*
X19516400Y-7133894D01*
X19460635Y-7305523D01*
X19448800Y-7418123D01*
X19441771Y-7485000D01*
X19460635Y-7664475D01*
X19480300Y-7725000D01*
X19486794Y-7744985D01*
X19491386Y-7764227D01*
X19493755Y-7779445D01*
X19641064Y-8260446D01*
X19646500Y-8296757D01*
X19646500Y-9933994D01*
X19626815Y-10001033D01*
X19574011Y-10046788D01*
X19504853Y-10056732D01*
X19498232Y-10055549D01*
X19394984Y-10045000D01*
X19390605Y-10045000D01*
X19383657Y-10044610D01*
X19345002Y-10040254D01*
X19344999Y-10040254D01*
X19306343Y-10044610D01*
X19299395Y-10045000D01*
X18215605Y-10045000D01*
X18208657Y-10044610D01*
X18170001Y-10040254D01*
X18169999Y-10040254D01*
X18131341Y-10044610D01*
X18124394Y-10045000D01*
X17245000Y-10045000D01*
X17245000Y-10691447D01*
X17582500Y-11028947D01*
X17783955Y-10827492D01*
X18070000Y-10827492D01*
X18108197Y-10880065D01*
X18154162Y-10895000D01*
X18185838Y-10895000D01*
X18231803Y-10880065D01*
X18270000Y-10827492D01*
X18270000Y-10762508D01*
X18231803Y-10709935D01*
X18185838Y-10695000D01*
X18154162Y-10695000D01*
X18108197Y-10709935D01*
X18070000Y-10762508D01*
X18070000Y-10827492D01*
X17783955Y-10827492D01*
X18082319Y-10529128D01*
X18143642Y-10495643D01*
X18213334Y-10500627D01*
X18257681Y-10529128D01*
X18757500Y-11028947D01*
X18958955Y-10827492D01*
X19245000Y-10827492D01*
X19283197Y-10880065D01*
X19329162Y-10895000D01*
X19360838Y-10895000D01*
X19406803Y-10880065D01*
X19445000Y-10827492D01*
X19445000Y-10762508D01*
X19406803Y-10709935D01*
X19360838Y-10695000D01*
X19329162Y-10695000D01*
X19283197Y-10709935D01*
X19245000Y-10762508D01*
X19245000Y-10827492D01*
X18958955Y-10827492D01*
X19257319Y-10529128D01*
X19318642Y-10495643D01*
X19388334Y-10500627D01*
X19432681Y-10529128D01*
X19610181Y-10706628D01*
X19643666Y-10767951D01*
X19646500Y-10794309D01*
X19646500Y-11150691D01*
X19626815Y-11217730D01*
X19574011Y-11263485D01*
X19504853Y-11273429D01*
X19441297Y-11244404D01*
X19434819Y-11238372D01*
X19345000Y-11148553D01*
X19198553Y-11295000D01*
X19345000Y-11441447D01*
X19434819Y-11351628D01*
X19496142Y-11318143D01*
X19565834Y-11323127D01*
X19621767Y-11364999D01*
X19646184Y-11430463D01*
X19646500Y-11439309D01*
X19646500Y-12150691D01*
X19626815Y-12217730D01*
X19574011Y-12263485D01*
X19504853Y-12273429D01*
X19441297Y-12244404D01*
X19434819Y-12238372D01*
X19345000Y-12148553D01*
X19198553Y-12295000D01*
X19345000Y-12441447D01*
X19434819Y-12351628D01*
X19496142Y-12318143D01*
X19565834Y-12323127D01*
X19621767Y-12364999D01*
X19646184Y-12430463D01*
X19646500Y-12439309D01*
X19646500Y-13150691D01*
X19626815Y-13217730D01*
X19574011Y-13263485D01*
X19504853Y-13273429D01*
X19441297Y-13244404D01*
X19434819Y-13238372D01*
X19345000Y-13148553D01*
X19198553Y-13295000D01*
X19345000Y-13441447D01*
X19434819Y-13351628D01*
X19496142Y-13318143D01*
X19565834Y-13323127D01*
X19621767Y-13364999D01*
X19646184Y-13430463D01*
X19646500Y-13439309D01*
X19646500Y-14150691D01*
X19626815Y-14217730D01*
X19574011Y-14263485D01*
X19504853Y-14273429D01*
X19441297Y-14244404D01*
X19434819Y-14238372D01*
X19345000Y-14148553D01*
X19198553Y-14295000D01*
X19345000Y-14441447D01*
X19434819Y-14351628D01*
X19496142Y-14318143D01*
X19565834Y-14323127D01*
X19621767Y-14364999D01*
X19646184Y-14430463D01*
X19646500Y-14439309D01*
X19646500Y-14795691D01*
X19626815Y-14862730D01*
X19610181Y-14883372D01*
X19432681Y-15060872D01*
X19371358Y-15094357D01*
X19301666Y-15089373D01*
X19257319Y-15060872D01*
X19023939Y-14827492D01*
X19245000Y-14827492D01*
X19283197Y-14880065D01*
X19329162Y-14895000D01*
X19360838Y-14895000D01*
X19406803Y-14880065D01*
X19445000Y-14827492D01*
X19445000Y-14762508D01*
X19406803Y-14709935D01*
X19360838Y-14695000D01*
X19329162Y-14695000D01*
X19283197Y-14709935D01*
X19245000Y-14762508D01*
X19245000Y-14827492D01*
X19023939Y-14827492D01*
X18757500Y-14561053D01*
X18257681Y-15060872D01*
X18196358Y-15094357D01*
X18126666Y-15089373D01*
X18082319Y-15060872D01*
X17848939Y-14827492D01*
X18070000Y-14827492D01*
X18108197Y-14880065D01*
X18154162Y-14895000D01*
X18185838Y-14895000D01*
X18231803Y-14880065D01*
X18270000Y-14827492D01*
X18270000Y-14762508D01*
X18231803Y-14709935D01*
X18185838Y-14695000D01*
X18154162Y-14695000D01*
X18108197Y-14709935D01*
X18070000Y-14762508D01*
X18070000Y-14827492D01*
X17848939Y-14827492D01*
X17582500Y-14561053D01*
X17245000Y-14898552D01*
X17245000Y-15544999D01*
X18124388Y-15544999D01*
X18131336Y-15545389D01*
X18169999Y-15549746D01*
X18170001Y-15549746D01*
X18208664Y-15545389D01*
X18215612Y-15544999D01*
X19299386Y-15544999D01*
X19306334Y-15545389D01*
X19344998Y-15549746D01*
X19345001Y-15549746D01*
X19383665Y-15545389D01*
X19390613Y-15544999D01*
X19394970Y-15544999D01*
X19394986Y-15544998D01*
X19504432Y-15533818D01*
X19504589Y-15535357D01*
X19566204Y-15539962D01*
X19622004Y-15582012D01*
X19646212Y-15647554D01*
X19646500Y-15656005D01*
X19646500Y-16510877D01*
X19626815Y-16577916D01*
X19610181Y-16598558D01*
X17425934Y-18782805D01*
X17364611Y-18816290D01*
X17294919Y-18811306D01*
X17238986Y-18769434D01*
X17214569Y-18703970D01*
X17220322Y-18656805D01*
X17232920Y-18618033D01*
X17232921Y-18618031D01*
X17251785Y-18438556D01*
X17232921Y-18259081D01*
X17177155Y-18087449D01*
X17086923Y-17931163D01*
X17039627Y-17878635D01*
X16966174Y-17797056D01*
X16966171Y-17797054D01*
X16966170Y-17797053D01*
X16966169Y-17797052D01*
X16820171Y-17690978D01*
X16820170Y-17690977D01*
X16655313Y-17617577D01*
X16655307Y-17617575D01*
X16505581Y-17585751D01*
X16478788Y-17580056D01*
X16298324Y-17580056D01*
X16271531Y-17585751D01*
X16121804Y-17617575D01*
X16121798Y-17617577D01*
X15956942Y-17690977D01*
X15956937Y-17690980D01*
X15810944Y-17797050D01*
X15810937Y-17797056D01*
X15690188Y-17931164D01*
X15599956Y-18087450D01*
X15544191Y-18259079D01*
X15539485Y-18303851D01*
X15525327Y-18438556D01*
X15534446Y-18525313D01*
X15544191Y-18618031D01*
X15544193Y-18618037D01*
X15571874Y-18703234D01*
X15576250Y-18721128D01*
X15579148Y-18738483D01*
X15730289Y-19213236D01*
X15730657Y-19214390D01*
X15736500Y-19252006D01*
X15736500Y-19589065D01*
X15727527Y-19635377D01*
X15597370Y-19958655D01*
X15554072Y-20013491D01*
X15528655Y-20027370D01*
X15205377Y-20157527D01*
X15159065Y-20166500D01*
X13639122Y-20166500D01*
X13572083Y-20146815D01*
X13551441Y-20130181D01*
X10629819Y-17208559D01*
X10596334Y-17147236D01*
X10593500Y-17120878D01*
X10593500Y-15475267D01*
X14318284Y-15475267D01*
X14318630Y-15476784D01*
X14319020Y-15476971D01*
X14319332Y-15476304D01*
X14325882Y-15479358D01*
X14403115Y-15504951D01*
X14477050Y-15530821D01*
X14483847Y-15532373D01*
X14483703Y-15533002D01*
X14485613Y-15533419D01*
X14485684Y-15533089D01*
X14492301Y-15534505D01*
X14595020Y-15544998D01*
X14599374Y-15544998D01*
X14606339Y-15545389D01*
X14645000Y-15549745D01*
X14683658Y-15545389D01*
X14690607Y-15544999D01*
X15774391Y-15544999D01*
X15781339Y-15545389D01*
X15820000Y-15549746D01*
X15858661Y-15545389D01*
X15865609Y-15544999D01*
X16745000Y-15544999D01*
X16745000Y-14898553D01*
X16673939Y-14827492D01*
X16895000Y-14827492D01*
X16933197Y-14880065D01*
X16979162Y-14895000D01*
X17010838Y-14895000D01*
X17056803Y-14880065D01*
X17095000Y-14827492D01*
X17095000Y-14762508D01*
X17056803Y-14709935D01*
X17010838Y-14695000D01*
X16979162Y-14695000D01*
X16933197Y-14709935D01*
X16895000Y-14762508D01*
X16895000Y-14827492D01*
X16673939Y-14827492D01*
X16407500Y-14561053D01*
X15907681Y-15060872D01*
X15846358Y-15094357D01*
X15776666Y-15089373D01*
X15732319Y-15060872D01*
X15498939Y-14827492D01*
X15720000Y-14827492D01*
X15758197Y-14880065D01*
X15804162Y-14895000D01*
X15835838Y-14895000D01*
X15881803Y-14880065D01*
X15920000Y-14827492D01*
X15920000Y-14762508D01*
X15881803Y-14709935D01*
X15835838Y-14695000D01*
X15804162Y-14695000D01*
X15758197Y-14709935D01*
X15720000Y-14762508D01*
X15720000Y-14827492D01*
X15498939Y-14827492D01*
X15232500Y-14561053D01*
X14645000Y-15148553D01*
X14318284Y-15475267D01*
X10593500Y-15475267D01*
X10593500Y-14795000D01*
X13890254Y-14795000D01*
X13894609Y-14833670D01*
X13894999Y-14840599D01*
X13895000Y-14844962D01*
X13895000Y-14844966D01*
X13905493Y-14947688D01*
X13906911Y-14954310D01*
X13906607Y-14954374D01*
X13907032Y-14956301D01*
X13907629Y-14956165D01*
X13909176Y-14962946D01*
X13935048Y-15036884D01*
X13960642Y-15114122D01*
X13963692Y-15120662D01*
X13963098Y-15120938D01*
X13963311Y-15121390D01*
X13964731Y-15121714D01*
X14258955Y-14827492D01*
X14545000Y-14827492D01*
X14583197Y-14880065D01*
X14629162Y-14895000D01*
X14660838Y-14895000D01*
X14706803Y-14880065D01*
X14745000Y-14827492D01*
X14745000Y-14762508D01*
X14706803Y-14709935D01*
X14660838Y-14695000D01*
X14629162Y-14695000D01*
X14583197Y-14709935D01*
X14545000Y-14762508D01*
X14545000Y-14827492D01*
X14258955Y-14827492D01*
X14291447Y-14795000D01*
X13997290Y-14500843D01*
X13963805Y-14439520D01*
X13968789Y-14369828D01*
X13997290Y-14325481D01*
X14027771Y-14295000D01*
X14498553Y-14295000D01*
X14645000Y-14441447D01*
X14791447Y-14295000D01*
X15673553Y-14295000D01*
X15820000Y-14441447D01*
X15966447Y-14295000D01*
X18023553Y-14295000D01*
X18170000Y-14441447D01*
X18316447Y-14295000D01*
X18170000Y-14148553D01*
X18023553Y-14295000D01*
X15966447Y-14295000D01*
X15820000Y-14148553D01*
X15673553Y-14295000D01*
X14791447Y-14295000D01*
X14645000Y-14148553D01*
X14498553Y-14295000D01*
X14027771Y-14295000D01*
X13997290Y-14264519D01*
X13963805Y-14203196D01*
X13968789Y-14133504D01*
X13997290Y-14089157D01*
X14258955Y-13827492D01*
X14545000Y-13827492D01*
X14583197Y-13880065D01*
X14629162Y-13895000D01*
X14660838Y-13895000D01*
X14706803Y-13880065D01*
X14745000Y-13827492D01*
X14745000Y-13795000D01*
X14998553Y-13795000D01*
X15232500Y-14028947D01*
X15433955Y-13827492D01*
X15720000Y-13827492D01*
X15758197Y-13880065D01*
X15804162Y-13895000D01*
X15835838Y-13895000D01*
X15881803Y-13880065D01*
X15920000Y-13827492D01*
X15920000Y-13795000D01*
X16173553Y-13795000D01*
X16407500Y-14028947D01*
X16608955Y-13827492D01*
X16895000Y-13827492D01*
X16933197Y-13880065D01*
X16979162Y-13895000D01*
X17010838Y-13895000D01*
X17056803Y-13880065D01*
X17095000Y-13827492D01*
X17095000Y-13795000D01*
X17348553Y-13795000D01*
X17582500Y-14028947D01*
X17783955Y-13827492D01*
X18070000Y-13827492D01*
X18108197Y-13880065D01*
X18154162Y-13895000D01*
X18185838Y-13895000D01*
X18231803Y-13880065D01*
X18270000Y-13827492D01*
X18270000Y-13795000D01*
X18523553Y-13795000D01*
X18757500Y-14028947D01*
X18958955Y-13827492D01*
X19245000Y-13827492D01*
X19283197Y-13880065D01*
X19329162Y-13895000D01*
X19360838Y-13895000D01*
X19406803Y-13880065D01*
X19445000Y-13827492D01*
X19445000Y-13762508D01*
X19406803Y-13709935D01*
X19360838Y-13695000D01*
X19329162Y-13695000D01*
X19283197Y-13709935D01*
X19245000Y-13762508D01*
X19245000Y-13827492D01*
X18958955Y-13827492D01*
X18991447Y-13795000D01*
X18757500Y-13561053D01*
X18523553Y-13795000D01*
X18270000Y-13795000D01*
X18270000Y-13762508D01*
X18231803Y-13709935D01*
X18185838Y-13695000D01*
X18154162Y-13695000D01*
X18108197Y-13709935D01*
X18070000Y-13762508D01*
X18070000Y-13827492D01*
X17783955Y-13827492D01*
X17816447Y-13795000D01*
X17582500Y-13561053D01*
X17348553Y-13795000D01*
X17095000Y-13795000D01*
X17095000Y-13762508D01*
X17056803Y-13709935D01*
X17010838Y-13695000D01*
X16979162Y-13695000D01*
X16933197Y-13709935D01*
X16895000Y-13762508D01*
X16895000Y-13827492D01*
X16608955Y-13827492D01*
X16641447Y-13795000D01*
X16407500Y-13561053D01*
X16173553Y-13795000D01*
X15920000Y-13795000D01*
X15920000Y-13762508D01*
X15881803Y-13709935D01*
X15835838Y-13695000D01*
X15804162Y-13695000D01*
X15758197Y-13709935D01*
X15720000Y-13762508D01*
X15720000Y-13827492D01*
X15433955Y-13827492D01*
X15466447Y-13795000D01*
X15232500Y-13561053D01*
X14998553Y-13795000D01*
X14745000Y-13795000D01*
X14745000Y-13762508D01*
X14706803Y-13709935D01*
X14660838Y-13695000D01*
X14629162Y-13695000D01*
X14583197Y-13709935D01*
X14545000Y-13762508D01*
X14545000Y-13827492D01*
X14258955Y-13827492D01*
X14291447Y-13795000D01*
X13997290Y-13500843D01*
X13963805Y-13439520D01*
X13968789Y-13369828D01*
X13997290Y-13325481D01*
X14027771Y-13295000D01*
X14498553Y-13295000D01*
X14645000Y-13441447D01*
X14791447Y-13295000D01*
X15673553Y-13295000D01*
X15820000Y-13441447D01*
X15966447Y-13295000D01*
X18023553Y-13295000D01*
X18170000Y-13441447D01*
X18316447Y-13295000D01*
X18170000Y-13148553D01*
X18023553Y-13295000D01*
X15966447Y-13295000D01*
X15820000Y-13148553D01*
X15673553Y-13295000D01*
X14791447Y-13295000D01*
X14645000Y-13148553D01*
X14498553Y-13295000D01*
X14027771Y-13295000D01*
X13997290Y-13264519D01*
X13963805Y-13203196D01*
X13968789Y-13133504D01*
X13997290Y-13089156D01*
X14041446Y-13045000D01*
X13895000Y-13045000D01*
X13895000Y-13749383D01*
X13894610Y-13756329D01*
X13890254Y-13794999D01*
X13894610Y-13833670D01*
X13895000Y-13840616D01*
X13895000Y-14749381D01*
X13894610Y-14756326D01*
X13890254Y-14795000D01*
X10593500Y-14795000D01*
X10593500Y-12831441D01*
X10594198Y-12827492D01*
X14545000Y-12827492D01*
X14583197Y-12880065D01*
X14629162Y-12895000D01*
X14660838Y-12895000D01*
X14706803Y-12880065D01*
X14745000Y-12827492D01*
X15720000Y-12827492D01*
X15758197Y-12880065D01*
X15804162Y-12895000D01*
X15835838Y-12895000D01*
X15881803Y-12880065D01*
X15920000Y-12827492D01*
X16895000Y-12827492D01*
X16933197Y-12880065D01*
X16979162Y-12895000D01*
X17010838Y-12895000D01*
X17056803Y-12880065D01*
X17095000Y-12827492D01*
X17095000Y-12795000D01*
X17348553Y-12795000D01*
X17582500Y-13028947D01*
X17783955Y-12827492D01*
X18070000Y-12827492D01*
X18108197Y-12880065D01*
X18154162Y-12895000D01*
X18185838Y-12895000D01*
X18231803Y-12880065D01*
X18270000Y-12827492D01*
X18270000Y-12795000D01*
X18523553Y-12795000D01*
X18757500Y-13028947D01*
X18958955Y-12827492D01*
X19245000Y-12827492D01*
X19283197Y-12880065D01*
X19329162Y-12895000D01*
X19360838Y-12895000D01*
X19406803Y-12880065D01*
X19445000Y-12827492D01*
X19445000Y-12762508D01*
X19406803Y-12709935D01*
X19360838Y-12695000D01*
X19329162Y-12695000D01*
X19283197Y-12709935D01*
X19245000Y-12762508D01*
X19245000Y-12827492D01*
X18958955Y-12827492D01*
X18991447Y-12795000D01*
X18757500Y-12561053D01*
X18523553Y-12795000D01*
X18270000Y-12795000D01*
X18270000Y-12762508D01*
X18231803Y-12709935D01*
X18185838Y-12695000D01*
X18154162Y-12695000D01*
X18108197Y-12709935D01*
X18070000Y-12762508D01*
X18070000Y-12827492D01*
X17783955Y-12827492D01*
X17816447Y-12795000D01*
X17582500Y-12561053D01*
X17348553Y-12795000D01*
X17095000Y-12795000D01*
X17095000Y-12762508D01*
X17056803Y-12709935D01*
X17010838Y-12695000D01*
X16979162Y-12695000D01*
X16933197Y-12709935D01*
X16895000Y-12762508D01*
X16895000Y-12827492D01*
X15920000Y-12827492D01*
X15920000Y-12762508D01*
X15881803Y-12709935D01*
X15835838Y-12695000D01*
X15804162Y-12695000D01*
X15758197Y-12709935D01*
X15720000Y-12762508D01*
X15720000Y-12827492D01*
X14745000Y-12827492D01*
X14745000Y-12762508D01*
X14706803Y-12709935D01*
X14660838Y-12695000D01*
X14629162Y-12695000D01*
X14583197Y-12709935D01*
X14545000Y-12762508D01*
X14545000Y-12827492D01*
X10594198Y-12827492D01*
X10601022Y-12788910D01*
X10603966Y-12780849D01*
X10728599Y-12439519D01*
X10829259Y-12163844D01*
X10833439Y-12150691D01*
X10842428Y-12122411D01*
X10842546Y-12121445D01*
X10846951Y-12100629D01*
X10879632Y-11992899D01*
X10898138Y-11805000D01*
X10897153Y-11795000D01*
X13890254Y-11795000D01*
X13894610Y-11833657D01*
X13895000Y-11840605D01*
X13895000Y-12545000D01*
X14041447Y-12545000D01*
X14041447Y-12544999D01*
X13997290Y-12500842D01*
X13963805Y-12439519D01*
X13968789Y-12369827D01*
X13997290Y-12325479D01*
X14027769Y-12295000D01*
X14498553Y-12295000D01*
X14645000Y-12441447D01*
X14791447Y-12295000D01*
X15673553Y-12295000D01*
X15820000Y-12441447D01*
X15966447Y-12295000D01*
X18023553Y-12295000D01*
X18170000Y-12441447D01*
X18316447Y-12295000D01*
X18170000Y-12148553D01*
X18023553Y-12295000D01*
X15966447Y-12295000D01*
X15820000Y-12148553D01*
X15673553Y-12295000D01*
X14791447Y-12295000D01*
X14645000Y-12148553D01*
X14498553Y-12295000D01*
X14027769Y-12295000D01*
X14027770Y-12294999D01*
X13997290Y-12264519D01*
X13963805Y-12203196D01*
X13968789Y-12133504D01*
X13997290Y-12089157D01*
X14258955Y-11827492D01*
X14545000Y-11827492D01*
X14583197Y-11880065D01*
X14629162Y-11895000D01*
X14660838Y-11895000D01*
X14706803Y-11880065D01*
X14745000Y-11827492D01*
X14745000Y-11795000D01*
X14998553Y-11795000D01*
X15232500Y-12028947D01*
X15433955Y-11827492D01*
X15720000Y-11827492D01*
X15758197Y-11880065D01*
X15804162Y-11895000D01*
X15835838Y-11895000D01*
X15881803Y-11880065D01*
X15920000Y-11827492D01*
X15920000Y-11795000D01*
X16173553Y-11795000D01*
X16407500Y-12028947D01*
X16608955Y-11827492D01*
X16895000Y-11827492D01*
X16933197Y-11880065D01*
X16979162Y-11895000D01*
X17010838Y-11895000D01*
X17056803Y-11880065D01*
X17095000Y-11827492D01*
X17095000Y-11795000D01*
X17348553Y-11795000D01*
X17582500Y-12028947D01*
X17783955Y-11827492D01*
X18070000Y-11827492D01*
X18108197Y-11880065D01*
X18154162Y-11895000D01*
X18185838Y-11895000D01*
X18231803Y-11880065D01*
X18270000Y-11827492D01*
X18270000Y-11795000D01*
X18523553Y-11795000D01*
X18757500Y-12028947D01*
X18958955Y-11827492D01*
X19245000Y-11827492D01*
X19283197Y-11880065D01*
X19329162Y-11895000D01*
X19360838Y-11895000D01*
X19406803Y-11880065D01*
X19445000Y-11827492D01*
X19445000Y-11762508D01*
X19406803Y-11709935D01*
X19360838Y-11695000D01*
X19329162Y-11695000D01*
X19283197Y-11709935D01*
X19245000Y-11762508D01*
X19245000Y-11827492D01*
X18958955Y-11827492D01*
X18991447Y-11795000D01*
X18757500Y-11561053D01*
X18523553Y-11795000D01*
X18270000Y-11795000D01*
X18270000Y-11762508D01*
X18231803Y-11709935D01*
X18185838Y-11695000D01*
X18154162Y-11695000D01*
X18108197Y-11709935D01*
X18070000Y-11762508D01*
X18070000Y-11827492D01*
X17783955Y-11827492D01*
X17816447Y-11795000D01*
X17582500Y-11561053D01*
X17348553Y-11795000D01*
X17095000Y-11795000D01*
X17095000Y-11762508D01*
X17056803Y-11709935D01*
X17010838Y-11695000D01*
X16979162Y-11695000D01*
X16933197Y-11709935D01*
X16895000Y-11762508D01*
X16895000Y-11827492D01*
X16608955Y-11827492D01*
X16641447Y-11795000D01*
X16407500Y-11561053D01*
X16173553Y-11795000D01*
X15920000Y-11795000D01*
X15920000Y-11762508D01*
X15881803Y-11709935D01*
X15835838Y-11695000D01*
X15804162Y-11695000D01*
X15758197Y-11709935D01*
X15720000Y-11762508D01*
X15720000Y-11827492D01*
X15433955Y-11827492D01*
X15466447Y-11795000D01*
X15232500Y-11561053D01*
X14998553Y-11795000D01*
X14745000Y-11795000D01*
X14745000Y-11762508D01*
X14706803Y-11709935D01*
X14660838Y-11695000D01*
X14629162Y-11695000D01*
X14583197Y-11709935D01*
X14545000Y-11762508D01*
X14545000Y-11827492D01*
X14258955Y-11827492D01*
X14291447Y-11795000D01*
X13997290Y-11500843D01*
X13963805Y-11439520D01*
X13968789Y-11369828D01*
X13997290Y-11325481D01*
X14027771Y-11295000D01*
X14498553Y-11295000D01*
X14645000Y-11441447D01*
X14791447Y-11295000D01*
X15673553Y-11295000D01*
X15820000Y-11441447D01*
X15966447Y-11295000D01*
X18023553Y-11295000D01*
X18170000Y-11441447D01*
X18316447Y-11295000D01*
X18170000Y-11148553D01*
X18023553Y-11295000D01*
X15966447Y-11295000D01*
X15820000Y-11148553D01*
X15673553Y-11295000D01*
X14791447Y-11295000D01*
X14645000Y-11148553D01*
X14498553Y-11295000D01*
X14027771Y-11295000D01*
X13997290Y-11264519D01*
X13963805Y-11203196D01*
X13968789Y-11133504D01*
X13997290Y-11089157D01*
X14258955Y-10827492D01*
X14545000Y-10827492D01*
X14583197Y-10880065D01*
X14629162Y-10895000D01*
X14660838Y-10895000D01*
X14706803Y-10880065D01*
X14745000Y-10827492D01*
X14745000Y-10762508D01*
X14706803Y-10709935D01*
X14660838Y-10695000D01*
X14629162Y-10695000D01*
X14583197Y-10709935D01*
X14545000Y-10762508D01*
X14545000Y-10827492D01*
X14258955Y-10827492D01*
X14291447Y-10795000D01*
X14291447Y-10794999D01*
X13964732Y-10468284D01*
X13963313Y-10468608D01*
X13963101Y-10469057D01*
X13963694Y-10469334D01*
X13960641Y-10475882D01*
X13935048Y-10553115D01*
X13909178Y-10627047D01*
X13907629Y-10633837D01*
X13907031Y-10633700D01*
X13906606Y-10635625D01*
X13906910Y-10635690D01*
X13905494Y-10642303D01*
X13895000Y-10745015D01*
X13895000Y-10749395D01*
X13894610Y-10756343D01*
X13890254Y-10794999D01*
X13890254Y-10795000D01*
X13894610Y-10833656D01*
X13895000Y-10840604D01*
X13895000Y-11749393D01*
X13894610Y-11756340D01*
X13890254Y-11794997D01*
X13890254Y-11795000D01*
X10897153Y-11795000D01*
X10879632Y-11617101D01*
X10824823Y-11436423D01*
X10821637Y-11430463D01*
X10735823Y-11269914D01*
X10735819Y-11269907D01*
X10616041Y-11123958D01*
X10470092Y-11004180D01*
X10470085Y-11004176D01*
X10303578Y-10915177D01*
X10122901Y-10860368D01*
X9935000Y-10841862D01*
X9747098Y-10860368D01*
X9566421Y-10915177D01*
X9399914Y-11004176D01*
X9399907Y-11004180D01*
X9253958Y-11123958D01*
X9134180Y-11269907D01*
X9134176Y-11269914D01*
X9045177Y-11436421D01*
X8990368Y-11617099D01*
X8981942Y-11702650D01*
X8955781Y-11767437D01*
X8898747Y-11807796D01*
X8828946Y-11810913D01*
X8770858Y-11778177D01*
X8148940Y-11156259D01*
X8131659Y-11134600D01*
X7765655Y-10552727D01*
X7761557Y-10546367D01*
X7759607Y-10543340D01*
X7759606Y-10543339D01*
X7757027Y-10539336D01*
X7757124Y-10539273D01*
X7749834Y-10527900D01*
X7710820Y-10454909D01*
X7699772Y-10441447D01*
X7591041Y-10308958D01*
X7445092Y-10189180D01*
X7445085Y-10189176D01*
X7305809Y-10114732D01*
X14318284Y-10114732D01*
X14645000Y-10441447D01*
X15232500Y-11028947D01*
X15433955Y-10827492D01*
X15720000Y-10827492D01*
X15758197Y-10880065D01*
X15804162Y-10895000D01*
X15835838Y-10895000D01*
X15881803Y-10880065D01*
X15920000Y-10827492D01*
X15920000Y-10762508D01*
X15881803Y-10709935D01*
X15835838Y-10695000D01*
X15804162Y-10695000D01*
X15758197Y-10709935D01*
X15720000Y-10762508D01*
X15720000Y-10827492D01*
X15433955Y-10827492D01*
X15732319Y-10529128D01*
X15793642Y-10495643D01*
X15863334Y-10500627D01*
X15907681Y-10529128D01*
X16407500Y-11028947D01*
X16608954Y-10827492D01*
X16895000Y-10827492D01*
X16933197Y-10880065D01*
X16979162Y-10895000D01*
X17010838Y-10895000D01*
X17056803Y-10880065D01*
X17095000Y-10827492D01*
X17095000Y-10762508D01*
X17056803Y-10709935D01*
X17010838Y-10695000D01*
X16979162Y-10695000D01*
X16933197Y-10709935D01*
X16895000Y-10762508D01*
X16895000Y-10827492D01*
X16608954Y-10827492D01*
X16744999Y-10691447D01*
X16745000Y-10691446D01*
X16745000Y-10045000D01*
X15865617Y-10045000D01*
X15858671Y-10044610D01*
X15820000Y-10040254D01*
X15781330Y-10044610D01*
X15774384Y-10045000D01*
X14690617Y-10045000D01*
X14683671Y-10044610D01*
X14644998Y-10040254D01*
X14606328Y-10044609D01*
X14599399Y-10044999D01*
X14595037Y-10045000D01*
X14595033Y-10045000D01*
X14492309Y-10055493D01*
X14485688Y-10056911D01*
X14485622Y-10056607D01*
X14483700Y-10057031D01*
X14483837Y-10057629D01*
X14477047Y-10059178D01*
X14403115Y-10085048D01*
X14325882Y-10110641D01*
X14319334Y-10113694D01*
X14319057Y-10113101D01*
X14318608Y-10113313D01*
X14318284Y-10114732D01*
X7305809Y-10114732D01*
X7278578Y-10100177D01*
X7097901Y-10045368D01*
X6910000Y-10026862D01*
X6909999Y-10026862D01*
X6759653Y-10041669D01*
X6691007Y-10028650D01*
X6640297Y-9980585D01*
X6623500Y-9918266D01*
X6623500Y-7768945D01*
X6624031Y-7760843D01*
X6624876Y-7754429D01*
X6628750Y-7725000D01*
X6623766Y-7687148D01*
X6623765Y-7687129D01*
X6623065Y-7681813D01*
X6607838Y-7566150D01*
X6607837Y-7566148D01*
X6607837Y-7566146D01*
X6582950Y-7506063D01*
X6546526Y-7418128D01*
X6546523Y-7418123D01*
X6472235Y-7321308D01*
X6472215Y-7321284D01*
X6460121Y-7305523D01*
X6448987Y-7291013D01*
X6448985Y-7291011D01*
X6448984Y-7291010D01*
X6432939Y-7278699D01*
X6420293Y-7268995D01*
X6414203Y-7263654D01*
X5130930Y-5980381D01*
X5108177Y-5949095D01*
X4955550Y-5650214D01*
X4953637Y-5645744D01*
X4952711Y-5643821D01*
X4952709Y-5643818D01*
X4952709Y-5643817D01*
X4946048Y-5633217D01*
X4944291Y-5630237D01*
X4941911Y-5625931D01*
X4941229Y-5624919D01*
X4937963Y-5620348D01*
X4861771Y-5499091D01*
X4740908Y-5378228D01*
X4596183Y-5287291D01*
X4434849Y-5230837D01*
X4434844Y-5230836D01*
X4265004Y-5211701D01*
X4264996Y-5211701D01*
X4095155Y-5230836D01*
X4095150Y-5230837D01*
X3933816Y-5287291D01*
X3789091Y-5378228D01*
X3668228Y-5499091D01*
X3577291Y-5643816D01*
X3520837Y-5805150D01*
X3520836Y-5805155D01*
X3501701Y-5974996D01*
X3501701Y-5975003D01*
X3520836Y-6144844D01*
X3520837Y-6144849D01*
X3577291Y-6306183D01*
X3667657Y-6450000D01*
X3668229Y-6450909D01*
X3789091Y-6571771D01*
X3933817Y-6662709D01*
X3933821Y-6662710D01*
X3935747Y-6663638D01*
X3940221Y-6665553D01*
X3945376Y-6668185D01*
X3945377Y-6668186D01*
X4239097Y-6818178D01*
X4270381Y-6840930D01*
X4692770Y-7263319D01*
X4726255Y-7324642D01*
X4721271Y-7394334D01*
X4679399Y-7450267D01*
X4613935Y-7474684D01*
X4605089Y-7475000D01*
X4384000Y-7475000D01*
X4384000Y-8175000D01*
X3884000Y-8175000D01*
X3884000Y-7475000D01*
X3533287Y-7475000D01*
X3381661Y-7490418D01*
X3187618Y-7551299D01*
X3187608Y-7551304D01*
X3009784Y-7650005D01*
X3009783Y-7650005D01*
X2855469Y-7782478D01*
X2855468Y-7782479D01*
X2730981Y-7943304D01*
X2641411Y-8125906D01*
X2615754Y-8225000D01*
X3367889Y-8225000D01*
X3328390Y-8249457D01*
X3260799Y-8338962D01*
X3230105Y-8446840D01*
X3240454Y-8558521D01*
X3290448Y-8658922D01*
X3362931Y-8725000D01*
X2610634Y-8725000D01*
X2610931Y-8726946D01*
X2610933Y-8726952D01*
X2681562Y-8917657D01*
X2681565Y-8917664D01*
X2789149Y-9090267D01*
X2929264Y-9237668D01*
X2929266Y-9237669D01*
X3096196Y-9353857D01*
X3175882Y-9388052D01*
X3229726Y-9432578D01*
X3250950Y-9499146D01*
X3232815Y-9566621D01*
X3228288Y-9573511D01*
X3163028Y-9665963D01*
X3114654Y-9802074D01*
X3114654Y-9802077D01*
X3106707Y-9918266D01*
X3104796Y-9946199D01*
X3125246Y-10044610D01*
X3134186Y-10087634D01*
X3134187Y-10087636D01*
X3200645Y-10215893D01*
X3200649Y-10215899D01*
X3297720Y-10319836D01*
X3299245Y-10321469D01*
X3422672Y-10396526D01*
X3561772Y-10435500D01*
X3561773Y-10435500D01*
X3669950Y-10435500D01*
X3681502Y-10433911D01*
X3777111Y-10420771D01*
X3909609Y-10363219D01*
X4021665Y-10272054D01*
X4104971Y-10154037D01*
X4132962Y-10075278D01*
X4153345Y-10017925D01*
X4153345Y-10017923D01*
X4153346Y-10017921D01*
X4163204Y-9873801D01*
X4133814Y-9732366D01*
X4067354Y-9604105D01*
X4067351Y-9604102D01*
X4067350Y-9604100D01*
X3968755Y-9498531D01*
X3943571Y-9483216D01*
X3896519Y-9431564D01*
X3884000Y-9377268D01*
X3884000Y-8775000D01*
X4384000Y-8775000D01*
X4384000Y-9475000D01*
X4734713Y-9475000D01*
X4886338Y-9459581D01*
X5080381Y-9398700D01*
X5080391Y-9398695D01*
X5222322Y-9319917D01*
X5290491Y-9304594D01*
X5356122Y-9328557D01*
X5398379Y-9384200D01*
X5406500Y-9428336D01*
X5406500Y-10948888D01*
X5400466Y-10987099D01*
X5298836Y-11300849D01*
X5289518Y-11333194D01*
X5288477Y-11338535D01*
X5288090Y-11338459D01*
X5283463Y-11359066D01*
X5270838Y-11395149D01*
X5270836Y-11395156D01*
X5251701Y-11564996D01*
X5251701Y-11565003D01*
X5270836Y-11734844D01*
X5270837Y-11734849D01*
X5327291Y-11896183D01*
X5410712Y-12028947D01*
X5418229Y-12040909D01*
X5539091Y-12161771D01*
X5683817Y-12252709D01*
X5838414Y-12306805D01*
X5845150Y-12309162D01*
X5845155Y-12309163D01*
X6014996Y-12328299D01*
X6015000Y-12328299D01*
X6015004Y-12328299D01*
X6184844Y-12309163D01*
X6184847Y-12309162D01*
X6184850Y-12309162D01*
X6346183Y-12252709D01*
X6490909Y-12161771D01*
X6607987Y-12044692D01*
X6669306Y-12011210D01*
X6738998Y-12016194D01*
X6761687Y-12027414D01*
X6912720Y-12122415D01*
X7041145Y-12203196D01*
X7054600Y-12211659D01*
X7076259Y-12228940D01*
X8440181Y-13592862D01*
X8473666Y-13654185D01*
X8476500Y-13680543D01*
X8476500Y-18511372D01*
X8473404Y-18538907D01*
X8320759Y-19209170D01*
X8319879Y-19213236D01*
X8286448Y-19274589D01*
X8225155Y-19308129D01*
X8155459Y-19303206D01*
X8099488Y-19261385D01*
X8081647Y-19227939D01*
X8062710Y-19173818D01*
X7971771Y-19029091D01*
X7850908Y-18908228D01*
X7706183Y-18817290D01*
X7704243Y-18816356D01*
X7699779Y-18814446D01*
X7400901Y-18661819D01*
X7369615Y-18639066D01*
X6659819Y-17929270D01*
X6626334Y-17867947D01*
X6623500Y-17841589D01*
X6623500Y-15166108D01*
X6629534Y-15127897D01*
X6634855Y-15111472D01*
X6731163Y-14814149D01*
X6740480Y-14781805D01*
X6740481Y-14781787D01*
X6741522Y-14776460D01*
X6741913Y-14776536D01*
X6746534Y-14755933D01*
X6759162Y-14719850D01*
X6759281Y-14718792D01*
X6778299Y-14550003D01*
X6778299Y-14549996D01*
X6759163Y-14380155D01*
X6759162Y-14380150D01*
X6733713Y-14307421D01*
X6702709Y-14218817D01*
X6611771Y-14074091D01*
X6490909Y-13953229D01*
X6490908Y-13953228D01*
X6346183Y-13862291D01*
X6184849Y-13805837D01*
X6184844Y-13805836D01*
X6015004Y-13786701D01*
X6014996Y-13786701D01*
X5845155Y-13805836D01*
X5845150Y-13805837D01*
X5683816Y-13862291D01*
X5539091Y-13953228D01*
X5418228Y-14074091D01*
X5327291Y-14218816D01*
X5270837Y-14380150D01*
X5270836Y-14380155D01*
X5251701Y-14549996D01*
X5251701Y-14550003D01*
X5270837Y-14719847D01*
X5290586Y-14776288D01*
X5295746Y-14796203D01*
X5298835Y-14814147D01*
X5298835Y-14814149D01*
X5400466Y-15127900D01*
X5406500Y-15166111D01*
X5406500Y-16172111D01*
X5386815Y-16239150D01*
X5334011Y-16284905D01*
X5264853Y-16294849D01*
X5211663Y-16273886D01*
X5171804Y-16246143D01*
X4984907Y-16165940D01*
X4785690Y-16125000D01*
X4384000Y-16125000D01*
X4384000Y-16825000D01*
X3884000Y-16825000D01*
X3884000Y-16223024D01*
X3903685Y-16155985D01*
X3929742Y-16126839D01*
X4021665Y-16052054D01*
X4104971Y-15934037D01*
X4130810Y-15861332D01*
X4153345Y-15797925D01*
X4153345Y-15797923D01*
X4153346Y-15797921D01*
X4163204Y-15653801D01*
X4133814Y-15512366D01*
X4067354Y-15384105D01*
X4067351Y-15384102D01*
X4067350Y-15384100D01*
X3968754Y-15278530D01*
X3845330Y-15203475D01*
X3845329Y-15203474D01*
X3845328Y-15203474D01*
X3706228Y-15164500D01*
X3598051Y-15164500D01*
X3598050Y-15164500D01*
X3490889Y-15179229D01*
X3358389Y-15236781D01*
X3358389Y-15236782D01*
X3246338Y-15327943D01*
X3246333Y-15327948D01*
X3163028Y-15445963D01*
X3114654Y-15582074D01*
X3114654Y-15582077D01*
X3114654Y-15582079D01*
X3104796Y-15726199D01*
X3127334Y-15834658D01*
X3134186Y-15867634D01*
X3134187Y-15867636D01*
X3200645Y-15995893D01*
X3200649Y-15995899D01*
X3214188Y-16010396D01*
X3245559Y-16072827D01*
X3238197Y-16142308D01*
X3194439Y-16196778D01*
X3183741Y-16203450D01*
X3009784Y-16300004D01*
X3009783Y-16300005D01*
X2855469Y-16432478D01*
X2855468Y-16432479D01*
X2730981Y-16593304D01*
X2641411Y-16775906D01*
X2615754Y-16875000D01*
X3367889Y-16875000D01*
X3328390Y-16899457D01*
X3260799Y-16988962D01*
X3230105Y-17096840D01*
X3240454Y-17208521D01*
X3290448Y-17308922D01*
X3362931Y-17375000D01*
X2610634Y-17375000D01*
X1352246Y-17375000D01*
X550111Y-17375000D01*
X589610Y-17350543D01*
X657201Y-17261038D01*
X687895Y-17153160D01*
X677546Y-17041479D01*
X627552Y-16941078D01*
X555069Y-16875000D01*
X1357366Y-16875000D01*
X1357068Y-16873053D01*
X1357066Y-16873047D01*
X1286437Y-16682342D01*
X1286434Y-16682335D01*
X1178850Y-16509732D01*
X1038735Y-16362331D01*
X1038733Y-16362330D01*
X871804Y-16246143D01*
X684907Y-16165940D01*
X485690Y-16125000D01*
X184000Y-16125000D01*
X184000Y-16825000D01*
X-316000Y-16825000D01*
X-316000Y-16125000D01*
X-566713Y-16125000D01*
X-718339Y-16140418D01*
X-912382Y-16201299D01*
X-912392Y-16201304D01*
X-1090216Y-16300005D01*
X-1090217Y-16300005D01*
X-1244531Y-16432478D01*
X-1244532Y-16432479D01*
X-1369019Y-16593304D01*
X-1458589Y-16775906D01*
X-1484246Y-16875000D01*
X-682111Y-16875000D01*
X-721610Y-16899457D01*
X-789201Y-16988962D01*
X-819895Y-17096840D01*
X-809546Y-17208521D01*
X-759552Y-17308922D01*
X-687069Y-17375000D01*
X-1489366Y-17375000D01*
X-2004500Y-17375000D01*
X-2004500Y-13045000D01*
X3231701Y-13045000D01*
X3250836Y-13214844D01*
X3250837Y-13214849D01*
X3307291Y-13376183D01*
X3393989Y-13514162D01*
X3398229Y-13520909D01*
X3519091Y-13641771D01*
X3663817Y-13732709D01*
X3818117Y-13786701D01*
X3825150Y-13789162D01*
X3825155Y-13789163D01*
X3994996Y-13808299D01*
X3995000Y-13808299D01*
X3995004Y-13808299D01*
X4164844Y-13789163D01*
X4164847Y-13789162D01*
X4164850Y-13789162D01*
X4326183Y-13732709D01*
X4470909Y-13641771D01*
X4591771Y-13520909D01*
X4682709Y-13376183D01*
X4739162Y-13214850D01*
X4743852Y-13173229D01*
X4758299Y-13045000D01*
X4758299Y-13044996D01*
X4739163Y-12875157D01*
X4739161Y-12875149D01*
X4719413Y-12818711D01*
X4714251Y-12798789D01*
X4711164Y-12780855D01*
X4711163Y-12780849D01*
X4652001Y-12598208D01*
X4650070Y-12528367D01*
X4652002Y-12521788D01*
X4678027Y-12441447D01*
X4711163Y-12339149D01*
X4720480Y-12306805D01*
X4720480Y-12306798D01*
X4721522Y-12301460D01*
X4721913Y-12301536D01*
X4726534Y-12280933D01*
X4739162Y-12244850D01*
X4740955Y-12228940D01*
X4758299Y-12075003D01*
X4758299Y-12074996D01*
X4739163Y-11905155D01*
X4739162Y-11905150D01*
X4735610Y-11895000D01*
X4682709Y-11743817D01*
X4591771Y-11599091D01*
X4470909Y-11478229D01*
X4470908Y-11478228D01*
X4326183Y-11387291D01*
X4164849Y-11330837D01*
X4164844Y-11330836D01*
X3995004Y-11311701D01*
X3994996Y-11311701D01*
X3825155Y-11330836D01*
X3825150Y-11330837D01*
X3663816Y-11387291D01*
X3519091Y-11478228D01*
X3398228Y-11599091D01*
X3307291Y-11743816D01*
X3250837Y-11905150D01*
X3250836Y-11905155D01*
X3231701Y-12074996D01*
X3231701Y-12075003D01*
X3250837Y-12244847D01*
X3250837Y-12244849D01*
X3250838Y-12244850D01*
X3257358Y-12263485D01*
X3270586Y-12301288D01*
X3275746Y-12321203D01*
X3278836Y-12339151D01*
X3296458Y-12393554D01*
X3337995Y-12521789D01*
X3339926Y-12591632D01*
X3337995Y-12598211D01*
X3278836Y-12780849D01*
X3269518Y-12813194D01*
X3268477Y-12818535D01*
X3268090Y-12818459D01*
X3263463Y-12839066D01*
X3250838Y-12875149D01*
X3250836Y-12875156D01*
X3231701Y-13044996D01*
X3231701Y-13045000D01*
X-2004500Y-13045000D01*
X-2004500Y-8725000D01*
X-1489366Y-8725000D01*
X-1489069Y-8726946D01*
X-1489067Y-8726952D01*
X-1418438Y-8917657D01*
X-1418435Y-8917664D01*
X-1310851Y-9090267D01*
X-1170736Y-9237668D01*
X-1170734Y-9237669D01*
X-1003805Y-9353856D01*
X-816908Y-9434059D01*
X-617690Y-9475000D01*
X-316000Y-9475000D01*
X-316000Y-8775000D01*
X184000Y-8775000D01*
X184000Y-9475000D01*
X434713Y-9475000D01*
X586338Y-9459581D01*
X780381Y-9398700D01*
X780391Y-9398695D01*
X958215Y-9299994D01*
X958216Y-9299994D01*
X1112530Y-9167521D01*
X1112531Y-9167520D01*
X1237018Y-9006695D01*
X1326588Y-8824093D01*
X1352246Y-8725000D01*
X550111Y-8725000D01*
X589610Y-8700543D01*
X657201Y-8611038D01*
X687895Y-8503160D01*
X677546Y-8391479D01*
X627552Y-8291078D01*
X555069Y-8225000D01*
X1357366Y-8225000D01*
X1357068Y-8223053D01*
X1357066Y-8223047D01*
X1286437Y-8032342D01*
X1286434Y-8032335D01*
X1178850Y-7859732D01*
X1038735Y-7712331D01*
X1038733Y-7712330D01*
X871804Y-7596143D01*
X684907Y-7515940D01*
X485690Y-7475000D01*
X184000Y-7475000D01*
X184000Y-8175000D01*
X-316000Y-8175000D01*
X-316000Y-7475000D01*
X-566713Y-7475000D01*
X-718339Y-7490418D01*
X-912382Y-7551299D01*
X-912392Y-7551304D01*
X-1090216Y-7650005D01*
X-1090217Y-7650005D01*
X-1244531Y-7782478D01*
X-1244532Y-7782479D01*
X-1369019Y-7943304D01*
X-1458589Y-8125906D01*
X-1484246Y-8225000D01*
X-682111Y-8225000D01*
X-721610Y-8249457D01*
X-789201Y-8338962D01*
X-819895Y-8446840D01*
X-809546Y-8558521D01*
X-759552Y-8658922D01*
X-687069Y-8725000D01*
X-1489366Y-8725000D01*
X-2004500Y-8725000D01*
X-2004500Y-2865000D01*
X-758474Y-2865000D01*
X-738609Y-3117406D01*
X-679505Y-3363593D01*
X-582617Y-3597502D01*
X-450332Y-3813370D01*
X-450331Y-3813372D01*
X-450330Y-3813374D01*
X-450328Y-3813376D01*
X-285898Y-4005898D01*
X-93376Y-4170328D01*
X-93374Y-4170329D01*
X-93373Y-4170330D01*
X-93371Y-4170331D01*
X122497Y-4302616D01*
X356406Y-4399504D01*
X356407Y-4399504D01*
X356409Y-4399505D01*
X602597Y-4458609D01*
X855000Y-4478474D01*
X1107403Y-4458609D01*
X1353591Y-4399505D01*
X1587502Y-4302616D01*
X1803376Y-4170328D01*
X1995898Y-4005898D01*
X2160328Y-3813376D01*
X2292616Y-3597502D01*
X2389505Y-3363591D01*
X2448609Y-3117403D01*
X2468474Y-2865000D01*
X2448609Y-2612597D01*
X2389505Y-2366409D01*
X2389504Y-2366406D01*
X2292616Y-2132497D01*
X2160331Y-1916629D01*
X2160330Y-1916627D01*
X2160329Y-1916626D01*
X2160328Y-1916624D01*
X1995898Y-1724102D01*
X1803376Y-1559672D01*
X1803374Y-1559670D01*
X1803372Y-1559669D01*
X1803370Y-1559668D01*
X1587502Y-1427383D01*
X1353593Y-1330495D01*
X1107406Y-1271391D01*
X855000Y-1251526D01*
X602593Y-1271391D01*
X356406Y-1330495D01*
X122497Y-1427383D01*
X-93371Y-1559668D01*
X-93373Y-1559669D01*
X-285898Y-1724102D01*
X-450331Y-1916627D01*
X-450332Y-1916629D01*
X-582617Y-2132497D01*
X-679505Y-2366406D01*
X-738609Y-2612593D01*
X-758474Y-2865000D01*
X-2004500Y-2865000D01*
X-2004500Y-2027035D01*
X-2004367Y-2022980D01*
X-2002385Y-1992725D01*
X-1999011Y-1941244D01*
X-1986014Y-1759536D01*
X-1984986Y-1751903D01*
X-1961847Y-1635579D01*
X-1956688Y-1611862D01*
X-1930467Y-1491323D01*
X-1928608Y-1484625D01*
X-1888185Y-1365543D01*
X-1838841Y-1233251D01*
X-1836367Y-1227520D01*
X-1779417Y-1112036D01*
X-1712821Y-990076D01*
X-1709981Y-985384D01*
X-1638437Y-878311D01*
X-1636572Y-875676D01*
X-1554709Y-766321D01*
X-1551756Y-762678D01*
X-1466497Y-665459D01*
X-1463802Y-662581D01*
X-1367419Y-566198D01*
X-1364541Y-563503D01*
X-1267322Y-478244D01*
X-1263679Y-475291D01*
X-1154324Y-393428D01*
X-1151689Y-391563D01*
X-1044616Y-320019D01*
X-1039924Y-317179D01*
X-917964Y-250583D01*
X-802480Y-193633D01*
X-796749Y-191159D01*
X-664457Y-141815D01*
X-545375Y-101392D01*
X-538677Y-99533D01*
X-394421Y-68153D01*
X-388272Y-66929D01*
X-278097Y-45014D01*
X-270464Y-43986D01*
X-88756Y-30989D01*
X-35789Y-27517D01*
X-7019Y-25633D01*
X-2964Y-25500D01*
X44087880Y-25500D01*
X44154919Y-45185D01*
G37*
%TD.AperFunction*%
%TD*%
%TA.AperFunction,Conductor*%
%TO.N,+5V*%
G36*
X7325588Y-10821563D02*
G01*
X7330992Y-10826133D01*
X7718201Y-11441717D01*
X7719705Y-11450545D01*
X7716570Y-11456220D01*
X7376220Y-11796570D01*
X7367947Y-11799997D01*
X7361717Y-11798201D01*
X6746133Y-11410992D01*
X6740955Y-11403686D01*
X6741543Y-11396635D01*
X6907437Y-10993798D01*
X6913754Y-10987455D01*
X7316635Y-10821544D01*
X7325588Y-10821563D01*
G37*
%TD.AperFunction*%
%TD*%
%TA.AperFunction,Conductor*%
%TO.N,+5V*%
G36*
X9483938Y-18608427D02*
G01*
X9487073Y-18614102D01*
X9648557Y-19323183D01*
X9647053Y-19332011D01*
X9641649Y-19336581D01*
X9239500Y-19504125D01*
X9230545Y-19504144D01*
X9230500Y-19504125D01*
X8828350Y-19336581D01*
X8822031Y-19330236D01*
X8821442Y-19323183D01*
X8982927Y-18614102D01*
X8988105Y-18606796D01*
X8994335Y-18605000D01*
X9475665Y-18605000D01*
X9483938Y-18608427D01*
G37*
%TD.AperFunction*%
%TD*%
%TA.AperFunction,Conductor*%
%TO.N,+3.3V*%
G36*
X22050189Y-17866163D02*
G01*
X22357398Y-17994365D01*
X22363712Y-18000713D01*
X22363689Y-18009668D01*
X22363620Y-18009829D01*
X22094279Y-18628950D01*
X22087836Y-18635170D01*
X22078883Y-18635012D01*
X22075277Y-18632556D01*
X21877166Y-18434445D01*
X21874411Y-18430080D01*
X21725347Y-18009395D01*
X21725814Y-18000452D01*
X21731884Y-17994683D01*
X22041208Y-17866161D01*
X22050163Y-17866153D01*
X22050189Y-17866163D01*
G37*
%TD.AperFunction*%
%TD*%
%TA.AperFunction,Conductor*%
%TO.N,+3.3V*%
G36*
X16393034Y-18439424D02*
G01*
X16634732Y-18540286D01*
X16702223Y-18568451D01*
X16708538Y-18574800D01*
X16708937Y-18582565D01*
X16547478Y-19128890D01*
X16541847Y-19135853D01*
X16536258Y-19137274D01*
X16253554Y-19137274D01*
X16245281Y-19133847D01*
X16242405Y-19129123D01*
X16242331Y-19128890D01*
X16068450Y-18582710D01*
X16069206Y-18573789D01*
X16075091Y-18568366D01*
X16384050Y-18439435D01*
X16393005Y-18439413D01*
X16393034Y-18439424D01*
G37*
%TD.AperFunction*%
%TD*%
%TA.AperFunction,Conductor*%
%TO.N,+3.3V*%
G36*
X16545371Y-19728427D02*
G01*
X16547951Y-19732330D01*
X16898814Y-20603795D01*
X16898725Y-20612750D01*
X16892457Y-20618967D01*
X16399496Y-20824128D01*
X16390541Y-20824143D01*
X16390504Y-20824128D01*
X15897542Y-20618967D01*
X15891221Y-20612624D01*
X15891185Y-20603796D01*
X16242049Y-19732330D01*
X16248317Y-19725936D01*
X16252902Y-19725000D01*
X16537098Y-19725000D01*
X16545371Y-19728427D01*
G37*
%TD.AperFunction*%
%TD*%
%TA.AperFunction,Conductor*%
%TO.N,+3.3V*%
G36*
X27321371Y-2103354D02*
G01*
X27326997Y-2109348D01*
X27494125Y-2510500D01*
X27494144Y-2519455D01*
X27494125Y-2519500D01*
X27327207Y-2920146D01*
X27320862Y-2926465D01*
X27312111Y-2926529D01*
X26606382Y-2647922D01*
X26599945Y-2641696D01*
X26598978Y-2637039D01*
X26598978Y-2353383D01*
X26602405Y-2345110D01*
X26606914Y-2342305D01*
X27312438Y-2102769D01*
X27321371Y-2103354D01*
G37*
%TD.AperFunction*%
%TD*%
%TA.AperFunction,Conductor*%
%TO.N,+3.3V*%
G36*
X20309478Y-7485868D02*
G01*
X20523891Y-7575344D01*
X20618571Y-7614855D01*
X20624886Y-7621204D01*
X20625252Y-7629079D01*
X20457534Y-8176726D01*
X20451835Y-8183633D01*
X20446347Y-8185000D01*
X20163653Y-8185000D01*
X20155380Y-8181573D01*
X20152466Y-8176726D01*
X19984747Y-7629079D01*
X19985601Y-7620165D01*
X19991427Y-7614855D01*
X20300494Y-7485879D01*
X20309449Y-7485857D01*
X20309478Y-7485868D01*
G37*
%TD.AperFunction*%
%TD*%
%TA.AperFunction,Conductor*%
%TO.N,+3.3V*%
G36*
X17485583Y-20662086D02*
G01*
X17492034Y-20668297D01*
X17493011Y-20672978D01*
X17493011Y-20957186D01*
X17489584Y-20965459D01*
X17485794Y-20967993D01*
X16616270Y-21328656D01*
X16607315Y-21328661D01*
X16600986Y-21322346D01*
X16395870Y-20829495D01*
X16395856Y-20820541D01*
X16395871Y-20820504D01*
X16601072Y-20327447D01*
X16607415Y-20321126D01*
X16616145Y-20321051D01*
X17485583Y-20662086D01*
G37*
%TD.AperFunction*%
%TD*%
%TA.AperFunction,Conductor*%
%TO.N,+3.3V*%
G36*
X16182750Y-20321274D02*
G01*
X16188967Y-20327542D01*
X16394128Y-20820504D01*
X16394143Y-20829459D01*
X16394128Y-20829496D01*
X16188967Y-21322457D01*
X16182624Y-21328778D01*
X16173795Y-21328814D01*
X15302330Y-20977951D01*
X15295936Y-20971683D01*
X15295000Y-20967098D01*
X15295000Y-20682901D01*
X15298427Y-20674628D01*
X15302326Y-20672050D01*
X16173796Y-20321185D01*
X16182750Y-20321274D01*
G37*
%TD.AperFunction*%
%TD*%
%TA.AperFunction,Conductor*%
%TO.N,+3.3V*%
G36*
X17024700Y-19914980D02*
G01*
X17225682Y-20115962D01*
X17229109Y-20124235D01*
X17228423Y-20128184D01*
X16907271Y-21023935D01*
X16901253Y-21030566D01*
X16892308Y-21031000D01*
X16891807Y-21030806D01*
X16788395Y-20988175D01*
X16398795Y-20827562D01*
X16392452Y-20821241D01*
X16392437Y-20821204D01*
X16188707Y-20327014D01*
X16188722Y-20318059D01*
X16194383Y-20312046D01*
X17011290Y-19912741D01*
X17020227Y-19912187D01*
X17024700Y-19914980D01*
G37*
%TD.AperFunction*%
%TD*%
%TA.AperFunction,Conductor*%
%TO.N,+3.3V*%
G36*
X20700026Y-6890078D02*
G01*
X20899921Y-7089973D01*
X20903348Y-7098246D01*
X20901981Y-7103734D01*
X20633331Y-7609573D01*
X20626424Y-7615272D01*
X20618549Y-7614906D01*
X20308808Y-7487563D01*
X20302460Y-7481249D01*
X20175093Y-7171449D01*
X20175116Y-7162495D01*
X20180425Y-7156668D01*
X20686267Y-6888017D01*
X20695179Y-6887164D01*
X20700026Y-6890078D01*
G37*
%TD.AperFunction*%
%TD*%
%TA.AperFunction,Conductor*%
%TO.N,+3.3V*%
G36*
X22049478Y-15055868D02*
G01*
X22263891Y-15145344D01*
X22358571Y-15184855D01*
X22364886Y-15191204D01*
X22365252Y-15199079D01*
X22197534Y-15746726D01*
X22191835Y-15753633D01*
X22186347Y-15755000D01*
X21903653Y-15755000D01*
X21895380Y-15751573D01*
X21892466Y-15746726D01*
X21724747Y-15199079D01*
X21725601Y-15190165D01*
X21731427Y-15184855D01*
X22040494Y-15055879D01*
X22049449Y-15055857D01*
X22049478Y-15055868D01*
G37*
%TD.AperFunction*%
%TD*%
%TA.AperFunction,Conductor*%
%TO.N,+3.3V*%
G36*
X22194620Y-17168427D02*
G01*
X22197534Y-17173274D01*
X22365252Y-17720920D01*
X22364398Y-17729834D01*
X22358571Y-17735144D01*
X22049506Y-17864119D01*
X22040551Y-17864142D01*
X22040494Y-17864119D01*
X21731428Y-17735144D01*
X21725113Y-17728795D01*
X21724747Y-17720922D01*
X21892466Y-17173273D01*
X21898165Y-17166367D01*
X21903653Y-17165000D01*
X22186347Y-17165000D01*
X22194620Y-17168427D01*
G37*
%TD.AperFunction*%
%TD*%
%TA.AperFunction,Conductor*%
%TO.N,+3.3V*%
G36*
X10340418Y-11972905D02*
G01*
X10346737Y-11979250D01*
X10346908Y-11987718D01*
X10087807Y-12697313D01*
X10081751Y-12703909D01*
X10076817Y-12705000D01*
X9793183Y-12705000D01*
X9784910Y-12701573D01*
X9782193Y-12697313D01*
X9523091Y-11987716D01*
X9523472Y-11978771D01*
X9529579Y-11972906D01*
X9930501Y-11805873D01*
X9939452Y-11805855D01*
X10340418Y-11972905D01*
G37*
%TD.AperFunction*%
%TD*%
%TA.AperFunction,Conductor*%
%TO.N,/USB_Data-*%
G36*
X4094764Y-12548427D02*
G01*
X4097622Y-12553095D01*
X4222652Y-12939087D01*
X4221941Y-12948013D01*
X4216038Y-12953485D01*
X3999517Y-13044109D01*
X3990563Y-13044142D01*
X3990483Y-13044109D01*
X3773961Y-12953485D01*
X3767652Y-12947129D01*
X3767347Y-12939088D01*
X3892378Y-12553095D01*
X3898188Y-12546280D01*
X3903509Y-12545000D01*
X4086491Y-12545000D01*
X4094764Y-12548427D01*
G37*
%TD.AperFunction*%
%TD*%
%TA.AperFunction,Conductor*%
%TO.N,/USB_Data-*%
G36*
X4216038Y-12166514D02*
G01*
X4222347Y-12172870D01*
X4222652Y-12180912D01*
X4097622Y-12566905D01*
X4091812Y-12573720D01*
X4086491Y-12575000D01*
X3903509Y-12575000D01*
X3895236Y-12571573D01*
X3892378Y-12566905D01*
X3767347Y-12180912D01*
X3768058Y-12171986D01*
X3773960Y-12166514D01*
X3990484Y-12075889D01*
X3999437Y-12075857D01*
X4216038Y-12166514D01*
G37*
%TD.AperFunction*%
%TD*%
%TA.AperFunction,Conductor*%
%TO.N,/INPUT1*%
G36*
X34946038Y-4326514D02*
G01*
X34952347Y-4332870D01*
X34952652Y-4340912D01*
X34827622Y-4726905D01*
X34821812Y-4733720D01*
X34816491Y-4735000D01*
X34633509Y-4735000D01*
X34625236Y-4731573D01*
X34622378Y-4726905D01*
X34497347Y-4340912D01*
X34498058Y-4331986D01*
X34503960Y-4326514D01*
X34720484Y-4235889D01*
X34729437Y-4235857D01*
X34946038Y-4326514D01*
G37*
%TD.AperFunction*%
%TD*%
%TA.AperFunction,Conductor*%
%TO.N,/INPUT1*%
G36*
X37329732Y-7954604D02*
G01*
X37691084Y-8139134D01*
X37696893Y-8145948D01*
X37696588Y-8153991D01*
X37607564Y-8371176D01*
X37601255Y-8377531D01*
X37601176Y-8377564D01*
X37383991Y-8466588D01*
X37375036Y-8466555D01*
X37369134Y-8461084D01*
X37184604Y-8099733D01*
X37183894Y-8090808D01*
X37186750Y-8086142D01*
X37316141Y-7956751D01*
X37324413Y-7953325D01*
X37329732Y-7954604D01*
G37*
%TD.AperFunction*%
%TD*%
%TA.AperFunction,Conductor*%
%TO.N,/INPUT2*%
G36*
X37309732Y-9424604D02*
G01*
X37671084Y-9609134D01*
X37676893Y-9615948D01*
X37676588Y-9623991D01*
X37587564Y-9841176D01*
X37581255Y-9847531D01*
X37581176Y-9847564D01*
X37363991Y-9936588D01*
X37355036Y-9936555D01*
X37349134Y-9931084D01*
X37164604Y-9569733D01*
X37163894Y-9560808D01*
X37166750Y-9556142D01*
X37296141Y-9426751D01*
X37304413Y-9423325D01*
X37309732Y-9424604D01*
G37*
%TD.AperFunction*%
%TD*%
%TA.AperFunction,Conductor*%
%TO.N,/INPUT2*%
G36*
X33416038Y-4326514D02*
G01*
X33422347Y-4332870D01*
X33422652Y-4340912D01*
X33297622Y-4726905D01*
X33291812Y-4733720D01*
X33286491Y-4735000D01*
X33103509Y-4735000D01*
X33095236Y-4731573D01*
X33092378Y-4726905D01*
X32967347Y-4340912D01*
X32968058Y-4331986D01*
X32973960Y-4326514D01*
X33190484Y-4235889D01*
X33199437Y-4235857D01*
X33416038Y-4326514D01*
G37*
%TD.AperFunction*%
%TD*%
%TA.AperFunction,Conductor*%
%TO.N,/INPUT3*%
G36*
X37339732Y-10874604D02*
G01*
X37701084Y-11059134D01*
X37706893Y-11065948D01*
X37706588Y-11073991D01*
X37617564Y-11291176D01*
X37611255Y-11297531D01*
X37611176Y-11297564D01*
X37393991Y-11386588D01*
X37385036Y-11386555D01*
X37379134Y-11381084D01*
X37194604Y-11019733D01*
X37193894Y-11010808D01*
X37196750Y-11006142D01*
X37326141Y-10876751D01*
X37334413Y-10873325D01*
X37339732Y-10874604D01*
G37*
%TD.AperFunction*%
%TD*%
%TA.AperFunction,Conductor*%
%TO.N,/INPUT3*%
G36*
X31876038Y-4326514D02*
G01*
X31882347Y-4332870D01*
X31882652Y-4340912D01*
X31757622Y-4726905D01*
X31751812Y-4733720D01*
X31746491Y-4735000D01*
X31563509Y-4735000D01*
X31555236Y-4731573D01*
X31552378Y-4726905D01*
X31427347Y-4340912D01*
X31428058Y-4331986D01*
X31433960Y-4326514D01*
X31650484Y-4235889D01*
X31659437Y-4235857D01*
X31876038Y-4326514D01*
G37*
%TD.AperFunction*%
%TD*%
%TA.AperFunction,Conductor*%
%TO.N,/INPUT4*%
G36*
X37344732Y-12349604D02*
G01*
X37706084Y-12534134D01*
X37711893Y-12540948D01*
X37711588Y-12548991D01*
X37622564Y-12766176D01*
X37616255Y-12772531D01*
X37616176Y-12772564D01*
X37398991Y-12861588D01*
X37390036Y-12861555D01*
X37384134Y-12856084D01*
X37199604Y-12494733D01*
X37198894Y-12485808D01*
X37201750Y-12481142D01*
X37331141Y-12351751D01*
X37339413Y-12348325D01*
X37344732Y-12349604D01*
G37*
%TD.AperFunction*%
%TD*%
%TA.AperFunction,Conductor*%
%TO.N,/INPUT4*%
G36*
X30356038Y-4326514D02*
G01*
X30362347Y-4332870D01*
X30362652Y-4340912D01*
X30237622Y-4726905D01*
X30231812Y-4733720D01*
X30226491Y-4735000D01*
X30043509Y-4735000D01*
X30035236Y-4731573D01*
X30032378Y-4726905D01*
X29907347Y-4340912D01*
X29908058Y-4331986D01*
X29913960Y-4326514D01*
X30130484Y-4235889D01*
X30139437Y-4235857D01*
X30356038Y-4326514D01*
G37*
%TD.AperFunction*%
%TD*%
%TA.AperFunction,Conductor*%
%TO.N,/INPUT5*%
G36*
X30214764Y-20968427D02*
G01*
X30217622Y-20973095D01*
X30342652Y-21359087D01*
X30341941Y-21368013D01*
X30336038Y-21373485D01*
X30119517Y-21464109D01*
X30110563Y-21464142D01*
X30110483Y-21464109D01*
X29893961Y-21373485D01*
X29887652Y-21367129D01*
X29887347Y-21359088D01*
X30012378Y-20973095D01*
X30018188Y-20966280D01*
X30023509Y-20965000D01*
X30206491Y-20965000D01*
X30214764Y-20968427D01*
G37*
%TD.AperFunction*%
%TD*%
%TA.AperFunction,Conductor*%
%TO.N,/INPUT5*%
G36*
X36698988Y-13678410D02*
G01*
X36916177Y-13767436D01*
X36922531Y-13773744D01*
X36922564Y-13773823D01*
X37011588Y-13991008D01*
X37011555Y-13999963D01*
X37006083Y-14005866D01*
X36644734Y-14190394D01*
X36635808Y-14191105D01*
X36631140Y-14188247D01*
X36501752Y-14058859D01*
X36498325Y-14050586D01*
X36499604Y-14045268D01*
X36684135Y-13683914D01*
X36690948Y-13678106D01*
X36698988Y-13678410D01*
G37*
%TD.AperFunction*%
%TD*%
%TA.AperFunction,Conductor*%
%TO.N,/INPUT6*%
G36*
X31754764Y-20968427D02*
G01*
X31757622Y-20973095D01*
X31882652Y-21359087D01*
X31881941Y-21368013D01*
X31876038Y-21373485D01*
X31659517Y-21464109D01*
X31650563Y-21464142D01*
X31650483Y-21464109D01*
X31433961Y-21373485D01*
X31427652Y-21367129D01*
X31427347Y-21359088D01*
X31552378Y-20973095D01*
X31558188Y-20966280D01*
X31563509Y-20965000D01*
X31746491Y-20965000D01*
X31754764Y-20968427D01*
G37*
%TD.AperFunction*%
%TD*%
%TA.AperFunction,Conductor*%
%TO.N,/INPUT6*%
G36*
X37454073Y-14328445D02*
G01*
X37671175Y-14417435D01*
X37677531Y-14423744D01*
X37677564Y-14423824D01*
X37766618Y-14641083D01*
X37766585Y-14650037D01*
X37761190Y-14655900D01*
X37402761Y-14842310D01*
X37393840Y-14843087D01*
X37389090Y-14840203D01*
X37259696Y-14710809D01*
X37256269Y-14702536D01*
X37257505Y-14697303D01*
X37396538Y-14419293D01*
X37439174Y-14334037D01*
X37445938Y-14328172D01*
X37454073Y-14328445D01*
G37*
%TD.AperFunction*%
%TD*%
%TA.AperFunction,Conductor*%
%TO.N,/INPUT7*%
G36*
X33284764Y-20978427D02*
G01*
X33287622Y-20983095D01*
X33412652Y-21369087D01*
X33411941Y-21378013D01*
X33406038Y-21383485D01*
X33189517Y-21474109D01*
X33180563Y-21474142D01*
X33180483Y-21474109D01*
X32963961Y-21383485D01*
X32957652Y-21377129D01*
X32957347Y-21369088D01*
X33082378Y-20983095D01*
X33088188Y-20976280D01*
X33093509Y-20975000D01*
X33276491Y-20975000D01*
X33284764Y-20978427D01*
G37*
%TD.AperFunction*%
%TD*%
%TA.AperFunction,Conductor*%
%TO.N,/INPUT7*%
G36*
X37358988Y-15738410D02*
G01*
X37576177Y-15827436D01*
X37582531Y-15833744D01*
X37582564Y-15833823D01*
X37671588Y-16051008D01*
X37671555Y-16059963D01*
X37666083Y-16065866D01*
X37304734Y-16250394D01*
X37295808Y-16251105D01*
X37291140Y-16248247D01*
X37161752Y-16118859D01*
X37158325Y-16110586D01*
X37159604Y-16105268D01*
X37344135Y-15743914D01*
X37350948Y-15738106D01*
X37358988Y-15738410D01*
G37*
%TD.AperFunction*%
%TD*%
%TA.AperFunction,Conductor*%
%TO.N,/INPUT8*%
G36*
X37413842Y-17253351D02*
G01*
X37631175Y-17342435D01*
X37637531Y-17348744D01*
X37637564Y-17348824D01*
X37726518Y-17565839D01*
X37726485Y-17574793D01*
X37720837Y-17580784D01*
X37355659Y-17759593D01*
X37346722Y-17760153D01*
X37342241Y-17757358D01*
X37212842Y-17627959D01*
X37209415Y-17619686D01*
X37210776Y-17614210D01*
X37231030Y-17575970D01*
X37399066Y-17258700D01*
X37405966Y-17252994D01*
X37413842Y-17253351D01*
G37*
%TD.AperFunction*%
%TD*%
%TA.AperFunction,Conductor*%
%TO.N,/INPUT8*%
G36*
X34814764Y-20978427D02*
G01*
X34817622Y-20983095D01*
X34942652Y-21369087D01*
X34941941Y-21378013D01*
X34936038Y-21383485D01*
X34719517Y-21474109D01*
X34710563Y-21474142D01*
X34710483Y-21474109D01*
X34493961Y-21383485D01*
X34487652Y-21377129D01*
X34487347Y-21369088D01*
X34612378Y-20983095D01*
X34618188Y-20976280D01*
X34623509Y-20975000D01*
X34806491Y-20975000D01*
X34814764Y-20978427D01*
G37*
%TD.AperFunction*%
%TD*%
%TA.AperFunction,Conductor*%
%TO.N,Net-(USB1-CC1)*%
G36*
X6114764Y-11068427D02*
G01*
X6117622Y-11073095D01*
X6242652Y-11459087D01*
X6241941Y-11468013D01*
X6236038Y-11473485D01*
X6019517Y-11564109D01*
X6010563Y-11564142D01*
X6010483Y-11564109D01*
X5793961Y-11473485D01*
X5787652Y-11467129D01*
X5787347Y-11459088D01*
X5912378Y-11073095D01*
X5918188Y-11066280D01*
X5923509Y-11065000D01*
X6106491Y-11065000D01*
X6114764Y-11068427D01*
G37*
%TD.AperFunction*%
%TD*%
%TA.AperFunction,Conductor*%
%TO.N,Net-(USB1-CC1)*%
G36*
X4494963Y-5883444D02*
G01*
X4500866Y-5888916D01*
X4685394Y-6250265D01*
X4686105Y-6259191D01*
X4683247Y-6263859D01*
X4553859Y-6393247D01*
X4545586Y-6396674D01*
X4540265Y-6395394D01*
X4270908Y-6257843D01*
X4178915Y-6210865D01*
X4173106Y-6204051D01*
X4173410Y-6196011D01*
X4262436Y-5978821D01*
X4268743Y-5972468D01*
X4486011Y-5883411D01*
X4494963Y-5883444D01*
G37*
%TD.AperFunction*%
%TD*%
%TA.AperFunction,Conductor*%
%TO.N,Net-(USB1-CC2)*%
G36*
X6236038Y-14641514D02*
G01*
X6242347Y-14647870D01*
X6242652Y-14655912D01*
X6117622Y-15041905D01*
X6111812Y-15048720D01*
X6106491Y-15050000D01*
X5923509Y-15050000D01*
X5915236Y-15046573D01*
X5912378Y-15041905D01*
X5787347Y-14655912D01*
X5788058Y-14646986D01*
X5793960Y-14641514D01*
X6010484Y-14550889D01*
X6019437Y-14550857D01*
X6236038Y-14641514D01*
G37*
%TD.AperFunction*%
%TD*%
%TA.AperFunction,Conductor*%
%TO.N,Net-(USB1-CC2)*%
G36*
X7099732Y-19084604D02*
G01*
X7461084Y-19269134D01*
X7466893Y-19275948D01*
X7466588Y-19283991D01*
X7377564Y-19501176D01*
X7371255Y-19507531D01*
X7371176Y-19507564D01*
X7153991Y-19596588D01*
X7145036Y-19596555D01*
X7139134Y-19591084D01*
X6954604Y-19229733D01*
X6953894Y-19220808D01*
X6956750Y-19216142D01*
X7086141Y-19086751D01*
X7094413Y-19083325D01*
X7099732Y-19084604D01*
G37*
%TD.AperFunction*%
%TD*%
M02*
