%TF.GenerationSoftware,KiCad,Pcbnew,(6.0.10)*%
%TF.CreationDate,2022-12-30T18:11:37+08:00*%
%TF.ProjectId,UINIO-Logic-24MHz,55494e49-4f2d-44c6-9f67-69632d32344d,Version 1.0.0*%
%TF.SameCoordinates,Original*%
%TF.FileFunction,Paste,Top*%
%TF.FilePolarity,Positive*%
%FSLAX46Y46*%
G04 Gerber Fmt 4.6, Leading zero omitted, Abs format (unit mm)*
G04 Created by KiCad (PCBNEW (6.0.10)) date 2022-12-30 18:11:37*
%MOMM*%
%LPD*%
G01*
G04 APERTURE LIST*
G04 Aperture macros list*
%AMRoundRect*
0 Rectangle with rounded corners*
0 $1 Rounding radius*
0 $2 $3 $4 $5 $6 $7 $8 $9 X,Y pos of 4 corners*
0 Add a 4 corners polygon primitive as box body*
4,1,4,$2,$3,$4,$5,$6,$7,$8,$9,$2,$3,0*
0 Add four circle primitives for the rounded corners*
1,1,$1+$1,$2,$3*
1,1,$1+$1,$4,$5*
1,1,$1+$1,$6,$7*
1,1,$1+$1,$8,$9*
0 Add four rect primitives between the rounded corners*
20,1,$1+$1,$2,$3,$4,$5,0*
20,1,$1+$1,$4,$5,$6,$7,0*
20,1,$1+$1,$6,$7,$8,$9,0*
20,1,$1+$1,$8,$9,$2,$3,0*%
%AMFreePoly0*
4,1,9,0.435000,0.357500,0.435000,-0.357500,0.290000,-0.502500,-0.290000,-0.502500,-0.435000,-0.357500,-0.435000,0.357500,-0.290000,0.502500,0.290000,0.502500,0.435000,0.357500,0.435000,0.357500,$1*%
G04 Aperture macros list end*
%ADD10C,0.120000*%
%ADD11RoundRect,0.140000X0.170000X-0.140000X0.170000X0.140000X-0.170000X0.140000X-0.170000X-0.140000X0*%
%ADD12RoundRect,0.135000X-0.135000X-0.185000X0.135000X-0.185000X0.135000X0.185000X-0.135000X0.185000X0*%
%ADD13RoundRect,0.140000X0.140000X0.170000X-0.140000X0.170000X-0.140000X-0.170000X0.140000X-0.170000X0*%
%ADD14RoundRect,0.218750X0.218750X0.256250X-0.218750X0.256250X-0.218750X-0.256250X0.218750X-0.256250X0*%
%ADD15R,1.000000X0.600000*%
%ADD16RoundRect,0.140000X-0.170000X0.140000X-0.170000X-0.140000X0.170000X-0.140000X0.170000X0.140000X0*%
%ADD17RoundRect,0.135000X0.135000X0.185000X-0.135000X0.185000X-0.135000X-0.185000X0.135000X-0.185000X0*%
%ADD18RoundRect,0.140000X-0.140000X-0.170000X0.140000X-0.170000X0.140000X0.170000X-0.140000X0.170000X0*%
%ADD19RoundRect,0.135000X-0.185000X0.135000X-0.185000X-0.135000X0.185000X-0.135000X0.185000X0.135000X0*%
%ADD20RoundRect,0.100000X-0.637500X-0.100000X0.637500X-0.100000X0.637500X0.100000X-0.637500X0.100000X0*%
%ADD21FreePoly0,225.000000*%
%ADD22RoundRect,0.062500X0.220971X0.309359X-0.309359X-0.220971X-0.220971X-0.309359X0.309359X0.220971X0*%
%ADD23RoundRect,0.062500X-0.220971X0.309359X-0.309359X0.220971X0.220971X-0.309359X0.309359X-0.220971X0*%
%ADD24RoundRect,0.218750X-0.218750X-0.256250X0.218750X-0.256250X0.218750X0.256250X-0.218750X0.256250X0*%
%ADD25R,1.150000X0.600000*%
%ADD26R,1.150000X0.300000*%
%ADD27R,1.400000X1.200000*%
G04 APERTURE END LIST*
%TO.C,USB1*%
G36*
X162478000Y-109030000D02*
G01*
X161328000Y-109030000D01*
X161328000Y-108730000D01*
X162478000Y-108730000D01*
X162478000Y-109030000D01*
G37*
D10*
X162478000Y-109030000D02*
X161328000Y-109030000D01*
X161328000Y-108730000D01*
X162478000Y-108730000D01*
X162478000Y-109030000D01*
G36*
X162478000Y-110030000D02*
G01*
X161328000Y-110030000D01*
X161328000Y-109730000D01*
X162478000Y-109730000D01*
X162478000Y-110030000D01*
G37*
X162478000Y-110030000D02*
X161328000Y-110030000D01*
X161328000Y-109730000D01*
X162478000Y-109730000D01*
X162478000Y-110030000D01*
G36*
X162478000Y-107530000D02*
G01*
X161328000Y-107530000D01*
X161328000Y-107230000D01*
X162478000Y-107230000D01*
X162478000Y-107530000D01*
G37*
X162478000Y-107530000D02*
X161328000Y-107530000D01*
X161328000Y-107230000D01*
X162478000Y-107230000D01*
X162478000Y-107530000D01*
G36*
X162478000Y-108530000D02*
G01*
X161328000Y-108530000D01*
X161328000Y-108230000D01*
X162478000Y-108230000D01*
X162478000Y-108530000D01*
G37*
X162478000Y-108530000D02*
X161328000Y-108530000D01*
X161328000Y-108230000D01*
X162478000Y-108230000D01*
X162478000Y-108530000D01*
G36*
X163313000Y-112965000D02*
G01*
X163407000Y-112993000D01*
X163493000Y-113039000D01*
X163569000Y-113101000D01*
X163631000Y-113177000D01*
X163677000Y-113264000D01*
X163706000Y-113357000D01*
X163715000Y-113455000D01*
X163706000Y-113553000D01*
X163677000Y-113646000D01*
X163631000Y-113733000D01*
X163569000Y-113809000D01*
X163493000Y-113871000D01*
X163407000Y-113917000D01*
X163313000Y-113945000D01*
X163215000Y-113955000D01*
X162115000Y-113955000D01*
X162018000Y-113945000D01*
X161924000Y-113917000D01*
X161838000Y-113871000D01*
X161762000Y-113809000D01*
X161700000Y-113733000D01*
X161653000Y-113646000D01*
X161625000Y-113553000D01*
X161615000Y-113455000D01*
X161625000Y-113357000D01*
X161653000Y-113264000D01*
X161700000Y-113177000D01*
X161762000Y-113101000D01*
X161838000Y-113039000D01*
X161924000Y-112993000D01*
X162018000Y-112965000D01*
X162115000Y-112955000D01*
X163215000Y-112955000D01*
X163313000Y-112965000D01*
G37*
X163313000Y-112965000D02*
X163407000Y-112993000D01*
X163493000Y-113039000D01*
X163569000Y-113101000D01*
X163631000Y-113177000D01*
X163677000Y-113264000D01*
X163706000Y-113357000D01*
X163715000Y-113455000D01*
X163706000Y-113553000D01*
X163677000Y-113646000D01*
X163631000Y-113733000D01*
X163569000Y-113809000D01*
X163493000Y-113871000D01*
X163407000Y-113917000D01*
X163313000Y-113945000D01*
X163215000Y-113955000D01*
X162115000Y-113955000D01*
X162018000Y-113945000D01*
X161924000Y-113917000D01*
X161838000Y-113871000D01*
X161762000Y-113809000D01*
X161700000Y-113733000D01*
X161653000Y-113646000D01*
X161625000Y-113553000D01*
X161615000Y-113455000D01*
X161625000Y-113357000D01*
X161653000Y-113264000D01*
X161700000Y-113177000D01*
X161762000Y-113101000D01*
X161838000Y-113039000D01*
X161924000Y-112993000D01*
X162018000Y-112965000D01*
X162115000Y-112955000D01*
X163215000Y-112955000D01*
X163313000Y-112965000D01*
G36*
X162478000Y-111830000D02*
G01*
X161328000Y-111830000D01*
X161328000Y-111230000D01*
X162478000Y-111230000D01*
X162478000Y-111830000D01*
G37*
X162478000Y-111830000D02*
X161328000Y-111830000D01*
X161328000Y-111230000D01*
X162478000Y-111230000D01*
X162478000Y-111830000D01*
G36*
X167413000Y-104315000D02*
G01*
X167507000Y-104343000D01*
X167593000Y-104389000D01*
X167669000Y-104451000D01*
X167731000Y-104527000D01*
X167777000Y-104614000D01*
X167806000Y-104707000D01*
X167815000Y-104805000D01*
X167806000Y-104903000D01*
X167777000Y-104996000D01*
X167731000Y-105083000D01*
X167669000Y-105159000D01*
X167593000Y-105221000D01*
X167507000Y-105267000D01*
X167413000Y-105295000D01*
X167315000Y-105305000D01*
X166415000Y-105305000D01*
X166318000Y-105295000D01*
X166224000Y-105267000D01*
X166138000Y-105221000D01*
X166062000Y-105159000D01*
X166000000Y-105083000D01*
X165953000Y-104996000D01*
X165925000Y-104903000D01*
X165915000Y-104805000D01*
X165925000Y-104707000D01*
X165953000Y-104614000D01*
X166000000Y-104527000D01*
X166062000Y-104451000D01*
X166138000Y-104389000D01*
X166224000Y-104343000D01*
X166318000Y-104315000D01*
X166415000Y-104305000D01*
X167315000Y-104305000D01*
X167413000Y-104315000D01*
G37*
X167413000Y-104315000D02*
X167507000Y-104343000D01*
X167593000Y-104389000D01*
X167669000Y-104451000D01*
X167731000Y-104527000D01*
X167777000Y-104614000D01*
X167806000Y-104707000D01*
X167815000Y-104805000D01*
X167806000Y-104903000D01*
X167777000Y-104996000D01*
X167731000Y-105083000D01*
X167669000Y-105159000D01*
X167593000Y-105221000D01*
X167507000Y-105267000D01*
X167413000Y-105295000D01*
X167315000Y-105305000D01*
X166415000Y-105305000D01*
X166318000Y-105295000D01*
X166224000Y-105267000D01*
X166138000Y-105221000D01*
X166062000Y-105159000D01*
X166000000Y-105083000D01*
X165953000Y-104996000D01*
X165925000Y-104903000D01*
X165915000Y-104805000D01*
X165925000Y-104707000D01*
X165953000Y-104614000D01*
X166000000Y-104527000D01*
X166062000Y-104451000D01*
X166138000Y-104389000D01*
X166224000Y-104343000D01*
X166318000Y-104315000D01*
X166415000Y-104305000D01*
X167315000Y-104305000D01*
X167413000Y-104315000D01*
G36*
X162478000Y-108030000D02*
G01*
X161328000Y-108030000D01*
X161328000Y-107730000D01*
X162478000Y-107730000D01*
X162478000Y-108030000D01*
G37*
X162478000Y-108030000D02*
X161328000Y-108030000D01*
X161328000Y-107730000D01*
X162478000Y-107730000D01*
X162478000Y-108030000D01*
G36*
X162478000Y-110530000D02*
G01*
X161328000Y-110530000D01*
X161328000Y-110230000D01*
X162478000Y-110230000D01*
X162478000Y-110530000D01*
G37*
X162478000Y-110530000D02*
X161328000Y-110530000D01*
X161328000Y-110230000D01*
X162478000Y-110230000D01*
X162478000Y-110530000D01*
G36*
X162478000Y-106230000D02*
G01*
X161328000Y-106230000D01*
X161328000Y-105630000D01*
X162478000Y-105630000D01*
X162478000Y-106230000D01*
G37*
X162478000Y-106230000D02*
X161328000Y-106230000D01*
X161328000Y-105630000D01*
X162478000Y-105630000D01*
X162478000Y-106230000D01*
G36*
X163313000Y-104315000D02*
G01*
X163407000Y-104343000D01*
X163493000Y-104389000D01*
X163569000Y-104451000D01*
X163631000Y-104527000D01*
X163677000Y-104614000D01*
X163706000Y-104707000D01*
X163715000Y-104805000D01*
X163706000Y-104903000D01*
X163677000Y-104996000D01*
X163631000Y-105083000D01*
X163569000Y-105159000D01*
X163493000Y-105221000D01*
X163407000Y-105267000D01*
X163313000Y-105295000D01*
X163215000Y-105305000D01*
X162115000Y-105305000D01*
X162018000Y-105295000D01*
X161924000Y-105267000D01*
X161838000Y-105221000D01*
X161762000Y-105159000D01*
X161700000Y-105083000D01*
X161653000Y-104996000D01*
X161625000Y-104903000D01*
X161615000Y-104805000D01*
X161625000Y-104707000D01*
X161653000Y-104614000D01*
X161700000Y-104527000D01*
X161762000Y-104451000D01*
X161838000Y-104389000D01*
X161924000Y-104343000D01*
X162018000Y-104315000D01*
X162115000Y-104305000D01*
X163215000Y-104305000D01*
X163313000Y-104315000D01*
G37*
X163313000Y-104315000D02*
X163407000Y-104343000D01*
X163493000Y-104389000D01*
X163569000Y-104451000D01*
X163631000Y-104527000D01*
X163677000Y-104614000D01*
X163706000Y-104707000D01*
X163715000Y-104805000D01*
X163706000Y-104903000D01*
X163677000Y-104996000D01*
X163631000Y-105083000D01*
X163569000Y-105159000D01*
X163493000Y-105221000D01*
X163407000Y-105267000D01*
X163313000Y-105295000D01*
X163215000Y-105305000D01*
X162115000Y-105305000D01*
X162018000Y-105295000D01*
X161924000Y-105267000D01*
X161838000Y-105221000D01*
X161762000Y-105159000D01*
X161700000Y-105083000D01*
X161653000Y-104996000D01*
X161625000Y-104903000D01*
X161615000Y-104805000D01*
X161625000Y-104707000D01*
X161653000Y-104614000D01*
X161700000Y-104527000D01*
X161762000Y-104451000D01*
X161838000Y-104389000D01*
X161924000Y-104343000D01*
X162018000Y-104315000D01*
X162115000Y-104305000D01*
X163215000Y-104305000D01*
X163313000Y-104315000D01*
G36*
X162478000Y-112630000D02*
G01*
X161328000Y-112630000D01*
X161328000Y-112030000D01*
X162478000Y-112030000D01*
X162478000Y-112630000D01*
G37*
X162478000Y-112630000D02*
X161328000Y-112630000D01*
X161328000Y-112030000D01*
X162478000Y-112030000D01*
X162478000Y-112630000D01*
G36*
X162478000Y-107030000D02*
G01*
X161328000Y-107030000D01*
X161328000Y-106430000D01*
X162478000Y-106430000D01*
X162478000Y-107030000D01*
G37*
X162478000Y-107030000D02*
X161328000Y-107030000D01*
X161328000Y-106430000D01*
X162478000Y-106430000D01*
X162478000Y-107030000D01*
G36*
X162478000Y-109530000D02*
G01*
X161328000Y-109530000D01*
X161328000Y-109230000D01*
X162478000Y-109230000D01*
X162478000Y-109530000D01*
G37*
X162478000Y-109530000D02*
X161328000Y-109530000D01*
X161328000Y-109230000D01*
X162478000Y-109230000D01*
X162478000Y-109530000D01*
G36*
X167413000Y-112965000D02*
G01*
X167507000Y-112993000D01*
X167593000Y-113039000D01*
X167669000Y-113101000D01*
X167731000Y-113177000D01*
X167777000Y-113264000D01*
X167806000Y-113357000D01*
X167815000Y-113455000D01*
X167806000Y-113553000D01*
X167777000Y-113646000D01*
X167731000Y-113733000D01*
X167669000Y-113809000D01*
X167593000Y-113871000D01*
X167507000Y-113917000D01*
X167413000Y-113945000D01*
X167315000Y-113955000D01*
X166415000Y-113955000D01*
X166318000Y-113945000D01*
X166224000Y-113917000D01*
X166138000Y-113871000D01*
X166062000Y-113809000D01*
X166000000Y-113733000D01*
X165953000Y-113646000D01*
X165925000Y-113553000D01*
X165915000Y-113455000D01*
X165925000Y-113357000D01*
X165953000Y-113264000D01*
X166000000Y-113177000D01*
X166062000Y-113101000D01*
X166138000Y-113039000D01*
X166224000Y-112993000D01*
X166318000Y-112965000D01*
X166415000Y-112955000D01*
X167315000Y-112955000D01*
X167413000Y-112965000D01*
G37*
X167413000Y-112965000D02*
X167507000Y-112993000D01*
X167593000Y-113039000D01*
X167669000Y-113101000D01*
X167731000Y-113177000D01*
X167777000Y-113264000D01*
X167806000Y-113357000D01*
X167815000Y-113455000D01*
X167806000Y-113553000D01*
X167777000Y-113646000D01*
X167731000Y-113733000D01*
X167669000Y-113809000D01*
X167593000Y-113871000D01*
X167507000Y-113917000D01*
X167413000Y-113945000D01*
X167315000Y-113955000D01*
X166415000Y-113955000D01*
X166318000Y-113945000D01*
X166224000Y-113917000D01*
X166138000Y-113871000D01*
X166062000Y-113809000D01*
X166000000Y-113733000D01*
X165953000Y-113646000D01*
X165925000Y-113553000D01*
X165915000Y-113455000D01*
X165925000Y-113357000D01*
X165953000Y-113264000D01*
X166000000Y-113177000D01*
X166062000Y-113101000D01*
X166138000Y-113039000D01*
X166224000Y-112993000D01*
X166318000Y-112965000D01*
X166415000Y-112955000D01*
X167315000Y-112955000D01*
X167413000Y-112965000D01*
G36*
X162478000Y-111030000D02*
G01*
X161328000Y-111030000D01*
X161328000Y-110730000D01*
X162478000Y-110730000D01*
X162478000Y-111030000D01*
G37*
X162478000Y-111030000D02*
X161328000Y-111030000D01*
X161328000Y-110730000D01*
X162478000Y-110730000D01*
X162478000Y-111030000D01*
%TD*%
D11*
%TO.C,C10*%
X147910000Y-116280000D03*
X147910000Y-115320000D03*
%TD*%
D12*
%TO.C,R3*%
X139730000Y-107276666D03*
X140750000Y-107276666D03*
%TD*%
D13*
%TO.C,C7*%
X145710000Y-103910000D03*
X144750000Y-103910000D03*
%TD*%
D14*
%TO.C,D2*%
X141965000Y-117700000D03*
X140390000Y-117700000D03*
%TD*%
D12*
%TO.C,R2*%
X139730000Y-106123333D03*
X140750000Y-106123333D03*
%TD*%
D15*
%TO.C,U2*%
X157230000Y-102022000D03*
X157230000Y-101072000D03*
X157230000Y-100122000D03*
X154630000Y-100122000D03*
X154630000Y-102022000D03*
%TD*%
D16*
%TO.C,C8*%
X154520000Y-117100000D03*
X154520000Y-118060000D03*
%TD*%
D17*
%TO.C,R9*%
X163870000Y-116140000D03*
X162850000Y-116140000D03*
%TD*%
D12*
%TO.C,R6*%
X139730000Y-110790000D03*
X140750000Y-110790000D03*
%TD*%
D16*
%TO.C,C2*%
X153420000Y-100120000D03*
X153420000Y-101080000D03*
%TD*%
D18*
%TO.C,C5*%
X157000000Y-107580000D03*
X157960000Y-107580000D03*
%TD*%
D12*
%TO.C,R5*%
X139730000Y-109650000D03*
X140750000Y-109650000D03*
%TD*%
D19*
%TO.C,R12*%
X148556666Y-101460000D03*
X148556666Y-102480000D03*
%TD*%
D16*
%TO.C,C3*%
X150463332Y-115320000D03*
X150463332Y-116280000D03*
%TD*%
D12*
%TO.C,R7*%
X139730000Y-111930000D03*
X140750000Y-111930000D03*
%TD*%
D18*
%TO.C,C6*%
X157010000Y-109850000D03*
X157970000Y-109850000D03*
%TD*%
D20*
%TO.C,U1*%
X139547500Y-99935000D03*
X139547500Y-100585000D03*
X139547500Y-101235000D03*
X139547500Y-101885000D03*
X145272500Y-101885000D03*
X145272500Y-101235000D03*
X145272500Y-100585000D03*
X145272500Y-99935000D03*
%TD*%
D12*
%TO.C,R1*%
X139730000Y-104970000D03*
X140750000Y-104970000D03*
%TD*%
D21*
%TO.C,U3*%
X150726722Y-110499829D03*
X150602979Y-108961872D03*
X152140936Y-109085616D03*
X150019616Y-111206936D03*
X149065021Y-108838128D03*
X148357915Y-109545235D03*
X147527064Y-108714384D03*
X148941278Y-107300171D03*
X149648384Y-106593064D03*
X149895872Y-109668979D03*
X149772128Y-108131021D03*
X151310085Y-108254765D03*
X148234171Y-108007278D03*
X149188765Y-110376085D03*
X151433829Y-109792722D03*
X150479235Y-107423915D03*
D22*
X154916330Y-108413864D03*
X154562777Y-108060311D03*
X154209223Y-107706757D03*
X153855670Y-107353204D03*
X153502116Y-106999651D03*
X153148563Y-106646097D03*
X152795010Y-106292544D03*
X152441456Y-105938990D03*
X152087903Y-105585437D03*
X151734349Y-105231884D03*
X151380796Y-104878330D03*
X151027243Y-104524777D03*
X150673689Y-104171223D03*
X150320136Y-103817670D03*
D23*
X149347864Y-103817670D03*
X148994311Y-104171223D03*
X148640757Y-104524777D03*
X148287204Y-104878330D03*
X147933651Y-105231884D03*
X147580097Y-105585437D03*
X147226544Y-105938990D03*
X146872990Y-106292544D03*
X146519437Y-106646097D03*
X146165884Y-106999651D03*
X145812330Y-107353204D03*
X145458777Y-107706757D03*
X145105223Y-108060311D03*
X144751670Y-108413864D03*
D22*
X144751670Y-109386136D03*
X145105223Y-109739689D03*
X145458777Y-110093243D03*
X145812330Y-110446796D03*
X146165884Y-110800349D03*
X146519437Y-111153903D03*
X146872990Y-111507456D03*
X147226544Y-111861010D03*
X147580097Y-112214563D03*
X147933651Y-112568116D03*
X148287204Y-112921670D03*
X148640757Y-113275223D03*
X148994311Y-113628777D03*
X149347864Y-113982330D03*
D23*
X150320136Y-113982330D03*
X150673689Y-113628777D03*
X151027243Y-113275223D03*
X151380796Y-112921670D03*
X151734349Y-112568116D03*
X152087903Y-112214563D03*
X152441456Y-111861010D03*
X152795010Y-111507456D03*
X153148563Y-111153903D03*
X153502116Y-110800349D03*
X153855670Y-110446796D03*
X154209223Y-110093243D03*
X154562777Y-109739689D03*
X154916330Y-109386136D03*
%TD*%
D19*
%TO.C,R13*%
X149843332Y-101460000D03*
X149843332Y-102480000D03*
%TD*%
%TO.C,R11*%
X151740000Y-115310000D03*
X151740000Y-116330000D03*
%TD*%
D11*
%TO.C,C9*%
X159730000Y-118060001D03*
X159730000Y-117100001D03*
%TD*%
D12*
%TO.C,R10*%
X140390000Y-116110000D03*
X141410000Y-116110000D03*
%TD*%
D24*
%TO.C,D1*%
X162302500Y-117700000D03*
X163877500Y-117700000D03*
%TD*%
D25*
%TO.C,USB1*%
X161903000Y-112330000D03*
X161903000Y-111530000D03*
D26*
X161903000Y-110380000D03*
X161903000Y-109380000D03*
X161903000Y-108880000D03*
X161903000Y-107880000D03*
D25*
X161903000Y-105930000D03*
X161903000Y-106730000D03*
D26*
X161903000Y-107380000D03*
X161903000Y-108380000D03*
X161903000Y-109880000D03*
X161903000Y-110880000D03*
%TD*%
D11*
%TO.C,C1*%
X158440000Y-101080000D03*
X158440000Y-100120000D03*
%TD*%
D27*
%TO.C,Y1*%
X158220000Y-115940000D03*
X156020000Y-115940000D03*
X156020000Y-117640000D03*
X158220000Y-117640000D03*
%TD*%
D19*
%TO.C,R14*%
X149186666Y-115310000D03*
X149186666Y-116330000D03*
%TD*%
D12*
%TO.C,R8*%
X139730000Y-113070000D03*
X140750000Y-113070000D03*
%TD*%
D11*
%TO.C,C4*%
X151120000Y-102470000D03*
X151120000Y-101510000D03*
%TD*%
D12*
%TO.C,R4*%
X139730000Y-108430000D03*
X140750000Y-108430000D03*
%TD*%
M02*
