M48
; DRILL file {KiCad (6.0.11)} date Sun Jan 29 17:16:15 2023
; FORMAT={-:-/ absolute / metric / decimal}
; #@! TF.CreationDate,2023-01-29T17:16:15+08:00
; #@! TF.GenerationSoftware,Kicad,Pcbnew,(6.0.11)
; #@! TF.FileFunction,MixedPlating,1,2
FMAT,2
METRIC
; #@! TA.AperFunction,Plated,PTH,ComponentDrill
T1C0.200
; #@! TA.AperFunction,Plated,PTH,ViaDrill
T2C0.300
; #@! TA.AperFunction,Plated,PTH,ViaDrill
T3C0.400
; #@! TA.AperFunction,Plated,PTH,ViaDrill
T4C0.500
; #@! TA.AperFunction,Plated,PTH,ComponentDrill
T5C0.600
; #@! TA.AperFunction,Plated,PTH,ComponentDrill
T6C1.000
; #@! TA.AperFunction,Plated,PTH,ComponentDrill
T7C2.200
; #@! TA.AperFunction,NonPlated,NPTH,ComponentDrill
T8C0.650
%
G90
G05
T1
X-19.29Y-10.78
X-19.29Y-11.78
X-19.29Y-12.78
X-19.29Y-13.78
X-19.29Y-14.78
X-18.115Y-10.78
X-18.115Y-11.78
X-18.115Y-12.78
X-18.115Y-13.78
X-18.115Y-14.78
X-16.94Y-10.78
X-16.94Y-11.78
X-16.94Y-12.78
X-16.94Y-13.78
X-16.94Y-14.78
X-15.765Y-10.78
X-15.765Y-11.78
X-15.765Y-12.78
X-15.765Y-13.78
X-15.765Y-14.78
X-14.59Y-10.78
X-14.59Y-11.78
X-14.59Y-12.78
X-14.59Y-13.78
X-14.59Y-14.78
T2
X-43.63Y-12.72
X-42.325Y-12.72
X-41.02Y-8.31
X-41.02Y-9.86
X-41.02Y-11.25
X-41.02Y-12.72
X-41.02Y-14.19
X-41.02Y-15.74
X-41.02Y-17.28
X-37.62Y-11.155
X-37.58Y-8.23
X-37.565Y-12.805
X-37.56Y-14.28
X-37.55Y-17.2
X-37.53Y-15.73
X-37.525Y-9.745
X-35.835Y-11.805
X-34.67Y-21.34
X-34.66Y-4.1
X-33.14Y-21.34
X-33.13Y-4.1
X-31.6Y-4.11
X-31.6Y-21.34
X-30.08Y-21.34
X-30.06Y-4.11
X-21.99Y-7.75
X-21.99Y-10.52
X-20.25Y-18.09
X-20.19Y-7.46
X-18.191Y-5.61
X-16.334Y-7.136
X-15.56Y-3.17
X-11.89Y-8.98
X-4.119Y-12.51
X-4.11Y-13.52
T3
X-27.44Y-23.06
X-10.62Y-13.63
X-9.18Y-6.07
X-6.31Y-15.16
T4
X-16.34Y-4.75
T6
X-45.385Y-1.345
X-45.385Y-3.885
X-45.385Y-6.425
X-45.385Y-8.965
X-45.385Y-11.505
X-45.385Y-14.045
X-45.385Y-16.585
X-45.385Y-19.125
X-45.385Y-21.665
X-45.385Y-24.205
T7
X-38.89Y-2.71
X-38.89Y-22.71
X-0.8Y-2.71
X-0.8Y-22.71
T8
X-3.759Y-9.87
X-3.759Y-15.65
T5
G00X-4.859Y-8.435
M15
G01X-3.659Y-8.435
M16
G05
G00X-4.859Y-17.085
M15
G01X-3.659Y-17.085
M16
G05
G00X-0.509Y-8.435
M15
G01X0.391Y-8.435
M16
G05
G00X-0.509Y-17.085
M15
G01X0.391Y-17.085
M16
G05
T0
M30
